<?xml version="1.0" encoding="UTF-8"?> <svg xmlns="http://www.w3.org/2000/svg" xmlns:xlink="http://www.w3.org/1999/xlink" id="Layer_1" data-name="Layer 1" viewBox="0 0 1239.61 331.17"><defs><style>.cls-1{fill:#f6cf19;}.cls-2{fill:#edc71a;}.cls-3{fill:#f3cd19;}.cls-4{fill:url(#linear-gradient);}.cls-5{fill:url(#linear-gradient-2);}.cls-6{fill:url(#linear-gradient-3);}.cls-7{fill:url(#linear-gradient-4);}.cls-8{fill:url(#linear-gradient-5);}.cls-9{fill:url(#linear-gradient-6);}.cls-10{fill:url(#linear-gradient-7);}.cls-11{fill:url(#linear-gradient-8);}.cls-12{fill:url(#linear-gradient-9);}.cls-13{fill:url(#linear-gradient-10);}.cls-14{fill:url(#linear-gradient-11);}.cls-15{fill:url(#linear-gradient-12);}.cls-16{fill:url(#linear-gradient-13);}.cls-17{fill:url(#linear-gradient-14);}.cls-18{fill:url(#linear-gradient-15);}.cls-19{fill:url(#linear-gradient-16);}.cls-20{fill:url(#linear-gradient-17);}.cls-21{fill:url(#linear-gradient-18);}.cls-22{fill:url(#linear-gradient-19);}.cls-23{fill:url(#linear-gradient-20);}.cls-24{fill:url(#linear-gradient-21);}.cls-25{fill:url(#linear-gradient-22);}.cls-26{fill:url(#linear-gradient-23);}.cls-27{fill:url(#linear-gradient-24);}</style><linearGradient id="linear-gradient" x1="979.61" y1="26.73" x2="979.61" y2="306.95" gradientTransform="matrix(1, 0, 0, -1, 112.88, 78.66)" gradientUnits="userSpaceOnUse"><stop offset="0" stop-color="#65cadc"></stop><stop offset="0.16" stop-color="#78d1e0"></stop><stop offset="0.49" stop-color="#a9e1eb"></stop><stop offset="0.96" stop-color="#f7fcfd"></stop><stop offset="1" stop-color="#fff"></stop></linearGradient><linearGradient id="linear-gradient-2" x1="979.61" y1="26.73" x2="979.61" y2="306.95" gradientTransform="matrix(1, 0, 0, -1, 112.88, 143.21)" xlink:href="#linear-gradient"></linearGradient><linearGradient id="linear-gradient-3" x1="979.61" y1="26.73" x2="979.61" y2="306.95" gradientTransform="matrix(1, 0, 0, -1, 112.88, 207.76)" xlink:href="#linear-gradient"></linearGradient><linearGradient id="linear-gradient-4" x1="979.61" y1="26.73" x2="979.61" y2="306.95" gradientTransform="matrix(1, 0, 0, -1, 112.88, 272.32)" xlink:href="#linear-gradient"></linearGradient><linearGradient id="linear-gradient-5" x1="979.61" y1="26.73" x2="979.61" y2="306.95" gradientTransform="matrix(1, 0, 0, -1, 112.88, 336.87)" xlink:href="#linear-gradient"></linearGradient><linearGradient id="linear-gradient-6" x1="979.61" y1="26.73" x2="979.61" y2="306.95" gradientTransform="matrix(1, 0, 0, -1, 112.88, 401.42)" xlink:href="#linear-gradient"></linearGradient><linearGradient id="linear-gradient-7" x1="979.61" y1="26.73" x2="979.61" y2="306.95" gradientTransform="matrix(1, 0, 0, -1, 112.88, 465.97)" xlink:href="#linear-gradient"></linearGradient><linearGradient id="linear-gradient-8" x1="979.61" y1="26.73" x2="979.61" y2="306.95" gradientTransform="matrix(1, 0, 0, -1, 112.88, 530.52)" xlink:href="#linear-gradient"></linearGradient><linearGradient id="linear-gradient-9" x1="955" y1="26.73" x2="955" y2="306.95" gradientTransform="matrix(1, 0, 0, -1, 162.1, 595.08)" xlink:href="#linear-gradient"></linearGradient><linearGradient id="linear-gradient-10" x1="1309.03" y1="26.73" x2="1309.03" y2="306.95" gradientTransform="matrix(1, 0, 0, -1, -545.96, 336.87)" xlink:href="#linear-gradient"></linearGradient><linearGradient id="linear-gradient-11" x1="1309.03" y1="26.73" x2="1309.03" y2="306.95" gradientTransform="matrix(1, 0, 0, -1, -545.96, 401.42)" xlink:href="#linear-gradient"></linearGradient><linearGradient id="linear-gradient-12" x1="1309.03" y1="26.73" x2="1309.03" y2="306.95" gradientTransform="matrix(1, 0, 0, -1, -545.96, 465.97)" xlink:href="#linear-gradient"></linearGradient><linearGradient id="linear-gradient-13" x1="1309.03" y1="26.73" x2="1309.03" y2="306.95" gradientTransform="matrix(1, 0, 0, -1, -545.96, 530.52)" xlink:href="#linear-gradient"></linearGradient><linearGradient id="linear-gradient-14" x1="1288.5" y1="26.73" x2="1288.5" y2="306.95" gradientTransform="matrix(1, 0, 0, -1, -504.91, 595.08)" xlink:href="#linear-gradient"></linearGradient><linearGradient id="linear-gradient-15" x1="1310.73" y1="26.73" x2="1310.73" y2="306.95" gradientTransform="matrix(1, 0, 0, -1, -549.36, 272.32)" xlink:href="#linear-gradient"></linearGradient><linearGradient id="linear-gradient-16" x1="1310.73" y1="-5.55" x2="1310.73" y2="274.67" gradientTransform="matrix(1, 0, 0, -1, -549.36, 207.76)" xlink:href="#linear-gradient"></linearGradient><linearGradient id="linear-gradient-17" x1="1634.09" y1="26.73" x2="1634.09" y2="306.95" gradientTransform="matrix(1, 0, 0, -1, -1196.08, 336.87)" gradientUnits="userSpaceOnUse"><stop offset="0" stop-color="#fff"></stop><stop offset="0.07" stop-color="#ecf8fb"></stop><stop offset="0.2" stop-color="#bbe8f0"></stop><stop offset="0.39" stop-color="#6dcdde"></stop><stop offset="0.41" stop-color="#65cadc"></stop><stop offset="0.5" stop-color="#78d1e0"></stop><stop offset="0.7" stop-color="#a9e1eb"></stop><stop offset="0.97" stop-color="#f7fcfd"></stop><stop offset="1" stop-color="#fff"></stop></linearGradient><linearGradient id="linear-gradient-18" x1="1634.09" y1="26.73" x2="1634.09" y2="306.95" gradientTransform="matrix(1, 0, 0, -1, -1196.08, 401.42)" xlink:href="#linear-gradient-17"></linearGradient><linearGradient id="linear-gradient-19" x1="1634.09" y1="26.73" x2="1634.09" y2="306.95" gradientTransform="matrix(1, 0, 0, -1, -1196.08, 465.97)" xlink:href="#linear-gradient-17"></linearGradient><linearGradient id="linear-gradient-20" x1="1634.09" y1="26.73" x2="1634.09" y2="306.95" gradientTransform="matrix(1, 0, 0, -1, -1196.08, 530.52)" xlink:href="#linear-gradient-17"></linearGradient><linearGradient id="linear-gradient-21" x1="1607.5" y1="26.73" x2="1607.5" y2="306.95" gradientTransform="matrix(1, 0, 0, -1, -1142.9, 595.08)" xlink:href="#linear-gradient-17"></linearGradient><linearGradient id="linear-gradient-22" x1="1948.55" y1="26.73" x2="1948.55" y2="306.95" gradientTransform="matrix(1, 0, 0, -1, -1825.01, 465.97)" xlink:href="#linear-gradient-17"></linearGradient><linearGradient id="linear-gradient-23" x1="1948.55" y1="26.73" x2="1948.55" y2="306.95" gradientTransform="matrix(1, 0, 0, -1, -1825.01, 530.52)" xlink:href="#linear-gradient-17"></linearGradient><linearGradient id="linear-gradient-24" x1="1925.85" y1="26.73" x2="1925.85" y2="306.95" gradientTransform="matrix(1, 0, 0, -1, -1779.61, 595.08)" xlink:href="#linear-gradient-17"></linearGradient></defs><path class="cls-1" d="M1.63,319.21H9.28v2.47H4.34v2.25h3.9v2.42H4.34v2.13H9.63v2.46h-8Z" transform="translate(0 -3.03)"></path><path class="cls-1" d="M11.13,318.79H13.7v12.15H11.13Z" transform="translate(0 -3.03)"></path><path class="cls-1" d="M23.15,327.59H17.66a1.59,1.59,0,0,0,.66,1,2.19,2.19,0,0,0,1.25.37,2.52,2.52,0,0,0,2-1l1.37,1.54a4,4,0,0,1-1.48,1.12,5,5,0,0,1-2.12.42,4.43,4.43,0,0,1-1.67-.31,3.75,3.75,0,0,1-1.33-.85,3.91,3.91,0,0,1-.88-1.33,4.51,4.51,0,0,1-.32-1.7,4.44,4.44,0,0,1,.31-1.68,3.94,3.94,0,0,1,.85-1.33,3.81,3.81,0,0,1,1.3-.87,4.45,4.45,0,0,1,3.72.21,3.68,3.68,0,0,1,1.43,1.47,4.41,4.41,0,0,1,.51,2.13A4.94,4.94,0,0,1,23.15,327.59Zm-4.94-2.48a1.54,1.54,0,0,0-.54.94h3a1.91,1.91,0,0,0-.28-.68,1.29,1.29,0,0,0-.5-.43,1.43,1.43,0,0,0-.69-.16A1.6,1.6,0,0,0,18.21,325.11Z" transform="translate(0 -3.03)"></path><path class="cls-1" d="M35.61,322.91a2.36,2.36,0,0,1,.9.61,2.76,2.76,0,0,1,.59,1.09,5.61,5.61,0,0,1,.2,1.62v4.71H34.73v-4.1q0-1.83-1.17-1.83a1.19,1.19,0,0,0-1,.49,2.25,2.25,0,0,0-.38,1.39v4.05H29.64v-4.1c0-1.22-.39-1.83-1.18-1.83a1.24,1.24,0,0,0-1,.49,2.23,2.23,0,0,0-.38,1.39v4.05H24.49v-8.08h2.58v.91h0a3.3,3.3,0,0,1,1-.79,2.89,2.89,0,0,1,1.22-.27,2.5,2.5,0,0,1,2.31,1.16h0a3.42,3.42,0,0,1,2.72-1.16A3.26,3.26,0,0,1,35.61,322.91Z" transform="translate(0 -3.03)"></path><path class="cls-1" d="M46.57,327.59H41.08a1.59,1.59,0,0,0,.66,1A2.19,2.19,0,0,0,43,329a2.52,2.52,0,0,0,2-1l1.37,1.54a4,4,0,0,1-1.48,1.12,5.08,5.08,0,0,1-2.12.42,4.43,4.43,0,0,1-1.67-.31,3.75,3.75,0,0,1-1.33-.85,3.91,3.91,0,0,1-.88-1.33,4.51,4.51,0,0,1-.32-1.7,4.44,4.44,0,0,1,.31-1.68,3.94,3.94,0,0,1,.85-1.33A3.81,3.81,0,0,1,41,323a4.45,4.45,0,0,1,3.72.21,3.68,3.68,0,0,1,1.43,1.47,4.41,4.41,0,0,1,.51,2.13A4.94,4.94,0,0,1,46.57,327.59Zm-4.94-2.48a1.54,1.54,0,0,0-.54.94h3a1.91,1.91,0,0,0-.28-.68,1.29,1.29,0,0,0-.5-.43,1.43,1.43,0,0,0-.69-.16A1.6,1.6,0,0,0,41.63,325.11Z" transform="translate(0 -3.03)"></path><path class="cls-1" d="M54.12,322.88a2.48,2.48,0,0,1,.9.56,2.43,2.43,0,0,1,.61,1.06,5.37,5.37,0,0,1,.21,1.59v4.85H53.26v-4.21a3.15,3.15,0,0,0-.14-1,1,1,0,0,0-.42-.54A1.5,1.5,0,0,0,52,325a1.41,1.41,0,0,0-.77.21,1.35,1.35,0,0,0-.52.62,2.72,2.72,0,0,0-.19,1v4.06H47.91v-8.08h2.58v1h0a3.17,3.17,0,0,1,1.1-.84,3.23,3.23,0,0,1,1.34-.29A3.79,3.79,0,0,1,54.12,322.88Z" transform="translate(0 -3.03)"></path><path class="cls-1" d="M58.35,330.4a2.8,2.8,0,0,1-.65-2V325h-.91v-2.11h.91v-2.57l2.58-.28v2.85h2V325h-2v2.94a1.38,1.38,0,0,0,.14.68.48.48,0,0,0,.47.24,1.66,1.66,0,0,0,.8-.2l.64,1.9a4.67,4.67,0,0,1-1,.42,4.9,4.9,0,0,1-1.27.14A2.24,2.24,0,0,1,58.35,330.4Z" transform="translate(0 -3.03)"></path><path class="cls-1" d="M71.28,322.86v8.08H68.83v-.87h0a2.64,2.64,0,0,1-2.23,1,3.78,3.78,0,0,1-1.54-.31,3.56,3.56,0,0,1-1.21-.84,3.91,3.91,0,0,1-.78-1.32,5.33,5.33,0,0,1,0-3.41,4,4,0,0,1,.78-1.33A3.55,3.55,0,0,1,65,323a3.4,3.4,0,0,1,1.45-.31,2.82,2.82,0,0,1,2.23,1h0v-.86Zm-3,5.43a1.92,1.92,0,0,0,.49-1.37,2.12,2.12,0,0,0-.22-1,1.7,1.7,0,0,0-.61-.69,1.63,1.63,0,0,0-.87-.24,1.65,1.65,0,0,0-1.24.53,2,2,0,0,0-.49,1.39,1.92,1.92,0,0,0,.49,1.37,1.68,1.68,0,0,0,2.45,0Z" transform="translate(0 -3.03)"></path><path class="cls-1" d="M78,322.72v2.78l-.61,0a2.08,2.08,0,0,0-1,.24,1.44,1.44,0,0,0-.62.65,2,2,0,0,0-.21.94v3.63H72.91v-8.08h2.58v1.08h0a3.31,3.31,0,0,1,.68-.67,2.92,2.92,0,0,1,.8-.42,2.77,2.77,0,0,1,.86-.14Z" transform="translate(0 -3.03)"></path><path class="cls-1" d="M86.83,322.86,82.59,334.2H80l1.39-3.81-3.15-7.53H81l1.64,4.38h0l1.55-4.38Z" transform="translate(0 -3.03)"></path><path class="cls-2" d="M294.31,319.21h4.46a5.11,5.11,0,0,1,1.86.31,3.21,3.21,0,0,1,1.31.85,3.68,3.68,0,0,1,.75,1.27,4.92,4.92,0,0,1,.25,1.62,4,4,0,0,1-.55,2.17,3.22,3.22,0,0,1-1.52,1.3,5.64,5.64,0,0,1-2.31.43H297v3.78h-2.72Zm3.88,5.52a2.13,2.13,0,0,0,1.39-.4,1.39,1.39,0,0,0,.5-1.14,1.43,1.43,0,0,0-.48-1.11,2,2,0,0,0-1.37-.43H297v3.08Z" transform="translate(0 -3.03)"></path><path class="cls-2" d="M309.2,322.72v2.78l-.6,0a2,2,0,0,0-1,.24,1.41,1.41,0,0,0-.63.65,2,2,0,0,0-.21.94v3.63h-2.58v-8.08h2.58v1.08h0a3.58,3.58,0,0,1,.68-.67,2.92,2.92,0,0,1,.8-.42,2.82,2.82,0,0,1,.86-.14Z" transform="translate(0 -3.03)"></path><path class="cls-2" d="M317.72,327.59h-5.49a1.59,1.59,0,0,0,.66,1,2.16,2.16,0,0,0,1.24.37,2.52,2.52,0,0,0,2-1l1.37,1.54a3.84,3.84,0,0,1-1.47,1.12,5.12,5.12,0,0,1-2.13.42,4.38,4.38,0,0,1-1.66-.31,3.79,3.79,0,0,1-1.34-.85,3.75,3.75,0,0,1-.87-1.33,4.33,4.33,0,0,1-.33-1.7,4.64,4.64,0,0,1,.31-1.68,3.84,3.84,0,0,1,2.15-2.2,4.27,4.27,0,0,1,1.64-.31,4.2,4.2,0,0,1,2.08.52,3.68,3.68,0,0,1,1.43,1.47,4.41,4.41,0,0,1,.51,2.13A6.28,6.28,0,0,1,317.72,327.59Zm-5-2.48a1.54,1.54,0,0,0-.54.94h3a1.74,1.74,0,0,0-.28-.68,1.23,1.23,0,0,0-.5-.43,1.39,1.39,0,0,0-.68-.16A1.61,1.61,0,0,0,312.77,325.11Z" transform="translate(0 -3.03)"></path><path class="cls-2" d="M318.83,324.65h5.05V327h-5.05Z" transform="translate(0 -3.03)"></path><path class="cls-2" d="M325.65,319.21h2.79v11.73h-2.79Z" transform="translate(0 -3.03)"></path><path class="cls-2" d="M336.58,322.88a2.61,2.61,0,0,1,.91.56,2.54,2.54,0,0,1,.61,1.06,5.37,5.37,0,0,1,.21,1.59v4.85h-2.58v-4.21a2.88,2.88,0,0,0-.15-1,1,1,0,0,0-.42-.54,1.48,1.48,0,0,0-.72-.15,1.45,1.45,0,0,0-.78.21,1.33,1.33,0,0,0-.51.62,2.54,2.54,0,0,0-.19,1v4.06h-2.58v-8.08H333v1h0a3.2,3.2,0,0,1,2.44-1.13A3.79,3.79,0,0,1,336.58,322.88Z" transform="translate(0 -3.03)"></path><path class="cls-2" d="M340.81,330.4a2.8,2.8,0,0,1-.64-2V325h-.91v-2.11h.91v-2.57l2.58-.28v2.85h1.95V325h-1.95v2.94a1.39,1.39,0,0,0,.13.68.5.5,0,0,0,.48.24,1.69,1.69,0,0,0,.8-.2l.63,1.9a4.39,4.39,0,0,1-1,.42,5,5,0,0,1-1.27.14A2.26,2.26,0,0,1,340.81,330.4Z" transform="translate(0 -3.03)"></path><path class="cls-2" d="M353.23,327.59h-5.49a1.59,1.59,0,0,0,.66,1,2.17,2.17,0,0,0,1.25.37,2.54,2.54,0,0,0,2-1l1.36,1.54a3.84,3.84,0,0,1-1.47,1.12,5.12,5.12,0,0,1-2.13.42,4.38,4.38,0,0,1-1.66-.31,3.83,3.83,0,0,1-2.21-2.18,4.33,4.33,0,0,1-.32-1.7,4.44,4.44,0,0,1,.31-1.68,3.84,3.84,0,0,1,2.15-2.2,4.2,4.2,0,0,1,1.64-.31,4.25,4.25,0,0,1,2.08.52,3.75,3.75,0,0,1,1.43,1.47,4.41,4.41,0,0,1,.51,2.13A4.94,4.94,0,0,1,353.23,327.59Zm-4.94-2.48a1.54,1.54,0,0,0-.54.94h3a2.11,2.11,0,0,0-.28-.68,1.29,1.29,0,0,0-.5-.43,1.46,1.46,0,0,0-.69-.16A1.58,1.58,0,0,0,348.29,325.11Z" transform="translate(0 -3.03)"></path><path class="cls-2" d="M359.61,322.72v2.78l-.61,0a2.08,2.08,0,0,0-1,.24,1.44,1.44,0,0,0-.62.65,2,2,0,0,0-.21.94v3.63h-2.58v-8.08h2.58v1.08h0a3.31,3.31,0,0,1,.68-.67,2.92,2.92,0,0,1,.8-.42,2.77,2.77,0,0,1,.86-.14Z" transform="translate(0 -3.03)"></path><path class="cls-2" d="M371.74,322.91a2.36,2.36,0,0,1,.9.61,2.64,2.64,0,0,1,.59,1.09,5.59,5.59,0,0,1,.21,1.62v4.71h-2.57v-4.1c0-1.22-.4-1.83-1.18-1.83a1.19,1.19,0,0,0-1,.49,2.25,2.25,0,0,0-.38,1.39v4.05h-2.57v-4.1c0-1.22-.39-1.83-1.18-1.83a1.22,1.22,0,0,0-1,.49,2.17,2.17,0,0,0-.39,1.39v4.05h-2.58v-8.08h2.58v.91h0a3.3,3.3,0,0,1,1-.79,2.89,2.89,0,0,1,1.22-.27,2.5,2.5,0,0,1,2.31,1.16h0a3.44,3.44,0,0,1,2.73-1.16A3.24,3.24,0,0,1,371.74,322.91Z" transform="translate(0 -3.03)"></path><path class="cls-2" d="M382.71,327.59h-5.5a1.56,1.56,0,0,0,.67,1,2.14,2.14,0,0,0,1.24.37,2.52,2.52,0,0,0,2-1l1.37,1.54a4,4,0,0,1-1.48,1.12,5,5,0,0,1-2.12.42,4.43,4.43,0,0,1-1.67-.31,3.75,3.75,0,0,1-1.33-.85,3.91,3.91,0,0,1-.88-1.33,4.51,4.51,0,0,1-.32-1.7,4.44,4.44,0,0,1,.31-1.68,3.94,3.94,0,0,1,.85-1.33,3.81,3.81,0,0,1,1.3-.87,4.45,4.45,0,0,1,3.72.21,3.68,3.68,0,0,1,1.43,1.47,4.41,4.41,0,0,1,.51,2.13A6.28,6.28,0,0,1,382.71,327.59Zm-4.95-2.48a1.54,1.54,0,0,0-.54.94h3a1.91,1.91,0,0,0-.28-.68,1.29,1.29,0,0,0-.5-.43,1.43,1.43,0,0,0-.69-.16A1.6,1.6,0,0,0,377.76,325.11Z" transform="translate(0 -3.03)"></path><path class="cls-2" d="M392.23,318.79v12.15h-2.45v-.87h0a2.76,2.76,0,0,1-2.3,1,3.78,3.78,0,0,1-1.54-.31,3.42,3.42,0,0,1-1.2-.84,3.78,3.78,0,0,1-.79-1.32,5.33,5.33,0,0,1,0-3.41,4,4,0,0,1,.78-1.33,3.55,3.55,0,0,1,1.17-.86,3.45,3.45,0,0,1,1.46-.31,2.9,2.9,0,0,1,2.28,1h0v-4.93Zm-3,9.5a1.89,1.89,0,0,0,.51-1.37,2.13,2.13,0,0,0-.23-1,1.75,1.75,0,0,0-.63-.69A1.77,1.77,0,0,0,388,325a1.62,1.62,0,0,0-1.24.53,2,2,0,0,0-.5,1.39,1.92,1.92,0,0,0,.49,1.37,1.6,1.6,0,0,0,1.24.53A1.68,1.68,0,0,0,389.25,328.29Z" transform="translate(0 -3.03)"></path><path class="cls-2" d="M394.15,321.48a1.5,1.5,0,0,1-.24-1.86,1.48,1.48,0,0,1,.58-.53,1.73,1.73,0,0,1,.81-.19,1.65,1.65,0,0,1,1.15.42,1.5,1.5,0,0,1,0,2.16,1.78,1.78,0,0,1-2.3,0Zm-.14,1.38h2.57v8.08H394Z" transform="translate(0 -3.03)"></path><path class="cls-2" d="M406.48,322.86v8.08H404v-.87h0a2.66,2.66,0,0,1-2.24,1,3.7,3.7,0,0,1-1.53-.31,3.46,3.46,0,0,1-1.21-.84,3.91,3.91,0,0,1-.78-1.32,5.33,5.33,0,0,1,0-3.41,4.12,4.12,0,0,1,.77-1.33,3.49,3.49,0,0,1,1.18-.86,3.37,3.37,0,0,1,1.45-.31,2.78,2.78,0,0,1,2.22,1h0v-.86Zm-3,5.43a1.92,1.92,0,0,0,.49-1.37,2.12,2.12,0,0,0-.22-1,1.78,1.78,0,0,0-.61-.69,1.71,1.71,0,0,0-2.11.29,2.21,2.21,0,0,0,0,2.76,1.69,1.69,0,0,0,2.46,0Z" transform="translate(0 -3.03)"></path><path class="cls-2" d="M409,330.4a2.8,2.8,0,0,1-.65-2V325h-.91v-2.11h.91v-2.57L411,320v2.85h2V325h-2v2.94a1.38,1.38,0,0,0,.14.68.48.48,0,0,0,.48.24,1.65,1.65,0,0,0,.79-.2l.64,1.9a4.67,4.67,0,0,1-1,.42,4.9,4.9,0,0,1-1.27.14A2.24,2.24,0,0,1,409,330.4Z" transform="translate(0 -3.03)"></path><path class="cls-2" d="M421.45,327.59H416a1.6,1.6,0,0,0,.67,1,2.14,2.14,0,0,0,1.24.37,2.52,2.52,0,0,0,2-1l1.37,1.54a4,4,0,0,1-1.47,1.12,5.12,5.12,0,0,1-2.13.42,4.43,4.43,0,0,1-1.67-.31,3.84,3.84,0,0,1-1.33-.85,3.91,3.91,0,0,1-.88-1.33,4.51,4.51,0,0,1-.32-1.7,4.44,4.44,0,0,1,.31-1.68,3.94,3.94,0,0,1,.85-1.33,3.81,3.81,0,0,1,1.3-.87,4.27,4.27,0,0,1,1.64-.31,4.22,4.22,0,0,1,2.08.52A3.68,3.68,0,0,1,421,324.7a4.41,4.41,0,0,1,.51,2.13A6.28,6.28,0,0,1,421.45,327.59Zm-4.95-2.48a1.54,1.54,0,0,0-.54.94h3a1.91,1.91,0,0,0-.28-.68,1.23,1.23,0,0,0-.5-.43,1.39,1.39,0,0,0-.68-.16A1.61,1.61,0,0,0,416.5,325.11Z" transform="translate(0 -3.03)"></path><path class="cls-1" d="M1.63,207.92a10.88,10.88,0,0,1,8.31-10.73l.49,2.35c-2.7,1-4.42,2.44-5.31,4.38l0,0a5,5,0,0,1,2.95-1c1.66,0,3.26,1.25,3.26,3.84,0,3.33-2.07,5.85-5.44,5.85C3.48,212.64,1.63,211,1.63,207.92ZM8.56,207a1.51,1.51,0,0,0-1.67-1.66,3.54,3.54,0,0,0-2.5,1.36c0,.28,0,.56,0,.86,0,1.49.69,2.46,1.72,2.46C7.45,210.05,8.56,208.78,8.56,207Z" transform="translate(0 -3.03)"></path><path class="cls-1" d="M13.39,206.84c0-4.75,2.11-9.39,6.28-9.39,2.83,0,4.44,2,4.44,5.78,0,4.82-2.11,9.41-6.19,9.41C15.1,212.64,13.39,210.66,13.39,206.84Zm7.83-3.76c0-2-.54-3-1.75-3-2.3,0-3.19,4-3.19,6.93,0,1.92.63,2.94,1.73,2.94C20.32,210,21.22,206.08,21.22,203.08Z" transform="translate(0 -3.03)"></path><path class="cls-1" d="M30.2,209.43l.65-5.25h-1.1L30,201.9h1.08l.43-3.2,2.78-.54-.45,3.74h2.39L36,204.18H33.59L33,209c-.11.78.17,1.08.6,1.08a2.82,2.82,0,0,0,1.32-.45l.41,2.27a5.63,5.63,0,0,1-2.74.75C30.87,212.64,30,211.52,30.2,209.43Z" transform="translate(0 -3.03)"></path><path class="cls-1" d="M36.57,208.15c0-3.38,2.09-6.4,5.67-6.4,2.7,0,4.49,1.57,4.49,4.4,0,3.54-1.92,6.49-5.74,6.49A4.12,4.12,0,0,1,36.57,208.15Zm7.4-1.79c0-1.77-1.14-2.16-1.92-2.16-1.68,0-2.74,1.88-2.74,3.72,0,1.38.75,2.24,1.83,2.24C42.83,210.16,44,208.41,44,206.36Z" transform="translate(0 -3.03)"></path><path class="cls-1" d="M49.58,201.9H52.3l-.22,1.81.05,0a4,4,0,0,1,3.45-2c2.27,0,3.39,2,3.39,4.29,0,3.49-2.12,6.6-5.16,6.6a4,4,0,0,1-2.65-.84l-.07,0-.6,4.9H47.75Zm6.63,4.38c0-1.15-.48-2.1-1.41-2.1-1.42,0-3,1.79-3.41,4.71l0,.41a2,2,0,0,0,1.75.88C55.08,210.18,56.21,208.26,56.21,206.28Z" transform="translate(0 -3.03)"></path><path class="cls-1" d="M61.82,201.9h2.74l-1.3,10.55H60.5Zm.08-3.15A1.69,1.69,0,0,1,63.67,197a1.65,1.65,0,0,1,1.73,1.66,1.73,1.73,0,0,1-1.79,1.75A1.65,1.65,0,0,1,61.9,198.75Z" transform="translate(0 -3.03)"></path><path class="cls-1" d="M66.13,208.09c0-3.32,2-6.34,5.57-6.34a4.5,4.5,0,0,1,3.93,1.83l-2.12,1.6a2,2,0,0,0-1.81-1c-1.66,0-2.81,1.71-2.81,3.74,0,1.51.8,2.2,1.8,2.2a2.88,2.88,0,0,0,2.13-1.08L75,210.51a5.46,5.46,0,0,1-4.42,2.11C67.84,212.62,66.13,211.09,66.13,208.09Z" transform="translate(0 -3.03)"></path><path class="cls-1" d="M76,210.83l1.66-1.71A3.1,3.1,0,0,0,80,210.4c.75,0,1.36-.3,1.36-.84s-.58-.74-1.79-1.32c-1.53-.71-2.59-1.6-2.59-3.15a3.45,3.45,0,0,1,3.75-3.34,4.83,4.83,0,0,1,3.71,1.57L82.73,205a2.63,2.63,0,0,0-2-1.07c-.6,0-1,.32-1,.86s.64.88,1.61,1.36c1.38.69,2.77,1.42,2.79,3.06,0,2.16-1.64,3.41-4.12,3.41A5.06,5.06,0,0,1,76,210.83Z" transform="translate(0 -3.03)"></path><path class="cls-1" d="M10.81,301.66H5.4l-.89,2.75H.72L6.36,289H9.84l5.66,15.4H11.71Zm-1-3.07-1.7-5.2h0l-1.68,5.2Z" transform="translate(0 -3.03)"></path><path class="cls-1" d="M18.27,293.74,16,295.43l-1.67-2.61L19,289.53h2.82v14.88H18.27Z" transform="translate(0 -3.03)"></path><path class="cls-1" d="M27.92,299.85H24.21V297h3.71v-3.74h2.93V297h3.72v2.89H30.85v3.71H27.92Z" transform="translate(0 -3.03)"></path><path class="cls-2" d="M305,301.66h-5.41l-.89,2.75h-3.79l5.64-15.4H304l5.67,15.4h-3.79Zm-1-3.07-1.69-5.2h0l-1.69,5.2Z" transform="translate(0 -3.03)"></path><path class="cls-2" d="M320.34,301.24v3.17h-9.9l0-2.27,4.4-4.74a10.7,10.7,0,0,0,1.4-1.76,2.8,2.8,0,0,0,.45-1.48,1.6,1.6,0,0,0-.44-1.15,1.52,1.52,0,0,0-1.13-.45,2.73,2.73,0,0,0-2.29,1.38l-2.5-1.8a6,6,0,0,1,.82-1.09,5.57,5.57,0,0,1,1.08-.89,5.09,5.09,0,0,1,1.44-.62,6.93,6.93,0,0,1,1.75-.22,5.37,5.37,0,0,1,1.06.11,4.79,4.79,0,0,1,1,.29,4.47,4.47,0,0,1,.89.48,4,4,0,0,1,.77.66,4.66,4.66,0,0,1,.59.81,4.07,4.07,0,0,1,.37,1,4.44,4.44,0,0,1,.13,1.11,6.21,6.21,0,0,1-.19,1.62,5.7,5.7,0,0,1-.72,1.55,12.73,12.73,0,0,1-1.51,1.86l-2.32,2.42v0Z" transform="translate(0 -3.03)"></path><path class="cls-2" d="M635.49,297.64a4,4,0,0,1,.75,2.48,4.58,4.58,0,0,1-.31,1.72,3.67,3.67,0,0,1-.91,1.35,4,4,0,0,1-1.55.9,6.54,6.54,0,0,1-2.16.32h-6.75V289h5.81a8.86,8.86,0,0,1,2.24.25,4.37,4.37,0,0,1,1.58.74,3.14,3.14,0,0,1,.94,1.18,3.87,3.87,0,0,1,.31,1.6,4,4,0,0,1-.11,1,3.91,3.91,0,0,1-.37.94,3.08,3.08,0,0,1-.7.85,4.18,4.18,0,0,1-1,.63v0A4,4,0,0,1,635.49,297.64Zm-7.37-2.49h1.7a2.47,2.47,0,0,0,1.41-.38,1.25,1.25,0,0,0,.55-1.09,1.32,1.32,0,0,0-.51-1.09,2.55,2.55,0,0,0-1.57-.38h-1.58Zm3,6a2.36,2.36,0,0,0,.72-.3,1.38,1.38,0,0,0,.46-.5,1.49,1.49,0,0,0,.17-.71,1.45,1.45,0,0,0-.57-1.19,2.78,2.78,0,0,0-1.7-.44h-2.08v3.25h2.08A3.68,3.68,0,0,0,631.12,301.14Z" transform="translate(0 -3.03)"></path><path class="cls-2" d="M640.73,293.74l-2.27,1.69-1.67-2.61,4.67-3.29h2.82v14.88h-3.55Z" transform="translate(0 -3.03)"></path><path class="cls-2" d="M957.64,297.64a4,4,0,0,1,.75,2.48,4.58,4.58,0,0,1-.31,1.72,3.67,3.67,0,0,1-.91,1.35,4,4,0,0,1-1.55.9,6.54,6.54,0,0,1-2.16.32h-6.75V289h5.81a8.86,8.86,0,0,1,2.24.25,4.37,4.37,0,0,1,1.58.74,3.14,3.14,0,0,1,.94,1.18,3.87,3.87,0,0,1,.31,1.6,4,4,0,0,1-.11,1,3.91,3.91,0,0,1-.37.94,3.08,3.08,0,0,1-.7.85,4.18,4.18,0,0,1-1,.63v0A4,4,0,0,1,957.64,297.64Zm-7.37-2.49H952a2.47,2.47,0,0,0,1.41-.38,1.25,1.25,0,0,0,.55-1.09,1.32,1.32,0,0,0-.51-1.09,2.53,2.53,0,0,0-1.57-.38h-1.58Zm3,6a2.36,2.36,0,0,0,.72-.3,1.38,1.38,0,0,0,.46-.5,1.49,1.49,0,0,0,.17-.71,1.45,1.45,0,0,0-.57-1.19,2.78,2.78,0,0,0-1.7-.44h-2.08v3.25h2.08A3.68,3.68,0,0,0,953.27,301.14Z" transform="translate(0 -3.03)"></path><path class="cls-2" d="M962.88,293.74l-2.27,1.69-1.67-2.61,4.67-3.29h2.82v14.88h-3.55Z" transform="translate(0 -3.03)"></path><path class="cls-2" d="M972.53,299.85h-3.7V297h3.7v-3.74h2.93V297h3.72v2.89h-3.72v3.71h-2.93Z" transform="translate(0 -3.03)"></path><path class="cls-3" d="M294.3,142.82a10.89,10.89,0,0,1,8.31-10.72l.49,2.35c-2.69,1-4.42,2.44-5.3,4.38l0,0a5.05,5.05,0,0,1,2.95-1c1.67,0,3.26,1.25,3.26,3.84,0,3.32-2.07,5.85-5.44,5.85C296.16,147.55,294.3,145.87,294.3,142.82Zm6.93-.88a1.5,1.5,0,0,0-1.66-1.66,3.56,3.56,0,0,0-2.51,1.36c0,.28,0,.56,0,.86,0,1.49.69,2.46,1.73,2.46C300.13,145,301.23,143.69,301.23,141.94Z" transform="translate(0 -3.03)"></path><path class="cls-3" d="M306.06,141.75c0-4.75,2.12-9.39,6.28-9.39,2.83,0,4.45,2,4.45,5.78,0,4.81-2.12,9.41-6.2,9.41C307.77,147.55,306.06,145.56,306.06,141.75Zm7.83-3.76c0-2-.53-3-1.74-3-2.31,0-3.2,4-3.2,6.93,0,1.92.63,2.93,1.73,2.93C313,144.87,313.89,141,313.89,138Z" transform="translate(0 -3.03)"></path><path class="cls-3" d="M322.87,144.33l.65-5.24h-1.1l.28-2.29h1.08l.43-3.19,2.78-.54-.45,3.73h2.4l-.28,2.29h-2.4l-.58,4.81c-.11.78.17,1.08.6,1.08a2.82,2.82,0,0,0,1.32-.45l.41,2.26a5.5,5.5,0,0,1-2.74.76C323.54,147.55,322.64,146.43,322.87,144.33Z" transform="translate(0 -3.03)"></path><path class="cls-3" d="M329.24,143.06c0-3.39,2.09-6.41,5.67-6.41,2.7,0,4.49,1.58,4.49,4.4,0,3.54-1.92,6.5-5.74,6.5A4.12,4.12,0,0,1,329.24,143.06Zm7.4-1.79c0-1.77-1.14-2.16-1.92-2.16-1.68,0-2.74,1.88-2.74,3.71,0,1.38.76,2.25,1.83,2.25C335.5,145.07,336.64,143.32,336.64,141.27Z" transform="translate(0 -3.03)"></path><path class="cls-3" d="M342.25,136.8H345l-.21,1.82,0,0a4,4,0,0,1,3.45-2c2.27,0,3.39,2,3.39,4.3,0,3.49-2.11,6.6-5.16,6.6a4,4,0,0,1-2.65-.84l-.07,0-.6,4.9h-2.74Zm6.63,4.38c0-1.14-.48-2.09-1.4-2.09-1.43,0-3,1.79-3.41,4.7l-.05.41a2,2,0,0,0,1.75.89C347.76,145.09,348.88,143.17,348.88,141.18Z" transform="translate(0 -3.03)"></path><path class="cls-3" d="M354.49,136.8h2.74l-1.3,10.55h-2.76Zm.09-3.15a1.68,1.68,0,0,1,1.76-1.72,1.65,1.65,0,0,1,1.73,1.66,1.72,1.72,0,0,1-1.79,1.75A1.65,1.65,0,0,1,354.58,133.65Z" transform="translate(0 -3.03)"></path><path class="cls-3" d="M358.81,143c0-3.33,2-6.35,5.56-6.35a4.5,4.5,0,0,1,3.93,1.84l-2.12,1.59a2,2,0,0,0-1.81-1c-1.66,0-2.8,1.71-2.8,3.73,0,1.52.8,2.21,1.79,2.21a2.9,2.9,0,0,0,2.13-1.08l2.14,1.44a5.44,5.44,0,0,1-4.42,2.12C360.51,147.53,358.81,146,358.81,143Z" transform="translate(0 -3.03)"></path><path class="cls-3" d="M368.67,145.74l1.66-1.71a3.1,3.1,0,0,0,2.35,1.27c.76,0,1.36-.3,1.36-.84s-.58-.73-1.79-1.31c-1.53-.71-2.59-1.6-2.59-3.15a3.45,3.45,0,0,1,3.75-3.35,4.86,4.86,0,0,1,3.72,1.58l-1.73,1.7a2.63,2.63,0,0,0-2-1.08c-.6,0-1.05.33-1.05.87s.64.88,1.62,1.36c1.38.69,2.76,1.42,2.78,3.06,0,2.16-1.64,3.41-4.12,3.41A5.07,5.07,0,0,1,368.67,145.74Z" transform="translate(0 -3.03)"></path><path class="cls-3" d="M623.28,78.09a10.88,10.88,0,0,1,8.3-10.72l.5,2.35c-2.7,1-4.42,2.44-5.31,4.38l0,0a5,5,0,0,1,3-1c1.66,0,3.26,1.25,3.26,3.84,0,3.32-2.07,5.85-5.44,5.85C625.13,82.82,623.28,81.13,623.28,78.09Zm6.92-.88a1.5,1.5,0,0,0-1.66-1.66,3.54,3.54,0,0,0-2.5,1.36c0,.28,0,.56,0,.86,0,1.49.69,2.46,1.72,2.46C629.1,80.23,630.2,79,630.2,77.21Z" transform="translate(0 -3.03)"></path><path class="cls-3" d="M635,77c0-4.74,2.11-9.38,6.28-9.38,2.83,0,4.44,2,4.44,5.78,0,4.81-2.11,9.41-6.19,9.41C636.75,82.82,635,80.83,635,77Zm7.83-3.75c0-2-.54-3-1.75-3-2.3,0-3.19,4-3.19,6.93,0,1.92.63,2.93,1.73,2.93C642,80.14,642.87,76.26,642.87,73.26Z" transform="translate(0 -3.03)"></path><path class="cls-3" d="M651.85,79.6l.65-5.24h-1.1l.28-2.29h1.08l.43-3.19,2.78-.54-.45,3.73h2.39l-.28,2.29h-2.39l-.58,4.81c-.11.78.17,1.08.6,1.08a2.86,2.86,0,0,0,1.32-.45l.41,2.26a5.53,5.53,0,0,1-2.74.76C652.52,82.82,651.61,81.7,651.85,79.6Z" transform="translate(0 -3.03)"></path><path class="cls-3" d="M658.22,78.33c0-3.39,2.09-6.41,5.67-6.41,2.7,0,4.49,1.58,4.49,4.4,0,3.54-1.92,6.5-5.74,6.5A4.12,4.12,0,0,1,658.22,78.33Zm7.4-1.79c0-1.77-1.14-2.16-1.92-2.16-1.69,0-2.74,1.88-2.74,3.71,0,1.38.75,2.25,1.83,2.25C664.48,80.34,665.62,78.59,665.62,76.54Z" transform="translate(0 -3.03)"></path><path class="cls-3" d="M671.23,72.07H674l-.22,1.81,0,.05a4,4,0,0,1,3.45-2c2.27,0,3.39,2,3.39,4.29,0,3.5-2.12,6.61-5.16,6.61a4,4,0,0,1-2.65-.84l-.07,0-.6,4.9H669.4Zm6.62,4.38c0-1.14-.47-2.09-1.4-2.09-1.42,0-3,1.79-3.41,4.7l0,.41a2,2,0,0,0,1.75.89C676.73,80.36,677.85,78.44,677.85,76.45Z" transform="translate(0 -3.03)"></path><path class="cls-3" d="M683.47,72.07h2.74l-1.3,10.55h-2.76Zm.08-3.15a1.69,1.69,0,0,1,1.77-1.72,1.65,1.65,0,0,1,1.73,1.66,1.73,1.73,0,0,1-1.79,1.75A1.66,1.66,0,0,1,683.55,68.92Z" transform="translate(0 -3.03)"></path><path class="cls-3" d="M687.78,78.26c0-3.32,2-6.34,5.57-6.34a4.52,4.52,0,0,1,3.93,1.83l-2.12,1.6a2,2,0,0,0-1.81-1c-1.66,0-2.81,1.71-2.81,3.73,0,1.51.8,2.2,1.79,2.2a2.9,2.9,0,0,0,2.14-1.07l2.14,1.44a5.46,5.46,0,0,1-4.43,2.12C689.49,82.8,687.78,81.26,687.78,78.26Z" transform="translate(0 -3.03)"></path><path class="cls-3" d="M697.65,81l1.66-1.7a3.09,3.09,0,0,0,2.35,1.27c.75,0,1.36-.3,1.36-.84s-.59-.73-1.79-1.31c-1.54-.72-2.59-1.6-2.59-3.15a3.45,3.45,0,0,1,3.75-3.35,4.84,4.84,0,0,1,3.71,1.58l-1.72,1.7a2.62,2.62,0,0,0-2-1.08c-.6,0-1.06.33-1.06.87s.65.88,1.62,1.35c1.38.7,2.77,1.43,2.79,3.07,0,2.16-1.64,3.41-4.12,3.41A5,5,0,0,1,697.65,81Z" transform="translate(0 -3.03)"></path><path class="cls-3" d="M946.38,13.92a10.88,10.88,0,0,1,8.3-10.72l.5,2.35c-2.7,1-4.42,2.44-5.31,4.38l0,0a5.08,5.08,0,0,1,3-1c1.66,0,3.26,1.25,3.26,3.84,0,3.32-2.07,5.85-5.44,5.85C948.23,18.65,946.38,17,946.38,13.92ZM953.3,13a1.5,1.5,0,0,0-1.66-1.66,3.54,3.54,0,0,0-2.5,1.35c0,.28,0,.57,0,.87,0,1.49.69,2.46,1.72,2.46C952.2,16.06,953.3,14.78,953.3,13Z" transform="translate(0 -3.03)"></path><path class="cls-3" d="M958.14,12.84c0-4.74,2.11-9.38,6.28-9.38,2.82,0,4.44,2,4.44,5.78,0,4.81-2.11,9.41-6.19,9.41C959.84,18.65,958.14,16.66,958.14,12.84ZM966,9.09c0-2-.54-3-1.75-3-2.31,0-3.19,4-3.19,6.93,0,1.92.63,2.93,1.73,2.93C965.06,16,966,12.09,966,9.09Z" transform="translate(0 -3.03)"></path><path class="cls-3" d="M975,15.43l.65-5.24h-1.1l.28-2.29h1.08l.43-3.19,2.78-.54-.45,3.73H981l-.28,2.29h-2.39L977.75,15c-.1.78.18,1.08.61,1.08a2.79,2.79,0,0,0,1.31-.45l.41,2.26a5.48,5.48,0,0,1-2.74.76C975.62,18.65,974.71,17.52,975,15.43Z" transform="translate(0 -3.03)"></path><path class="cls-3" d="M981.32,14.16c0-3.39,2.09-6.41,5.67-6.41,2.7,0,4.49,1.58,4.49,4.4,0,3.54-1.92,6.5-5.74,6.5A4.12,4.12,0,0,1,981.32,14.16Zm7.4-1.79c0-1.77-1.15-2.16-1.92-2.16-1.69,0-2.74,1.88-2.74,3.71,0,1.38.75,2.25,1.83,2.25C987.57,16.17,988.72,14.42,988.72,12.37Z" transform="translate(0 -3.03)"></path><path class="cls-3" d="M994.33,7.9h2.72l-.22,1.81,0,0a4,4,0,0,1,3.45-2c2.26,0,3.39,2,3.39,4.29,0,3.5-2.12,6.61-5.16,6.61a4,4,0,0,1-2.65-.85l-.07,0-.6,4.89H992.5Zm6.62,4.38c0-1.14-.47-2.09-1.4-2.09-1.42,0-3,1.79-3.41,4.7l0,.41a2,2,0,0,0,1.75.89C999.83,16.19,1001,14.27,1001,12.28Z" transform="translate(0 -3.03)"></path><path class="cls-3" d="M1006.57,7.9h2.74L1008,18.45h-2.76Zm.08-3.15A1.69,1.69,0,0,1,1008.42,3a1.65,1.65,0,0,1,1.73,1.66,1.72,1.72,0,0,1-1.79,1.74A1.65,1.65,0,0,1,1006.65,4.75Z" transform="translate(0 -3.03)"></path><path class="cls-3" d="M1010.88,14.09c0-3.32,2-6.34,5.57-6.34a4.52,4.52,0,0,1,3.93,1.83l-2.12,1.6a2,2,0,0,0-1.81-1c-1.66,0-2.81,1.71-2.81,3.73,0,1.51.8,2.2,1.79,2.2a2.88,2.88,0,0,0,2.14-1.08l2.14,1.45a5.47,5.47,0,0,1-4.43,2.11C1012.59,18.62,1010.88,17.09,1010.88,14.09Z" transform="translate(0 -3.03)"></path><path class="cls-3" d="M1020.75,16.83l1.66-1.7a3.09,3.09,0,0,0,2.35,1.27c.75,0,1.36-.3,1.36-.84s-.59-.73-1.79-1.31c-1.54-.72-2.59-1.6-2.59-3.16a3.45,3.45,0,0,1,3.75-3.34,4.84,4.84,0,0,1,3.71,1.58l-1.72,1.7a2.63,2.63,0,0,0-2-1.08c-.6,0-1.06.32-1.06.86s.65.89,1.62,1.36c1.38.69,2.76,1.43,2.79,3.07,0,2.15-1.64,3.41-4.13,3.41A5,5,0,0,1,1020.75,16.83Z" transform="translate(0 -3.03)"></path><rect class="cls-4" x="945.36" y="30.7" width="294.24" height="17.25" transform="translate(2184.97 75.63) rotate(180)"></rect><rect class="cls-5" x="945.36" y="62.98" width="294.24" height="17.25" transform="translate(2184.97 140.19) rotate(180)"></rect><rect class="cls-6" x="945.36" y="95.26" width="294.24" height="17.25" transform="translate(2184.97 204.74) rotate(180)"></rect><rect class="cls-7" x="945.36" y="127.53" width="294.24" height="17.25" transform="translate(2184.97 269.29) rotate(180)"></rect><rect class="cls-8" x="945.36" y="159.81" width="294.24" height="17.25" transform="translate(2184.97 333.84) rotate(180)"></rect><rect class="cls-9" x="945.36" y="192.08" width="294.24" height="17.25" transform="translate(2184.97 398.4) rotate(180)"></rect><rect class="cls-10" x="945.36" y="224.36" width="294.24" height="17.25" transform="translate(2184.97 462.95) rotate(180)"></rect><rect class="cls-11" x="945.36" y="256.64" width="294.24" height="17.25" transform="translate(2184.97 527.5) rotate(180)"></rect><rect class="cls-12" x="994.58" y="288.91" width="245.02" height="17.25" transform="translate(2234.19 592.05) rotate(180)"></rect><rect class="cls-13" x="624.93" y="159.81" width="276.27" height="17.25" transform="translate(1526.13 333.84) rotate(180)"></rect><rect class="cls-14" x="624.93" y="192.08" width="276.27" height="17.25" transform="translate(1526.13 398.39) rotate(180)"></rect><rect class="cls-15" x="624.93" y="224.36" width="276.27" height="17.25" transform="translate(1526.13 462.95) rotate(180)"></rect><rect class="cls-16" x="624.93" y="256.64" width="276.27" height="17.25" transform="translate(1526.13 527.5) rotate(180)"></rect><rect class="cls-17" x="665.98" y="288.91" width="235.22" height="17.25" transform="translate(1567.18 592.05) rotate(180)"></rect><rect class="cls-18" x="623.23" y="127.53" width="276.27" height="17.25" transform="translate(1522.73 269.29) rotate(180)"></rect><rect class="cls-19" x="623.23" y="95.26" width="276.27" height="17.25" transform="translate(1522.73 204.74) rotate(180)"></rect><rect class="cls-20" x="293.29" y="159.81" width="289.44" height="17.25" transform="translate(876.01 333.84) rotate(180)"></rect><rect class="cls-21" x="293.29" y="192.08" width="289.44" height="17.25" transform="translate(876.01 398.4) rotate(180)"></rect><rect class="cls-22" x="293.29" y="224.36" width="289.44" height="17.25" transform="translate(876.01 462.95) rotate(180)"></rect><rect class="cls-23" x="293.29" y="256.64" width="289.44" height="17.25" transform="translate(876.01 527.5) rotate(180)"></rect><rect class="cls-24" x="346.77" y="288.91" width="235.66" height="17.25" transform="translate(929.19 592.05) rotate(180)"></rect><rect class="cls-25" y="224.36" width="247.08" height="17.25" transform="translate(247.08 462.95) rotate(180)"></rect><rect class="cls-26" y="256.64" width="247.08" height="17.25" transform="translate(247.08 527.5) rotate(180)"></rect><rect class="cls-27" x="45.65" y="288.91" width="201.18" height="17.25" transform="translate(292.48 592.05) rotate(180)"></rect><path class="cls-2" d="M623.36,318.86h2.79v11.73h-2.79Z" transform="translate(0 -3.03)"></path><path class="cls-2" d="M634.29,322.53a2.47,2.47,0,0,1,.91.56,2.52,2.52,0,0,1,.6,1.06,5.33,5.33,0,0,1,.21,1.59v4.85h-2.58v-4.21a3,3,0,0,0-.14-1,1,1,0,0,0-.42-.53,1.48,1.48,0,0,0-.72-.15,1.42,1.42,0,0,0-.78.21,1.35,1.35,0,0,0-.52.62,2.72,2.72,0,0,0-.19,1v4.06h-2.57v-8.08h2.57v1h0a3.17,3.17,0,0,1,1.1-.84,3.23,3.23,0,0,1,1.34-.29A3.79,3.79,0,0,1,634.29,322.53Z" transform="translate(0 -3.03)"></path><path class="cls-2" d="M638.52,330.05a2.8,2.8,0,0,1-.64-2v-3.43H637v-2.11h.91v-2.58l2.57-.27v2.85h2v2.11h-2v2.94a1.41,1.41,0,0,0,.14.68.48.48,0,0,0,.48.24,1.65,1.65,0,0,0,.79-.2l.64,1.9a4.67,4.67,0,0,1-1,.42,4.87,4.87,0,0,1-1.26.14A2.24,2.24,0,0,1,638.52,330.05Z" transform="translate(0 -3.03)"></path><path class="cls-2" d="M650.94,327.24h-5.5a1.64,1.64,0,0,0,.67,1,2.16,2.16,0,0,0,1.24.37,2.52,2.52,0,0,0,2-1l1.37,1.54a3.94,3.94,0,0,1-1.47,1.12,5.12,5.12,0,0,1-2.13.42,4.34,4.34,0,0,1-1.66-.31,3.79,3.79,0,0,1-1.34-.85,3.91,3.91,0,0,1-.88-1.33,4.51,4.51,0,0,1-.32-1.7,4.64,4.64,0,0,1,.31-1.68,3.85,3.85,0,0,1,.85-1.33,3.91,3.91,0,0,1,1.3-.87,4.47,4.47,0,0,1,1.64-.31,4.09,4.09,0,0,1,2.08.52,3.68,3.68,0,0,1,1.43,1.47,4.41,4.41,0,0,1,.51,2.13A6.28,6.28,0,0,1,650.94,327.24Zm-5-2.48a1.54,1.54,0,0,0-.54.94h3a1.91,1.91,0,0,0-.28-.68,1.33,1.33,0,0,0-.5-.44,1.51,1.51,0,0,0-.68-.15A1.55,1.55,0,0,0,646,324.76Z" transform="translate(0 -3.03)"></path><path class="cls-2" d="M657.31,322.37v2.78l-.6,0a2,2,0,0,0-1,.24,1.52,1.52,0,0,0-.63.65,2,2,0,0,0-.2.94v3.63h-2.58v-8.08h2.58v1.08h0a3.08,3.08,0,0,1,.68-.67,2.62,2.62,0,0,1,.79-.42,2.83,2.83,0,0,1,.87-.14Z" transform="translate(0 -3.03)"></path><path class="cls-2" d="M669.45,322.56a2.26,2.26,0,0,1,.89.61,2.72,2.72,0,0,1,.6,1.09,5.61,5.61,0,0,1,.2,1.62v4.71h-2.57v-4.11c0-1.21-.39-1.82-1.17-1.82a1.18,1.18,0,0,0-1,.49,2.25,2.25,0,0,0-.38,1.39v4h-2.57v-4.11c0-1.21-.39-1.82-1.18-1.82a1.21,1.21,0,0,0-1,.49,2.21,2.21,0,0,0-.38,1.39v4h-2.58v-8.08h2.58v.91h0a3.3,3.3,0,0,1,1-.79,2.89,2.89,0,0,1,1.22-.27,2.5,2.5,0,0,1,2.31,1.16h0a3.42,3.42,0,0,1,2.72-1.16A3.26,3.26,0,0,1,669.45,322.56Z" transform="translate(0 -3.03)"></path><path class="cls-2" d="M680.41,327.24h-5.49a1.59,1.59,0,0,0,.66,1,2.19,2.19,0,0,0,1.25.37,2.52,2.52,0,0,0,2-1l1.37,1.54a4.06,4.06,0,0,1-1.48,1.12,5.11,5.11,0,0,1-2.12.42,4.39,4.39,0,0,1-1.67-.31,3.83,3.83,0,0,1-2.21-2.18,4.33,4.33,0,0,1-.32-1.7,4.44,4.44,0,0,1,.31-1.68,3.71,3.71,0,0,1,.85-1.33,3.81,3.81,0,0,1,1.3-.87,4.43,4.43,0,0,1,1.64-.31,4.14,4.14,0,0,1,2.08.52,3.68,3.68,0,0,1,1.43,1.47,4.41,4.41,0,0,1,.51,2.13A4.94,4.94,0,0,1,680.41,327.24Zm-4.94-2.48a1.54,1.54,0,0,0-.54.94h3a1.91,1.91,0,0,0-.28-.68,1.41,1.41,0,0,0-.5-.44,1.55,1.55,0,0,0-.69-.15A1.52,1.52,0,0,0,675.47,324.76Z" transform="translate(0 -3.03)"></path><path class="cls-2" d="M689.94,318.44v12.15h-2.45v-.87h0a2.78,2.78,0,0,1-2.31,1,3.7,3.7,0,0,1-1.53-.31,3.56,3.56,0,0,1-1.21-.84,3.91,3.91,0,0,1-.78-1.32,5,5,0,0,1-.28-1.71,5,5,0,0,1,.28-1.7,4,4,0,0,1,.78-1.33,3.36,3.36,0,0,1,1.17-.86,3.4,3.4,0,0,1,1.45-.31,2.91,2.91,0,0,1,2.29,1h0v-4.93Zm-3,9.5a1.88,1.88,0,0,0,.51-1.38,2.11,2.11,0,0,0-.23-1,1.75,1.75,0,0,0-.63-.69,1.8,1.8,0,0,0-.92-.24,1.6,1.6,0,0,0-1.24.53,1.94,1.94,0,0,0-.49,1.38,2,2,0,0,0,.48,1.38,1.63,1.63,0,0,0,1.24.53A1.69,1.69,0,0,0,687,327.94Z" transform="translate(0 -3.03)"></path><path class="cls-2" d="M691.86,321.13a1.5,1.5,0,0,1-.24-1.86,1.48,1.48,0,0,1,.58-.53,1.67,1.67,0,0,1,.81-.19,1.65,1.65,0,0,1,1.15.42,1.5,1.5,0,0,1,0,2.16,1.75,1.75,0,0,1-2.3,0Zm-.14,1.38h2.57v8.08h-2.57Z" transform="translate(0 -3.03)"></path><path class="cls-2" d="M704.19,322.51v8.08h-2.45v-.87h0a2.66,2.66,0,0,1-2.24,1,3.7,3.7,0,0,1-1.53-.31,3.37,3.37,0,0,1-1.21-.84,3.91,3.91,0,0,1-.78-1.32,5,5,0,0,1-.29-1.71,5,5,0,0,1,.29-1.7,3.94,3.94,0,0,1,.77-1.33,3.55,3.55,0,0,1,1.17-.86,3.45,3.45,0,0,1,1.46-.31,2.8,2.8,0,0,1,2.22,1h0v-.86Zm-3,5.43a2,2,0,0,0,.49-1.38,2.24,2.24,0,0,0-.22-1,1.8,1.8,0,0,0-.62-.69,1.69,1.69,0,0,0-2.1.29,1.94,1.94,0,0,0-.49,1.38,2,2,0,0,0,.48,1.38,1.69,1.69,0,0,0,2.46,0Z" transform="translate(0 -3.03)"></path><path class="cls-2" d="M706.74,330.05a2.8,2.8,0,0,1-.65-2v-3.43h-.91v-2.11h.91v-2.58l2.58-.27v2.85h2v2.11h-2v2.94a1.42,1.42,0,0,0,.13.68.5.5,0,0,0,.48.24,1.66,1.66,0,0,0,.8-.2l.64,1.9a4.67,4.67,0,0,1-1,.42,4.9,4.9,0,0,1-1.27.14A2.22,2.22,0,0,1,706.74,330.05Z" transform="translate(0 -3.03)"></path><path class="cls-2" d="M719.16,327.24h-5.5a1.56,1.56,0,0,0,.67,1,2.14,2.14,0,0,0,1.24.37,2.52,2.52,0,0,0,2-1l1.37,1.54a4.06,4.06,0,0,1-1.48,1.12,5,5,0,0,1-2.12.42,4.43,4.43,0,0,1-1.67-.31,3.75,3.75,0,0,1-1.33-.85,3.91,3.91,0,0,1-.88-1.33,4.51,4.51,0,0,1-.32-1.7,4.44,4.44,0,0,1,.31-1.68,3.85,3.85,0,0,1,.85-1.33,3.81,3.81,0,0,1,1.3-.87,4.43,4.43,0,0,1,1.64-.31,4.14,4.14,0,0,1,2.08.52,3.68,3.68,0,0,1,1.43,1.47,4.41,4.41,0,0,1,.51,2.13A6.28,6.28,0,0,1,719.16,327.24Zm-4.95-2.48a1.54,1.54,0,0,0-.54.94h3a1.91,1.91,0,0,0-.28-.68,1.41,1.41,0,0,0-.5-.44,1.67,1.67,0,0,0-1.7.19Z" transform="translate(0 -3.03)"></path><path class="cls-2" d="M946.46,318.86h2.79v11.73h-2.79Z" transform="translate(0 -3.03)"></path><path class="cls-2" d="M957.39,322.53a2.47,2.47,0,0,1,.91.56,2.52,2.52,0,0,1,.6,1.06,5.33,5.33,0,0,1,.21,1.59v4.85h-2.58v-4.21a3,3,0,0,0-.14-1,1,1,0,0,0-.42-.53,1.48,1.48,0,0,0-.72-.15,1.42,1.42,0,0,0-.78.21,1.35,1.35,0,0,0-.52.62,2.72,2.72,0,0,0-.19,1v4.06h-2.58v-8.08h2.58v1h0a3.17,3.17,0,0,1,1.1-.84,3.23,3.23,0,0,1,1.34-.29A3.79,3.79,0,0,1,957.39,322.53Z" transform="translate(0 -3.03)"></path><path class="cls-2" d="M961.62,330.05a2.8,2.8,0,0,1-.64-2v-3.43h-.91v-2.11H961v-2.58l2.57-.27v2.85h2v2.11h-2v2.94a1.41,1.41,0,0,0,.14.68.48.48,0,0,0,.47.24,1.66,1.66,0,0,0,.8-.2l.64,1.9a4.67,4.67,0,0,1-1,.42,4.9,4.9,0,0,1-1.27.14A2.24,2.24,0,0,1,961.62,330.05Z" transform="translate(0 -3.03)"></path><path class="cls-2" d="M974,327.24h-5.5a1.64,1.64,0,0,0,.67,1,2.16,2.16,0,0,0,1.24.37,2.52,2.52,0,0,0,2-1l1.37,1.54a4.1,4.1,0,0,1-1.47,1.12,5.12,5.12,0,0,1-2.13.42,4.34,4.34,0,0,1-1.66-.31,3.79,3.79,0,0,1-1.34-.85,3.91,3.91,0,0,1-.88-1.33,4.51,4.51,0,0,1-.32-1.7,4.44,4.44,0,0,1,.31-1.68,3.85,3.85,0,0,1,.85-1.33,3.91,3.91,0,0,1,1.3-.87,4.47,4.47,0,0,1,1.64-.31,4.09,4.09,0,0,1,2.08.52,3.68,3.68,0,0,1,1.43,1.47,4.41,4.41,0,0,1,.51,2.13A6.28,6.28,0,0,1,974,327.24Zm-4.95-2.48a1.54,1.54,0,0,0-.54.94h3a1.91,1.91,0,0,0-.28-.68,1.33,1.33,0,0,0-.5-.44,1.51,1.51,0,0,0-.68-.15A1.55,1.55,0,0,0,969.09,324.76Z" transform="translate(0 -3.03)"></path><path class="cls-2" d="M980.41,322.37v2.78l-.6,0a2,2,0,0,0-1,.24,1.52,1.52,0,0,0-.63.65,2,2,0,0,0-.2.94v3.63h-2.58v-8.08H978v1.08h0a3.08,3.08,0,0,1,.68-.67,2.62,2.62,0,0,1,.79-.42,2.83,2.83,0,0,1,.87-.14Z" transform="translate(0 -3.03)"></path><path class="cls-2" d="M992.55,322.56a2.26,2.26,0,0,1,.89.61,2.72,2.72,0,0,1,.6,1.09,6,6,0,0,1,.2,1.62v4.71h-2.57v-4.11c0-1.21-.39-1.82-1.17-1.82a1.18,1.18,0,0,0-1,.49,2.25,2.25,0,0,0-.38,1.39v4h-2.57v-4.11c0-1.21-.39-1.82-1.18-1.82a1.21,1.21,0,0,0-1,.49,2.21,2.21,0,0,0-.38,1.39v4h-2.58v-8.08H984v.91h0a3.3,3.3,0,0,1,1-.79,2.89,2.89,0,0,1,1.22-.27,2.5,2.5,0,0,1,2.31,1.16h0a3.42,3.42,0,0,1,2.72-1.16A3.26,3.26,0,0,1,992.55,322.56Z" transform="translate(0 -3.03)"></path><path class="cls-2" d="M1003.51,327.24H998a1.59,1.59,0,0,0,.66,1,2.19,2.19,0,0,0,1.25.37,2.54,2.54,0,0,0,2-1l1.36,1.54a3.94,3.94,0,0,1-1.47,1.12,5.12,5.12,0,0,1-2.13.42,4.38,4.38,0,0,1-1.66-.31,3.83,3.83,0,0,1-2.21-2.18,4.33,4.33,0,0,1-.32-1.7,4.44,4.44,0,0,1,.31-1.68,3.71,3.71,0,0,1,.85-1.33,3.81,3.81,0,0,1,1.3-.87,4.39,4.39,0,0,1,1.64-.31,4.14,4.14,0,0,1,2.08.52,3.68,3.68,0,0,1,1.43,1.47,4.41,4.41,0,0,1,.51,2.13A4.94,4.94,0,0,1,1003.51,327.24Zm-4.94-2.48a1.54,1.54,0,0,0-.54.94h3a1.91,1.91,0,0,0-.28-.68,1.41,1.41,0,0,0-.5-.44,1.58,1.58,0,0,0-.69-.15A1.52,1.52,0,0,0,998.57,324.76Z" transform="translate(0 -3.03)"></path><path class="cls-2" d="M1013,318.44v12.15h-2.45v-.87h0a2.78,2.78,0,0,1-2.31,1,3.7,3.7,0,0,1-1.53-.31,3.56,3.56,0,0,1-1.21-.84,3.91,3.91,0,0,1-.78-1.32,5,5,0,0,1-.28-1.71,5,5,0,0,1,.28-1.7,4.12,4.12,0,0,1,.77-1.33,3.49,3.49,0,0,1,1.18-.86,3.4,3.4,0,0,1,1.45-.31,2.91,2.91,0,0,1,2.29,1h0v-4.93Zm-3,9.5a1.87,1.87,0,0,0,.5-1.38,2.11,2.11,0,0,0-.22-1,1.75,1.75,0,0,0-.63-.69,1.8,1.8,0,0,0-.92-.24,1.6,1.6,0,0,0-1.24.53,1.94,1.94,0,0,0-.49,1.38,2,2,0,0,0,.48,1.38,1.63,1.63,0,0,0,1.24.53A1.69,1.69,0,0,0,1010.06,327.94Z" transform="translate(0 -3.03)"></path><path class="cls-2" d="M1015,321.13a1.5,1.5,0,0,1-.24-1.86,1.48,1.48,0,0,1,.58-.53,1.67,1.67,0,0,1,.81-.19,1.65,1.65,0,0,1,1.15.42,1.5,1.5,0,0,1,0,2.16,1.75,1.75,0,0,1-2.3,0Zm-.14,1.38h2.57v8.08h-2.57Z" transform="translate(0 -3.03)"></path><path class="cls-2" d="M1027.29,322.51v8.08h-2.45v-.87h0a2.66,2.66,0,0,1-2.24,1,3.7,3.7,0,0,1-1.53-.31,3.37,3.37,0,0,1-1.21-.84,3.91,3.91,0,0,1-.78-1.32,5,5,0,0,1-.29-1.71,5,5,0,0,1,.29-1.7,3.94,3.94,0,0,1,.77-1.33,3.55,3.55,0,0,1,1.17-.86,3.45,3.45,0,0,1,1.46-.31,2.81,2.81,0,0,1,2.22,1h0v-.86Zm-3,5.43a2,2,0,0,0,.49-1.38,2.11,2.11,0,0,0-.23-1,1.7,1.7,0,0,0-.61-.69,1.62,1.62,0,0,0-.86-.24,1.58,1.58,0,0,0-1.24.53,2,2,0,0,0-.5,1.38,2,2,0,0,0,.49,1.38,1.6,1.6,0,0,0,1.24.53A1.62,1.62,0,0,0,1024.32,327.94Z" transform="translate(0 -3.03)"></path><path class="cls-2" d="M1029.83,330.05a2.84,2.84,0,0,1-.64-2v-3.43h-.91v-2.11h.91v-2.58l2.58-.27v2.85h2v2.11h-2v2.94a1.42,1.42,0,0,0,.13.68.5.5,0,0,0,.48.24,1.69,1.69,0,0,0,.8-.2l.64,1.9a4.67,4.67,0,0,1-1,.42,4.9,4.9,0,0,1-1.27.14A2.26,2.26,0,0,1,1029.83,330.05Z" transform="translate(0 -3.03)"></path><path class="cls-2" d="M1042.25,327.24h-5.49a1.59,1.59,0,0,0,.66,1,2.19,2.19,0,0,0,1.25.37,2.54,2.54,0,0,0,2-1l1.37,1.54a4.06,4.06,0,0,1-1.48,1.12,5,5,0,0,1-2.12.42,4.39,4.39,0,0,1-1.67-.31,3.75,3.75,0,0,1-1.33-.85,3.91,3.91,0,0,1-.88-1.33,4.51,4.51,0,0,1-.32-1.7,4.44,4.44,0,0,1,.31-1.68,3.85,3.85,0,0,1,.85-1.33,3.81,3.81,0,0,1,1.3-.87,4.43,4.43,0,0,1,1.64-.31,4.14,4.14,0,0,1,2.08.52,3.68,3.68,0,0,1,1.43,1.47,4.41,4.41,0,0,1,.51,2.13A4.94,4.94,0,0,1,1042.25,327.24Zm-4.94-2.48a1.54,1.54,0,0,0-.54.94h3a1.91,1.91,0,0,0-.28-.68,1.41,1.41,0,0,0-.5-.44,1.55,1.55,0,0,0-.69-.15A1.52,1.52,0,0,0,1037.31,324.76Z" transform="translate(0 -3.03)"></path><path class="cls-2" d="M1047.8,318.86h4.45a5.16,5.16,0,0,1,1.87.31,3.17,3.17,0,0,1,1.3.85,3.4,3.4,0,0,1,.75,1.27,4.92,4.92,0,0,1,.25,1.62,4.07,4.07,0,0,1-.54,2.16,3.34,3.34,0,0,1-1.53,1.32,5.81,5.81,0,0,1-2.31.42h-1.53v3.78h-2.71Zm3.87,5.52a2.16,2.16,0,0,0,1.4-.4,1.41,1.41,0,0,0,.5-1.14,1.43,1.43,0,0,0-.48-1.11,2,2,0,0,0-1.38-.42h-1.2v3.07Z" transform="translate(0 -3.03)"></path><path class="cls-2" d="M1057.74,318.44h2.57v12.15h-2.57Z" transform="translate(0 -3.03)"></path><path class="cls-2" d="M1069.79,322.51v8.08h-2.59v-.91h0a2.82,2.82,0,0,1-2.28,1.06q-2.91,0-2.91-3.44v-4.79h2.58v4.15a2.51,2.51,0,0,0,.29,1.38,1.06,1.06,0,0,0,.94.4,1.26,1.26,0,0,0,1-.49,2.23,2.23,0,0,0,.4-1.44v-4Z" transform="translate(0 -3.03)"></path><path class="cls-2" d="M1070.81,329.55l1.22-1.74a3,3,0,0,0,2.12.92,1.12,1.12,0,0,0,.39-.05.56.56,0,0,0,.25-.15.41.41,0,0,0,.08-.25c0-.11-.08-.21-.26-.31a5.56,5.56,0,0,0-1-.37l-.56-.2c-.17-.07-.35-.15-.52-.24a3.6,3.6,0,0,1-.48-.3,3.2,3.2,0,0,1-.39-.36,2.61,2.61,0,0,1-.31-.43,2.76,2.76,0,0,1-.19-.53,2.59,2.59,0,0,1-.07-.63,2.38,2.38,0,0,1,.4-1.35,2.58,2.58,0,0,1,1.09-.89,3.65,3.65,0,0,1,1.54-.31,5.49,5.49,0,0,1,1.11.11,4.82,4.82,0,0,1,1,.34,6.38,6.38,0,0,1,.94.57l-1.23,1.85a2.72,2.72,0,0,0-.9-.63,2.37,2.37,0,0,0-.92-.22.76.76,0,0,0-.39.1.32.32,0,0,0-.18.31c0,.11.08.21.25.32a3.58,3.58,0,0,0,.81.36l.51.19.45.18a4.5,4.5,0,0,1,.42.19c.11.06.23.12.35.2a2.35,2.35,0,0,1,.31.21l.25.25a.89.89,0,0,1,.2.29,1.92,1.92,0,0,1,.14.32,1.59,1.59,0,0,1,.09.39,3.19,3.19,0,0,1,0,.45,2.68,2.68,0,0,1-.2,1,2.18,2.18,0,0,1-.6.82,2.75,2.75,0,0,1-1,.55,4.75,4.75,0,0,1-1.43.2A4.85,4.85,0,0,1,1070.81,329.55Z" transform="translate(0 -3.03)"></path></svg> 