<svg id="Layer_1" data-name="Layer 1" xmlns="http://www.w3.org/2000/svg" viewBox="0 0 647.04 717.98"><defs><style>.cls-1{fill:#f8b119;}.cls-2,.cls-8{fill:#fff;}.cls-3{fill:#1e1e1e;}.cls-4{fill:#010101;}.cls-5{fill:#e73534;}.cls-6{fill:#c32328;}.cls-7{fill:#fed20d;}.cls-8{fill-rule:evenodd;}.cls-9{fill:#3a3b3a;}.cls-10{fill:#f16161;}.cls-11{fill:#8cd2d3;}.cls-12{fill:#fbbc1d;}</style></defs><path class="cls-1" d="M560.5,562.69c-68.91,9.18-81.49,20.08-99.49,8.18-2.07-1.37-12.63-8.35-16.6-21.36a38.85,38.85,0,0,1,1.18-25.21c12.5-29.42,81.3-29,126.22-15.65,9.79,2.9,36.06,10.69,36.94,23.73.37,5.34-3.65,9.77-6.56,12.89C589.32,559.07,570.88,561.31,560.5,562.69Z" transform="translate(-68 -24.46)"/><path class="cls-2" d="M481.68,523c7.33-1.48,13-1.49,24.33-1.52,14.83,0,22.76,2.67,24.71-.91,1.26-2.33-.88-5.73-1.36-6.51-7.33-11.67-32.21-9.46-47-5.07-9.06,2.69-18.71,7.55-18.3,11a4,4,0,0,0,1.55,2.57C469.87,525.48,476.11,524.15,481.68,523Z" transform="translate(-68 -24.46)"/><path class="cls-2" d="M453.91,520.86a2.73,2.73,0,1,0,3.32,2A2.72,2.72,0,0,0,453.91,520.86Z" transform="translate(-68 -24.46)"/><circle class="cls-3" cx="440.14" cy="153.93" r="63.55" transform="translate(-47.93 331.85) rotate(-45)"/><path class="cls-4" d="M375.88,166.83A65.54,65.54,0,1,1,453,218.19,65.62,65.62,0,0,1,375.88,166.83Zm124.61-25a61.55,61.55,0,1,0-48.23,72.47A61.61,61.61,0,0,0,500.49,141.81Z" transform="translate(-68 -24.46)"/><circle class="cls-5" cx="440.14" cy="153.93" r="46.8" transform="translate(0.14 410.6) rotate(-56.36)"/><path class="cls-6" d="M486,144.71a46.8,46.8,0,1,0-36.67,55.1A46.8,46.8,0,0,0,486,144.71Zm-84.43,18.47c-4.15-20.65,10.79-41.07,33.37-45.61s44.25,8.54,48.39,29.19-10.79,41.07-33.37,45.6S405.73,183.83,401.59,163.18Z" transform="translate(-68 -24.46)"/><circle class="cls-3" cx="133.54" cy="236.5" r="63.55" transform="translate(-196.12 139.24) rotate(-45)"/><path class="cls-4" d="M143.88,301.22a65.54,65.54,0,1,1,54.38-75.05A65.62,65.62,0,0,1,143.88,301.22Zm-20-125.5a61.55,61.55,0,1,0,70.49,51.08A61.62,61.62,0,0,0,123.84,175.72Z" transform="translate(-68 -24.46)"/><circle class="cls-5" cx="133.54" cy="236.5" r="46.8" transform="translate(-196.12 139.24) rotate(-45)"/><path class="cls-6" d="M126.16,190.29a46.8,46.8,0,1,0,53.6,38.83A46.79,46.79,0,0,0,126.16,190.29Zm15.09,85.1C120.45,278.71,100.64,263,97,240.23S107.3,196.36,128.1,193s40.61,12.42,44.24,35.16S162.05,272.07,141.25,275.39Z" transform="translate(-68 -24.46)"/><path class="cls-6" d="M319.67,157.48h10.42A218.18,218.18,0,0,1,548.26,375.66v0A121.58,121.58,0,0,1,426.68,497.24H223.08A121.58,121.58,0,0,1,101.49,375.66v0A218.18,218.18,0,0,1,319.67,157.48Z" transform="matrix(0.99, -0.17, 0.17, 0.99, -118.28, 34.63)"/><path class="cls-5" d="M550.73,323c-16.9-99.36-102.55-169-201.92-152.08l-79.12,13.46c-99.36,16.89-166.83,112-149.94,211.38l9,52.75c9.5,55.84,72,75.4,111.52,65.55L472,474.65s80.19-8.94,85.73-101.89Z" transform="translate(-68 -24.46)"/><path class="cls-2" d="M274.89,193.62c7.24,4.53,11.88,16,8.18,23.12-3.46,6.68-13.14,7.41-23.11,8.17s-33.8.75-35.57-6.78C222.06,208.19,257.82,182.94,274.89,193.62Z" transform="translate(-68 -24.46)"/><path class="cls-2" d="M208.18,223.66a6.36,6.36,0,1,1-8.81,1.77A6.35,6.35,0,0,1,208.18,223.66Z" transform="translate(-68 -24.46)"/><path class="cls-2" d="M515.92,352.82h0a43.16,43.16,0,0,1-18,7.54L233.55,405.31A43.13,43.13,0,0,1,214,404.16h0c-15.35-4.59-25.74-17.36-26.21-32.2l0-1.08c-1.58-50.25,36.47-95.56,90.5-107.66,22.86-5.12,47-9.86,72.24-14q29.7-4.86,57.58-8.1c55.2-6.48,106.39,23.5,121.57,71.62l.33,1C534.47,327.93,528.88,343.42,515.92,352.82Z" transform="translate(-68 -24.46)"/><path class="cls-5" d="M211.73,583.36c.07.61.14,1.2.24,1.75a41.43,41.43,0,0,0,3.53,11.41c24.94,53.75,39.4,81.94,57.61,104,3.15,3.8,6.41,7.43,9.87,11,4.55,4.71,9.45,9.25,14.85,13.89,12,10.29,28.69,13.62,34.08,14.81,19.74,4.45,36.33,1.25,47.47,0l1.94-.23c11.15-1.43,28-2.19,46.15-11.13,5-2.42,20.45-9.56,29.68-22.37,25.45-35.27,33.55-63,49.92-144.5a41,41,0,0,0,.83-11.2c-.1-1.52-.26-3-.51-4.54-1.67-9.32-6.56-18.06-14.31-25.65-13.26-13-32.05-18.8-50.52-16.7l-89,10.18-87.39,10c-18.87,2.16-36.21,12.24-46.46,28.25-5,7.75-7.74,15.81-8.17,23.84-.05,1.14-.07,2.3-.05,3.43S211.58,582.09,211.73,583.36Z" transform="translate(-68 -24.46)"/><path class="cls-1" d="M234,653.09c37.52-58.51,52.73-65.29,49.58-86.64-.37-2.45-2.22-15-12.32-24.09a38.89,38.89,0,0,0-23.33-9.62C216,531.6,187.24,594.1,180.25,640.42c-1.52,10.1-5.6,37.2,5.84,43.53,4.68,2.59,10.4.83,14.46-.48C218.49,677.66,228.34,661.91,234,653.09Z" transform="translate(-68 -24.46)"/><path class="cls-2" d="M231.48,564.89c-4.45,6-6.87,11.14-11.7,21.39-6.31,13.42-7.23,21.75-11.29,22-2.65.16-4.83-3.22-5.32-4-7.47-11.59,5.08-33.19,15.33-44.73,6.27-7.07,14.77-13.75,17.74-11.9a3.94,3.94,0,0,1,1.67,2.49C238.71,555.23,234.86,560.32,231.48,564.89Z" transform="translate(-68 -24.46)"/><path class="cls-2" d="M241.29,538.82a2.72,2.72,0,1,1,.37,3.84A2.73,2.73,0,0,1,241.29,538.82Z" transform="translate(-68 -24.46)"/><path class="cls-7" d="M372.78,446.89a48.12,48.12,0,0,1-8.69,1.07c-20.83.6-35.1-12.82-35.69-13.4a3.68,3.68,0,1,1,5.08-5.32c.2.18,12.82,11.9,30.48,11.35,12.72-.4,25.09-7,36.76-19.51a3.68,3.68,0,0,1,5.39,5C395.61,437.39,384.43,444.36,372.78,446.89Z" transform="translate(-68 -24.46)"/><path class="cls-2" d="M343.65,671.52l13.58-38.72-13,1.51-7.88,26.1h-.12l-13.56-23.59L310,638.31l24.65,39A55,55,0,0,1,343.65,671.52Zm29.44-9.6c9.89-.81,22.53,1.67,31.66,2.35a30.79,30.79,0,0,0,6,.11c3.71-.33,19.15-3,17.59-16.44-1.26-10.77-19.52-7.13-26.54-8.85-1.58-.41-2.6-1.09-2.74-2.24a3.62,3.62,0,0,1,2.05-3.72,14.1,14.1,0,0,1,4.43-1.22c4.53-.53,7.17.92,7.93,4.42l12.06-1.41C424,627,414.87,625,406.16,626.05a43.26,43.26,0,0,0-5.75,1c-7.33,1.67-11,4.65-12.52,7.61l-.63-5.38L375.2,630.7,377.57,651c.72,6.17-1,8.47-7.17,9.19s-8.35-1.12-9.07-7.3L359.59,638l-8.51,23.74c.27,2.28,1.62,3.86,4.67,4.79A50,50,0,0,1,373.09,661.92ZM389,644.07c2.89,3.48,8.48,4.1,13.9,4.16,6.72.27,13.24-.26,13.67,3.4.3,2.52-1.85,4.28-7.3,4.92a16.92,16.92,0,0,1-5.41-.08,4.75,4.75,0,0,1-4-4.51L390,653.1Z" transform="translate(-68 -24.46)"/><path class="cls-8" d="M419.16,665.83C403,674.67,363,647.67,329,692l14.38-1.67c21.16-31.12,50.09-17,69.26-20a17.44,17.44,0,0,0,12.58-9A20.29,20.29,0,0,1,419.16,665.83Zm-66.63,23.43,13-1.52c1.17-3.15,6.63-12.72,33-14.52,7.58-.53,8.35-1,8.35-1s-3.74.09-6.94-.12C366.75,670.09,355.11,685.13,352.53,689.26Zm21.1-2.47,12.18-1.42c.93-7.17,17.18-10.93,17.18-10.93S381.18,676,373.63,686.79Z" transform="translate(-68 -24.46)"/><polygon class="cls-5" points="102.83 221.32 92.13 238.59 49.16 221.29 68.18 190.56 102.83 221.32"/><path class="cls-6" d="M114.8,246.52a2.5,2.5,0,0,1,.24-2.08l19-30.72a2.47,2.47,0,0,1,3.75-.55l34.65,30.76a2.48,2.48,0,0,1,.46,3.16l-10.69,17.27a2.48,2.48,0,0,1-3,1l-43-17.3a2.25,2.25,0,0,1-.38-.19A2.46,2.46,0,0,1,114.8,246.52Zm52.82-.27-30.89-27.41-15.92,25.71L159.12,260Z" transform="translate(-68 -24.46)"/><circle class="cls-3" cx="126.66" cy="230.39" r="18.07" transform="translate(-203.89 192.33) rotate(-58.24)"/><path class="cls-4" d="M115.85,247.86a20.55,20.55,0,1,1,28.29-6.65A20.58,20.58,0,0,1,115.85,247.86Zm19-30.73a15.59,15.59,0,1,0,5,21.46A15.61,15.61,0,0,0,134.87,217.13Z" transform="translate(-68 -24.46)"/><path class="cls-2" d="M133.86,218.77a13.66,13.66,0,1,0,4.42,18.81A13.67,13.67,0,0,0,133.86,218.77Z" transform="translate(-68 -24.46)"/><path class="cls-9" d="M133.86,218.77a13.66,13.66,0,1,0,4.42,18.81A13.67,13.67,0,0,0,133.86,218.77Zm-2.25,3.63a10,10,0,1,1-14.2,2.94A10.25,10.25,0,0,1,131.61,222.4Z" transform="translate(-68 -24.46)"/><polygon class="cls-5" points="369.37 167.9 350.38 160.69 359.2 115.2 392.98 128.04 369.37 167.9"/><path class="cls-6" d="M426,137.5a2.47,2.47,0,0,1,2.09-.15l33.78,12.84a2.48,2.48,0,0,1,1.25,3.58L439.5,193.63a2.5,2.5,0,0,1-3,1.06l-19-7.22a2.48,2.48,0,0,1-1.56-2.79l8.82-45.48a2.77,2.77,0,0,1,.12-.41A2.5,2.5,0,0,1,426,137.5Zm10.3,51.81,21-35.53L429.07,143l-7.86,40.55Z" transform="translate(-68 -24.46)"/><circle class="cls-3" cx="444.09" cy="146.09" r="18.07" transform="translate(81.78 484.86) rotate(-69.19)"/><path class="cls-4" d="M424.88,138.79a20.55,20.55,0,1,1,11.91,26.51A20.57,20.57,0,0,1,424.88,138.79Zm33.78,12.83a15.59,15.59,0,1,0-20.11,9A15.6,15.6,0,0,0,458.66,151.62Z" transform="translate(-68 -24.46)"/><path class="cls-2" d="M456.86,150.94a13.66,13.66,0,1,0-17.63,7.92A13.67,13.67,0,0,0,456.86,150.94Z" transform="translate(-68 -24.46)"/><path class="cls-9" d="M456.86,150.94a13.66,13.66,0,1,0-17.63,7.92A13.67,13.67,0,0,0,456.86,150.94Zm-4-1.52A10,10,0,1,1,447.29,136,10.25,10.25,0,0,1,452.87,149.42Z" transform="translate(-68 -24.46)"/><path class="cls-3" d="M337.41,314.81A32.53,32.53,0,0,1,340.58,331a37.72,37.72,0,0,1-5,16.67,39.45,39.45,0,0,1-12.41,13.11,43.61,43.61,0,0,1-16.88,6.56,54.21,54.21,0,0,1-17.44.27,43.22,43.22,0,0,1-16.72-6.12,35.19,35.19,0,0,1-12-12.8,31.73,31.73,0,0,1-3.88-16.07c.81,1.11,1.54,2.21,2.27,3.28s1.6,2.05,2.34,3.05,1.68,1.85,2.48,2.76a13.94,13.94,0,0,0,1.29,1.26l1.32,1.2A36.16,36.16,0,0,0,277.49,351c8.25,2.94,17.29,3.11,26.27,1.56a40.71,40.71,0,0,0,12.05-3.94A37.18,37.18,0,0,0,326,340.85a40.52,40.52,0,0,0,7.45-11.44A55.26,55.26,0,0,0,337.41,314.81Z" transform="translate(-68 -24.46)"/><path class="cls-3" d="M466.12,288.54a32.53,32.53,0,0,1,3.17,16.19,37.79,37.79,0,0,1-5,16.68,39.51,39.51,0,0,1-12.41,13.1A43.61,43.61,0,0,1,435,341.07a54.21,54.21,0,0,1-17.44.27,43.36,43.36,0,0,1-16.72-6.11,35.22,35.22,0,0,1-12-12.81,31.69,31.69,0,0,1-3.88-16.06c.81,1.11,1.54,2.21,2.27,3.28s1.6,2,2.34,3,1.68,1.86,2.48,2.76a15.46,15.46,0,0,0,1.29,1.27l1.32,1.2a36.31,36.31,0,0,0,11.61,6.81c8.25,2.94,17.29,3.11,26.27,1.56a40.14,40.14,0,0,0,12-3.94,37.34,37.34,0,0,0,10.15-7.75,40.66,40.66,0,0,0,7.45-11.44A55.45,55.45,0,0,0,466.12,288.54Z" transform="translate(-68 -24.46)"/><path class="cls-10" d="M675.12,336.75l.38-40.17a3.27,3.27,0,0,0-4.24-3.16l-51.17,15.84a3.29,3.29,0,0,0-2.31,3.1l-.35,36.73c-4.72-1.76-11.2-1.63-17.65.8C589,354,582.38,362.87,585,369.8s13.47,9.28,24.25,5.22,17.4-13,14.79-19.91l-.1-.24.38-40.05L668.91,301l-.29,29.31c-4.74-1.88-11.34-1.78-17.92.69-10.78,4.06-17.4,13-14.79,19.91s13.47,9.28,24.25,5.22C670.67,352.18,677.22,343.61,675.12,336.75Z" transform="translate(-68 -24.46)"/><path class="cls-11" d="M594.56,47.59C588.63,33.48,576,35.77,568,26.59a4,4,0,0,0-7.45,2.35l6.13,47.2c-6-1.48-13.94-.26-21.44,3.82-12.25,6.67-18.7,18.47-14.4,26.36s17.71,8.87,30,2.19c11.9-6.48,18.32-17.87,14.74-25.74l-3.76-29c7.1,4,10.29,0,20.64,6.17.56.33,1.24-.37,1-.9-4.68-10.7-12.83-6.52-23-15.49L570,40c9.32,5.83,15.69,1.74,23.33,8.59C593.86,49.11,594.84,48.24,594.56,47.59Z" transform="translate(-68 -24.46)"/><path class="cls-12" d="M715,105.59C712.3,86.24,698.9,85.83,692.7,72.41a4.21,4.21,0,0,0-8.37.17l-4.05,50.3c-5.91-2.86-14.4-3.35-23.08-.77-14.18,4.22-23.47,15-20.75,24.17s16.41,13.1,30.59,8.88c13.77-4.1,22.94-14.5,21-23.45l3.33-41.27c5.34,4.65,12.8,5.39,22.13,16.1C714.06,107.23,715.16,106.48,715,105.59Z" transform="translate(-68 -24.46)"/></svg>