<svg id="Layer_1" data-name="Layer 1" xmlns="http://www.w3.org/2000/svg" xmlns:xlink="http://www.w3.org/1999/xlink" viewBox="0 0 774.92 765.71"><defs><style>.cls-1{fill:url(#linear-gradient);}.cls-2{fill:url(#linear-gradient-2);}.cls-3{fill:url(#linear-gradient-3);}.cls-4{fill:url(#linear-gradient-4);}.cls-5{fill:url(#linear-gradient-5);}.cls-6{fill:url(#linear-gradient-6);}.cls-7{fill:url(#linear-gradient-7);}.cls-8{fill:url(#linear-gradient-8);}.cls-9{fill:url(#linear-gradient-9);}.cls-10{fill:url(#linear-gradient-10);}.cls-11{fill:url(#linear-gradient-11);}.cls-12{fill:url(#linear-gradient-12);}.cls-13{fill:url(#linear-gradient-13);}.cls-14{fill:url(#linear-gradient-14);}.cls-15{fill:url(#linear-gradient-15);}.cls-16{fill:url(#linear-gradient-16);}.cls-17{fill:url(#linear-gradient-17);}.cls-18{fill:url(#linear-gradient-18);}.cls-19{fill:url(#linear-gradient-19);}.cls-20{fill:url(#linear-gradient-20);}.cls-21{fill:url(#linear-gradient-21);}.cls-22{fill:url(#linear-gradient-22);}.cls-23{fill:url(#linear-gradient-23);}.cls-24{fill:url(#linear-gradient-24);}.cls-25{fill:url(#linear-gradient-25);}.cls-26{fill:url(#linear-gradient-26);}.cls-27{fill:url(#linear-gradient-27);}.cls-28{fill:url(#linear-gradient-28);}.cls-29{fill:url(#linear-gradient-29);}.cls-30{fill:url(#linear-gradient-30);}.cls-31{fill:url(#linear-gradient-31);}.cls-32{fill:url(#linear-gradient-32);}.cls-33{fill:url(#linear-gradient-33);}.cls-34{fill:url(#linear-gradient-34);}.cls-35{fill:url(#linear-gradient-35);}.cls-36{fill:url(#linear-gradient-36);}.cls-37{fill:url(#linear-gradient-37);}.cls-38{fill:url(#linear-gradient-38);}.cls-39{fill:url(#linear-gradient-39);}.cls-40{fill:url(#linear-gradient-40);}.cls-41{fill:url(#linear-gradient-41);}.cls-42{fill:url(#linear-gradient-42);}.cls-43{fill:url(#linear-gradient-43);}.cls-44{fill:url(#linear-gradient-44);}.cls-45{fill:url(#linear-gradient-45);}.cls-46{fill:url(#linear-gradient-46);}.cls-47{fill:url(#linear-gradient-47);}.cls-48{fill:url(#linear-gradient-48);}.cls-49{fill:url(#linear-gradient-49);}.cls-50{fill:url(#linear-gradient-50);}.cls-51{fill:url(#linear-gradient-51);}.cls-52{fill:url(#linear-gradient-52);}.cls-53{fill:url(#linear-gradient-53);}.cls-54{fill:url(#linear-gradient-54);}.cls-55{fill:url(#linear-gradient-55);}.cls-56{fill:url(#linear-gradient-56);}.cls-57{fill:url(#linear-gradient-57);}.cls-58{fill:url(#linear-gradient-58);}.cls-59{fill:url(#linear-gradient-59);}.cls-60{fill:url(#linear-gradient-60);}.cls-61{fill:url(#linear-gradient-61);}.cls-62{fill:url(#linear-gradient-62);}.cls-63{fill:url(#linear-gradient-63);}.cls-64{fill:url(#linear-gradient-64);}.cls-65{fill:url(#linear-gradient-65);}.cls-66{fill:url(#linear-gradient-66);}.cls-67{fill:url(#linear-gradient-67);}.cls-68{fill:url(#linear-gradient-68);}.cls-69{fill:url(#linear-gradient-69);}.cls-70{fill:url(#linear-gradient-70);}.cls-71{fill:url(#linear-gradient-71);}.cls-72{fill:url(#linear-gradient-72);}.cls-73{fill:url(#linear-gradient-73);}.cls-74{fill:url(#linear-gradient-74);}.cls-75{fill:url(#linear-gradient-75);}.cls-76{fill:url(#linear-gradient-76);}.cls-77{fill:url(#linear-gradient-77);}.cls-78{fill:url(#linear-gradient-78);}.cls-79{fill:url(#linear-gradient-79);}.cls-80{fill:url(#linear-gradient-80);}.cls-81{fill:url(#linear-gradient-81);}.cls-82{fill:url(#linear-gradient-82);}.cls-83{fill:url(#linear-gradient-83);}.cls-84{fill:url(#linear-gradient-84);}.cls-85{fill:url(#linear-gradient-85);}.cls-86{fill:url(#linear-gradient-86);}.cls-87{fill:url(#linear-gradient-87);}.cls-88{fill:url(#linear-gradient-88);}.cls-89{fill:url(#linear-gradient-89);}.cls-90{fill:url(#linear-gradient-90);}.cls-91{fill:url(#linear-gradient-91);}.cls-92{fill:url(#linear-gradient-92);}.cls-93{fill:url(#linear-gradient-93);}.cls-94{fill:url(#linear-gradient-94);}.cls-95{fill:url(#linear-gradient-95);}.cls-96{fill:url(#linear-gradient-96);}.cls-97{fill:url(#linear-gradient-97);}.cls-98{fill:url(#linear-gradient-98);}.cls-99{fill:url(#linear-gradient-99);}.cls-100{fill:url(#linear-gradient-100);}.cls-101{fill:url(#linear-gradient-101);}.cls-102{fill:url(#linear-gradient-102);}.cls-103{fill:url(#linear-gradient-103);}.cls-104{fill:url(#linear-gradient-104);}.cls-105{fill:url(#linear-gradient-105);}.cls-106{fill:url(#linear-gradient-106);}.cls-107{fill:url(#linear-gradient-107);}.cls-108{fill:url(#linear-gradient-108);}.cls-109{fill:url(#linear-gradient-109);}.cls-110{fill:url(#linear-gradient-110);}.cls-111{fill:url(#linear-gradient-111);}.cls-112{fill:url(#linear-gradient-112);}.cls-113{fill:url(#linear-gradient-113);}.cls-114{fill:url(#linear-gradient-114);}.cls-115{fill:url(#linear-gradient-115);}.cls-116{fill:url(#linear-gradient-116);}.cls-117{fill:url(#linear-gradient-117);}.cls-118{fill:url(#linear-gradient-118);}.cls-119{fill:url(#linear-gradient-119);}.cls-120{fill:url(#linear-gradient-120);}.cls-121{fill:url(#linear-gradient-121);}.cls-122{fill:url(#linear-gradient-122);}.cls-123{fill:url(#linear-gradient-123);}.cls-124{fill:url(#linear-gradient-124);}.cls-125{fill:url(#linear-gradient-125);}.cls-126{fill:url(#linear-gradient-126);}.cls-127{fill:url(#linear-gradient-127);}.cls-128{fill:url(#linear-gradient-128);}.cls-129{fill:url(#linear-gradient-129);}.cls-130{fill:url(#linear-gradient-130);}.cls-131{fill:url(#linear-gradient-131);}.cls-132{fill:url(#linear-gradient-132);}.cls-133{fill:url(#linear-gradient-133);}.cls-134{fill:url(#linear-gradient-134);}.cls-135{fill:url(#linear-gradient-135);}.cls-136{fill:url(#linear-gradient-136);}.cls-137{fill:url(#linear-gradient-137);}.cls-138{fill:url(#linear-gradient-138);}.cls-139{fill:url(#linear-gradient-139);}.cls-140{fill:url(#linear-gradient-140);}.cls-141{fill:url(#linear-gradient-141);}.cls-142{fill:url(#linear-gradient-142);}.cls-143{fill:url(#linear-gradient-143);}.cls-144{fill:url(#linear-gradient-144);}.cls-145{fill:url(#linear-gradient-145);}.cls-146{fill:url(#linear-gradient-146);}.cls-147{fill:url(#linear-gradient-147);}.cls-148{fill:url(#linear-gradient-148);}.cls-149{fill:url(#linear-gradient-149);}.cls-150{fill:url(#linear-gradient-150);}.cls-151{fill:url(#linear-gradient-151);}.cls-152{fill:url(#linear-gradient-152);}.cls-153{fill:url(#linear-gradient-153);}.cls-154{fill:#1e1e1e;}.cls-155{fill:#010101;}.cls-156{fill:#e73534;}.cls-157{fill:#c32328;}.cls-158,.cls-161{fill:#fff;}.cls-159{fill:#eff8fb;}.cls-160{fill:#f8b119;}.cls-161{fill-rule:evenodd;}.cls-162{fill:#3a3b3a;}.cls-163{fill:url(#_ÂÁ_Ï_ÌÌ_È_ËÂÌÚ_440);}.cls-164{fill:url(#_ÂÁ_Ï_ÌÌ_È_ËÂÌÚ_12);}.cls-165{fill:url(#_ÂÁ_Ï_ÌÌ_È_ËÂÌÚ_440-2);}.cls-166{fill:url(#_ÂÁ_Ï_ÌÌ_È_ËÂÌÚ_12-2);}.cls-167{fill:#7a1b24;}.cls-168{fill:#f2bad5;}</style><linearGradient id="linear-gradient" x1="-8541.86" y1="-9170.37" x2="-8537.41" y2="-9170.37" gradientTransform="translate(-18276.58 -11513.73) rotate(165.01) scale(1.78)" gradientUnits="userSpaceOnUse"><stop offset="0" stop-color="#921943"/><stop offset="0.02" stop-color="#9c1a4a"/><stop offset="0.1" stop-color="#bf1e65"/><stop offset="0.17" stop-color="#d82178"/><stop offset="0.24" stop-color="#e82283"/><stop offset="0.3" stop-color="#ed2387"/><stop offset="0.39" stop-color="#ee408e"/><stop offset="0.49" stop-color="#f05794"/><stop offset="0.55" stop-color="#f05f96"/><stop offset="0.6" stop-color="#f05794"/><stop offset="0.68" stop-color="#ee408e"/><stop offset="0.75" stop-color="#ed2387"/><stop offset="0.8" stop-color="#e82283"/><stop offset="0.85" stop-color="#d82178"/><stop offset="0.92" stop-color="#bf1e65"/><stop offset="0.98" stop-color="#9c1a4b"/><stop offset="1" stop-color="#921943"/></linearGradient><linearGradient id="linear-gradient-2" x1="-7437.39" y1="-6553.64" x2="-7436.43" y2="-6547.91" gradientTransform="translate(17313.08 9707.89) rotate(-13.49) scale(1.97)" xlink:href="#linear-gradient"/><linearGradient id="linear-gradient-3" x1="-5079.49" y1="-6258.99" x2="-5082.16" y2="-6255.09" gradientTransform="matrix(0.8, 0.33, -0.33, 0.8, 2386.89, 7127.43)" gradientUnits="userSpaceOnUse"><stop offset="0" stop-color="#3b1311"/><stop offset="0.07" stop-color="#741718"/><stop offset="0.15" stop-color="#a41a1e"/><stop offset="0.21" stop-color="#c71c22"/><stop offset="0.26" stop-color="#dc1d25"/><stop offset="0.3" stop-color="#e41e26"/><stop offset="0.3" stop-color="#e41f26"/><stop offset="0.37" stop-color="#ea3429"/><stop offset="0.43" stop-color="#ee422b"/><stop offset="0.49" stop-color="#ef462c"/><stop offset="0.56" stop-color="#ee412b"/><stop offset="0.63" stop-color="#ea3429"/><stop offset="0.7" stop-color="#e41e26"/><stop offset="0.73" stop-color="#da1d25"/><stop offset="0.79" stop-color="#c11c22"/><stop offset="0.86" stop-color="#97191d"/><stop offset="0.95" stop-color="#5e1516"/><stop offset="1" stop-color="#361211"/></linearGradient><linearGradient id="linear-gradient-4" x1="-6194.7" y1="-7611.75" x2="-6195.17" y2="-7618.88" gradientTransform="translate(-1902.97 14351.06) rotate(47.25) scale(1.46)" gradientUnits="userSpaceOnUse"><stop offset="0" stop-color="#205328"/><stop offset="0.18" stop-color="#14893e"/><stop offset="0.31" stop-color="#0ca94b"/><stop offset="0.32" stop-color="#12aa4a"/><stop offset="0.36" stop-color="#3bb447"/><stop offset="0.4" stop-color="#5bbb44"/><stop offset="0.44" stop-color="#72c043"/><stop offset="0.48" stop-color="#7fc341"/><stop offset="0.51" stop-color="#84c441"/><stop offset="0.55" stop-color="#80c341"/><stop offset="0.59" stop-color="#73c042"/><stop offset="0.64" stop-color="#5fbc44"/><stop offset="0.68" stop-color="#42b547"/><stop offset="0.72" stop-color="#1dad4a"/><stop offset="0.74" stop-color="#0ca94b"/><stop offset="0.78" stop-color="#0d9e46"/><stop offset="0.86" stop-color="#11803a"/><stop offset="0.95" stop-color="#175026"/><stop offset="1" stop-color="#1a341a"/></linearGradient><linearGradient id="linear-gradient-5" x1="-6834.86" y1="-6828.21" x2="-6833.66" y2="-6820.84" gradientTransform="translate(10430.64 13798.13) rotate(7.95) scale(1.76)" xlink:href="#linear-gradient-4"/><linearGradient id="linear-gradient-6" x1="-7462.74" y1="-8973.86" x2="-7459.84" y2="-8968.36" gradientTransform="matrix(-1.34, 2, -2, -1.34, -27310.25, 3472.86)" xlink:href="#linear-gradient-4"/><linearGradient id="linear-gradient-7" x1="-8803.06" y1="-8286.31" x2="-8798.61" y2="-8286.31" gradientTransform="translate(-9366.75 -25535.04) rotate(-153.79) scale(2.28)" xlink:href="#linear-gradient"/><linearGradient id="linear-gradient-8" x1="-7691.05" y1="-6822.97" x2="-7685.11" y2="-6822.07" gradientTransform="translate(26073.96 5718.34) rotate(-29.86) scale(2.57)" xlink:href="#linear-gradient"/><linearGradient id="linear-gradient-9" x1="-8748.19" y1="-6138.02" x2="-8743.92" y2="-6139.22" gradientTransform="translate(12394.4 -6076.91) rotate(-62.88) scale(1.3)" xlink:href="#linear-gradient"/><linearGradient id="linear-gradient-10" x1="-9239.09" y1="-6756.66" x2="-9233.15" y2="-6755.76" gradientTransform="matrix(-0.22, -1.48, 1.48, -0.22, 8628.98, -14947.56)" xlink:href="#linear-gradient-3"/><linearGradient id="linear-gradient-11" x1="-5171.84" y1="-6504.41" x2="-5173.01" y2="-6509.97" gradientTransform="matrix(0.85, 0.4, -0.4, 0.85, 2256.91, 8023.68)" xlink:href="#linear-gradient-4"/><linearGradient id="linear-gradient-12" x1="-7681.81" y1="-4685.27" x2="-7675.87" y2="-4684.37" gradientTransform="translate(7693.96 -1045.66) rotate(-40.67) scale(0.81)" xlink:href="#linear-gradient-4"/><linearGradient id="linear-gradient-13" x1="-5579.51" y1="-10273.88" x2="-5575.06" y2="-10273.88" gradientTransform="matrix(-0.15, 0.78, -0.78, -0.15, -8513.08, 3283)" gradientUnits="userSpaceOnUse"><stop offset="0" stop-color="#aa3f24"/><stop offset="0.34" stop-color="#ffc808"/><stop offset="0.36" stop-color="#ffcc18"/><stop offset="0.4" stop-color="#fed434"/><stop offset="0.44" stop-color="#fdd947"/><stop offset="0.48" stop-color="#fddc53"/><stop offset="0.52" stop-color="#fddd57"/><stop offset="0.55" stop-color="#fddc52"/><stop offset="0.59" stop-color="#fdd844"/><stop offset="0.63" stop-color="#fed22c"/><stop offset="0.67" stop-color="#ffc90c"/><stop offset="0.67" stop-color="#ffc808"/><stop offset="1" stop-color="#aa3f24"/></linearGradient><linearGradient id="linear-gradient-14" x1="-9730.2" y1="-9844.59" x2="-9725.93" y2="-9845.79" gradientTransform="translate(-7358.42 -9040.77) rotate(-174.74) scale(0.86)" xlink:href="#linear-gradient"/><linearGradient id="linear-gradient-15" x1="-9366.05" y1="-5953.06" x2="-9365.08" y2="-5947.33" gradientTransform="translate(9119.49 -8760.88) rotate(-79.31) scale(1.14)" gradientUnits="userSpaceOnUse"><stop offset="0" stop-color="#22449c"/><stop offset="0.07" stop-color="#2b5bab"/><stop offset="0.26" stop-color="#3f90cf"/><stop offset="0.35" stop-color="#47a5dd"/><stop offset="0.38" stop-color="#49aee1"/><stop offset="0.46" stop-color="#4dc1ea"/><stop offset="0.52" stop-color="#4fc8ed"/><stop offset="0.7" stop-color="#47a7de"/><stop offset="0.71" stop-color="#47a5dd"/><stop offset="0.76" stop-color="#439bd6"/><stop offset="0.85" stop-color="#387fc4"/><stop offset="0.97" stop-color="#2752a6"/><stop offset="1" stop-color="#22449c"/></linearGradient><linearGradient id="linear-gradient-16" x1="-7261.72" y1="-8472.52" x2="-7262.55" y2="-8478.8" gradientTransform="matrix(-0.39, 2.96, -2.96, -0.39, -27390.29, 18347.56)" xlink:href="#linear-gradient-3"/><linearGradient id="linear-gradient-17" x1="-7619.99" y1="-9183.07" x2="-7620.06" y2="-9176.53" gradientTransform="matrix(-1.1, 1.45, -1.45, -1.1, -21184.4, 989.77)" xlink:href="#linear-gradient-3"/><linearGradient id="linear-gradient-18" x1="-10724.01" y1="-9398.52" x2="-10719.16" y2="-9389.32" gradientTransform="matrix(-0.78, -0.23, 0.23, -0.78, -5490.11, -9591.82)" xlink:href="#linear-gradient"/><linearGradient id="linear-gradient-19" x1="-10121.69" y1="-7543.17" x2="-10121.69" y2="-7538.06" gradientTransform="translate(2396.53 -13656.04) rotate(-117.98) scale(1.14)" xlink:href="#linear-gradient-3"/><linearGradient id="linear-gradient-20" x1="-6545.71" y1="-8376.69" x2="-6542.81" y2="-8371.18" gradientTransform="matrix(0.43, 1.8, -1.8, 0.43, -11977.98, 15735.74)" xlink:href="#linear-gradient-3"/><linearGradient id="linear-gradient-21" x1="-10009.33" y1="-6435.8" x2="-10000.47" y2="-6434.72" gradientTransform="translate(6083.65 -10481.5) rotate(-95.15) scale(1.04)" xlink:href="#linear-gradient-13"/><linearGradient id="linear-gradient-22" x1="-8785.7" y1="-8344.54" x2="-8776.84" y2="-8343.46" gradientTransform="translate(-10202.51 -23592.18) rotate(-157.18) scale(2.14)" xlink:href="#linear-gradient-3"/><linearGradient id="linear-gradient-23" x1="-5817.55" y1="-5368.35" x2="-5817.61" y2="-5361.82" gradientTransform="matrix(0.77, 0.05, -0.05, 0.77, 4357.45, 4736.99)" xlink:href="#linear-gradient-13"/><linearGradient id="linear-gradient-24" x1="-6428.23" y1="-9535.02" x2="-6422.29" y2="-9534.12" gradientTransform="matrix(-0.19, 1.11, -1.11, -0.19, -11403.81, 5460.67)" xlink:href="#linear-gradient"/><linearGradient id="linear-gradient-25" x1="-8510.15" y1="-8629.57" x2="-8509.18" y2="-8623.83" gradientTransform="translate(-16100.13 -21178.18) rotate(-172.29) scale(2.22)" xlink:href="#linear-gradient-3"/><linearGradient id="linear-gradient-26" x1="-7463.82" y1="-6856.81" x2="-7464.42" y2="-6851.01" gradientTransform="translate(21195.72 12115.89) rotate(-13.42) scale(2.39)" xlink:href="#linear-gradient-3"/><linearGradient id="linear-gradient-27" x1="-9799.35" y1="-7993.04" x2="-9800.52" y2="-7998.61" gradientTransform="translate(199.56 -15851.16) rotate(-129.1) scale(1.29)" xlink:href="#linear-gradient-3"/><linearGradient id="linear-gradient-28" x1="-6584.81" y1="-7013.98" x2="-6585.27" y2="-7021.12" gradientTransform="matrix(1.59, 0.61, -0.61, 1.59, 6348.48, 15451.4)" xlink:href="#linear-gradient"/><linearGradient id="linear-gradient-29" x1="-8847.97" y1="-8153.57" x2="-8847" y2="-8147.83" gradientTransform="translate(-8840.32 -27760.73) rotate(-151.28) scale(2.46)" xlink:href="#linear-gradient-13"/><linearGradient id="linear-gradient-30" x1="-7197.5" y1="-7074.82" x2="-7196.67" y2="-7070.26" gradientTransform="translate(17351.79 21986.31) rotate(6.79) scale(2.73)" xlink:href="#linear-gradient-15"/><linearGradient id="linear-gradient-31" x1="-8382.02" y1="-8615.07" x2="-8377.76" y2="-8616.27" gradientTransform="translate(-21409.61 -20043.39) rotate(177.35) scale(2.47)" xlink:href="#linear-gradient-13"/><linearGradient id="linear-gradient-32" x1="-9526.2" y1="-7042.01" x2="-9526.27" y2="-7035.47" gradientTransform="translate(6040.5 -16027.51) rotate(-108.11) scale(1.46)" xlink:href="#linear-gradient-13"/><linearGradient id="linear-gradient-33" x1="-9380.3" y1="-9910.89" x2="-9380.77" y2="-9918.03" gradientTransform="translate(-9448.62 -9143.85) rotate(177.26)" xlink:href="#linear-gradient-3"/><linearGradient id="linear-gradient-34" x1="-6979.73" y1="-5998.94" x2="-6973.8" y2="-5998.04" gradientTransform="matrix(1.41, -0.47, 0.47, 1.41, 13388.39, 5673.6)" xlink:href="#linear-gradient-13"/><linearGradient id="linear-gradient-35" x1="-6327.23" y1="-7399.56" x2="-6326.27" y2="-7393.82" gradientTransform="translate(-167.31 16618.31) rotate(41.61) scale(1.66)" xlink:href="#linear-gradient-13"/><linearGradient id="linear-gradient-36" x1="-7197.35" y1="-5639.42" x2="-7198.36" y2="-5647.03" gradientTransform="translate(9836.14 2719.7) rotate(-23.25) scale(1.08)" xlink:href="#linear-gradient-15"/><linearGradient id="linear-gradient-37" x1="-8947.62" y1="-7866.32" x2="-8938.76" y2="-7865.24" gradientTransform="translate(-2127.29 -27752.98) rotate(-136.97) scale(2.36)" xlink:href="#linear-gradient-15"/><linearGradient id="linear-gradient-38" x1="-9530.24" y1="-8009.04" x2="-9531.4" y2="-8014.61" gradientTransform="translate(-925.28 -16381.18) rotate(-133.69) scale(1.33)" xlink:href="#linear-gradient-13"/><linearGradient id="linear-gradient-39" x1="-7106.97" y1="-8325.1" x2="-7106.14" y2="-8320.53" gradientTransform="matrix(0.25, 2.95, -2.95, 0.25, -22338.66, 23245.39)" xlink:href="#linear-gradient-4"/><linearGradient id="linear-gradient-40" x1="-6442.27" y1="-7119.44" x2="-6443.28" y2="-7127.05" gradientTransform="translate(7451.76 16900.85) rotate(19.92) scale(1.86)" xlink:href="#linear-gradient-3"/><linearGradient id="linear-gradient-41" x1="-8140.97" y1="-9987.73" x2="-8139.77" y2="-9980.36" gradientTransform="translate(-14846.85 -4765.36) rotate(147.65) scale(1.26)" xlink:href="#linear-gradient-4"/><linearGradient id="linear-gradient-42" x1="-7790.74" y1="-8927.61" x2="-7789.9" y2="-8923.05" gradientTransform="translate(-27347.06 -6970.92) rotate(146.47) scale(2.41)" xlink:href="#linear-gradient"/><linearGradient id="linear-gradient-43" x1="-8240.88" y1="-8516.77" x2="-8240.95" y2="-8510.24" gradientTransform="translate(-24396.67 -25029.64) rotate(-179.8) scale(2.98)" xlink:href="#linear-gradient-3"/><linearGradient id="linear-gradient-44" x1="-7243.24" y1="-11335.37" x2="-7240.33" y2="-11329.86" gradientTransform="translate(-9671.41 -1501.48) rotate(133.71) scale(0.76)" xlink:href="#linear-gradient-3"/><linearGradient id="linear-gradient-45" x1="-6907.01" y1="-8271.7" x2="-6907.61" y2="-8265.9" gradientTransform="translate(-14177.52 24638.33) rotate(71.14) scale(2.66)" xlink:href="#linear-gradient"/><linearGradient id="linear-gradient-46" x1="-9466.81" y1="-8222.14" x2="-9462.54" y2="-8223.34" gradientTransform="matrix(-1.26, -0.98, 0.98, -1.26, -3439.86, -19108.7)" xlink:href="#linear-gradient-3"/><linearGradient id="linear-gradient-47" x1="-8652.46" y1="-4651.07" x2="-8652.93" y2="-4658.2" gradientTransform="translate(7861.89 -2750.34) rotate(-51.7) scale(0.83)" xlink:href="#linear-gradient-13"/><linearGradient id="linear-gradient-48" x1="-8936.22" y1="-8422.99" x2="-8936.29" y2="-8416.46" gradientTransform="translate(-8283.66 -20671.65) rotate(-155.32) scale(1.83)" xlink:href="#linear-gradient-15"/><linearGradient id="linear-gradient-49" x1="-8047.2" y1="-6514.81" x2="-8042.75" y2="-6514.81" gradientTransform="translate(23367.71 -4605.39) rotate(-51.76) scale(2.24)" xlink:href="#linear-gradient-4"/><linearGradient id="linear-gradient-50" x1="-8919.12" y1="-7878.05" x2="-8917.92" y2="-7870.68" gradientTransform="translate(3108.07 -27652.05) rotate(-125.47) scale(2.39)" xlink:href="#linear-gradient-3"/><linearGradient id="linear-gradient-51" x1="-8560.8" y1="-10746.92" x2="-8563.47" y2="-10743.02" gradientTransform="matrix(-0.73, 0.4, -0.4, -0.73, -10070.36, -4344.93)" xlink:href="#linear-gradient-13"/><linearGradient id="linear-gradient-52" x1="-8319.07" y1="-5157.9" x2="-8312.37" y2="-5159.79" gradientTransform="matrix(0.68, -0.74, 0.74, 0.68, 9915.33, -2141.2)" xlink:href="#linear-gradient"/><linearGradient id="linear-gradient-53" x1="-8513.47" y1="-7381.54" x2="-8509.02" y2="-7381.54" gradientTransform="translate(17922.56 -27273.06) rotate(-98.11) scale(2.89)" xlink:href="#linear-gradient"/><linearGradient id="linear-gradient-54" x1="-6912.35" y1="-5538.12" x2="-6915.02" y2="-5534.22" gradientTransform="translate(8786.95 2966.32) rotate(-19.97)" xlink:href="#linear-gradient-15"/><linearGradient id="linear-gradient-55" x1="-6193.64" y1="-8473.78" x2="-6187.71" y2="-8472.88" gradientTransform="translate(-8703.84 14796.1) rotate(69.36) scale(1.64)" xlink:href="#linear-gradient-3"/><linearGradient id="linear-gradient-56" x1="-9777.86" y1="-7276.42" x2="-9778.33" y2="-7283.55" gradientTransform="matrix(-0.41, -1.13, 1.13, -0.41, 4363.47, -13775.06)" xlink:href="#linear-gradient-13"/><linearGradient id="linear-gradient-57" x1="-8765.02" y1="-8074.96" x2="-8763.82" y2="-8067.59" gradientTransform="translate(-5607.75 -28759.07) rotate(-144.13) scale(2.48)" xlink:href="#linear-gradient-13"/><linearGradient id="linear-gradient-58" x1="-7462.35" y1="-6752.24" x2="-7462.95" y2="-6746.44" gradientTransform="translate(24785.89 7596.15) rotate(-25.33) scale(2.5)" xlink:href="#linear-gradient"/><linearGradient id="linear-gradient-59" x1="-7160.42" y1="-8678.09" x2="-7161.42" y2="-8685.7" gradientTransform="translate(-24182.22 15155.52) rotate(98.68) scale(2.58)" xlink:href="#linear-gradient-15"/><linearGradient id="linear-gradient-60" x1="-6195.56" y1="-10129.52" x2="-6195.63" y2="-10122.98" gradientTransform="translate(-10635.9 1850.62) rotate(114.41) scale(0.91)" xlink:href="#linear-gradient"/><linearGradient id="linear-gradient-61" x1="-4774.1" y1="-8880.05" x2="-4771.2" y2="-8874.54" gradientTransform="matrix(0.25, 0.78, -0.78, 0.25, -5333.12, 6352.56)" xlink:href="#linear-gradient-4"/><linearGradient id="linear-gradient-62" x1="-6788.78" y1="-8442.2" x2="-6789.78" y2="-8449.8" gradientTransform="translate(-16429.22 20065.54) rotate(79.93) scale(2.4)" xlink:href="#linear-gradient-13"/><linearGradient id="linear-gradient-63" x1="-8638.37" y1="-5970.37" x2="-8635.47" y2="-5964.86" gradientTransform="translate(11985.67 -5137.93) rotate(-59.56) scale(1.24)" xlink:href="#linear-gradient-4"/><linearGradient id="linear-gradient-64" x1="-9017.2" y1="-7772.12" x2="-9017.2" y2="-7767.02" gradientTransform="matrix(-1.03, -1.81, 1.81, -1.03, 4817.45, -23859.46)" xlink:href="#linear-gradient-4"/><linearGradient id="linear-gradient-65" x1="-7036.73" y1="-8546.18" x2="-7036.82" y2="-8537.26" gradientTransform="translate(-24280.78 12870.27) rotate(102.72) scale(2.47)" xlink:href="#linear-gradient-4"/><linearGradient id="linear-gradient-66" x1="-8027.94" y1="-6642.28" x2="-8028.41" y2="-6649.41" gradientTransform="translate(22222.06 -3004.79) rotate(-48.2) scale(2.13)" xlink:href="#linear-gradient-3"/><linearGradient id="linear-gradient-67" x1="-8937.06" y1="-6806.44" x2="-8928.2" y2="-6805.36" gradientTransform="translate(12016.81 -12584.71) rotate(-84.29) scale(1.56)" xlink:href="#linear-gradient-3"/><linearGradient id="linear-gradient-68" x1="-8289.47" y1="-9882.52" x2="-8288.64" y2="-9877.95" gradientTransform="translate(-14162.79 -6993.86) rotate(157.37) scale(1.27)" xlink:href="#linear-gradient-3"/><linearGradient id="linear-gradient-69" x1="-7151.84" y1="-9836.99" x2="-7147.39" y2="-9836.99" gradientTransform="translate(-14634.75 2481.84) rotate(117.59) scale(1.27)" xlink:href="#linear-gradient-3"/><linearGradient id="linear-gradient-70" x1="-4926.31" y1="-7742.22" x2="-4924.12" y2="-7728.76" gradientTransform="translate(-1664.47 7925.14) rotate(47.43) scale(0.87)" xlink:href="#linear-gradient-3"/><linearGradient id="linear-gradient-71" x1="-9297.09" y1="-8599.59" x2="-9291.09" y2="-8601.28" gradientTransform="matrix(-1.34, -0.54, 0.54, -1.34, -7501.64, -16340.63)" xlink:href="#linear-gradient-4"/><linearGradient id="linear-gradient-72" x1="-10579.13" y1="-5932.22" x2="-10578.16" y2="-5926.49" gradientTransform="translate(4263 -8676.31) rotate(-96.89) scale(0.81)" xlink:href="#linear-gradient-4"/><linearGradient id="linear-gradient-73" x1="-10637.51" y1="-8300.49" x2="-10636.54" y2="-8294.76" gradientTransform="translate(-1483.93 -11802.01) rotate(-136.27) scale(0.92)" xlink:href="#linear-gradient-13"/><linearGradient id="linear-gradient-74" x1="-8713.31" y1="-7615.54" x2="-8713.93" y2="-7620.21" gradientTransform="translate(7898.6 -30596.58) rotate(-117.45) scale(2.75)" xlink:href="#linear-gradient-15"/><linearGradient id="linear-gradient-75" x1="384.05" y1="252.07" x2="409.42" y2="254.15" gradientTransform="translate(-12.49 7.42) rotate(0.45)" gradientUnits="userSpaceOnUse"><stop offset="0" stop-color="#1a341a"/><stop offset="0.08" stop-color="#165227"/><stop offset="0.19" stop-color="#127836"/><stop offset="0.3" stop-color="#0f9342"/><stop offset="0.4" stop-color="#0da349"/><stop offset="0.47" stop-color="#0ca94b"/><stop offset="0.6" stop-color="#0ca94b"/><stop offset="0.67" stop-color="#0d9e46"/><stop offset="0.78" stop-color="#11803a"/><stop offset="0.92" stop-color="#175026"/><stop offset="1" stop-color="#1a341a"/></linearGradient><linearGradient id="linear-gradient-76" x1="365.9" y1="206" x2="391.27" y2="222.84" xlink:href="#linear-gradient-75"/><linearGradient id="linear-gradient-77" x1="384.2" y1="229.81" x2="424.82" y2="240.55" xlink:href="#linear-gradient-75"/><linearGradient id="linear-gradient-78" x1="384.44" y1="247.19" x2="409.82" y2="249.27" xlink:href="#linear-gradient-75"/><linearGradient id="linear-gradient-79" x1="366.67" y1="204.84" x2="392.04" y2="221.67" xlink:href="#linear-gradient-75"/><linearGradient id="linear-gradient-80" x1="356.2" y1="170.77" x2="402.19" y2="198.46" xlink:href="#linear-gradient-75"/><linearGradient id="linear-gradient-81" x1="391.67" y1="285.14" x2="415.09" y2="292.7" xlink:href="#linear-gradient-75"/><linearGradient id="linear-gradient-82" x1="384.42" y1="228.99" x2="425.04" y2="239.73" xlink:href="#linear-gradient-75"/><linearGradient id="linear-gradient-83" x1="387.77" y1="260.21" x2="425.46" y2="274.97" xlink:href="#linear-gradient-75"/><linearGradient id="linear-gradient-84" x1="389.64" y1="253.86" x2="406.72" y2="250.57" xlink:href="#linear-gradient-75"/><linearGradient id="linear-gradient-85" x1="387.29" y1="234.74" x2="408.88" y2="234.25" xlink:href="#linear-gradient-75"/><linearGradient id="linear-gradient-86" x1="390.46" y1="280.94" x2="415.22" y2="273.13" xlink:href="#linear-gradient-75"/><linearGradient id="linear-gradient-87" x1="375.59" y1="203.84" x2="395.11" y2="200.43" xlink:href="#linear-gradient-75"/><linearGradient id="linear-gradient-88" x1="380.34" y1="219.23" x2="392.78" y2="219.47" xlink:href="#linear-gradient-75"/><linearGradient id="linear-gradient-89" x1="459.04" y1="119.89" x2="472.35" y2="119.89" gradientUnits="userSpaceOnUse"><stop offset="0" stop-color="#aa3f24"/><stop offset="0.47" stop-color="#ffc808"/><stop offset="0.59" stop-color="#ffc808"/><stop offset="1" stop-color="#aa3f24"/></linearGradient><linearGradient id="linear-gradient-90" x1="459.49" y1="104.64" x2="480.61" y2="126.13" xlink:href="#linear-gradient-89"/><linearGradient id="linear-gradient-91" x1="459.94" y1="100.35" x2="471.2" y2="100.35" xlink:href="#linear-gradient-89"/><linearGradient id="linear-gradient-92" x1="459.84" y1="80.63" x2="479.22" y2="102.12" xlink:href="#linear-gradient-89"/><linearGradient id="linear-gradient-93" x1="460.42" y1="71.13" x2="475.56" y2="70.1" xlink:href="#linear-gradient-89"/><linearGradient id="linear-gradient-94" x1="395.21" y1="373.08" x2="413.53" y2="380.35" gradientTransform="matrix(0.89, -0.05, -0.05, 0.98, 281.53, 131.43)" gradientUnits="userSpaceOnUse"><stop offset="0" stop-color="#921943"/><stop offset="0.03" stop-color="#9c1a4a"/><stop offset="0.16" stop-color="#bf1e65"/><stop offset="0.27" stop-color="#d82178"/><stop offset="0.38" stop-color="#e82283"/><stop offset="0.47" stop-color="#ed2387"/><stop offset="0.6" stop-color="#ed2387"/><stop offset="0.68" stop-color="#e82283"/><stop offset="0.77" stop-color="#d82178"/><stop offset="0.87" stop-color="#bf1e65"/><stop offset="0.97" stop-color="#9c1a4b"/><stop offset="1" stop-color="#921943"/></linearGradient><linearGradient id="linear-gradient-95" x1="406.6" y1="355.52" x2="427.8" y2="399.9" xlink:href="#linear-gradient-94"/><linearGradient id="linear-gradient-96" x1="410.03" y1="345.34" x2="427.91" y2="354.5" xlink:href="#linear-gradient-94"/><linearGradient id="linear-gradient-97" x1="423.74" y1="320.25" x2="438.84" y2="373.61" xlink:href="#linear-gradient-94"/><linearGradient id="linear-gradient-98" x1="447.97" y1="312.48" x2="430.45" y2="304.22" xlink:href="#linear-gradient-94"/><linearGradient id="linear-gradient-99" x1="991.24" y1="-1027.94" x2="1008.64" y2="-1028.38" gradientTransform="translate(-846.72 551.72) rotate(28.37)" xlink:href="#linear-gradient-75"/><linearGradient id="linear-gradient-100" x1="1006.18" y1="-1020.65" x2="983.38" y2="-1007.69" gradientTransform="translate(-846.72 551.72) rotate(28.37)" xlink:href="#linear-gradient-75"/><linearGradient id="linear-gradient-101" x1="1005.15" y1="-995.37" x2="982.14" y2="-980.52" gradientTransform="translate(-846.72 551.72) rotate(28.37)" xlink:href="#linear-gradient-75"/><linearGradient id="linear-gradient-102" x1="1006.51" y1="-967.96" x2="981.01" y2="-957.73" gradientTransform="translate(-846.72 551.72) rotate(28.37)" xlink:href="#linear-gradient-75"/><linearGradient id="linear-gradient-103" x1="992.44" y1="-1003.83" x2="1007.7" y2="-1004.7" gradientTransform="translate(-846.72 551.72) rotate(28.37)" xlink:href="#linear-gradient-75"/><linearGradient id="linear-gradient-104" x1="991.6" y1="-976.44" x2="1009.73" y2="-975.99" gradientTransform="translate(-846.72 551.72) rotate(28.37)" xlink:href="#linear-gradient-75"/><linearGradient id="linear-gradient-105" x1="991.16" y1="-948.38" x2="1007.11" y2="-948.38" gradientTransform="translate(-846.72 551.72) rotate(28.37)" xlink:href="#linear-gradient-75"/><linearGradient id="linear-gradient-106" x1="341.69" y1="113.62" x2="370.36" y2="113.62" gradientUnits="userSpaceOnUse"><stop offset="0" stop-color="#d91f26"/><stop offset="0.17" stop-color="#e73038"/><stop offset="0.33" stop-color="#ef3b43"/><stop offset="0.34" stop-color="#ef4047"/><stop offset="0.41" stop-color="#f15c62"/><stop offset="0.47" stop-color="#f36e72"/><stop offset="0.51" stop-color="#f37478"/><stop offset="0.67" stop-color="#ef3b43"/><stop offset="0.77" stop-color="#de3037"/><stop offset="0.9" stop-color="#cc242a"/><stop offset="1" stop-color="#c62026"/></linearGradient><linearGradient id="linear-gradient-107" x1="332.51" y1="80.58" x2="401.56" y2="90.1" xlink:href="#linear-gradient-106"/><linearGradient id="linear-gradient-108" x1="340.33" y1="61.87" x2="389.43" y2="66.47" xlink:href="#linear-gradient-106"/><linearGradient id="linear-gradient-109" x1="339.71" y1="68.47" x2="388.81" y2="73.07" xlink:href="#linear-gradient-106"/><linearGradient id="linear-gradient-110" x1="349.39" y1="46.91" x2="380.08" y2="51.21" xlink:href="#linear-gradient-106"/><linearGradient id="linear-gradient-111" x1="331.56" y1="87.41" x2="400.62" y2="96.93" xlink:href="#linear-gradient-106"/><linearGradient id="linear-gradient-112" x1="343.67" y1="60.98" x2="370.92" y2="60.98" xlink:href="#linear-gradient-106"/><linearGradient id="linear-gradient-113" x1="341.07" y1="82.61" x2="369.26" y2="82.61" xlink:href="#linear-gradient-106"/><linearGradient id="linear-gradient-114" x1="1070.41" y1="-1068.01" x2="1093.87" y2="-1068.01" gradientTransform="translate(-821.35 524.37) rotate(27.13)" gradientUnits="userSpaceOnUse"><stop offset="0" stop-color="#22449c"/><stop offset="0.1" stop-color="#2b5bab"/><stop offset="0.36" stop-color="#3f90cf"/><stop offset="0.48" stop-color="#47a5dd"/><stop offset="0.57" stop-color="#47a5dd"/><stop offset="0.65" stop-color="#439bd6"/><stop offset="0.78" stop-color="#387fc4"/><stop offset="0.95" stop-color="#2752a6"/><stop offset="1" stop-color="#22449c"/></linearGradient><linearGradient id="linear-gradient-115" x1="1057.86" y1="-1018.09" x2="1112.72" y2="-1035.27" xlink:href="#linear-gradient-114"/><linearGradient id="linear-gradient-116" x1="1061.35" y1="-1042.36" x2="1105.85" y2="-1063.08" xlink:href="#linear-gradient-114"/><linearGradient id="linear-gradient-117" x1="1077.94" y1="-1039.7" x2="1092.2" y2="-1039.7" xlink:href="#linear-gradient-114"/><linearGradient id="linear-gradient-118" x1="1067.4" y1="-1010.75" x2="1091.51" y2="-1010.75" xlink:href="#linear-gradient-114"/><linearGradient id="linear-gradient-119" x1="-1032.44" y1="939.8" x2="-1010.15" y2="939.8" gradientTransform="translate(503.4 -1063.24) rotate(-30.66)" xlink:href="#linear-gradient-114"/><linearGradient id="linear-gradient-120" x1="-1041.95" y1="919.79" x2="-987.81" y2="931.98" gradientTransform="translate(503.4 -1063.24) rotate(-30.66)" xlink:href="#linear-gradient-114"/><linearGradient id="linear-gradient-121" x1="-1030.95" y1="907.06" x2="-1012.09" y2="907.06" gradientTransform="translate(503.4 -1063.24) rotate(-30.66)" xlink:href="#linear-gradient-114"/><linearGradient id="linear-gradient-122" x1="-1038.15" y1="882.17" x2="-986.82" y2="889.44" gradientTransform="translate(503.4 -1063.24) rotate(-30.66)" xlink:href="#linear-gradient-114"/><linearGradient id="linear-gradient-123" x1="-1028.79" y1="857.39" x2="-1010.15" y2="857.39" gradientTransform="translate(503.4 -1063.24) rotate(-30.66)" xlink:href="#linear-gradient-114"/><linearGradient id="linear-gradient-124" x1="-367.55" y1="609.87" x2="-329.13" y2="610.68" gradientTransform="translate(365.27 -564.86) rotate(-17.66)" xlink:href="#linear-gradient-89"/><linearGradient id="linear-gradient-125" x1="-370.51" y1="544.33" x2="-329.34" y2="551.14" gradientTransform="translate(365.27 -564.86) rotate(-17.66)" xlink:href="#linear-gradient-89"/><linearGradient id="linear-gradient-126" x1="-367.6" y1="612.01" x2="-329.18" y2="612.82" gradientTransform="translate(365.27 -564.86) rotate(-17.66)" xlink:href="#linear-gradient-89"/><linearGradient id="linear-gradient-127" x1="-363.66" y1="597.02" x2="-343.89" y2="597.02" gradientTransform="translate(365.27 -564.86) rotate(-17.66)" xlink:href="#linear-gradient-89"/><linearGradient id="linear-gradient-128" x1="-368.56" y1="575.4" x2="-326.09" y2="587.72" gradientTransform="translate(365.27 -564.86) rotate(-17.66)" xlink:href="#linear-gradient-89"/><linearGradient id="linear-gradient-129" x1="-363.49" y1="560.76" x2="-346.91" y2="560.76" gradientTransform="translate(365.27 -564.86) rotate(-17.66)" xlink:href="#linear-gradient-89"/><linearGradient id="linear-gradient-130" x1="-354.28" y1="613.65" x2="-344.4" y2="613.65" gradientTransform="translate(365.27 -564.86) rotate(-17.66)" xlink:href="#linear-gradient-89"/><linearGradient id="linear-gradient-131" x1="-1838.07" y1="1154.88" x2="-1796.55" y2="1159.92" gradientTransform="translate(494.37 -1630.1) rotate(-46.45)" xlink:href="#linear-gradient-106"/><linearGradient id="linear-gradient-132" x1="-1839.51" y1="1083.7" x2="-1794.72" y2="1085.78" gradientTransform="translate(494.37 -1630.1) rotate(-46.45)" xlink:href="#linear-gradient-106"/><linearGradient id="linear-gradient-133" x1="-1829.36" y1="1102.61" x2="-1798.32" y2="1106.86" gradientTransform="translate(494.37 -1630.1) rotate(-46.45)" xlink:href="#linear-gradient-106"/><linearGradient id="linear-gradient-134" x1="-1832.48" y1="1129.95" x2="-1793.13" y2="1132.82" gradientTransform="translate(494.37 -1630.1) rotate(-46.45)" xlink:href="#linear-gradient-106"/><linearGradient id="linear-gradient-135" x1="-1837.15" y1="1147.24" x2="-1795.62" y2="1152.28" gradientTransform="translate(494.37 -1630.1) rotate(-46.45)" xlink:href="#linear-gradient-106"/><linearGradient id="linear-gradient-136" x1="-1832.09" y1="1124.6" x2="-1792.74" y2="1127.47" gradientTransform="translate(494.37 -1630.1) rotate(-46.45)" xlink:href="#linear-gradient-106"/><linearGradient id="linear-gradient-137" x1="-1839.29" y1="1078.95" x2="-1794.5" y2="1081.03" gradientTransform="translate(494.37 -1630.1) rotate(-46.45)" xlink:href="#linear-gradient-106"/><linearGradient id="linear-gradient-138" x1="-1828.72" y1="1097.93" x2="-1797.67" y2="1102.18" gradientTransform="translate(494.37 -1630.1) rotate(-46.45)" xlink:href="#linear-gradient-106"/><linearGradient id="linear-gradient-139" x1="-1837.21" y1="1067.12" x2="-1791.53" y2="1071.86" gradientTransform="translate(494.37 -1630.1) rotate(-46.45)" xlink:href="#linear-gradient-106"/><linearGradient id="linear-gradient-140" x1="-1832.42" y1="1174.3" x2="-1811.94" y2="1174.3" gradientTransform="translate(494.37 -1630.1) rotate(-46.45)" xlink:href="#linear-gradient-106"/><linearGradient id="linear-gradient-141" x1="-1839.09" y1="1078.67" x2="-1813.16" y2="1078.67" gradientTransform="translate(494.37 -1630.1) rotate(-46.45)" xlink:href="#linear-gradient-106"/><linearGradient id="linear-gradient-142" x1="-1830.95" y1="1097.47" x2="-1811.95" y2="1097.47" gradientTransform="translate(494.37 -1630.1) rotate(-46.45)" xlink:href="#linear-gradient-106"/><linearGradient id="linear-gradient-143" x1="-1830.69" y1="1099.91" x2="-1830.69" y2="1099.91" gradientTransform="translate(494.37 -1630.1) rotate(-46.45)" xlink:href="#linear-gradient-106"/><linearGradient id="linear-gradient-144" x1="-1833.9" y1="1121" x2="-1809.99" y2="1121" gradientTransform="translate(494.37 -1630.1) rotate(-46.45)" xlink:href="#linear-gradient-106"/><linearGradient id="linear-gradient-145" x1="-1837.9" y1="1146.01" x2="-1807.47" y2="1146.01" gradientTransform="translate(494.37 -1630.1) rotate(-46.45)" xlink:href="#linear-gradient-106"/><linearGradient id="linear-gradient-146" x1="612.69" y1="502.25" x2="687.14" y2="502.25" xlink:href="#linear-gradient-106"/><linearGradient id="linear-gradient-147" x1="687.34" y1="216.95" x2="733.89" y2="216.95" gradientTransform="matrix(1, 0, 0, 1, 0, 0)" xlink:href="#linear-gradient-75"/><linearGradient id="linear-gradient-148" x1="579.13" y1="60.17" x2="625.8" y2="60.17" gradientTransform="matrix(1, 0, 0, 1, 0, 0)" xlink:href="#linear-gradient-114"/><linearGradient id="linear-gradient-149" x1="76.82" y1="479.42" x2="197.88" y2="479.42" xlink:href="#linear-gradient-106"/><linearGradient id="linear-gradient-150" x1="141.89" y1="117.82" x2="188.39" y2="117.82" gradientTransform="matrix(1, 0, 0, 1, 0, 0)" xlink:href="#linear-gradient-75"/><linearGradient id="linear-gradient-151" x1="291.5" y1="65.03" x2="306.47" y2="65.03" gradientTransform="matrix(1, 0, 0, 1, 0, 0)" xlink:href="#linear-gradient-94"/><linearGradient id="linear-gradient-152" x1="545.96" y1="228.25" x2="582.88" y2="228.25" xlink:href="#linear-gradient-106"/><linearGradient id="linear-gradient-153" x1="473.2" y1="7.73" x2="415.93" y2="86.85" xlink:href="#linear-gradient-89"/><radialGradient id="_ÂÁ_Ï_ÌÌ_È_ËÂÌÚ_440" cx="838.89" cy="704.9" r="43.36" gradientTransform="matrix(0.71, 0.71, -0.71, 0.71, 251.43, -679.56)" gradientUnits="userSpaceOnUse"><stop offset="0" stop-color="#384b9d"/><stop offset="1" stop-color="#252159"/></radialGradient><linearGradient id="_ÂÁ_Ï_ÌÌ_È_ËÂÌÚ_12" x1="812.47" y1="704.9" x2="865.3" y2="704.9" gradientTransform="translate(-599.5 -141.43) rotate(-9.7)" gradientUnits="userSpaceOnUse"><stop offset="0" stop-color="#0f1418"/><stop offset="1" stop-color="#0a2f44"/></linearGradient><radialGradient id="_ÂÁ_Ï_ÌÌ_È_ËÂÌÚ_440-2" cx="957.26" cy="704.9" r="43.36" gradientTransform="translate(284.41 -783.21) rotate(45)" xlink:href="#_ÂÁ_Ï_ÌÌ_È_ËÂÌÚ_440"/><linearGradient id="_ÂÁ_Ï_ÌÌ_È_ËÂÌÚ_12-2" x1="930.84" y1="704.9" x2="983.67" y2="704.9" gradientTransform="translate(-158.66 -621.29) rotate(22.11)" xlink:href="#_ÂÁ_Ï_ÌÌ_È_ËÂÌÚ_12"/></defs><path class="cls-1" d="M620.49,318.94c-.12-4.39-.66-7.89-2.58-11a10.36,10.36,0,0,0-6.64,1.68,19.35,19.35,0,0,1,2.44,10.86C616.23,318.79,618,318.19,620.49,318.94Z"/><path class="cls-2" d="M30.09,565.07a15.37,15.37,0,0,0,3.52,9.2c3.46-3.06,6-4.19,9.24-4.65a23.27,23.27,0,0,0-1.93-9.28A30.68,30.68,0,0,1,30.09,565.07Z"/><path class="cls-3" d="M406.61,452.73a9.27,9.27,0,0,1,3.09,4.51,2.51,2.51,0,0,1,2-.49,11.17,11.17,0,0,0-3-5.31A4.68,4.68,0,0,0,406.61,452.73Z"/><path class="cls-4" d="M113.69,191.63c-2.17.55-3.43,2-4.82,4.76A26.76,26.76,0,0,1,117.6,205c1.13-1.95,2.51-2.9,5.58-4.26A32.08,32.08,0,0,0,113.69,191.63Z"/><path class="cls-5" d="M177.34,239c.5,3.83-.34,6.11-2.1,9.31,6.29.36,12.62,0,15.34-1.06a21.26,21.26,0,0,0-1.31-9.07C186.21,239.37,182.9,239.29,177.34,239Z"/><path class="cls-6" d="M659.2,549.9c-4.87,1.1-10.07,2.76-13.88,7.09a36.89,36.89,0,0,1-1.53,11.16c3.31-1.66,5.79-1,10.26,1.79C654.24,563.57,656.32,557.75,659.2,549.9Z"/><path class="cls-7" d="M296.76,296.34c3.59-4.33,6-8.16,6.81-12.8a13.26,13.26,0,0,0-7.83-4,24.81,24.81,0,0,1-6.81,12.55C292.77,292.61,295,293.48,296.76,296.34Z"/><path class="cls-8" d="M223.39,346.67a60.73,60.73,0,0,0,6.17,20.3c5-2.9,7.63-5.61,9.51-8.72-2.86-3.48-3.49-6.93-4-12.37C230.58,348.05,227.75,348,223.39,346.67Z"/><path class="cls-9" d="M113.89,401.7a20,20,0,0,1,7.63,1.65,6.45,6.45,0,0,0,.53-4,26.33,26.33,0,0,0-7.71-2.19C115,399.22,115,400.4,113.89,401.7Z"/><path class="cls-10" d="M613.5,174.92a35.55,35.55,0,0,0,12.31,1,14.09,14.09,0,0,0-2.68-7c-2.5.8-4.5.4-7.55-.49A7.94,7.94,0,0,1,613.5,174.92Z"/><path class="cls-11" d="M465.39,452.42a5.7,5.7,0,0,0-.3,4.82,35.5,35.5,0,0,1,8,2.26,5.16,5.16,0,0,1,.65-2.59A31.56,31.56,0,0,1,465.39,452.42Z"/><path class="cls-12" d="M478.67,131.66a19.28,19.28,0,0,0,3.12,5.94,7.71,7.71,0,0,0,2.44-3.27,6.43,6.43,0,0,1-2-3.61A4.33,4.33,0,0,1,478.67,131.66Z"/><path class="cls-13" d="M338.36,413.79a9.58,9.58,0,0,0-4.94-1.08,4.63,4.63,0,0,0-.6,3,8.72,8.72,0,0,1,4.86,1.1A3.21,3.21,0,0,1,338.36,413.79Z"/><path class="cls-14" d="M234.06,201.49a13.25,13.25,0,0,1-.87-5.11,4.27,4.27,0,0,0-2.63.67,17.49,17.49,0,0,0,.56,5.3C232.25,201.41,233,201.11,234.06,201.49Z"/><path class="cls-15" d="M501.65,443.13a8.9,8.9,0,0,0,5.67.31,9.39,9.39,0,0,1-.27-5.94,13.3,13.3,0,0,0-5.33-1.18A17.78,17.78,0,0,1,501.65,443.13Z"/><path class="cls-16" d="M530.67,150.66A27.83,27.83,0,0,1,519,149c1.4,9.64,1.83,16.16,1,23.52A15.69,15.69,0,0,0,531,175.34C531.89,170,531.81,160.92,530.67,150.66Z"/><path class="cls-17" d="M552.92,63.15c-1.33-2.94-3-4.34-6.49-5.17-2.71,2.06-4.39,3.91-5.12,6.42,2.4,2.73,3.2,5.22,4.17,9.59C547.69,69.48,549.19,66.75,552.92,63.15Z"/><path class="cls-18" d="M669.65,189.77c-1.4-2.43-3.15-4.94-6.11-6.27a20.73,20.73,0,0,1-6.25,1c1.44,1.5,1.51,2.94.75,5.8C661.49,189.39,665,189.53,669.65,189.77Z"/><path class="cls-19" d="M229.83,513.78c1.17-.17,1.84-.82,2.89-1.93-2.49-2.21-4.48-5.31-6.44-9.11a5.14,5.14,0,0,1-3,1.4A27.47,27.47,0,0,0,229.83,513.78Z"/><path class="cls-20" d="M296.16,320.17c-1.92,3.33-3.7,7.13-3.24,11.55a28.2,28.2,0,0,1,5.51,6.69c.79-2.74,2.45-3.8,6.37-4.86C301.3,330.11,299.09,325.9,296.16,320.17Z"/><path class="cls-21" d="M358.07,465.32c1.75-.72,3.79-.72,8.06.94a9.62,9.62,0,0,0-.7-6,17.2,17.2,0,0,0-8.68-.31C357.85,461.63,358,462.89,358.07,465.32Z"/><path class="cls-22" d="M207.6,197.33c.37-3.88,2.34-7.6,9.52-13.78-3.14-2.64-6.59-4.06-11.68-4.57-4.71,5.33-7.07,8.89-9,15.52C200.65,194.17,203.13,195.05,207.6,197.33Z"/><path class="cls-23" d="M133.23,284.93a3.53,3.53,0,0,0-.31,3.51,5.3,5.3,0,0,0,3.47.31,8.07,8.07,0,0,1,2.43-3.72A14,14,0,0,1,133.23,284.93Z"/><path class="cls-24" d="M408,142.79a26.47,26.47,0,0,0-8.58-3.59,10.72,10.72,0,0,0,.28,5.65c2,0,3.32.76,5.3,2.11A6,6,0,0,1,408,142.79Z"/><path class="cls-25" d="M33.26,309.09c1.2-4,1.28-6.53.05-11.07-4.87,1.8-8,1.93-11.57,1.12A26.3,26.3,0,0,0,20,309.65C24.56,308.53,28,308.52,33.26,309.09Z"/><path class="cls-26" d="M67,337.39c1.62,3.77,1.74,6.51-.61,10.82,5.39.15,9-1,15.35-3.54,1.73-3.44,1.5-5.63-.21-9.65C76.08,337.15,72,338.29,67,337.39Z"/><path class="cls-27" d="M171.61,485.62c2-1.76,2.91-3,3.26-5.81a48.68,48.68,0,0,1-8.58-7.59,7.24,7.24,0,0,1-2.36,2.83A43.41,43.41,0,0,1,171.61,485.62Z"/><path class="cls-28" d="M176,291.37c-2,1.69-2.56,3.87-2.6,7.47a31.41,31.41,0,0,1,13.58,4.5c.17-2.63,1.13-4.34,3.65-7.35A37.48,37.48,0,0,0,176,291.37Z"/><path class="cls-29" d="M611,281.25c2.82-3.64,3.92-6.26,4.45-11.45-5.75-.07-9.08-1.2-12.42-3.44a29,29,0,0,0-6,10.18C602.21,277.2,605.76,278.56,611,281.25Z"/><path class="cls-30" d="M130.35,510.53a9.18,9.18,0,0,1-.23,7.67c8.2,1,13.54.58,21.35-.48a17.66,17.66,0,0,0,.44-9.43C144,511.27,138.57,511.3,130.35,510.53Z"/><path class="cls-31" d="M245.66,253a37.86,37.86,0,0,1-4.49-14.14,12.15,12.15,0,0,0-7.16,2.93c.14,3.93,1.39,8.65,3.65,14.79C240.49,253.46,242.43,252.32,245.66,253Z"/><path class="cls-32" d="M595.72,382.39c2.54.46,4.24,0,6.36-1.93-.13-2.72-.59-4.66-1.91-6.29-2.89.34-4.89-.26-8.2-1.61C593.93,376.06,595,378.29,595.72,382.39Z"/><path class="cls-33" d="M430.87,342.59c.67-1.39.46-2.7-.37-4.66a18.53,18.53,0,0,1-8.41.81c.54,1.46.43,2.61-.22,4.83A22.2,22.2,0,0,0,430.87,342.59Z"/><path class="cls-34" d="M767.38,484.32a35.06,35.06,0,0,0,1.16,12.19,14.1,14.1,0,0,0,6.38-3.83c-1.21-2.3-1.17-4.33-.83-7.46A7.92,7.92,0,0,1,767.38,484.32Z"/><path class="cls-35" d="M131.44,441.2a12.89,12.89,0,0,0-4.66,6.87c3.78.91,5.8,2.15,7.67,4.14a19.59,19.59,0,0,0,5.48-5.81A25.68,25.68,0,0,1,131.44,441.2Z"/><path class="cls-36" d="M260.79,182.86a12.21,12.21,0,0,1,2,4.8,38.16,38.16,0,0,1,8.65-5.66,6.9,6.9,0,0,0-1.42-4.81A45,45,0,0,0,260.79,182.86Z"/><path class="cls-37" d="M630.81,236.69c1.86-3.86,5.32-7,15.09-10.63-2.24-3.92-5.27-6.7-10.34-9.17-6.89,3.73-10.69,6.51-15.19,12.64C624.84,230.78,627.06,232.63,630.81,236.69Z"/><path class="cls-38" d="M127,140.17c1.92-2,2.74-3.28,2.87-6.24a49.59,49.59,0,0,1-9.43-7.08,7.37,7.37,0,0,1-2.19,3.1A44.58,44.58,0,0,1,127,140.17Z"/><path class="cls-39" d="M443.34,216.09a10,10,0,0,1-8.2,1.43c.74,8.93,2.34,14.52,5.17,22.59,5.2.36,8.11-.66,10.12-1.59C445.54,230.77,444.31,225,443.34,216.09Z"/><path class="cls-40" d="M692.34,355.41a21.18,21.18,0,0,1-3.13,8.37c7.32.53,12.2,1.27,17.49,3.07a11.85,11.85,0,0,0,3.87-7.7C706.78,357.65,700.08,356.24,692.34,355.41Z"/><path class="cls-41" d="M611.08,394.12c-2.06-1.86-2.66-3.51-3.18-6.08-3.61,2.73-6.92,5.87-7.92,7.72a15.52,15.52,0,0,0,4.94,4.36C606,398,607.87,396.52,611.08,394.12Z"/><path class="cls-42" d="M212.53,588.39a8.12,8.12,0,0,1-4.23-5.3,65.55,65.55,0,0,0-14.12,12.54,15.5,15.5,0,0,0,5.1,6.61C202.9,595.71,206.54,592.58,212.53,588.39Z"/><path class="cls-43" d="M57.44,409c2.52-4.62,2.64-8.24.34-13.55-5.35-1.5-9.41-1.85-13.4-.34-1.2,5.81-3.65,9.31-8.39,14.86C44,408.43,49.07,407.7,57.44,409Z"/><path class="cls-44" d="M420.31,481.39a7.83,7.83,0,0,0-4.73,1.46,11.74,11.74,0,0,1-1.09,3.4c1.13-.34,1.87,0,3.11,1.12A20.11,20.11,0,0,1,420.31,481.39Z"/><path class="cls-45" d="M695.29,143.12c-4,2.19-7,2.62-12.06.47.39,6,2.06,9.84,5.55,16.65,4,1.55,6.4,1.06,10.67-1.26C696.51,153.12,694.82,148.71,695.29,143.12Z"/><path class="cls-46" d="M436.29,460.39a24.25,24.25,0,0,1,3.71-8.8,7.87,7.87,0,0,0-4.74-1.56,32.27,32.27,0,0,0-4.39,8.78C433.55,458.46,435,458.72,436.29,460.39Z"/><path class="cls-47" d="M376.48,492.05c.5,1.17,1.43,1.75,3.1,2.29a15.3,15.3,0,0,1,4.07-5.67c-1.2-.46-1.86-1.16-2.9-2.77A18.46,18.46,0,0,0,376.48,492.05Z"/><path class="cls-48" d="M152.85,185.13c2.59-1.94,3.59-3.94,3.65-7.5-2.61-2.2-4.8-3.44-7.42-3.61-2.15,2.95-4.41,4.28-8.48,6.19C145.5,181.38,148.5,182.26,152.85,185.13Z"/><path class="cls-49" d="M699,522.39c3.43,4.35,6.62,7.48,10.92,9.18a13,13,0,0,0,5.44-6.72,24.39,24.39,0,0,1-10.67-9.13C703.45,519.32,702.16,521.24,699,522.39Z"/><path class="cls-50" d="M157.18,579.55c3.29-4.06,6.33-5.36,11.11-6.61-5.5-6.52-11.76-12.42-15.33-14.12-3.23,2.53-5.34,5.4-7.71,9.74C149.32,570.42,152.33,573.76,157.18,579.55Z"/><path class="cls-51" d="M469.78,150.59a9,9,0,0,1-5.25-.44,2.46,2.46,0,0,1-.84,1.78,10.75,10.75,0,0,0,5.79,1A4.42,4.42,0,0,0,469.78,150.59Z"/><path class="cls-52" d="M381.74,505a24.37,24.37,0,0,1,8.44,4.44,7.84,7.84,0,0,0,1.95-4.58,32.41,32.41,0,0,0-8.36-5.11C383.89,502.47,383.51,503.86,381.74,505Z"/><path class="cls-53" d="M237.49,136.49c7.11.67,12.88.48,18.29-2,.71-4.7.22-7.76-1.43-11.06-6.79,2.49-11,2.9-18,1.84C238.55,129.64,239.19,132.55,237.49,136.49Z"/><path class="cls-54" d="M360.76,113.21c2.76.06,4.17.26,6.19,1.44a2.92,2.92,0,0,1,1.31-2,13,13,0,0,0-6.73-2.21A5.46,5.46,0,0,0,360.76,113.21Z"/><path class="cls-55" d="M732.05,386.3a38.85,38.85,0,0,0-13.43,1.81,15.54,15.54,0,0,0,4.52,6.89c2.49-1.45,4.73-1.49,8.21-1.25A8.7,8.7,0,0,1,732.05,386.3Z"/><path class="cls-56" d="M130.19,327.59c1.84.27,3.27-.43,5.22-2.09a22.27,22.27,0,0,1-3.92-9.37c-1.49,1.13-2.85,1.41-5.63,1.47A26.62,26.62,0,0,0,130.19,327.59Z"/><path class="cls-57" d="M288.51,238.57c1.9-5.1,4.46-7.39,8.77-10.21-7.6-4.6-15.74-8.34-19.83-8.82-2.34,3.57-3.46,7.09-4.36,12.17C277.74,232.19,281.8,234.48,288.51,238.57Z"/><path class="cls-58" d="M664,311.63c2.48,3.52,3.2,6.32,1.71,11.24,5.58-1,9-3,15-6.95,1-3.91.31-6.1-2.31-9.85C673.22,309.43,669.28,311.49,664,311.63Z"/><path class="cls-59" d="M755.62,262.63a29.24,29.24,0,0,1-12.23-2c1.26,10.11,1.57,16.94.55,24.63,4.41,3,7.37,3.36,11.52,3.19C756.48,282.88,756.59,273.39,755.62,262.63Z"/><path class="cls-60" d="M84.39,523.65a4.12,4.12,0,0,0-3.73-1.79,6.21,6.21,0,0,0-1.77,3.69,9.47,9.47,0,0,1,3.09,4.2A16.45,16.45,0,0,1,84.39,523.65Z"/><path class="cls-61" d="M337.89,383a8.34,8.34,0,0,0-1,5.19,12.1,12.1,0,0,1,2.66,2.73c.25-1.23.94-1.75,2.62-2.36A21.69,21.69,0,0,1,337.89,383Z"/><path class="cls-62" d="M715.4,425.11A27.13,27.13,0,0,1,704,427c4.14,8.55,6.46,14.48,7.86,21.57A15.29,15.29,0,0,0,723,448C722.23,442.73,719.48,434.31,715.4,425.11Z"/><path class="cls-63" d="M160,358.17c2.48-.72,5.1-1.72,6.93-4.07a19,19,0,0,1,.45-5.79c-1.65,1-3,.7-5.33-.61C162.09,351,161.2,354,160,358.17Z"/><path class="cls-64" d="M54.89,487c2.15-.38,3.34-1.61,5.22-3.69-4.7-3.93-8.51-9.51-12.33-16.37a9.29,9.29,0,0,1-5.4,2.72C46,477.16,48.65,481,54.89,487Z"/><path class="cls-65" d="M109.38,566.73c-4.49-3.91-8.45-4.94-14.86-3.7-3,5.54-4.36,9.93-3.67,14.71,6.12,2.75,9.37,6.31,14.35,12.9C105.44,581.37,105.87,575.64,109.38,566.73Z"/><path class="cls-66" d="M241.78,314.72c1.1,3.09,3.39,4.73,7.61,6.38a39.21,39.21,0,0,1,11.3-13.93c-3-1.37-4.58-3.25-7-7.54C248.37,304.05,245.19,308.45,241.78,314.72Z"/><path class="cls-67" d="M96.34,186.66c2.77-.57,5.77,0,11.59,3.66a14.47,14.47,0,0,0,.68-9.08c-4.71-2.12-7.68-3-12.69-2.91C97.05,181.17,97,183.07,96.34,186.66Z"/><path class="cls-68" d="M336.78,509.23a4.26,4.26,0,0,1-1.66-3.15,34.34,34.34,0,0,0-8.52,5.06,8.21,8.21,0,0,0,2,3.91C331.09,512,333.28,510.79,336.78,509.23Z"/><path class="cls-69" d="M670.29,216.83c-2.36-2.06-4.47-3.47-7-4a7.32,7.32,0,0,0-2.32,4.31,13.9,13.9,0,0,1,6.9,4C668.16,219,668.68,217.8,670.29,216.83Z"/><path class="cls-70" d="M401.36,176.09c-1.85,3-3.75,4.08-6.83,5.3,4.19,3.88,8.83,7.28,11.35,8.11a19.36,19.36,0,0,0,4.31-7.1C407.33,181.5,405.06,179.54,401.36,176.09Z"/><path class="cls-71" d="M312.12,150.75a30.9,30.9,0,0,1,1.46-12.06,9.86,9.86,0,0,0-6.33-.26c-1.23,3-1.91,6.92-2.31,12.28C308.1,149.35,309.93,149.17,312.12,150.75Z"/><path class="cls-72" d="M540.65,360.82a6.22,6.22,0,0,0,3.89-1,6.75,6.75,0,0,1-1.45-4,9.44,9.44,0,0,0-3.85.34A12.76,12.76,0,0,1,540.65,360.82Z"/><path class="cls-73" d="M305.5,444.43a7.06,7.06,0,0,0,2.71-3.69,7.65,7.65,0,0,1-4.14-2.44,10.76,10.76,0,0,0-3.15,3.09A14.24,14.24,0,0,1,305.5,444.43Z"/><path class="cls-74" d="M359.21,306.43a18.94,18.94,0,0,1,7.23-3.66c-4.56-4.85-7.36-8.34-9.78-12.79a10.78,10.78,0,0,0-7.32,2.75C351,296.07,354.55,301.12,359.21,306.43Z"/><path class="cls-75" d="M389.92,260.9a10,10,0,0,1-8.09.71h0a11.45,11.45,0,0,0-3.89,3.05c5.86,4.76,14,2.54,13.89-1.39C391.79,261.59,389.92,260.9,389.92,260.9Z"/><path class="cls-76" d="M368.64,225.55a9,9,0,0,0-1.64,4.19,6.6,6.6,0,0,1-2.62-4.84,8.43,8.43,0,0,1,0-.88v-.28a6.35,6.35,0,0,1,.38-1.85A7,7,0,0,0,368.64,225.55Z"/><path class="cls-77" d="M376.83,241.82a17.68,17.68,0,0,0-2.81,4.43c-3.68-1.33-6.51-3.86-6.88-8,0-.29,0-.58-.05-.86a13.57,13.57,0,0,1,.15-2.7C368.4,238.82,372.35,241,376.83,241.82Z"/><path class="cls-78" d="M377.74,259.43a10.72,10.72,0,0,0-1.78,3.23,15.06,15.06,0,0,1-2-3.35,8.37,8.37,0,0,1-.71-3v-.28a9.39,9.39,0,0,1,.29-2.57,4.79,4.79,0,0,0,.23.59A14.09,14.09,0,0,0,377.74,259.43Z"/><path class="cls-79" d="M378.85,229.72c-1.63,1.86-6.38,2.57-10,1.06,3.29-4.43,10.05-3.77,10.34-1.93A1.09,1.09,0,0,1,378.85,229.72Z"/><path class="cls-80" d="M380,200.76v.12c0,.9-1.15,2-2.78,3.38a52.59,52.59,0,0,1-16-8.08L361,191s7.8,6.06,16.83,8.3C379.31,199.61,380,200.12,380,200.76Z"/><path class="cls-81" d="M389.94,294.72l-1.39,4.16,1.59,1.08c.14,3.73-12.1,5.25-12.16-2.9v-.25a5,5,0,0,1,.51-2C381.12,299.5,388.73,297.39,389.94,294.72Z"/><path class="cls-82" d="M393.4,242.05c.16,3.83-8.85,6.36-16.37,5a25.49,25.49,0,0,1,5.56-4.9c3.66-.21,7-1.16,9-2.57a2.71,2.71,0,0,1,1.67,1.64A2.53,2.53,0,0,1,393.4,242.05Z"/><path class="cls-83" d="M400.12,277.67c-.43.79-3.71,1.84-7.63,3.26-7.17-1.05-16.69-3-16.94-9.41a6.91,6.91,0,0,1,.05-1.1,11.69,11.69,0,0,1,.33-1.76c3.61,7.54,22.89,6.88,24.17,8.65A.3.3,0,0,1,400.12,277.67Z"/><path class="cls-84" d="M391.63,258l.2,5.23a2.73,2.73,0,0,0-1.91-2.37c-2-.84-5.2-.69-8.09.71h0a11.45,11.45,0,0,0-3.89,3.05,10.69,10.69,0,0,0-2,4,11.69,11.69,0,0,0-.33,1.76,6.91,6.91,0,0,0-.05,1.1l-.2-5.21a7.16,7.16,0,0,1,0-1.12,12.17,12.17,0,0,1,.56-2.53,10.72,10.72,0,0,1,1.78-3.23C382.26,253.85,391.48,254.11,391.63,258Z"/><path class="cls-85" d="M393.2,236.82l.2,5.23a2.53,2.53,0,0,0-.18-.83,2.71,2.71,0,0,0-1.67-1.64c-2.1-.75-5.59.37-9,2.57a25.49,25.49,0,0,0-5.56,4.9,16.13,16.13,0,0,0-3.49,6.44,9.39,9.39,0,0,0-.29,2.57l-.19-4.94a10.64,10.64,0,0,1,1-4.87,17.68,17.68,0,0,1,2.81-4.43c5.3-6.3,14.5-10.23,16.19-5.83A2.53,2.53,0,0,1,393.2,236.82Z"/><path class="cls-86" d="M400.12,277.67l.2,5.23c-1.06,1.92-18.58,5.28-21.83,11.88a5,5,0,0,0-.51,2v.25l-.19-4.78c0-.23,0-.46,0-.7.11-4.95,8.28-8.31,14.71-10.65C396.41,279.51,399.69,278.46,400.12,277.67Z"/><path class="cls-87" d="M380,200.88l.18,5v.38c-.43,3.13-13.1,9.05-15.46,15.66a6.35,6.35,0,0,0-.38,1.85V224l-.2-5.22v-.29c.21-5.45,8.59-10.57,13.07-14.25C378.85,202.92,380,201.78,380,200.88Z"/><path class="cls-88" d="M379,223.62l.2,5.23c-.29-1.84-7.05-2.5-10.34,1.93a8.88,8.88,0,0,0-1.6,3.91,13.57,13.57,0,0,0-.15,2.7l-.17-4.67h0l0-.58v-.3a12.77,12.77,0,0,1,.12-2.1,9,9,0,0,1,1.64-4.19C371.93,221.12,378.7,221.78,379,223.62Z"/><path class="cls-89" d="M472.35,114.29v5.26c0,2.08-12.77.71-13.29,6v-4.57c-.36-3.84,5.07-4.61,9.1-5.21C470.49,115.37,472.35,115.08,472.35,114.29Z"/><path class="cls-90" d="M472.35,114.29c0,.79-1.86,1.08-4.19,1.43-3.57-2.49-8.14-5.52-8.23-7.93a2.17,2.17,0,0,1,0-.26,3.15,3.15,0,0,1,1.62-2.18C464.92,108.82,472.35,112.6,472.35,114.29Z"/><path class="cls-91" d="M471.2,93.17v5.27c0,3.51-6.52,4.79-9.64,6.91a3.15,3.15,0,0,0-1.62,2.18v-5.25c.25-3,7.26-4.11,10.09-6.75A3.18,3.18,0,0,0,471.2,93.17Z"/><path class="cls-92" d="M471.2,93.17A3.18,3.18,0,0,1,470,95.53c-2.39-3-7.7-5.78-8.66-12.53a16.09,16.09,0,0,1-.15-2.15,13.76,13.76,0,0,1,.25-2.54C463,86.58,471.2,88.63,471.2,93.17Z"/><path class="cls-93" d="M472.35,60.55v5.27s-9.25,4-10.88,12.49a13.76,13.76,0,0,0-.25,2.54V75.57C461.27,65.32,472.35,60.55,472.35,60.55Z"/><path class="cls-94" d="M636.24,475.27l-3.47,7.43c-1.37,2.94-16.13-6.32-20.22.78l3-6.45c2.08-5.63,9.26-3.61,14.6-2.14C633.25,475.73,635.72,476.39,636.24,475.27Z"/><path class="cls-95" d="M636.24,475.27c-.52,1.12-3,.46-6.08-.38-2.74-5.56-6.36-12.46-4.88-15.92l.18-.35a5,5,0,0,1,3.42-2.15C630.73,463.29,637.35,472.89,636.24,475.27Z"/><path class="cls-96" d="M648.74,444.8l-3.47,7.44c-2.32,5-11.16,3-16.39,4.23a5,5,0,0,0-3.42,2.15l3.46-7.42c2.29-4.08,11.62-1.64,16.83-3.73A5.31,5.31,0,0,0,648.74,444.8Z"/><path class="cls-97" d="M648.74,444.8a5.31,5.31,0,0,1-3,2.67c-.94-5.65-5.64-12.58-2.36-22.65a26.83,26.83,0,0,1,1.23-3.13,23.78,23.78,0,0,1,2-3.44C643,430.8,651.73,438.39,648.74,444.8Z"/><path class="cls-98" d="M671.65,399.42l-3.47,7.43s-14,.33-21.58,11.4a23.78,23.78,0,0,0-2,3.44l3.48-7.44C654.91,399.81,671.65,399.42,671.65,399.42Z"/><path class="cls-99" d="M525.44,127.45l-3.31,6.13a11,11,0,0,0,.76-4.46c0-4-1.32-8.52-2.61-10l3.73-6.91C526,114.45,528,123.6,525.44,127.45Z"/><path class="cls-100" d="M517.23,135.93c-3.15-.66-6.4-1.35-8.88-1.15a7.62,7.62,0,0,1-.54-2.84,4.83,4.83,0,0,1,.49-2l.06-.1c1.74-3.11,7.32-1.92,12.6-.8a5.39,5.39,0,0,0,1.93.09,11,11,0,0,1-.76,4.46C521.32,135.41,519.79,136.47,517.23,135.93Z"/><path class="cls-101" d="M510.31,155.58l0,.06a2.07,2.07,0,0,1-1.73.9c-4.28.46-10.73.35-14.84,2.13-.06-.29-.11-.58-.14-.86a5.82,5.82,0,0,1,.41-3c1.85-4.1,9-4.52,14.79-4.9C510,152.31,510.91,154.41,510.31,155.58Z"/><path class="cls-102" d="M498.78,180.69h0a1.89,1.89,0,0,1-1.12.54c-4.33.88-11-1.54-15.15-.94a20.4,20.4,0,0,1-.05-2.59,5.61,5.61,0,0,1,.47-2.15,2.42,2.42,0,0,1,.21-.39h0c1.82-2.93,7-1.72,11.87-1,2.25,2.74,4.31,5,3.95,6.21A.77.77,0,0,1,498.78,180.69Z"/><path class="cls-103" d="M514,148.76l-3.69,6.82c.6-1.17-.28-3.27-1.54-5.67-1.95-3.71-4.83-8.15-4.69-11.07a4.82,4.82,0,0,1,.49-2l3.73-6.91a4.83,4.83,0,0,0-.49,2,7.62,7.62,0,0,0,.54,2.84C510.09,139.75,515.4,146.36,514,148.76Z"/><path class="cls-104" d="M502.63,173.62l0,0L499,180.36c.36-1.22-1.7-3.47-3.95-6.21s-4.83-6.14-5.17-9.44a5.58,5.58,0,0,1,.56-3.3l3.58-6.6a5.82,5.82,0,0,0-.41,3c0,.28.08.57.14.86C495.07,165.06,503.79,171.39,502.63,173.62Z"/><path class="cls-105" d="M487,201.6l-3.73,6.91c1.95-4.22-4.94-14.38-4.52-23.91a5.28,5.28,0,0,1,.68-2.54l3.52-6.51a5.61,5.61,0,0,0-.47,2.15,20.4,20.4,0,0,0,.05,2.59C483.21,189,488.76,197.77,487,201.6Z"/><path class="cls-106" d="M370.36,102.48c-1.06,10.65-24.66,17.25-28.67,28.22v-6.28c3.7-10.13,24.12-16.53,28.05-25.84a8.43,8.43,0,0,0,.58-2l0,4.36Z"/><path class="cls-107" d="M361.18,82.8a30,30,0,0,1-16,2.67c-2.78-.32-4-1-4.14-1.8C340.71,81.15,352,77.67,361.18,82.8Z"/><path class="cls-108" d="M359.05,62.53a26.7,26.7,0,0,1-12.73,1.64c-1.86-.28-2.65-.71-2.65-1.16h0C343.68,61.59,351.66,60,359.05,62.53Z"/><path class="cls-109" d="M369.26,73v.35a6.77,6.77,0,0,1-.21,1.48,7.86,7.86,0,0,1-.52,1.45,11,11,0,0,0-1.81-2.6,18.17,18.17,0,0,0-7.67-4.82,28.82,28.82,0,0,0,6-3,15.39,15.39,0,0,1,1.67,1.57,9.62,9.62,0,0,1,2.2,3.59h0A6.84,6.84,0,0,1,369.26,73Z"/><path class="cls-110" d="M370.92,51.27v0a6.58,6.58,0,0,1-.93,3.24,11.9,11.9,0,0,0-4.68-3.87V44.39C369.27,46.45,370.91,48.85,370.92,51.27Z"/><path class="cls-111" d="M370.32,96.54a8.43,8.43,0,0,1-.58,2,8.27,8.27,0,0,0-.4-.86,20.13,20.13,0,0,0-8.16-8.64,20.23,20.23,0,0,0,4.44-2.88,21.55,21.55,0,0,1,3.72,5.23,9.28,9.28,0,0,1,1,2.86h0A7.72,7.72,0,0,1,370.32,96.54Z"/><path class="cls-112" d="M370.92,51.3v6.28c0,2.92-2.36,5.86-5.87,8.2a28.82,28.82,0,0,1-6,3,26.7,26.7,0,0,1-12.73,1.64c-1.87-.28-2.66-.72-2.65-1.17V63c0,.45.79.88,2.65,1.16a26.7,26.7,0,0,0,12.73-1.64c4.91-1.82,9.15-4.77,10.94-8A6.58,6.58,0,0,0,370.92,51.3Z"/><path class="cls-113" d="M369.26,73.3v6.36c-.1,2.38-1.46,4.63-3.64,6.54a20.23,20.23,0,0,1-4.44,2.88,29.94,29.94,0,0,1-16,2.67c-2.78-.32-4-1-4.14-1.8V83.67c.11.79,1.36,1.48,4.14,1.8a30,30,0,0,0,16-2.67c3.45-1.68,6.12-4,7.35-6.57a7.86,7.86,0,0,0,.52-1.45A6.77,6.77,0,0,0,369.26,73.3Z"/><path class="cls-114" d="M635.24,80.72a7.76,7.76,0,0,0,.77-3.23c.2-6.33-5.84-15.07-16.85-16.86L622,55.09c12.79,2.07,18.88,13.54,16.25,19.7l-.41.8Z"/><path class="cls-115" d="M620.94,105c-2.12,4.6-20.91-1.36-28.27,2.84a5.72,5.72,0,0,1,.5-3.11l.12-.24c3.58-6.55,19.69-2.42,27-3.31a3.89,3.89,0,0,1,.74,3.53h0C621,104.84,621,104.93,620.94,105Z"/><path class="cls-116" d="M635.24,80.72a6.2,6.2,0,0,1-.72,1.11c-3.81,4.66-13.67,1.47-18.79,4.24a4.6,4.6,0,0,1,.37-2.94l0,0s0-.11.08-.16C619.33,76.8,630.62,81,636,77.49A7.76,7.76,0,0,1,635.24,80.72Z"/><path class="cls-117" d="M623.89,99.2l-2.84,5.54a3.89,3.89,0,0,0-.74-3.53c-2.54-3.79-9.35-7.6-7-12.54l2.84-5.54a4.6,4.6,0,0,0-.37,2.94C616.73,91.05,625.39,94.93,623.89,99.2Z"/><path class="cls-118" d="M612.14,120.61l-2.73,5.33c-1.46,2.85-6.81,1.54-10.94-1.24-5.42-3.65-10.32-9.85-8.14-14.4l2.84-5.54a5.72,5.72,0,0,0-.5,3.11c.43,4,4.35,8.41,8.61,11.27A18.4,18.4,0,0,0,607.6,122c2.07.42,3.75.06,4.53-1.41Z"/><path class="cls-119" d="M109,252.27l4.5,7.59c1.78,3-17.8,11.92-14.07,19.92l-3.9-6.58c-3.81-5.22,3.36-11,8.66-15.29C107.23,255.42,109.66,253.42,109,252.27Z"/><path class="cls-120" d="M109,252.27c.68,1.15-1.75,3.15-4.81,5.64-7.28-.53-16.46-1-18.64-4.39a2.82,2.82,0,0,1-.21-.38c-.62-1.29-.31-2.83.47-4.51C93.6,250.74,107.54,249.84,109,252.27Z"/><path class="cls-121" d="M89.28,222.84l4.5,7.59c3,5.06-5.31,12.47-8,18.2-.78,1.68-1.09,3.22-.47,4.51l-4.49-7.56c-2.19-4.54,7-12.13,8.78-18.34A5.36,5.36,0,0,0,89.28,222.84Z"/><path class="cls-122" d="M89.28,222.84a5.36,5.36,0,0,1,.33,4.4c-6-2.33-16-1.76-23.18-10.66a27,27,0,0,1-2.06-3,22.84,22.84,0,0,1-1.81-3.87C71.82,220.36,85.39,216.29,89.28,222.84Z"/><path class="cls-123" d="M63.07,174.84l4.5,7.59s-9.93,13.65-5,27.3a22.84,22.84,0,0,0,1.81,3.87l-4.5-7.6C51.18,191.19,63.07,174.84,63.07,174.84Z"/><path class="cls-124" d="M213.62,122.41a12.14,12.14,0,0,0,.4,5.64c-4.48,1-9.32.75-10.67-2.63-.07-.18-.12-.35-.17-.52h0a4,4,0,0,1,.39-2.6C206,123.73,210.06,123.46,213.62,122.41Z"/><path class="cls-125" d="M200.87,62.46a5.56,5.56,0,0,1-1,3.48c-5.27-.86-16.43,2.58-16.43,2.58l-1.69-5.3s17.12-5.28,19-1.12A1.5,1.5,0,0,1,200.87,62.46Z"/><path class="cls-126" d="M222.49,123.2c-.59,1.54-3.2,3.18-6.33,4.24.77-5.14,5.38-6.73,6.31-5.43A1.25,1.25,0,0,1,222.49,123.2Z"/><path class="cls-127" d="M215.29,97.79l1.43,4.58h0l.35,1.1h0c1.55,7.34-10.91,13.33-13.5,18.81a4,4,0,0,0-.39,2.6l-1.44-4.59h0c0-.06-.05-.13-.08-.19-2.31-5.75,12.43-11.93,13.76-19.57a6.22,6.22,0,0,0-.1-2.64Z"/><path class="cls-128" d="M215.2,97.51l.09.28,0,.11a6.22,6.22,0,0,1,.1,2.64c-5.14-4.7-19.61-.33-22.42-8.19a3.38,3.38,0,0,1-.11-.34v0a8.54,8.54,0,0,1-.34-2.85C197.66,94.81,212.71,90,215.2,97.51Z"/><path class="cls-129" d="M200.87,62.46l1.69,5.31c.82,3.92-9.65,13.22-10,21.36a8.54,8.54,0,0,0,.34,2.85l-1.7-5.32c-2.06-6.91,5.85-15.34,8.73-20.72A5.56,5.56,0,0,0,200.87,62.46Z"/><path class="cls-130" d="M220.83,116.88l1.64,5.13c-.93-1.3-5.54.29-6.31,5.43a14.71,14.71,0,0,0,1.45,8l-2.7-5a21.47,21.47,0,0,1-.89-2.43,12.14,12.14,0,0,1-.4-5.64C214.67,117,220.05,115.34,220.83,116.88Z"/><path class="cls-131" d="M88.24,483.77c.29.29.56.59.82.89v0c.26.31.5.62.73.94A16.59,16.59,0,0,0,88,484.25a13.74,13.74,0,0,0-11.43-2,24.92,24.92,0,0,0,1.14-3.12,13.61,13.61,0,0,1,7.86,2.49A17.07,17.07,0,0,1,88.24,483.77Z"/><path class="cls-132" d="M35.8,434h0a8.43,8.43,0,0,1,.55.78,12.57,12.57,0,0,0-2.11-1.37c-3.43-1.78-7.07-1.15-10.36.65a29.73,29.73,0,0,0,.87-4,9.59,9.59,0,0,1,7.06.69,12.86,12.86,0,0,1,2.66,1.83h0A11,11,0,0,1,35.8,434Z"/><path class="cls-133" d="M50.81,445.26a14.38,14.38,0,0,1,1.4,1.51h0c.19.23.36.47.54.72a12.32,12.32,0,0,0-7.16-2.89,14.7,14.7,0,0,0-5,.45,14.54,14.54,0,0,0-.17-3.09,15.1,15.1,0,0,1,2.7,0A12.24,12.24,0,0,1,50.81,445.26Z"/><path class="cls-134" d="M72.84,463c.24.24.46.49.68.74h0a10.05,10.05,0,0,1,.79,1.06A14.35,14.35,0,0,0,71.55,463c-5.13-2.57-9.79-1.23-13.49,1.47a21.49,21.49,0,0,0,.28-4.29,11.86,11.86,0,0,1,10.77.14A14.54,14.54,0,0,1,72.84,463Z"/><path class="cls-135" d="M74.17,479.54a31.1,31.1,0,0,1-2.56,4.72,22.66,22.66,0,0,0-8.51,8.43,5,5,0,0,1-1.35.43,1.62,1.62,0,0,1-1.31-.2h0l0,0C58.52,491.1,65.37,481.71,74.17,479.54Z"/><path class="cls-136" d="M55.62,461.82a22.09,22.09,0,0,1-4.93,10.67c-1.87,2.22-3,2.85-3.37,2.47l0,0C46.3,473.84,49.75,466.11,55.62,461.82Z"/><path class="cls-137" d="M21.45,431.44a48.63,48.63,0,0,1-2.3,6.2c-3.17,3-5.54,6.77-6.31,9.38a2.06,2.06,0,0,1-1.82.43,1.05,1.05,0,0,1-.4-.23h0l-.06-.06-.07-.08C8.73,444.84,14.27,435.36,21.45,431.44Z"/><path class="cls-138" d="M38.2,442.38a18.56,18.56,0,0,1-.67,4A11.68,11.68,0,0,0,32,454.59a3.08,3.08,0,0,1-.47.19,1.34,1.34,0,0,1-1.33-.16h0C28.29,453,30.47,444.53,38.2,442.38Z"/><path class="cls-139" d="M21.74,422.35h0a3.81,3.81,0,0,1,.59,1.55c-5.75-1.12-17.64,10.33-19.9,14.63L0,435.87c2.43-4.64,16.07-17.58,21.13-14.14l.12.1h0A2.65,2.65,0,0,1,21.74,422.35Z"/><path class="cls-140" d="M89.07,484.68,91,486.76l.21.23c9.38,10.47-.22,27.75-.22,27.75l-2.43-2.67s8.84-15.91,1.26-26.45C89.57,485.3,89.33,485,89.07,484.68Z"/><path class="cls-141" d="M21.74,422.36l2.08,2.25c1,1,1.26,3,.93,5.49a29.73,29.73,0,0,1-.87,4c-2.23,7.77-7.58,17-10.43,16-.42-.15,0,.12-2.83-2.91a1.05,1.05,0,0,0,.4.23,2.06,2.06,0,0,0,1.82-.43c2-1.34,4.39-5.12,6.31-9.38a48.63,48.63,0,0,0,2.3-6.2,18,18,0,0,0,.88-7.53A3.81,3.81,0,0,0,21.74,422.36Z"/><path class="cls-142" d="M35.8,434.05l1.6,1.72.31.33A11.31,11.31,0,0,1,40.46,442a14.54,14.54,0,0,1,.17,3.09c-.28,5.79-3.64,11.42-6.63,12.41a1.28,1.28,0,0,1-1.59-.46h0l-2.17-2.38a1.34,1.34,0,0,0,1.33.16,3.08,3.08,0,0,0,.47-.19c2.15-1,4.39-4.3,5.49-8.19a18.56,18.56,0,0,0,.67-4,12.75,12.75,0,0,0-1.85-7.55A8.43,8.43,0,0,0,35.8,434.05Z"/><line class="cls-143" x1="30.24" y1="454.62" x2="30.24" y2="454.61"/><path class="cls-144" d="M53.55,448.23h0l.78.85a18.11,18.11,0,0,1,4,11.12,21.49,21.49,0,0,1-.28,4.29,22.2,22.2,0,0,1-4.94,10.67c-1.72,2-2.77,2.74-3.25,2.54l-.24-.26h0L47.32,475c.41.38,1.5-.25,3.37-2.47a22.09,22.09,0,0,0,4.93-10.67,19.6,19.6,0,0,0-2.87-14.33C53,447.72,53.29,448,53.55,448.23Z"/><path class="cls-145" d="M73.52,463.72l2,2.18.2.22c3.19,3.57,3.38,8.32,2,13a24.92,24.92,0,0,1-1.14,3.12c-3,7-8.93,13-12.42,13.58a1.68,1.68,0,0,1-1.26-.16l-.17-.18-2.31-2.53a1.62,1.62,0,0,0,1.31.2,5,5,0,0,0,1.35-.43c2.57-1.17,5.88-4.39,8.51-8.43a31.1,31.1,0,0,0,2.56-4.72c2.19-5,2.9-10.52.14-14.76A10.05,10.05,0,0,0,73.52,463.72Z"/><path class="cls-146" d="M612.69,545.22c16.79-29.72,45.7-66.91,74.45-85.94C659.44,481.41,632.93,516.18,612.69,545.22Z"/><path class="cls-147" d="M687.34,246.08c11-18.2,30.51-44.15,46.55-58.26C720.11,203.75,702.82,226.91,687.34,246.08Z"/><path class="cls-148" d="M579.13,109.46c9.75-26.81,31.54-73.11,46.67-98.59C615.84,38.33,593.84,84.67,579.13,109.46Z"/><path class="cls-149" d="M197.88,537.73c-51.43-52.89-85.66-88.83-121.06-116.62C114.27,443.82,170,503.54,197.88,537.73Z"/><path class="cls-150" d="M188.39,152.24c-14.54-21-34.2-53.83-46.5-68.85C158.5,97.27,179.58,132.44,188.39,152.24Z"/><path class="cls-151" d="M306.47,101.75c-5.05-21-11.07-52.32-15-73.44C298,49,304,80.52,306.47,101.75Z"/><path class="cls-152" d="M546,284.87c4.94-26.48,17.16-65.19,25.45-85.88C605.19,110.75,554.4,262.29,546,284.87Z"/><path class="cls-153" d="M438.37,102.09C437,75.22,439.67,26.33,445.32,0,445.07,28.1,442.58,74.39,438.37,102.09Z"/><circle class="cls-154" cx="479.94" cy="255.66" r="55.07" transform="translate(-40.21 414.25) rotate(-45)"/><path class="cls-155" d="M424.25,266.85a56.8,56.8,0,1,1,66.88,44.5A56.88,56.88,0,0,1,424.25,266.85Zm108-21.69A53.35,53.35,0,1,0,490.45,308,53.42,53.42,0,0,0,532.25,245.16Z"/><circle class="cls-156" cx="479.94" cy="255.66" r="40.56" transform="translate(1.2 513.56) rotate(-56.36)"/><path class="cls-157" d="M519.71,247.68a40.56,40.56,0,1,0-31.78,47.75A40.55,40.55,0,0,0,519.71,247.68Zm-73.18,16c-3.59-17.9,9.36-35.59,28.92-39.52s38.35,7.39,41.94,25.29S508,285,488.47,289,450.13,281.58,446.53,263.68Z"/><circle class="cls-154" cx="214.22" cy="327.23" r="55.07" transform="translate(-168.64 247.32) rotate(-45)"/><path class="cls-155" d="M223.18,383.32a56.8,56.8,0,1,1,47.14-65.05A56.88,56.88,0,0,1,223.18,383.32ZM205.81,274.55a53.35,53.35,0,1,0,61.1,44.27A53.41,53.41,0,0,0,205.81,274.55Z"/><circle class="cls-156" cx="214.22" cy="327.23" r="40.56" transform="translate(-176.45 308.7) rotate(-54.07)"/><path class="cls-157" d="M207.83,287.17a40.56,40.56,0,1,0,46.45,33.66A40.57,40.57,0,0,0,207.83,287.17Zm13.07,73.76c-18,2.88-35.19-10.76-38.34-30.47s8.92-38,26.95-40.9S244.7,300.32,247.85,320,238.93,358.05,220.9,360.93Z"/><path class="cls-157" d="M375.54,258.74h9A189.09,189.09,0,0,1,573.65,447.83v0A105.37,105.37,0,0,1,468.28,553.2H291.82A105.37,105.37,0,0,1,186.45,447.83v0A189.09,189.09,0,0,1,375.54,258.74Z" transform="translate(-62.68 69.46) rotate(-9.65)"/><path class="cls-156" d="M575.79,402.2c-14.65-86.11-88.88-146.45-175-131.8l-68.57,11.66c-86.11,14.64-144.59,97.08-130,183.2L210.05,511c8.23,48.41,62.39,65.35,96.64,56.82l200.9-34.16s69.5-7.76,74.3-88.31Z"/><path class="cls-158" d="M336.73,290.07c6.27,3.92,10.29,13.85,7.09,20-3,5.78-11.39,6.42-20,7.08s-29.3.65-30.83-5.88C290.94,302.69,321.93,280.81,336.73,290.07Z"/><path class="cls-158" d="M278.91,316.1a5.51,5.51,0,1,1-7.64,1.53A5.52,5.52,0,0,1,278.91,316.1Z"/><path class="cls-158" d="M545.62,428h0A37.42,37.42,0,0,1,530,434.57L300.9,473.52a37.29,37.29,0,0,1-16.92-1h0c-13.3-4-22.31-15-22.71-27.9l0-.94c-1.37-43.55,31.61-82.82,78.44-93.31,19.81-4.44,40.7-8.54,62.6-12.14q25.74-4.22,49.91-7c47.84-5.62,92.2,20.36,105.35,62.07l.29.9C561.7,406.46,556.86,419.89,545.62,428Z"/><path class="cls-159" d="M342.72,422.19a2,2,0,1,1-2.25-1.6A2,2,0,0,1,342.72,422.19Z"/><path class="cls-156" d="M282,627.84c.06.53.12,1,.2,1.52a35.79,35.79,0,0,0,3.07,9.88c21.61,46.59,34.15,71,49.93,90.11,2.72,3.3,5.55,6.44,8.55,9.5,3.94,4.08,8.19,8,12.87,12,10.39,8.92,24.86,11.8,29.54,12.84,17.1,3.85,31.48,1.07,41.14,0l1.68-.2c9.66-1.24,24.27-1.89,40-9.64,4.3-2.1,17.71-8.29,25.71-19.4C516.74,704,523.77,679.89,538,609.28a36.08,36.08,0,0,0,.72-9.7,37.11,37.11,0,0,0-.45-3.94c-1.44-8.07-5.68-15.65-12.39-22.23-11.5-11.29-27.78-16.3-43.79-14.47l-77.15,8.82-75.74,8.68c-16.35,1.87-31.38,10.61-40.27,24.48a42.53,42.53,0,0,0-7.07,20.66c-.05,1-.07,2-.05,3S281.86,626.73,282,627.84Z"/><path class="cls-160" d="M570.89,521.24c-50.27,33.2-64.7,33.23-69.7,51.25-.57,2.07-3.5,12.64,1.3,23.41a33.63,33.63,0,0,0,15.11,15.81c24.91,12.13,69.64-27.31,91.43-61.56,4.75-7.47,17.5-27.5,10.66-36.54-2.8-3.7-8-4.31-11.63-4.69C591.8,507.22,578.47,516.24,570.89,521.24Z"/><path class="cls-158" d="M541.93,592c5.63-3.2,9.34-6.42,16.77-12.85,9.72-8.41,13.36-14.69,16.67-13.46,2.16.81,2.69,4.25,2.82,5,1.84,11.8-15.68,24.51-27.85,30.06-7.46,3.39-16.53,5.7-18.24,3.2a3.38,3.38,0,0,1-.45-2.56C532.8,597.13,537.64,594.45,541.93,592Z"/><path class="cls-158" d="M525,609.23a2.37,2.37,0,1,1,1-3.17A2.36,2.36,0,0,1,525,609.23Z"/><path class="cls-158" d="M396.32,704.24l11.77-33.56L396.82,672,390,694.61l-.1,0-11.76-20.45-10.95,1.28,21.36,33.8A47.3,47.3,0,0,1,396.32,704.24Zm25.51-8.32c8.58-.69,19.53,1.45,27.44,2a26.4,26.4,0,0,0,5.21.09c3.22-.28,16.6-2.64,15.24-14.24-1.09-9.34-16.91-6.18-23-7.67-1.37-.35-2.26-.95-2.38-1.94a3.15,3.15,0,0,1,1.77-3.23,12.21,12.21,0,0,1,3.85-1.05c3.92-.46,6.21.79,6.86,3.83l10.46-1.22c-1.31-6.9-9.25-8.58-16.8-7.7a37.08,37.08,0,0,0-5,.89c-6.36,1.44-9.52,4-10.85,6.59l-.55-4.66-10.45,1.22,2,17.56c.63,5.35-.87,7.34-6.2,8s-7.25-1-7.87-6.33l-1.51-12.9-7.37,20.57c.23,2,1.4,3.35,4.05,4.15A43.37,43.37,0,0,1,421.83,695.92Zm13.78-15.47c2.5,3,7.34,3.56,12,3.61,5.83.23,11.48-.23,11.85,3,.25,2.18-1.61,3.71-6.32,4.26a14.81,14.81,0,0,1-4.7-.07,4.13,4.13,0,0,1-3.51-3.91l-8.45,1Z"/><path class="cls-161" d="M461.76,699.31c-14,7.67-48.71-15.73-78.15,22.69l12.46-1.46c18.35-27,43.42-14.71,60-17.35a15.1,15.1,0,0,0,10.9-7.81A17.7,17.7,0,0,1,461.76,699.31ZM404,719.62l11.25-1.32c1-2.73,5.75-11,28.6-12.58,6.57-.46,7.23-.85,7.23-.85s-3.24.08-6-.1C416.34,703,406.25,716,404,719.62Zm18.29-2.14,10.56-1.23c.8-6.21,14.89-9.48,14.89-9.48S428.85,708.08,422.3,717.48Z"/><polygon class="cls-156" points="246.53 335.27 237.27 350.24 200.02 335.24 216.51 308.61 246.53 335.27"/><path class="cls-157" d="M198,335.91a2.15,2.15,0,0,1,.21-1.8l16.49-26.63a2.13,2.13,0,0,1,1.52-1,2.08,2.08,0,0,1,1.73.52l30,26.65a2.15,2.15,0,0,1,.4,2.74l-9.26,15a2.16,2.16,0,0,1-2.64.86l-37.24-15a1.68,1.68,0,0,1-.33-.16A2.15,2.15,0,0,1,198,335.91Zm45.77-.23L217,311.92l-13.8,22.28,33.2,13.37Z"/><circle class="cls-154" cx="208.26" cy="321.93" r="15.66" transform="translate(-175.08 329.52) rotate(-58.24)"/><path class="cls-155" d="M198.89,337.07a17.81,17.81,0,1,1,24.52-5.77A17.83,17.83,0,0,1,198.89,337.07Zm16.49-26.63a13.51,13.51,0,1,0,4.37,18.6A13.52,13.52,0,0,0,215.38,310.44Z"/><path class="cls-158" d="M214.5,311.86a11.84,11.84,0,1,0,3.83,16.3A11.84,11.84,0,0,0,214.5,311.86Z"/><path class="cls-162" d="M214.5,311.86a11.84,11.84,0,1,0,3.83,16.3A11.84,11.84,0,0,0,214.5,311.86ZM212.55,315a8.66,8.66,0,1,1-12.31,2.55A8.89,8.89,0,0,1,212.55,315Z"/><polygon class="cls-156" points="477.54 288.98 461.08 282.72 468.73 243.3 498 254.43 477.54 288.98"/><path class="cls-157" d="M467.68,241.42a2.21,2.21,0,0,1,1.81-.13l29.28,11.13a2.13,2.13,0,0,1,1.26,1.3,2.11,2.11,0,0,1-.18,1.8l-20.46,34.55a2.16,2.16,0,0,1-2.62.92l-16.45-6.26a2.15,2.15,0,0,1-1.35-2.42l7.65-39.42a1.4,1.4,0,0,1,.1-.35A2.15,2.15,0,0,1,467.68,241.42Zm8.93,44.9,18.24-30.79-24.5-9.31-6.81,35.14Z"/><circle class="cls-154" cx="483.36" cy="248.87" r="15.66" transform="translate(79.03 612.31) rotate(-69.19)"/><path class="cls-155" d="M466.72,242.54a17.81,17.81,0,1,1,10.32,23A17.82,17.82,0,0,1,466.72,242.54ZM496,253.67a13.51,13.51,0,1,0-17.42,7.82A13.51,13.51,0,0,0,496,253.67Z"/><path class="cls-158" d="M494.43,253.07a11.84,11.84,0,1,0-15.27,6.87A11.83,11.83,0,0,0,494.43,253.07Z"/><path class="cls-162" d="M494.43,253.07a11.84,11.84,0,1,0-15.27,6.87A11.83,11.83,0,0,0,494.43,253.07ZM491,251.76a8.66,8.66,0,1,1-4.84-11.6A8.9,8.9,0,0,1,491,251.76Z"/><circle class="cls-163" cx="346.13" cy="412.02" r="43.81" transform="translate(-190.15 456.45) rotate(-54.7)"/><circle class="cls-159" cx="346.13" cy="412.02" r="31.45" transform="translate(-22.76 20.24) rotate(-3.24)"/><path class="cls-164" d="M372.16,407.57A26.41,26.41,0,1,1,341.68,386,26.41,26.41,0,0,1,372.16,407.57Z"/><circle class="cls-159" cx="352.01" cy="404.07" r="9.79" transform="translate(-80.44 720.57) rotate(-85.14)"/><path class="cls-159" d="M349.54,432a3.9,3.9,0,1,1-4.5-3.19A3.91,3.91,0,0,1,349.54,432Z"/><path class="cls-159" d="M335.16,428.51a2,2,0,1,1-2.25-1.6A1.95,1.95,0,0,1,335.16,428.51Z"/><circle class="cls-165" cx="462.8" cy="392.07" r="43.82" transform="translate(-124.61 543.25) rotate(-54.7)"/><path class="cls-159" d="M493.8,386.77a31.45,31.45,0,1,1-36.3-25.7A31.44,31.44,0,0,1,493.8,386.77Z"/><circle class="cls-166" cx="462.8" cy="392.07" r="26.41" transform="translate(-137.16 302.88) rotate(-31.81)"/><path class="cls-159" d="M478.33,382.47a9.79,9.79,0,1,1-11.3-8A9.79,9.79,0,0,1,478.33,382.47Z"/><path class="cls-159" d="M466.22,412a3.91,3.91,0,1,1-4.51-3.19A3.92,3.92,0,0,1,466.22,412Z"/><path class="cls-159" d="M451.84,408.56a2,2,0,1,1-2.26-1.6A2,2,0,0,1,451.84,408.56Z"/><path class="cls-167" d="M381.08,476.37l68.73-2.09s-14.16,64.59-30.88,63.46S381.08,476.37,381.08,476.37Z"/><path class="cls-168" d="M389,496.33c7.68,17.65,19.63,40.71,29.92,41.41,7.63.52,14.72-12.65,20.18-27.12C426.27,497.81,407.08,492.73,389,496.33Z"/><path class="cls-160" d="M225,562.48c57.54,17.86,71.4,13.87,81.23,29.78,1.13,1.83,6.89,11.16,5.28,22.84a33.69,33.69,0,0,1-10.11,19.4c-20.54,18.59-74.48-6.81-105-33.62C189.79,595,172,579.34,176,568.76c1.66-4.33,6.44-6.35,9.86-7.75C201,554.84,216.33,559.79,225,562.48Z"/><path class="cls-158" d="M272.55,622.37c-6.3-1.5-10.76-3.55-19.69-7.66-11.68-5.37-16.93-10.38-19.76-8.27-1.84,1.37-1.4,4.83-1.3,5.61,1.52,11.85,21.89,19.17,35.13,21.1,8.1,1.18,17.46.87,18.4-2a3.38,3.38,0,0,0-.28-2.58C282.74,624.73,277.35,623.51,272.55,622.37Z"/><path class="cls-158" d="M293.61,634.18a2.36,2.36,0,1,0-1.9-2.75A2.36,2.36,0,0,0,293.61,634.18Z"/></svg>