<?xml version="1.0" encoding="UTF-8"?><svg id="Layer_1" xmlns="http://www.w3.org/2000/svg" xmlns:xlink="http://www.w3.org/1999/xlink" viewBox="0 0 39.86 40.17"><defs><style>.cls-1{fill:#222f6e;}.cls-1,.cls-2{stroke-width:0px;}.cls-2{fill:none;}.cls-3{clip-path:url(#clippath);}</style><clipPath id="clippath"><rect class="cls-2" x=".16" y=".31" width="39.7" height="39.7"/></clipPath></defs><g class="cls-3"><g id="Frame"><g id="Group"><path id="Vector" class="cls-1" d="M10.51,1.1v1.88q0,.47-.47.31c-.78-.31-1.57-.47-2.51-.78-.78,0-.94.16-.94.94v7.22c0,.31,0,.47-.47.47-.94.31-1.88.63-2.82,1.1-.31,0-.63.16-.63.63,0,.16-.16.16-.31.16h-.94c-.63,0-1.26.47-1.26,1.41v17.57c0,.47.16.78.63.78.31,0,.63-.31.63-.78V14.75q0-.47.47-.47.78,0,.78.78v21.65c0,.78.16.94.94.94h32.79c.78,0,.94-.16.94-.94V14.75c0-.63,0-.47.47-.47,1.1,0,.94-.16.94.94v23.22q0,.63-.63.63h-16.01c-.31,0-.47,0-.63-.16-.94-.78-2.2-.63-2.98,0-.16.16-.31.16-.63.16H1.73c-.31,0-.47-.16-.47-.47v-2.67c0-.47-.16-.63-.63-.63-.31,0-.63.16-.63.63v2.82c0,.78.63,1.41,1.41,1.41h16.79c.31,0,.47-.16.63-.31.63-.63,1.41-.63,2.04,0,.16.16.31.31.63.31h16.95c.63,0,1.1-.47,1.41-.94V13.97c-.31-.78-.94-1.1-1.73-1.1h-.47c-.16,0-.31,0-.31-.31s-.16-.47-.47-.47c-.47-.16-1.1-.47-1.57-.63-.16,0-.31-.16-.31-.47v-3.3c0-.47-.16-.78-.78-.78-4.71,0-9.1,1.41-13.02,4.24-.16.16-.47.31-.63.47-.16-.63-.16-1.26-.31-1.88-.47-2.2-1.26-4.24-2.67-5.96-1.57-2.04-3.61-3.14-6.12-3.77h-.63c-.31.47-.47.78-.31,1.1ZM36.09,36.4c0,.16-.16,0-.31,0h-13.97c1.57-.94,3.14-1.41,4.71-1.73,3.14-.47,6.28-.16,9.41.78.16.16.31.78.16.94ZM20.56,13.81c0-.31,0-.47.31-.63,2.51-2.2,5.49-3.61,8.63-4.24,1.26-.31,2.67-.47,3.92-.47q.31,0,.31.31v5.65c0,.31.31.47.63.47s.47-.16.47-.63v-1.57c.31,0,.63.16,1.1.31.16,0,.16.16.16.16v20.71c0,.31,0,.47-.47.31-2.67-.78-5.49-1.1-8.16-.78-.47,0-.78.16-1.26.16-.16.16-.16,0-.31,0q.16-.16.31-.16c2.51-1.1,5.18-1.57,7.85-1.57.78,0,.94-.16.94-.94v-13.18c0-.31-.31-.47-.47-.47-.31,0-.47.16-.63.47v12.71q0,.31-.31.47c-4.71.16-8.94,1.57-12.71,4.55h-.16c-.16-.16,0-.31,0-.31-.16-7.22-.16-14.28-.16-21.34ZM3.92,13.49c0-.16,0-.31.31-.31.63-.31,1.26-.47,2.04-.78.31-.16.31,0,.31.31v13.49c0,.78,0,.94.78,1.1,4.55,1.1,8,3.61,10.67,7.38l.16.16v.16c-.78-.31-1.41-.63-2.2-.78-2.82-.94-5.81-.94-8.79-.47-.94.16-2.04.31-2.98.63q-.31,0-.31-.16V13.49ZM18.2,36.4H4.24c-.16,0-.31.16-.31-.16s-.16-.63.16-.78c4.24-1.41,8.47-1.57,12.71.16.31.16.78.31,1.1.47.16.16.31.16.31.31q.16,0,0,0ZM11.61,1.73c2.04.47,3.77,1.41,5.02,3.14,1.41,1.73,2.2,3.92,2.51,6.12.16,1.1.16,2.04.16,3.14v16.48c-.16,0-.16-.16-.16-.16-1.41-3.3-3.92-5.49-7.37-6.43-.16,0-.31-.16-.31-.31.16-7.38.16-14.59.16-21.97ZM11.3,25.11c3.61.94,5.96,3.14,7.22,6.59.31.78.47,1.57.63,2.51-.63-.94-1.41-1.73-2.2-2.67-2.51-2.51-5.49-4.24-8.94-5.18-.31-.16-.31-.31-.31-.47V4.08q0-.16.31-.16c.78.16,1.57.47,2.35.78.16,0,.16.16.16.31v18.83q0,.94.78,1.26Z"/></g></g></g></svg>