<?xml version="1.0" encoding="UTF-8"?><svg id="Layer_1" xmlns="http://www.w3.org/2000/svg" viewBox="0 0 36.28 42"><defs><style>.cls-1{fill:#222f6e;stroke-width:0px;}</style></defs><g id="Group"><path id="Vector" class="cls-1" d="M36.16,13.46c-.27-2.45-1.22-4.76-2.72-6.8C30.31,2.31,26.1.14,20.8,0q-.95,0-.95.95c0,.27.14.41.41.41,1.36-.14,2.72,0,4.08.41,3.13.82,5.71,2.58,7.75,5.17,2.45,3.26,3.4,7.07,2.58,11.15-.68,3.81-2.72,6.8-5.84,9.11-1.36.95-2.45,2.17-3.13,3.67,0,.14-.14.27-.27.27h-9.11c-.14,0-.27,0-.27-.27-.68-1.63-1.9-2.85-3.4-3.81-3.67-2.72-5.71-6.39-5.84-11.01,0-1.09,0-.95-1.09-.95-.27,0-.27.14-.27.27,0,1.22.14,2.31.41,3.53.82,3.81,2.99,6.93,6.12,9.24.82.54,1.63,1.22,2.17,2.04.14.27.41.54.54.95h-.68q-1.09,0-1.09,1.09c0,.14,0,.27.27.27h1.09q1.09,0,1.22,1.09c0,.27,0,.41-.27.27h-.68c-.14,0-.27,0-.27.27q0,1.09.95,1.09c.27,0,.27.14.27.27v1.5c0,.68.14.95.95.95.41,0,.41.14.41.41.14,1.77,1.63,3.26,3.4,3.53.14,0,.27,0,.41.14h.54c.14-.14.27-.14.41-.14,1.77-.27,3.26-1.77,3.4-3.53,0-.41.14-.54.54-.54.68,0,.82-.27.82-.82v-1.5c0-.27,0-.41.41-.41q.95,0,.95-.95c0-.27,0-.41-.27-.41q-1.09,0-.82-1.09c0-.27.14-.27.41-.27h1.09q1.09,0,1.09-1.09,0-.27-.27-.27h-1.5c.68-1.22,1.5-2.04,2.58-2.85,4.62-3.53,6.8-8.43,6.12-14.68ZM23.52,38.19c-.14,1.36-1.36,2.31-2.72,2.31s-2.45-1.09-2.58-2.45q0-.27.27-.27h4.76c.14.14.27.14.27.41ZM23.79,36.56h-6.8c-.27,0-.41,0-.41-.41q0-.95.95-.95h6.8c.27,0,.41,0,.41.41q.14.95-.95.95ZM25.01,32.76v.27q-.14.82-.95.82h-7.07c-.27,0-.41-.14-.41-.41s0-.41-.14-.68c-.14-.27,0-.41.27-.41h7.88c.41.14.54.14.41.41Z"/><path id="Vector_2" class="cls-1" d="M32.08,17.94c.95-.54,1.5-1.36,1.5-2.45s-.54-1.9-1.5-2.45q-.14-.14-.14-.41c.68-1.77,0-3.53-1.63-4.35q-.27-.14-.14-.41c.41-1.9-1.36-3.67-3.26-3.26-.27,0-.41,0-.41-.27-.82-1.22-2.31-1.63-3.53-.95-1.09.54-1.36,1.5-1.36,2.72v18.49c0,1.36.68,2.45,2.04,2.72,1.22.41,2.31-.14,2.99-1.22.14-.27.27-.14.41-.14,1.9.54,3.67-1.22,3.26-3.26q0-.27.14-.41c1.63-.82,2.31-2.58,1.63-4.35-.14.14-.14.27,0,0ZM31.4,16.85c-.27.14-.54.14-.82,0-2.04-1.36-4.89.14-5.03,2.58,0,.27,0,.41.27.27h.95c.27-.14.14-.41.27-.68.27-.82,1.22-1.36,2.17-1.36.95.14,1.63.82,1.77,1.77.14.82-.54,1.77-1.36,2.04-.14,0-.41.14-.54,0-.27-.27-.68-.41-1.09-.41-.27,0-.41,0-.41.27v.27c0,.41,0,.68.54.82.54.14.95.82.82,1.5-.14.68-.68,1.09-1.22,1.09-.68,0-1.22-.41-1.36-.95-.14-.27-.27-.41-.54-.41h-.27q-.82,0-.54.68c.14.27.14.54.41.68.14.27.14.41,0,.54-.27.54-.95.82-1.5.68-.54-.14-.95-.68-1.09-1.22V6.12c0-.95.82-1.63,1.63-1.36.27.14.54.27.68.41.27.27.41.54.14.82-.27.27-.41.68-.41,1.09,0,.14,0,.27.27.27h.41c.41,0,.68,0,.82-.54.14-.54.82-.95,1.5-.82.68.14,1.09.68,1.09,1.22,0,.68-.41,1.22-1.09,1.36-.27,0-.27.14-.27.41v.41q0,.68.54.54c.27-.14.54-.14.82-.41.27-.14.41-.14.68,0,.95.41,1.36,1.36,1.22,2.31-.14.95-1.09,1.63-2.04,1.63s-1.77-.68-1.9-1.63c0-.27-.14-.41-.41-.27h-.41q-.68,0-.54.68c.41,2.17,2.99,3.4,4.89,2.31.68-.41,1.5-.14,1.77.68.14.68-.14,1.36-.82,1.63Z"/><path id="Vector_3" class="cls-1" d="M20.11,15.63V6.39c0-1.36-.68-2.45-2.04-2.72-1.09-.41-2.31.14-2.99,1.22-.14.27-.27.14-.41.14-1.9-.54-3.67,1.22-3.26,3.13,0,.27,0,.41-.27.54-1.63.82-2.31,2.58-1.63,4.21q.14.27-.14.41c-.95.54-1.5,1.36-1.5,2.31,0,1.09.54,1.9,1.5,2.31q.27.14.14.41c-.68,1.63,0,3.4,1.63,4.21.14.14.27.14.27.41-.41,1.9,1.36,3.67,3.26,3.26.27-.14.41,0,.54.27.82,1.22,2.31,1.5,3.53.82,1.09-.54,1.36-1.5,1.36-2.72v-8.97ZM18.62,25.55c-.27.54-.68.82-1.22.82s-.95-.27-1.22-.68c-.14-.14-.14-.27,0-.54.27-.41.41-.82.41-1.22,0-.14,0-.27-.27-.27h-.41c-.41,0-.68,0-.82.54-.14.54-.82.95-1.5.82-.54-.14-1.09-.68-1.09-1.22,0-.68.41-1.22,1.09-1.36.27,0,.41-.14.27-.41v-.54q0-.41-.41-.41c-.41.14-.82.14-1.09.41-.14.14-.41.14-.54,0-.95-.27-1.5-1.22-1.36-2.17.14-.95.95-1.77,2.04-1.77.95,0,1.9.68,2.04,1.63,0,.27.14.41.41.41h.41q.54,0,.41-.54c-.41-2.31-2.99-3.67-5.03-2.31-.27.14-.54.14-.82,0-.54-.27-.82-.54-.82-1.09s.14-.95.68-1.36c.27-.14.68-.27.95,0,2.04,1.22,4.76-.14,5.03-2.45,0-.27,0-.41-.41-.41h-.82c-.27.14-.14.41-.27.68-.41.82-1.22,1.36-2.17,1.22-.95-.14-1.63-.82-1.77-1.77-.14-.82.41-1.77,1.36-2.04.27-.14.41-.14.54.14.41.27.82.41,1.22.41.14,0,.27,0,.27-.27v-.41c0-.41,0-.68-.54-.82-.54-.14-.95-.82-.82-1.5.14-.68.68-1.09,1.22-1.09s1.22.41,1.36.95c.14.41.27.41.54.41h.41q.54,0,.41-.54c-.14-.27-.14-.68-.41-.95-.14-.14-.14-.27,0-.54.27-.54.95-.82,1.5-.68.54.14.95.68,1.09,1.22v18.76c.27.41.27.68.14.95Z"/><path id="Vector_4" class="cls-1" d="M7.34,10.19c-.41,0-.82-.14-1.09-.27-.95-.41-1.5-1.22-1.5-2.31,0-.54-.27-.82-.54-.82-.41,0-.68.27-.82.82-.14,1.36-1.09,2.31-2.45,2.58-.68.14-.95.27-.95.68s.27.68.95.68c.95.14,1.63.54,2.17,1.5.27.41.27.82.27,1.36,0,.41.27.54.68.54.27,0,.54-.14.68-.54v-.41c.14-.95.54-1.63,1.36-2.17.41-.27.82-.27,1.36-.41.41,0,.54-.27.54-.54-.14-.41-.27-.54-.68-.68ZM4.89,11.01c-.41.27-.68.68-.95,1.09-.27-.41-.54-.82-.95-.95q-.14-.14,0-.27c.27-.27.54-.54.82-.82q.14-.14.27,0c.27.27.54.54.82.82q.14,0,0,.14Z"/><path id="Vector_5" class="cls-1" d="M11.15,3.4c-.82,0-1.5-.41-2.04-1.09-.27-.41-.41-.95-.54-1.5,0-.54-.27-.82-.68-.82s-.68.27-.68.82c0,.14,0,.41-.14.54-.27,1.09-1.22,1.9-2.45,2.04-.41,0-.68.14-.82.54-.14.41.14.82.82.82,1.36.14,2.31,1.09,2.58,2.45.14.68.27.95.68.95s.68-.27.68-.95c0-.41.27-.82.54-1.22.54-.68,1.22-1.09,2.04-1.09.54,0,.82-.27.82-.68,0-.54-.27-.68-.82-.82ZM8.16,5.17q-.14.14-.27,0c-.27-.41-.68-.68-.95-.95.41-.27.82-.68,1.09-1.09.41.41.68.82,1.09,1.09-.41.27-.68.54-.95.95Z"/></g></svg>