<?xml version="1.0" encoding="UTF-8"?>
<svg xmlns="http://www.w3.org/2000/svg" width="41" height="41" viewBox="0 0 41 41" fill="none">
  <g id="Frame" clip-path="url(#clip0_243_188)">
    <g id="Group">
      <path id="Vector" d="M39.8691 21.6501C38.4338 20.3637 37.158 18.9166 35.8822 17.6302C35.7228 17.4694 35.7228 17.4694 35.5633 17.3086C35.2443 17.1478 35.0849 17.1478 34.7659 17.3086C34.447 17.4694 34.2875 17.6302 34.2875 17.9518C34.2875 18.2734 34.447 18.4342 34.6064 18.7558C36.0417 20.2029 37.477 21.6501 38.9122 23.0972C39.5501 23.7404 39.5501 24.5444 38.9122 25.1875C38.2743 25.6699 37.477 25.6699 36.8391 25.1875C36.5201 24.8659 36.2012 24.5444 35.8822 24.2228C32.2143 20.5245 28.5465 16.8262 24.8786 13.128C24.5596 12.8064 24.7191 12.8064 24.8786 12.4848C25.357 12.0024 25.8354 11.52 26.3138 11.0377C26.4733 10.8769 26.6328 10.8769 26.7923 11.0377C27.5896 11.8416 28.387 12.6456 29.1844 13.4496C29.3438 13.6104 29.5033 13.7712 29.6628 13.7712C29.9817 13.9319 30.4601 13.7712 30.6196 13.4496C30.7791 13.128 30.7791 12.8064 30.4601 12.4848C29.6628 11.6808 28.8654 10.8769 28.068 10.0729C27.9086 9.9121 27.9086 9.7513 28.068 9.59051C28.8654 8.62575 29.1844 7.66098 29.3438 6.53542C29.5033 4.4451 28.2275 2.51557 26.4733 1.7116C24.5596 0.586042 22.327 0.90763 20.7323 2.19398C20.5728 2.35478 20.4133 2.35478 20.2539 2.19398C18.1807 0.425248 15.1507 0.425248 13.237 2.19398C11.3234 4.12351 11.1639 7.1786 12.9181 9.42972C13.0776 9.59051 13.0776 9.7513 12.9181 9.9121C10.8449 12.0024 8.61231 14.0927 6.53916 16.1831C4.62548 18.1126 2.7118 20.0421 0.798125 21.9717C-0.318187 23.0972 -0.318187 24.7052 0.479179 25.8307C1.43602 26.9563 2.87128 27.2779 4.30654 26.6347C4.30654 26.6347 4.46601 26.4739 4.62548 26.6347V27.1171C4.62548 30.8153 4.62548 34.5136 4.62548 38.2119C4.62548 39.659 5.58232 40.7846 7.17705 40.7846C15.9481 40.7846 24.8786 40.7846 33.6496 40.7846C35.2443 40.7846 36.2012 39.659 36.2012 38.2119C36.2012 34.5136 36.2012 30.8153 36.2012 27.1171V26.6347C36.3607 26.6347 36.3606 26.6347 36.5201 26.7955C38.2743 27.7602 40.188 26.7955 40.8259 24.8659C40.8259 24.7051 40.8259 24.7051 40.9854 24.5444V23.5796C40.8259 22.9364 40.507 22.2932 39.8691 21.6501ZM13.556 4.76669C14.0344 3.31954 15.3102 2.51557 16.7454 2.51557C17.7023 2.51557 18.4997 2.83716 19.1375 3.48033C19.297 3.64113 19.616 3.96272 19.7754 4.12351C20.2539 4.60589 20.5728 4.60589 21.0512 4.12351C21.2107 3.96272 21.5296 3.64113 21.6891 3.48033C23.1244 2.19398 25.357 2.19398 26.6328 3.64113C27.9086 5.08828 27.9086 7.1786 26.6328 8.62575C24.7191 10.5553 22.646 12.4848 20.7323 14.4143C20.5728 14.5751 20.4133 14.5751 20.2539 14.4143C18.3402 12.4848 16.267 10.5553 14.3533 8.62575C13.237 7.50019 13.0776 6.21383 13.556 4.76669ZM3.98759 25.0267C3.19022 25.8307 1.91444 25.5091 1.59549 24.3836C1.59549 24.2228 1.59549 24.2228 1.59549 24.062C1.59549 23.5796 1.75496 23.258 2.07391 22.9364C4.30654 20.6853 6.53916 18.4342 8.61231 16.3439C10.3665 14.5751 12.1207 12.8064 13.8749 11.0377C14.0344 10.8769 14.1939 10.8769 14.3533 11.0377C14.9912 11.52 15.4697 12.0024 15.9481 12.4848C16.1076 12.6456 16.1076 12.8064 15.9481 12.9672C14.0344 14.8967 11.9613 16.987 9.8881 19.0774C7.97442 21.0069 6.06074 22.9364 3.98759 25.0267ZM17.3833 33.5488C16.4265 34.192 15.9481 35.3176 15.9481 36.4431C15.9481 37.2471 15.9481 37.8903 15.9481 38.6942C15.9481 39.0158 15.9481 39.0158 15.6291 39.0158C14.3533 39.0158 13.0776 39.0158 11.6423 39.0158C11.4828 39.0158 11.3234 39.0158 11.3234 38.6942C11.3234 35.9607 11.3234 33.388 11.3234 30.6545C11.3234 29.529 11.8018 28.725 12.7586 28.2426C12.9181 28.0818 13.0776 28.0818 13.237 28.2426C14.6723 29.2074 16.267 29.2074 17.7023 28.2426C17.8618 28.0818 18.0212 28.0818 18.1807 28.2426C18.4997 28.4034 18.9781 28.725 19.1375 29.2074C18.1807 29.6898 17.5428 30.4937 17.3833 31.4585C17.2239 31.9409 17.3833 32.5841 17.5428 33.0664C17.7023 33.388 17.5428 33.5488 17.3833 33.5488ZM13.237 25.0267C13.237 23.7404 14.3533 22.6148 15.6291 22.7756C16.9049 22.7756 18.0212 23.9012 18.0212 25.1875C18.0212 26.4739 16.9049 27.4386 15.6291 27.4386C14.3533 27.4386 13.237 26.4739 13.237 25.0267ZM20.5728 30.6545C21.3702 30.6545 22.0081 31.2977 22.0081 32.2625C22.0081 33.0664 21.3702 33.8704 20.4133 33.8704C19.616 33.8704 18.8186 33.2272 18.8186 32.2625C18.9781 31.2977 19.7754 30.6545 20.5728 30.6545ZM23.4433 38.855C23.4433 39.1766 23.2838 39.0158 23.1244 39.0158C22.327 39.0158 21.3702 39.0158 20.5728 39.0158C19.7754 39.0158 18.8186 39.0158 18.0212 39.0158C17.7023 39.0158 17.7023 39.0158 17.7023 38.6942C17.7023 37.8903 17.7023 37.2471 17.7023 36.4431C17.7023 35.7999 17.8618 35.1568 18.4997 34.8352C18.6591 34.6744 18.8186 34.6744 18.9781 34.8352C20.0944 35.4784 21.2107 35.4784 22.1675 34.8352C22.327 34.6744 22.4865 34.6744 22.4865 34.8352C22.9649 35.1568 23.1244 35.4784 23.2838 35.9607C23.4433 36.9255 23.2838 37.8903 23.4433 38.855ZM29.1844 39.0158C27.9086 39.0158 26.6328 39.0158 25.357 39.0158C25.0381 39.0158 25.0381 38.855 25.0381 38.6942C25.0381 37.7295 25.0381 36.9255 25.0381 35.9607C24.8786 34.996 24.5596 34.192 23.7623 33.5488C23.6028 33.388 23.6028 33.388 23.6028 33.0664C24.0812 31.6193 23.6028 30.0114 22.1675 29.2074C22.0081 29.0466 22.0081 29.0466 22.1675 28.8858C22.327 28.725 22.327 28.725 22.4865 28.5642C23.1244 28.0818 23.1244 28.0818 23.7623 28.4034C25.1975 29.0466 26.4733 29.0466 27.7491 28.2426C27.9086 28.0818 28.068 28.0818 28.2275 28.2426C29.1844 28.725 29.6628 29.529 29.6628 30.6545C29.6628 31.9409 29.6628 33.2272 29.6628 34.6744C29.6628 35.9607 29.6628 37.4079 29.6628 38.6942C29.5033 39.0158 29.5033 39.0158 29.1844 39.0158ZM23.1244 25.1875C23.1244 23.9012 24.2407 22.7756 25.5165 22.7756C26.7923 22.7756 27.7491 23.9012 27.7491 25.1875C27.7491 26.4739 26.7923 27.4386 25.357 27.4386C24.0812 27.4386 23.1244 26.4739 23.1244 25.1875ZM34.7659 38.2119C34.7659 38.855 34.6064 39.1766 33.8091 39.1766C33.0117 39.1766 32.2143 39.1766 31.417 39.1766C31.098 39.1766 31.098 39.0158 31.098 38.855C31.098 36.2823 31.098 33.8704 31.098 31.2977C31.098 29.529 30.6196 28.0818 29.0249 27.1171C28.7059 26.9563 28.8654 26.7955 29.0249 26.6347C29.8223 24.8659 29.1844 22.7756 27.4302 21.6501C25.9949 20.8461 24.0812 20.8461 22.8054 21.9717C21.5296 23.0972 21.0512 24.8659 21.6891 26.4739C21.8486 26.7955 21.8486 26.9563 21.5296 27.1171C21.2107 27.2779 20.8918 27.5994 20.5728 27.921C20.4133 28.0818 20.4133 28.0818 20.2539 27.921C19.9349 27.5994 19.616 27.2779 19.297 26.9563C19.1375 26.9563 19.1375 26.9563 19.1375 26.6347C19.7754 25.0267 19.4565 23.4188 18.1807 22.2932C16.9049 21.0069 14.8318 20.8461 13.237 21.8109C11.6423 22.9364 11.1639 24.8659 11.8018 26.4739C11.9613 26.7955 11.9613 26.9563 11.6423 27.1171C10.3665 27.921 9.72863 29.0466 9.72863 30.6545C9.72863 33.388 9.72863 35.9607 9.72863 38.6942C9.72863 39.0158 9.56915 39.1766 9.25021 39.1766C8.45284 39.1766 7.65547 39.1766 6.85811 39.1766C6.22021 39.1766 6.06074 38.855 6.06074 38.3726C6.06074 36.2823 6.06074 34.0312 6.06074 31.9409C6.06074 29.8506 6.06074 27.5994 6.06074 25.5091C6.06074 25.1875 6.06074 25.0267 6.37969 24.8659C9.8881 21.3285 13.3965 17.791 17.0644 14.0927C17.3833 13.7712 17.5428 13.7712 17.7023 14.0927C18.3402 14.7359 19.1375 15.3791 19.7754 16.1831C20.2539 16.6654 20.5728 16.6654 21.0512 16.1831C21.8486 15.5399 22.4865 14.7359 23.2838 14.0927C23.6028 13.7712 23.6028 13.7712 23.9217 13.9319C27.4302 17.4694 31.098 21.1677 34.6064 24.7052C34.7659 24.8659 34.7659 25.0267 34.7659 25.1875C34.7659 29.529 34.7659 33.8704 34.7659 38.2119Z" fill="#B41A20"></path>
    </g>
  </g>
  <defs>
    <clipPath id="clip0_243_188">
      <rect width="40.9846" height="39.8769" fill="white" transform="translate(0 0.907715)"></rect>
    </clipPath>
  </defs>
</svg>
