<?xml version="1.0" encoding="UTF-8"?>
<svg xmlns="http://www.w3.org/2000/svg" width="46" height="45" viewBox="0 0 46 45" fill="none">
  <g id="Group">
    <path id="Vector" d="M45.0341 14.1307C42.4978 3.45164 31.5517 -2.55535 21.1396 1.04885C10.4605 4.92002 6.05541 17.7349 11.9289 27.3461C12.1959 27.7466 12.7298 28.1471 12.5964 28.5475C12.4629 28.948 11.9289 29.215 11.6619 29.6154C11.5284 29.7489 11.395 29.7489 11.2615 29.6154C10.327 29.215 9.79309 29.215 9.12565 29.8824C6.45587 32.5522 3.7861 35.222 1.11632 37.8917C0.315392 38.6927 0.315392 39.4936 1.11632 40.2945C2.45121 41.6294 3.7861 42.9643 5.12098 44.2992C5.78843 45.2336 6.58936 45.2336 7.52378 44.2992C8.99216 42.8308 10.4605 41.3624 11.7954 40.0276C12.9968 38.8262 14.3317 37.4913 15.5331 36.2899C16.0671 35.7559 16.2005 35.222 15.9336 34.688C15.5331 34.154 15.8001 33.8871 16.2005 33.6201C16.334 33.4866 16.4675 33.3531 16.601 33.2196C16.868 32.9526 17.0015 32.9526 17.2685 33.2196C20.3387 35.222 23.6759 36.2899 27.4136 36.2899C28.4815 36.2899 29.5494 36.1564 30.7508 35.8894C40.7625 34.0206 47.3034 24.0089 45.0341 14.1307ZM14.3317 35.3554C11.6619 38.0252 8.99216 40.695 6.45587 43.2313C6.32238 43.3648 6.18889 43.3648 6.05541 43.2313C4.72052 41.8964 3.51912 40.695 2.18423 39.3601C2.05074 39.2266 2.05074 39.0931 2.18423 38.9596C4.85401 36.2899 7.52378 33.7536 10.0601 31.0838C10.1936 30.9503 10.327 30.9503 10.4605 31.0838C11.7954 32.4187 12.9968 33.6201 14.3317 34.955L14.4652 35.0885C14.4652 35.222 14.4652 35.222 14.3317 35.3554ZM14.7322 32.8192C14.5987 32.9527 14.4652 32.9527 14.3317 32.8192C13.7977 32.2852 13.1303 31.6178 12.5964 31.0838C12.4629 30.9503 12.4629 30.8168 12.5964 30.6833C12.8633 30.4164 13.1303 29.8824 13.5308 29.8824C13.7977 29.8824 14.0647 30.4164 14.3317 30.6833C14.7322 31.0838 15.1326 31.4843 15.6666 31.8847C15.3996 32.2852 14.9991 32.5522 14.7322 32.8192ZM27.1466 34.688C18.2029 34.688 10.7275 27.2126 10.7275 18.1354C10.7275 9.05817 18.2029 1.5828 27.2801 1.5828C36.4908 1.5828 43.8327 8.92468 43.8327 18.1354C43.9662 27.2126 36.4908 34.688 27.1466 34.688Z" fill="#D6EBFF"></path>
    <path id="Vector_2" d="M26.8782 10.6601C23.4075 10.7936 20.6042 13.8638 20.4707 17.3345C20.4707 19.4703 21.1381 21.2057 22.74 22.674C23.274 23.208 23.5409 23.742 23.4075 24.4094C23.4075 24.8099 23.4075 25.3438 23.4075 25.7443C23.4075 26.8122 23.9414 27.7466 24.8758 28.2806C25.5433 28.681 26.3442 28.681 27.1451 28.681C27.4121 28.681 27.6791 28.681 27.9461 28.681C29.5479 28.681 30.7493 27.6131 31.0163 26.0113C31.0163 25.4773 31.0163 24.9434 31.0163 24.4094C31.0163 23.742 31.2833 23.0745 31.8172 22.674C33.5526 20.9387 34.3535 18.9364 33.9531 16.5336C33.5526 13.0629 30.4824 10.5266 26.8782 10.6601ZM25.2763 26.5452H29.281C28.48 27.6131 26.0772 27.6131 25.2763 26.5452ZM29.5479 24.5429C29.5479 24.8099 29.6814 24.9434 29.281 24.9434C28.6135 24.9434 27.9461 24.9434 27.4121 24.9434C26.7447 24.9434 26.0772 24.9434 25.4098 24.9434C25.1428 24.9434 25.0093 24.8099 25.1428 24.5429C25.1428 24.2759 25.0093 24.1424 25.4098 24.1424C26.7447 24.1424 28.0796 24.1424 29.281 24.1424C29.5479 24.2759 29.5479 24.2759 29.5479 24.5429ZM30.8828 21.6061C30.6158 21.8731 30.2154 22.1401 30.0819 22.5406L29.9484 22.674C29.4144 22.674 28.747 22.674 28.213 22.674C28.0796 22.674 28.0796 22.5406 28.0796 22.4071C28.0796 22.0066 28.0796 21.7396 28.0796 21.3392C28.0796 20.9387 27.9461 20.6717 27.6791 20.4047C26.8782 19.8708 26.2107 19.3368 25.4098 18.8029C25.1428 18.5359 24.8758 18.0019 25.0093 17.6015C25.1428 17.3345 25.2763 17.3345 25.5433 17.468C25.6768 17.6015 25.8103 17.735 25.9437 17.8685C26.7447 18.6694 27.8126 18.6694 28.6135 17.8685C28.747 17.735 29.014 17.3345 29.281 17.468C29.6814 17.6015 29.4144 18.0019 29.4144 18.4024C29.4144 18.6694 29.1475 18.8029 29.014 18.9364C28.213 19.4703 28.3465 19.4703 28.8805 20.2712C29.1475 20.6717 29.4144 20.6717 29.6814 20.4047C29.8149 20.2712 29.9484 20.1378 30.0819 20.0043C31.0163 19.3368 31.2833 18.0019 30.7493 16.934C30.2154 15.8661 28.8805 15.5991 27.9461 16.4001C27.2786 17.0675 27.2786 17.0675 26.4777 16.4001C25.9437 15.8661 25.2763 15.7326 24.4754 16.1331C23.8079 16.4001 23.4075 17.0675 23.4075 17.735C23.274 18.8029 23.6744 19.6038 24.6089 20.2712C25.1428 20.5382 25.6768 21.0722 26.0772 21.3392C26.3442 21.4726 26.4777 22.4071 26.3442 22.674C26.3442 22.8075 26.2107 22.8075 26.0772 22.8075C25.8103 22.8075 25.5433 22.8075 25.4098 22.8075C25.2763 22.8075 25.2763 22.8075 25.1428 22.8075C24.7423 22.941 24.3419 22.8075 24.0749 22.2736C23.9414 22.0066 23.6744 21.8731 23.5409 21.7396C21.9391 20.1378 21.4051 18.2689 22.0726 16.1331C22.74 13.9973 24.2084 12.6624 26.4777 12.3954C29.014 11.9949 31.4168 13.7303 32.2177 16.4001C32.8852 18.2689 32.3512 20.0043 30.8828 21.6061Z" fill="#D6EBFF"></path>
    <path id="Vector_3" d="M21.938 12.1286C22.0715 11.9951 22.3385 11.8617 22.472 11.5947C22.3385 11.4612 22.3385 11.4612 22.205 11.3277C22.0715 11.1942 21.8045 10.9272 21.671 10.7937C21.4041 10.5268 21.1371 9.99281 20.8701 10.1263C20.6031 10.1263 20.3362 10.6603 20.0692 10.9272C19.8022 11.0607 19.9357 11.1942 20.0692 11.3277C20.3362 11.5947 20.6031 11.8617 20.8701 12.1286C21.4041 12.6626 21.4041 12.6626 21.938 12.1286Z" fill="#D6EBFF"></path>
    <path id="Vector_4" d="M27.014 9.85915C28.0819 9.85915 28.0819 9.85915 28.0819 8.79124C28.0819 7.58984 28.0819 7.58984 26.8805 7.58984C26.6135 7.58984 26.6135 7.72333 26.6135 7.99031C26.6135 8.52426 26.6135 9.05822 26.6135 9.59217C26.48 9.85915 26.6135 9.85915 27.014 9.85915Z" fill="#D6EBFF"></path>
    <path id="Vector_5" d="M19.5383 16.6669C19.0043 16.6669 18.3369 16.6669 17.8029 16.6669C17.6694 16.6669 17.5359 16.6669 17.5359 16.9338C17.4025 18.2687 17.4025 18.2687 18.6039 18.2687C19.6718 18.2687 19.6718 18.2687 19.6718 17.2008V17.0673C19.8052 16.8004 19.8052 16.6669 19.5383 16.6669Z" fill="#D6EBFF"></path>
    <path id="Vector_6" d="M36.8928 16.6669C36.3588 16.6669 35.6914 16.6669 35.1574 16.6669C35.0239 16.6669 34.8904 16.6669 34.8904 16.9338C34.7569 18.2687 34.7569 18.2687 35.9583 18.2687C37.0263 18.2687 37.0263 18.2687 37.0263 17.2008V17.0673C37.1597 16.8004 37.0263 16.6669 36.8928 16.6669Z" fill="#D6EBFF"></path>
    <path id="Vector_7" d="M34.4896 10.7933C34.2226 10.5263 33.9556 10.1259 33.6887 10.1259C33.4217 10.1259 33.1547 10.5263 32.8877 10.7933C32.6208 11.0603 32.0868 11.3273 32.2203 11.5942C32.3538 11.9947 32.7542 12.1282 33.0212 12.5287C33.1547 12.6621 33.2882 12.6621 33.4217 12.5287C33.8222 12.1282 34.2226 11.7277 34.6231 11.3273C34.6231 11.3273 34.7566 11.1938 34.7566 11.0603C34.6231 10.9268 34.6231 10.9268 34.4896 10.7933Z" fill="#D6EBFF"></path>
    <path id="Vector_8" d="M27.2794 3.85193C19.4036 3.85193 12.9961 10.1259 12.9961 18.1352C12.9961 26.0111 19.4036 32.4185 27.2794 32.4185C35.1552 32.4185 41.5627 26.0111 41.5627 18.1352C41.5627 10.2594 35.1552 3.85193 27.2794 3.85193ZM27.2794 30.9501C20.338 30.9501 14.4645 25.2101 14.598 18.1352C14.598 11.0603 20.338 5.3203 27.4129 5.3203C34.4878 5.3203 40.2278 11.0603 40.2278 18.1352C40.0943 25.2101 34.3543 30.9501 27.2794 30.9501Z" fill="#D6EBFF"></path>
  </g>
</svg>
