<?xml version="1.0" encoding="UTF-8"?>
<svg xmlns="http://www.w3.org/2000/svg" width="47" height="45" viewBox="0 0 47 45" fill="none">
  <g id="Group">
    <path id="Vector" d="M44.0588 34.3548C43.9257 34.3548 43.9257 34.2217 43.7926 34.0886C43.6596 33.4233 43.3935 32.758 43.2604 32.0927C43.1274 31.4273 42.5951 31.1612 41.9298 31.4273C41.2645 31.5604 40.5991 31.8265 39.9338 31.9596C39.4016 32.0927 39.2685 32.3588 39.4015 32.8911C39.5346 33.2903 39.8007 33.4233 40.333 33.2903C40.8653 33.1572 41.2644 33.0241 41.7967 32.8911C42.0628 32.758 42.1959 32.8911 42.1959 33.1572C42.329 33.5564 42.462 34.0886 42.5951 34.4878C42.7282 34.754 42.5951 34.887 42.329 35.0201C36.7402 36.4838 31.1515 37.8145 25.5628 39.2782C25.2967 39.4112 25.1636 39.2782 25.0305 39.012C24.8975 38.7459 24.7644 38.3467 24.6314 38.0806C24.4983 37.8145 24.4983 37.6814 24.8975 37.6814C27.8249 36.883 30.8854 36.0846 33.8128 35.1532C34.8773 34.887 35.9419 34.6209 37.0064 34.2217C37.5386 34.0886 37.8047 33.5564 37.4055 33.1572C37.1394 32.8911 36.8733 32.8911 36.6072 33.0241C34.8773 33.5564 33.0144 33.9556 31.2846 34.4878C31.1515 34.4878 31.0185 34.6209 30.8854 34.4878C34.079 32.8911 37.2725 31.4273 40.466 29.8306C40.9983 29.5644 41.1314 29.2983 40.8653 28.8991C40.7322 28.4999 40.333 28.4999 39.8007 28.633C39.2684 28.8991 38.6031 29.1652 38.0709 29.4314C35.2765 30.762 32.4822 32.0927 29.6878 33.4233C29.5547 33.4233 29.5548 33.4233 29.5548 33.2903C31.9499 31.4273 34.3451 29.6975 36.7402 27.8346C36.8733 27.7015 37.0063 27.7015 37.1394 27.5685C37.4055 27.3023 37.4055 27.0362 37.1394 26.7701C36.8733 26.504 36.6072 26.504 36.341 26.637C36.208 26.7701 36.0749 26.9031 35.8088 26.9031C31.6837 29.9636 27.6919 33.0241 23.5669 36.0846C23.3007 36.2177 23.1677 36.3507 22.9015 36.0846C19.9741 33.8225 16.9136 31.5604 13.9862 29.2983C12.7886 28.3669 11.591 27.5685 10.3934 26.637C9.99421 26.2378 9.46197 26.3709 9.3289 26.9031C9.19584 27.3023 9.46195 27.5685 9.72808 27.7015C11.0587 28.7661 12.3893 29.6975 13.8531 30.762C14.9176 31.5604 15.9821 32.3588 17.1797 33.2903C17.1797 33.2903 17.1797 33.2903 17.1797 33.4233H17.0466H16.9136C14.1193 32.0927 11.3248 30.762 8.53046 29.2983C7.9982 29.0322 7.46596 28.7661 6.80064 28.4999C6.40144 28.3669 6.13535 28.4999 6.00228 28.7661C5.86922 29.0322 6.0023 29.4314 6.26843 29.6975L6.40146 29.8306C9.19582 31.1612 11.9902 32.6249 14.9176 33.9556C15.1838 34.0886 15.5829 34.2217 15.849 34.4878C15.716 34.6209 15.5829 34.4878 15.4499 34.4878C14.7845 34.3548 14.1192 34.0886 13.4539 33.9556C10.6595 33.1572 7.86514 32.3588 5.20384 31.6935C4.40545 31.4273 3.87323 31.6935 3.74016 32.4919C3.6071 32.8911 3.47405 33.4233 3.34098 33.8225C3.20792 34.3548 3.07484 34.6209 2.40951 34.6209C1.47806 34.6209 1.07888 35.2862 0.679688 36.0846V36.883C0.812752 37.5483 1.07887 38.0806 1.74419 38.3467C2.40951 38.6128 3.07481 38.7459 3.87319 38.879C4.27239 39.012 4.53857 38.7459 4.67163 38.3467C4.8047 38.0806 4.67165 37.6814 4.27245 37.4153C4.13939 37.2822 3.87323 37.2822 3.74016 37.1491C3.34097 37.0161 2.94179 37.0161 2.67566 36.883C2.40953 36.7499 2.14342 36.6169 2.27648 36.2177C2.40955 35.9515 2.67568 35.8185 2.94181 35.8185C3.07487 35.8185 3.20792 35.8185 3.34098 35.9515C4.4055 36.2177 5.47001 36.4838 6.40146 36.7499C11.1918 37.9475 15.9821 39.1451 20.7724 40.3427C21.3047 40.4757 21.5708 40.7419 21.7039 41.2741C21.7039 41.8064 21.97 42.0725 22.5023 42.3387C23.5668 42.8709 24.8975 42.3387 25.0305 41.2741C25.0305 40.7419 25.2966 40.4757 25.8289 40.3427C31.6837 38.879 37.5387 37.2822 43.5266 35.8185C43.6596 35.8185 43.7927 35.6854 43.9258 35.6854C44.1919 35.6854 44.458 35.8185 44.5911 36.0846C44.7241 36.3507 44.458 36.6169 44.1919 36.7499C44.0588 36.7499 44.0588 36.7499 43.9258 36.883C43.2604 37.0161 42.7281 37.2822 42.0628 37.4153C37.1394 38.6128 32.3491 39.9435 27.4257 41.1411C26.7604 41.2741 26.2281 41.5403 25.962 42.3387C25.5628 43.4032 24.3652 43.9354 23.1676 43.8024C22.2361 43.6693 21.4378 43.137 21.0386 42.2056C20.9055 41.8064 20.6394 41.4072 20.1071 41.2741C15.9821 40.2096 11.8571 39.1451 7.73211 38.0806C7.59904 38.0806 7.33288 37.9475 7.19982 37.9475C6.93369 37.9475 6.66756 38.0806 6.53449 38.4798C6.40143 38.879 6.53451 39.1451 6.80064 39.2782C6.9337 39.4112 7.19983 39.4112 7.46596 39.5443C10.5265 40.3427 13.4539 41.1411 16.5144 41.8064C17.4458 42.0725 18.2442 42.2056 19.1757 42.4717C19.4418 42.4717 19.7079 42.6048 19.841 42.8709C20.5063 44.0685 21.5708 44.8669 23.0346 44.9999H23.1676C23.4337 44.8669 23.6999 44.8669 23.966 44.9999H24.0991C25.5628 44.8669 26.6273 44.0685 27.4257 42.8709C27.5588 42.6048 27.8249 42.6048 28.091 42.4717C30.4862 41.8064 32.8813 41.2741 35.4096 40.6088C38.4701 39.8104 41.5306 39.012 44.5911 38.2136C45.5225 37.9475 46.1878 37.5483 46.3209 36.4838V35.9515C45.7886 34.887 45.1233 34.2217 44.0588 34.3548ZM21.9701 39.012C21.9701 39.1451 21.7039 39.012 21.5709 39.012C17.4459 37.9475 13.3208 36.883 9.19579 35.8185C7.73207 35.4193 6.26838 35.0201 4.80466 34.754C4.53854 34.754 4.40545 34.6209 4.53852 34.3548C4.67158 33.9556 4.80471 33.4233 4.93778 33.0241C4.93778 32.758 5.20386 32.6249 5.46999 32.758C9.06274 33.8225 12.7886 34.754 16.3813 35.8185C18.3773 36.3507 20.3733 36.883 22.3692 37.4153C22.5023 37.4153 22.6354 37.4153 22.6354 37.5483C22.3693 38.0806 22.2362 38.6128 21.9701 39.012ZM23.8329 40.6088C23.8329 40.8749 23.966 41.2741 23.5669 41.2741C23.1677 41.2741 23.4338 40.8749 23.3007 40.6088C22.9015 39.9435 23.3007 39.5443 23.5669 38.879C23.6999 39.2782 23.833 39.5443 23.966 39.9435C24.0991 40.0766 23.8329 40.3427 23.8329 40.6088Z" fill="#D6EBFF"></path>
    <path id="Vector_2" d="M33.2787 8.00777C32.3473 3.88277 29.8191 1.22147 25.561 0.29002C21.436 -0.641433 18.1093 0.689214 15.5811 4.01583C13.0529 7.34245 12.9198 11.9997 15.0488 15.3263C15.3149 15.7255 15.7141 15.8586 16.1133 15.5925C16.3795 15.3263 16.5126 14.9271 16.2464 14.5279C15.448 13.3304 15.0489 11.8666 14.9158 10.4029C14.7827 8.80616 15.0488 7.34245 15.8472 6.0118C16.2464 6.54406 16.3794 7.20938 16.5125 7.87471C16.7786 8.6731 16.9117 9.60455 17.3109 10.4029C17.7101 11.2013 18.2424 11.7336 19.0408 11.9997C19.7061 12.2658 20.2383 12.2658 20.7706 11.7336C21.3029 11.2013 21.3028 10.6691 21.1698 10.0037C21.1698 9.87068 21.0367 9.60455 21.0367 9.47148C20.9037 9.07229 20.9037 8.6731 21.3029 8.40697C21.569 8.14084 21.8351 7.87471 22.1012 7.47551C22.8996 6.54406 22.8997 5.74567 22.2344 4.94728C21.9682 4.54809 21.9682 4.1489 22.2344 3.7497C22.3674 3.48357 22.5005 3.35051 22.6335 3.08438C23.0327 2.55212 23.4319 2.15293 23.4319 1.4876C23.4319 1.35454 23.565 1.35454 23.698 1.35454C24.8956 1.35454 25.9601 1.62067 27.1577 2.15293C27.0246 2.28599 27.0247 2.41906 26.8916 2.55212C26.2263 3.7497 26.0932 4.94728 26.6255 6.14487C26.8916 6.94326 27.823 7.20938 28.4883 6.54406C28.7545 6.27793 29.0206 6.27793 29.2868 6.27793C29.819 6.27793 30.4843 6.411 31.0166 6.27793C31.4158 6.14487 31.5489 6.27793 31.6819 6.67713C32.6134 9.07229 32.4803 11.3344 31.5489 13.7296C31.0166 15.0602 30.0852 16.1247 28.8876 16.9231C28.7545 17.0562 28.7545 17.1892 28.6215 16.9231C28.2223 16.2578 28.0891 15.5925 28.4883 14.7941C28.7545 14.2618 29.1537 13.7296 29.4198 13.1973C29.6859 12.7981 29.9521 12.2658 30.0851 11.7336C30.6174 9.87068 29.4199 8.54003 27.5569 8.93923C26.0932 9.33842 24.7625 9.73761 23.4319 10.2699C22.5004 10.6691 22.1012 11.3344 21.8351 12.2658C21.702 12.9312 21.7021 13.4634 21.7021 14.1287C21.7021 15.0602 22.1013 15.5925 22.8997 15.9917C23.1658 16.1247 23.2988 16.2578 23.4319 16.5239C23.698 17.3223 23.8311 18.1207 24.6295 18.6529C24.3634 18.6529 24.2303 18.6529 24.0972 18.6529C22.2343 18.6529 20.3714 18.1207 18.7746 17.0562L18.6416 16.9231C18.2424 16.657 17.8432 16.657 17.5771 17.0562C17.311 17.3223 17.444 17.7215 17.8431 17.9876C20.2383 19.8505 23.0327 20.3828 25.9602 19.7175C31.0166 18.5199 34.4763 13.3304 33.2787 8.00777ZM21.4359 2.68518C21.0367 3.21744 20.9037 3.61664 20.7706 4.28196C20.7706 4.81422 20.9037 5.34648 21.3029 5.74567C21.7021 6.14487 21.7021 6.411 21.3029 6.81019C21.0368 7.07632 20.9037 7.20938 20.6376 7.47551C19.9722 8.14084 19.7061 9.07229 20.1053 10.0037V10.1368C20.1053 10.4029 20.3714 10.6691 20.1053 10.8021C19.8391 10.9352 19.573 10.8021 19.4399 10.6691C18.9077 10.4029 18.6415 9.87068 18.5085 9.33842C18.2423 8.54003 18.1093 7.74164 17.8431 6.94326C17.7101 6.27793 17.311 5.61261 16.9118 5.08035C16.7787 4.94728 16.7787 4.81422 16.9118 4.68116C18.2424 3.08438 19.9722 2.01986 22.1012 1.62067C22.1012 1.62067 22.2343 1.62067 22.3674 1.62067C21.9682 2.01986 21.702 2.28599 21.4359 2.68518ZM29.4198 5.08035C28.8875 5.08035 28.3553 5.08035 27.9561 5.34648C27.8231 5.47954 27.69 5.47954 27.69 5.21341C27.5569 4.41503 27.69 3.61664 28.2223 2.95131C28.3553 2.81825 28.4884 2.81825 28.6215 2.95131C29.4198 3.48357 30.0852 4.1489 30.6174 5.08035C30.2182 5.08035 29.819 5.08035 29.4198 5.08035ZM27.1577 17.3223C27.2908 17.4554 27.4239 17.7215 27.2908 17.7215C27.0247 17.8546 26.7585 18.1207 26.3593 17.9876H26.2263C25.0287 17.7215 24.3634 16.9231 24.2303 15.7255C24.0973 15.1933 23.698 14.7941 23.1657 14.661C22.7665 14.5279 22.6335 14.2618 22.6335 13.9957C22.6335 13.4634 22.6335 12.9312 22.7666 12.3989C22.8996 11.9997 23.1658 11.6005 23.565 11.4675C24.8957 10.9352 26.3593 10.536 27.69 10.1368H27.823C28.3553 10.1368 28.6215 10.536 28.6215 11.0683C28.4884 11.6005 28.2223 11.9997 27.9561 12.3989C27.5569 12.9312 27.1578 13.4634 26.8916 14.1287C26.4924 15.1933 26.6254 16.2578 27.1577 17.3223Z" fill="#D6EBFF"></path>
    <path id="Vector_3" d="M42.9947 5.08013C41.9302 4.54787 41.1318 3.88254 40.7326 2.81803C40.5995 2.41883 40.2003 2.28577 39.8011 2.28577C39.4019 2.28577 39.0028 2.41883 38.8697 2.81803C38.4705 3.88254 37.6721 4.54787 36.6076 5.08013C35.8092 5.47932 35.8092 6.6769 36.6076 6.94303C37.6721 7.47529 38.3374 8.14061 38.8697 9.20513C39.2689 10.0035 40.4664 10.0035 40.7326 9.20513C41.2648 8.14061 41.9302 7.47529 42.9947 6.94303C43.7931 6.6769 43.7931 5.47932 42.9947 5.08013ZM39.8011 8.40674C39.4019 7.87449 39.2689 7.34223 38.8697 6.94303C38.4705 6.54384 37.9382 6.41077 37.4059 6.01158C38.4705 5.61238 39.2689 4.94706 39.6681 3.88254C40.0672 4.94706 40.8657 5.74545 41.9302 6.14464C40.9987 6.54384 40.2003 7.20916 39.8011 8.40674Z" fill="#D6EBFF"></path>
    <path id="Vector_4" d="M10.2591 15.8584C9.19459 15.4592 8.52921 14.7939 8.13002 13.7294C7.73082 12.931 6.53324 12.931 6.13405 13.7294C5.73485 14.6609 5.06956 15.3262 4.00504 15.8584C3.20665 16.2576 3.20665 17.4552 4.00504 17.8544C4.9365 18.2536 5.73488 18.9189 6.00101 19.9834C6.00101 19.9834 6.00101 19.9834 6.00101 20.1165C6.53327 20.9149 7.59774 20.9149 7.86387 20.1165C8.39613 19.052 9.06151 18.3867 9.99296 17.9875C10.3922 17.8544 10.5252 17.4552 10.5252 17.056C10.7913 16.3907 10.6583 15.9915 10.2591 15.8584ZM7.86387 17.5883C7.46468 17.9875 7.33165 18.3867 7.06552 18.9189C6.66632 17.8544 6.00103 17.1891 4.93651 16.7899C6.00103 16.3907 6.66632 15.7254 7.06552 14.6609C7.46471 15.7254 8.13 16.3907 9.19452 16.7899C8.79533 17.1891 8.26307 17.3222 7.86387 17.5883Z" fill="#D6EBFF"></path>
    <path id="Vector_5" d="M26.7617 27.0358C25.6972 26.5035 25.0319 25.8382 24.6327 24.9068C24.2335 24.1084 23.0359 24.1084 22.7698 24.9068C22.2375 25.8382 21.5722 26.6366 20.6408 27.0358C19.8424 27.435 19.8424 28.6326 20.6408 28.8987C21.7053 29.431 22.3706 30.0963 22.7698 31.0278C22.9029 31.4269 23.3021 31.56 23.7013 31.56C24.1005 31.56 24.4997 31.4269 24.6327 31.0278C25.0319 29.9632 25.8303 29.2979 26.7617 28.7657C27.5601 28.6326 27.5601 27.435 26.7617 27.0358ZM24.4996 28.7657C24.1004 29.0318 23.9674 29.6971 23.5682 30.0963C23.169 29.0318 22.5037 28.3665 21.4391 27.9673C21.9714 27.5681 22.5037 27.5681 22.7698 27.1689C23.0359 26.7697 23.3021 26.3705 23.5682 25.8382C23.9674 26.9027 24.6327 27.5681 25.6972 27.9673C25.298 28.2334 24.7657 28.4995 24.4996 28.7657Z" fill="#D6EBFF"></path>
  </g>
</svg>
