<?xml version="1.0" encoding="UTF-8"?>
<svg xmlns="http://www.w3.org/2000/svg" width="45" height="43" viewBox="0 0 45 43" fill="none">
  <g id="Group">
    <path id="Vector" d="M41.9893 38.5342C41.7186 38.5342 41.7186 38.3989 41.7186 38.2636C41.7186 36.5043 41.7186 34.8804 41.7186 33.1212C41.7186 32.8505 41.7186 32.8505 41.9893 32.8505C42.6659 32.7152 43.2072 32.4445 43.6132 31.7679C44.4251 30.2793 43.3425 28.5201 41.7186 28.5201C37.5235 28.5201 33.1931 28.5201 28.9979 28.5201H28.4566C28.7273 28.3847 28.8626 28.2494 28.9979 28.2494C33.4637 25.6782 36.0349 20.6711 35.3583 15.5287C35.3583 15.1227 35.3583 14.9874 35.7643 14.7168C38.3355 13.3635 40.9067 12.0102 43.4779 10.657C43.7485 10.5216 44.0192 10.251 44.0192 9.98033C44.0192 9.57435 43.7485 9.43903 43.4779 9.3037C41.7187 8.49174 39.9594 7.67978 38.2001 6.86782C33.193 4.56727 28.186 2.40205 23.1789 0.101495C22.7729 -0.0338316 22.5022 -0.0338316 22.0962 0.101495C15.3299 3.214 8.42829 6.19119 1.66196 9.3037C1.39131 9.43903 1.12062 9.57435 1.12062 9.98033C1.12062 10.3863 1.39131 10.5216 1.66196 10.657C2.33859 11.0629 3.01523 11.3336 3.69186 11.7396C3.96251 11.8749 4.09782 12.0102 4.09782 12.2809C4.09782 13.0928 4.09782 13.9048 4.09782 14.7168C4.09782 14.9874 4.09784 15.1227 3.69186 15.2581C2.47392 15.7994 1.93263 16.6113 1.93263 17.8293C1.93263 18.5059 1.93263 19.1825 1.93263 19.8592C1.93263 20.4005 2.20325 20.6711 2.74456 20.6711C4.09782 20.6711 5.45109 20.6711 6.80435 20.6711C7.34566 20.6711 7.61636 20.4005 7.61636 19.8592C7.61636 19.1825 7.61636 18.6412 7.61636 17.9646C7.61636 16.6113 6.9397 15.664 5.72176 15.1227C5.58643 15.1227 5.45109 15.1227 5.45109 14.8521C5.45109 14.1755 5.45109 13.3635 5.45109 12.5515C6.93968 13.3635 8.29296 14.0401 9.78155 14.8521C9.91688 14.9874 9.91685 15.1227 9.91685 15.2581C9.91685 15.664 9.78155 16.2053 9.78155 16.6113C9.78155 21.7537 11.9468 25.6782 16.2772 28.2494C16.4125 28.2494 16.5479 28.3847 16.5479 28.5201C13.8413 28.5201 11.1348 28.5201 8.42829 28.5201C8.02231 28.5201 7.6163 28.5201 7.21032 28.6554C3.5565 29.1967 0.850001 32.4445 0.985328 36.2337C1.25598 39.8875 4.36851 42.8647 8.02232 43C19.2544 43 30.4865 43 41.7186 43C42.9365 43 43.8839 42.188 43.8839 40.9701C44.0192 39.6168 43.2072 38.6696 41.9893 38.5342ZM29.1332 26.2195C25.2088 28.926 21.149 29.1967 16.9538 27.0315C16.6832 26.8961 16.6832 26.7608 16.6832 26.4902C16.6832 24.7309 16.6832 22.9717 16.6832 21.0771C16.6832 20.8065 16.6832 20.6711 16.9538 20.5358C17.3598 20.1298 17.7658 19.7238 18.1718 19.3179C18.8484 18.6412 19.5251 17.9646 20.4724 17.6939C20.6077 17.5586 20.743 17.5586 20.8783 17.288C21.0137 17.0173 21.0137 16.882 20.8783 16.6113C20.6077 15.7994 20.4724 14.8521 20.2017 14.0401C20.0664 13.6341 19.9311 13.4988 19.5251 13.3635C18.7131 13.2282 17.9012 12.9575 17.0892 12.6869C16.6832 12.5515 16.4125 12.5515 16.0065 12.6869C15.4652 12.8222 14.7886 12.9575 14.2473 13.0928C13.3 13.3635 12.4881 12.9575 11.6762 12.9575C11.5408 12.9575 11.5408 12.8222 11.5408 12.6869C12.0821 11.0629 13.0294 9.70968 14.2473 8.49174C14.3826 8.35641 14.3827 8.35641 14.518 8.49174C14.6533 8.62707 14.7887 8.62707 14.7887 8.76239C16.0066 9.845 17.3599 10.5216 18.8484 11.3336C19.7957 11.8749 20.8783 11.8749 21.9609 12.1456C22.6376 12.2809 23.3142 12.4162 23.9908 12.5515C24.3968 12.6869 24.6675 12.5515 24.9381 12.1456L25.0734 12.0102C25.6147 10.7923 26.5621 9.98033 27.9153 9.70968C28.4566 9.57435 28.7273 9.03304 29.1332 8.76239C29.6745 8.35641 29.6746 8.22109 30.0805 8.76239C30.4865 9.16837 30.7572 9.57435 31.1631 9.845C31.2985 9.98033 31.2985 10.1157 31.1631 10.251C29.6745 11.4689 28.1859 12.6869 26.8327 14.0401C26.6973 14.1755 26.562 14.1755 26.4267 14.3108C26.0207 14.4461 25.6148 14.7168 25.2088 14.8521C23.7202 15.3934 22.367 16.2054 21.149 17.0173C21.0137 17.1526 20.8783 17.288 20.743 17.4233C20.4723 18.7766 20.337 20.2651 20.0663 21.6184C19.931 22.1597 20.0664 22.4304 20.6077 22.701C21.2843 22.9717 21.9609 23.3777 22.6376 23.6483C22.9082 23.7836 22.9082 23.919 22.9082 24.1896C22.9082 24.5956 22.9082 25.1369 22.9082 25.5429C22.9082 26.0842 23.1789 26.3548 23.7202 26.3548C24.6675 26.3548 25.6148 26.3548 26.5621 26.3548C26.8327 26.3548 26.968 26.2195 27.1033 26.0842C27.5093 25.8135 28.0506 25.5429 28.4566 25.1369C28.7273 24.8662 28.9979 24.8662 29.4039 25.0016C29.6746 25.1369 29.9452 25.1369 30.2158 25.2722C29.9452 25.6782 29.5392 25.9489 29.1332 26.2195ZM15.736 7.67978C19.2544 4.97325 24.6675 4.7026 28.7273 7.40913C28.186 8.22109 27.374 8.62707 26.4267 8.89772C25.7501 9.03305 25.2088 9.43903 24.9381 9.98033C24.9381 10.1157 24.8028 10.251 24.6675 10.3863C24.1262 11.1983 24.1262 11.1983 23.1789 11.0629C22.5023 10.9276 21.8256 10.7923 21.149 10.7923C20.6077 10.657 20.0664 10.5216 19.6604 10.251C18.3071 9.57435 16.9539 8.76239 15.736 7.67978ZM31.5691 23.7836C31.4338 24.0543 31.2985 24.0543 31.0278 24.0543C30.3512 23.919 29.8099 23.7836 29.1332 23.6483C28.8626 23.513 28.4566 23.6483 28.1859 23.7836C27.9153 23.919 27.78 24.0543 27.5093 24.1896C26.6973 25.0016 25.7501 25.0016 24.6675 25.0016C24.3968 25.0016 24.3968 24.8662 24.3968 24.7309C24.3968 24.3249 24.3968 24.0543 24.3968 23.6483C24.3968 23.2423 24.2615 22.9717 23.8555 22.8363C23.1789 22.5657 22.5023 22.1597 21.8256 21.8891C21.555 21.7537 21.555 21.7537 21.555 21.4831C21.6903 20.5358 21.9609 19.5885 22.0962 18.6412C22.0962 18.3706 22.2316 18.2352 22.3669 18.0999C23.7202 17.0173 25.4794 16.476 27.1033 15.7994C27.5093 15.664 27.78 15.5287 28.0506 15.2581C29.2686 14.0401 30.4865 12.8222 31.9751 11.7396C32.2458 11.6042 32.2458 11.6042 32.3811 11.8749C33.1931 13.3635 33.7344 15.3934 33.7344 17.6939C33.8697 19.4532 33.0577 21.7537 31.5691 23.7836ZM5.85705 17.5586C5.85705 18.0999 5.99238 18.7766 5.85705 19.0472C5.5864 19.3179 4.90976 19.0472 4.50378 19.1825C4.36846 19.1825 4.2332 19.1825 4.2332 19.1825C3.82722 19.0472 3.15052 19.5885 3.15052 18.9119C3.01519 17.1526 3.42121 16.476 4.36849 16.3407C5.04512 16.2054 5.85705 16.7467 5.85705 17.5586ZM9.64626 13.2282C7.61636 12.1456 5.72176 11.0629 3.69186 10.1157C3.55653 10.1157 3.42122 9.98033 3.2859 9.845C5.45112 8.89772 7.61636 7.95043 9.64626 7.00315C13.8414 5.10858 17.9011 3.34933 22.0962 1.45476C22.3669 1.31943 22.5022 1.31943 22.7729 1.45476C28.9979 4.29662 35.2229 7.00315 41.3126 9.845C41.4479 9.845 41.448 9.845 41.5833 9.98033C39.2827 11.1983 37.1175 12.4162 34.817 13.4988C34.6816 13.3635 34.6817 13.2282 34.6817 12.9575C32.7871 7.40913 27.6447 3.89064 21.8256 4.16129C16.5479 4.43194 11.8114 8.08576 10.1875 13.0928C10.0522 13.3635 9.91691 13.3635 9.64626 13.2282ZM15.6006 19.8592C15.3299 20.1298 15.1946 20.4005 15.1946 20.6711C15.1946 22.1597 15.1946 23.7836 15.1946 25.2722V25.8135C11.8115 22.701 10.3229 19.1825 11.1348 14.7168C11.1348 14.4461 11.2701 14.3108 11.5408 14.4461C12.2174 14.5814 12.894 14.7168 13.5707 14.7168C13.706 14.7168 13.9767 14.7168 14.112 14.7168C14.518 14.5814 14.7886 14.5814 15.1946 14.4461C16.4126 13.9048 17.6305 14.3108 18.8484 14.5814C18.9838 14.5814 19.1191 14.7168 19.1191 14.8521C19.2544 15.3934 19.3898 15.7994 19.5251 16.3407C19.5251 16.476 19.6604 16.6113 19.3897 16.6113C18.3071 17.0173 17.6305 17.9646 16.8185 18.7766C16.2772 19.1825 15.8712 19.5885 15.6006 19.8592ZM41.3126 41.3761C30.2158 41.3761 19.1191 41.3761 8.02232 41.3761C4.77449 41.3761 2.2033 38.8049 2.2033 35.557C2.2033 32.4445 4.77444 29.8733 7.88695 29.8733C13.4353 29.8733 18.9838 29.8733 24.5322 29.8733C30.0806 29.8733 35.6289 29.8733 41.3126 29.8733C41.4479 29.8733 41.5833 29.8733 41.7186 29.8733C42.1246 29.8733 42.3952 30.2793 42.3952 30.55C42.3952 30.9559 42.1246 31.2266 41.7186 31.2266C41.5833 31.2266 41.4479 31.2266 41.3126 31.2266C30.7572 31.2266 20.2017 31.2266 9.64626 31.2266C7.48103 31.2266 5.8571 32.4445 5.31579 34.4744C4.63916 37.0456 6.53368 39.7522 9.24021 39.8875C9.37554 39.8875 9.64623 39.8875 9.78155 39.8875C20.337 39.8875 30.7572 39.8875 41.3126 39.8875C41.9893 39.8875 42.3952 40.1581 42.3952 40.5641C42.5305 41.1054 42.1246 41.3761 41.3126 41.3761ZM40.3653 38.1282C40.3653 38.3989 40.3653 38.5342 39.9594 38.5342C38.7414 38.5342 37.5235 38.5342 36.3055 38.5342C36.1702 38.5342 36.0349 38.3989 35.7643 38.5342C34.5463 38.5342 33.1931 38.5342 31.9751 38.5342C31.8398 38.5342 31.7045 38.3989 31.4338 38.5342C24.1262 38.5342 16.8185 38.5342 9.51088 38.5342C7.88696 38.5342 6.66906 37.181 6.66906 35.6924C6.66906 34.0685 7.88696 32.8505 9.51088 32.8505C14.7886 32.8505 20.2017 32.8505 25.4794 32.8505C30.2158 32.8505 34.9523 32.8505 39.8241 32.8505C40.3654 32.8505 40.3653 32.9858 40.3653 33.3918C40.3653 34.8804 40.3653 36.5043 40.3653 38.1282Z" fill="#D6EBFF"></path>
  </g>
</svg>
