<?xml version="1.0" encoding="UTF-8"?><svg id="Layer_1" xmlns="http://www.w3.org/2000/svg" viewBox="0 0 44.97 45"><defs><style>.cls-1{fill:#fff;stroke-width:0px;}</style></defs><g id="Group"><path id="Vector" class="cls-1" d="M44.52,14.13C41.98,3.45,31.04-2.56,20.62,1.05c-10.68,3.87-15.08,16.69-9.21,26.3.27.4.8.8.67,1.2-.13.4-.67.67-.93,1.07-.13.13-.27.13-.4,0-.93-.4-1.47-.4-2.14.27-2.67,2.67-5.34,5.34-8.01,8.01-.8.8-.8,1.6,0,2.4,1.33,1.33,2.67,2.67,4,4,.67.93,1.47.93,2.4,0,1.47-1.47,2.94-2.94,4.27-4.27,1.2-1.2,2.54-2.54,3.74-3.74.53-.53.67-1.07.4-1.6-.4-.53-.13-.8.27-1.07.13-.13.27-.27.4-.4.27-.27.4-.27.67,0,3.07,2,6.41,3.07,10.15,3.07,1.07,0,2.14-.13,3.34-.4,10.01-1.87,16.55-11.88,14.28-21.76ZM13.82,35.36c-2.67,2.67-5.34,5.34-7.88,7.88-.13.13-.27.13-.4,0-1.33-1.33-2.54-2.54-3.87-3.87-.13-.13-.13-.27,0-.4,2.67-2.67,5.34-5.21,7.88-7.88.13-.13.27-.13.4,0,1.33,1.33,2.54,2.54,3.87,3.87l.13.13q0,.13-.13.27ZM14.22,32.82c-.13.13-.27.13-.4,0-.53-.53-1.2-1.2-1.74-1.74-.13-.13-.13-.27,0-.4.27-.27.53-.8.93-.8.27,0,.53.53.8.8.4.4.8.8,1.33,1.2-.27.4-.67.67-.93.93ZM26.63,34.69c-8.94,0-16.42-7.48-16.42-16.55S17.69,1.58,26.76,1.58s16.55,7.34,16.55,16.55c.13,9.08-7.34,16.55-16.69,16.55Z"/><path id="Vector_2" class="cls-1" d="M26.36,10.66c-3.47.13-6.27,3.2-6.41,6.67,0,2.14.67,3.87,2.27,5.34.53.53.8,1.07.67,1.74v1.33c0,1.07.53,2,1.47,2.54.67.4,1.47.4,2.27.4h.8c1.6,0,2.8-1.07,3.07-2.67v-1.6c0-.67.27-1.33.8-1.74,1.74-1.74,2.54-3.74,2.14-6.14-.4-3.47-3.47-6.01-7.07-5.87ZM24.76,26.55h4c-.8,1.07-3.2,1.07-4,0ZM29.03,24.54c0,.27.13.4-.27.4h-3.87c-.27,0-.4-.13-.27-.4,0-.27-.13-.4.27-.4h3.87q.27.13.27.4ZM30.37,21.61c-.27.27-.67.53-.8.93l-.13.13h-1.74c-.13,0-.13-.13-.13-.27v-1.07c0-.4-.13-.67-.4-.93-.8-.53-1.47-1.07-2.27-1.6-.27-.27-.53-.8-.4-1.2.13-.27.27-.27.53-.13.13.13.27.27.4.4.8.8,1.87.8,2.67,0,.13-.13.4-.53.67-.4.4.13.13.53.13.93,0,.27-.27.4-.4.53-.8.53-.67.53-.13,1.33.27.4.53.4.8.13.13-.13.27-.27.4-.4.93-.67,1.2-2,.67-3.07-.53-1.07-1.87-1.33-2.8-.53q-.67.67-1.47,0c-.53-.53-1.2-.67-2-.27-.67.27-1.07.93-1.07,1.6-.13,1.07.27,1.87,1.2,2.54.53.27,1.07.8,1.47,1.07.27.13.4,1.07.27,1.33,0,.13-.13.13-.27.13h-.93c-.4.13-.8,0-1.07-.53-.13-.27-.4-.4-.53-.53-1.6-1.6-2.14-3.47-1.47-5.61.67-2.14,2.14-3.47,4.41-3.74,2.54-.4,4.94,1.33,5.74,4,.67,1.87.13,3.6-1.33,5.21Z"/><path id="Vector_3" class="cls-1" d="M21.42,12.13c.13-.13.4-.27.53-.53q-.13-.13-.27-.27c-.13-.13-.4-.4-.53-.53-.27-.27-.53-.8-.8-.67-.27,0-.53.53-.8.8-.27.13-.13.27,0,.4.27.27.53.53.8.8q.53.53,1.07,0Z"/><path id="Vector_4" class="cls-1" d="M26.5,9.86q1.07,0,1.07-1.07t-1.2-1.2c-.27,0-.27.13-.27.4v1.6c-.13.27,0,.27.4.27Z"/><path id="Vector_5" class="cls-1" d="M19.02,16.67h-1.74c-.13,0-.27,0-.27.27q-.13,1.33,1.07,1.33t1.07-1.07v-.13c.13-.27.13-.4-.13-.4Z"/><path id="Vector_6" class="cls-1" d="M36.38,16.67h-1.74c-.13,0-.27,0-.27.27q-.13,1.33,1.07,1.33t1.07-1.07v-.13c.13-.27,0-.4-.13-.4Z"/><path id="Vector_7" class="cls-1" d="M33.97,10.79c-.27-.27-.53-.67-.8-.67s-.53.4-.8.67c-.27.27-.8.53-.67.8.13.4.53.53.8.93.13.13.27.13.4,0,.4-.4.8-.8,1.2-1.2,0,0,.13-.13.13-.27l-.27-.27Z"/><path id="Vector_8" class="cls-1" d="M26.76,3.85c-7.88,0-14.28,6.27-14.28,14.28s6.41,14.28,14.28,14.28,14.28-6.41,14.28-14.28-6.41-14.28-14.28-14.28ZM26.76,30.95c-6.94,0-12.81-5.74-12.68-12.81,0-7.07,5.74-12.81,12.81-12.81s12.81,5.74,12.81,12.81c-.13,7.07-5.87,12.81-12.95,12.81Z"/></g></svg>