<?xml version="1.0" encoding="UTF-8"?>
<svg xmlns="http://www.w3.org/2000/svg" width="45" height="46" viewBox="0 0 45 46" fill="none">
  <g id="Group 1000004409">
    <g id="Group">
      <path id="Vector" d="M22.5 45.0352C34.9264 45.0352 45 34.9616 45 22.5352C45 10.1087 34.9264 0.0351562 22.5 0.0351562C10.0736 0.0351562 0 10.1087 0 22.5352C0 34.9616 10.0736 45.0352 22.5 45.0352Z" fill="#FFCA2E"></path>
    </g>
    <g id="Group_2">
      <path id="Vector_2" d="M33.4702 24.2721C32.8123 23.8022 32.2484 23.3886 31.5341 22.8999C32.4363 22.3548 32.3048 20.7946 33.8837 21.0014C34.41 20.2683 34.974 19.4788 35.5943 18.6142C35.2183 18.3322 34.8612 18.0691 34.4288 17.7495C33.5266 18.9901 32.6807 20.1743 31.7972 21.3961C29.7672 20.7382 27.7371 20.0803 25.7446 19.4036C25.4438 19.3097 25.1431 19.0653 24.9551 18.8021C23.6957 17.242 22.4927 15.6442 21.2333 14.1029C20.9137 13.7081 20.9137 13.445 21.2145 13.0502C21.9664 12.054 22.6619 11.0201 23.4325 9.92991C22.6243 9.3284 21.8348 8.76449 21.0077 8.16298C21.2521 7.78704 21.4776 7.46749 21.7784 7.03516C27.1732 10.8886 32.5679 14.7232 38.0003 18.5954C37.7371 18.9901 37.5116 19.3097 37.2484 19.6856C36.9664 19.5352 36.7409 19.4036 36.4589 19.2533C35.895 20.0427 34.974 20.7758 34.8988 21.5653C34.8048 22.6179 34.1093 23.1443 33.7145 23.9149C33.6582 24.0277 33.5642 24.1217 33.4702 24.2721Z" fill="white"></path>
      <path id="Vector_3" d="M8 15.3435C8.31955 15.3247 8.6203 15.3059 8.93985 15.3059C12.6993 15.3059 16.4587 15.3247 20.2181 15.2871C21.0452 15.2871 21.5151 15.5503 21.7595 16.4149C17.5677 16.4149 13.3948 16.4149 9.14662 16.4149C9.14662 20.7195 9.14662 24.93 9.14662 29.2534C12.3797 29.2534 15.6128 29.2534 19.0527 29.2534C18.1692 30.024 17.4737 30.4752 16.4211 30.4564C13.6391 30.3812 10.8572 30.4376 8 30.4376C8 25.3812 8 20.3811 8 15.3435Z" fill="white"></path>
      <path id="Vector_4" d="M24.8618 32.0917C23.4708 32.0729 22.2866 30.9075 22.2678 29.5165C22.249 28.1255 23.4896 26.8661 24.8994 26.8661C26.3092 26.8661 27.5122 28.0691 27.5122 29.5165C27.4934 30.9827 26.328 32.1105 24.8618 32.0917Z" fill="white"></path>
      <path id="Vector_5" d="M14.0156 22.242C14.0156 21.9412 14.0156 21.6593 14.0156 21.3397C18.0006 21.3397 21.9668 21.3397 25.9706 21.3397C25.9706 21.6405 25.9706 21.9224 25.9706 22.242C21.9856 22.242 18.0194 22.242 14.0156 22.242Z" fill="white"></path>
      <path id="Vector_6" d="M30.8193 33.0691C30.011 33.1819 29.4095 33.3135 28.808 33.351C28.2441 33.3886 27.9057 33.5578 27.7554 34.1593C27.5862 34.7796 27.3042 35.3811 27.0223 36.0954C26.308 35.1932 25.6313 34.3473 24.917 33.445C26.1952 32.43 27.417 31.4713 28.7328 30.4187C29.3907 31.2646 30.0298 32.0728 30.8193 33.0691Z" fill="white"></path>
      <path id="Vector_7" d="M21.2138 35.4376C21.1011 34.6481 20.9319 34.0654 20.9507 33.5015C20.9695 32.806 20.6499 32.5052 20.0296 32.3172C19.4469 32.1481 18.883 31.8849 18.1875 31.6218C19.1086 30.8887 19.9168 30.2308 20.8379 29.5165C21.8153 30.7571 22.774 31.9601 23.8642 33.3323C23.0372 33.9902 22.1913 34.6481 21.2138 35.4376Z" fill="white"></path>
      <path id="Vector_8" d="M25.9698 23.3698C25.9886 23.6517 26.0074 23.8961 26.0262 24.2156C22.0225 24.2156 18.0563 24.2156 14.0337 24.2156C14.0149 23.9525 14.0149 23.6893 13.9961 23.3698C17.9811 23.3698 21.9097 23.3698 25.9698 23.3698Z" fill="white"></path>
      <path id="Vector_9" d="M25.951 25.3435C25.951 25.6255 25.951 25.8886 25.951 26.2082C21.9661 26.2082 18.0563 26.2082 14.0337 26.2082C13.9961 25.9638 13.9585 25.7007 13.9209 25.3435C17.9435 25.3435 21.8909 25.3435 25.951 25.3435Z" fill="white"></path>
      <path id="Vector_10" d="M31.0077 30.5504C30.5566 30.2121 30.1242 29.8925 29.8047 29.6482C29.9175 29.0843 30.0491 28.7083 30.0678 28.3512C30.0866 26.1331 30.0866 23.9338 30.0866 21.7158C30.9701 21.697 31.2897 21.9977 31.2709 22.8624C31.2145 25.3436 31.2521 27.8436 31.2521 30.3437C31.1581 30.4 31.0829 30.4752 31.0077 30.5504Z" fill="white"></path>
      <path id="Vector_11" d="M23.3763 19.8359C21.1207 19.8359 18.8838 19.8359 16.647 19.8359C16.4402 19.2156 16.5906 18.9525 17.2485 18.9713C19.0906 18.9901 20.9139 18.9901 22.756 18.9713C23.3387 18.9713 23.6019 19.1404 23.3763 19.8359Z" fill="white"></path>
    </g>
  </g>
</svg>
