<?xml version="1.0" encoding="UTF-8"?>
<svg xmlns="http://www.w3.org/2000/svg" width="46" height="46" viewBox="0 0 46 46" fill="none">
  <g id="Group 1000004411">
    <g id="Group">
      <path id="Vector" d="M22.5176 45.0352C34.9537 45.0352 45.0352 34.9537 45.0352 22.5176C45.0352 10.0815 34.9537 0 22.5176 0C10.0815 0 0 10.0815 0 22.5176C0 34.9537 10.0815 45.0352 22.5176 45.0352Z" fill="#FFCA2E"></path>
    </g>
    <g id="Group_2">
      <g id="Group_3">
        <g id="Group_4">
          <path id="Vector_2" d="M13.038 28.0127C14.5563 28.0127 15.7986 26.7704 15.7986 25.2521C15.7986 23.7338 14.5563 22.4916 13.038 22.4916C11.5197 22.4916 10.2775 23.7338 10.2775 25.2521C10.2775 26.7704 11.5197 28.0127 13.038 28.0127ZM29.6014 25.1831C29.6014 26.7014 30.8437 27.9437 32.362 27.9437C33.8803 27.9437 35.1225 26.7014 35.1225 25.1831C35.1225 23.6648 33.8803 22.4225 32.362 22.4225C30.8437 22.4225 29.6014 23.6648 29.6014 25.1831ZM28.2901 26.1493C28.1521 25.4592 28.1521 24.7 28.3592 23.8718C28.7042 22.7676 29.5324 21.9394 30.5676 21.4563C31.4648 21.0423 32.293 20.9732 33.0521 21.1113C33.2592 21.1803 33.4662 20.9732 33.4662 20.7662V11.3803C33.4662 10.6211 32.8451 10 32.0859 10H13.4521C12.693 10 12.0718 10.6211 12.0718 11.3803V20.7662C12.0718 20.9732 12.2789 21.1113 12.4859 21.1113C13.3831 20.9732 14.3493 21.1113 15.3845 21.8014C16.1437 22.2845 16.6958 23.0437 16.9718 23.8718C17.2479 24.7 17.2479 25.4592 17.1099 26.1493C17.0408 26.3563 17.2479 26.5634 17.4549 26.5634H18.2831C18.5592 26.5634 18.6972 26.4254 18.6972 26.2873C19.1113 24.493 20.7676 23.1127 22.769 23.1127C24.7014 23.1127 26.3577 24.493 26.8408 26.2873C26.9099 26.4254 26.9789 26.5634 27.1859 26.5634H28.0831C28.2211 26.5634 28.3592 26.3563 28.2901 26.1493ZM22.3549 19.5239H17.5239C17.0408 19.5239 16.6268 19.1099 16.6268 18.6268C16.6268 18.1437 17.0408 17.7296 17.5239 17.7296H22.3549C22.838 17.7296 23.2521 18.1437 23.2521 18.6268C23.2521 19.1099 22.838 19.5239 22.3549 19.5239ZM17.5239 16.0732C17.0408 16.0732 16.6268 15.6592 16.6268 15.1761C16.6268 14.693 17.0408 14.2789 17.5239 14.2789H28.5662C29.0493 14.2789 29.4634 14.693 29.4634 15.1761C29.4634 15.6592 29.0493 16.0732 28.5662 16.0732H17.5239ZM15.7986 29.393H10.2775C9.03521 29.393 8 30.4282 8 31.6704V32.2916C8 32.7056 8.27606 32.9817 8.69014 32.9817H16.0746C16.2127 32.9817 16.3507 32.8437 16.4197 32.7056C16.6268 31.9465 17.0408 31.3254 17.662 30.8423C17.8 30.7042 17.869 30.4972 17.731 30.3592C17.3169 29.807 16.6268 29.393 15.7986 29.393ZM35.1225 29.393H29.6014C28.7732 29.393 28.0831 29.807 27.669 30.4282C27.6 30.5662 27.6 30.7732 27.738 30.9113C28.2901 31.3944 28.7732 32.0155 28.9803 32.7746C29.0493 32.9127 29.1873 33.0507 29.3254 33.0507H36.7099C37.1239 33.0507 37.4 32.7747 37.4 32.3606V31.7394C37.4 30.4282 36.3648 29.393 35.1225 29.393Z" fill="white"></path>
          <path id="Vector_3" d="M22.7001 30.0831C24.2184 30.0831 25.4607 28.8409 25.4607 27.3226C25.4607 25.8043 24.2184 24.562 22.7001 24.562C21.1818 24.562 19.9396 25.8043 19.9396 27.3226C19.9396 28.8409 21.1818 30.0831 22.7001 30.0831ZM25.4607 31.4634H19.9396C18.6973 31.4634 17.6621 32.4986 17.6621 33.7409V34.362C17.6621 34.7761 17.9382 35.0522 18.3523 35.0522H27.048C27.4621 35.0522 27.7382 34.7761 27.7382 34.362V33.7409C27.7382 32.4986 26.703 31.4634 25.4607 31.4634Z" fill="white"></path>
        </g>
      </g>
    </g>
  </g>
</svg>
