<?xml version="1.0" encoding="UTF-8"?>
<svg xmlns="http://www.w3.org/2000/svg" width="45" height="46" viewBox="0 0 45 46" fill="none">
  <g id="Group 1000004410">
    <g id="Group">
      <path id="Vector" d="M22.5 45.5352C34.9264 45.5352 45 35.4616 45 23.0352C45 10.6087 34.9264 0.535156 22.5 0.535156C10.0736 0.535156 0 10.6087 0 23.0352C0 35.4616 10.0736 45.5352 22.5 45.5352Z" fill="#FFCA2E"></path>
    </g>
    <g id="Group_2">
      <g id="Group_3">
        <g id="Group_4">
          <g id="Group_5">
            <g id="Group_6">
              <path id="Vector_2" d="M35.3882 18.4679C34.2927 18.3949 33.3432 19.1983 33.3432 20.2938V24.6759C33.2702 25.6254 32.905 26.5748 32.2477 27.2322L30.4218 29.058C30.0566 29.4232 29.4723 29.4232 29.1072 29.058C28.742 28.6929 28.742 28.1086 29.1072 27.7434L30.933 25.9175C31.5904 25.2602 31.6634 24.3108 31.1521 23.5804C30.4948 22.777 29.3263 22.777 28.669 23.4343L25.0172 27.0861C24.2138 27.8895 23.7026 29.058 23.7026 30.1536V32.3446C23.7026 32.5637 23.8486 32.7098 24.0677 32.7098H31.5904C31.6634 32.7098 31.8095 32.6368 31.8825 32.5637L35.9725 27.7434C36.6298 26.94 36.995 25.9175 36.995 24.895V20.3669C37.068 19.4174 36.3376 18.614 35.3882 18.4679ZM15.4496 21.3163C15.6687 21.6084 16.1069 21.6084 16.326 21.3163L17.0564 20.3669C17.2024 20.1477 17.2024 19.9286 17.0564 19.7095L16.6912 19.1983V16.7881L15.2305 15.9847V19.1253L14.7923 19.7095C14.6462 19.9286 14.6462 20.1477 14.7923 20.3669L15.4496 21.3163ZM16.326 23.4343C15.5957 22.704 14.5001 22.777 13.8428 23.5804C13.2585 24.2377 13.4046 25.2602 14.0619 25.9175L15.8878 27.7434C16.253 28.1086 16.253 28.6929 15.8878 29.058C15.5226 29.4232 14.9383 29.4232 14.5732 29.058L12.7473 27.2322C12.09 26.5748 11.6518 25.6254 11.6518 24.6759V20.2938C11.6518 19.1983 10.7023 18.3949 9.60677 18.4679C8.65732 18.614 8 19.4174 8 20.4399V24.9681C8 25.9906 8.36518 27.0131 9.02249 27.8164L13.1125 32.5637C13.1855 32.6368 13.2585 32.7098 13.4046 32.7098H20.9272C21.1463 32.7098 21.2924 32.5637 21.2924 32.3446V30.1536C21.2924 28.985 20.8542 27.8895 19.9778 27.0861L16.326 23.4343Z" fill="white"></path>
              <path id="Vector_3" d="M15.3758 13.9399L22.4602 18.0299C22.6063 18.1029 22.6793 18.1029 22.8254 18.1029C22.9715 18.1029 23.1176 18.1029 23.1906 18.0299L30.275 13.9399C30.7863 13.6477 30.7863 12.9174 30.275 12.6252L23.4827 8.75438C23.3367 8.60831 23.1176 8.53528 22.8254 8.53528C22.6063 8.53528 22.3142 8.60831 22.0951 8.75438L15.3028 12.6252C14.8646 12.9174 14.8646 13.6477 15.3758 13.9399ZM21.1456 34.7549H13.623C13.4039 34.7549 13.2578 34.901 13.2578 35.1201V36.5808C13.2578 36.7999 13.4039 36.946 13.623 36.946H21.1456C21.3647 36.946 21.5108 36.7999 21.5108 36.5808V35.1201C21.5108 34.901 21.2917 34.7549 21.1456 34.7549ZM27.9379 19.4906C28.3761 19.1984 28.6682 18.7602 28.6682 18.1759V16.9343L24.1401 19.5636C23.7749 19.7827 23.3367 19.9288 22.8254 19.9288C22.3872 19.9288 21.949 19.7827 21.5108 19.5636L18.0781 17.5916V19.7097L22.0951 21.9737C22.5333 22.2659 23.1176 22.2659 23.5558 21.9737L27.9379 19.4906ZM31.4436 34.7549H23.9209C23.7018 34.7549 23.5558 34.901 23.5558 35.1201V36.5808C23.5558 36.7999 23.7018 36.946 23.9209 36.946H31.4436C31.6627 36.946 31.8087 36.7999 31.8087 36.5808V35.1201C31.8087 34.901 31.6627 34.7549 31.4436 34.7549Z" fill="white"></path>
            </g>
          </g>
        </g>
      </g>
    </g>
  </g>
</svg>
