<?xml version="1.0" encoding="UTF-8"?>
<svg xmlns="http://www.w3.org/2000/svg" width="45" height="46" viewBox="0 0 45 46" fill="none">
  <g id="Group 1000004408">
    <g id="Group">
      <path id="Vector" d="M22.5 45.0352C34.9264 45.0352 45 34.9616 45 22.5352C45 10.1087 34.9264 0.0351562 22.5 0.0351562C10.0736 0.0351562 0 10.1087 0 22.5352C0 34.9616 10.0736 45.0352 22.5 45.0352Z" fill="#FFCA2E"></path>
    </g>
    <g id="Group_2">
      <path id="Vector_2" d="M30.7731 29.6047C30.7731 31.7738 30.7885 33.8525 30.7576 35.9313C30.7576 36.3078 30.5722 36.8652 30.3095 36.9857C30.0314 37.1062 29.506 36.8802 29.1661 36.6844C28.5326 36.3078 27.9454 35.8559 27.3737 35.389C27.0183 35.1028 26.7711 35.1329 26.4466 35.404C25.8903 35.8559 25.3186 36.2928 24.716 36.6543C24.3606 36.8652 23.7889 37.1212 23.5262 36.9706C23.248 36.82 23.0935 36.2325 23.0935 35.8258C23.0472 34.0182 23.0781 32.2106 23.0781 30.4031C23.0781 30.162 23.0781 29.921 23.0781 29.6047C22.7227 29.6047 22.46 29.6047 22.1819 29.6047C18.5043 29.6047 14.8114 29.6047 11.1338 29.6047C10.1604 29.6047 9.94406 29.3938 9.94406 28.4599C9.94406 23.6849 9.94406 18.9249 9.94406 14.1498C9.91315 13.2611 10.1449 13.0352 11.0411 13.0352C18.5352 13.0352 26.0294 13.0352 33.5235 13.0352C34.3888 13.0352 34.6206 13.2611 34.636 14.1046C34.636 18.9249 34.636 23.7451 34.636 28.5653C34.636 29.3637 34.3888 29.5896 33.5853 29.6047C32.6736 29.6198 31.7774 29.6047 30.7731 29.6047ZM22.0274 28.0683C22.3982 27.4356 22.3364 26.9234 21.7956 26.4264C21.3166 25.9895 21.5174 25.5678 21.8728 25.1008C22.0892 24.8297 22.2437 24.3778 22.1819 24.0614C22.0428 23.3535 22.2437 22.9166 22.9699 22.7811C23.4798 22.6756 23.6807 22.3894 23.7889 21.9375C23.9434 21.3049 24.3606 21.0337 24.9941 21.2446C25.504 21.4103 25.8748 21.2747 26.2302 20.9132C26.6938 20.4312 27.1882 20.4613 27.6363 20.9433C27.9608 21.2898 28.3162 21.4103 28.7952 21.2597C29.4133 21.0488 29.8769 21.2597 30.0159 21.9074C30.1395 22.4346 30.4331 22.7057 30.9739 22.8263C31.592 22.9618 31.8392 23.3836 31.6384 23.956C31.4529 24.4983 31.6075 24.8598 32.0092 25.2213C32.4419 25.6129 32.4573 26.095 32.0092 26.4716C31.422 26.9686 31.4838 27.4808 31.7774 28.0683C32.2101 28.0683 32.6427 28.0683 33.0445 28.0683C33.0445 23.5493 33.0445 19.0755 33.0445 14.6168C25.8285 14.6168 18.6589 14.6168 11.5047 14.6168C11.5047 19.1358 11.5047 23.5945 11.5047 28.0833C15.0277 28.0683 18.5198 28.0683 22.0274 28.0683ZM25.1795 28.6407C25.813 28.8214 26.4157 28.9871 26.8174 29.1076C27.5282 28.9419 28.0999 28.8214 28.5171 28.716C29.027 28.249 29.4597 27.8423 29.7841 27.541C29.9696 26.9234 30.1241 26.3661 30.2632 25.869C30.1086 25.3117 29.9541 24.7543 29.7996 24.197C29.4133 23.8054 28.9807 23.3836 28.6562 23.0522C27.9917 22.8714 27.42 22.7057 26.9719 22.5702C26.3384 22.7359 25.7667 22.8714 25.2413 23.007C24.7932 23.4137 24.3451 23.8355 24.0515 24.1368C23.8507 24.8146 23.6652 25.3719 23.5571 25.7636C23.727 26.4264 23.8661 26.9988 23.9743 27.4507C24.4224 27.8875 24.8396 28.2942 25.1795 28.6407ZM29.1815 34.8316C29.1815 33.3103 29.1815 31.9244 29.1815 30.5687C28.5171 30.2675 27.9917 30.2825 27.4973 30.8399C27.1419 31.2466 26.632 31.2165 26.2766 30.8098C25.7821 30.2374 25.2413 30.2825 24.6233 30.5687C24.6233 31.9395 24.6233 33.3253 24.6233 34.8316C25.1332 34.4701 25.5813 34.1839 25.9676 33.8525C26.5856 33.3103 27.1419 33.2651 27.7909 33.8224C28.1926 34.1689 28.6562 34.4551 29.1815 34.8316Z" fill="white"></path>
      <path id="Vector_3" d="M22.1982 18.3072C19.7723 18.3072 17.3618 18.3222 14.9359 18.2921C14.6268 18.2921 14.256 18.2168 14.0088 18.036C13.8543 17.9155 13.7461 17.4486 13.8543 17.313C14.0397 17.072 14.3951 16.831 14.6887 16.8159C16.2802 16.7707 17.8408 16.8009 19.4169 16.8009C22.739 16.8009 26.0612 16.8009 29.3833 16.8009C29.5842 16.8009 29.8005 16.7858 30.0014 16.8159C30.4804 16.8611 30.8358 17.1473 30.7276 17.5841C30.6658 17.8703 30.2795 18.2168 29.9859 18.277C29.4451 18.3825 28.8579 18.3072 28.2862 18.3072C26.262 18.3072 24.2379 18.3072 22.1982 18.3072Z" fill="white"></path>
      <path id="Vector_4" d="M18.4126 19.8135C19.6024 19.8135 20.7767 19.8135 21.9665 19.8135C22.5073 19.8135 23.0018 19.9189 23.0172 20.5365C23.0481 21.1993 22.5382 21.3198 21.9665 21.3198C19.6024 21.3198 17.2228 21.3198 14.8587 21.3198C14.3179 21.3198 13.8234 21.2144 13.808 20.5968C13.7771 19.934 14.287 19.8135 14.8587 19.8135C16.0485 19.8135 17.2383 19.8135 18.4126 19.8135Z" fill="white"></path>
      <path id="Vector_5" d="M16.8051 24.3325C16.1407 24.3325 15.4608 24.3325 14.7964 24.3325C14.2401 24.3325 13.792 24.1668 13.792 23.5643C13.8074 22.9919 14.2246 22.8262 14.75 22.8262C16.1407 22.8262 17.5313 22.8262 18.922 22.8262C19.4782 22.8262 19.9418 22.9919 19.9264 23.5944C19.9109 24.212 19.4319 24.3325 18.8911 24.3325C18.1958 24.3174 17.5004 24.3325 16.8051 24.3325Z" fill="white"></path>
      <path id="Vector_6" d="M28.454 25.8691C28.4386 26.6825 27.7278 27.3453 26.8934 27.3303C26.0281 27.3152 25.3328 26.5922 25.3791 25.7637C25.4255 24.9503 26.1517 24.3025 26.9707 24.3327C27.8051 24.3779 28.4695 25.0708 28.454 25.8691Z" fill="white"></path>
    </g>
  </g>
</svg>
