<?xml version="1.0" encoding="UTF-8"?><svg id="Layer_2" xmlns="http://www.w3.org/2000/svg" xmlns:xlink="http://www.w3.org/1999/xlink" viewBox="0 0 506 166.21"><defs><style>.cls-1{fill:#fff;stroke:url(#linear-gradient);stroke-miterlimit:10;stroke-width:5.7px;}.cls-2{fill:#224496;stroke-width:0px;}</style><linearGradient id="linear-gradient" x1="1308.22" y1="231.46" x2="1611.24" y2="-71.56" gradientTransform="translate(1700.89) rotate(-180) scale(1 -1)" gradientUnits="userSpaceOnUse"><stop offset="0" stop-color="#0027a0"/><stop offset="1" stop-color="#0061ff"/></linearGradient></defs><g id="Layer_1-2"><path class="cls-1" d="M32.13,2.92l446.65,33.23c13.73,1.02,24.37,13.04,24.37,27.52v40.93c0,15.89-12.24,28.77-27.35,28.77H160.79c-.09,0-.17.01-.26.03l-121.55,29.74c-4.7,1.15-9.13-2.78-8.84-7.85l1.18-20.67c.04-.68-.48-1.26-1.12-1.26h0c-15.1,0-27.35-12.88-27.35-28.77V31.63c0-16.69,13.45-29.88,29.27-28.7Z"/><path class="cls-2" d="M35.78,68.55l2.79-3.44c1.52,1.66,3.33,2.4,4.71,2.4,1.63,0,2.25-.73,2.25-1.63,0-1.1-.7-1.58-2.99-2.34-3.04-1.04-6.06-2.48-6.06-6.4,0-3.33,2.9-5.89,6.54-5.95,2.62-.03,4.99.96,6.96,2.62l-2.68,3.5c-1.69-1.35-2.99-1.92-4.11-1.92s-1.83.59-1.83,1.55c-.03.9.7,1.35,2.9,2.2,3.52,1.35,6.2,2.28,6.2,6.2,0,4.71-4.09,6.43-7.3,6.43-2.56,0-5.21-1.01-7.38-3.21Z"/><path class="cls-2" d="M72.82,61.48c0,6.12-4.28,10.29-10.26,10.29s-10.31-4.28-10.31-10.29,4.2-10.29,10.31-10.29,10.26,4.14,10.26,10.29ZM67.91,61.48c0-3.35-2.25-5.89-5.35-5.89s-5.41,2.59-5.41,5.89,2.23,5.89,5.41,5.89,5.35-2.57,5.35-5.89ZM61.4,50.06h-3.89l3.04-4.31h3.83l3.24,4.31h-3.92l-1.16-1.94h-.06l-1.1,1.94ZM70.08,48.51h-3.24l3.13-4.2,4.17-.03-4.06,4.23Z"/><path class="cls-2" d="M82.46,51.47h4.73v15.81h8.4v4.2h-13.13v-20.01Z"/><path class="cls-2" d="M119.41,49.67v2.14c0,3.55-2.17,5.16-5.52,5.1v6.23c0,5.21-2.99,8.62-8.31,8.62-4.93,0-8.26-3.07-8.26-8.62v-11.67h4.76v11.36c0,2.45,1.18,4.51,3.49,4.51,2.06,0,3.58-1.66,3.58-4.51v-11.36h4.73v3.47c1.61-.28,1.78-1.33,1.78-3.04v-2.23h3.75Z"/><path class="cls-2" d="M141.11,49.67v2.14c0,2.71-1.24,4.26-3.3,4.85v.03c.65,1.38,1.01,3.02,1.01,4.79,0,6.12-4.28,10.29-10.26,10.29s-10.31-4.28-10.31-10.29,4.2-10.29,10.31-10.29c3.3,0,6.09,1.27,7.92,3.44.76-.48.87-1.41.87-2.73v-2.23h3.75ZM133.93,61.48c0-3.35-2.25-5.89-5.35-5.89s-5.41,2.59-5.41,5.89,2.23,5.89,5.41,5.89,5.35-2.57,5.35-5.89ZM131.31,76.19c0,1.52-1.24,2.56-2.76,2.56s-2.76-1.04-2.76-2.56,1.24-2.57,2.76-2.57,2.76,1.04,2.76,2.57Z"/><path class="cls-2" d="M160.08,51.47v20.01h-4.85l-7.61-12.01h-.03v12.01h-4.71v-20.01h4.71l7.78,12.32v-12.32h4.71Z"/><path class="cls-2" d="M162.85,61.5c0-5.81,3.75-10.32,10.15-10.32,2.87,0,6.03,1.21,8.09,3.58l-3.35,2.82c-1.04-1.01-2.62-1.97-4.76-1.97-2.82,0-5.21,2.17-5.21,5.89,0,3.24,2.03,5.89,5.41,5.89,1.18,0,2.25-.25,3.41-.87v-2.28h-3.83v-3.97h8.37v8.99c-1.78,1.41-4.85,2.45-7.95,2.45-5.78,0-10.31-3.69-10.31-10.2Z"/><path class="cls-2" d="M191.07,51.47h4.73v15.81h8.4v4.2h-13.13v-20.01Z"/><path class="cls-2" d="M228.07,49.67v2.14c0,2.71-1.24,4.26-3.3,4.85v.03c.65,1.38,1.01,3.02,1.01,4.79,0,6.12-4.28,10.29-10.26,10.29s-10.31-4.28-10.31-10.29,4.2-10.29,10.31-10.29c3.3,0,6.09,1.27,7.92,3.44.76-.48.87-1.41.87-2.73v-2.23h3.75ZM220.89,61.48c0-3.35-2.25-5.89-5.35-5.89s-5.41,2.59-5.41,5.89,2.23,5.89,5.41,5.89,5.35-2.57,5.35-5.89ZM217.76,49.5h-4.14l3.16-4.23,4.48-.03-3.49,4.26Z"/><path class="cls-2" d="M229.85,51.47h7.61c4.93,0,7.13,2.93,7.13,6.9,0,4.45-2.99,6.65-7.5,6.65h-2.59v6.45h-4.65v-20.01ZM236.47,60.88c2.06,0,3.24-.99,3.24-2.62,0-1.49-1.04-2.65-3.18-2.65h-2.03v5.27h1.97Z"/><path class="cls-2" d="M253.87,51.47h4.73v8.29h7.05v-8.29h4.76v20.01h-4.76v-7.52h-7.05v7.52h-4.73v-20.01Z"/><path class="cls-2" d="M273.18,61.48c0-6.03,4.2-10.29,10.31-10.29s10.26,4.14,10.26,10.29-4.28,10.29-10.26,10.29-10.31-4.28-10.31-10.29ZM288.84,61.48c0-3.35-2.25-5.89-5.35-5.89s-5.41,2.59-5.41,5.89,2.23,5.89,5.41,5.89,5.35-2.57,5.35-5.89ZM286.22,76.19c0,1.52-1.24,2.56-2.76,2.56s-2.76-1.04-2.76-2.56,1.24-2.57,2.76-2.57,2.76,1.04,2.76,2.57Z"/><path class="cls-2" d="M295.78,61.53c0-5.72,3.72-10.34,10.31-10.34,2.73,0,5.83,1.16,8.06,3.86l-3.47,2.93c-.96-1.16-2.62-2.31-4.59-2.31-2.93,0-5.38,2.17-5.38,5.86,0,3.16,2.14,5.69,5.38,5.69,1.8,0,3.52-.96,4.59-2.28l3.47,2.96c-1.72,2.14-4.51,3.83-8.06,3.83-5.52,0-10.31-3.58-10.31-10.2Z"/><path class="cls-2" d="M83.28,100.24c0-5.72,3.72-10.34,10.31-10.34,2.73,0,5.83,1.16,8.06,3.86l-3.47,2.93c-.96-1.16-2.62-2.31-4.59-2.31-2.93,0-5.38,2.17-5.38,5.86,0,3.16,2.14,5.69,5.38,5.69,1.8,0,3.52-.96,4.59-2.28l3.47,2.96c-1.72,2.14-4.51,3.83-8.06,3.83-5.52,0-10.31-3.58-10.31-10.2Z"/><path class="cls-2" d="M103.18,100.19c0-6.03,4.2-10.29,10.31-10.29s10.26,4.14,10.26,10.29-4.28,10.29-10.26,10.29-10.31-4.28-10.31-10.29ZM118.85,100.19c0-3.35-2.25-5.89-5.35-5.89s-5.41,2.59-5.41,5.89,2.23,5.89,5.41,5.89,5.35-2.57,5.35-5.89ZM114.73,83.98l4.48-.03-3.49,4.26h-4.14l3.16-4.23Z"/><path class="cls-2" d="M132.66,100.22c0-5.81,3.75-10.32,10.15-10.32,2.87,0,6.03,1.21,8.09,3.58l-3.35,2.82c-1.04-1.01-2.62-1.97-4.76-1.97-2.82,0-5.21,2.17-5.21,5.89,0,3.24,2.03,5.89,5.41,5.89,1.18,0,2.25-.25,3.41-.87v-2.28h-3.83v-3.97h8.37v8.99c-1.78,1.41-4.85,2.45-7.95,2.45-5.78,0-10.31-3.69-10.31-10.2Z"/><path class="cls-2" d="M154.11,90.18h4.76v20.01h-4.76v-20.01Z"/><path class="cls-2" d="M184.63,88.38v2.14c0,2.71-1.24,4.26-3.3,4.85v.03c.65,1.38,1.01,3.02,1.01,4.79,0,6.12-4.28,10.29-10.26,10.29s-10.31-4.28-10.31-10.29,4.2-10.29,10.31-10.29c3.3,0,6.09,1.27,7.92,3.44.76-.48.87-1.41.87-2.73v-2.23h3.75ZM177.45,100.19c0-3.35-2.25-5.89-5.35-5.89s-5.41,2.59-5.41,5.89,2.23,5.89,5.41,5.89,5.35-2.57,5.35-5.89ZM174.32,88.21h-4.14l3.16-4.23,4.48-.03-3.49,4.26Z"/><path class="cls-2" d="M186.53,90.18h4.76v20.01h-4.76v-20.01Z"/><path class="cls-2" d="M201.8,90.18h4.73v8.29h7.05v-8.29h4.76v20.01h-4.76v-7.52h-7.05v7.52h-4.73v-20.01Z"/><path class="cls-2" d="M234.53,110.19l-1.18-3.58h-7.02l-1.16,3.58h-4.93l7.33-20.01h4.51l7.38,20.01h-4.93ZM232.5,114.9c0,1.52-1.24,2.56-2.76,2.56s-2.76-1.04-2.76-2.56,1.24-2.57,2.76-2.57,2.76,1.04,2.76,2.57ZM232.05,102.61l-2.2-6.74h-.06l-2.17,6.74h4.42Z"/><path class="cls-2" d="M258.51,90.18v20.01h-4.85l-7.61-12.01h-.03v12.01h-4.71v-20.01h4.71l7.78,12.32v-12.32h4.71Z"/><path class="cls-2" d="M261.36,107.88c0-1.38,1.16-2.57,2.62-2.57s2.59,1.18,2.59,2.57-1.18,2.59-2.59,2.59-2.62-1.16-2.62-2.59Z"/></g></svg>