<?xml version="1.0" encoding="UTF-8"?><svg id="Layer_2" xmlns="http://www.w3.org/2000/svg" viewBox="0 0 519.26 249.71"><defs><style>.cls-1{fill:#fff;stroke-width:0px;}</style></defs><g id="Layer_1-2"><path class="cls-1" d="M159.55,9.64v3.52c0,5.45-2.6,8.38-7.32,8.53v11.32c0,8.77-5.16,14.21-13.3,14.21s-13.25-5.2-13.25-14.21V12.72h4.19v20c0,6.31,3.52,10.55,9.06,10.55s9.11-3.95,9.11-10.55V12.72h4.19v6.26c2.89-.43,3.33-2.46,3.33-6.02v-3.33h4Z"/><path class="cls-1" d="M163.79,33.01V12.72h4.19v20c0,6.31,3.52,10.55,9.06,10.55s9.11-3.95,9.11-10.55V12.72h4.19v20.29c0,8.77-5.16,14.21-13.3,14.21s-13.25-5.2-13.25-14.21Z"/><path class="cls-1" d="M239.39,29.88c0,10.07-6.7,17.06-17.64,17.06h-10.36v-15.23h-3.28v-3.71h3.28v-15.28h10.22c10.84,0,17.78,7.04,17.78,17.15ZM235.05,29.88c0-7.81-5.4-13.35-13.4-13.35h-6.07v11.47h9.16v3.71h-9.16v11.42h5.93c8.34,0,13.54-5.54,13.54-13.25Z"/><path class="cls-1" d="M254.61,12.72h4.19l13.01,34.21h-4.39l-3.08-8.34h-15.28l-3.04,8.34h-4.39l12.96-34.21ZM256.4,7.66c-1.11-.67-2.12-1.21-3.04-1.21-1.16,0-2.12,1.01-2.79,2.65l-2.51-1.06c.92-2.7,2.55-4.53,5.01-4.53,1.73,0,2.99.77,4.1,1.45,1.06.63,1.98,1.35,3.08,1.35s1.93-.77,2.6-2.65l2.51.82c-.96,3.23-2.7,4.77-4.87,4.77-1.49,0-2.84-.77-4.1-1.59ZM263.05,34.94l-6.31-17.15h-.1l-6.22,17.15h12.62Z"/><path class="cls-1" d="M277.5,12.72h4.19v34.21h-4.19V12.72Z"/><path class="cls-1" d="M331.51,29.88c0,10.07-6.7,17.06-17.64,17.06h-10.36v-15.23h-3.28v-3.71h3.28v-15.28h10.22c10.84,0,17.78,7.04,17.78,17.15ZM327.17,29.88c0-7.81-5.4-13.35-13.4-13.35h-6.07v11.47h9.16v3.71h-9.16v11.42h5.93c8.34,0,13.54-5.54,13.54-13.25Z"/><path class="cls-1" d="M338.49,12.72h20.96v3.81h-16.77v11.47h13.73v3.81h-13.73v11.32h17.78v3.81h-21.97V12.72ZM347.07,3.28h4.1l5.45,5.97h-3.9l-3.57-3.76h-.1l-3.57,3.76h-4l5.59-5.97ZM360.66,0h4.38l-5.93,6.51h-3.08l4.63-6.51Z"/><path class="cls-1" d="M367.07,12.72h4.14l19.32,27.23h.05V12.72h4.19v34.21h-4.29l-19.13-26.94h-.1v26.94h-4.19V12.72Z"/><path class="cls-1" d="M55.44,81.84v7.42l-12.97,36.79-11.46-2.02,11.92-31.85h-14.5v-10.33h27.01Z"/><path class="cls-1" d="M57.72,123.83c-1.2-1.17-1.79-2.6-1.79-4.28s.6-3.04,1.81-4.21,2.65-1.76,4.32-1.76,3.11.59,4.31,1.76c1.2,1.17,1.79,2.58,1.79,4.21s-.6,3.1-1.79,4.28c-1.2,1.18-2.63,1.76-4.31,1.76s-3.14-.59-4.34-1.76Z"/><path class="cls-1" d="M93.6,97.85c1.57.67,2.94,1.6,4.11,2.77,1.17,1.17,2.09,2.64,2.77,4.38.68,1.75,1.03,3.63,1.03,5.66,0,2.9-.68,5.49-2.05,7.77-1.37,2.28-3.25,4.04-5.66,5.29-2.4,1.25-5.09,1.87-8.08,1.87-6.42,0-11.58-2.14-15.48-6.41l8.28-6.74c1.84,1.84,3.86,2.76,6.07,2.76,1.45,0,2.68-.46,3.69-1.38s1.52-2.03,1.52-3.34c0-.57-.08-1.1-.23-1.59-.15-.49-.37-.91-.64-1.26-.28-.35-.58-.65-.92-.92s-.69-.48-1.07-.64c-.38-.16-.75-.29-1.1-.37-.36-.08-.7-.12-1.03-.12-.55,0-1.07.06-1.56.17-.49.11-1.04.32-1.64.63-.6.31-1.26.73-1.98,1.26l-6.04-2.39,1.41-23.39h24.13v10.42h-14.9l-.34,5.36c1.9-.53,3.48-.8,4.75-.8,1.74,0,3.39.34,4.97,1.01Z"/><path class="cls-1" d="M130.07,90.98h-11.34v-10.64h34.49v10.64h-11.28v33.97h-11.86v-33.97Z"/><path class="cls-1" d="M180.37,124.94l-8.4-13.61h-2.76v13.61h-11.59v-44.6h17.87c2.74,0,5.16.39,7.25,1.18s3.79,1.9,5.09,3.33c1.3,1.43,2.27,3.1,2.93,5s.98,4.02.98,6.35c0,1.61-.17,3.11-.51,4.49-.34,1.38-.83,2.62-1.49,3.72s-1.44,2.07-2.36,2.91-1.98,1.54-3.19,2.12l-.03.09,10.09,15.42h-13.89ZM169.21,101h3.62c1.96,0,3.54-.44,4.74-1.32,1.2-.88,1.79-2.14,1.79-3.77,0-1.45-.57-2.66-1.7-3.63s-2.74-1.46-4.83-1.46h-3.62v10.18Z"/><path class="cls-1" d="M198.11,80.34h12.11v44.6h-12.11v-44.6Z"/><path class="cls-1" d="M248.01,114.34v10.61h-30.96v-44.6h29.64v10.64h-18.09v6.71h14.16v10.36h-14.16v6.28h19.4ZM229.53,76.42h-9.32l6.65-9.75h9.69l7.11,9.75h-9.41l-2.33-4.45h-.12l-2.27,4.45ZM237.07,130.97c1.21,1.16,1.81,2.6,1.81,4.34s-.61,3.12-1.82,4.26c-1.22,1.14-2.75,1.72-4.61,1.72s-3.42-.57-4.63-1.7-1.81-2.56-1.81-4.28.6-3.21,1.81-4.35c1.21-1.14,2.75-1.72,4.63-1.72s3.42.58,4.63,1.73Z"/><path class="cls-1" d="M263.79,124.32c-2.29-.85-4.26-2.08-5.9-3.69s-2.92-3.65-3.82-6.1c-.9-2.45-1.35-5.22-1.35-8.31v-25.87h12.08v25.2c0,1.63.23,3.11.69,4.43.46,1.32,1.21,2.4,2.24,3.25,1.03.85,2.27,1.27,3.72,1.27,1.31,0,2.48-.34,3.51-1.03,1.03-.68,1.85-1.71,2.45-3.08.6-1.37.9-2.98.9-4.84v-25.2h12.02v25.87c0,3.9-.72,7.3-2.15,10.19-1.43,2.89-3.58,5.14-6.44,6.76-2.86,1.62-6.29,2.42-10.3,2.42-2.82,0-5.38-.42-7.66-1.27Z"/><path class="cls-1" d="M336.57,82c2.89,1.1,5.33,2.63,7.33,4.58,1.99,1.95,3.54,4.31,4.63,7.08,1.09,2.77,1.64,5.79,1.64,9.06s-.52,6.27-1.56,9c-1.04,2.73-2.53,5.07-4.48,7.04s-4.36,3.48-7.25,4.57-6.12,1.62-9.67,1.62h-16.25v-16.77h-2.7v-9.96h2.7v-17.87h16.06c3.47,0,6.66.55,9.55,1.66ZM332.33,112.77c1.72-1.04,3.03-2.44,3.95-4.2.92-1.76,1.38-3.71,1.38-5.85s-.45-4.18-1.36-5.98c-.91-1.8-2.16-3.21-3.76-4.23-1.59-1.02-3.35-1.53-5.27-1.53h-4.72v7.23h5.09v9.96h-5.09v6.16h3.89c2.21,0,4.17-.52,5.89-1.56Z"/><path class="cls-1" d="M386.43,81.37c2.86,1.11,5.3,2.67,7.33,4.66,2.02,1.99,3.61,4.42,4.75,7.28,1.14,2.86,1.72,5.98,1.72,9.35s-.57,6.48-1.72,9.33c-1.14,2.85-2.73,5.27-4.75,7.27-2.02,1.99-4.47,3.55-7.33,4.66-2.86,1.11-5.97,1.67-9.32,1.67s-6.53-.56-9.41-1.69c-2.88-1.12-5.33-2.69-7.36-4.69-2.02-2-3.6-4.42-4.74-7.27-1.13-2.84-1.7-5.94-1.7-9.29s.57-6.45,1.7-9.3,2.71-5.28,4.74-7.28c2.02-2,4.48-3.57,7.36-4.69,2.88-1.12,6.02-1.69,9.41-1.69s6.46.56,9.32,1.67ZM374.78,77.55h-9.32l6.65-9.75h9.69l7.11,9.75h-9.41l-2.33-4.45h-.12l-2.27,4.45ZM382.64,112.88c1.65-1.05,2.91-2.47,3.8-4.26.89-1.79,1.33-3.78,1.33-5.96s-.44-4.17-1.33-5.96c-.89-1.79-2.16-3.21-3.8-4.26s-3.5-1.58-5.56-1.58-3.91.52-5.55,1.56c-1.63,1.04-2.91,2.46-3.82,4.26-.91,1.8-1.36,3.79-1.36,5.98s.45,4.17,1.36,5.96c.91,1.79,2.19,3.21,3.83,4.26,1.65,1.05,3.49,1.58,5.53,1.58s3.92-.53,5.56-1.58ZM389.98,73.6l-7.14-9.6,9.6.06,5.33,9.53h-7.79Z"/><path class="cls-1" d="M444.42,80.34v44.6h-12.38l-14.62-24.4h-.15v24.4h-11.86v-44.6h12.02l14.9,25.14h.15v-25.14h11.96Z"/><path class="cls-1" d="M465.52,124.55c-2.32-.63-4.45-1.58-6.39-2.85-1.94-1.27-3.62-2.79-5.03-4.58-1.41-1.79-2.51-3.91-3.29-6.36-.79-2.45-1.18-5.12-1.18-8,0-2.58.32-5.02.97-7.34s1.6-4.43,2.88-6.35c1.28-1.91,2.82-3.56,4.63-4.95,1.81-1.39,3.93-2.47,6.38-3.25,2.44-.78,5.08-1.17,7.92-1.17,2.21,0,4.42.31,6.65.92,2.23.61,4.37,1.55,6.44,2.8,2.06,1.26,3.83,2.76,5.3,4.52l-8.46,7.14c-2.9-2.78-6.22-4.17-9.96-4.17-1.08,0-2.13.16-3.14.49-1.01.33-1.95.82-2.82,1.49s-1.62,1.46-2.27,2.39c-.64.93-1.15,2.03-1.52,3.31-.37,1.28-.55,2.66-.55,4.15,0,1.59.25,3.1.74,4.52.49,1.42,1.18,2.68,2.07,3.77.89,1.09,2.03,1.96,3.42,2.59s2.92.95,4.6.95c2.33,0,4.56-.49,6.68-1.47v-4.11h-7.6v-9.63h18.79v20.75c-2.06,1.55-4.72,2.83-7.97,3.85s-6.55,1.52-9.9,1.52c-2.6,0-5.05-.32-7.37-.95Z"/><path class="cls-1" d="M7.94,167.31H0v-2.96h19.25v2.96h-8.05v23.63h-3.26v-23.63Z"/><path class="cls-1" d="M18.68,181.95c0-5.39,3.71-9.47,8.87-9.47,2.7,0,5.06,1.27,6.37,3.48l.07-.04v-3.22h3.03v18.24h-2.92v-3.29h-.04c-1.31,2.17-3.56,3.52-6.52,3.52-5.02,0-8.87-3.67-8.87-9.21ZM34.11,181.95c0-3.75-2.51-6.7-6.1-6.7s-6.25,2.66-6.25,6.7c0,3.67,2.51,6.44,6.25,6.44,3.37,0,6.1-2.58,6.1-6.44ZM22.84,164.95h2.43c.08,1.57,1.16,2.92,2.96,2.92s2.88-1.35,2.96-2.92h2.43c-.23,3.33-2.25,5.32-5.39,5.32s-5.17-1.98-5.39-5.32ZM30.18,196.63c0,1.2-.97,2.17-2.21,2.17s-2.21-.97-2.21-2.17.97-2.17,2.21-2.17,2.21.97,2.21,2.17Z"/><path class="cls-1" d="M42.5,172.71h3.03v3.29h.04c1.42-2.21,3.82-3.52,6.63-3.52,3.93,0,6.55,2.43,6.55,7.64v10.82h-3.03v-9.96c0-4.27-1.83-5.73-4.49-5.73-3.44,0-5.69,2.47-5.69,6.59v9.1h-3.03v-18.24Z"/><path class="cls-1" d="M64.7,196.59l.75-2.7c2.1,1.2,3.93,1.91,6.55,1.91,4.12,0,6.1-2.4,6.1-5.47v-2.92h-.07c-1.35,1.95-3.52,3.18-6.33,3.18-4.98,0-8.84-3.59-8.84-9.02s3.59-9.1,8.72-9.1c2.58,0,4.94,1.16,6.4,3.14h.07v-2.92h3.03v16.89c0,5.24-2.62,8.99-8.99,8.99-2.73,0-5.24-.67-7.41-1.98ZM78.18,181.43c0-3.67-2.66-6.14-6.07-6.14-3.71,0-6.18,2.66-6.18,6.22,0,3.86,2.7,6.29,6.14,6.29,3.67,0,6.1-2.73,6.1-6.37Z"/><path class="cls-1" d="M96.72,163.38h3.03v19.28l.04.04,8.95-10h3.67l-6.81,7.53,6.89,10.71h-3.48l-5.5-8.58-3.74,4.04v4.53h-3.03v-27.56Z"/><path class="cls-1" d="M131.32,182.74h-14.23c.41,3.41,2.81,5.65,6.25,5.65,2.43,0,4.16-1.05,5.28-2.43l2.13,1.8c-1.57,2.02-3.86,3.41-7.53,3.41-5.39,0-9.21-3.74-9.21-9.32s3.78-9.36,8.99-9.36,8.39,3.82,8.39,9.02c0,.49-.07,1.01-.07,1.24ZM117.16,180.27h11.2c-.45-3-2.4-5.02-5.39-5.02s-5.24,1.91-5.8,5.02ZM122.44,170.05l-4.53-5.17,3.45.04,4.16,5.13h-3.07Z"/><path class="cls-1" d="M135.81,172.71h3.03v3.29h.04c1.39-2.21,3.67-3.52,6.1-3.52,2.73,0,4.72,1.38,5.65,3.89h.04c1.39-2.47,3.86-3.89,6.7-3.89,4.04,0,6.29,2.77,6.29,7.98v10.48h-3.03v-9.66c0-3.89-1.39-6.03-4.16-6.03s-5.13,2.55-5.13,6.63v9.06h-3.03v-9.66c0-3.89-1.5-6.03-4.23-6.03-3,0-5.24,2.55-5.24,6.63v9.06h-3.03v-18.24Z"/><path class="cls-1" d="M200.25,182.79v8.15h-22.65l-.1-5.84,9.53-10.24c.68-.71,1.25-1.35,1.7-1.92s.84-1.12,1.17-1.67c.33-.55.56-1.08.7-1.6.14-.52.21-1.04.21-1.58,0-.83-.25-1.5-.76-2.04-.51-.53-1.16-.8-1.95-.8-1.68,0-3.18.89-4.5,2.67l-6.43-4.67c.52-.89,1.14-1.7,1.86-2.43.71-.73,1.55-1.39,2.5-1.99.95-.6,2.06-1.06,3.31-1.39,1.25-.33,2.6-.5,4.05-.5s2.88.23,4.2.7c1.33.47,2.5,1.12,3.51,1.96,1.02.84,1.83,1.91,2.43,3.19s.91,2.7.91,4.24c0,1.4-.14,2.61-.41,3.64-.27,1.03-.81,2.17-1.61,3.41-.8,1.24-1.96,2.64-3.47,4.19l-4.26,4.41v.09h10.05Z"/><path class="cls-1" d="M226.59,178.48l-1.98,2.41v10.05h-9.22v-34.66h9.22v11.67h.1l8.43-11.67h11.72l-12.2,14.82,12.7,19.84h-11.39l-7.36-12.46h-.02Z"/><path class="cls-1" d="M277.09,156.28l-11.24,19.7v14.96h-9.46v-14.96l-11.17-19.7h10.65l5.29,10.6h.05l5.15-10.6h10.74ZM258.11,153.04l-6-7.46,8.5.05,5.29,7.41h-7.79Z"/><path class="cls-1" d="M290.55,156.28h12.48c2.7,0,5.17.43,7.42,1.29s4.14,2.04,5.69,3.56,2.75,3.35,3.6,5.5c.85,2.15,1.27,4.5,1.27,7.04s-.41,4.87-1.21,6.99c-.81,2.12-1.97,3.94-3.48,5.47-1.51,1.52-3.39,2.71-5.63,3.55-2.25.84-4.75,1.26-7.52,1.26h-12.62v-34.66ZM302.58,182.7c1.71,0,3.24-.41,4.57-1.21s2.36-1.9,3.07-3.26c.71-1.37,1.07-2.88,1.07-4.55,0-1.27-.21-2.47-.63-3.6-.42-1.13-.99-2.1-1.7-2.91-.71-.81-1.57-1.45-2.57-1.92-1-.47-2.06-.7-3.17-.7h-3.67v18.15h3.02Z"/><path class="cls-1" d="M342.95,185.34h-11.12l-1.74,5.6h-9.72l12.58-34.66h8.86l12.58,34.66h-9.69l-1.74-5.6ZM332.4,153.59l-5-2c.59-1.92,1.45-3.49,2.6-4.69,1.14-1.21,2.48-1.81,4.03-1.81.68,0,1.33.08,1.95.24.62.16,1.05.3,1.29.42s.62.32,1.14.61c.86.52,1.6.79,2.24.79,1.06,0,1.95-.71,2.67-2.14l4.91,1.62c-.56,2.03-1.39,3.69-2.51,4.97-1.12,1.28-2.44,1.92-3.97,1.92-1.41,0-2.83-.41-4.26-1.21-.03-.02-.14-.07-.31-.17-.17-.09-.28-.15-.32-.17-.04-.02-.14-.06-.3-.14-.16-.08-.27-.13-.32-.15-.06-.02-.15-.06-.29-.11-.13-.05-.25-.08-.33-.1-.09-.02-.19-.03-.3-.05-.11-.02-.22-.02-.33-.02-1.03,0-1.89.74-2.57,2.22ZM340.52,177.55l-3.1-9.96h-.1l-3.1,9.96h6.29Z"/><path class="cls-1" d="M398.38,156.28v34.66h-9.62l-11.36-18.96h-.12v18.96h-9.22v-34.66h9.34l11.58,19.53h.12v-19.53h9.29Z"/><path class="cls-1" d="M414.78,190.63c-1.8-.49-3.46-1.23-4.97-2.21-1.51-.99-2.81-2.17-3.91-3.56-1.1-1.39-1.95-3.04-2.56-4.94-.61-1.91-.92-3.98-.92-6.22,0-2,.25-3.9.75-5.7.5-1.8,1.25-3.45,2.24-4.93.99-1.49,2.19-2.77,3.6-3.85,1.41-1.08,3.06-1.92,4.95-2.53s3.95-.91,6.16-.91c1.71,0,3.44.24,5.17.71,1.73.48,3.4,1.2,5,2.18,1.6.98,2.98,2.15,4.12,3.51l-6.57,5.55c-2.25-2.16-4.84-3.24-7.74-3.24-.84,0-1.66.13-2.44.38-.79.25-1.52.64-2.19,1.16-.67.52-1.26,1.13-1.76,1.86-.5.72-.89,1.58-1.18,2.57-.29.99-.43,2.07-.43,3.23,0,1.24.19,2.41.57,3.51.38,1.1.92,2.08,1.61,2.93s1.58,1.52,2.66,2.01c1.08.49,2.27.74,3.57.74,1.81,0,3.54-.38,5.19-1.14v-3.19h-5.91v-7.48h14.6v16.13c-1.6,1.21-3.67,2.2-6.19,2.99s-5.09,1.18-7.69,1.18c-2.02,0-3.93-.25-5.73-.74Z"/><path class="cls-1" d="M448.52,190.13c-2.24-.87-4.14-2.09-5.72-3.64-1.57-1.56-2.8-3.44-3.68-5.65-.88-2.21-1.32-4.61-1.32-7.22s.44-5.01,1.32-7.23c.88-2.21,2.11-4.1,3.68-5.66,1.57-1.56,3.48-2.77,5.72-3.64,2.24-.87,4.68-1.31,7.31-1.31s5.02.43,7.24,1.3c2.22.87,4.12,2.07,5.69,3.62,1.57,1.55,2.8,3.43,3.69,5.66.89,2.22,1.33,4.64,1.33,7.26s-.44,5.04-1.33,7.25c-.89,2.21-2.12,4.1-3.69,5.65-1.57,1.55-3.47,2.75-5.69,3.62-2.22.87-4.64,1.3-7.24,1.3s-5.07-.44-7.31-1.31ZM460.13,181.57c1.28-.82,2.26-1.92,2.95-3.31s1.04-2.93,1.04-4.63-.35-3.24-1.04-4.63-1.68-2.49-2.95-3.31c-1.28-.82-2.72-1.23-4.32-1.23s-3.04.4-4.31,1.21c-1.27.81-2.26,1.91-2.97,3.31-.71,1.4-1.06,2.95-1.06,4.64s.35,3.24,1.06,4.63c.71,1.39,1.7,2.49,2.98,3.31,1.28.82,2.71,1.23,4.3,1.23s3.04-.41,4.32-1.23Z"/><path class="cls-1" d="M497.47,190.94l-1.74-5.6h-11.12l-1.74,5.6h-9.72l12.58-34.66h8.86l12.58,34.66h-9.69ZM493.78,195.62c.94.9,1.41,2.02,1.41,3.37s-.47,2.42-1.42,3.31c-.94.89-2.14,1.33-3.58,1.33-.71,0-1.39-.12-2.01-.36-.63-.24-1.16-.56-1.6-.98-.44-.41-.78-.91-1.02-1.48-.25-.57-.37-1.18-.37-1.83,0-1.37.47-2.49,1.41-3.38.94-.89,2.14-1.33,3.6-1.33s2.66.45,3.6,1.35ZM493.3,177.55l-3.1-9.96h-.1l-3.1,9.96h6.29Z"/><path class="cls-1" d="M509.86,156.28h9.41v34.66h-9.41v-34.66Z"/><path class="cls-1" d="M171.76,222.86h3.26v12.47h13.89v-12.47h3.26v26.59h-3.26v-11.16h-13.89v11.16h-3.26v-26.59Z"/><path class="cls-1" d="M206.47,222.86h3.26l10.11,26.59h-3.41l-2.4-6.48h-11.87l-2.36,6.48h-3.41l10.07-26.59ZM206.55,215.52h3.18l4.23,4.64h-3.03l-2.77-2.92h-.07l-2.77,2.92h-3.11l4.34-4.64ZM213.02,240.12l-4.91-13.33h-.07l-4.83,13.33h9.81ZM217.1,212.98h3.41l-4.61,5.06h-2.4l3.59-5.06Z"/><path class="cls-1" d="M224.07,222.86h9.29c6.22,0,8.8,3.52,8.8,8.24,0,5.62-3.82,8.2-9.36,8.2h-5.47v10.15h-3.26v-26.59ZM232.49,236.34c4.42,0,6.29-2.25,6.29-5.32,0-3.41-2.21-5.21-5.77-5.21h-5.69v10.52h5.17Z"/><path class="cls-1" d="M257.21,222.86h7.94c8.43,0,13.82,5.47,13.82,13.33s-5.21,13.26-13.71,13.26h-8.05v-26.59ZM265.07,246.49c6.48,0,10.52-4.31,10.52-10.3s-4.19-10.37-10.41-10.37h-4.72v20.67h4.61Z"/><path class="cls-1" d="M290.79,222.86h3.26l10.11,26.59h-3.41l-2.4-6.48h-11.87l-2.36,6.48h-3.41l10.07-26.59ZM292.26,213.54c-.82-.49-1.57-.9-2.25-.9-.86,0-1.61.75-2.1,1.98l-1.87-.79c.67-2.02,1.91-3.37,3.74-3.37,1.31,0,2.25.56,3.07,1.05.79.49,1.46,1.01,2.28,1.01s1.46-.56,1.95-1.95l1.87.6c-.71,2.4-2.02,3.52-3.63,3.52-1.12,0-2.13-.56-3.07-1.16ZM290.87,215.52h3.18l4.23,4.64h-3.03l-2.77-2.92h-.07l-2.77,2.92h-3.11l4.34-4.64ZM297.35,240.12l-4.91-13.33h-.07l-4.83,13.33h9.81Z"/><path class="cls-1" d="M308.39,222.86h3.22l15.02,21.16h.04v-21.16h3.26v26.59h-3.33l-14.87-20.93h-.08v20.93h-3.26v-26.59Z"/><path class="cls-1" d="M335.5,247.5c0-1.24,1.01-2.21,2.25-2.21s2.21.97,2.21,2.21-.97,2.21-2.21,2.21-2.25-.97-2.25-2.21ZM336.06,221.89h3.48l-.56,19.73h-2.36l-.56-19.73Z"/></g></svg>