<svg xmlns="http://www.w3.org/2000/svg" viewBox="0 0 100 100"><defs><style>.cls-1{isolation:isolate;}.cls-2{fill:#8ed0fa;}.cls-3{fill:#5b97fa;}.cls-4{fill:ivory;}.cls-5{fill:#b32424;}.cls-6{fill:#ef2f2e;}.cls-7{fill:#fce73c;}.cls-8{fill:#841919;}.cls-9{fill:#878787;opacity:0.5;mix-blend-mode:multiply;}.cls-10{fill:#0880d2;}</style></defs><title>spindle</title><g class="cls-1"><g id="Layer_1" data-name="Layer 1"><g id="Fortune_wheel" data-name="Fortune wheel"><g id="Body"><circle class="cls-2" cx="50" cy="50" r="50"/><circle class="cls-3" cx="50" cy="51" r="46"/><circle class="cls-4" cx="50" cy="50" r="45"/></g><g id="Spin"><path class="cls-5" d="M50,50,79.7,20.3A41.76,41.76,0,0,0,60.87,9.44Z"/><path class="cls-6" d="M60.87,9.44a42.17,42.17,0,0,0-21.74,0L50,50Z"/><path class="cls-7" d="M39.13,9.44A41.76,41.76,0,0,0,20.3,20.3L50,50Z"/><path class="cls-6" d="M20.3,20.3A41.76,41.76,0,0,0,9.44,39.13L50,50Z"/><path class="cls-7" d="M50,50,60.87,90.56A41.76,41.76,0,0,0,79.7,79.7Z"/><path class="cls-5" d="M50,50,90.56,60.87a42.17,42.17,0,0,0,0-21.74Z"/><path class="cls-8" d="M79.7,20.3,50,50,90.56,39.13A41.76,41.76,0,0,0,79.7,20.3Z"/><path class="cls-6" d="M50,50,79.7,79.7A41.76,41.76,0,0,0,90.56,60.87Z"/><path class="cls-5" d="M9.44,39.13a42.17,42.17,0,0,0,0,21.74L50,50Z"/><path class="cls-8" d="M50,50,9.44,60.87A41.76,41.76,0,0,0,20.3,79.7Z"/><path class="cls-6" d="M50,50,39.13,90.56a42.17,42.17,0,0,0,21.74,0Z"/><path class="cls-5" d="M20.3,79.7A41.76,41.76,0,0,0,39.13,90.56L50,50Z"/></g><path id="Shadow" class="cls-9" d="M50,42a9.5,9.5,0,1,0,9.5,9.5A9.5,9.5,0,0,0,50,42ZM9,52A41,41,0,1,1,85.89,71.84a42,42,0,1,0-71.78,0A40.85,40.85,0,0,1,9,52Z"/><g id="Arrow"><path class="cls-2" d="M54.74,56.45a9,9,0,0,0,3.4-12.27,8.89,8.89,0,0,0-2.65-2.92l-12.94-9.1a1.5,1.5,0,0,0-2.36,1.33l1.14,15.78a9,9,0,0,0,13.41,7.18Z"/><circle class="cls-3" cx="50.31" cy="48.62" r="7"/><path class="cls-10" d="M47.85,44.27a7,7,0,0,1,9,1.81,6.76,6.76,0,0,0-.42-.91,7,7,0,1,0-12.18,6.89,6.81,6.81,0,0,0,.56.84A7,7,0,0,1,47.85,44.27Z"/><circle class="cls-4" cx="50.31" cy="48.62" r="2"/></g></g></g></g></svg>