<?xml version="1.0" encoding="UTF-8"?><svg id="Layer_2" xmlns="http://www.w3.org/2000/svg" viewBox="0 0 439.28 95.49"><defs><style>.cls-1{fill:#1d3072;}.cls-1,.cls-2,.cls-3{stroke-width:0px;}.cls-2{fill:#f10000;}.cls-3{fill:#fff;}</style></defs><g id="Layer_1-2"><path class="cls-1" d="M439.28,15.43v33.78c0,8.52-6.91,15.43-15.43,15.43h-126.73c-8.52,0-15.43,6.91-15.43,15.43h0c0,8.52-6.91,15.43-15.43,15.43H15.43c-8.52,0-15.43-6.91-15.43-15.43V15.43C0,6.91,6.91,0,15.43,0h408.43c8.52,0,15.43,6.91,15.43,15.43Z"/><rect class="cls-2" x="284.23" y="67.16" width="155.06" height="28.33" rx="14.14" ry="14.14"/><path class="cls-3" d="M298.07,69.74c.09,0,.18,0,.27,0,.13.02.25.04.38.06.56.06,1.13.09,1.68.19,2.92.57,5.3,2.06,7.07,4.44,2.01,2.71,2.7,5.75,2.09,9.06-.54,2.94-2.05,5.31-4.44,7.1-2.66,1.99-5.67,2.68-8.93,2.12-2.79-.48-5.1-1.85-6.9-4.03-1.63-1.98-2.52-4.26-2.63-6.84,0-.1-.04-.19-.05-.29,0-.15,0-.3,0-.45.02-.1.04-.2.06-.31.06-.54.09-1.1.19-1.63.52-2.74,1.88-5.01,4.03-6.78,1.99-1.63,4.27-2.5,6.85-2.6.11,0,.22-.03.33-.05ZM305.66,86.03c.01-.34-.11-.66-.37-.93-.6-.61-1.19-1.22-1.81-1.81-.55-.53-1.37-.49-1.92.04-.24.24-.47.5-.73.71-.15.12-.36.24-.54.22-.35-.03-.71-.1-1.02-.24-1.16-.55-2.07-1.42-2.88-2.4-.47-.57-.87-1.17-1.08-1.89-.13-.45-.08-.84.31-1.16.19-.16.36-.35.53-.53.63-.64.63-1.46,0-2.09-.54-.54-1.07-1.08-1.62-1.62-.64-.63-1.45-.63-2.09,0-.37.36-.71.75-1.09,1.08-.58.51-.67,1.15-.57,1.85.16,1.05.61,2,1.15,2.9,1.88,3.15,4.43,5.65,7.57,7.55.93.56,1.91,1,3.02,1.08.5.04.98-.04,1.36-.41.47-.46.93-.92,1.39-1.39.25-.26.38-.57.38-.98Z"/></g></svg>