<?xml version="1.0" encoding="UTF-8"?><svg id="Layer_2" xmlns="http://www.w3.org/2000/svg" xmlns:xlink="http://www.w3.org/1999/xlink" viewBox="0 0 501.44 172.03"><defs><style>.cls-1{opacity:.5;}.cls-2{fill:none;}.cls-2,.cls-3{stroke-width:0px;}.cls-4{clip-path:url(#clippath);}.cls-3{fill:#fff;}</style><clipPath id="clippath"><rect class="cls-2" x="0" y="0" width="501.44" height="172.03"/></clipPath></defs><g id="Layer_1-2"><g class="cls-4"><path class="cls-3" d="M467.23,13.21c-9.36,0-16.95,7.59-16.95,16.95s7.59,16.95,16.95,16.95,16.95-7.59,16.95-16.95-7.59-16.95-16.95-16.95ZM474.96,29.6c.62.62.62,1.63,0,2.25-.62.62-1.63.62-2.25,0-1.03-1.03-1.7-2.31-1.97-3.7l-10.51,10.51c-.31.31-.72.47-1.12.47s-.81-.16-1.13-.47c-.62-.62-.62-1.63,0-2.25l10.52-10.52c-1.36-.26-2.65-.92-3.7-1.97-.62-.62-.62-1.63,0-2.25s1.63-.62,2.25,0c1.56,1.56,4.11,1.56,5.67,0,.62-.62,1.63-.62,2.25,0,.62.62.62,1.63,0,2.25h0s-.01.02-.02.02c-.74.76-1.15,1.75-1.15,2.81s.42,2.08,1.18,2.84Z"/><g class="cls-1"><path class="cls-3" d="M508.39,54.07h-152.93c-3.36,0-6.08,2.72-6.08,6.08s2.72,6.08,6.08,6.08h152.93c3.36,0,6.08-2.72,6.08-6.08s-2.72-6.08-6.08-6.08Z"/><path class="cls-3" d="M493.01,68.17h-121.24c-9.11,0-16.47,7.38-16.47,16.49v58.46c0,9.11,7.37,16.47,16.47,16.47h48.43l-22.93,22.93c-1.97,1.97-1.97,5.15,0,7.12l.43.43c1.97,1.97,5.17,1.97,7.12,0l27.58-27.56-2.92-2.92h5.84l-2.92,2.92h0l27.56,27.56c1.97,1.97,5.17,1.97,7.14,0l.41-.43c1.97-1.97,1.97-5.16,0-7.12l-22.93-22.93h48.44c9.09,0,16.47-7.37,16.47-16.47v-58.46c0-9.11-7.38-16.49-16.47-16.49ZM489.33,77.1c5.5,0,9.96,4.46,9.96,9.96s-4.46,9.96-9.96,9.96-9.96-4.46-9.96-9.96,4.46-9.96,9.96-9.96ZM489.33,112.94c5.5,0,9.96,4.46,9.96,9.96s-4.46,9.96-9.96,9.96-9.96-4.46-9.96-9.96,4.46-9.96,9.96-9.96ZM432.38,77.1c5.5,0,9.96,4.46,9.96,9.96s-4.46,9.96-9.96,9.96-9.96-4.46-9.96-9.96,4.46-9.96,9.96-9.96ZM432.38,112.94c5.5,0,9.96,4.46,9.96,9.96s-4.46,9.96-9.96,9.96-9.96-4.46-9.96-9.96,4.46-9.96,9.96-9.96ZM375.43,77.1c5.5,0,9.96,4.46,9.96,9.96s-4.46,9.96-9.96,9.96-9.96-4.46-9.96-9.96,4.46-9.96,9.96-9.96ZM375.43,112.94c5.5,0,9.96,4.46,9.96,9.96s-4.46,9.96-9.96,9.96-9.96-4.46-9.96-9.96,4.46-9.96,9.96-9.96ZM404.22,150.89h-36.22c-1.4,0-2.53-1.13-2.53-2.53s1.13-2.53,2.53-2.53h36.22c1.4,0,2.53,1.13,2.53,2.53s-1.13,2.53-2.53,2.53ZM444.36,150.89h-22.62c-1.4,0-2.53-1.13-2.53-2.53s1.13-2.53,2.53-2.53h22.62c1.4,0,2.53,1.13,2.53,2.53s-1.13,2.53-2.53,2.53ZM497.84,150.89h-36.22c-1.4,0-2.53-1.13-2.53-2.53s1.13-2.53,2.53-2.53h36.22c1.4,0,2.53,1.13,2.53,2.53s-1.13,2.53-2.53,2.53Z"/></g></g></g></svg>