<?xml version="1.0" encoding="UTF-8"?><svg id="Layer_2" xmlns="http://www.w3.org/2000/svg" xmlns:xlink="http://www.w3.org/1999/xlink" viewBox="0 0 247.27 172.03"><defs><style>.cls-1{opacity:.9;}.cls-2{opacity:.6;}.cls-3{fill:none;}.cls-3,.cls-4{stroke-width:0px;}.cls-5{clip-path:url(#clippath);}.cls-4{fill:#fff;}</style><clipPath id="clippath"><rect class="cls-3" x="0" y="0" width="247.27" height="172.03" rx="40" ry="40"/></clipPath></defs><g id="Layer_1-2"><g class="cls-5"><g class="cls-1"><g class="cls-2"><path class="cls-4" d="M197.39,113.26c-4.63-.28-9.17-.55-13.71-.83-10.12-.62-20.25-1.26-30.37-1.85-5.57-.33-11.15-.57-16.73-.88-2.93-.16-5-1.74-5.38-4.35-.16-1.13.07-2.42.52-3.48.36-.85.43-1.52.19-2.36-1.56-5.56-3.1-11.13-4.63-16.7-.63-2.3.46-3.67,2.8-3.57,1.91.08,4.01-.3,5.66.4,1.57.66,2.65,2.48,3.98,3.75,9.03,8.58,19.79,12.86,32.22,12.24,32.68-1.62,65.34-3.47,98.02-5.19,8.05-.43,15.27,1.88,21.59,6.89,2.35,1.86,4.39,4.02,5.64,6.81,1.08,2.4.56,4.38-1.64,5.81-2.82,1.83-6.06,2.41-9.31,2.67-14.05,1.14-28.12,2.17-42.17,3.25-2.6.2-5.2.4-7.79.68-.59.06-1.26.36-1.69.76-13.4,12.49-26.78,25.01-40.18,37.5-.5.47-1.25.83-1.93.93-2.9.43-5.82.74-8.73,1.09-2.25.27-3.04-.73-2.21-2.86,3.73-9.58,7.48-19.16,11.23-28.73,1.42-3.64,2.87-7.26,4.3-10.89.13-.33.21-.69.33-1.07Z"/><path class="cls-4" d="M242.96,86.06c-2.48.15-4.54.28-6.61.39-12.31.62-24.63,1.23-36.94,1.89-1.05.06-1.53-.2-1.95-1.2-3.53-8.6-7.14-17.18-10.71-25.77-1.02-2.46-.5-3.31,2.17-3.55,1.9-.17,3.8-.44,5.7-.46.84,0,1.85.28,2.52.79,6.79,5.13,13.42,10.47,20.29,15.48,5.67,4.13,12.15,6.83,18.61,9.5,2.18.9,4.34,1.84,6.91,2.94Z"/></g></g></g><path class="cls-4" d="M212.3,12.82c-9.36,0-16.95,7.59-16.95,16.95s7.59,16.95,16.95,16.95,16.95-7.59,16.95-16.95-7.59-16.95-16.95-16.95ZM220.04,29.2c.62.62.62,1.63,0,2.25-.62.62-1.63.62-2.25,0-1.03-1.03-1.7-2.31-1.97-3.7l-10.51,10.51c-.31.31-.72.47-1.12.47s-.81-.16-1.13-.47c-.62-.62-.62-1.63,0-2.25l10.52-10.52c-1.36-.26-2.65-.92-3.7-1.97-.62-.62-.62-1.63,0-2.25s1.63-.62,2.25,0c1.56,1.56,4.11,1.56,5.67,0,.62-.62,1.63-.62,2.25,0,.62.62.62,1.63,0,2.25h0s-.01.02-.02.02c-.74.76-1.15,1.75-1.15,2.81s.42,2.08,1.18,2.84Z"/></g></svg>