<?xml version="1.0" encoding="UTF-8"?><svg id="Layer_2" xmlns="http://www.w3.org/2000/svg" viewBox="0 0 513.64 740.69"><defs><style>.cls-1{fill:red;}.cls-1,.cls-2,.cls-3{stroke-width:0px;}.cls-2{fill:#173176;}.cls-3{fill:#fff;}</style></defs><g id="Layer_1-2"><path class="cls-2" d="M243.13,715.27v-.29c0-15.67,12.7-28.37,28.37-28.37h216.83c13.98,0,25.31-11.33,25.31-25.31V29.52c0-16.31-13.22-29.52-29.52-29.52H29.52C13.22,0,0,13.22,0,29.52v681.64c0,16.31,13.23,29.53,29.54,29.52l188.29-.11c13.97,0,25.29-11.34,25.29-25.31Z"/><rect class="cls-1" x="246.75" y="691.13" width="266.89" height="49.56" rx="24.78" ry="24.78"/><circle class="cls-3" cx="488.59" cy="715.91" r="22.37"/><path class="cls-1" d="M493.06,714.94l-7.99-4.61c-.75-.43-1.68.11-1.68.97v9.23c0,.86.93,1.4,1.68.97l7.99-4.61c.75-.43.75-1.51,0-1.94l-7.99-4.61c-.75-.43-1.68.11-1.68.97v9.23c0,.86.93,1.4,1.68.97l7.99-4.61c.75-.43.75-1.51,0-1.94Z"/></g></svg>