<?xml version="1.0" encoding="UTF-8"?><svg id="Layer_2" xmlns="http://www.w3.org/2000/svg" xmlns:xlink="http://www.w3.org/1999/xlink" viewBox="0 0 247.27 172.03"><defs><style>.cls-1{opacity:.5;}.cls-2{fill:none;}.cls-2,.cls-3{stroke-width:0px;}.cls-4{clip-path:url(#clippath);}.cls-3{fill:#fff;}</style><clipPath id="clippath"><rect class="cls-2" x="0" y="0" width="247.27" height="172.03"/></clipPath></defs><g id="Layer_1-2"><g class="cls-4"><g class="cls-1"><path class="cls-3" d="M284.57,86.02h-28s-10,0-10,0h0s-45.81,0-45.81,0h0s-10,0-10,0h0s-27.11,0-27.11,0c-6.52,0-11.8,5.28-11.8,11.8v72.14c0,6.52,5.28,11.8,11.8,11.8h120.92c6.52,0,11.8-5.28,11.8-11.8v-72.14c0-6.52-5.28-11.8-11.8-11.8ZM187.3,145.93c-6.65,0-12.05-5.39-12.05-12.05s5.39-12.05,12.05-12.05,12.05,5.39,12.05,12.05-5.39,12.05-12.05,12.05ZM260.93,145.93c-6.65,0-12.05-5.39-12.05-12.05s5.39-12.05,12.05-12.05,12.05,5.39,12.05,12.05-5.39,12.05-12.05,12.05Z"/><path class="cls-3" d="M200.76,73.82h45.81v12.2h10v-13.41c0-4.85-3.94-8.79-8.79-8.79h-48.23c-4.85,0-8.79,3.94-8.79,8.79v13.41h10v-12.2Z"/></g><path class="cls-3" d="M215.59,12.82c-9.36,0-16.95,7.59-16.95,16.95s7.59,16.95,16.95,16.95,16.95-7.59,16.95-16.95-7.59-16.95-16.95-16.95ZM223.33,29.2c.62.62.62,1.63,0,2.25-.62.62-1.63.62-2.25,0-1.03-1.03-1.7-2.31-1.97-3.7l-10.51,10.51c-.31.31-.72.47-1.12.47s-.81-.16-1.13-.47c-.62-.62-.62-1.63,0-2.25l10.52-10.52c-1.36-.26-2.65-.92-3.7-1.97-.62-.62-.62-1.63,0-2.25s1.63-.62,2.25,0c1.56,1.56,4.11,1.56,5.67,0,.62-.62,1.63-.62,2.25,0,.62.62.62,1.63,0,2.25h0s-.01.02-.02.02c-.74.76-1.15,1.75-1.15,2.81s.42,2.08,1.18,2.84Z"/></g></g></svg>