<?xml version="1.0" encoding="UTF-8"?><svg id="Layer_2" xmlns="http://www.w3.org/2000/svg" xmlns:xlink="http://www.w3.org/1999/xlink" viewBox="0 0 501.06 172.03"><defs><style>.cls-1{opacity:.6;}.cls-1,.cls-2,.cls-3{stroke-width:0px;}.cls-1,.cls-3{fill:#fff;}.cls-2{fill:none;}.cls-4{clip-path:url(#clippath);}</style><clipPath id="clippath"><rect class="cls-2" x="0" y="0" width="501.06" height="172.03"/></clipPath></defs><g id="Layer_1-2"><g class="cls-4"><path class="cls-3" d="M469.38,13.21c-9.36,0-16.95,7.59-16.95,16.95s7.59,16.95,16.95,16.95,16.95-7.59,16.95-16.95-7.59-16.95-16.95-16.95ZM477.12,29.6c.62.62.62,1.63,0,2.25-.62.62-1.63.62-2.25,0-1.03-1.03-1.7-2.31-1.97-3.7l-10.51,10.51c-.31.31-.72.47-1.12.47s-.81-.16-1.13-.47c-.62-.62-.62-1.63,0-2.25l10.52-10.52c-1.36-.26-2.65-.92-3.7-1.97-.62-.62-.62-1.63,0-2.25s1.63-.62,2.25,0c1.56,1.56,4.11,1.56,5.67,0,.62-.62,1.63-.62,2.25,0,.62.62.62,1.63,0,2.25h0s-.01.02-.02.02c-.74.76-1.15,1.75-1.15,2.81s.42,2.08,1.18,2.84Z"/><path class="cls-1" d="M480.69,105.92l-1.71,3.31c-1.29,2.51-4.36,3.46-6.84,2.18-2.51-1.29-3.48-4.33-2.18-6.84l1.71-3.31c-1.63-2.68-1.86-6.17-.3-9.2l6.79-13.16c-9.23-11.8-23.59-19.39-39.73-19.39-27.85,0-50.43,22.58-50.43,50.44s22.58,50.43,50.43,50.43,50.43-22.58,50.43-50.43c0-2.96-.27-5.85-.76-8.67-1.62,2.76-4.44,4.44-7.41,4.65ZM461.95,114.52v19.38h-13.63v-14.71h-.58c-.26,2.92-1.22,5.6-2.87,8.04-1.65,2.44-3.83,4.38-6.52,5.84-2.7,1.46-5.8,2.19-9.3,2.19-2.6,0-5.06-.46-7.4-1.36-2.34-.91-4.25-2.39-5.75-4.43-1.5-2.04-2.24-4.79-2.24-8.23,0-3.18.62-5.76,1.85-7.74,1.23-1.98,2.89-3.57,4.97-4.77,2.08-1.2,4.35-2.11,6.82-2.73,2.47-.62,4.9-1.15,7.3-1.61,3.38-.65,5.91-1.17,7.6-1.56s2.84-.84,3.46-1.36c.62-.52.93-1.23.93-2.14,0-1.88-.7-3.31-2.09-4.29-1.4-.97-3.23-1.46-5.5-1.46-1.43,0-2.86.26-4.28.78-1.43.52-2.6,1.45-3.51,2.78-.91,1.33-1.33,3.23-1.27,5.7l-14.02-.97c-.13-4.09.49-7.48,1.85-10.18,1.36-2.69,3.23-4.8,5.6-6.33s4.97-2.61,7.79-3.26c2.82-.65,5.63-.98,8.42-.98,5.13,0,9.35.96,12.66,2.87,3.31,1.92,5.76,4.67,7.35,8.28s2.39,7.97,2.39,13.1v9.16Z"/><path class="cls-1" d="M442.56,111.25c-1.49.29-3,.58-4.53.88-1.53.29-2.94.68-4.24,1.17-1.3.49-2.36,1.14-3.17,1.95-.81.81-1.22,1.93-1.22,3.36,0,1.69.6,2.97,1.8,3.85,1.2.88,2.65,1.31,4.33,1.31,1.1,0,2.29-.21,3.55-.63,1.27-.42,2.47-1.12,3.6-2.09,1.14-.97,2.06-2.32,2.78-4.04.71-1.72,1.07-3.85,1.07-6.38v-.57c-1.19.51-2.52.91-3.99,1.2Z"/><path class="cls-1" d="M488.36,100.83l58.22-112.83c.03-.07.06-.14.09-.2l-19.61,38c-.86,1.66-2.9,2.31-4.56,1.46l-10.97-5.66c-1.66-.86-2.31-2.89-1.46-4.55l-31.91,61.84c5.01,6.4,8.5,14.03,9.94,22.37.09-.15.18-.28.26-.44Z"/></g></g></svg>