<?xml version="1.0" encoding="UTF-8"?><svg id="Layer_2" xmlns="http://www.w3.org/2000/svg" xmlns:xlink="http://www.w3.org/1999/xlink" viewBox="0 0 582.97 213.03"><defs><style>.cls-1{opacity:.9;}.cls-2{opacity:.6;}.cls-3{fill:none;}.cls-3,.cls-4{stroke-width:0px;}.cls-5{clip-path:url(#clippath);}.cls-4{fill:#fff;}</style><clipPath id="clippath"><rect class="cls-3" x="0" width="582.97" height="213.03" rx="25" ry="25"/></clipPath></defs><g id="Layer_1-2"><path class="cls-4" d="M543.77,9.16c-16.58,0-30.03,13.44-30.03,30.03s13.45,30.03,30.03,30.03,30.03-13.44,30.03-30.03-13.44-30.03-30.03-30.03ZM557.47,38.18c1.1,1.1,1.1,2.88,0,3.98-1.1,1.1-2.88,1.1-3.98,0-1.82-1.82-3.02-4.08-3.5-6.55l-18.62,18.62c-.55.55-1.27.82-1.99.82s-1.44-.27-1.99-.82c-1.1-1.1-1.1-2.88,0-3.98l18.63-18.63c-2.4-.47-4.7-1.63-6.56-3.49-1.1-1.1-1.1-2.88,0-3.98s2.88-1.1,3.98,0c2.77,2.77,7.28,2.77,10.05,0,1.1-1.1,2.88-1.1,3.98,0,1.1,1.1,1.1,2.88,0,3.98h0s-.02.03-.03.04c-1.32,1.34-2.04,3.11-2.04,4.98s.74,3.68,2.08,5.02Z"/><g class="cls-5"><g class="cls-1"><g class="cls-2"><path class="cls-4" d="M424.15,151.36c-8.74-.53-17.31-1.05-25.88-1.57-19.11-1.17-38.22-2.37-57.33-3.5-10.52-.62-21.05-1.07-31.57-1.65-5.54-.31-9.44-3.28-10.15-8.21-.3-2.12.14-4.58.97-6.57.67-1.6.81-2.87.37-4.45-2.95-10.5-5.85-21.01-8.74-31.52-1.19-4.34.86-6.93,5.29-6.74,3.6.15,7.57-.57,10.68.75,2.97,1.25,4.99,4.68,7.51,7.07,17.04,16.2,37.36,24.28,60.81,23.11,61.68-3.07,123.34-6.54,185.02-9.8,15.19-.8,28.83,3.55,40.76,13,4.43,3.51,8.28,7.58,10.65,12.85,2.04,4.53,1.06,8.27-3.09,10.96-5.33,3.46-11.43,4.55-17.57,5.05-26.53,2.15-53.07,4.1-79.61,6.14-4.91.38-9.82.75-14.71,1.28-1.11.12-2.38.67-3.2,1.44-25.3,23.58-50.54,47.22-75.85,70.79-.95.88-2.36,1.56-3.64,1.75-5.48.8-10.98,1.39-16.48,2.05-4.25.51-5.74-1.38-4.17-5.4,7.05-18.08,14.12-36.16,21.19-54.23,2.69-6.86,5.42-13.71,8.12-20.56.25-.63.4-1.3.61-2.02Z"/><path class="cls-4" d="M510.16,100.01c-4.67.27-8.57.53-12.48.73-23.24,1.18-46.48,2.32-69.72,3.56-1.98.11-2.9-.38-3.68-2.27-6.67-16.24-13.47-32.43-20.22-48.64-1.93-4.64-.94-6.25,4.1-6.71,3.59-.32,7.17-.83,10.76-.86,1.59-.02,3.49.53,4.75,1.49,12.81,9.69,25.33,19.77,38.31,29.23,10.71,7.81,22.94,12.9,35.13,17.94,4.11,1.7,8.2,3.48,13.04,5.54Z"/></g></g></g></g></svg>