<?xml version="1.0" encoding="UTF-8"?><svg id="Layer_2" xmlns="http://www.w3.org/2000/svg" xmlns:xlink="http://www.w3.org/1999/xlink" viewBox="0 0 582.97 213.03"><defs><style>.cls-1{fill:none;}.cls-1,.cls-2,.cls-3{stroke-width:0px;}.cls-4{clip-path:url(#clippath);}.cls-2,.cls-3{fill:#fff;}.cls-3{opacity:.5;}</style><clipPath id="clippath"><rect class="cls-1" x="0" width="582.97" height="213.03" rx="25" ry="25"/></clipPath></defs><g id="Layer_1-2"><path class="cls-2" d="M542.59,9.16c-16.58,0-30.03,13.44-30.03,30.03s13.45,30.03,30.03,30.03,30.03-13.44,30.03-30.03-13.44-30.03-30.03-30.03ZM556.29,38.18c1.1,1.1,1.1,2.88,0,3.98-1.1,1.1-2.88,1.1-3.98,0-1.82-1.82-3.02-4.08-3.5-6.55l-18.62,18.62c-.55.55-1.27.82-1.99.82s-1.44-.27-1.99-.82c-1.1-1.1-1.1-2.88,0-3.98l18.63-18.63c-2.4-.47-4.7-1.63-6.56-3.49-1.1-1.1-1.1-2.88,0-3.98s2.88-1.1,3.98,0c2.77,2.77,7.28,2.77,10.05,0,1.1-1.1,2.88-1.1,3.98,0,1.1,1.1,1.1,2.88,0,3.98h0s-.02.03-.03.04c-1.32,1.34-2.04,3.11-2.04,4.98s.74,3.68,2.08,5.02Z"/><g class="cls-4"><path class="cls-3" d="M595.13,95.31l-124.98-39.76c-5.5-1.75-11.37,1.29-13.12,6.79l-50.76,159.55c-1.75,5.5,1.29,11.37,6.79,13.12l124.98,39.76c5.5,1.75,11.37-1.29,13.12-6.79l50.76-159.55c1.75-5.5-1.29-11.37-6.79-13.12ZM451.81,109.78l.84-2.64c.15-.48.67-.75,1.15-.6l26.4,8.4c.48.15.75.67.6,1.15l-.84,2.64c-.15.48-.67.75-1.15.6l-26.4-8.4c-.48-.15-.75-.67-.6-1.15ZM528.53,145.33c7.77,2.47,12.07,10.78,9.6,18.55-2.47,7.77-10.78,12.07-18.56,9.6-7.77-2.47-12.07-10.78-9.6-18.55s10.78-12.07,18.56-9.6ZM517.67,130.74l.84-2.64c.15-.48.67-.75,1.15-.6l26.4,8.4c.48.15.75.67.6,1.15l-.84,2.64c-.15.48-.67.75-1.15.6l-26.4-8.4c-.48-.15-.75-.67-.6-1.15ZM525.79,202.66c-2.47,7.77-10.78,12.07-18.56,9.6-7.77-2.47-12.07-10.78-9.6-18.55,2.47-7.77,10.78-12.07,18.55-9.6s12.07,10.78,9.6,18.55ZM513.73,126.58l-.84,2.64c-.15.48-.67.75-1.15.6l-26.4-8.4c-.48-.15-.75-.67-.6-1.15l.84-2.64c.15-.48.67-.75,1.15-.6l26.4,8.4c.48.15.75.67.6,1.15ZM495.6,134.85c7.77,2.47,12.07,10.78,9.6,18.55-2.47,7.77-10.78,12.07-18.56,9.6-7.77-2.47-12.07-10.78-9.6-18.55,2.47-7.77,10.78-12.07,18.56-9.6ZM492.86,192.19c-2.47,7.77-10.78,12.07-18.56,9.6-7.77-2.47-12.07-10.78-9.6-18.55s10.78-12.07,18.55-9.6,12.07,10.78,9.6,18.55ZM444.11,133.97c2.47-7.77,10.78-12.07,18.55-9.6,7.77,2.47,12.07,10.78,9.6,18.55-2.47,7.77-10.78,12.07-18.56,9.6s-12.07-10.78-9.6-18.55ZM431.78,172.75c2.47-7.77,10.78-12.07,18.55-9.6,7.77,2.47,12.07,10.78,9.6,18.55s-10.78,12.07-18.56,9.6c-7.77-2.47-12.07-10.78-9.6-18.55ZM447.59,220.49c-2.47,7.77-10.78,12.07-18.55,9.6s-12.07-10.78-9.6-18.55,10.78-12.07,18.56-9.6c7.77,2.47,12.07,10.78,9.6,18.55ZM480.52,230.97c-2.47,7.77-10.78,12.07-18.55,9.6s-12.07-10.78-9.6-18.55,10.78-12.07,18.55-9.6c7.77,2.47,12.07,10.78,9.6,18.55ZM513.46,241.45c-2.47,7.77-10.78,12.07-18.55,9.6-7.77-2.47-12.07-10.78-9.6-18.55s10.78-12.07,18.55-9.6,12.07,10.78,9.6,18.55ZM546.39,251.92c-2.47,7.77-10.78,12.07-18.56,9.6-7.77-2.47-12.07-10.78-9.6-18.55,2.47-7.77,10.78-12.07,18.55-9.6s12.07,10.78,9.6,18.55ZM558.73,213.14c-2.47,7.77-10.78,12.07-18.56,9.6-7.77-2.47-12.07-10.78-9.6-18.55,2.47-7.77,10.78-12.07,18.56-9.6s12.07,10.78,9.6,18.55ZM571.06,174.36c-2.47,7.77-10.78,12.07-18.55,9.6-7.77-2.47-12.07-10.78-9.6-18.55,2.47-7.77,10.78-12.07,18.56-9.6s12.07,10.78,9.6,18.55ZM579.6,147.53l-.84,2.64c-.15.48-.67.75-1.15.6l-26.4-8.4c-.48-.15-.75-.67-.6-1.15l.84-2.64c.15-.48.67-.75,1.15-.6l26.4,8.4c.48.15.75.67.6,1.15ZM584.4,132.44l-.84,2.64c-.15.48-.67.75-1.15.6l-125.2-39.83c-.48-.15-.75-.67-.6-1.15l.84-2.64c.15-.48.67-.75,1.15-.6l125.2,39.83c.48.15.75.67.6,1.15Z"/></g></g></svg>