<svg id="Layer_1" data-name="Layer 1" xmlns="http://www.w3.org/2000/svg" width="29.28" height="30" viewBox="0 0 29.28 30"><title>icon_schedule</title><path d="M27.83,2.89H23.49V1.08a1.08,1.08,0,1,0-2.16,0h0V2.89H9V1.08a1.09,1.09,0,0,0-2.17,0V2.89H2.17A1.81,1.81,0,0,0,.36,4.7V28.19A1.81,1.81,0,0,0,2.17,30H27.83a1.81,1.81,0,0,0,1.81-1.81V4.7A1.81,1.81,0,0,0,27.83,2.89Zm-.36,24.94H2.53V12.29H27.47Zm0-17.71h-25V5.06h4.3V6.87A1.09,1.09,0,0,0,9,6.87V5.06H21.33V6.87a1.08,1.08,0,1,0,2.16,0h0V5.06h4ZM9.82,19.26a.75.75,0,0,1-.19-.75A.7.7,0,0,1,10.2,18l2.89-.45,1.28-2.72a.7.7,0,0,1,.35-.35.69.69,0,0,1,.91.35l1.28,2.72L19.8,18a.7.7,0,0,1,.57.51.75.75,0,0,1-.19.75l-2.1,2.08.5,3a.74.74,0,0,1-.28.72.67.67,0,0,1-.73.06L15,23.7l-2.56,1.42a.67.67,0,0,1-.74-.06.74.74,0,0,1-.28-.72l.5-3Z" transform="translate(-0.36 0)"/></svg>