<svg id="Layer_1" data-name="Layer 1" xmlns="http://www.w3.org/2000/svg" viewBox="0 0 768.06 1024"><path d="M512.06,567.87c105.89,0,192-86.14,192-192s-86.11-192-192-192-192,86.11-192,192S406.18,567.87,512.06,567.87Zm0-352c88.26,0,160,71.75,160,160s-71.74,160-160,160-160-71.74-160-160,71.75-160,160-160ZM512,0C300.22,0,128,170.11,128,384c0,224,192,453.15,332,614.21.51.64,23,25.76,50.75,25.76h2.47c27.74,0,50.24-25.12,50.75-25.76C704.06,837.18,896.06,608.06,896.06,384,896.06,170.11,723.81,0,512,0Zm3.74,956.26a38.65,38.65,0,0,1-4.32,3.13c-.32-.86-2.68-2.75-4.12-4.25C390,820.19,192,592.45,192,384,192,207.58,335.58,64,512,64S832.06,207.58,832.06,384.06c0,208.39-198,436.13-316.32,572.2Z" transform="translate(-128 0)"/></svg>