<svg id="Layer_1" data-name="Layer 1" xmlns="http://www.w3.org/2000/svg" viewBox="0 0 30 30"><path d="M29.17,26.56a27.66,27.66,0,0,0-8.7-3.46,21.34,21.34,0,0,0,3.58-7.66c.7-2.93.43-8.67-2.39-12.25A8.2,8.2,0,0,0,15,0,8.2,8.2,0,0,0,8.34,3.19C5.52,6.77,5.25,12.51,6,15.44A21.23,21.23,0,0,0,9.53,23.1,27.41,27.41,0,0,0,.84,26.56a1.88,1.88,0,0,0,1,3.44H28.12a1.88,1.88,0,0,0,1.05-3.44ZM19,21.94l-.31.38c-2.23,2.57-5.15,2.57-7.38,0L11,21.94A16.07,16.07,0,0,1,7.65,10.08c.51-4,2.81-8.2,7.35-8.2s6.84,4.18,7.35,8.2A16.07,16.07,0,0,1,19,21.94ZM1.88,28.12a25.67,25.67,0,0,1,8-3.19l2.33-.5a5,5,0,0,0,2.75.88,5,5,0,0,0,2.75-.88l2.33.5a25.75,25.75,0,0,1,8,3.19Z" transform="translate(0 0)"/></svg>