<svg id="Layer_1" data-name="Layer 1" xmlns="http://www.w3.org/2000/svg" viewBox="0 0 30 5.32"><path d="M8.62,13.48c-.15-.06-.23-.13-.23-.24a.31.31,0,0,1,.23-.32A1,1,0,0,1,9,12.85c.43,0,.66.15.69.5h1.15c-.05-.75-.89-1-1.71-1a2.53,2.53,0,0,0-.55,0,1.69,1.69,0,0,0-1.26.57v-.51H6.22v1.94c0,.58-.19.79-.77.79s-.78-.2-.78-.79V12.91L3.61,15.06a.51.51,0,0,0,.39.5,4,4,0,0,1,1.67-.24,19.68,19.68,0,0,1,2.95.56,2.61,2.61,0,0,0,.56.08c.36,0,1.82-.09,1.82-1.35C11,13.58,9.26,13.71,8.62,13.48ZM9.1,15.2a1.46,1.46,0,0,1-.51-.07.45.45,0,0,1-.34-.47H7.31v-.87h0a1.66,1.66,0,0,0,1.25.56c.63.1,1.24.1,1.24.47S9.62,15.2,9.1,15.2ZM1.89,16.33,0,12.4H1.21l1,2.37h0l1-2.37H4.5L2.8,15.9A4.45,4.45,0,0,0,1.89,16.33Zm8.66-.51a1.62,1.62,0,0,1-1.27.7C7.46,16.6,4.9,15,2.56,17.65H1.19c3.68-3.78,7.14-.82,8.77-1.47A1.57,1.57,0,0,0,10.55,15.82Zm-2.48.76.65.08a5.21,5.21,0,0,1-.79,0c-2.5-.13-3.11.7-3.26,1H3.43C3.72,17.29,5,16,8.07,16.58Zm.28.24s-1.58.17-1.74.83H5.45C6.27,16.71,8.35,16.82,8.35,16.82ZM19,14.16h-.45l-.48-1h.32l.37.76h0l.35-.76h.33Zm-2.22,0h-.31v-1h.31v.36h.68v-.36h.32v1h-.32v-.37h-.68Zm4.32,0h-.31v-1h.52l.51.76h0v-.76h.29v1h-.52l-.52-.76h0Zm-1.34-1-.51,1h.33l.08-.18h.65l.08.18h.34l-.5-1Zm0,.62.19-.4H20l.18.4Zm-4.5.39H15v-1h.53L16,14h0v-.77h.31v1h-.52l-.52-.76h0ZM13.82,14h.65l.09.18h.34l-.51-1h-.47l-.52,1h.34Zm.29-.61h.07l.19.39h-.43Zm5.63-.48h.34m.05,0h.1l-.05.1a.28.28,0,0,1-.18.06h-.14a.15.15,0,0,1-.12-.17Zm8.55,2.19-.15-.1a.59.59,0,0,1,.26-.07h.31a.25.25,0,0,0,.17,0l.15.13a.5.5,0,0,1-.26.08h-.32A.18.18,0,0,0,28.68,15.08ZM21.73,15l.44-.19.43.19v.1l-.39-.1-.39.1Zm5.37.29h.79v1.5h-.44V15.62h-.06l-.55,1.13h-.35l-.55-1.13h-.08v1.13h-.44v-1.5h.79l.43,1ZM22.31,17v.2a.06.06,0,0,1-.06.06H22a.06.06,0,0,1-.06-.06V17a.07.07,0,0,1,.06-.07h.21a.06.06,0,0,1,.08,0h0Zm-1.56-1.73h.47v1.5h-.47Zm-.55,0h.47L20,16.75h-.7l-.71-1.5h.49l.51,1.12h.1Zm2.94,0h1.74v.37h-.65v1.13h-.45V15.62h-.64Zm6.86,0-.79,1v.53h-.45v-.53l-.82-1h.58l.46.6.46-.6Zm-8.59,0H23v.36H21.85v.21H23v.31H21.85v.24H23v.38H21.4Zm-3.74,0h.47v1.5h-.47Zm-1.17-.48.43.19v.1L16.5,15l-.39.1-.05-.1ZM16.64,17v.2a.06.06,0,0,1-.06.06h-.21a.06.06,0,0,1-.06-.06V17a.07.07,0,0,1,.06-.07h.21A.07.07,0,0,1,16.64,17Zm-1.75-1.73h.45v1.5h-.45V16.2h-1v.55h-.45v-1.5h.45v.54h1Zm2.27,0h-.65a3.42,3.42,0,0,0-.64,0,.32.32,0,0,0-.31.26,1.93,1.93,0,0,0,0,.48,2.09,2.09,0,0,0,0,.5.37.37,0,0,0,.31.24h1.29a.36.36,0,0,0,.31-.27,2.09,2.09,0,0,0,0-.5,3.69,3.69,0,0,0,0-.47.38.38,0,0,0-.31-.25Zm-.11,1a.16.16,0,0,1-.07.09h-.13a2,2,0,0,1-.35,0,2.29,2.29,0,0,1-.37,0,.18.18,0,0,1-.16-.13A.58.58,0,0,1,16,16a1.61,1.61,0,0,1,0-.31.12.12,0,0,1,.1-.09,1.48,1.48,0,0,1,.42,0h.39a.19.19,0,0,1,.11.07l.05.1a1,1,0,0,1,0,.24.74.74,0,0,1,0,.21Z" transform="translate(0 -12.34)"/></svg>