<svg id="Layer_1" data-name="Layer 1" xmlns="http://www.w3.org/2000/svg" viewBox="0 0 1024 767.68"><path d="M1005.25,309.66,842.69,147.07a64.08,64.08,0,0,0-45.25-18.75H226.59a64,64,0,0,0-45.25,18.75L18.78,309.66a63.93,63.93,0,0,0-2.59,87.78l448,477.06a63.94,63.94,0,0,0,95.65,0l448-477.06a64,64,0,0,0-2.56-87.78ZM583,352.32H441l71-59.17Zm-46-80,87.43-72.9L689,264l-81,67.49ZM416,331.49,335,264l64.57-64.58L487,272.32Zm175.68,52.83L512,782.82l-79.68-398.5Zm32.64,0h157L545.82,776.93l78.5-392.61Zm8.61-32,78.81-65.63,65.64,65.63Zm29.69-160H775l-61.31,51.1ZM512,251.52l-71-59.2H583Zm-201.73-8.1L249,192.32H361.38Zm2,43.27L391,352.32H246.62Zm87.42,97.63,78.5,392.61L242.66,384.32Zm6.85,335.3L91.65,384.32H205.38Zm412.09-335.3H932.38L617.44,719.68,818.62,384.32Zm4-32-86.17-86.18L810,204.86,957.38,352.32ZM214,204.8l73.63,61.34-86.2,86.18H64.19L214,204.8Z" transform="translate(0 -128.32)"/></svg>