<svg id="Layer_1" data-name="Layer 1" xmlns="http://www.w3.org/2000/svg" viewBox="0 0 101.97 136.32"><path d="M93,114.93a3,3,0,0,1,0,4.24l-11,11a20.63,20.63,0,0,1-22.92,4.44A113,113,0,0,1,20.43,106,118.82,118.82,0,0,1,1.84,77.4a20.78,20.78,0,0,1,4.3-23.31L17,43.28A3.11,3.11,0,0,1,17.3,43a3,3,0,0,1,4.2.61h0L36.58,64.65A3,3,0,0,1,36.69,68L29.24,79.88c-.29.73.11,4,5.42,10.52a72.61,72.61,0,0,0,12.92,12.22c5.36,3.88,8.13,4.4,8.77,4.27l11.86-7.41a3,3,0,0,1,3.31.11l21,15.09h0A2.46,2.46,0,0,1,93,114.93Zm9-97.46V31.68a17.65,17.65,0,0,1-17.7,17.47H71.44l-13,9.78a3.49,3.49,0,0,1-5.59-2.79V48.8a17.51,17.51,0,0,1-14-17.12V17.47A17.49,17.49,0,0,1,56.32,0H84.27A17.65,17.65,0,0,1,102,17.47ZM74.1,16.32a1.72,1.72,0,1,0,1.72-1.72,1.72,1.72,0,0,0-1.72,1.72Zm-9.46,0a1.72,1.72,0,1,0,1.72-1.72,1.72,1.72,0,0,0-1.72,1.72Zm13.58,6h-.14a1.09,1.09,0,0,0-1.29.52,8,8,0,0,1-1,1.46,5.82,5.82,0,0,1-4.6,2.14,6.22,6.22,0,0,1-4.72-2.12,8.64,8.64,0,0,1-1.07-1.49,1,1,0,1,0-1.88.88.35.35,0,0,0,.06.14,10.93,10.93,0,0,0,1.29,1.8,8.39,8.39,0,0,0,6.4,2.94,8,8,0,0,0,6.29-3,10.2,10.2,0,0,0,1.19-1.8,1.08,1.08,0,0,0-.48-1.44l0,0Z" transform="translate(0 0)"/></svg>