<svg id="Layer_1" data-name="Layer 1" xmlns="http://www.w3.org/2000/svg" viewBox="0 0 23.33 30"><title>icon_checking_item</title><path d="M7.66,22.46a.88.88,0,0,1-.19,1.23h0a.86.86,0,0,1-.51.16.87.87,0,0,1-.71-.37l-.46-.64-.46.64a.87.87,0,0,1-.71.37.86.86,0,0,1-.51-.16h0a.88.88,0,0,1-.21-1.23h0l.81-1.13-.8-1.13a.88.88,0,0,1,1.43-1l.46.64.46-.64h0A.88.88,0,0,1,7.48,19a.87.87,0,0,1,.18,1.19l-.81,1.13.81,1.13Zm-.33-10-.1.12h0L5.75,14.34l-.34-.67a.87.87,0,0,0-1.16-.4h0a.89.89,0,0,0-.4,1.18l.94,1.88a.87.87,0,0,0,.69.47h.1a.87.87,0,0,0,.67-.31l2.34-2.81a.87.87,0,0,0,0-1.23h0a.88.88,0,0,0-1.24,0h0Zm16-5.16V25.61A4.42,4.42,0,0,1,18.93,30H4.39A4.41,4.41,0,0,1,0,25.61V7.27A4.43,4.43,0,0,1,3.28,3V2.64A2.64,2.64,0,0,1,5.92,0H17.4A2.64,2.64,0,0,1,20,2.64V3a4.43,4.43,0,0,1,3.28,4.27ZM5,4.82a.87.87,0,0,0,.88.86h11.5a.87.87,0,0,0,.86-.88h0V2.61a.87.87,0,0,0-.88-.86H5.9A.87.87,0,0,0,5,2.63H5ZM21.56,7.27A2.63,2.63,0,0,0,20,4.88,2.63,2.63,0,0,1,17.4,7.44H5.92A2.63,2.63,0,0,1,3.28,4.88,2.63,2.63,0,0,0,1.76,7.27V25.63a2.63,2.63,0,0,0,2.63,2.63H18.93a2.63,2.63,0,0,0,2.63-2.63h0ZM18.85,20.52H13.54a.88.88,0,0,0-.19,1.75.61.61,0,0,0,.19,0h5.12a.88.88,0,1,0,.19-1.75Zm-5.31-5.11h5.12a.88.88,0,0,0,0-1.76H13.54a.88.88,0,0,0,0,1.76Z" transform="translate(0)"/></svg>