<svg id="Layer_1" data-name="Layer 1" xmlns="http://www.w3.org/2000/svg" viewBox="0 0 29.9 30"><title>icon_pronunciation</title><path d="M18.85,6.6a.9.9,0,0,1-.9.9H6.65c-.6,0-1-.3-1-.9a.94.94,0,0,1,1-1h11.2A1.08,1.08,0,0,1,18.85,6.6Zm-4.7,2.8H6.65a.9.9,0,1,0,0,1.8h7.5a.9.9,0,1,0,0-1.8Zm6.5,9.4H7l-5.4,4.5a1.42,1.42,0,0,1-.6.2.6.6,0,0,1-.4-.1.79.79,0,0,1-.5-.8V3.8A3.8,3.8,0,0,1,3.85,0h16.8a3.8,3.8,0,0,1,3.8,3.8V15A3.8,3.8,0,0,1,20.65,18.8Zm0-1.9a1.9,1.9,0,0,0,1.9-1.9h.1V3.8a1.9,1.9,0,0,0-1.9-1.9H3.85A1.9,1.9,0,0,0,2,3.8V20.5l4.1-3.4a1.42,1.42,0,0,1,.6-.2Zm5.7-9.4a.9.9,0,0,0,0,1.8,1.9,1.9,0,0,1,1.9,1.9V27.1l-3.2-2.5a1.42,1.42,0,0,0-.6-.2H11.35a1.9,1.9,0,0,1-1.9-1.9v-.9a.9.9,0,0,0-.9-.9.92.92,0,0,0-1,.9v.9a3.8,3.8,0,0,0,3.8,3.8h12.7l4.4,3.5a1.42,1.42,0,0,0,.6.2.6.6,0,0,0,.4-.1,1,1,0,0,0,.5-.8V11.3A3.63,3.63,0,0,0,26.35,7.5Z" transform="translate(-0.05)"/></svg>