<svg id="Layer_1" data-name="Layer 1" xmlns="http://www.w3.org/2000/svg" viewBox="0 0 1023.97 736"><path d="M829.25,420.58C815.26,274.56,693.7,160,544,160c-115.81,0-214.94,68.74-260.67,167.36C269.57,323,255.23,320,240,320A144,144,0,0,0,96,464c0,15.81,3.17,30.75,7.87,44.93C42.05,545,0,611.17,0,687.94c0,114.88,93.12,208,208,208V896l576-.06c132.58,0,240-107.43,240-240,0-117-83.87-214.18-194.75-235.36ZM784,831.94V832H208c-79.39-.06-144-64.64-144-144.06,0-51.2,27-97.44,72.13-123.75C180,539,183,534,164.64,488.77c-3.1-9.31-4.61-17.41-4.61-24.74a80.07,80.07,0,0,1,80-80,109.31,109.31,0,0,1,43.3,7.36C320,406,324,392,341.38,354.3,378.08,275.17,457.6,224,544,224c115.2,0,210.43,87.14,221.57,202.69,3.93,45.82,3.93,45.82,51.68,56.73A175.87,175.87,0,0,1,960,655.94C960,753,881.06,831.94,784,831.94Z" transform="translate(-0.03 -160)"/></svg>