<svg id="Layer_1" data-name="Layer 1" xmlns="http://www.w3.org/2000/svg" width="25.2" height="30.07" viewBox="0 0 25.2 30.07"><title>icon_reading</title><path d="M27.6,19.26a3,3,0,0,0-2.3-2.9v-3.2a.67.67,0,0,0-.4-.7.75.75,0,0,0-.8-.1l-1.7.6a10.06,10.06,0,0,0-3.9-2.5,6.07,6.07,0,0,0,2.4-4.7,5.9,5.9,0,0,0-11.8.1,5.78,5.78,0,0,0,2.4,4.7,10.06,10.06,0,0,0-3.9,2.5l-1.7-.6a.75.75,0,0,0-.8.1,1,1,0,0,0-.4.7v3.2a3,3,0,0,0,0,5.8v3.4a.76.76,0,0,0,.6.8L14.7,30a.64.64,0,0,0,.6,0l9.4-3.5a1,1,0,0,0,.6-.8v-3.4A3.12,3.12,0,0,0,27.6,19.26ZM10.9,5.86a4.1,4.1,0,0,1,8.2,0A4.06,4.06,0,0,1,15,10,4.12,4.12,0,0,1,10.9,5.86Zm4.1,5.8a8.3,8.3,0,0,1,5.6,2.1L15,15.86l-5.6-2.1A8.82,8.82,0,0,1,15,11.66ZM4.2,19.26a1.22,1.22,0,0,1,1.2-1.2H6v2.3H5.3A1,1,0,0,1,4.2,19.26Zm2.3,2.9a1.4,1.4,0,0,0,1.2-1.4v-2.9a1.4,1.4,0,0,0-1.2-1.4v-1.9l7.6,2.9v10.4L6.5,25Zm9.4,5.7V17.36l7.6-2.9v1.9a1.4,1.4,0,0,0-1.2,1.4v2.9a1.4,1.4,0,0,0,1.2,1.4V25Zm8.8-7.4h-.6v-2.3h.6a1.22,1.22,0,0,1,1.2,1.2A1.28,1.28,0,0,1,24.7,20.46Z" transform="translate(-2.4 0.04)"/></svg>