<svg id="Layer_1" data-name="Layer 1" xmlns="http://www.w3.org/2000/svg" width="30" height="30" viewBox="0 0 30 30"><title>icon_schedule_date</title><path d="M22,7a1.79,1.79,0,0,1-1.8-1.8V1.8a1.8,1.8,0,1,1,3.6,0V5.3A1.77,1.77,0,0,1,22,7Zm4.8-3.5H25.6V5.3a3.5,3.5,0,0,1-7,0V3.5h-7V5.3A3.54,3.54,0,0,1,8.1,8.8,3.63,3.63,0,0,1,4.5,5.3V3.5H3.2A3.22,3.22,0,0,0,0,6.7v3.9H30V6.7A3.22,3.22,0,0,0,26.8,3.5ZM8,7A1.77,1.77,0,0,1,6.2,5.3V1.8a1.8,1.8,0,0,1,3.6,0V5.3A1.92,1.92,0,0,1,8,7ZM0,13.1H30V26.2A3.8,3.8,0,0,1,26.2,30H3.8A3.78,3.78,0,0,1,0,26.3Z"/></svg>