<svg id="Layer_1" data-name="Layer 1" xmlns="http://www.w3.org/2000/svg" viewBox="0 0 30 30"><title>icon_online</title><path d="M25.6,4.4A15,15,0,1,0,30,15,15,15,0,0,0,25.6,4.4Zm1.5,5.3H24.5a3.34,3.34,0,0,0-3-2.3,13.67,13.67,0,0,0-3.3-5.2,13.4,13.4,0,0,1,6.1,3.5A11.16,11.16,0,0,1,27.1,9.7ZM28.2,15a14.87,14.87,0,0,1-.5,3.6H22.6a18.16,18.16,0,0,0,.2-5.2,3.39,3.39,0,0,0,1.7-2h3.2A11.19,11.19,0,0,1,28.2,15ZM4.6,18.6H2.2A14.87,14.87,0,0,1,1.7,15a14.87,14.87,0,0,1,.5-3.6H7.3A31.45,31.45,0,0,0,7,15.8,4.23,4.23,0,0,0,4.6,18.6Zm16.9-6.7a1.4,1.4,0,1,1,1.4-1.4A1.37,1.37,0,0,1,21.5,11.9Zm-3-2.2H15.9V2.4a12.49,12.49,0,0,1,4,5.4A3,3,0,0,0,18.5,9.7ZM14.1,2.4V9.6H9.5a17.23,17.23,0,0,1,.7-2.1A13.6,13.6,0,0,1,14.1,2.4Zm0,9v7.2H12.2a4,4,0,0,0-3.4-3,29.66,29.66,0,0,1,.3-4.2ZM8.4,17.3a2.2,2.2,0,1,1-2.2,2.2A2.22,2.22,0,0,1,8.4,17.3Zm3.9,3h1.9v7.2a11,11,0,0,1-3.7-4.7A4.32,4.32,0,0,0,12.3,20.3Zm3.6,7.3V20.4h4.6c-.2.6-.4,1.2-.6,1.7A12.13,12.13,0,0,1,15.9,27.6Zm0-9V11.4h2.6a3.24,3.24,0,0,0,2.7,2.3,19.89,19.89,0,0,1-.3,4.9ZM5.6,5.6a13.4,13.4,0,0,1,6.1-3.5A16.55,16.55,0,0,0,8.6,6.9a13.09,13.09,0,0,0-.9,2.8H2.9A13.9,13.9,0,0,1,5.6,5.6ZM2.9,20.3H4.6a3.94,3.94,0,0,0,3.8,3.1h.3a14,14,0,0,0,2.9,4.4,13.4,13.4,0,0,1-6.1-3.5A13.81,13.81,0,0,1,2.9,20.3Zm21.5,4.1a13.4,13.4,0,0,1-6.1,3.5,14.07,14.07,0,0,0,3.3-5.1c.3-.8.5-1.6.8-2.4h4.8A18,18,0,0,1,24.4,24.4Z"/></svg>