<svg id="Layer_1" data-name="Layer 1" xmlns="http://www.w3.org/2000/svg" viewBox="0 0 1024 1023.97"><path d="M972.51,405.76l-98-19.65a387.11,387.11,0,0,0-17.18-41.25l55.55-83.32a64,64,0,0,0-8-80.74l-61.57-61.57a64,64,0,0,0-80.73-8L679.2,166.75a389,389,0,0,0-41.31-17.15L618.24,51.52A64,64,0,0,0,555.49.06h-87A64,64,0,0,0,405.7,51.52L386.05,149.6a387.29,387.29,0,0,0-41.25,17.15l-83.3-55.52a64,64,0,0,0-80.76,8L119.2,180.8a64,64,0,0,0-8,80.74l55.52,83.32a385.88,385.88,0,0,0-17.15,41.28L51.46,405.76A64,64,0,0,0,0,468.51v87A64,64,0,0,0,51.46,618.3L149.54,638a385.22,385.22,0,0,0,17.15,41.25L111.2,762.56a64,64,0,0,0,8,80.74l61.57,61.56a63.92,63.92,0,0,0,80.73,8l83.33-55.55a378,378,0,0,0,41.28,17.19l19.62,98A64,64,0,0,0,468.48,1024h87a64,64,0,0,0,62.75-51.49l19.68-98a387.51,387.51,0,0,0,41.25-17.19l83.33,55.55a63.92,63.92,0,0,0,80.73-8l61.57-61.56a64,64,0,0,0,8-80.74l-55.55-83.33a377.31,377.31,0,0,0,17.18-41.31l98-19.62A64,64,0,0,0,1024,555.55v-87a64,64,0,0,0-51.49-62.75ZM861.89,575.2A63.89,63.89,0,0,0,814,617a324.94,324.94,0,0,1-14.31,34.37A63.89,63.89,0,0,0,804,714.75l55.55,83.33L798,859.65,714.69,804.1a64,64,0,0,0-63.36-4.39,323.65,323.65,0,0,1-34.43,14.37A63.93,63.93,0,0,0,575.2,862l-19.68,98.11h-87L448.86,862a63.9,63.9,0,0,0-41.72-47.87,326.61,326.61,0,0,1-34.4-14.3,63.82,63.82,0,0,0-63.4,4.32L226,859.65l-61.57-61.57L220,714.75a64.11,64.11,0,0,0,4.38-63.36A322.56,322.56,0,0,1,210,617a64,64,0,0,0-47.88-41.7L64.06,555.58,64,468.51l98.11-19.61A64,64,0,0,0,210,407.17a318.39,318.39,0,0,1,14.31-34.4,63.84,63.84,0,0,0-4.35-63.39l-55.49-83.33L226,164.48,309.31,220a64,64,0,0,0,63.36,4.38,325,325,0,0,1,34.4-14.33,64,64,0,0,0,41.73-47.87L468.45,64.1l87,0,19.61,98.12a64,64,0,0,0,41.76,47.87,317.85,317.85,0,0,1,34.37,14.3A64.06,64.06,0,0,0,714.66,220L798,164.48l61.57,61.57L804,309.38a64.15,64.15,0,0,0-4.38,63.36A322.24,322.24,0,0,1,814,407.14a63.93,63.93,0,0,0,47.88,41.72l98,19.65.1,87ZM512,288c-123.68,0-224,100.32-224,224S388.32,736,512,736,736,635.71,736,512,635.68,288,512,288Zm0,420c-108.22,0-196-87.8-196-196s87.78-196,196-196,196,87.78,196,196S620.19,708.06,512,708.06Zm0-324A128,128,0,1,0,640,512,128,128,0,0,0,512,384Zm0,224a96,96,0,1,1,96-96A96,96,0,0,1,512,608.06Z" transform="translate(0 -0.06)"/></svg>