<svg id="Layer_1" data-name="Layer 1" xmlns="http://www.w3.org/2000/svg" viewBox="0 0 704 1024"><path d="M512,0C317.57,0,160,157.57,160,352c0,129,118,265.7,161,385.76,64.1,179,57,286.24,191,286.24,136,0,126.88-106.69,191-285.5C746.11,618.18,864,480,864,352,864,157.57,706.37,0,512,0Zm82.94,869.63L436.29,889.44c-5.67-16.38-11.75-35.55-19.14-60.58-.09-.32-.22-.67-.29-1l198-24.73c-2.82,9.44-5.82,19.36-8.45,28.25-4.19,14.37-7.93,26.85-11.49,38.24ZM407.55,797.06c-5.82-19.27-12.38-39.56-19.68-61.06H636.38c-3.93,11.49-7.87,23-11.26,33.89L407.55,797.06ZM512,960c-32.42,0-47.33-3.74-63.9-40l135.61-17c-19.65,52.93-34,57-71.71,57ZM661.5,672H362.85c-15.94-34.56-35.07-69.12-54-102.94C267.14,494.34,224,417.06,224,352,224,193.18,353.18,64,512,64S800,193.18,800,352c0,64.58-43.2,142.27-85,217.44-18.69,33.7-37.7,68.19-53.51,102.56ZM512,160a16,16,0,0,1,0,32c-88.22,0-160,71.78-160,160a16,16,0,0,1-32,0C320,246.11,406.11,160,512,160Z" transform="translate(-160 0)"/></svg>