<svg id="Layer_1" data-name="Layer 1" xmlns="http://www.w3.org/2000/svg" width="22.78" height="30" viewBox="0 0 22.78 30"><title>icon_faq</title><path d="M14.41,13.2a1.2,1.2,0,1,1,1.2,1.21A1.2,1.2,0,0,1,14.41,13.2Zm12-5.11V28.32A1.68,1.68,0,0,1,24.71,30H6.61a3,3,0,0,1-3-3V4.2a4.29,4.29,0,0,1,.73-2.34A4.57,4.57,0,0,1,5.48.72,4.23,4.23,0,0,1,7.83,0H22.05a1.68,1.68,0,0,1,1.68,1.66V6.42h1A1.68,1.68,0,0,1,26.39,8.09ZM5.84,4a2.22,2.22,0,0,0,2,2.42H21.71V2H7.83A2.22,2.22,0,0,0,5.84,4ZM24.39,8.44H7.84a4.17,4.17,0,0,1-2.2-.63V27a1,1,0,0,0,1,1H24.39ZM15.61,24a1.2,1.2,0,0,0,1.2-1.2v-6a1.17,1.17,0,0,0-.35-.85,1.19,1.19,0,0,0-.85-.35h0a1.2,1.2,0,0,0-1.2,1.2v6A1.2,1.2,0,0,0,15.61,24Z" transform="translate(-3.61)"/></svg>