<svg id="Layer_1" data-name="Layer 1" xmlns="http://www.w3.org/2000/svg" width="26.26" height="30.01" viewBox="0 0 26.26 30.01"><title>icon_history</title><path d="M27.18,5H25.63V.94A.94.94,0,0,0,24.68,0H5.31A3.45,3.45,0,0,0,1.87,3.44V26.56A3.45,3.45,0,0,0,5.31,30H27.18a.94.94,0,0,0,.95-.94V5.94A.94.94,0,0,0,27.18,5ZM23.74,5H5.31a1.56,1.56,0,0,1,0-3.12H23.74Zm2.5,1.88V28.12H5.31a1.58,1.58,0,0,1-1.56-1.56V6.49a3.4,3.4,0,0,0,1.56.39ZM15,25.63A8.13,8.13,0,1,0,6.87,17.5,8.14,8.14,0,0,0,15,25.63ZM8.76,17.5A6.25,6.25,0,1,1,15,23.75,6.28,6.28,0,0,1,8.76,17.5Zm7.76,2.85a.93.93,0,0,0,.66.27h0a.91.91,0,0,0,.67-.28,1,1,0,0,0,0-1.34l-1.91-1.91v-3a1,1,0,0,0-.34-.63l0,0a.87.87,0,0,0-.27-.14l-.08,0a1.3,1.3,0,0,0-.21,0h-.1a1,1,0,0,0-.84.84V17.5a.94.94,0,0,0,.27.66Zm-.86-6.81a.1.1,0,0,0,0,0A.1.1,0,0,1,15.66,13.54Zm-.25-.18-.09,0Zm-.31-.09a.43.43,0,0,0-.16,0H15Z" transform="translate(-1.87 0)"/></svg>