<svg id="Layer_1" data-name="Layer 1" xmlns="http://www.w3.org/2000/svg" viewBox="0 0 18.4 28"><title>icon_clock_sand_solid</title><path d="M15.1,16l5.6,4.2a1.78,1.78,0,0,1,.6,1.3v2.2H18.77a.92.92,0,0,0-.27-.4l-2.9-2.6a1,1,0,0,0-1.4,0l-2.9,2.6a.91.91,0,0,0-.23.4H8.9V21.5a1.46,1.46,0,0,1,.7-1.3ZM8.2,25.1h-1v2.6H22.7V25.1H8.2ZM22.8,2.3H7.2V4.9H22.8Zm-14,6a1.62,1.62,0,0,0,.7,1.4l1.88,1.5h7.25L20.5,9.7a1.62,1.62,0,0,0,.7-1.4v-2H8.8Zm12.7,2.3-5.3,4.2,5.3,4a3.34,3.34,0,0,1,1.2,2.5v2.2h.2a1.32,1.32,0,0,1,1.3,1.3v2.8a1.32,1.32,0,0,1-1.3,1.3H7.1a1.32,1.32,0,0,1-1.3-1.3V24.8a1.32,1.32,0,0,1,1.3-1.3h.4V21.3a3,3,0,0,1,1.2-2.4l5.2-4L8.6,10.7A3,3,0,0,1,7.4,8.3v-2H7.1A1.32,1.32,0,0,1,5.8,5V2.2A1.32,1.32,0,0,1,7.1.9H22.9a1.32,1.32,0,0,1,1.3,1.3V5a1.32,1.32,0,0,1-1.3,1.3h-.3v2A2.59,2.59,0,0,1,21.5,10.6Zm1.3-5.7V2.3H7.2V4.9ZM8.3,25.1H7.2v2.6H22.7V25.1H8.3ZM15.1,16,9.6,20.2a1.46,1.46,0,0,0-.7,1.3v2.2h2.17a.91.91,0,0,1,.23-.4l2.9-2.6a1,1,0,0,1,1.4,0l2.9,2.6a.92.92,0,0,1,.27.4H21.3V21.5a1.78,1.78,0,0,0-.6-1.3Zm6.1-9.7H8.8v2a1.62,1.62,0,0,0,.7,1.4l1.88,1.5h7.25L20.5,9.7a1.62,1.62,0,0,0,.7-1.4Z" transform="translate(-5.8 -0.9)"/></svg>