<svg id="Layer_1" data-name="Layer 1" xmlns="http://www.w3.org/2000/svg" viewBox="0 0 21.8 30.07"><path d="M25.9,10.23a10.92,10.92,0,0,0-21.8,0v.6a10.9,10.9,0,0,0,4.29,8.64L7.9,20.73l.13.09H7.9L5.6,27.43c-.1.2.1.4.3.4l3.2-.3c.1,0,.2,0,.2.1l2.3,2.3c.2.2.4.1.5-.1l2.3-6.7L14.28,23h.22l.5-1.3.5,1.3h.22l-.12.12,2.3,6.7c.1.2.3.3.5.1l2.3-2.3c0-.1.1-.1.2-.1l3.2.3c.2,0,.4-.2.3-.4l-2.3-6.6H22l.13-.09-.49-1.26a10.92,10.92,0,0,0,4.26-8.65Zm-7.4,4.7h-6v-1.7l2.8-2.9a2.12,2.12,0,0,0,.7-1.5c0-.6-.3-.8-1-.8a4.63,4.63,0,0,0-1.1.2,3,3,0,0,0-1.1.6l-.7-1.6a3.91,3.91,0,0,1,1.3-.7,5,5,0,0,1,1.7-.3,3.68,3.68,0,0,1,1.6.3,3,3,0,0,1,1.1.8,2,2,0,0,1,.4,1.3,3.59,3.59,0,0,1-.3,1.4,5.27,5.27,0,0,1-1,1.4l-1.7,1.7h3.3Z" transform="translate(-4.1 0.03)"/></svg>