<svg id="Layer_1" data-name="Layer 1" xmlns="http://www.w3.org/2000/svg" viewBox="0 0 1024 896"><path d="M512,224a16,16,0,0,1,0,32c-170.46,0-320,89.73-320,192a16,16,0,0,1-32,0C160,326.59,321.18,224,512,224Zm0-160C229.22,64,0,235.94,0,448,0,580.06,88.93,696.51,224.26,765.63c0,.87-.26,1.44-.26,2.37,0,57.38-42.85,119.14-61.7,151.55h.07A29,29,0,0,0,189,960c3,0,8.29-.8,8.16-.45,100-16.38,194.21-108.25,216.1-134.88A677,677,0,0,0,512,832c282.72,0,512-171.94,512-384S794.75,64,512,64Zm0,704a622,622,0,0,1-89.47-6.62,56.06,56.06,0,0,0-9.28-.68,64,64,0,0,0-49.47,23.36c-13.7,16.68-52.68,53.89-98.72,81.25,12.48-28.64,22.24-60.73,22.91-93.82.19-2,.29-4.13.29-5.89a64,64,0,0,0-34.88-57C134.78,648.06,64,550.62,64,448c0-176.45,201-320,448-320S960,271.55,960,448,759,768,512,768Z" transform="translate(0 -64)"/></svg>