<svg id="Layer_1" data-name="Layer 1" xmlns="http://www.w3.org/2000/svg" width="29.3" height="30" viewBox="0 0 29.3 30"><title>icon_vocabulary</title><path d="M20.3,11.5l1.8-.5-.5-1.8-1.8.5ZM8.3,28.1H2.8l7-26.3h7.9l.6,2.4,1.8-.5-1-3.8H8.3l-8,30H9.8l1.3-5.6h2.6V22.4H9.6Zm11-20.2,1.8-.5-.5-1.8-1.8.5ZM14.8,5.6H12.6L9.1,18.8h4.6V16.9H11.6l2.1-8,.7,2.7,1.8-.5ZM24,13.1H15.6v5.6h7.5a.9.9,0,0,1,.9.9v.9H20.2a4.7,4.7,0,0,0,0,9.4h9.4V18.8A5.49,5.49,0,0,0,24,13.1Zm3.8,15H20.3a2.8,2.8,0,0,1,0-5.6h5.6V19.7a2.8,2.8,0,0,0-2.8-2.8H17.5V15H24a3.8,3.8,0,0,1,3.8,3.8Zm-1.9-3.7H20.3v1.9h5.6Z" transform="translate(-0.3 0.1)"/></svg>