<svg id="Layer_1" data-name="Layer 1" xmlns="http://www.w3.org/2000/svg" width="29.98" height="30" viewBox="0 0 29.98 30"><title>icon_star_outline</title><path d="M13,.93,12.9,1Zm-.27.35v0Zm16.43,13-5.16,5,1.21,7.36a2.85,2.85,0,0,1-1.07,2.77,2.69,2.69,0,0,1-2.94.22L15,26.22,8.75,29.66a2.65,2.65,0,0,1-2.93-.22,2.83,2.83,0,0,1-1.08-2.77L6,19.3.84,14.23a2.88,2.88,0,0,1-.72-2.9,2.79,2.79,0,0,1,2.22-2l7-1.09,3.15-6.6a2.27,2.27,0,0,1,.19-.34l-.09.18a1.71,1.71,0,0,1,.13-.23l0,0L12.9,1l0,.05L13,.88l0,.05A2.72,2.72,0,0,1,14.21.12l-.06,0,.16,0h-.07A2.7,2.7,0,0,1,17.5,1.64l3.13,6.64,7,1.09a2.78,2.78,0,0,1,2.22,2A2.86,2.86,0,0,1,29.12,14.26ZM7.43,28.16h0Zm.14,0h0a.84.84,0,0,0,.3-.08h0l.09,0,7.08-4L22.09,28A.81.81,0,0,0,23,28a1,1,0,0,0,.36-1L22,18.65l5.78-5.76a1,1,0,0,0,.25-1,.92.92,0,0,0-.72-.66l-8-1.24L15.75,2.45a.85.85,0,0,0-1.57,0L10.64,10l-8,1.24a.93.93,0,0,0-.71.66,1,1,0,0,0,.25,1L8,18.65,6.59,27A1,1,0,0,0,7,28,.87.87,0,0,0,7.57,28.15ZM28.29,9.59a2.43,2.43,0,0,0-.61-.2A2.43,2.43,0,0,1,28.29,9.59Zm.64.4a2.56,2.56,0,0,0-.48-.33A3.14,3.14,0,0,1,28.93,10Zm.53.58a3.23,3.23,0,0,0-.38-.45A3.23,3.23,0,0,1,29.46,10.57Zm.35.74a2.85,2.85,0,0,0-.26-.59A2.85,2.85,0,0,1,29.81,11.31ZM14.59,0l.16,0ZM13.19.7l.14-.11Zm.56-.39.14-.07Zm.46-.19h0Zm-6.64,28a.79.79,0,0,0,.22-.06A.79.79,0,0,1,7.57,28.15Z" transform="translate(0.01)"/></svg>