<svg id="Layer_1" data-name="Layer 1" xmlns="http://www.w3.org/2000/svg" width="29.96" height="30" viewBox="0 0 29.96 30"><title>icon_time</title><rect x="7.1" y="7.2" width="16" height="16" style="fill:none"/><path d="M28.25,8A15,15,0,1,0,8,28.25,15,15,0,0,0,28.31,21.9,15,15,0,0,0,28.25,8Zm-14.33.3a.58.58,0,0,1,.37-.13h.05a.6.6,0,0,1,.53.51v6.81H20.2l.11,0,.11.06a.52.52,0,0,1,.19.38.53.53,0,0,1-.13.42.58.58,0,0,1-.38.21H14.27a.55.55,0,0,1-.55-.53V8.67A.5.5,0,0,1,13.92,8.3Z" transform="translate(-0.03 -0.01)"/></svg>