<svg id="Layer_1" data-name="Layer 1" xmlns="http://www.w3.org/2000/svg" viewBox="0 0 30 30"><title>icon_deadline</title><path d="M22.6,13.5a1.2,1.2,0,0,1,0-2.4,1.16,1.16,0,0,1,1.2,1.2A1.22,1.22,0,0,1,22.6,13.5ZM25.3,2.3H23.8V1.2a1.2,1.2,0,0,0-2.4,0V2.4H16.1V1.2a1.2,1.2,0,0,0-2.4,0V2.4H8.5V1.2A1.16,1.16,0,0,0,7.3,0,1.08,1.08,0,0,0,6.2,1.2V2.4H4.7A4.55,4.55,0,0,0,0,7V25.3A4.69,4.69,0,0,0,4.7,30h9a1.2,1.2,0,1,0,0-2.4h-9a2.33,2.33,0,0,1-2.3-2.3V7A2.33,2.33,0,0,1,4.7,4.7H6.2V5.9A1.11,1.11,0,0,0,7.3,7,1.22,1.22,0,0,0,8.5,5.8V4.7h5.3V5.9a1.2,1.2,0,0,0,2.4,0V4.7h5.3V5.9A1,1,0,0,0,22.6,7a1.22,1.22,0,0,0,1.2-1.2V4.7h1.5A2.33,2.33,0,0,1,27.6,7v6.7a1.2,1.2,0,0,0,2.4,0V7A4.69,4.69,0,0,0,25.3,2.3ZM30,22.9a7.1,7.1,0,1,1-7.1-7.1A7.13,7.13,0,0,1,30,22.9Zm-2.4.1a4.7,4.7,0,1,0-4.7,4.7A4.69,4.69,0,0,0,27.6,23Zm-3-1.3h-.5V20.5a1.2,1.2,0,0,0-2.4,0v2.4a1.22,1.22,0,0,0,1.2,1.2h1.7a1.2,1.2,0,1,0,0-2.4Zm-5.9-9.4a1.16,1.16,0,0,0-1.2-1.2,1.2,1.2,0,1,0,1.2,1.2Zm-6.3,3.9a1.22,1.22,0,0,0-1.2,1.2,1.29,1.29,0,0,0,1.2,1.2,1.2,1.2,0,0,0,0-2.4ZM7.3,11.1a1.16,1.16,0,0,0-1.2,1.2,1.2,1.2,0,1,0,2.4,0A1.16,1.16,0,0,0,7.3,11.1Zm0,5.1a1.16,1.16,0,0,0-1.2,1.2,1.38,1.38,0,0,0,1.2,1.2,1.2,1.2,0,0,0,0-2.4ZM6.1,22.5a1.2,1.2,0,0,0,2.4,0,1.16,1.16,0,0,0-1.2-1.2A1.16,1.16,0,0,0,6.1,22.5Zm5.1,0a1.2,1.2,0,1,0,2.4,0,1.16,1.16,0,0,0-1.2-1.2A1.22,1.22,0,0,0,11.2,22.5Zm1.2-11.4a1.2,1.2,0,1,0,1.2,1.2A1.16,1.16,0,0,0,12.4,11.1Z"/></svg>