<svg id="Layer_1" data-name="Layer 1" xmlns="http://www.w3.org/2000/svg" viewBox="0 0 30 24.7"><title>icon_no_subtitle</title><path d="M23.85,2.65H6.15A6.16,6.16,0,0,0,0,8.8v9.5a6.05,6.05,0,0,0,4.35,5.82l3,3a.88.88,0,0,0,1.25,0l2.72-2.72H23.85A6.16,6.16,0,0,0,30,18.22V8.8A6.16,6.16,0,0,0,23.85,2.65Zm-12.92,20a.85.85,0,0,0-.62.26L8,25.23,5.43,22.71A.88.88,0,0,0,5,22.48,4.29,4.29,0,0,1,1.76,18.3V8.8A4.36,4.36,0,0,1,2.77,6L10,11.08H9.42a.88.88,0,1,0,0,1.75h3.07l1.93,1.35h-5a.88.88,0,1,0,0,1.76h7.51l8.86,6.2a4.37,4.37,0,0,1-1.94.47Zm17.31-4.39a4.37,4.37,0,0,1-1.18,3l-7.52-5.26h1a.88.88,0,1,0,0-1.76H17l-1.92-1.35h5.47a.88.88,0,1,0,0-1.75h-8L4,5a4.35,4.35,0,0,1,2.2-.61h17.7A4.4,4.4,0,0,1,28.24,8.8Z" transform="translate(0 -2.65)"/></svg>