<svg id="Layer_1" data-name="Layer 1" xmlns="http://www.w3.org/2000/svg" viewBox="0 0 30 30"><path d="M15,0C6.56,0,0,6.19,0,14.55A14.23,14.23,0,0,0,4.72,25.31c.51.46.4.72.49,3.53A1.2,1.2,0,0,0,6.45,30a1.34,1.34,0,0,0,.45-.1c3.2-1.41,3.24-1.52,3.78-1.37C20,31.08,30,25.14,30,14.55,30,6.19,23.5,0,15,0Zm9,11.2-4.42,7a2.26,2.26,0,0,1-3.11.7l-.15-.1-3.51-2.63a.92.92,0,0,0-1.09,0L7,19.75a.71.71,0,0,1-1-.94l4.41-7a2.26,2.26,0,0,1,3.12-.7.71.71,0,0,1,.14.1l3.51,2.62a.89.89,0,0,0,1.09,0L23,10.25a.71.71,0,0,1,1,.95Z" transform="translate(0 0)"/></svg>