<svg id="Layer_1" data-name="Layer 1" xmlns="http://www.w3.org/2000/svg" viewBox="0 0 30 30.01"><title>icon_open_new_book</title><path d="M21.88,13.75A8.13,8.13,0,1,0,30,21.89v0A8.14,8.14,0,0,0,21.88,13.75ZM21.33,25a.91.91,0,0,1-.67.32A1,1,0,0,1,20,25l-2.5-2.5,1.33-1.33L20.58,23l3.72-4.24L25.71,20ZM1.88,22.86V7.19A1.56,1.56,0,0,1,3.44,5.63H5v.31A2.19,2.19,0,0,0,7.18,8.13h6.88a2.2,2.2,0,0,0,2.19-2.19V5.63h1.56a1.56,1.56,0,0,1,1.56,1.56v3.86h1.88V7.19a3.44,3.44,0,0,0-3.44-3.44H16.25V3.44a.94.94,0,0,0-.94-.94H13.93a3.44,3.44,0,0,0-6.62,0H5.93A.94.94,0,0,0,5,3.44v.31H3.44A3.44,3.44,0,0,0,0,7.19V22.81a3.44,3.44,0,0,0,3.44,3.44h8.05V24.37h-8A1.56,1.56,0,0,1,1.88,22.86Zm5-18.48H8.12a.94.94,0,0,0,.94-.94,1.56,1.56,0,0,1,3.12,0,.94.94,0,0,0,.94.94h1.25V5.94a.31.31,0,0,1-.31.31H7.18a.31.31,0,0,1-.31-.31ZM4.68,10H16.55v1.87H4.68Zm0,3.75h9v1.87h-9Zm6.8,5.62H4.68V17.5h6.8Z" transform="translate(0 0)"/></svg>