<svg id="Layer_1" data-name="Layer 1" xmlns="http://www.w3.org/2000/svg" viewBox="0 0 21.75 29.96"><path d="M22.06,20.86h0l-.47-1.35h0a10.83,10.83,0,0,0,4.28-8.64v-.53h0a10.89,10.89,0,0,0-21.75,0v.55a10.9,10.9,0,0,0,4.29,8.64h0L7.9,20.86h0L5.54,27.48a.29.29,0,0,0,.17.37h0a.33.33,0,0,0,.14,0l3.2-.31a.31.31,0,0,1,.25.08l2.35,2.27a.31.31,0,0,0,.42,0,.28.28,0,0,0,.08-.12l2.32-6.67h0L15,21.76h0l.47,1.35h0l2.32,6.67a.32.32,0,0,0,.38.19h0a.36.36,0,0,0,.12-.08l2.33-2.27a.32.32,0,0,1,.24-.08l3.23.33a.29.29,0,0,0,.34-.23.25.25,0,0,0,0-.17Z" transform="translate(-4.12 -0.02)"/></svg>