<svg id="Layer_1" data-name="Layer 1" xmlns="http://www.w3.org/2000/svg" viewBox="0 0 29.84 30"><title>icon_star_half</title><path d="M29.79,11.29a2.79,2.79,0,0,0-2.23-2l-7-1.09L17.39,1.58A2.78,2.78,0,0,0,15.05,0h-.18a2.8,2.8,0,0,0-2.31,1.58L9.47,8.23l-7,1.09a2.8,2.8,0,0,0-2.22,2,2.89,2.89,0,0,0,.71,2.88l5.18,5.1L4.83,26.67a2.88,2.88,0,0,0,1.09,2.77,2.67,2.67,0,0,0,2.94.22l6.19-3.39,6.13,3.39a2.69,2.69,0,0,0,2.95-.22,2.83,2.83,0,0,0,1.08-2.76L24,19.29l5.07-5.1A2.88,2.88,0,0,0,29.79,11.29Zm-2,1.57-5.81,5.77L23.31,27A1,1,0,0,1,23,28,.82.82,0,0,1,22,28l-7-3.91V1.91a.82.82,0,0,1,.6.47l3.57,7.56,8,1.24a.93.93,0,0,1,.73.66A1,1,0,0,1,27.75,12.86Z" transform="translate(-0.08 0)"/></svg>