<svg id="Layer_1" data-name="Layer 1" xmlns="http://www.w3.org/2000/svg" viewBox="0 0 24.79 29.96"><path d="M22.3,10.29A7.77,7.77,0,0,0,27.39,3a.69.69,0,0,0-.58-.72H22.6V.74a.62.62,0,0,0-.2-.51A.7.7,0,0,0,21.88,0H8.35a.71.71,0,0,0-.49.2.77.77,0,0,0-.26.5v1.5H3.29a.64.64,0,0,0-.49.17.78.78,0,0,0-.2.53,7.84,7.84,0,0,0,5.33,7.41h0a6.44,6.44,0,0,0,4.08,4v1.58a2.4,2.4,0,0,1-1.33,2.18A3.38,3.38,0,0,0,8.9,20.43H8.07a.71.71,0,0,0-.71.71h0V26H6.22a.71.71,0,0,0-.71.68v2.56a.79.79,0,0,0,.2.51.71.71,0,0,0,.51.21H24a.71.71,0,0,0,.72-.71V26.74a.7.7,0,0,0-.68-.73H22.89V21.13a.63.63,0,0,0-.2-.5.72.72,0,0,0-.52-.23h-.89A3.27,3.27,0,0,0,19.49,18a2.54,2.54,0,0,1-1.33-2.15V14.38A6.29,6.29,0,0,0,22.3,10.29ZM7,28.6V27.45H23.3V28.6ZM8.79,26V21.83H21.46V26Zm1.66-5.58a2.07,2.07,0,0,1,1-1.08,3.83,3.83,0,0,0,2.1-3.44V14.63h3.22v1.28a3.87,3.87,0,0,0,2.11,3.44h0a1.87,1.87,0,0,1,1,1.08Zm-1.37-19H21.16V8.36a4.89,4.89,0,0,1-4.88,4.88H14A4.92,4.92,0,0,1,9.08,8.39ZM22.6,8.62V3.73h3.33A6.41,6.41,0,0,1,22.6,8.62ZM7.68,8.67a6.47,6.47,0,0,1-3.62-5H7.67V8.32C7.67,8.43,7.67,8.55,7.68,8.67Zm5.2-1.25L12.6,9.08a.74.74,0,0,0,.61.82h.11a.64.64,0,0,0,.28-.06L15.11,9l1.51.8h.32a.65.65,0,0,0,.41-.13.69.69,0,0,0,.25-.61l-.24-1.66L18.6,6.25a.72.72,0,0,0,.23-.75A.69.69,0,0,0,18.16,5l-1.65-.24-.69-1.5a.66.66,0,0,0-.68-.4.71.71,0,0,0-.63.39l-.77,1.5L12.08,5a.73.73,0,0,0-.63.8.74.74,0,0,0,.22.44Zm3.22-.79h0a.82.82,0,0,0-.2.62l.11.6-.52-.27a.63.63,0,0,0-.31-.1h0a.77.77,0,0,0-.37,0l-.54.28.1-.62a.72.72,0,0,0-.21-.65l-.38-.33.58-.09a.65.65,0,0,0,.51-.39l.27-.54.28.55a.77.77,0,0,0,.53.38l.62.11Z" transform="translate(-2.6 -0.02)"/></svg>