<svg id="Layer_1" data-name="Layer 1" xmlns="http://www.w3.org/2000/svg" viewBox="0 0 30 24.88"><title>icon_self_roleplay</title><path d="M24.14,15.22a3.91,3.91,0,1,0-3.91-3.91h0A3.91,3.91,0,0,0,24.14,15.22ZM22,11.32a2.14,2.14,0,0,1,2.13-2.15h0A2.15,2.15,0,1,1,22,11.33ZM5.86,15.22a3.91,3.91,0,1,0-3.86-4v.06A3.91,3.91,0,0,0,5.86,15.22Zm0-6.05a2.15,2.15,0,1,1-2.15,2.15A2.15,2.15,0,0,1,5.86,9.17ZM15,13A5.22,5.22,0,1,0,9.78,7.78,5.22,5.22,0,0,0,15,13Zm0-8.68a3.46,3.46,0,1,1-3.46,3.46A3.46,3.46,0,0,1,15,4.32ZM25.61,15.71H22.67a4.57,4.57,0,0,0-1.16.16,4.38,4.38,0,0,0-3.91-2.41H12.4a4.38,4.38,0,0,0-3.91,2.41,4.57,4.57,0,0,0-1.16-.16H4.39A4.4,4.4,0,0,0,0,20.11V24.8a2.64,2.64,0,0,0,2.64,2.64H27.36A2.64,2.64,0,0,0,30,24.8V20.11A4.4,4.4,0,0,0,25.61,15.71ZM8,17.85v7.83H2.64a.87.87,0,0,1-.88-.86V20.11a2.65,2.65,0,0,1,2.63-2.64H7.33a2.67,2.67,0,0,1,.69.09A2.83,2.83,0,0,0,8,17.85Zm12.22,7.83H9.77V17.85a2.63,2.63,0,0,1,2.63-2.63h5.2a2.63,2.63,0,0,1,2.63,2.63Zm8-.88a.87.87,0,0,1-.86.88H22V17.85a1.41,1.41,0,0,0,0-.29,2.67,2.67,0,0,1,.69-.09h2.94a2.65,2.65,0,0,1,2.63,2.64Z" transform="translate(0 -2.56)"/></svg>