<svg id="Layer_1" data-name="Layer 1" xmlns="http://www.w3.org/2000/svg" viewBox="0 0 29.4 30.2"><title>icon_learn_vocab</title><path d="M18.8,6.1l1.8-.5.5,1.8-1.8.5ZM8.3,28.1H2.8l7-26.3h7.9l.6,2.4,1.8-.5-1-3.8H8.3l-8,30H9.8l1.3-5.6h.7V22.4H9.6Zm12-16.6,1.8-.5-.5-1.8-1.8.5Zm9.4,10.6a8,8,0,1,1-8-8A8,8,0,0,1,29.7,22.1ZM27.8,22a6.1,6.1,0,1,0-6.1,6.1A6.06,6.06,0,0,0,27.8,22Zm-7,.1-1.2-1.2-1.3,1.3,2.5,2.5,4.4-4.4L23.9,19ZM13.7,8.8l1.2,4.4,1.8-.5L14.8,5.6H12.6L9.1,18.8h3.6V16.9H11.5Z" transform="translate(-0.3 0.1)"/></svg>