<svg id="Layer_1" data-name="Layer 1" xmlns="http://www.w3.org/2000/svg" viewBox="0 0 28 29.9"><title>icon_num_quiz</title><path d="M10.3,8.55H5.7a.9.9,0,1,0,0,1.8h4.7a.9.9,0,0,0,.9-.9A1,1,0,0,0,10.3,8.55Zm0,4.7H5.7a.9.9,0,0,0,0,1.8h4.7a.9.9,0,0,0,.9-.9A1,1,0,0,0,10.3,13.25Zm0,4.7H5.7a.9.9,0,1,0,0,1.8h4.7a.9.9,0,0,0,.9-.9A1,1,0,0,0,10.3,18Zm12.6-1.8v-8a4,4,0,0,0-1.3-3.1L18,1.35h0A4.57,4.57,0,0,0,14.9.05H3.7A2.67,2.67,0,0,0,1,2.65v22.8a2.58,2.58,0,0,0,2.6,2.6H17.2A7,7,0,0,0,29,23,6.82,6.82,0,0,0,22.9,16.15ZM2.8,25.45V2.65a.9.9,0,0,1,.9-.9H15a2.73,2.73,0,0,1,1.9.8l3.6,3.7h0a2.69,2.69,0,0,1,.8,1.8v8A7,7,0,0,0,15.2,23a7.31,7.31,0,0,0,.8,3.3H3.7A.77.77,0,0,1,2.8,25.45Zm19.3,2.8a5.2,5.2,0,0,1,0-10.4,5.25,5.25,0,0,1,5.3,5.2A5.31,5.31,0,0,1,22.1,28.25Zm2-7.3a.82.82,0,0,0-1.2.1l-1.5,1.8-.3-.7a.89.89,0,0,0-1.6.8l.9,1.9c.1.3.4.4.7.5h.1a.91.91,0,0,0,.7-.3l2.3-2.8A.94.94,0,0,0,24.1,21ZM15,10.35h.9a.9.9,0,0,0,0-1.8H15a.9.9,0,0,0,0,1.8Zm1.8,3.8a.9.9,0,0,0-.9-.9H15a.9.9,0,0,0,0,1.8h.9A1,1,0,0,0,16.8,14.15Z" transform="translate(-1 -0.05)"/></svg>