<svg id="Layer_1" data-name="Layer 1" xmlns="http://www.w3.org/2000/svg" viewBox="0 0 1024 1024"><path d="M863.94,448.1c0-158.79-129.19-288-288-288V160a16,16,0,0,1,.06-32,2.77,2.77,0,0,1,.8.19c176.26.42,318.94,143.27,319.14,319.55,0,.1.06.16.06.26a16,16,0,0,1-32,.1ZM291.87,28.1A96,96,0,0,0,128,96l0,440.22L28.13,636.13a95.93,95.93,0,0,0,0,135.74l224,224a95.94,95.94,0,0,0,135.74,0L487.74,896h440.2a96,96,0,0,0,67.87-163.9L291.87,28.1ZM442.5,850.75l-99.88,99.87a32,32,0,0,1-45.24,0l-224-224a32,32,0,0,1,0-45.24l99.84-99.88c.28-.32.38-.67.67-1l269.6,269.63c-.29.23-.71.29-1,.61ZM487.74,832c-5,0-9.56,1.76-14.3,2.82L189.12,550.5c1.09-4.74,2.85-9.35,2.85-14.28l0-385.47L873.18,832ZM957.5,812.26A31.83,31.83,0,0,1,927.94,832h-9.51L192,105.5V96a32,32,0,0,1,54.59-22.66l704,704a31.87,31.87,0,0,1,6.94,34.88ZM575.94,64A32,32,0,0,1,576,0a4.5,4.5,0,0,1,.8.16c246.94.45,446.94,200.61,447.14,447.58,0,.1.06.16.06.26a32,32,0,0,1-64,.13h-.06c0-211.75-172.26-384-384-384V64Z" transform="translate(0 0)"/></svg>