<svg id="Layer_1" data-name="Layer 1" xmlns="http://www.w3.org/2000/svg" viewBox="0 0 18.4 28"><title>icon_clock_sand</title><path d="M16.8,7.4v-2h.3a1.32,1.32,0,0,0,1.3-1.3V1.3A1.32,1.32,0,0,0,17.1,0H1.3A1.32,1.32,0,0,0,0,1.3V4.1A1.32,1.32,0,0,0,1.3,5.4h.3v2A3,3,0,0,0,2.8,9.8L8.1,14,2.9,18a3,3,0,0,0-1.2,2.4v2.2H1.3A1.32,1.32,0,0,0,0,23.9v2.8A1.32,1.32,0,0,0,1.3,28H17.1a1.32,1.32,0,0,0,1.3-1.3V23.9a1.32,1.32,0,0,0-1.3-1.3h-.2V20.4a3.35,3.35,0,0,0-1.2-2.5l-5.3-4,5.3-4.2A2.6,2.6,0,0,0,16.8,7.4ZM1.4,3.9V1.3H17V3.9ZM16,24.1h.9v2.6H1.4V24.1Zm-1.1-4.9a1.79,1.79,0,0,1,.6,1.3v2.2H13a.92.92,0,0,0-.27-.4L9.8,19.7a1,1,0,0,0-1.4,0L5.5,22.3a.9.9,0,0,0-.23.4H3.1V20.5a1.45,1.45,0,0,1,.7-1.3L9.3,15Zm.5-11.9a1.62,1.62,0,0,1-.7,1.4l-1.87,1.5H5.58L3.7,8.7A1.62,1.62,0,0,1,3,7.3v-2H15.4Z"/></svg>