<svg id="Layer_1" data-name="Layer 1" xmlns="http://www.w3.org/2000/svg" viewBox="0 0 1024 1024"><path d="M938.69,96H800V32a32,32,0,0,0-64,0V96H544V32a32,32,0,0,0-64,0V96H288V32a32,32,0,0,0-64,0V96H85.34A85.32,85.32,0,0,0,0,181.31V938.66A85.34,85.34,0,0,0,85.34,1024H938.69A85.32,85.32,0,0,0,1024,938.66V181.31A85.29,85.29,0,0,0,938.69,96ZM960,938.66A21.35,21.35,0,0,1,938.69,960H85.34A21.36,21.36,0,0,1,64,938.66V181.31A21.35,21.35,0,0,1,85.34,160H224v64a32,32,0,0,0,64,0V160H480v64a32,32,0,0,0,64,0V160H736v64a32,32,0,0,0,64,0V160H938.69A21.35,21.35,0,0,1,960,181.31ZM224,384H352v96H224Zm0,160H352v96H224Zm0,160H352v96H224Zm224,0H576v96H448Zm0-160H576v96H448Zm0-160H576v96H448ZM672,704H800v96H672Zm0-160H800v96H672Zm0-160H800v96H672Z" transform="translate(0 0)"/></svg>