<svg id="Layer_1" data-name="Layer 1" xmlns="http://www.w3.org/2000/svg" viewBox="0 0 1024 959.87"><path d="M864,159.87,160,160a31.86,31.86,0,0,0-32,31.87v448a32,32,0,0,0,32,32H864a32,32,0,0,0,32-32v-448a32,32,0,0,0-32-32ZM864,640H160V191.87H864ZM928,32H96A96,96,0,0,0,0,128V768a95.92,95.92,0,0,0,95.68,95.94H416v38.94l-199.74,26a32,32,0,0,0,7.74,63H800a32,32,0,0,0,7.74-63.07L608,902.88V863.94H928.32A95.92,95.92,0,0,0,1024,768V128a96,96,0,0,0-96-96Zm32,736a32.06,32.06,0,0,1-32,32H96a32,32,0,0,1-32-32V128A32,32,0,0,1,96,96H928a32,32,0,0,1,32,32Z" transform="translate(0 -32)"/></svg>