<svg id="Layer_1" data-name="Layer 1" xmlns="http://www.w3.org/2000/svg" viewBox="0 0 1024 1024"><path d="M933.25,335.1c-40-10.49-134-10.36-271.62-14,6.5-30,8-57.09,8-105.15C669.63,101.12,586,0,512,0c-52.26,0-95.33,42.72-96,95.26-.7,64.45-20.64,175.75-128,232.2-7.87,4.16-30.4,15.26-33.7,16.7l1.7,1.44c-16.8-14.5-40.1-25.6-64-25.6H96A96.11,96.11,0,0,0,0,416V928a96.11,96.11,0,0,0,96,96h96c38.08,0,69.95-23,85.38-55.26a10.6,10.6,0,0,0,1.5.38c2.11.58,4.61,1.18,7.65,2l1.47.39c18.43,4.57,53.92,13,129.76,30.49,16.26,3.72,102.14,22,191.1,22H783.81c53.31,0,91.74-20.51,114.62-61.7a234.2,234.2,0,0,0,13.7-34.43c4.51-14.62,6.17-35.33.73-56.32,34.37-23.61,45.44-59.33,52.64-82.56,12.07-38.11,8.45-66.75.07-87.26,19.33-18.24,35.81-46.05,42.75-88.51a120.24,120.24,0,0,0-12.45-75.91c18.11-20.35,26.37-45.95,27.33-69.63l.38-6.69c.23-4.19.42-6.78.42-16,0-40.41-28-92-90.75-109.89ZM224,928a32,32,0,0,1-32,32H96a32,32,0,0,1-32-32V416a32,32,0,0,1,32-32h96a32,32,0,0,1,32,32ZM959.26,465.12C958.62,480.93,952,512,896,512H832a16,16,0,0,0,0,32h62c48,0,54.3,39.81,51.2,59-4,23.87-15.17,69-69.22,69H800a16,16,0,0,0,0,32h63c54,0,49.25,41.18,41.5,65.76C894.3,802.05,888.06,832,820,832H767.81a16,16,0,0,0,0,32H818c35,0,36.64,33.12,33,45a176.17,176.17,0,0,1-8.93,23.07C832.38,949.5,816.8,960,783.81,960H608.86c-87.87,0-175-19.94-177.28-20.45-132.92-30.62-139.93-33-148.28-35.36,0,0-27.08-4.57-27.08-28.19L256,434c0-15,9.57-28.58,25.41-33.35,2-.77,4.67-1.6,6.59-2.4C434.18,337.73,478.69,205,480,96c.19-15.33,12-32,32-32,33.82,0,93.63,67.9,93.63,151.94,0,75.87-3.07,89-29.63,168.06,320,0,317.76,4.61,346,12,35,10,38,39,38,49C960,456,959.68,454.37,959.26,465.12ZM144,832a48,48,0,1,0,48,48A48,48,0,0,0,144,832Zm0,64a16,16,0,1,1,16-16A16,16,0,0,1,144,896Z" transform="translate(0 0)"/></svg>