<svg id="Layer_1" data-name="Layer 1" xmlns="http://www.w3.org/2000/svg" viewBox="0 0 29.5 29.5"><title>icon_headphone</title><path d="M15,.25A14.77,14.77,0,0,0,.25,15V26.59a3.16,3.16,0,0,0,3.16,3.16H7.62A1.05,1.05,0,0,0,8.68,28.7V18.16a1.05,1.05,0,0,0-1.06-1.05H3.41a2.87,2.87,0,0,0-1.05.19V15a12.64,12.64,0,0,1,25.28,0v2.3a2.91,2.91,0,0,0-1.05-.19H22.37a1,1,0,0,0-1.05,1.05V28.7a1,1,0,0,0,1.05,1.05h4.22a3.17,3.17,0,0,0,3.16-3.16V15A14.77,14.77,0,0,0,15,.25Zm-11.59,19H6.57v8.43H3.41a1,1,0,0,1-1.05-1.05V20.27A1.05,1.05,0,0,1,3.41,19.21Zm24.23,7.38a1,1,0,0,1-1.05,1.05H23.43V19.21h3.16a1.05,1.05,0,0,1,1.05,1.06Z" transform="translate(-0.25 -0.25)"/></svg>