<svg id="Layer_1" data-name="Layer 1" xmlns="http://www.w3.org/2000/svg" viewBox="0 0 30 19.04"><path d="M12.11,13h0a3.75,3.75,0,0,0,3.77-3.75h0a3.69,3.69,0,0,0-1.09-2.7,3.78,3.78,0,0,0-2.66-1.07h0a3.75,3.75,0,1,0,0,7.49ZM9.33,9.25A2.79,2.79,0,1,1,12.12,12h0A2.79,2.79,0,0,1,9.33,9.25ZM16.72,9a.54.54,0,0,1-.16-.34.56.56,0,0,1,.13-.35A.51.51,0,0,1,17,8.13a.43.43,0,0,1,.34.13L20,10.68a.5.5,0,0,1,0,.65H20a.48.48,0,0,1-.34.14h0a.46.46,0,0,1-.33-.13Zm5,1.3V6.81a.5.5,0,0,1,.2-.34.46.46,0,0,1,.36-.09.51.51,0,0,1,.41.41v3.46a.47.47,0,0,1-.2.34.5.5,0,0,1-.29.09h-.08a.49.49,0,0,1-.41-.41Zm2.57,1a.51.51,0,0,1,0-.66l2.77-2.43a.5.5,0,0,1,.7.13h0a.51.51,0,0,1,0,.58L25,11.4a.44.44,0,0,1-.33.14.51.51,0,0,1-.33-.13h0ZM2.14,21.55V20.42c.21-2.28,2.74-4.81,3.24-5.3a7.41,7.41,0,0,1,2.34-1.57l2.87-.71a.49.49,0,0,1,.59.34.48.48,0,0,1-.32.59h0l-2.77.7a6.62,6.62,0,0,0-1.93,1.34c-1.4,1.31-2.88,3.26-3,4.66v1a.55.55,0,0,0,.46.37H8.85a1.72,1.72,0,0,0,1.23-.26.43.43,0,0,0,.08-.31c0-.25,0-.3-.3-.5a3.8,3.8,0,0,0-1.54-.48h0a8.28,8.28,0,0,0-1.72-.23C6,20,5.53,19.92,5,19.89a.54.54,0,0,1-.33-.16.5.5,0,0,1-.12-.35.45.45,0,0,1,.15-.33A.51.51,0,0,1,5,19H5l1,.08,1.81-2.17a.5.5,0,0,1,.68,0,.46.46,0,0,1,.08.65h0L7,19.15H7l1.41.22a4.52,4.52,0,0,1,1.93.65l.14.11H15l1.6-4.78L13.4,13.73a.52.52,0,0,1-.23-.65.5.5,0,0,1,.65-.23L17,14.41l.43-1.27a.51.51,0,0,1,.47-.34h10a.44.44,0,0,1,.37.21.49.49,0,0,1,.08.42l-2.8,9.12a.48.48,0,0,1-.46.34H13.61a.48.48,0,0,1-.34-.82h0a.45.45,0,0,1,.34-.15H24.68l2.5-8.1H18.23l-2.33,7a.49.49,0,0,1-.46.32H11.13v.18a1.36,1.36,0,0,1-.4,1.08,2.42,2.42,0,0,1-1.53.54H3.49a1.49,1.49,0,0,1-1.35-1.2A.41.41,0,0,1,2.14,21.55ZM30,24h0a.49.49,0,0,1-.48.48H.43a.55.55,0,0,1-.34-.2A.54.54,0,0,1,0,24a.47.47,0,0,1,.4-.4H29.52A.49.49,0,0,1,30,24Z" transform="translate(0 -5.48)"/></svg>