<svg id="Layer_1" data-name="Layer 1" xmlns="http://www.w3.org/2000/svg" viewBox="0 0 30 30"><title>icon_num_six</title><path d="M15,0a15,15,0,0,0,0,30H30V15A15,15,0,0,0,15,0ZM13.33,14.15a3.31,3.31,0,0,1,1.14-.78,3.6,3.6,0,0,1,1.45-.28,3.82,3.82,0,0,1,2,.53,3.66,3.66,0,0,1,1.37,1.47,4.55,4.55,0,0,1,.5,2.14,4.49,4.49,0,0,1-.56,2.24A4.07,4.07,0,0,1,17.68,21a4.63,4.63,0,0,1-2.27.56,4.7,4.7,0,0,1-3.85-1.66,7.27,7.27,0,0,1-1.37-4.73,9.14,9.14,0,0,1,.65-3.62,4.89,4.89,0,0,1,4.75-3.13,7.21,7.21,0,0,1,2.31.37,5.31,5.31,0,0,1,1.91,1.07l-.92,2a6.08,6.08,0,0,0-1.68-1,4.48,4.48,0,0,0-1.49-.29,2.25,2.25,0,0,0-2,1.15,6,6,0,0,0-.72,2.9A4,4,0,0,1,13.33,14.15Zm.92,5a1.85,1.85,0,0,0,1,.26,1.78,1.78,0,0,0,1.39-.56,2,2,0,0,0,.52-1.47,2.16,2.16,0,0,0-.51-1.5,1.81,1.81,0,0,0-1.4-.55,2,2,0,0,0-1,.25,1.75,1.75,0,0,0-.68.72,2.38,2.38,0,0,0-.25,1.08,2.18,2.18,0,0,0,.25,1.06A1.79,1.79,0,0,0,14.25,19.11Z"/></svg>