<svg id="Layer_1" data-name="Layer 1" xmlns="http://www.w3.org/2000/svg" viewBox="0 0 1024 1024.03"><path d="M640,.16c-212.06,0-384,171.94-384,384a381.92,381.92,0,0,0,44.64,179.46l-267,266.94.23.19A112.83,112.83,0,1,0,193.41,990.3l-.07-.06L460.26,723.36A381.71,381.71,0,0,0,640,768.16c212.06,0,384-171.94,384-384S852.06.16,640,.16ZM153.44,950.3a56.3,56.3,0,1,1-79.62-79.58l-.28-.26L331.65,612.35a387.41,387.41,0,0,0,79.81,79.94l-258,258ZM640,704.19c-176.7,0-320-143.33-320-320s143.3-320,320-320,320,143.3,320,320S816.67,704.19,640,704.19Zm0-544a16,16,0,0,1,0,32c-106,0-192,86-192,192a16,16,0,1,1-32,0C416,260.45,516.26,160.16,640,160.16Z" transform="translate(0 -0.16)"/></svg>