<svg id="Layer_1" data-name="Layer 1" xmlns="http://www.w3.org/2000/svg" viewBox="0 0 22.5 30"><title>icon_lock</title><path d="M23.45,11.3h-1V7.5A7.55,7.55,0,0,0,15,0a7.26,7.26,0,0,0-7.3,7.5v3.8H6.55a2.8,2.8,0,0,0-2.8,2.8V27.2A2.8,2.8,0,0,0,6.55,30h16.8a2.88,2.88,0,0,0,2.9-2.8V14.1A2.8,2.8,0,0,0,23.45,11.3Zm-14-3.8a5.6,5.6,0,1,1,11.2,0v3.8H9.45Zm14.9,19.6a.9.9,0,0,1-.9.9H6.55a.9.9,0,0,1-.9-.9V14a.9.9,0,0,1,.9-.9l16.9.1a.9.9,0,0,1,.9.9ZM15,16.2a2.5,2.5,0,0,0-.9,4.83V24.1a.9.9,0,0,0,1.8,0V21A2.5,2.5,0,0,0,15,16.2Zm0,1.9a.6.6,0,1,1-.6.6A.65.65,0,0,1,15,18.1Z" transform="translate(-3.75)"/></svg>