<svg id="Layer_1" data-name="Layer 1" xmlns="http://www.w3.org/2000/svg" viewBox="0 0 29.96 22.55"><path d="M.42,12.72,5,15v3.63a.84.84,0,0,0,.4.71L14,23.43a.41.41,0,0,0,.3.1h1.42a.41.41,0,0,0,.3-.1l8.59-4.14a.78.78,0,0,0,.4-.4v-.1c0-.11.1-.21.1-.31V15l1.21-.61v5a1.19,1.19,0,0,0-.6.81l-.51,2.22a1.42,1.42,0,0,0,0,.91l.61,2a1.39,1.39,0,0,0,1.31,1h0a1.43,1.43,0,0,0,1.31-.91l.71-1.92a1.42,1.42,0,0,0,0-.91l-.71-2.42a1.58,1.58,0,0,0-.6-.81V13.63l1.72-.8a.71.71,0,0,0,.4-.71v-.61a.86.86,0,0,0-.4-.7l-14.15-7a.78.78,0,0,0-.7,0L.42,10.7a.83.83,0,0,0-.4.71V12A.84.84,0,0,0,.42,12.72ZM27.29,24.24l-.5-1.52.5-1.71.51,1.82Zm-3.53-6.16-8.08,3.84H14.57L6.48,18.08V15.75l8.29,3.94a.48.48,0,0,0,.6,0l8.29-3.94ZM15.17,5.35,28.4,11.71l-4,1.92h-.1l-9.09,4.45L6.08,13.73H6L2,11.82Z" transform="translate(-0.02 -3.72)"/></svg>