<svg id="Layer_1" data-name="Layer 1" xmlns="http://www.w3.org/2000/svg" viewBox="0 0 30.02 30.04"><title>icon_roleplay</title><path d="M9.41,23a4,4,0,1,0-7,0A4.37,4.37,0,0,0,0,26.89V29.2A.82.82,0,0,0,.81,30H11a.82.82,0,0,0,.82-.82V26.89A4.37,4.37,0,0,0,9.41,23ZM5.89,18.68a2.37,2.37,0,0,1,0,4.74h0a2.37,2.37,0,1,1,0-4.74Zm4.29,9.7H1.63V26.89a2.71,2.71,0,0,1,2-2.57,4.06,4.06,0,0,0,4.66,0,2.71,2.71,0,0,1,1.94,2.57ZM27.56,23a4,4,0,1,0-7,0,4.36,4.36,0,0,0-2.42,3.87V29.2A.82.82,0,0,0,19,30h10.2A.82.82,0,0,0,30,29.2V26.89A4.36,4.36,0,0,0,27.56,23Zm-3.51-4.34a2.37,2.37,0,0,1,.06,4.74h0a2.37,2.37,0,0,1,0-4.74Zm4.3,9.7H19.79V26.89a2.71,2.71,0,0,1,1.95-2.57,4.06,4.06,0,0,0,4.66,0,2.71,2.71,0,0,1,2,2.57ZM24,15.7a.87.87,0,0,0,.83,0,.84.84,0,0,0,.44-.71V13.43a3.73,3.73,0,0,0-.1-7.17,4.87,4.87,0,0,0,.08-.93A5.36,5.36,0,0,0,19.88,0H16a.82.82,0,0,0,0,1.64h3.93a3.73,3.73,0,0,1,3.67,3.71,3.57,3.57,0,0,1-.09.8H15.82a3.72,3.72,0,0,0-3.63,2.91H10.84a.78.78,0,0,0-.51.18l-3,2.4V9.87A.82.82,0,0,0,6.54,9h0a3.71,3.71,0,0,1,.32-7.4h3.94a.82.82,0,1,0,0-1.64H6.84a5.35,5.35,0,0,0-1.2,10.56v2.78a.82.82,0,0,0,.47.72A.84.84,0,0,0,7,14l4.1-3.26h1.1a3.72,3.72,0,0,0,3.63,2.91h4.89ZM13.74,9.94a2.08,2.08,0,0,1,2.08-2.08h8.36A2.08,2.08,0,0,1,24.37,12a.83.83,0,0,0-.75.81v.75l-2.23-1.47A.9.9,0,0,0,21,12H15.82A2.08,2.08,0,0,1,13.74,9.94Zm3.81,0a.82.82,0,1,1-.82-.82A.82.82,0,0,1,17.55,9.9Zm3.26,0A.82.82,0,1,1,20,9.08h0A.81.81,0,0,1,20.81,9.9Zm1.64,0a.82.82,0,0,1,.82-.82h0a.81.81,0,0,1,.8.82.82.82,0,1,1-1.64,0ZM12.55.84a.82.82,0,1,1,.82.82h0A.82.82,0,0,1,12.55.84Z" transform="translate(0.01 0.02)"/></svg>