<svg id="Layer_1" data-name="Layer 1" xmlns="http://www.w3.org/2000/svg" viewBox="0 0 30.1 27.76"><title>icon_listening</title><path d="M23.55,20.62a.57.57,0,1,0,.4.7A.57.57,0,0,0,23.55,20.62Zm-16.9,1.2a.57.57,0,0,0-.3-1.1c-.3,0-.5.3-.4.7A.57.57,0,0,0,6.65,21.82Zm22.6-1.9a16,16,0,0,0,.7-4.2,14.39,14.39,0,0,0-4.5-10.4A15.63,15.63,0,0,0,15,1.12,14.9,14.9,0,0,0,0,15.72a13.18,13.18,0,0,0,.7,4.2,1.72,1.72,0,0,0-.6,1.8l1.5,5.7a1.73,1.73,0,0,0,2.2,1.2l1.8-.5a1.76,1.76,0,0,0,1.9.7l2.3-.6A1.77,1.77,0,0,0,11,26l-2.1-7.9a1.77,1.77,0,0,0-2.2-1.2l-2.3.6a3.33,3.33,0,0,0-.6.3,8.75,8.75,0,0,1-.2-1.6,1.88,1.88,0,0,0,1.2-1.5,10.39,10.39,0,0,1,20.6,0,1.88,1.88,0,0,0,1.2,1.5,8.75,8.75,0,0,1-.2,1.6c-.2-.1-.4-.3-.6-.3l-2.3-.6a1.81,1.81,0,0,0-2.2,1.2L19.15,26a1.81,1.81,0,0,0,1.2,2.2l2.3.6a1.76,1.76,0,0,0,1.9-.7l1.8.5a1.81,1.81,0,0,0,2.2-1.2l1.5-5.7A2.06,2.06,0,0,0,29.25,19.92Zm-24.6-1.2,2.3-.6a.57.57,0,0,1,.7.4l2.1,7.9a.57.57,0,0,1-.4.7l-.6.2-1.1-4c0-.3-.4-.5-.7-.4a.57.57,0,0,0-.4.7l1.1,4-.6.2a.57.57,0,0,1-.7-.4h0l-2.1-7.9A.63.63,0,0,1,4.65,18.72Zm.4,8.4-1.7.5a.57.57,0,0,1-.7-.4l-1.5-5.7a.57.57,0,0,1,.4-.7h0l1.7-.4C3.35,20.72,3.05,19.72,5.05,27.12Zm-3.9-10.8h1.2a13.73,13.73,0,0,0,.5,2.8l-1.1.3A11.34,11.34,0,0,1,1.15,16.32Zm25.2-1.6a11.48,11.48,0,0,0-22.8,0,.56.56,0,0,1-.6.5H1.15a13.83,13.83,0,0,1,27.6,0H27A.65.65,0,0,1,26.35,14.72Zm2.4,1.6a12.1,12.1,0,0,1-.6,3.1l-1.1-.3a9.75,9.75,0,0,0,.5-2.8Zm-5.2,11h0a.57.57,0,0,1-.7.4l-.6-.2,1.1-4a.57.57,0,1,0-1.1-.3l-1.1,4-.6-.2a.57.57,0,0,1-.4-.7l2.1-7.9a.55.55,0,0,1,.6-.4h.2l2.3.6a.57.57,0,0,1,.4.7Zm5.2-5.9-1.5,5.7a.57.57,0,0,1-.7.4l-1.7-.5c2-7.3,1.7-6.4,1.8-6.8,1.8.5,1.7.4,1.7.5A.57.57,0,0,1,28.75,21.42Z" transform="translate(0.05 -1.12)"/></svg>