<svg id="Layer_1" data-name="Layer 1" xmlns="http://www.w3.org/2000/svg" viewBox="0 0 1023.88 895.93"><path d="M934.18,168.48C818.05,53.41,632.35,51,512.06,159.26,391.74,51,206.11,53.41,89.92,168.48a301.46,301.46,0,0,0,0,429.28c34.21,33.89,353.7,350.11,353.7,350.11a97.33,97.33,0,0,0,136.89,0s349.83-346.3,353.7-350.11a301.38,301.38,0,0,0,0-429.28Zm-45.6,384.1L534.88,902.69a32.39,32.39,0,0,1-45.6,0L135.58,552.58a238.2,238.2,0,0,1,0-338.92c91-90.08,237.32-93.24,333.09-7.1l43.39,39,43.36-39c95.81-86.14,242.12-83,333.12,7.1,94.4,93.41,94.4,245.44,0,338.92ZM296.1,240a16,16,0,1,1,0,32h0a104,104,0,0,0-104,104v0a16,16,0,0,1-32,0h0A136,136,0,0,1,296,240.06c.06,0,.06,0,.13,0Z" transform="translate(-0.14 -80.07)"/></svg>