<svg id="Layer_1" data-name="Layer 1" xmlns="http://www.w3.org/2000/svg" viewBox="0 0 29.28 30"><title>icon_date</title><path d="M27.83,2.89H23.49V1.08a1.08,1.08,0,1,0-2.16,0h0V2.89H9V1.08a1.09,1.09,0,0,0-2.17,0V2.89H2.17A1.81,1.81,0,0,0,.36,4.7V28.19A1.81,1.81,0,0,0,2.17,30H27.83a1.81,1.81,0,0,0,1.81-1.81V4.7A1.81,1.81,0,0,0,27.83,2.89Zm-.36,24.94H2.53V12.29H27.47Zm0-17.71h-25V5.06h4.3V6.87A1.09,1.09,0,0,0,9,6.87V5.06H21.33V6.87a1.08,1.08,0,1,0,2.16,0h0V5.06h4ZM10.18,22.88a1.09,1.09,0,0,1,1-1.19h8a1.09,1.09,0,0,1,0,2.17h-8A1.09,1.09,0,0,1,10.18,22.88Zm0-5.06a1.09,1.09,0,0,1,1-1.19h8a1.09,1.09,0,0,1,0,2.17h-8A1.09,1.09,0,0,1,10.18,17.82Z" transform="translate(-0.36 0)"/></svg>