<svg id="Layer_1" data-name="Layer 1" xmlns="http://www.w3.org/2000/svg" viewBox="0 0 30 30"><title>icon_listen_practice</title><path d="M15,0A15,15,0,0,0,0,15V26.79A3.21,3.21,0,0,0,3.21,30H7.5a1.07,1.07,0,0,0,1.07-1.07V18.21A1.07,1.07,0,0,0,7.5,17.14H3.21a3.22,3.22,0,0,0-1.07.2V15a12.86,12.86,0,0,1,25.72,0v2.34a3.22,3.22,0,0,0-1.07-.2H22.5a1.07,1.07,0,0,0-1.07,1.07V28.93A1.07,1.07,0,0,0,22.5,30h4.29A3.21,3.21,0,0,0,30,26.79V15A15,15,0,0,0,15,0ZM3.21,19.29H6.43v8.57H3.21a1.07,1.07,0,0,1-1.07-1.07V20.36A1.07,1.07,0,0,1,3.21,19.29Zm24.65,7.5a1.07,1.07,0,0,1-1.07,1.07H23.57V19.29h3.22a1.07,1.07,0,0,1,1.07,1.07Z"/></svg>