<svg id="Layer_1" data-name="Layer 1" xmlns="http://www.w3.org/2000/svg" width="30" height="30" viewBox="0 0 30 30"><title>icon_vn</title><path d="M15,0A15,15,0,1,0,30,15,15,15,0,0,0,15,0Zm8.4,13.7-3.5,3.4c-.2.1-.2.4-.2.6l.8,4.8a.67.67,0,0,1-.59.74.65.65,0,0,1-.31,0L15.3,21a.64.64,0,0,0-.6,0l-4.3,2.2A.61.61,0,0,1,9.56,23a.62.62,0,0,1-.06-.46l.8-4.8a.74.74,0,0,0-.2-.6L6.6,13.7a.63.63,0,0,1,0-.89A.64.64,0,0,1,7,12.6l4.8-.7a.68.68,0,0,0,.5-.4l2.1-4.3a.67.67,0,0,1,1.2,0l2.1,4.3a1,1,0,0,0,.5.4l4.8.7a.69.69,0,0,1,.53.82A.72.72,0,0,1,23.4,13.7Z"/></svg>