<svg id="Layer_1" data-name="Layer 1" xmlns="http://www.w3.org/2000/svg" viewBox="0 0 29.6 29.6"><title>icon_en</title><path d="M15,.2A14.8,14.8,0,1,0,29.8,15,14.77,14.77,0,0,0,15,.2ZM28.8,15a13.85,13.85,0,0,1-.1,1.59V13.41A13.85,13.85,0,0,1,28.8,15Zm-.42-3.3H18.2V1.59A13.84,13.84,0,0,1,28.38,11.7ZM16.59,1.3H13.41a12.69,12.69,0,0,1,3.18,0Zm-4.89.32V11.7H1.62A13.83,13.83,0,0,1,11.7,1.62ZM1.3,13.41v3.18a12.69,12.69,0,0,1,0-3.18Zm.29,4.79H11.7V28.38A13.84,13.84,0,0,1,1.59,18.2ZM13.41,28.7h3.18a12.69,12.69,0,0,1-3.18,0Zm4.79-.29V18.2H28.41A13.88,13.88,0,0,1,18.2,28.41Z" transform="translate(-0.2 -0.2)"/></svg>