<svg id="Layer_1" data-name="Layer 1" xmlns="http://www.w3.org/2000/svg" viewBox="0 0 30 30"><title>icon_commercial</title><path d="M0,12.3A12.41,12.41,0,0,1,11.87,0h1.36A11.9,11.9,0,0,1,20.3,2.8a12.66,12.66,0,0,1,4.2,7.3,1.22,1.22,0,1,1-2.4.4,10,10,0,0,0-9.8-8.2C1.3,2.5-1.5,17.5,8.7,21.6a1.19,1.19,0,0,1,.7,1.5,1.17,1.17,0,0,1-1.1.8c-.1,0-.3-.1-.4-.1A12.23,12.23,0,0,1,0,12.3ZM29.9,28.8v-4a1,1,0,0,0-1.1-1.2,1.22,1.22,0,0,0-1.2,1.2v4A1.15,1.15,0,1,0,29.9,28.8Zm-1-15.1H23.6a1.15,1.15,0,1,0,0,2.3h2.5l-3.5,3.5H16.7a1.14,1.14,0,0,0-.8.3L7.8,27.9a1.2,1.2,0,0,0,1.7,1.7l7.8-7.8h5.9a1.14,1.14,0,0,0,.8-.3l3.7-3.7v2.3a1.15,1.15,0,1,0,2.3,0V14.9A1.13,1.13,0,0,0,28.9,13.7ZM25.2,28.8v-4a1,1,0,0,0-1.1-1.2,1.22,1.22,0,0,0-1.2,1.2v4A1.15,1.15,0,1,0,25.2,28.8Zm-4.6,0v-4a1.13,1.13,0,0,0-1.1-1.2,1.22,1.22,0,0,0-1.2,1.2v4A1.15,1.15,0,1,0,20.6,28.8Zm-8.2-8.9a1.22,1.22,0,0,0,1.2-1.2V18a3.5,3.5,0,0,0-1.2-6.8,1.15,1.15,0,1,1,0-2.3,1,1,0,0,1,1,.7,1.14,1.14,0,1,0,2.1-.9,3.4,3.4,0,0,0-2-1.9V5.9a1.15,1.15,0,1,0-2.3,0v.8a3.5,3.5,0,0,0,1.2,6.8,1.2,1.2,0,0,1,0,2.4,1.23,1.23,0,0,1-1.1-.7,1.14,1.14,0,0,0-2.1.9A3.57,3.57,0,0,0,11.3,18v.7A1.07,1.07,0,0,0,12.4,19.9Zm3.5,9v-.5a1.13,1.13,0,0,0-1.1-1.2,1.22,1.22,0,0,0-1.2,1.2v.5a1.22,1.22,0,0,0,.73,1.1h.91A1.12,1.12,0,0,0,15.9,28.9Z" transform="translate(0)"/></svg>