<svg id="Layer_1" data-name="Layer 1" xmlns="http://www.w3.org/2000/svg" viewBox="0 0 30.05 29.25"><path d="M11.85,6a2.8,2.8,0,1,0-2.79-2.8h0A2.79,2.79,0,0,0,11.85,6Zm-1.52-2.8A1.52,1.52,0,1,1,11.85,4.7,1.52,1.52,0,0,1,10.33,3.17ZM30,.7a.46.46,0,0,0-.16-.15l-.32-.1h-.27l-9,2.65a.66.66,0,0,0-.44.8.61.61,0,0,0,.44.44l8.46,2.51V21.54H20a.66.66,0,0,0-.64.63V25H10.2a.64.64,0,0,0-.64.64v2.79H.44a.73.73,0,0,0-.39.3.66.66,0,0,0,.28.9l.11,0h9.77a.66.66,0,0,0,.44-.17.62.62,0,0,0,.19-.45V26.19H20a.63.63,0,0,0,.64-.64V22.77h8.76a.62.62,0,0,0,.63-.62V1.08A.45.45,0,0,0,30,.8V.7ZM28.73,1.86V5.5l-6-1.82Zm-26.91,12h0a1.86,1.86,0,0,0,.89.22h0a1.85,1.85,0,0,0,1.62-.95l2-3.43H7.59l-4.33,15A1.76,1.76,0,0,0,4.17,27a.52.52,0,0,0,.16.06,1.53,1.53,0,0,0,.66.13A1.66,1.66,0,0,0,5.78,27a1.88,1.88,0,0,0,1-1.07l2.56-6.88L12,19.1l1.34,3.48a1.85,1.85,0,0,0,1.75,1.24h0a1.81,1.81,0,0,0,.61-.1,1.86,1.86,0,0,0,1.14-2.27l-1.49-5.09a1.35,1.35,0,0,0-.92-1H14.3l-3.3-.2,1.16-3.36,1.31,1.65a1.86,1.86,0,0,0,1.48.74h.4l4-.86a1.92,1.92,0,0,0,1.52-1.88,1.89,1.89,0,0,0-.72-1.38,2,2,0,0,0-1.54-.35l-2.91.62L13.48,7.45a3.44,3.44,0,0,0-2.72-1.36H5.22A1.92,1.92,0,0,0,3.6,7L1.12,11.35a1.86,1.86,0,0,0,.7,2.53ZM12.5,8.13,15,11.37a.62.62,0,0,0,.64.24l3.29-.71a.65.65,0,0,1,.49.12.53.53,0,0,1,.23.42.63.63,0,0,1-.54.63l-3.95.85H15a.56.56,0,0,1-.47-.23L12.5,10a.68.68,0,0,0-.61-.24.69.69,0,0,0-.5.42L9.53,15.45a.64.64,0,0,0,0,.57.6.6,0,0,0,.49.29l4,.24a.24.24,0,0,1,0,.12l1.5,5.12a.55.55,0,0,1-.27.72H15.2a.37.37,0,0,1-.21,0h0a.6.6,0,0,1-.56-.4L13,18.3a.64.64,0,0,0-.57-.41L9,17.86H9a.66.66,0,0,0-.61.42l-2.8,7.33a.56.56,0,0,1-.72.35h0a.59.59,0,0,1-.35-.75h0L9,9.28A.57.57,0,0,0,9,8.72a.67.67,0,0,0-.54-.27H6a.67.67,0,0,0-.54.33L3.26,12.55a.61.61,0,0,1-.83.22.55.55,0,0,1-.28-.32.65.65,0,0,1,0-.39L4.72,7.58a.63.63,0,0,1,.51-.3h5.56A2.2,2.2,0,0,1,12.5,8.13Z" transform="translate(0.02 -0.38)"/></svg>