<svg id="Layer_1" data-name="Layer 1" xmlns="http://www.w3.org/2000/svg" viewBox="0 0 30 30"><title>icon_num_nine</title><path d="M15.75,10.89a1.86,1.86,0,0,0-1-.27,1.78,1.78,0,0,0-1.39.56,2.1,2.1,0,0,0-.5,1.48,2.13,2.13,0,0,0,.5,1.49,1.78,1.78,0,0,0,1.39.56,1.93,1.93,0,0,0,1-.25,1.71,1.71,0,0,0,.69-.72,2.27,2.27,0,0,0,.24-1.08,2.17,2.17,0,0,0-.24-1.06A1.81,1.81,0,0,0,15.75,10.89ZM15,0a15,15,0,0,0,0,30H30V15A15,15,0,0,0,15,0Zm4.15,18.44a5.17,5.17,0,0,1-1.86,2.32,5,5,0,0,1-2.88.81,7.48,7.48,0,0,1-2.3-.37,5.47,5.47,0,0,1-1.91-1.07l.92-2a6.85,6.85,0,0,0,1.69,1,4.38,4.38,0,0,0,1.48.29,2.25,2.25,0,0,0,2-1.15,6,6,0,0,0,.71-2.9,2.21,2.21,0,0,1-.33.47,3.34,3.34,0,0,1-1.14.79,3.77,3.77,0,0,1-1.44.28,3.69,3.69,0,0,1-3.38-2,4.44,4.44,0,0,1-.51-2.14,4.4,4.4,0,0,1,.57-2.24A4.09,4.09,0,0,1,12.33,9a4.46,4.46,0,0,1,2.26-.56,4.72,4.72,0,0,1,3.86,1.65,7.36,7.36,0,0,1,1.35,4.74A9.13,9.13,0,0,1,19.15,18.44Z"/></svg>