<svg id="Layer_1" data-name="Layer 1" xmlns="http://www.w3.org/2000/svg" viewBox="0 0 29.9 30"><title>icon_communicate</title><path d="M17.8,5.6H6.6a.94.94,0,0,0-1,1c0,.6.4.9,1,.9H17.9a.9.9,0,0,0,.9-.9A1.08,1.08,0,0,0,17.8,5.6ZM14.1,9.4H6.6a.9.9,0,0,0,0,1.8h7.5a.9.9,0,1,0,0-1.8ZM20.6,0H3.8A3.8,3.8,0,0,0,0,3.8V22.6a.79.79,0,0,0,.5.8.6.6,0,0,0,.4.1,1.42,1.42,0,0,0,.6-.2l5.4-4.5H20.6A3.8,3.8,0,0,0,24.4,15V3.8A3.8,3.8,0,0,0,20.6,0Zm1.9,15a1.9,1.9,0,0,1-1.9,1.9H6.6a1.42,1.42,0,0,0-.6.2L1.9,20.5V3.8A1.9,1.9,0,0,1,3.8,1.9H20.7a1.9,1.9,0,0,1,1.9,1.9V15Zm3.8-7.5a.9.9,0,0,0,0,1.8,1.9,1.9,0,0,1,1.9,1.9V27.1L25,24.6a1.42,1.42,0,0,0-.6-.2H11.3a1.9,1.9,0,0,1-1.9-1.9v-.9a.9.9,0,0,0-.9-.9.92.92,0,0,0-1,.9v.9a3.8,3.8,0,0,0,3.8,3.8H24l4.4,3.5a1.42,1.42,0,0,0,.6.2.6.6,0,0,0,.4-.1,1,1,0,0,0,.5-.8V11.3A3.63,3.63,0,0,0,26.3,7.5Z"/></svg>