<svg id="Layer_1" data-name="Layer 1" xmlns="http://www.w3.org/2000/svg" viewBox="0 0 30.04 30"><title>icon_level</title><path d="M29.8,8.8,23.5.3a.78.78,0,0,0-.7-.3.75.75,0,0,0-.7.4L15.8,8.9a1,1,0,0,0-.1.9.89.89,0,0,0,.8.5h2.3v4.2a3.31,3.31,0,0,0-1.5-.4H15.7a3.16,3.16,0,0,0-3.2,3.2v1.8a3.31,3.31,0,0,0-1.5-.4H9.5a3.22,3.22,0,0,0-3.2,3.2v1.8a3.31,3.31,0,0,0-1.5-.4H3.2A3.56,3.56,0,0,0,0,26.8v2.4a.88.88,0,0,0,.9.8H26a.9.9,0,0,0,.9-.9V10.2h2.3a1,1,0,0,0,.8-.5A1.08,1.08,0,0,0,29.8,8.8Zm-28,18a1.54,1.54,0,0,1,1.5-1.5H4.9a1.54,1.54,0,0,1,1.5,1.5v1.5H1.8Zm6.2,0V22.1a1.54,1.54,0,0,1,1.5-1.5h1.6a1.54,1.54,0,0,1,1.5,1.5v6.2H8Zm6.3-4.7V17.4a1.54,1.54,0,0,1,1.5-1.5h1.6a1.54,1.54,0,0,1,1.5,1.5V28.3H14.4V22.1ZM26,8.5a.9.9,0,0,0-.9.9V28.3H20.6V9.4a.9.9,0,0,0-.9-.9H18.3l4.5-6.1,4.5,6.1Z"/></svg>