<svg id="Layer_1" data-name="Layer 1" xmlns="http://www.w3.org/2000/svg" width="25.79" height="29.9" viewBox="0 0 25.79 29.9"><title>icon_season</title><path d="M27.4,9.35l-.6-3.1L25,7c-1.5.6-3.2,1.2-4.9,1.7a26.67,26.67,0,0,0-3.4-6.1L14.8.05l-1.3,1.4a64.24,64.24,0,0,1-7,6.6,12.94,12.94,0,0,0-4.1,6.8A12.49,12.49,0,0,0,3.3,23l3.4,7h3.7a22.25,22.25,0,0,0,8.5-1.5,13,13,0,0,0,5.6-4.1C27.6,20.85,28.6,15.45,27.4,9.35Zm-3-.3A52,52,0,0,1,20.1,16a54.34,54.34,0,0,1-6.1,6.7,61.24,61.24,0,0,1-5.8,4.8v-5.6a11.09,11.09,0,0,1,2.3-6.7,10.1,10.1,0,0,1,5.8-3.7c.9-.2,1.8-.5,2.7-.7h0l.8-.2h0A35.33,35.33,0,0,0,24.4,9.05ZM4.1,15.25a10.72,10.72,0,0,1,3.6-5.9,64.24,64.24,0,0,0,7-6.6l.7.9a20.27,20.27,0,0,1,3.1,5.5c-.8.2-1.7.5-2.6.7a12.47,12.47,0,0,0-6.8,4.4A12.05,12.05,0,0,0,6.4,22v3.4l-1.5-3.1A11.22,11.22,0,0,1,4.1,15.25Zm19.1,8.1a12.56,12.56,0,0,1-4.9,3.5,20.76,20.76,0,0,1-7.9,1.3H10a61.69,61.69,0,0,0,5.1-4.3A50.44,50.44,0,0,0,21.4,17a45.4,45.4,0,0,0,4.3-6.8C26.7,15.55,25.8,20.25,23.2,23.35Z" transform="translate(-2.1 -0.05)"/></svg>