<svg id="Layer_1" data-name="Layer 1" xmlns="http://www.w3.org/2000/svg" width="30" height="23.43" viewBox="0 0 30 23.43"><title>icon_plane</title><path d="M9.39,15.27l.41,1.12-1.12.41-.41-1.12ZM10,15l.41,1.11,1.12-.4-.41-1.12Zm-3.53,1.3.4,1.11L8,17l-.41-1.12Zm10.62-3.88.41,1.12,1.11-.41L18.25,12Zm3.53-1.28.41,1.12,1.12-.41-.41-1.11Zm9.34.62a2.52,2.52,0,0,1-1.63,2.32l-8.59,3.15.65,7.84a.62.62,0,0,1-.39.61l-2.65,1-.13,0h-.09a.59.59,0,0,1-.54-.39l-2.54-7-.76.28a.56.56,0,0,1-.22,0l-9.94.12a.62.62,0,0,1-.57-.39L0,12.31a.62.62,0,0,1,.35-.77l1.78-.64a.57.57,0,0,1,.64.15l3.11,3.48,5.71-2L8.93,5.11a.57.57,0,0,1,0-.48.56.56,0,0,1,.32-.32l2.65-1a.61.61,0,0,1,.69.21l4.81,6.8,5.86-2.12a2.45,2.45,0,0,1,2.09.21l1.57,1A2.54,2.54,0,0,1,29.85,11h0A2.33,2.33,0,0,1,30,11.79ZM12.72,12l3.5-1.28L11.86,4.6l-1.66.61Zm-8,2.88L2.15,12.14l-.8.3,1.21,3.3Zm14.55,9.79-.78-9.47-4,1.46,3.13,8.62ZM28.84,11.8a1.76,1.76,0,0,0-.07-.45,1.31,1.31,0,0,0-1.65-.75.58.58,0,0,1-.5,0l-.28-.17-2.14.78-.42-1.12L25,9.62l-.23-.14a1.31,1.31,0,0,0-1.11-.11L3,16.91l.61,1.7,9.45-.12.67-.25-.6-1.65a.58.58,0,0,1,0-.45.61.61,0,0,1,.32-.31l5.32-1.93a.61.61,0,0,1,.51,0,.6.6,0,0,1,.29.46L19.69,16,28,13A1.29,1.29,0,0,0,28.84,11.8Zm-9.95,0,.41,1.12,1.12-.41L20,11.41Zm-3.54,1.27.41,1.12,1.12-.41-.41-1.12Zm-1.77.64L14,14.85l1.12-.4-.41-1.12Zm-1.77.65.41,1.12,1.11-.41L12.93,14Z" transform="translate(0 -3.28)"/></svg>