<svg id="Layer_1" data-name="Layer 1" xmlns="http://www.w3.org/2000/svg" viewBox="0 0 29.85 24.31"><title>icon_no_practice</title><path d="M29.08,6.05H27V4a1.06,1.06,0,0,0-.9-1,17.25,17.25,0,0,0-4.6.1,10,10,0,0,0-6.4,3.6,10.26,10.26,0,0,0-6.4-3.6A17.25,17.25,0,0,0,4.08,3a1.06,1.06,0,0,0-.9,1v2.2H1.08a1,1,0,0,0-1,1v19a1.23,1.23,0,0,0,.4.8,1,1,0,0,0,.9.1c.1,0,7.6-2.6,13.2,0a1.1,1.1,0,0,0,.8,0c5.6-2.6,13.2,0,13.2,0s.2.1.3.1a1.42,1.42,0,0,0,.6-.2.91.91,0,0,0,.4-.8v-19A.84.84,0,0,0,29.08,6.05Zm-27,18.7V8.15h1.1v13.4a1.14,1.14,0,0,0,.3.8.78.78,0,0,0,.8.2c.1,0,4.4-.6,7.6,1.6A24.4,24.4,0,0,0,2.08,24.75Zm12-1.6a10.44,10.44,0,0,0-5.4-2.5,14.68,14.68,0,0,0-2.8-.2h-.6V4.85h0c1.9-.1,6.6.1,8.8,3.9Zm2-14.4c2.2-3.8,6.9-4,8.9-3.9v15.6a22.45,22.45,0,0,0-3.4.2,11.29,11.29,0,0,0-5.4,2.5V8.75Zm2.1,15.3c3.2-2.2,7.6-1.6,7.6-1.6a1.08,1.08,0,0,0,.8-.2,1.14,1.14,0,0,0,.3-.8V8.15h1.2v16.6A26.4,26.4,0,0,0,18.18,24.05Z" transform="translate(-0.08 -2.85)"/></svg>