<svg id="Layer_1" data-name="Layer 1" xmlns="http://www.w3.org/2000/svg" viewBox="0 0 30 30"><title>icon_num_eight</title><path d="M16.66,16.43A4,4,0,0,0,15,15.8a4,4,0,0,0-1.66.63,1.51,1.51,0,0,0-.65,1.28A1.44,1.44,0,0,0,13.34,19a3,3,0,0,0,1.66.43A3,3,0,0,0,16.67,19a1.45,1.45,0,0,0,.63-1.28A1.5,1.5,0,0,0,16.66,16.43ZM15,0a15,15,0,0,0,0,30H30V15A15,15,0,0,0,15,0Zm4.28,19.87a3.93,3.93,0,0,1-1.73,1.25,7.17,7.17,0,0,1-2.55.44,7.17,7.17,0,0,1-2.55-.44,3.93,3.93,0,0,1-1.73-1.25,3.06,3.06,0,0,1-.63-1.95A2.88,2.88,0,0,1,11,15.73a3.78,3.78,0,0,1,1.73-.92,3.61,3.61,0,0,1-1.51-.91,2.72,2.72,0,0,1-.8-2,2.87,2.87,0,0,1,.6-1.85,3.88,3.88,0,0,1,1.65-1.2A6.36,6.36,0,0,1,15,8.44a6.32,6.32,0,0,1,2.36.42A3.91,3.91,0,0,1,19,10.06a2.87,2.87,0,0,1,.6,1.85,2.76,2.76,0,0,1-.8,2,3.67,3.67,0,0,1-1.51.89,3.79,3.79,0,0,1,1.74.93,2.94,2.94,0,0,1,.87,2.17A3,3,0,0,1,19.28,19.87ZM15,14.05a2.91,2.91,0,0,0,1.4-.59,1.5,1.5,0,0,0,.6-1.24A1.43,1.43,0,0,0,16.41,11,2.35,2.35,0,0,0,15,10.6a2.35,2.35,0,0,0-1.41.4A1.43,1.43,0,0,0,13,12.22a1.46,1.46,0,0,0,.56,1.24A2.82,2.82,0,0,0,15,14.05Z"/></svg>