<svg id="Layer_1" data-name="Layer 1" xmlns="http://www.w3.org/2000/svg" viewBox="0 0 30 26.27"><path d="M21.25,8.12c0,2.84-3.81,7.91-5.48,10a.92.92,0,0,1-1.54,0c-1.67-2-5.48-7.11-5.48-10a6.25,6.25,0,0,1,12.5,0ZM15,9.78A2.08,2.08,0,1,0,12.92,7.7,2.08,2.08,0,0,0,15,9.78Zm7.17,1.45c0-.06,0-.12.07-.19l6.05-2.42A1.25,1.25,0,0,1,30,9.78V23.89a1.25,1.25,0,0,1-.79,1.16l-7.54,3V12.3C21.85,12,22,11.59,22.17,11.23Zm-14.34,0c.15.36.32.72.5,1.07V25.4L1.71,28.05A1.27,1.27,0,0,1,0,26.89V12.78a1.21,1.21,0,0,1,.79-1.16L7.17,9.07a10.18,10.18,0,0,0,.66,2.16Zm9.24,7.88a43.15,43.15,0,0,0,2.93-4v13L10,25.27V15.15a43.15,43.15,0,0,0,2.93,4,2.59,2.59,0,0,0,4.14,0Z" transform="translate(0 -1.87)"/></svg>