<svg id="Layer_1" data-name="Layer 1" xmlns="http://www.w3.org/2000/svg" viewBox="0 0 1024 704"><path d="M960,192H931.62a64.06,64.06,0,0,0-44.93,18.43L800,295.94V256a96,96,0,0,0-96-96H96A96.1,96.1,0,0,0,0,256V768a96,96,0,0,0,96,96H704a96,96,0,0,0,96-96V728.93l86.69,85.5a64.06,64.06,0,0,0,44.93,18.43H960a64,64,0,0,0,64-64V256A64,64,0,0,0,960,192ZM96,800a32,32,0,0,1-32-32V256a32,32,0,0,1,32-32H704a32,32,0,0,1,32,32V768a32.06,32.06,0,0,1-32,32Zm864-31.14H928l-128-128V640l-32-32V416L928,256h32Z" transform="translate(0 -160)"/></svg>