<svg id="Layer_1" data-name="Layer 1" xmlns="http://www.w3.org/2000/svg" width="30" height="26.1" viewBox="0 0 30 26.1"><title>icon_topic</title><path d="M27,6.75H20.5V4.15A2.22,2.22,0,0,0,18.3,2H11.7a2.22,2.22,0,0,0-2.2,2.2v2.6H3a3,3,0,0,0-3,3v15.3a3,3,0,0,0,3,3H27a3,3,0,0,0,3-3V9.75A3,3,0,0,0,27,6.75ZM11.4,4.15a.32.32,0,0,1,.3-.3h6.6a.32.32,0,0,1,.3.3v2.6H11.3V4.15ZM1.9,9.75A1.11,1.11,0,0,1,3,8.65H27a1.11,1.11,0,0,1,1.1,1.1v1.4a3.09,3.09,0,0,1-2.2,2.9L16,17a3.4,3.4,0,0,1-2,0L4,14.05a3.09,3.09,0,0,1-2.2-2.9V9.75ZM27,26.05H3A1.11,1.11,0,0,1,1.9,25V15a3.46,3.46,0,0,0,1.6.8C14.5,19.05,14,19,15,19s.5.1,11.5-3.1a8,8,0,0,0,1.6-.8v10A1,1,0,0,1,27,26.05Z" transform="translate(0 -1.95)"/></svg>