<svg id="Layer_1" data-name="Layer 1" xmlns="http://www.w3.org/2000/svg" viewBox="0 0 281.17 150.47"><path d="M45.27,107.9c-18.1,48.5-22.3,42.2-30,42.4-26.4.5-10.6-86.5-10.4-87,2.7-6.7,24.3-12.9,23.4-2-5.9,34.5-12.7,68.1-10.7,76,1.4,5.6.7,13.6,21.3-30.9C42.57,98.4,47,105.1,45.27,107.9ZM28.27,35c-1.1-15.5-13.8-12-15.7,3.8C11.07,50.8,26.07,54.2,28.27,35Zm252.9-13.4V90.9A25.11,25.11,0,0,1,275,107c-4.2,4.8-9.7,7.5-15.4,7.5H73.87c-5.7,0-11.2-2.7-15.4-7.5a25.14,25.14,0,0,1-6.2-16.1v-14l-10.1,3.8a4.37,4.37,0,0,1-1.6.3,4.31,4.31,0,0,1-3.1-1.2,4.52,4.52,0,0,1-1.2-4.6l16-50.8V21.6A21.68,21.68,0,0,1,74,0H259.6a21.64,21.64,0,0,1,21.57,21.6Zm-177.4,1.7c6.1-.4,9.4-.4,14.5-.6,2-.1,4.7-6.2.3-6.3-12.9-.3-41.6.6-44.1,2.2-3,1.9-.5,6.1,1.5,5.9,5.7-.5,9-.6,13.2-.9C87,38.1,83,65.9,79.47,95.4c-.7,5.2,14,6.7,15.5,0C96.87,81.4,98.77,59.5,103.77,23.3Zm57.7-6.1c0-4.4-22.8-5.3-27.4.4-5.6,6.8-23.6,58-27.6,76-.9,3.9,14.8,4.8,16.6-1.2,2.2-7.2,3.9-11.4,8.9-28.5,4.5-.5,9.8-1.1,13.4-1.9,1,6.8-2.1,31.2-.6,35,1.1,2.5,13.1,2.5,13.4-1.2.9-11.8,3.6-45,3.3-78.6Zm44.1,75c-3.2,1.1-16.4,1.7-17.2.5s0-16.7,8.8-71.9c.5-4.1-13.3-9.1-15.7,1.7-1.8,8.3-12.9,67.9-6.9,74.5,2,2.3,18.1,3.4,32.3.1,4.9-1.9,1.5-5.8-1.3-4.9Zm49.1-69c-11.3,11.4-14,14.8-20.8,22.3.9-13.1,1-17,1.5-25,.4-7.4-15-7.3-16-.2-.4,2.9-2.6,46.8-4.7,75.3-.2,3.1,10.4,5.7,14.1.6,2.6-7.1,4-32.1,4.5-37.7,5.5-.7,17.6,2.5,17,38.8-.6,5,8,4.7,8.2-.1.9-21.4-3.5-46.3-21.7-45.7,8.1-8.3,16.8-17.5,22.8-24.4,2.5-2.7-2.5-6.1-4.9-3.9Zm-120.3,33c5.8-.4,9.3-.6,12.8-1.4,1.4-13.8,2.6-33.4,1.3-35.3C146.67,16.8,135.67,53,134.37,56.2Z" transform="translate(0 0)"/></svg>