<?xml version="1.0" encoding="UTF-8"?><svg id="Layer_2" xmlns="http://www.w3.org/2000/svg" viewBox="0 0 63.59 63.59"><defs><style>.cls-1{fill:#fff;}</style></defs><g id="Layer_2-2"><path class="cls-1" d="M54.32,54.25c12.39-12.43,12.37-32.58-.08-44.98-12.43-12.39-32.58-12.34-44.97.09-12.39,12.43-12.36,32.57.08,44.96,12.45,12.4,32.58,12.37,44.97-.07ZM22.3,42.83c-1.64,0-2.99-1.33-2.99-2.98,0-1.64,1.33-2.99,2.98-2.99,2.73,0,5.33.79,7.54,2.27l-.05-27.88c0-.82.33-1.58.86-2.11s1.3-.88,2.12-.88c1.64,0,2.99,1.33,2.99,2.98l.05,27.9c2.15-1.46,4.74-2.32,7.53-2.32,1.64,0,2.97,1.32,2.99,2.98-.01,1.66-1.33,2.99-2.98,2.99-4.16,0-7.53,3.38-7.52,7.55,0,1.64-1.33,2.99-2.98,2.99-1.66-.01-2.99-1.33-2.99-2.98v-.03s0-.03,0-.05c-.02-1.98-.8-3.84-2.21-5.25s-3.32-2.2-5.34-2.19Z"/></g></svg>