<?xml version="1.0" encoding="UTF-8"?><svg id="Layer_1" xmlns="http://www.w3.org/2000/svg" viewBox="0 0 90 90"><defs><style>.cls-1{fill:#fff;}.cls-2{fill:#00228e;}</style></defs><g id="Layer_2"><g id="Layer_1-2"><path class="cls-2" d="M67.22,90H22.78C10.2,90,0,79.8,0,67.22V22.78C0,10.2,10.2,0,22.78,0h0s44.44,0,44.44,0C79.8,0,90,10.2,90,22.78v44.44c0,12.58-10.2,22.78-22.78,22.78"/><path class="cls-1" d="M68.8,39.57c0-5.89-4.79-10.67-10.68-10.67h-27.29c-5.89,0-10.67,4.78-10.67,10.67h0v12.7c-.03,5.89,4.72,10.7,10.61,10.73.02,0,.04,0,.06,0h27.29c5.9,0,10.68-4.78,10.68-10.68,0-.02,0-.03,0-.05v-12.7ZM52.8,46.87l-12.29,6.06c-.48.26-2.11-.09-2.11-.63v-12.43c0-.56,1.64-.9,2.12-.63l11.72,6.37c.49.28,1,1,.51,1.26"/></g></g></svg>