<?xml version="1.0" encoding="UTF-8"?><svg id="Layer_1" xmlns="http://www.w3.org/2000/svg" viewBox="0 0 90 90"><defs><style>.cls-1{fill:#fff;fill-rule:evenodd;}.cls-2{fill:#c60016;}</style></defs><g id="Layer_2"><g id="Layer_1-2"><path class="cls-2" d="M67.22,90H22.78C10.2,90,0,79.8,0,67.22V22.78C0,10.2,10.2,0,22.78,0h0s44.44,0,44.44,0C79.8,0,90,10.2,90,22.78v44.44c0,12.58-10.2,22.78-22.78,22.78"/><path class="cls-1" d="M54,35.73c3.73,2.67,8.2,4.1,12.78,4.09v-7.22c-2.61-.55-4.98-1.91-6.78-3.89-3.09-1.92-5.22-5.07-5.86-8.66h-6.69v36.62c-.02,4.29-3.51,7.74-7.8,7.72-2.41-.01-4.67-1.14-6.13-3.05-3.83-1.92-5.38-6.57-3.46-10.4,1.32-2.63,4-4.28,6.94-4.28.8,0,1.59.12,2.35.37v-7.3c-9.36.2-16.78,7.95-16.58,17.31.09,4.3,1.82,8.4,4.82,11.48,7.82,5.2,18.37,3.07,23.57-4.75,1.84-2.77,2.83-6.01,2.84-9.33v-18.71Z"/><path class="cls-1" d="M66.77,32.6v-2c-2.39.02-4.74-.64-6.77-1.89,1.79,1.98,4.17,3.34,6.78,3.89M54.13,20.05c-.06-.35-.11-.7-.14-1.05v-1.18h-9.23v36.62c-.01,4.28-3.49,7.74-7.77,7.73-1.21,0-2.39-.29-3.47-.83,2.6,3.41,7.47,4.06,10.88,1.46,1.91-1.46,3.04-3.73,3.05-6.13V20.05h6.68ZM39.36,39.73v-2.08c-.78-.1-1.57-.15-2.36-.15-9.36.01-16.93,7.6-16.92,16.96,0,5.64,2.81,10.9,7.49,14.04-6.54-6.69-6.41-17.42.29-23.96,3.08-3.01,7.19-4.73,11.5-4.81"/></g></g></svg>