<?xml version="1.0" encoding="UTF-8"?><svg id="Layer_1" xmlns="http://www.w3.org/2000/svg" viewBox="0 0 90 90"><defs><style>.cls-1{fill:#fff;}.cls-2{fill:#c60016;}</style></defs><g id="Layer_2"><g id="Layer_1-2"><path class="cls-2" d="M67.22,90H22.78C10.2,90,0,79.8,0,67.22V22.78C0,10.2,10.2,0,22.78,0h0s44.44,0,44.44,0C79.8,0,90,10.2,90,22.78v44.44c0,12.58-10.2,22.78-22.78,22.78"/><path class="cls-1" d="M33.07,73.84c-3.62,0-7.25.12-10.86,0-4.25-.23-7.57-3.75-7.56-8V24.38c-.04-4.46,3.53-8.11,7.99-8.15,0,0,0,0,.01,0,4.45-.12,8.92,0,13.38,0,.08,0,.19,0,.23.1s-.27.26-.41.36c-2.62,1.5-4.98,3.41-7,5.65-3.36,3.65-5.59,8.2-6.41,13.1-1.44,8.78,1.3,16.3,7.56,22.56,1.11,1.13,1.26,2,.37,3.51-1.13,1.72-2.65,3.15-4.44,4.17l-.56.36c-.27.24-.1.36.14.46.05.12.12.23.2.34,1.52,1.35,3,2.79,4.46,4.17.7.65,1.4,1.32,2.08,2,.28.25.74.33.81.81"/><path class="cls-1" d="M33.89,73.84c-.07-.47-.53-.55-.81-.82-.68-.69-1.38-1.36-2.08-2-1.5-1.38-2.94-2.83-4.47-4.18-.08-.1-.15-.21-.2-.33,3.32.57,6.74.3,9.93-.78,1.1-.33,2.2-.66,3.31-.94.75-.2,1.55-.16,2.28.11,8.1,2.91,17.01,2.55,24.85-1,3.33-1.47,6.36-3.54,8.93-6.12.13-.13.22-.33.46-.34.12.18,0,.38,0,.58v7.75c.04,4.42-3.51,8.03-7.93,8.07,0,0,0,0-.01,0h-33.47c-.26-.01-.53-.01-.79,0Z"/><path class="cls-1" d="M35.13,44.19h5.75c1,0,1.62.45,1.73,1.29.15.81-.38,1.59-1.19,1.74-.14.03-.28.03-.42.02h-8.28c-.77.06-1.51-.33-1.9-1-.31-.74-.15-1.58.4-2.16,2-2.59,4.09-5.2,6.15-7.8l.35-.46c-.13-.23-.31-.12-.47-.13h-4.31c-.34,0-.67-.04-1-.1-.73-.19-1.18-.93-1-1.67.12-.49.51-.88,1-1,.33-.08.66-.12,1-.12h7.08c.42-.01.84.04,1.25.15.77.21,1.22,1.01,1.01,1.79-.02.07-.05.15-.08.21-.37.74-.83,1.43-1.37,2.05-1.73,2.21-3.46,4.41-5.21,6.59l-.49.6Z"/><path class="cls-1" d="M50.5,37.22c.27-.44.69-.76,1.19-.9.87-.21,1.75.32,1.96,1.19.03.11.04.22.04.33v7.95c0,.69-.44,1.29-1.1,1.5-.66.25-1.42.04-1.85-.52-.23-.27-.32-.33-.64-.08-1.11.94-2.64,1.2-4,.68-2.35-.77-3.32-2.61-3.59-4.85-.41-2.3.67-4.61,2.71-5.76,1.65-1.12,3.85-.92,5.28.46M45.81,42.06c.02.58.22,1.14.56,1.6.73.95,2.08,1.15,3.05.44.16-.13.3-.28.43-.44.74-1.11.74-2.56,0-3.67-.37-.51-.95-.81-1.57-.83-1.46-.1-2.48,1-2.47,2.9M59.68,42.14c-.1-3.41,2.14-6,5.31-6,3.01-.29,5.69,1.92,5.98,4.94.02.18.03.36.02.53.28,3.03-1.95,5.71-4.98,5.99-.04,0-.08,0-.13.01-2.96.44-5.71-1.6-6.14-4.56-.04-.3-.06-.61-.06-.91ZM63,41.82c-.03.66.17,1.32.57,1.85.72.93,2.06,1.11,3,.4.16-.11.3-.23.43-.37.76-1.12.76-2.58,0-3.7-.37-.51-.95-.82-1.58-.83-1.42-.09-2.42.99-2.42,2.65M58.52,39.5v6.16c.01.94-.73,1.72-1.67,1.75-.16.02-.33.02-.49,0-.73-.24-1.21-.94-1.17-1.71v-12.44c-.06-.86.59-1.62,1.45-1.68.06,0,.12,0,.19,0,.88-.06,1.63.61,1.69,1.48,0,.08,0,.15,0,.23v6.21"/></g></g></svg>