<?xml version="1.0" encoding="UTF-8"?><svg id="Layer_2" xmlns="http://www.w3.org/2000/svg" xmlns:xlink="http://www.w3.org/1999/xlink" viewBox="0 0 1332.94 94.13"><defs><style>.cls-1{fill:url(#linear-gradient);}.cls-1,.cls-2,.cls-3{stroke-width:0px;}.cls-2{fill:url(#linear-gradient-2);}.cls-3{fill:#001c80;}</style><linearGradient id="linear-gradient" x1="666.47" y1="83.92" x2="666.47" y2="-4.29" gradientUnits="userSpaceOnUse"><stop offset="0" stop-color="#315ed0"/><stop offset="1" stop-color="#0b3293"/></linearGradient><linearGradient id="linear-gradient-2" x1="666.47" y1="14.4" x2="666.47" y2="90.09" xlink:href="#linear-gradient"/></defs><g id="Layer_1-2"><path class="cls-3" d="M0,15.07h59.9S47.88,3.72,30.43,4.62C12.98,5.53,0,15.07,0,15.07Z"/><path class="cls-3" d="M1332.94,15.07h-59.9s12.02-11.35,29.47-10.45c17.45.9,30.43,10.45,30.43,10.45Z"/><path class="cls-1" d="M1290.38,0H42.56C17.34,0,0,15.07,0,15.07,71.39-23.31,80.01,94.13,131.29,94.13h1070.35c51.28,0,59.9-117.44,131.29-79.06,0,0-17.34-15.07-42.56-15.07Z"/><path class="cls-2" d="M131.29,94.13h1070.35c44.03,0,56.61-86.57,104.48-86.76-3.32-.03-6.66.25-9.9,1.07-4.16,1.11-8.17,2.78-11.82,5.02-7.25,4.55-13.28,10.6-18.6,17.01-10.71,12.82-19.14,27.11-29.5,39.8-5.13,6.33-10.8,12.35-17.63,16.57-3.38,2.16-7.15,3.58-11.01,4.36-1.93.46-3.91.49-5.88.59l-6.42-.06-51.49-.52c-68.65-.68-427.97-.78-496.62-.87-68.65.09-389.53.19-458.19.88l-51.49.52-6.42.05c-1.97-.11-3.96-.14-5.89-.59-3.86-.78-7.63-2.21-11.01-4.37-6.84-4.22-12.5-10.25-17.64-16.58-10.37-12.69-18.78-26.99-29.5-39.81-5.32-6.4-11.34-12.46-18.59-17.01-3.65-2.24-7.66-3.91-11.82-5.02-3.24-.82-6.57-1.1-9.89-1.07,47.86.19,60.45,86.76,104.48,86.76Z"/></g></svg>