<?xml version="1.0" encoding="UTF-8"?><svg xmlns="http://www.w3.org/2000/svg" viewBox="0 0 602.76 90.42"><defs><style>.cls-1{isolation:isolate;}.cls-2,.cls-3,.cls-4,.cls-5,.cls-6{stroke-width:0px;}.cls-2,.cls-4{fill:#456ab3;}.cls-3{fill:#7880ba;}.cls-4{mix-blend-mode:multiply;opacity:.3;}.cls-5{fill:#c6ccd6;mix-blend-mode:overlay;opacity:.5;}.cls-6{fill:#c9bede;}</style></defs><g class="cls-1"><g id="Layer_1"><path class="cls-3" d="M24.07,16.18C79.52,13.72,579.52-2.93,589.76,4.42c.32.23,7.3,12.28,7.6,12.62,9.23,10.57,4.99,67.64-.56,70.49-5.73,2.94-569.32,6.39-584.97-5.08C-3.83,70.99,24.07,16.18,24.07,16.18Z"/><path class="cls-6" d="M16.79,3.89c55.45-2.47,562.13-7.35,572.36,0,10.24,7.35,9.01,73.59,3.28,76.54-5.73,2.94-571.97,4.23-587.62-7.24C-10.85,61.72,16.79,3.89,16.79,3.89Z"/><path class="cls-3" d="M581.5,67.33c-9.19,10.53-557.09,3.18-557.09,3.18V11.13s546.91-5.89,554.83,2.92c7.92,8.81,11.44,42.75,2.25,53.28Z"/><path class="cls-2" d="M573.52,62.86c-6.82,8.73-549.11,2.64-549.11,2.64V16.24s541.55-4.89,547.44,2.43c5.88,7.31,8.5,35.47,1.67,44.2Z"/><path class="cls-4" d="M561.38,55.36H24.41v10.14s542.29,6.1,549.11-2.64c3.26-4.17,4.36-12.75,3.99-21.39-2.45,7.83-7.82,13.89-16.12,13.89Z"/><path class="cls-5" d="M568.97,26.95c.13,5.12-513.98,3.99-522.6-1.87-8.62-5.85,522.31-9.28,522.6,1.87Z"/></g></g></svg>