<?xml version="1.0" encoding="UTF-8"?><svg xmlns="http://www.w3.org/2000/svg" viewBox="0 0 714.77 92.52"><defs><style>.cls-1{mix-blend-mode:multiply;opacity:.3;}.cls-1,.cls-2{fill:#d39d2f;}.cls-1,.cls-2,.cls-3,.cls-4,.cls-5{stroke-width:0px;}.cls-6{isolation:isolate;}.cls-3{fill:#fee8ac;}.cls-4{fill:#d5cbb5;mix-blend-mode:overlay;opacity:.5;}.cls-5{fill:#ba845d;}</style></defs><g class="cls-6"><g id="Layer_1"><path class="cls-5" d="M22.62,16.56C74.73,14.04,692.93-3,702.55,4.52c.3.23,6.86,12.57,7.14,12.92,8.67,10.81,4.69,69.21-.53,72.13-5.39,3.01-683.34,6.53-698.05-5.2C-3.59,72.63,22.62,16.56,22.62,16.56Z"/><path class="cls-3" d="M15.77,3.98c52.11-2.52,676.58-7.52,686.2,0,9.62,7.52,8.46,75.3,3.08,78.31-5.39,3.01-685.83,4.33-700.54-7.41C-10.2,63.15,15.77,3.98,15.77,3.98Z"/><path class="cls-5" d="M694.78,68.89c-8.63,10.77-671.85,3.25-671.85,3.25V11.39s662.28-6.03,669.73,2.99c7.45,9.02,10.75,43.74,2.12,54.51Z"/><path class="cls-2" d="M687.29,64.32c-6.41,8.94-664.35,2.7-664.35,2.7V16.61s657.25-5,662.78,2.48c5.53,7.48,7.99,36.29,1.57,45.23Z"/><path class="cls-1" d="M675.88,56.65H22.94v10.37s657.94,6.24,664.35-2.7c3.06-4.26,4.1-13.05,3.75-21.88-2.3,8.01-7.34,14.21-15.15,14.21Z"/><path class="cls-4" d="M683.01,27.58c.12,5.24-631.34,4.08-639.44-1.91-8.1-5.99,639.17-9.5,639.44,1.91Z"/></g></g></svg>