<?xml version="1.0" encoding="UTF-8"?><svg id="Layer_2" xmlns="http://www.w3.org/2000/svg" xmlns:xlink="http://www.w3.org/1999/xlink" viewBox="0 0 772.51 121.32"><defs><style>.cls-1{fill:url(#linear-gradient);}.cls-1,.cls-2,.cls-3{stroke-width:0px;}.cls-2{fill:#800504;}.cls-3{fill:url(#linear-gradient-2);}</style><linearGradient id="linear-gradient" x1="386.25" y1="108.16" x2="386.25" y2="-5.53" gradientUnits="userSpaceOnUse"><stop offset="0" stop-color="#d0313a"/><stop offset="1" stop-color="#930b13"/></linearGradient><linearGradient id="linear-gradient-2" x1="386.25" y1="18.55" x2="386.25" y2="116.1" xlink:href="#linear-gradient"/></defs><g id="Layer_1-2"><path class="cls-2" d="M0,15.57h34.72S27.75,3.84,17.64,4.77C7.52,5.71,0,15.57,0,15.57Z"/><path class="cls-2" d="M772.51,15.57h-34.72s6.97-11.73,17.08-10.79c10.11.93,17.64,10.79,17.64,10.79Z"/><path class="cls-1" d="M747.84,0H24.66C10.05,0,0,19.42,0,19.42,41.38-30.04,46.37,121.32,76.09,121.32h620.32c29.72,0,34.72-151.36,76.09-101.9,0,0-10.05-19.42-24.66-19.42Z"/><path class="cls-3" d="M76.09,121.32h620.32c25.52,0,32.81-111.58,60.55-111.82-1.92-.04-3.86.32-5.74,1.38-2.41,1.43-4.74,3.59-6.85,6.47-4.2,5.86-7.69,13.67-10.78,21.92-6.21,16.52-11.09,34.94-17.1,51.3-2.98,8.16-6.26,15.92-10.22,21.36-1.96,2.78-4.14,4.61-6.38,5.62-1.12.59-2.27.63-3.41.77l-3.72-.07-29.84-.67c-39.79-.88-248.03-1.01-287.82-1.12-39.79.12-225.75.25-265.54,1.14l-29.84.66-3.72.07c-1.14-.14-2.29-.18-3.41-.77-2.24-1.01-4.42-2.85-6.38-5.63-3.96-5.44-7.24-13.21-10.22-21.36-6.01-16.36-10.89-34.78-17.1-51.31-3.08-8.25-6.57-16.06-10.78-21.92-2.11-2.89-4.44-5.04-6.85-6.47-1.88-1.06-3.81-1.42-5.73-1.38,27.74.25,35.03,111.82,60.55,111.82Z"/></g></svg>