<?xml version="1.0" encoding="UTF-8"?><svg id="Layer_1" xmlns="http://www.w3.org/2000/svg" xmlns:xlink="http://www.w3.org/1999/xlink" viewBox="0 0 1145.94 290"><defs><style>.cls-1{fill:#234797;}.cls-1,.cls-2,.cls-3,.cls-4,.cls-5,.cls-6,.cls-7{stroke-width:0px;}.cls-8{stroke-width:2.78px;}.cls-8,.cls-6{fill:#fdd800;}.cls-8,.cls-9{stroke:#2a53a4;}.cls-2{fill:#2a53a4;}.cls-3,.cls-9{fill:none;}.cls-10{clip-path:url(#clippath);}.cls-4{fill:#2751a3;}.cls-5{fill:#fff;}.cls-7{fill:#9ea2ae;}.cls-9{stroke-width:3px;}</style><clipPath id="clippath"><rect class="cls-3" width="1145.94" height="290"/></clipPath></defs><g class="cls-10"><rect class="cls-8" x="1.39" y="131.61" width="1143.17" height="154.4" rx="27.12" ry="27.12"/><path class="cls-6" d="M131.46,156.81c-4.97,0-9.01-4.03-9.01-9.01v-79.38c0-4.97,4.03-9.01,9.01-9.01h38.22c8.65,0,16.35,1.48,22.9,4.41,6.98,3.13,12.49,7.72,16.39,13.66,3.91,5.97,5.9,12.99,5.9,20.87s-1.99,14.9-5.92,20.84c-3.88,5.87-9.37,10.45-16.32,13.61-6.55,2.98-14.28,4.49-22.95,4.49h-2.45v10.5c0,4.97-4.03,9.01-9.01,9.01h-26.76ZM167.98,98.65c.9,0,1.51-.08,1.88-.15,0-.04,0-.24,0-.28-.37-.08-.98-.15-1.88-.15h-.75v.59h.75Z"/><path class="cls-6" d="M266.07,156.81c-4.97,0-9.01-4.03-9.01-9.01v-20.25h-6.71v20.25c0,4.97-4.03,9.01-9.01,9.01h-26.76c-4.97,0-9.01-4.03-9.01-9.01v-79.38c0-4.97,4.03-9.01,9.01-9.01h26.76c4.97,0,9.01,4.03,9.01,9.01v19.12h6.71v-19.12c0-4.97,4.03-9.01,9.01-9.01h26.76c4.97,0,9.01,4.03,9.01,9.01v79.38c0,4.97-4.03,9.01-9.01,9.01h-26.76Z"/><path class="cls-6" d="M343.75,158.62c-14.53,0-26.21-4.17-34.72-12.4-8.59-8.31-12.95-19.8-12.95-34.14v-43.66c0-4.97,4.03-9.01,9.01-9.01h26.76c4.97,0,9.01,4.03,9.01,9.01v42.87c0,5.5,1.09,6.97,1.1,6.99.26.3.59.68,2.03.68s1.83-.38,2.04-.63c0,0,1.09-1.5,1.09-7.04v-42.87c0-4.97,4.03-9.01,9.01-9.01h12.99c-1.11-1.99-1.43-4.35-.85-6.61.75-2.92,2.9-5.27,5.74-6.27l14.52-5.1c.98-.34,1.99-.51,2.98-.51,2.74,0,5.39,1.25,7.13,3.5,1.85,2.39,3.33,5.1,4.4,8.04,1.11,3.07,1.68,6.45,1.68,10.05,0,9.52-3.13,17.15-9.31,22.65-1.23,1.09-2.55,2.08-3.96,2.95v23.95c0,14.35-4.36,25.84-12.95,34.14-8.51,8.23-20.19,12.4-34.72,12.4Z"/><path class="cls-6" d="M438.55,158.62c-7.47,0-14.54-1.22-21-3.63-6.58-2.45-12.38-5.99-17.24-10.53-4.89-4.56-8.74-10-11.45-16.17-2.73-6.19-4.11-12.98-4.11-20.18s1.39-14.1,4.12-20.27c2.72-6.14,6.63-11.57,11.62-16.14,4.94-4.53,10.86-8.07,17.59-10.5,6.59-2.39,13.86-3.6,21.61-3.6,4.41,0,8.58.28,12.4.83,1.68.24,3.2.42,4.55.52-.91-1.89-1.15-4.06-.61-6.14.75-2.92,2.9-5.27,5.74-6.27l14.52-5.1c.98-.34,1.99-.51,2.98-.51,2.74,0,5.39,1.25,7.13,3.5,1.85,2.39,3.33,5.09,4.4,8.04,1.11,3.07,1.68,6.45,1.68,10.05,0,9.53-3.55,15.74-7.4,19.68,2.08,3.29,3.75,6.87,4.98,10.66,1.53,4.73,2.31,9.86,2.31,15.25,0,7.2-1.38,13.99-4.11,20.18-2.71,6.16-6.57,11.6-11.45,16.16-4.86,4.54-10.63,8.08-17.16,10.53-6.43,2.41-13.53,3.64-21.08,3.64ZM438.55,97.27c-1.29,0-2.43.21-3.48.66-1.02.43-1.88,1.03-2.65,1.83-.77.81-1.38,1.83-1.86,3.14-.53,1.44-.8,3.2-.8,5.22s.27,3.77.8,5.21c.48,1.3,1.09,2.33,1.86,3.13.77.81,1.64,1.41,2.66,1.84,1.05.44,2.19.66,3.48.66s2.43-.21,3.48-.66c1.01-.43,1.88-1.03,2.66-1.84.77-.81,1.38-1.83,1.86-3.13.53-1.44.8-3.2.8-5.22s-.27-3.77-.8-5.22c-.48-1.3-1.09-2.33-1.86-3.14-.77-.8-1.64-1.4-2.65-1.83-1.05-.44-2.19-.66-3.48-.66Z"/><path class="cls-6" d="M549.34,156.81c-2.67,0-5.2-1.18-6.91-3.23l-14.25-17.05v11.27c0,4.97-4.03,9.01-9.01,9.01h-26.08c-4.97,0-9.01-4.03-9.01-9.01v-79.38c0-4.97,4.03-9.01,9.01-9.01h22c2.67,0,5.2,1.18,6.91,3.23l14.25,17.05v-11.27c0-4.97,4.03-9.01,9.01-9.01h26.08c4.97,0,9.01,4.03,9.01,9.01v79.38c0,4.97-4.03,9.01-9.01,9.01h-22Z"/><path class="cls-6" d="M625.43,158.62c-7.46,0-14.49-1.2-20.88-3.57-6.5-2.41-12.25-5.92-17.08-10.42-4.86-4.54-8.69-9.98-11.36-16.16-2.67-6.17-4.03-13.02-4.03-20.36s1.36-14.19,4.03-20.36c2.68-6.2,6.53-11.64,11.45-16.19,4.87-4.5,10.67-8,17.25-10.41,6.45-2.36,13.58-3.55,21.18-3.55,9.05,0,17.32,1.58,24.59,4.7,7.48,3.21,13.76,7.9,18.68,13.92,3.06,3.75,2.61,9.25-1.03,12.45l-9.4,8.28h1.18c4.97,0,9.01,4.03,9.01,9.01v33.57c0,3-1.49,5.8-3.98,7.47-5.61,3.77-12.05,6.69-19.15,8.68-6.97,1.95-13.85,2.94-20.46,2.94ZM627.35,97.27c-1.83,0-3.45.26-4.79.77-1.13.43-2.03,1.01-2.76,1.78-.82.86-1.45,1.9-1.93,3.18-.52,1.39-.79,3.12-.79,5.12,0,1.87.27,3.54.8,4.99.48,1.3,1.11,2.34,1.91,3.19.79.83,1.72,1.45,2.86,1.92,1.21.5,2.67.75,4.36.75.25,0,.5,0,.75-.02v-12.98c0-3.32,1.8-6.23,4.48-7.79-1.46-.6-3.06-.9-4.88-.9Z"/><path class="cls-6" d="M705.48,156.81c-4.97,0-9.01-4.03-9.01-9.01v-79.38c0-4.97,4.03-9.01,9.01-9.01h38.22c8.65,0,16.35,1.48,22.9,4.41,6.98,3.13,12.49,7.72,16.39,13.66,3.91,5.97,5.9,12.99,5.9,20.87s-1.99,14.9-5.92,20.84c-3.88,5.88-9.37,10.45-16.32,13.61-6.55,2.98-14.28,4.49-22.95,4.49h-2.45v10.5c0,4.97-4.03,9.01-9.01,9.01h-26.76ZM742,98.65c.9,0,1.51-.08,1.88-.15,0-.04,0-.24,0-.28-.37-.08-.97-.15-1.88-.15h-.75v.59h.75Z"/><path class="cls-6" d="M840.09,156.81c-4.97,0-9.01-4.03-9.01-9.01v-20.25h-6.71v20.25c0,4.97-4.03,9.01-9.01,9.01h-26.76c-4.97,0-9.01-4.03-9.01-9.01v-79.38c0-4.97,4.03-9.01,9.01-9.01h26.76c4.97,0,9.01,4.03,9.01,9.01v19.12h6.71v-19.12c0-4.97,4.03-9.01,9.01-9.01h26.76c4.97,0,9.01,4.03,9.01,9.01v79.38c0,4.97-4.03,9.01-9.01,9.01h-26.76Z"/><path class="cls-6" d="M939.2,156.81c-3.73,0-7.07-2.3-8.41-5.77l-3.1-8.06h-17.82l-3.1,8.06c-1.34,3.48-4.68,5.77-8.41,5.77h-27.22c-3.04,0-5.87-1.53-7.54-4.08-1.66-2.54-1.93-5.75-.72-8.54l34.7-79.38c.19-.42.4-.83.64-1.21-.48-2.58.19-5.29,1.91-7.38l14.97-18.14c1.71-2.07,4.26-3.27,6.95-3.27h24.38c3.81,0,7.21,2.4,8.49,5.99,1.28,3.59.15,7.6-2.81,10l-13.71,11.14c.83.8,1.52,1.77,2,2.87l34.7,79.38c1.22,2.78.95,6-.72,8.54-1.66,2.54-4.5,4.08-7.54,4.08h-27.67Z"/><path class="cls-6" d="M971.18,156.81c-4.97,0-9.01-4.03-9.01-9.01v-79.38c0-4.97,4.03-9.01,9.01-9.01h38.22c8.65,0,16.35,1.48,22.9,4.41,6.98,3.13,12.49,7.72,16.39,13.66,3.91,5.97,5.9,12.99,5.9,20.87s-1.99,14.9-5.92,20.84c-3.88,5.88-9.37,10.45-16.32,13.61-6.55,2.98-14.28,4.49-22.95,4.49h-2.45v10.5c0,4.97-4.03,9.01-9.01,9.01h-26.76ZM1007.69,98.65c.9,0,1.51-.08,1.88-.15,0-.04,0-.24,0-.28-.37-.08-.97-.15-1.88-.15h-.75v.59h.75Z"/><path class="cls-6" d="M129.46,154.81c-4.97,0-9.01-4.03-9.01-9.01v-79.38c0-4.97,4.03-9.01,9.01-9.01h38.22c8.65,0,16.35,1.48,22.9,4.41,6.98,3.13,12.49,7.72,16.39,13.66,3.91,5.97,5.9,12.99,5.9,20.87s-1.99,14.9-5.92,20.84c-3.88,5.87-9.37,10.45-16.32,13.61-6.55,2.98-14.28,4.49-22.95,4.49h-2.45v10.5c0,4.97-4.03,9.01-9.01,9.01h-26.76ZM165.98,96.65c.9,0,1.51-.08,1.88-.15,0-.04,0-.24,0-.28-.37-.08-.98-.15-1.88-.15h-.75v.59h.75Z"/><path class="cls-6" d="M264.07,154.81c-4.97,0-9.01-4.03-9.01-9.01v-20.25h-6.71v20.25c0,4.97-4.03,9.01-9.01,9.01h-26.76c-4.97,0-9.01-4.03-9.01-9.01v-79.38c0-4.97,4.03-9.01,9.01-9.01h26.76c4.97,0,9.01,4.03,9.01,9.01v19.12h6.71v-19.12c0-4.97,4.03-9.01,9.01-9.01h26.76c4.97,0,9.01,4.03,9.01,9.01v79.38c0,4.97-4.03,9.01-9.01,9.01h-26.76Z"/><path class="cls-6" d="M341.74,156.62c-14.53,0-26.21-4.17-34.72-12.4-8.59-8.31-12.95-19.8-12.95-34.14v-43.66c0-4.97,4.03-9.01,9.01-9.01h26.76c4.97,0,9.01,4.03,9.01,9.01v42.87c0,5.5,1.09,6.97,1.1,6.99.26.3.59.68,2.03.68s1.83-.38,2.04-.63c0,0,1.09-1.5,1.09-7.04v-42.87c0-4.97,4.03-9.01,9.01-9.01h12.99c-1.11-1.99-1.43-4.35-.85-6.61.75-2.92,2.9-5.27,5.74-6.27l14.52-5.1c.98-.34,1.99-.51,2.98-.51,2.74,0,5.39,1.25,7.13,3.5,1.85,2.39,3.33,5.1,4.4,8.04,1.11,3.07,1.68,6.45,1.68,10.05,0,9.52-3.13,17.15-9.31,22.65-1.23,1.09-2.55,2.08-3.96,2.95v23.95c0,14.35-4.36,25.84-12.95,34.14-8.51,8.23-20.19,12.4-34.72,12.4Z"/><path class="cls-6" d="M436.54,156.62c-7.47,0-14.54-1.22-21-3.63-6.58-2.45-12.38-5.99-17.24-10.53-4.89-4.56-8.74-10-11.45-16.17-2.73-6.19-4.11-12.98-4.11-20.18s1.39-14.1,4.12-20.27c2.72-6.14,6.63-11.57,11.62-16.14,4.94-4.53,10.86-8.07,17.59-10.5,6.59-2.39,13.86-3.6,21.61-3.6,4.41,0,8.58.28,12.4.83,1.68.24,3.2.42,4.55.52-.91-1.89-1.15-4.06-.61-6.14.75-2.92,2.9-5.27,5.74-6.27l14.52-5.1c.98-.34,1.99-.51,2.98-.51,2.74,0,5.39,1.25,7.13,3.5,1.85,2.39,3.33,5.09,4.4,8.04,1.11,3.07,1.68,6.45,1.68,10.05,0,9.53-3.55,15.74-7.4,19.68,2.08,3.29,3.75,6.87,4.98,10.66,1.53,4.73,2.31,9.86,2.31,15.25,0,7.2-1.38,13.99-4.11,20.18-2.71,6.16-6.57,11.6-11.45,16.16-4.86,4.54-10.63,8.08-17.16,10.53-6.43,2.41-13.53,3.64-21.08,3.64ZM436.54,95.27c-1.29,0-2.43.21-3.48.66-1.02.43-1.88,1.03-2.65,1.83-.77.81-1.38,1.83-1.86,3.14-.53,1.44-.8,3.2-.8,5.22s.27,3.77.8,5.21c.48,1.3,1.09,2.33,1.86,3.13.77.81,1.64,1.41,2.66,1.84,1.05.44,2.19.66,3.48.66s2.43-.21,3.48-.66c1.01-.43,1.88-1.03,2.66-1.84.77-.81,1.38-1.83,1.86-3.13.53-1.44.8-3.2.8-5.22s-.27-3.77-.8-5.22c-.48-1.3-1.09-2.33-1.86-3.14-.77-.8-1.64-1.4-2.65-1.83-1.05-.44-2.19-.66-3.48-.66Z"/><path class="cls-6" d="M547.33,154.81c-2.67,0-5.2-1.18-6.91-3.23l-14.25-17.05v11.27c0,4.97-4.03,9.01-9.01,9.01h-26.08c-4.97,0-9.01-4.03-9.01-9.01v-79.38c0-4.97,4.03-9.01,9.01-9.01h22c2.67,0,5.2,1.18,6.91,3.23l14.25,17.05v-11.27c0-4.97,4.03-9.01,9.01-9.01h26.08c4.97,0,9.01,4.03,9.01,9.01v79.38c0,4.97-4.03,9.01-9.01,9.01h-22Z"/><path class="cls-6" d="M623.42,156.62c-7.46,0-14.49-1.2-20.88-3.57-6.5-2.41-12.25-5.92-17.08-10.42-4.86-4.54-8.69-9.98-11.36-16.16-2.67-6.17-4.03-13.02-4.03-20.36s1.36-14.19,4.03-20.36c2.68-6.2,6.53-11.64,11.45-16.19,4.87-4.5,10.67-8,17.25-10.41,6.45-2.36,13.58-3.55,21.18-3.55,9.05,0,17.32,1.58,24.59,4.7,7.48,3.21,13.76,7.9,18.68,13.92,3.06,3.75,2.61,9.25-1.03,12.45l-9.4,8.28h1.18c4.97,0,9.01,4.03,9.01,9.01v33.57c0,3-1.49,5.8-3.98,7.47-5.61,3.77-12.05,6.69-19.15,8.68-6.97,1.95-13.85,2.94-20.46,2.94ZM625.35,95.27c-1.83,0-3.45.26-4.79.77-1.13.43-2.03,1.01-2.76,1.78-.82.86-1.45,1.9-1.93,3.18-.52,1.39-.79,3.12-.79,5.12,0,1.87.27,3.54.8,4.99.48,1.3,1.11,2.34,1.91,3.19.79.83,1.72,1.45,2.86,1.92,1.21.5,2.67.75,4.36.75.25,0,.5,0,.75-.02v-12.98c0-3.32,1.8-6.23,4.48-7.79-1.46-.6-3.06-.9-4.88-.9Z"/><path class="cls-6" d="M703.48,154.81c-4.97,0-9.01-4.03-9.01-9.01v-79.38c0-4.97,4.03-9.01,9.01-9.01h38.22c8.65,0,16.35,1.48,22.9,4.41,6.98,3.13,12.49,7.72,16.39,13.66,3.91,5.97,5.9,12.99,5.9,20.87s-1.99,14.9-5.92,20.84c-3.88,5.88-9.37,10.45-16.32,13.61-6.55,2.98-14.28,4.49-22.95,4.49h-2.45v10.5c0,4.97-4.03,9.01-9.01,9.01h-26.76ZM740,96.65c.9,0,1.51-.08,1.88-.15,0-.04,0-.24,0-.28-.37-.08-.97-.15-1.88-.15h-.75v.59h.75Z"/><path class="cls-6" d="M838.09,154.81c-4.97,0-9.01-4.03-9.01-9.01v-20.25h-6.71v20.25c0,4.97-4.03,9.01-9.01,9.01h-26.76c-4.97,0-9.01-4.03-9.01-9.01v-79.38c0-4.97,4.03-9.01,9.01-9.01h26.76c4.97,0,9.01,4.03,9.01,9.01v19.12h6.71v-19.12c0-4.97,4.03-9.01,9.01-9.01h26.76c4.97,0,9.01,4.03,9.01,9.01v79.38c0,4.97-4.03,9.01-9.01,9.01h-26.76Z"/><path class="cls-6" d="M937.2,154.81c-3.73,0-7.07-2.3-8.41-5.77l-3.1-8.06h-17.82l-3.1,8.06c-1.34,3.48-4.68,5.77-8.41,5.77h-27.22c-3.04,0-5.87-1.53-7.54-4.08-1.66-2.54-1.93-5.75-.72-8.54l34.7-79.38c.19-.42.4-.83.64-1.21-.48-2.58.19-5.29,1.91-7.38l14.97-18.14c1.71-2.07,4.26-3.27,6.95-3.27h24.38c3.81,0,7.21,2.4,8.49,5.99,1.28,3.59.15,7.6-2.81,10l-13.71,11.14c.83.8,1.52,1.77,2,2.87l34.7,79.38c1.22,2.78.95,6-.72,8.54-1.66,2.54-4.5,4.08-7.54,4.08h-27.67Z"/><path class="cls-6" d="M969.18,154.81c-4.97,0-9.01-4.03-9.01-9.01v-79.38c0-4.97,4.03-9.01,9.01-9.01h38.22c8.65,0,16.35,1.48,22.9,4.41,6.98,3.13,12.49,7.72,16.39,13.66,3.91,5.97,5.9,12.99,5.9,20.87s-1.99,14.9-5.92,20.84c-3.88,5.88-9.37,10.45-16.32,13.61-6.55,2.98-14.28,4.49-22.95,4.49h-2.45v10.5c0,4.97-4.03,9.01-9.01,9.01h-26.76ZM1005.69,96.65c.9,0,1.51-.08,1.88-.15,0-.04,0-.24,0-.28-.37-.08-.97-.15-1.88-.15h-.75v.59h.75Z"/><path class="cls-6" d="M127.46,152.81c-4.97,0-9.01-4.03-9.01-9.01v-79.38c0-4.97,4.03-9.01,9.01-9.01h38.22c8.65,0,16.35,1.48,22.9,4.41,6.98,3.13,12.49,7.72,16.39,13.66,3.91,5.97,5.9,12.99,5.9,20.87s-1.99,14.9-5.92,20.84c-3.88,5.87-9.37,10.45-16.32,13.61-6.55,2.98-14.28,4.49-22.95,4.49h-2.45v10.5c0,4.97-4.03,9.01-9.01,9.01h-26.76ZM163.98,94.65c.9,0,1.51-.08,1.88-.15,0-.04,0-.24,0-.28-.37-.08-.98-.15-1.88-.15h-.75v.59h.75Z"/><path class="cls-6" d="M262.07,152.81c-4.97,0-9.01-4.03-9.01-9.01v-20.25h-6.71v20.25c0,4.97-4.03,9.01-9.01,9.01h-26.76c-4.97,0-9.01-4.03-9.01-9.01v-79.38c0-4.97,4.03-9.01,9.01-9.01h26.76c4.97,0,9.01,4.03,9.01,9.01v19.12h6.71v-19.12c0-4.97,4.03-9.01,9.01-9.01h26.76c4.97,0,9.01,4.03,9.01,9.01v79.38c0,4.97-4.03,9.01-9.01,9.01h-26.76Z"/><path class="cls-6" d="M339.74,154.62c-14.53,0-26.21-4.17-34.72-12.4-8.59-8.31-12.95-19.8-12.95-34.14v-43.66c0-4.97,4.03-9.01,9.01-9.01h26.76c4.97,0,9.01,4.03,9.01,9.01v42.87c0,5.5,1.09,6.97,1.1,6.99.26.3.59.68,2.03.68s1.83-.38,2.04-.63c0,0,1.09-1.5,1.09-7.04v-42.87c0-4.97,4.03-9.01,9.01-9.01h12.99c-1.11-1.99-1.43-4.35-.85-6.61.75-2.92,2.9-5.27,5.74-6.27l14.52-5.1c.98-.34,1.99-.51,2.98-.51,2.74,0,5.39,1.25,7.13,3.5,1.85,2.39,3.33,5.1,4.4,8.04,1.11,3.07,1.68,6.45,1.68,10.05,0,9.52-3.13,17.15-9.31,22.65-1.23,1.09-2.55,2.08-3.96,2.95v23.95c0,14.35-4.36,25.84-12.95,34.14-8.51,8.23-20.19,12.4-34.72,12.4Z"/><path class="cls-6" d="M434.54,154.62c-7.47,0-14.54-1.22-21-3.63-6.58-2.45-12.38-5.99-17.24-10.53-4.89-4.56-8.74-10-11.45-16.17-2.73-6.19-4.11-12.98-4.11-20.18s1.39-14.1,4.12-20.27c2.72-6.14,6.63-11.57,11.62-16.14,4.94-4.53,10.86-8.07,17.59-10.5,6.59-2.39,13.86-3.6,21.61-3.6,4.41,0,8.58.28,12.4.83,1.68.24,3.2.42,4.55.52-.91-1.89-1.15-4.06-.61-6.14.75-2.92,2.9-5.27,5.74-6.27l14.52-5.1c.98-.34,1.99-.51,2.98-.51,2.74,0,5.39,1.25,7.13,3.5,1.85,2.39,3.33,5.09,4.4,8.04,1.11,3.07,1.68,6.45,1.68,10.05,0,9.53-3.55,15.74-7.4,19.68,2.08,3.29,3.75,6.87,4.98,10.66,1.53,4.73,2.31,9.86,2.31,15.25,0,7.2-1.38,13.99-4.11,20.18-2.71,6.16-6.57,11.6-11.45,16.16-4.86,4.54-10.63,8.08-17.16,10.53-6.43,2.41-13.53,3.64-21.08,3.64ZM434.54,93.27c-1.29,0-2.43.21-3.48.66-1.02.43-1.88,1.03-2.65,1.83-.77.81-1.38,1.83-1.86,3.14-.53,1.44-.8,3.2-.8,5.22s.27,3.77.8,5.21c.48,1.3,1.09,2.33,1.86,3.13.77.81,1.64,1.41,2.66,1.84,1.05.44,2.19.66,3.48.66s2.43-.21,3.48-.66c1.01-.43,1.88-1.03,2.66-1.84.77-.81,1.38-1.83,1.86-3.13.53-1.44.8-3.2.8-5.22s-.27-3.77-.8-5.22c-.48-1.3-1.09-2.33-1.86-3.14-.77-.8-1.64-1.4-2.65-1.83-1.05-.44-2.19-.66-3.48-.66Z"/><path class="cls-6" d="M545.33,152.81c-2.67,0-5.2-1.18-6.91-3.23l-14.25-17.05v11.27c0,4.97-4.03,9.01-9.01,9.01h-26.08c-4.97,0-9.01-4.03-9.01-9.01v-79.38c0-4.97,4.03-9.01,9.01-9.01h22c2.67,0,5.2,1.18,6.91,3.23l14.25,17.05v-11.27c0-4.97,4.03-9.01,9.01-9.01h26.08c4.97,0,9.01,4.03,9.01,9.01v79.38c0,4.97-4.03,9.01-9.01,9.01h-22Z"/><path class="cls-6" d="M621.42,154.62c-7.46,0-14.49-1.2-20.88-3.57-6.5-2.41-12.25-5.92-17.08-10.42-4.86-4.54-8.69-9.98-11.36-16.16-2.67-6.17-4.03-13.02-4.03-20.36s1.36-14.19,4.03-20.36c2.68-6.2,6.53-11.64,11.45-16.19,4.87-4.5,10.67-8,17.25-10.41,6.45-2.36,13.58-3.55,21.18-3.55,9.05,0,17.32,1.58,24.59,4.7,7.48,3.21,13.76,7.9,18.68,13.92,3.06,3.75,2.61,9.25-1.03,12.45l-9.4,8.28h1.18c4.97,0,9.01,4.03,9.01,9.01v33.57c0,3-1.49,5.8-3.98,7.47-5.61,3.77-12.05,6.69-19.15,8.68-6.97,1.95-13.85,2.94-20.46,2.94ZM623.35,93.27c-1.83,0-3.45.26-4.79.77-1.13.43-2.03,1.01-2.76,1.78-.82.86-1.45,1.9-1.93,3.18-.52,1.39-.79,3.12-.79,5.12,0,1.87.27,3.54.8,4.99.48,1.3,1.11,2.34,1.91,3.19.79.83,1.72,1.45,2.86,1.92,1.21.5,2.67.75,4.36.75.25,0,.5,0,.75-.02v-12.98c0-3.32,1.8-6.23,4.48-7.79-1.46-.6-3.06-.9-4.88-.9Z"/><path class="cls-6" d="M701.48,152.81c-4.97,0-9.01-4.03-9.01-9.01v-79.38c0-4.97,4.03-9.01,9.01-9.01h38.22c8.65,0,16.35,1.48,22.9,4.41,6.98,3.13,12.49,7.72,16.39,13.66,3.91,5.97,5.9,12.99,5.9,20.87s-1.99,14.9-5.92,20.84c-3.88,5.88-9.37,10.45-16.32,13.61-6.55,2.98-14.28,4.49-22.95,4.49h-2.45v10.5c0,4.97-4.03,9.01-9.01,9.01h-26.76ZM738,94.65c.9,0,1.51-.08,1.88-.15,0-.04,0-.24,0-.28-.37-.08-.97-.15-1.88-.15h-.75v.59h.75Z"/><path class="cls-6" d="M836.09,152.81c-4.97,0-9.01-4.03-9.01-9.01v-20.25h-6.71v20.25c0,4.97-4.03,9.01-9.01,9.01h-26.76c-4.97,0-9.01-4.03-9.01-9.01v-79.38c0-4.97,4.03-9.01,9.01-9.01h26.76c4.97,0,9.01,4.03,9.01,9.01v19.12h6.71v-19.12c0-4.97,4.03-9.01,9.01-9.01h26.76c4.97,0,9.01,4.03,9.01,9.01v79.38c0,4.97-4.03,9.01-9.01,9.01h-26.76Z"/><path class="cls-6" d="M935.2,152.81c-3.73,0-7.07-2.3-8.41-5.77l-3.1-8.06h-17.82l-3.1,8.06c-1.34,3.48-4.68,5.77-8.41,5.77h-27.22c-3.04,0-5.87-1.53-7.54-4.08-1.66-2.54-1.93-5.75-.72-8.54l34.7-79.38c.19-.42.4-.83.64-1.21-.48-2.58.19-5.29,1.91-7.38l14.97-18.14c1.71-2.07,4.26-3.27,6.95-3.27h24.38c3.81,0,7.21,2.4,8.49,5.99,1.28,3.59.15,7.6-2.81,10l-13.71,11.14c.83.8,1.52,1.77,2,2.87l34.7,79.38c1.22,2.78.95,6-.72,8.54-1.66,2.54-4.5,4.08-7.54,4.08h-27.67Z"/><path class="cls-6" d="M967.17,152.81c-4.97,0-9.01-4.03-9.01-9.01v-79.38c0-4.97,4.03-9.01,9.01-9.01h38.22c8.65,0,16.35,1.48,22.9,4.41,6.98,3.13,12.49,7.72,16.39,13.66,3.91,5.97,5.9,12.99,5.9,20.87s-1.99,14.9-5.92,20.84c-3.88,5.88-9.37,10.45-16.32,13.61-6.55,2.98-14.28,4.49-22.95,4.49h-2.45v10.5c0,4.97-4.03,9.01-9.01,9.01h-26.76ZM1003.69,94.65c.9,0,1.51-.08,1.88-.15,0-.04,0-.24,0-.28-.37-.08-.97-.15-1.88-.15h-.75v.59h.75Z"/><path class="cls-6" d="M125.46,150.8c-4.97,0-9.01-4.03-9.01-9.01V62.42c0-4.97,4.03-9.01,9.01-9.01h38.22c8.65,0,16.35,1.48,22.9,4.41,6.98,3.13,12.49,7.72,16.39,13.66,3.91,5.97,5.9,12.99,5.9,20.87s-1.99,14.9-5.92,20.84c-3.88,5.87-9.37,10.45-16.32,13.61-6.55,2.98-14.28,4.49-22.95,4.49h-2.45v10.5c0,4.97-4.03,9.01-9.01,9.01h-26.76ZM161.97,92.65c.9,0,1.51-.08,1.88-.15,0-.04,0-.24,0-.28-.37-.08-.98-.15-1.88-.15h-.75v.59h.75Z"/><path class="cls-6" d="M260.06,150.8c-4.97,0-9.01-4.03-9.01-9.01v-20.25h-6.71v20.25c0,4.97-4.03,9.01-9.01,9.01h-26.76c-4.97,0-9.01-4.03-9.01-9.01V62.42c0-4.97,4.03-9.01,9.01-9.01h26.76c4.97,0,9.01,4.03,9.01,9.01v19.12h6.71v-19.12c0-4.97,4.03-9.01,9.01-9.01h26.76c4.97,0,9.01,4.03,9.01,9.01v79.38c0,4.97-4.03,9.01-9.01,9.01h-26.76Z"/><path class="cls-6" d="M337.74,152.62c-14.53,0-26.21-4.17-34.72-12.4-8.59-8.31-12.95-19.8-12.95-34.14v-43.66c0-4.97,4.03-9.01,9.01-9.01h26.76c4.97,0,9.01,4.03,9.01,9.01v42.87c0,5.5,1.09,6.97,1.1,6.99.26.3.59.68,2.03.68s1.83-.38,2.04-.63c0,0,1.09-1.5,1.09-7.04v-42.87c0-4.97,4.03-9.01,9.01-9.01h12.99c-1.11-1.99-1.43-4.35-.85-6.61.75-2.92,2.9-5.27,5.74-6.27l14.52-5.1c.98-.34,1.99-.51,2.98-.51,2.74,0,5.39,1.25,7.13,3.5,1.85,2.39,3.33,5.1,4.4,8.04,1.11,3.07,1.68,6.45,1.68,10.05,0,9.52-3.13,17.15-9.31,22.65-1.23,1.09-2.55,2.08-3.96,2.95v23.95c0,14.35-4.36,25.84-12.95,34.14-8.51,8.23-20.19,12.4-34.72,12.4Z"/><path class="cls-6" d="M432.54,152.62c-7.47,0-14.54-1.22-21-3.63-6.58-2.45-12.38-5.99-17.24-10.53-4.89-4.56-8.74-10-11.45-16.17-2.73-6.19-4.11-12.98-4.11-20.18s1.39-14.1,4.12-20.27c2.72-6.14,6.63-11.57,11.62-16.14,4.94-4.53,10.86-8.07,17.59-10.5,6.59-2.39,13.86-3.6,21.61-3.6,4.41,0,8.58.28,12.4.83,1.68.24,3.2.42,4.55.52-.91-1.89-1.15-4.06-.61-6.14.75-2.92,2.9-5.27,5.74-6.27l14.52-5.1c.98-.34,1.99-.51,2.98-.51,2.74,0,5.39,1.25,7.13,3.5,1.85,2.39,3.33,5.09,4.4,8.04,1.11,3.07,1.68,6.45,1.68,10.05,0,9.53-3.55,15.74-7.4,19.68,2.08,3.29,3.75,6.87,4.98,10.66,1.53,4.73,2.31,9.86,2.31,15.25,0,7.2-1.38,13.99-4.11,20.18-2.71,6.16-6.57,11.6-11.45,16.16-4.86,4.54-10.63,8.08-17.16,10.53-6.43,2.41-13.53,3.64-21.08,3.64ZM432.54,91.27c-1.29,0-2.43.21-3.48.66-1.02.43-1.88,1.03-2.65,1.83-.77.81-1.38,1.83-1.86,3.14-.53,1.44-.8,3.2-.8,5.22s.27,3.77.8,5.21c.48,1.3,1.09,2.33,1.86,3.13.77.81,1.64,1.41,2.66,1.84,1.05.44,2.19.66,3.48.66s2.43-.21,3.48-.66c1.01-.43,1.88-1.03,2.66-1.84.77-.81,1.38-1.83,1.86-3.13.53-1.44.8-3.2.8-5.22s-.27-3.77-.8-5.22c-.48-1.3-1.09-2.33-1.86-3.14-.77-.8-1.64-1.4-2.65-1.83-1.05-.44-2.19-.66-3.48-.66Z"/><path class="cls-6" d="M543.33,150.8c-2.67,0-5.2-1.18-6.91-3.23l-14.25-17.05v11.27c0,4.97-4.03,9.01-9.01,9.01h-26.08c-4.97,0-9.01-4.03-9.01-9.01V62.42c0-4.97,4.03-9.01,9.01-9.01h22c2.67,0,5.2,1.18,6.91,3.23l14.25,17.05v-11.27c0-4.97,4.03-9.01,9.01-9.01h26.08c4.97,0,9.01,4.03,9.01,9.01v79.38c0,4.97-4.03,9.01-9.01,9.01h-22Z"/><path class="cls-6" d="M619.42,152.62c-7.46,0-14.49-1.2-20.88-3.57-6.5-2.41-12.25-5.92-17.08-10.42-4.86-4.54-8.69-9.98-11.36-16.16-2.67-6.17-4.03-13.02-4.03-20.36s1.36-14.19,4.03-20.36c2.68-6.2,6.53-11.64,11.45-16.19,4.87-4.5,10.67-8,17.25-10.41,6.45-2.36,13.58-3.55,21.18-3.55,9.05,0,17.32,1.58,24.59,4.7,7.48,3.21,13.76,7.9,18.68,13.92,3.06,3.75,2.61,9.25-1.03,12.45l-9.4,8.28h1.18c4.97,0,9.01,4.03,9.01,9.01v33.57c0,3-1.49,5.8-3.98,7.47-5.61,3.77-12.05,6.69-19.15,8.68-6.97,1.95-13.85,2.94-20.46,2.94ZM621.35,91.27c-1.83,0-3.45.26-4.79.77-1.13.43-2.03,1.01-2.76,1.78-.82.86-1.45,1.9-1.93,3.18-.52,1.39-.79,3.12-.79,5.12,0,1.87.27,3.54.8,4.99.48,1.3,1.11,2.34,1.91,3.19.79.83,1.72,1.45,2.86,1.92,1.21.5,2.67.75,4.36.75.25,0,.5,0,.75-.02v-12.98c0-3.32,1.8-6.23,4.48-7.79-1.46-.6-3.06-.9-4.88-.9Z"/><path class="cls-6" d="M699.48,150.8c-4.97,0-9.01-4.03-9.01-9.01V62.42c0-4.97,4.03-9.01,9.01-9.01h38.22c8.65,0,16.35,1.48,22.9,4.41,6.98,3.13,12.49,7.72,16.39,13.66,3.91,5.97,5.9,12.99,5.9,20.87s-1.99,14.9-5.92,20.84c-3.88,5.88-9.37,10.45-16.32,13.61-6.55,2.98-14.28,4.49-22.95,4.49h-2.45v10.5c0,4.97-4.03,9.01-9.01,9.01h-26.76ZM735.99,92.65c.9,0,1.51-.08,1.88-.15,0-.04,0-.24,0-.28-.37-.08-.97-.15-1.88-.15h-.75v.59h.75Z"/><path class="cls-6" d="M834.08,150.8c-4.97,0-9.01-4.03-9.01-9.01v-20.25h-6.71v20.25c0,4.97-4.03,9.01-9.01,9.01h-26.76c-4.97,0-9.01-4.03-9.01-9.01V62.42c0-4.97,4.03-9.01,9.01-9.01h26.76c4.97,0,9.01,4.03,9.01,9.01v19.12h6.71v-19.12c0-4.97,4.03-9.01,9.01-9.01h26.76c4.97,0,9.01,4.03,9.01,9.01v79.38c0,4.97-4.03,9.01-9.01,9.01h-26.76Z"/><path class="cls-6" d="M933.19,150.8c-3.73,0-7.07-2.3-8.41-5.77l-3.1-8.06h-17.82l-3.1,8.06c-1.34,3.48-4.68,5.77-8.41,5.77h-27.22c-3.04,0-5.87-1.53-7.54-4.08-1.66-2.54-1.93-5.75-.72-8.54l34.7-79.38c.19-.42.4-.83.64-1.21-.48-2.58.19-5.29,1.91-7.38l14.97-18.14c1.71-2.07,4.26-3.27,6.95-3.27h24.38c3.81,0,7.21,2.4,8.49,5.99,1.28,3.59.15,7.6-2.81,10l-13.71,11.14c.83.8,1.52,1.77,2,2.87l34.7,79.38c1.22,2.78.95,6-.72,8.54-1.66,2.54-4.5,4.08-7.54,4.08h-27.67Z"/><path class="cls-6" d="M965.17,150.8c-4.97,0-9.01-4.03-9.01-9.01V62.42c0-4.97,4.03-9.01,9.01-9.01h38.22c8.65,0,16.35,1.48,22.9,4.41,6.98,3.13,12.49,7.72,16.39,13.66,3.91,5.97,5.9,12.99,5.9,20.87s-1.99,14.9-5.92,20.84c-3.88,5.88-9.37,10.45-16.32,13.61-6.55,2.98-14.28,4.49-22.95,4.49h-2.45v10.5c0,4.97-4.03,9.01-9.01,9.01h-26.76ZM1001.69,92.65c.9,0,1.51-.08,1.88-.15,0-.04,0-.24,0-.28-.37-.08-.97-.15-1.88-.15h-.75v.59h.75Z"/><path class="cls-6" d="M123.46,148.8c-4.97,0-9.01-4.03-9.01-9.01V60.42c0-4.97,4.03-9.01,9.01-9.01h38.22c8.65,0,16.35,1.48,22.9,4.41,6.98,3.13,12.49,7.72,16.39,13.66,3.91,5.97,5.9,12.99,5.9,20.87s-1.99,14.9-5.92,20.84c-3.88,5.87-9.37,10.45-16.32,13.61-6.55,2.98-14.28,4.49-22.95,4.49h-2.45v10.5c0,4.97-4.03,9.01-9.01,9.01h-26.76ZM159.97,90.65c.9,0,1.51-.08,1.88-.15,0-.04,0-.24,0-.28-.37-.08-.98-.15-1.88-.15h-.75v.59h.75Z"/><path class="cls-6" d="M258.06,148.8c-4.97,0-9.01-4.03-9.01-9.01v-20.25h-6.71v20.25c0,4.97-4.03,9.01-9.01,9.01h-26.76c-4.97,0-9.01-4.03-9.01-9.01V60.42c0-4.97,4.03-9.01,9.01-9.01h26.76c4.97,0,9.01,4.03,9.01,9.01v19.12h6.71v-19.12c0-4.97,4.03-9.01,9.01-9.01h26.76c4.97,0,9.01,4.03,9.01,9.01v79.38c0,4.97-4.03,9.01-9.01,9.01h-26.76Z"/><path class="cls-6" d="M335.74,150.62c-14.53,0-26.21-4.17-34.72-12.4-8.59-8.31-12.95-19.8-12.95-34.14v-43.66c0-4.97,4.03-9.01,9.01-9.01h26.76c4.97,0,9.01,4.03,9.01,9.01v42.87c0,5.5,1.09,6.97,1.1,6.99.26.3.59.68,2.03.68s1.83-.38,2.04-.63c0,0,1.09-1.5,1.09-7.04v-42.87c0-4.97,4.03-9.01,9.01-9.01h12.99c-1.11-1.99-1.43-4.35-.85-6.61.75-2.92,2.9-5.27,5.74-6.27l14.52-5.1c.98-.34,1.99-.51,2.98-.51,2.74,0,5.39,1.25,7.13,3.5,1.85,2.39,3.33,5.1,4.4,8.04,1.11,3.07,1.68,6.45,1.68,10.05,0,9.52-3.13,17.15-9.31,22.65-1.23,1.09-2.55,2.08-3.96,2.95v23.95c0,14.35-4.36,25.84-12.95,34.14-8.51,8.23-20.19,12.4-34.72,12.4Z"/><path class="cls-6" d="M430.54,150.62c-7.47,0-14.54-1.22-21-3.63-6.58-2.45-12.38-5.99-17.24-10.53-4.89-4.56-8.74-10-11.45-16.17-2.73-6.19-4.11-12.98-4.11-20.18s1.39-14.1,4.12-20.27c2.72-6.14,6.63-11.57,11.62-16.14,4.94-4.53,10.86-8.07,17.59-10.5,6.59-2.39,13.86-3.6,21.61-3.6,4.41,0,8.58.28,12.4.83,1.68.24,3.2.42,4.55.52-.91-1.89-1.15-4.06-.61-6.14.75-2.92,2.9-5.27,5.74-6.27l14.52-5.1c.98-.34,1.99-.51,2.98-.51,2.74,0,5.39,1.25,7.13,3.5,1.85,2.39,3.33,5.09,4.4,8.04,1.11,3.07,1.68,6.45,1.68,10.05,0,9.53-3.55,15.74-7.4,19.68,2.08,3.29,3.75,6.87,4.98,10.66,1.53,4.73,2.31,9.86,2.31,15.25,0,7.2-1.38,13.99-4.11,20.18-2.71,6.16-6.57,11.6-11.45,16.16-4.86,4.54-10.63,8.08-17.16,10.53-6.43,2.41-13.53,3.64-21.08,3.64ZM430.54,89.27c-1.29,0-2.43.21-3.48.66-1.02.43-1.88,1.03-2.65,1.83-.77.81-1.38,1.83-1.86,3.14-.53,1.44-.8,3.2-.8,5.22s.27,3.77.8,5.21c.48,1.3,1.09,2.33,1.86,3.13.77.81,1.64,1.41,2.66,1.84,1.05.44,2.19.66,3.48.66s2.43-.21,3.48-.66c1.01-.43,1.88-1.03,2.66-1.84.77-.81,1.38-1.83,1.86-3.13.53-1.44.8-3.2.8-5.22s-.27-3.77-.8-5.22c-.48-1.3-1.09-2.33-1.86-3.14-.77-.8-1.64-1.4-2.65-1.83-1.05-.44-2.19-.66-3.48-.66Z"/><path class="cls-6" d="M541.33,148.8c-2.67,0-5.2-1.18-6.91-3.23l-14.25-17.05v11.27c0,4.97-4.03,9.01-9.01,9.01h-26.08c-4.97,0-9.01-4.03-9.01-9.01V60.42c0-4.97,4.03-9.01,9.01-9.01h22c2.67,0,5.2,1.18,6.91,3.23l14.25,17.05v-11.27c0-4.97,4.03-9.01,9.01-9.01h26.08c4.97,0,9.01,4.03,9.01,9.01v79.38c0,4.97-4.03,9.01-9.01,9.01h-22Z"/><path class="cls-6" d="M617.42,150.62c-7.46,0-14.49-1.2-20.88-3.57-6.5-2.41-12.25-5.92-17.08-10.42-4.86-4.54-8.69-9.98-11.36-16.16-2.67-6.17-4.03-13.02-4.03-20.36s1.36-14.19,4.03-20.36c2.68-6.2,6.53-11.64,11.45-16.19,4.87-4.5,10.67-8,17.25-10.41,6.45-2.36,13.58-3.55,21.18-3.55,9.05,0,17.32,1.58,24.59,4.7,7.48,3.21,13.76,7.9,18.68,13.92,3.06,3.75,2.61,9.25-1.03,12.45l-9.4,8.28h1.18c4.97,0,9.01,4.03,9.01,9.01v33.57c0,3-1.49,5.8-3.98,7.47-5.61,3.77-12.05,6.69-19.15,8.68-6.97,1.95-13.85,2.94-20.46,2.94ZM619.35,89.27c-1.83,0-3.45.26-4.79.77-1.13.43-2.03,1.01-2.76,1.78-.82.86-1.45,1.9-1.93,3.18-.52,1.39-.79,3.12-.79,5.12,0,1.87.27,3.54.8,4.99.48,1.3,1.11,2.34,1.91,3.19.79.83,1.72,1.45,2.86,1.92,1.21.5,2.67.75,4.36.75.25,0,.5,0,.75-.02v-12.98c0-3.32,1.8-6.23,4.48-7.79-1.46-.6-3.06-.9-4.88-.9Z"/><path class="cls-6" d="M697.48,148.8c-4.97,0-9.01-4.03-9.01-9.01V60.42c0-4.97,4.03-9.01,9.01-9.01h38.22c8.65,0,16.35,1.48,22.9,4.41,6.98,3.13,12.49,7.72,16.39,13.66,3.91,5.97,5.9,12.99,5.9,20.87s-1.99,14.9-5.92,20.84c-3.88,5.88-9.37,10.45-16.32,13.61-6.55,2.98-14.28,4.49-22.95,4.49h-2.45v10.5c0,4.97-4.03,9.01-9.01,9.01h-26.76ZM733.99,90.65c.9,0,1.51-.08,1.88-.15,0-.04,0-.24,0-.28-.37-.08-.97-.15-1.88-.15h-.75v.59h.75Z"/><path class="cls-6" d="M832.08,148.8c-4.97,0-9.01-4.03-9.01-9.01v-20.25h-6.71v20.25c0,4.97-4.03,9.01-9.01,9.01h-26.76c-4.97,0-9.01-4.03-9.01-9.01V60.42c0-4.97,4.03-9.01,9.01-9.01h26.76c4.97,0,9.01,4.03,9.01,9.01v19.12h6.71v-19.12c0-4.97,4.03-9.01,9.01-9.01h26.76c4.97,0,9.01,4.03,9.01,9.01v79.38c0,4.97-4.03,9.01-9.01,9.01h-26.76Z"/><path class="cls-6" d="M931.19,148.8c-3.73,0-7.07-2.3-8.41-5.77l-3.1-8.06h-17.82l-3.1,8.06c-1.34,3.48-4.68,5.77-8.41,5.77h-27.22c-3.04,0-5.87-1.53-7.54-4.08-1.66-2.54-1.93-5.75-.72-8.54l34.7-79.38c.19-.42.4-.83.64-1.21-.48-2.58.19-5.29,1.91-7.38l14.97-18.14c1.71-2.07,4.26-3.27,6.95-3.27h24.38c3.81,0,7.21,2.4,8.49,5.99,1.28,3.59.15,7.6-2.81,10l-13.71,11.14c.83.8,1.52,1.77,2,2.87l34.7,79.38c1.22,2.78.95,6-.72,8.54-1.66,2.54-4.5,4.08-7.54,4.08h-27.67Z"/><path class="cls-6" d="M963.17,148.8c-4.97,0-9.01-4.03-9.01-9.01V60.42c0-4.97,4.03-9.01,9.01-9.01h38.22c8.65,0,16.35,1.48,22.9,4.41,6.98,3.13,12.49,7.72,16.39,13.66,3.91,5.97,5.9,12.99,5.9,20.87s-1.99,14.9-5.92,20.84c-3.88,5.88-9.37,10.45-16.32,13.61-6.55,2.98-14.28,4.49-22.95,4.49h-2.45v10.5c0,4.97-4.03,9.01-9.01,9.01h-26.76ZM999.69,90.65c.9,0,1.51-.08,1.88-.15,0-.04,0-.24,0-.28-.37-.08-.97-.15-1.88-.15h-.75v.59h.75Z"/><path class="cls-6" d="M121.46,146.8c-4.97,0-9.01-4.03-9.01-9.01V58.42c0-4.97,4.03-9.01,9.01-9.01h38.22c8.65,0,16.35,1.48,22.9,4.41,6.98,3.13,12.49,7.72,16.39,13.66,3.91,5.97,5.9,12.99,5.9,20.87s-1.99,14.9-5.92,20.84c-3.88,5.87-9.37,10.45-16.32,13.61-6.55,2.98-14.28,4.49-22.95,4.49h-2.45v10.5c0,4.97-4.03,9.01-9.01,9.01h-26.76ZM157.97,88.65c.9,0,1.51-.08,1.88-.15,0-.04,0-.24,0-.28-.37-.08-.98-.15-1.88-.15h-.75v.59h.75Z"/><path class="cls-6" d="M256.06,146.8c-4.97,0-9.01-4.03-9.01-9.01v-20.25h-6.71v20.25c0,4.97-4.03,9.01-9.01,9.01h-26.76c-4.97,0-9.01-4.03-9.01-9.01V58.42c0-4.97,4.03-9.01,9.01-9.01h26.76c4.97,0,9.01,4.03,9.01,9.01v19.12h6.71v-19.12c0-4.97,4.03-9.01,9.01-9.01h26.76c4.97,0,9.01,4.03,9.01,9.01v79.38c0,4.97-4.03,9.01-9.01,9.01h-26.76Z"/><path class="cls-6" d="M333.74,148.62c-14.53,0-26.21-4.17-34.72-12.4-8.59-8.31-12.95-19.8-12.95-34.14v-43.66c0-4.97,4.03-9.01,9.01-9.01h26.76c4.97,0,9.01,4.03,9.01,9.01v42.87c0,5.5,1.09,6.97,1.1,6.99.26.3.59.68,2.03.68s1.83-.38,2.04-.63c0,0,1.09-1.5,1.09-7.04v-42.87c0-4.97,4.03-9.01,9.01-9.01h12.99c-1.11-1.99-1.43-4.35-.85-6.61.75-2.92,2.9-5.27,5.74-6.27l14.52-5.1c.98-.34,1.99-.51,2.98-.51,2.74,0,5.39,1.25,7.13,3.5,1.85,2.39,3.33,5.1,4.4,8.04,1.11,3.07,1.68,6.45,1.68,10.05,0,9.52-3.13,17.15-9.31,22.65-1.23,1.09-2.55,2.08-3.96,2.95v23.95c0,14.35-4.36,25.84-12.95,34.14-8.51,8.23-20.19,12.4-34.72,12.4Z"/><path class="cls-6" d="M428.54,148.62c-7.47,0-14.54-1.22-21-3.63-6.58-2.45-12.38-5.99-17.24-10.53-4.89-4.56-8.74-10-11.45-16.17-2.73-6.19-4.11-12.98-4.11-20.18s1.39-14.1,4.12-20.27c2.72-6.14,6.63-11.57,11.62-16.14,4.94-4.53,10.86-8.07,17.59-10.5,6.59-2.39,13.86-3.6,21.61-3.6,4.41,0,8.58.28,12.4.83,1.68.24,3.2.42,4.55.52-.91-1.89-1.15-4.06-.61-6.14.75-2.92,2.9-5.27,5.74-6.27l14.52-5.1c.98-.34,1.99-.51,2.98-.51,2.74,0,5.39,1.25,7.13,3.5,1.85,2.39,3.33,5.09,4.4,8.04,1.11,3.07,1.68,6.45,1.68,10.05,0,9.53-3.55,15.74-7.4,19.68,2.08,3.29,3.75,6.87,4.98,10.66,1.53,4.73,2.31,9.86,2.31,15.25,0,7.2-1.38,13.99-4.11,20.18-2.71,6.16-6.57,11.6-11.45,16.16-4.86,4.54-10.63,8.08-17.16,10.53-6.43,2.41-13.53,3.64-21.08,3.64ZM428.54,87.27c-1.29,0-2.43.21-3.48.66-1.02.43-1.88,1.03-2.65,1.83-.77.81-1.38,1.83-1.86,3.14-.53,1.44-.8,3.2-.8,5.22s.27,3.77.8,5.21c.48,1.3,1.09,2.33,1.86,3.13.77.81,1.64,1.41,2.66,1.84,1.05.44,2.19.66,3.48.66s2.43-.21,3.48-.66c1.01-.43,1.88-1.03,2.66-1.84.77-.81,1.38-1.83,1.86-3.13.53-1.44.8-3.2.8-5.22s-.27-3.77-.8-5.22c-.48-1.3-1.09-2.33-1.86-3.14-.77-.8-1.64-1.4-2.65-1.83-1.05-.44-2.19-.66-3.48-.66Z"/><path class="cls-6" d="M539.33,146.8c-2.67,0-5.2-1.18-6.91-3.23l-14.25-17.05v11.27c0,4.97-4.03,9.01-9.01,9.01h-26.08c-4.97,0-9.01-4.03-9.01-9.01V58.42c0-4.97,4.03-9.01,9.01-9.01h22c2.67,0,5.2,1.18,6.91,3.23l14.25,17.05v-11.27c0-4.97,4.03-9.01,9.01-9.01h26.08c4.97,0,9.01,4.03,9.01,9.01v79.38c0,4.97-4.03,9.01-9.01,9.01h-22Z"/><path class="cls-6" d="M615.42,148.62c-7.46,0-14.49-1.2-20.88-3.57-6.5-2.41-12.25-5.92-17.08-10.42-4.86-4.54-8.69-9.98-11.36-16.16-2.67-6.17-4.03-13.02-4.03-20.36s1.36-14.19,4.03-20.36c2.68-6.2,6.53-11.64,11.45-16.19,4.87-4.5,10.67-8,17.25-10.41,6.45-2.36,13.58-3.55,21.18-3.55,9.05,0,17.32,1.58,24.59,4.7,7.48,3.21,13.76,7.9,18.68,13.92,3.06,3.75,2.61,9.25-1.03,12.45l-9.4,8.28h1.18c4.97,0,9.01,4.03,9.01,9.01v33.57c0,3-1.49,5.8-3.98,7.47-5.61,3.77-12.05,6.69-19.15,8.68-6.97,1.95-13.85,2.94-20.46,2.94ZM617.35,87.27c-1.83,0-3.45.26-4.79.77-1.13.43-2.03,1.01-2.76,1.78-.82.86-1.45,1.9-1.93,3.18-.52,1.39-.79,3.12-.79,5.12,0,1.87.27,3.54.8,4.99.48,1.3,1.11,2.34,1.91,3.19.79.83,1.72,1.45,2.86,1.92,1.21.5,2.67.75,4.36.75.25,0,.5,0,.75-.02v-12.98c0-3.32,1.8-6.23,4.48-7.79-1.46-.6-3.06-.9-4.88-.9Z"/><path class="cls-6" d="M695.48,146.8c-4.97,0-9.01-4.03-9.01-9.01V58.42c0-4.97,4.03-9.01,9.01-9.01h38.22c8.65,0,16.35,1.48,22.9,4.41,6.98,3.13,12.49,7.72,16.39,13.66,3.91,5.97,5.9,12.99,5.9,20.87s-1.99,14.9-5.92,20.84c-3.88,5.88-9.37,10.45-16.32,13.61-6.55,2.98-14.28,4.49-22.95,4.49h-2.45v10.5c0,4.97-4.03,9.01-9.01,9.01h-26.76ZM731.99,88.65c.9,0,1.51-.08,1.88-.15,0-.04,0-.24,0-.28-.37-.08-.97-.15-1.88-.15h-.75v.59h.75Z"/><path class="cls-6" d="M830.08,146.8c-4.97,0-9.01-4.03-9.01-9.01v-20.25h-6.71v20.25c0,4.97-4.03,9.01-9.01,9.01h-26.76c-4.97,0-9.01-4.03-9.01-9.01V58.42c0-4.97,4.03-9.01,9.01-9.01h26.76c4.97,0,9.01,4.03,9.01,9.01v19.12h6.71v-19.12c0-4.97,4.03-9.01,9.01-9.01h26.76c4.97,0,9.01,4.03,9.01,9.01v79.38c0,4.97-4.03,9.01-9.01,9.01h-26.76Z"/><path class="cls-6" d="M929.19,146.8c-3.73,0-7.07-2.3-8.41-5.77l-3.1-8.06h-17.82l-3.1,8.06c-1.34,3.48-4.68,5.77-8.41,5.77h-27.22c-3.04,0-5.87-1.53-7.54-4.08-1.66-2.54-1.93-5.75-.72-8.54l34.7-79.38c.19-.42.4-.83.64-1.21-.48-2.58.19-5.29,1.91-7.38l14.97-18.14c1.71-2.07,4.26-3.27,6.95-3.27h24.38c3.81,0,7.21,2.4,8.49,5.99,1.28,3.59.15,7.6-2.81,10l-13.71,11.14c.83.8,1.52,1.77,2,2.87l34.7,79.38c1.22,2.78.95,6-.72,8.54-1.66,2.54-4.5,4.08-7.54,4.08h-27.67Z"/><path class="cls-6" d="M961.17,146.8c-4.97,0-9.01-4.03-9.01-9.01V58.42c0-4.97,4.03-9.01,9.01-9.01h38.22c8.65,0,16.35,1.48,22.9,4.41,6.98,3.13,12.49,7.72,16.39,13.66,3.91,5.97,5.9,12.99,5.9,20.87s-1.99,14.9-5.92,20.84c-3.88,5.88-9.37,10.45-16.32,13.61-6.55,2.98-14.28,4.49-22.95,4.49h-2.45v10.5c0,4.97-4.03,9.01-9.01,9.01h-26.76ZM997.68,88.65c.9,0,1.51-.08,1.88-.15,0-.04,0-.24,0-.28-.37-.08-.97-.15-1.88-.15h-.75v.59h.75Z"/><path class="cls-6" d="M119.46,144.8c-4.97,0-9.01-4.03-9.01-9.01V56.41c0-4.97,4.03-9.01,9.01-9.01h38.22c8.65,0,16.35,1.48,22.9,4.41,6.98,3.13,12.49,7.72,16.39,13.66,3.91,5.97,5.9,12.99,5.9,20.87s-1.99,14.9-5.92,20.84c-3.88,5.87-9.37,10.45-16.32,13.61-6.55,2.98-14.28,4.49-22.95,4.49h-2.45v10.5c0,4.97-4.03,9.01-9.01,9.01h-26.76ZM155.97,86.65c.9,0,1.51-.08,1.88-.15,0-.04,0-.24,0-.28-.37-.08-.98-.15-1.88-.15h-.75v.59h.75Z"/><path class="cls-6" d="M254.06,144.8c-4.97,0-9.01-4.03-9.01-9.01v-20.25h-6.71v20.25c0,4.97-4.03,9.01-9.01,9.01h-26.76c-4.97,0-9.01-4.03-9.01-9.01V56.41c0-4.97,4.03-9.01,9.01-9.01h26.76c4.97,0,9.01,4.03,9.01,9.01v19.12h6.71v-19.12c0-4.97,4.03-9.01,9.01-9.01h26.76c4.97,0,9.01,4.03,9.01,9.01v79.38c0,4.97-4.03,9.01-9.01,9.01h-26.76Z"/><path class="cls-6" d="M331.74,146.61c-14.53,0-26.21-4.17-34.72-12.4-8.59-8.31-12.95-19.8-12.95-34.14v-43.66c0-4.97,4.03-9.01,9.01-9.01h26.76c4.97,0,9.01,4.03,9.01,9.01v42.87c0,5.5,1.09,6.97,1.1,6.99.26.3.59.68,2.03.68s1.83-.38,2.04-.63c0,0,1.09-1.5,1.09-7.04v-42.87c0-4.97,4.03-9.01,9.01-9.01h12.99c-1.11-1.99-1.43-4.35-.85-6.61.75-2.92,2.9-5.27,5.74-6.27l14.52-5.1c.98-.34,1.99-.51,2.98-.51,2.74,0,5.39,1.25,7.13,3.5,1.85,2.39,3.33,5.1,4.4,8.04,1.11,3.07,1.68,6.45,1.68,10.05,0,9.52-3.13,17.15-9.31,22.65-1.23,1.09-2.55,2.08-3.96,2.95v23.95c0,14.35-4.36,25.84-12.95,34.14-8.51,8.23-20.19,12.4-34.72,12.4Z"/><path class="cls-6" d="M426.54,146.61c-7.47,0-14.54-1.22-21-3.63-6.58-2.45-12.38-5.99-17.24-10.53-4.89-4.56-8.74-10-11.45-16.17-2.73-6.19-4.11-12.98-4.11-20.18s1.39-14.1,4.12-20.27c2.72-6.14,6.63-11.57,11.62-16.14,4.94-4.53,10.86-8.07,17.59-10.5,6.59-2.39,13.86-3.6,21.61-3.6,4.41,0,8.58.28,12.4.83,1.68.24,3.2.42,4.55.52-.91-1.89-1.15-4.06-.61-6.14.75-2.92,2.9-5.27,5.74-6.27l14.52-5.1c.98-.34,1.99-.51,2.98-.51,2.74,0,5.39,1.25,7.13,3.5,1.85,2.39,3.33,5.09,4.4,8.04,1.11,3.07,1.68,6.45,1.68,10.05,0,9.53-3.55,15.74-7.4,19.68,2.08,3.29,3.75,6.87,4.98,10.66,1.53,4.73,2.31,9.86,2.31,15.25,0,7.2-1.38,13.99-4.11,20.18-2.71,6.16-6.57,11.6-11.45,16.16-4.86,4.54-10.63,8.08-17.16,10.53-6.43,2.41-13.53,3.64-21.08,3.64ZM426.54,85.27c-1.29,0-2.43.21-3.48.66-1.02.43-1.88,1.03-2.65,1.83-.77.81-1.38,1.83-1.86,3.14-.53,1.44-.8,3.2-.8,5.22s.27,3.77.8,5.21c.48,1.3,1.09,2.33,1.86,3.13.77.81,1.64,1.41,2.66,1.84,1.05.44,2.19.66,3.48.66s2.43-.21,3.48-.66c1.01-.43,1.88-1.03,2.66-1.84.77-.81,1.38-1.83,1.86-3.13.53-1.44.8-3.2.8-5.22s-.27-3.77-.8-5.22c-.48-1.3-1.09-2.33-1.86-3.14-.77-.8-1.64-1.4-2.65-1.83-1.05-.44-2.19-.66-3.48-.66Z"/><path class="cls-6" d="M537.33,144.8c-2.67,0-5.2-1.18-6.91-3.23l-14.25-17.05v11.27c0,4.97-4.03,9.01-9.01,9.01h-26.08c-4.97,0-9.01-4.03-9.01-9.01V56.41c0-4.97,4.03-9.01,9.01-9.01h22c2.67,0,5.2,1.18,6.91,3.23l14.25,17.05v-11.27c0-4.97,4.03-9.01,9.01-9.01h26.08c4.97,0,9.01,4.03,9.01,9.01v79.38c0,4.97-4.03,9.01-9.01,9.01h-22Z"/><path class="cls-6" d="M613.42,146.61c-7.46,0-14.49-1.2-20.88-3.57-6.5-2.41-12.25-5.92-17.08-10.42-4.86-4.54-8.69-9.98-11.36-16.16-2.67-6.17-4.03-13.02-4.03-20.36s1.36-14.19,4.03-20.36c2.68-6.2,6.53-11.64,11.45-16.19,4.87-4.5,10.67-8,17.25-10.41,6.45-2.36,13.58-3.55,21.18-3.55,9.05,0,17.32,1.58,24.59,4.7,7.48,3.21,13.76,7.9,18.68,13.92,3.06,3.75,2.61,9.25-1.03,12.45l-9.4,8.28h1.18c4.97,0,9.01,4.03,9.01,9.01v33.57c0,3-1.49,5.8-3.98,7.47-5.61,3.77-12.05,6.69-19.15,8.68-6.97,1.95-13.85,2.94-20.46,2.94ZM615.35,85.27c-1.83,0-3.45.26-4.79.77-1.13.43-2.03,1.01-2.76,1.78-.82.86-1.45,1.9-1.93,3.18-.52,1.39-.79,3.12-.79,5.12,0,1.87.27,3.54.8,4.99.48,1.3,1.11,2.34,1.91,3.19.79.83,1.72,1.45,2.86,1.92,1.21.5,2.67.75,4.36.75.25,0,.5,0,.75-.02v-12.98c0-3.32,1.8-6.23,4.48-7.79-1.46-.6-3.06-.9-4.88-.9Z"/><path class="cls-6" d="M693.48,144.8c-4.97,0-9.01-4.03-9.01-9.01V56.41c0-4.97,4.03-9.01,9.01-9.01h38.22c8.65,0,16.35,1.48,22.9,4.41,6.98,3.13,12.49,7.72,16.39,13.66,3.91,5.97,5.9,12.99,5.9,20.87s-1.99,14.9-5.92,20.84c-3.88,5.88-9.37,10.45-16.32,13.61-6.55,2.98-14.28,4.49-22.95,4.49h-2.45v10.5c0,4.97-4.03,9.01-9.01,9.01h-26.76ZM729.99,86.65c.9,0,1.51-.08,1.88-.15,0-.04,0-.24,0-.28-.37-.08-.97-.15-1.88-.15h-.75v.59h.75Z"/><path class="cls-6" d="M828.08,144.8c-4.97,0-9.01-4.03-9.01-9.01v-20.25h-6.71v20.25c0,4.97-4.03,9.01-9.01,9.01h-26.76c-4.97,0-9.01-4.03-9.01-9.01V56.41c0-4.97,4.03-9.01,9.01-9.01h26.76c4.97,0,9.01,4.03,9.01,9.01v19.12h6.71v-19.12c0-4.97,4.03-9.01,9.01-9.01h26.76c4.97,0,9.01,4.03,9.01,9.01v79.38c0,4.97-4.03,9.01-9.01,9.01h-26.76Z"/><path class="cls-6" d="M927.19,144.8c-3.73,0-7.07-2.3-8.41-5.77l-3.1-8.06h-17.82l-3.1,8.06c-1.34,3.48-4.68,5.77-8.41,5.77h-27.22c-3.04,0-5.87-1.53-7.54-4.08-1.66-2.54-1.93-5.75-.72-8.54l34.7-79.38c.19-.42.4-.83.64-1.21-.48-2.58.19-5.29,1.91-7.38l14.97-18.14c1.71-2.07,4.26-3.27,6.95-3.27h24.38c3.81,0,7.21,2.4,8.49,5.99,1.28,3.59.15,7.6-2.81,10l-13.71,11.14c.83.8,1.52,1.77,2,2.87l34.7,79.38c1.22,2.78.95,6-.72,8.54-1.66,2.54-4.5,4.08-7.54,4.08h-27.67Z"/><path class="cls-6" d="M959.17,144.8c-4.97,0-9.01-4.03-9.01-9.01V56.41c0-4.97,4.03-9.01,9.01-9.01h38.22c8.65,0,16.35,1.48,22.9,4.41,6.98,3.13,12.49,7.72,16.39,13.66,3.91,5.97,5.9,12.99,5.9,20.87s-1.99,14.9-5.92,20.84c-3.88,5.88-9.37,10.45-16.32,13.61-6.55,2.98-14.28,4.49-22.95,4.49h-2.45v10.5c0,4.97-4.03,9.01-9.01,9.01h-26.76ZM995.68,86.65c.9,0,1.51-.08,1.88-.15,0-.04,0-.24,0-.28-.37-.08-.97-.15-1.88-.15h-.75v.59h.75Z"/><path class="cls-6" d="M117.45,142.8c-4.97,0-9.01-4.03-9.01-9.01V54.41c0-4.97,4.03-9.01,9.01-9.01h38.22c8.65,0,16.35,1.48,22.9,4.41,6.98,3.13,12.49,7.72,16.39,13.66,3.91,5.97,5.9,12.99,5.9,20.87s-1.99,14.9-5.92,20.84c-3.88,5.87-9.37,10.45-16.32,13.61-6.55,2.98-14.28,4.49-22.95,4.49h-2.45v10.5c0,4.97-4.03,9.01-9.01,9.01h-26.76ZM153.97,84.64c.9,0,1.51-.08,1.88-.15,0-.04,0-.24,0-.28-.37-.08-.98-.15-1.88-.15h-.75v.59h.75Z"/><path class="cls-6" d="M252.06,142.8c-4.97,0-9.01-4.03-9.01-9.01v-20.25h-6.71v20.25c0,4.97-4.03,9.01-9.01,9.01h-26.76c-4.97,0-9.01-4.03-9.01-9.01V54.41c0-4.97,4.03-9.01,9.01-9.01h26.76c4.97,0,9.01,4.03,9.01,9.01v19.12h6.71v-19.12c0-4.97,4.03-9.01,9.01-9.01h26.76c4.97,0,9.01,4.03,9.01,9.01v79.38c0,4.97-4.03,9.01-9.01,9.01h-26.76Z"/><path class="cls-6" d="M329.74,144.61c-14.53,0-26.21-4.17-34.72-12.4-8.59-8.31-12.95-19.8-12.95-34.14v-43.66c0-4.97,4.03-9.01,9.01-9.01h26.76c4.97,0,9.01,4.03,9.01,9.01v42.87c0,5.5,1.09,6.97,1.1,6.99.26.3.59.68,2.03.68s1.83-.38,2.04-.63c0,0,1.09-1.5,1.09-7.04v-42.87c0-4.97,4.03-9.01,9.01-9.01h12.99c-1.11-1.99-1.43-4.35-.85-6.61.75-2.92,2.9-5.27,5.74-6.27l14.52-5.1c.98-.34,1.99-.51,2.98-.51,2.74,0,5.39,1.25,7.13,3.5,1.85,2.39,3.33,5.1,4.4,8.04,1.11,3.07,1.68,6.45,1.68,10.05,0,9.52-3.13,17.15-9.31,22.65-1.23,1.09-2.55,2.08-3.96,2.95v23.95c0,14.35-4.36,25.84-12.95,34.14-8.51,8.23-20.19,12.4-34.72,12.4Z"/><path class="cls-6" d="M424.54,144.61c-7.47,0-14.54-1.22-21-3.63-6.58-2.45-12.38-5.99-17.24-10.53-4.89-4.56-8.74-10-11.45-16.17-2.73-6.19-4.11-12.98-4.11-20.18s1.39-14.1,4.12-20.27c2.72-6.14,6.63-11.57,11.62-16.14,4.94-4.53,10.86-8.07,17.59-10.5,6.59-2.39,13.86-3.6,21.61-3.6,4.41,0,8.58.28,12.4.83,1.68.24,3.2.42,4.55.52-.91-1.89-1.15-4.06-.61-6.14.75-2.92,2.9-5.27,5.74-6.27l14.52-5.1c.98-.34,1.99-.51,2.98-.51,2.74,0,5.39,1.25,7.13,3.5,1.85,2.39,3.33,5.09,4.4,8.04,1.11,3.07,1.68,6.45,1.68,10.05,0,9.53-3.55,15.74-7.4,19.68,2.08,3.29,3.75,6.87,4.98,10.66,1.53,4.73,2.31,9.86,2.31,15.25,0,7.2-1.38,13.99-4.11,20.18-2.71,6.16-6.57,11.6-11.45,16.16-4.86,4.54-10.63,8.08-17.16,10.53-6.43,2.41-13.53,3.64-21.08,3.64ZM424.54,83.26c-1.29,0-2.43.21-3.48.66-1.02.43-1.88,1.03-2.65,1.83-.77.81-1.38,1.83-1.86,3.14-.53,1.44-.8,3.2-.8,5.22s.27,3.77.8,5.21c.48,1.3,1.09,2.33,1.86,3.13.77.81,1.64,1.41,2.66,1.84,1.05.44,2.19.66,3.48.66s2.43-.21,3.48-.66c1.01-.43,1.88-1.03,2.66-1.84.77-.81,1.38-1.83,1.86-3.13.53-1.44.8-3.2.8-5.22s-.27-3.77-.8-5.22c-.48-1.3-1.09-2.33-1.86-3.14-.77-.8-1.64-1.4-2.65-1.83-1.05-.44-2.19-.66-3.48-.66Z"/><path class="cls-6" d="M535.33,142.8c-2.67,0-5.2-1.18-6.91-3.23l-14.25-17.05v11.27c0,4.97-4.03,9.01-9.01,9.01h-26.08c-4.97,0-9.01-4.03-9.01-9.01V54.41c0-4.97,4.03-9.01,9.01-9.01h22c2.67,0,5.2,1.18,6.91,3.23l14.25,17.05v-11.27c0-4.97,4.03-9.01,9.01-9.01h26.08c4.97,0,9.01,4.03,9.01,9.01v79.38c0,4.97-4.03,9.01-9.01,9.01h-22Z"/><path class="cls-6" d="M611.42,144.61c-7.46,0-14.49-1.2-20.88-3.57-6.5-2.41-12.25-5.92-17.08-10.42-4.86-4.54-8.69-9.98-11.36-16.16-2.67-6.17-4.03-13.02-4.03-20.36s1.36-14.19,4.03-20.36c2.68-6.2,6.53-11.64,11.45-16.19,4.87-4.5,10.67-8,17.25-10.41,6.45-2.36,13.58-3.55,21.18-3.55,9.05,0,17.32,1.58,24.59,4.7,7.48,3.21,13.76,7.9,18.68,13.92,3.06,3.75,2.61,9.25-1.03,12.45l-9.4,8.28h1.18c4.97,0,9.01,4.03,9.01,9.01v33.57c0,3-1.49,5.8-3.98,7.47-5.61,3.77-12.05,6.69-19.15,8.68-6.97,1.95-13.85,2.94-20.46,2.94ZM613.34,83.26c-1.83,0-3.45.26-4.79.77-1.13.43-2.03,1.01-2.76,1.78-.82.86-1.45,1.9-1.93,3.18-.52,1.39-.79,3.12-.79,5.12,0,1.87.27,3.54.8,4.99.48,1.3,1.11,2.34,1.91,3.19.79.83,1.72,1.45,2.86,1.92,1.21.5,2.67.75,4.36.75.25,0,.5,0,.75-.02v-12.98c0-3.32,1.8-6.23,4.48-7.79-1.46-.6-3.06-.9-4.88-.9Z"/><path class="cls-6" d="M691.47,142.8c-4.97,0-9.01-4.03-9.01-9.01V54.41c0-4.97,4.03-9.01,9.01-9.01h38.22c8.65,0,16.35,1.48,22.9,4.41,6.98,3.13,12.49,7.72,16.39,13.66,3.91,5.97,5.9,12.99,5.9,20.87s-1.99,14.9-5.92,20.84c-3.88,5.88-9.37,10.45-16.32,13.61-6.55,2.98-14.28,4.49-22.95,4.49h-2.45v10.5c0,4.97-4.03,9.01-9.01,9.01h-26.76ZM727.99,84.64c.9,0,1.51-.08,1.88-.15,0-.04,0-.24,0-.28-.37-.08-.97-.15-1.88-.15h-.75v.59h.75Z"/><path class="cls-6" d="M826.08,142.8c-4.97,0-9.01-4.03-9.01-9.01v-20.25h-6.71v20.25c0,4.97-4.03,9.01-9.01,9.01h-26.76c-4.97,0-9.01-4.03-9.01-9.01V54.41c0-4.97,4.03-9.01,9.01-9.01h26.76c4.97,0,9.01,4.03,9.01,9.01v19.12h6.71v-19.12c0-4.97,4.03-9.01,9.01-9.01h26.76c4.97,0,9.01,4.03,9.01,9.01v79.38c0,4.97-4.03,9.01-9.01,9.01h-26.76Z"/><path class="cls-6" d="M925.19,142.8c-3.73,0-7.07-2.3-8.41-5.77l-3.1-8.06h-17.82l-3.1,8.06c-1.34,3.48-4.68,5.77-8.41,5.77h-27.22c-3.04,0-5.87-1.53-7.54-4.08-1.66-2.54-1.93-5.75-.72-8.54l34.7-79.38c.19-.42.4-.83.64-1.21-.48-2.58.19-5.29,1.91-7.38l14.97-18.14c1.71-2.07,4.26-3.27,6.95-3.27h24.38c3.81,0,7.21,2.4,8.49,5.99,1.28,3.59.15,7.6-2.81,10l-13.71,11.14c.83.8,1.52,1.77,2,2.87l34.7,79.38c1.22,2.78.95,6-.72,8.54-1.66,2.54-4.5,4.08-7.54,4.08h-27.67Z"/><path class="cls-6" d="M957.17,142.8c-4.97,0-9.01-4.03-9.01-9.01V54.41c0-4.97,4.03-9.01,9.01-9.01h38.22c8.65,0,16.35,1.48,22.9,4.41,6.98,3.13,12.49,7.72,16.39,13.66,3.91,5.97,5.9,12.99,5.9,20.87s-1.99,14.9-5.92,20.84c-3.88,5.88-9.37,10.45-16.32,13.61-6.55,2.98-14.28,4.49-22.95,4.49h-2.45v10.5c0,4.97-4.03,9.01-9.01,9.01h-26.76ZM993.68,84.64c.9,0,1.51-.08,1.88-.15,0-.04,0-.24,0-.28-.37-.08-.97-.15-1.88-.15h-.75v.59h.75Z"/><path class="cls-9" d="M671.54,92.43c5.65-4.98,6.36-13.53,1.6-19.37-1.45-1.77-3.01-3.43-4.66-4.99-.65-.68-1.32-1.36-2-2-.65-.68-1.31-1.35-2-2-.65-.68-1.32-1.36-2-2-.65-.68-1.31-1.35-2-2-.65-.68-1.31-1.35-2-2-.65-.68-1.31-1.35-2-2-4.97-5.22-10.98-9.38-17.92-12.37-7.89-3.39-16.83-5.11-26.56-5.11-8.19,0-15.89,1.3-22.9,3.86-5.71,2.09-10.88,4.95-15.45,8.5-.45-.49-.93-.96-1.45-1.39-.6-.73-1.27-1.4-2-2-.6-.73-1.27-1.4-2-2-2.57-3.15-6.48-5.16-10.85-5.16h-26.08c-6.63,0-12.17,4.61-13.63,10.8-.5-.57-1.04-1.08-1.61-1.56l-.18-.21c-.55-.66-1.17-1.25-1.83-1.79l-.18-.21c-.55-.66-1.17-1.25-1.83-1.79l-.18-.21c-2.66-3.19-6.6-5.03-10.75-5.03h-11.58c-.46-.49-.94-.96-1.46-1.38-.61-.74-1.27-1.42-2-2-.61-.74-1.27-1.42-2-2-.61-.74-1.27-1.42-2-2-.61-.74-1.27-1.42-2-2-.61-.74-1.27-1.42-2-2-.61-.74-1.27-1.42-2-2-2.71-3.27-6.68-5.1-10.79-5.1-1.55,0-3.12.26-4.64.79l-14.52,5.1c-4.42,1.55-7.77,5.21-8.93,9.75-.14.55-.25,1.1-.32,1.65-3.51-.42-7.26-.63-11.17-.63-8.02,0-15.58,1.23-22.5,3.63-.2-.28-.39-.57-.6-.84-.68-.89-1.46-1.67-2.3-2.35-.61-.74-1.27-1.42-2-2-.61-.74-1.27-1.42-2-2-.61-.74-1.27-1.42-2-2-.61-.74-1.27-1.42-2-2-.61-.74-1.27-1.42-2-2-.61-.74-1.27-1.42-2-2-2.71-3.27-6.68-5.1-10.79-5.1-1.55,0-3.12.26-4.64.79l-14.52,5.1c-4.42,1.55-7.77,5.21-8.93,9.75-.24.94-.38,1.89-.42,2.84h-6.87c-5.02,0-9.41,2.64-11.89,6.61-.47-.52-.98-1.01-1.53-1.45-2.57-3.14-6.47-5.16-10.85-5.16h-26.76c-2.2,0-4.27.52-6.12,1.42-1.85-.9-3.92-1.42-6.12-1.42h-26.76c-5.15,0-9.64,2.78-12.07,6.91-.55-.64-1.15-1.23-1.8-1.76-2.57-3.14-6.47-5.15-10.85-5.15h-26.76c-5.87,0-10.89,3.62-12.98,8.74-2.17-1.46-4.49-2.77-6.99-3.89-7.19-3.22-15.59-4.85-24.94-4.85h-38.22c-7.74,0-14.01,6.27-14.01,14.01v79.38c0,4.38,2.01,8.28,5.16,10.85.6.73,1.27,1.4,2,2,.6.73,1.27,1.4,2,2,.6.73,1.27,1.4,2,2,.6.73,1.27,1.4,2,2,.6.73,1.27,1.4,2,2,.6.73,1.27,1.4,2,2,2.57,3.15,6.48,5.16,10.85,5.16h26.76c7.74,0,14.01-6.27,14.01-14.01v-5.54c5.63-.19,10.88-1.01,15.72-2.42.9,1.87,2.18,3.51,3.77,4.81.6.73,1.27,1.4,2,2,.6.73,1.27,1.4,2,2,.6.73,1.27,1.4,2,2,.6.73,1.27,1.4,2,2,.6.73,1.27,1.4,2,2,.6.73,1.27,1.4,2,2,2.57,3.15,6.48,5.16,10.85,5.16h26.76c5.15,0,9.64-2.78,12.07-6.91.55.64,1.15,1.23,1.8,1.76,2.57,3.14,6.47,5.15,10.85,5.15h26.76c6.73,0,12.35-4.75,13.7-11.09,9.37,8.55,21.88,12.9,37.22,12.9s28.73-4.64,38.2-13.8c2.88-2.78,5.33-5.88,7.35-9.27.42.43.85.85,1.28,1.26.65.68,1.32,1.35,2,2,.65.68,1.31,1.35,2,2,.75.79,1.51,1.56,2.31,2.3,5.35,4.99,11.71,8.88,18.9,11.57,7.02,2.62,14.68,3.94,22.75,3.94s15.84-1.33,22.84-3.95c5.63-2.11,10.74-4.98,15.28-8.54.49.54,1.01,1.06,1.57,1.52.6.73,1.27,1.4,2,2,.6.73,1.27,1.4,2,2,2.57,3.15,6.48,5.16,10.85,5.16h26.08c6.63,0,12.17-4.61,13.63-10.8.5.57,1.04,1.08,1.61,1.56l.18.21c.55.66,1.17,1.25,1.83,1.79l.18.21c.55.66,1.17,1.25,1.83,1.79l.18.21c2.66,3.19,6.6,5.03,10.75,5.03h22c7.21,0,13.15-5.45,13.92-12.46,5.06,4.45,10.95,7.95,17.56,10.4,6.95,2.57,14.55,3.88,22.61,3.88,7.07,0,14.41-1.05,21.81-3.13,7.61-2.13,14.54-5.28,20.59-9.35,3.87-2.6,6.19-6.96,6.19-11.63v-33.57c0-4.36-2-8.24-5.12-10.81-.06-.08-.13-.15-.2-.22l2.83-2.5Z"/><path class="cls-9" d="M1052.86,74.74c-1.81-2.75-3.93-5.24-6.32-7.47-.64-.69-1.31-1.36-2-2-.64-.69-1.31-1.36-2-2-.64-.69-1.31-1.36-2-2-.64-.69-1.31-1.36-2-2-.64-.69-1.31-1.36-2-2-.64-.69-1.31-1.36-2-2-3.87-4.15-8.62-7.51-14.2-10.01-7.2-3.22-15.59-4.85-24.94-4.85h-35.35c-.11-.43-.23-.85-.38-1.28-.88-2.48-2.42-4.6-4.37-6.18-.6-.73-1.27-1.41-2-2-.6-.73-1.27-1.41-2-2-.6-.73-1.27-1.41-2-2-.6-.73-1.27-1.41-2-2-.6-.73-1.27-1.41-2-2-.6-.73-1.27-1.41-2-2-2.61-3.19-6.55-5.14-10.83-5.14h-24.38c-4.18,0-8.14,1.87-10.81,5.09l-14.97,18.14c-2.25,2.73-3.35,6.16-3.19,9.57,0,.01-1.45,3.32-3.75,8.57-.51-.58-1.06-1.12-1.65-1.61-.6-.73-1.27-1.4-2-2-.6-.73-1.27-1.4-2-2-.6-.73-1.27-1.4-2-2-.6-.73-1.27-1.4-2-2-.6-.73-1.27-1.4-2-2-2.57-3.15-6.48-5.16-10.85-5.16h-26.76c-5.15,0-9.64,2.78-12.07,6.91-.55-.64-1.15-1.23-1.8-1.76-2.57-3.14-6.47-5.15-10.85-5.15h-26.76c-5.87,0-10.89,3.62-12.98,8.74-2.17-1.46-4.49-2.77-6.99-3.89-7.2-3.22-15.59-4.85-24.94-4.85h-38.22c-7.74,0-14.01,6.27-14.01,14.01v79.38c0,4.38,2.01,8.29,5.16,10.85.6.73,1.27,1.4,2,2,.6.73,1.27,1.4,2,2,.6.73,1.27,1.4,2,2,.6.73,1.27,1.4,2,2,.6.73,1.27,1.4,2,2,.6.73,1.27,1.4,2,2,2.57,3.15,6.48,5.16,10.85,5.16h26.76c7.74,0,14.01-6.27,14.01-14.01v-5.54c5.63-.19,10.89-1.01,15.72-2.42.9,1.87,2.18,3.51,3.77,4.81.6.73,1.27,1.4,2,2,.6.73,1.27,1.4,2,2,.6.73,1.27,1.4,2,2,.6.73,1.27,1.4,2,2,.6.73,1.27,1.4,2,2,.6.73,1.27,1.4,2,2,2.57,3.15,6.48,5.16,10.85,5.16h26.76c5.15,0,9.64-2.78,12.07-6.91.55.64,1.15,1.23,1.8,1.76,2.57,3.14,6.47,5.15,10.85,5.15h26.76c.74,0,1.46-.07,2.16-.18.71.11,1.42.18,2.14.18h27.22c5.8,0,11-3.57,13.08-8.98l1.87-4.85h6.26c.25.24.51.46.77.68.6.74,1.27,1.41,2,2,.6.74,1.27,1.41,2,2,.6.74,1.27,1.41,2,2,.6.74,1.27,1.41,2,2,2.61,3.2,6.56,5.15,10.85,5.15h27.67c.73,0,1.44-.07,2.14-.18.71.11,1.43.18,2.16.18h26.76c7.74,0,14.01-6.27,14.01-14.01v-5.54c8.37-.28,15.91-1.92,22.46-4.9,7.82-3.55,14.01-8.73,18.42-15.41,4.48-6.77,6.74-14.71,6.74-23.6s-2.26-16.81-6.72-23.62Z"/><path class="cls-4" d="M123.46,145.8c-3.32,0-6-2.69-6-6V60.42c0-3.32,2.69-6,6-6h38.22c8.22,0,15.51,1.4,21.67,4.15,6.45,2.89,11.53,7.12,15.1,12.56,3.59,5.47,5.41,11.94,5.41,19.22s-1.82,13.75-5.42,19.19c-3.57,5.4-8.63,9.61-15.06,12.53-6.16,2.8-13.47,4.22-21.7,4.22h-5.45v13.5c0,3.32-2.69,6-6,6h-26.76ZM159.97,93.65c2.35,0,3.67-.45,4.12-.87.23-.21.76-.72.76-2.42s-.54-2.21-.77-2.42c-.45-.42-1.77-.87-4.12-.87h-3.75v6.59h3.75Z"/><path class="cls-4" d="M258.06,145.8c-3.32,0-6-2.69-6-6v-23.25h-12.71v23.25c0,3.32-2.69,6-6,6h-26.76c-3.32,0-6-2.69-6-6V60.42c0-3.32,2.69-6,6-6h26.76c3.32,0,6,2.69,6,6v22.12h12.71v-22.12c0-3.32,2.69-6,6-6h26.76c3.32,0,6,2.69,6,6v79.38c0,3.32-2.69,6-6,6h-26.76Z"/><path class="cls-4" d="M335.74,147.62c-13.73,0-24.71-3.89-32.64-11.55-7.99-7.72-12.04-18.48-12.04-31.99v-43.66c0-3.32,2.69-6,6-6h26.76c3.32,0,6,2.69,6,6v42.87c0,6.17,1.27,8.31,1.82,8.94.74.85,1.83,1.73,4.31,1.73s3.66-.9,4.33-1.68c.54-.64,1.8-2.79,1.8-8.98v-42.87c0-3.32,2.69-6,6-6h16.82s.11-.08.21-.18c.03-.05.11-.28.11-.74,0-.58-.08-1.09-.26-1.57-.19-.53-.38-.78-.47-.88-1.34-1.49-1.85-3.56-1.35-5.5.5-1.94,1.93-3.51,3.83-4.18l14.52-5.1c.65-.23,1.33-.34,1.99-.34,1.82,0,3.59.83,4.75,2.33,1.66,2.15,2.99,4.58,3.95,7.23.99,2.74,1.5,5.77,1.5,9.03,0,8.63-2.79,15.5-8.3,20.41-1.5,1.33-3.16,2.49-4.97,3.46v25.69c0,13.5-4.05,24.26-12.04,31.99-7.93,7.67-18.91,11.55-32.64,11.55Z"/><path class="cls-4" d="M430.54,147.62c-7.11,0-13.83-1.16-19.96-3.44-6.2-2.31-11.67-5.65-16.23-9.91-4.59-4.28-8.21-9.39-10.75-15.18-2.56-5.8-3.85-12.19-3.85-18.97s1.3-13.27,3.86-19.05c2.56-5.76,6.22-10.86,10.9-15.15,4.65-4.26,10.23-7.59,16.58-9.89,6.26-2.27,13.19-3.42,20.59-3.42,4.26,0,8.29.27,11.97.8,3.1.45,5.71.68,7.76.68.69,0,1.25-.1,1.58-.27,0-.07.02-.17.02-.3,0-.58-.08-1.09-.26-1.57-.19-.53-.38-.78-.47-.88-1.34-1.49-1.85-3.56-1.35-5.5.5-1.94,1.93-3.51,3.83-4.18l14.52-5.1c.65-.23,1.33-.34,1.99-.34,1.82,0,3.59.83,4.75,2.33,1.66,2.15,2.99,4.58,3.95,7.23.99,2.74,1.5,5.77,1.5,9.03,0,10.03-4.32,15.92-8.33,19.22,2.61,3.63,4.64,7.68,6.06,12.05,1.44,4.43,2.16,9.25,2.16,14.32,0,6.78-1.3,13.17-3.85,18.97-2.55,5.79-6.17,10.9-10.75,15.18-4.57,4.27-10.01,7.6-16.16,9.91-6.1,2.29-12.83,3.44-20.03,3.44ZM430.54,86.27c-1.7,0-3.22.29-4.64.89-1.4.59-2.6,1.42-3.66,2.53-1.06,1.11-1.88,2.47-2.51,4.17-.66,1.78-.99,3.88-.99,6.26s.33,4.48.99,6.25c.63,1.7,1.45,3.06,2.51,4.17,1.06,1.11,2.26,1.94,3.66,2.53,1.42.6,2.94.89,4.64.89s3.22-.29,4.64-.89c1.4-.59,2.6-1.42,3.66-2.53,1.06-1.11,1.88-2.47,2.51-4.17.66-1.78.99-3.88.99-6.26s-.33-4.48-.99-6.26c-.63-1.69-1.45-3.06-2.51-4.17-1.06-1.11-2.26-1.94-3.66-2.52-1.42-.6-2.94-.89-4.64-.89Z"/><path class="cls-4" d="M541.33,145.8c-1.78,0-3.47-.79-4.61-2.15l-19.55-23.4v19.55c0,3.32-2.69,6-6,6h-26.08c-3.32,0-6-2.69-6-6V60.42c0-3.32,2.69-6,6-6h22c1.78,0,3.47.79,4.61,2.15l19.55,23.4v-19.55c0-3.32,2.69-6,6-6h26.08c3.32,0,6,2.69,6,6v79.38c0,3.32-2.69,6-6,6h-22Z"/><path class="cls-4" d="M617.42,147.62c-7.11,0-13.78-1.14-19.83-3.38-6.13-2.27-11.54-5.57-16.07-9.8-4.56-4.25-8.14-9.35-10.66-15.16-2.51-5.79-3.78-12.24-3.78-19.17s1.27-13.37,3.78-19.17c2.51-5.81,6.13-10.92,10.73-15.18,4.58-4.23,10.04-7.52,16.25-9.79,6.12-2.24,12.9-3.37,20.15-3.37,8.64,0,16.52,1.5,23.4,4.46,7.03,3.02,12.93,7.42,17.54,13.06,2.04,2.5,1.74,6.17-.68,8.3l-15.36,13.53h9.13c3.32,0,6,2.69,6,6v33.57c0,2-1,3.87-2.66,4.98-5.34,3.59-11.5,6.38-18.28,8.28-6.7,1.88-13.31,2.83-19.65,2.83ZM619.35,86.27c-2.2,0-4.17.33-5.86.97-1.55.59-2.82,1.41-3.86,2.51-1.11,1.16-1.95,2.53-2.57,4.2-.65,1.73-.98,3.81-.98,6.17,0,2.22.33,4.25.99,6.03.63,1.7,1.46,3.08,2.56,4.22,1.09,1.14,2.36,1.99,3.89,2.62,1.57.64,3.42.97,5.49.97,1.26,0,2.51-.12,3.75-.35v-15.65c0-3.32,2.69-6,6-6h2.96c-1.71-1.79-3.52-3.17-5.39-4.12-2.08-1.05-4.36-1.56-6.98-1.56Z"/><path class="cls-4" d="M697.48,145.8c-3.32,0-6-2.69-6-6V60.42c0-3.32,2.69-6,6-6h38.22c8.22,0,15.51,1.4,21.67,4.15,6.45,2.89,11.53,7.12,15.1,12.56,3.59,5.47,5.41,11.94,5.41,19.23s-1.82,13.75-5.42,19.19c-3.57,5.4-8.63,9.61-15.06,12.53-6.16,2.8-13.47,4.22-21.7,4.22h-5.45v13.5c0,3.32-2.69,6-6,6h-26.76ZM733.99,93.65c2.35,0,3.67-.45,4.12-.87.23-.21.76-.71.76-2.42s-.54-2.21-.77-2.42c-.45-.42-1.77-.87-4.12-.87h-3.75v6.59h3.75Z"/><path class="cls-4" d="M832.08,145.8c-3.32,0-6-2.69-6-6v-23.25h-12.71v23.25c0,3.32-2.69,6-6,6h-26.76c-3.32,0-6-2.69-6-6V60.42c0-3.32,2.69-6,6-6h26.76c3.32,0,6,2.69,6,6v22.12h12.71v-22.12c0-3.32,2.69-6,6-6h26.76c3.32,0,6,2.69,6,6v79.38c0,3.32-2.69,6-6,6h-26.76Z"/><path class="cls-4" d="M931.19,145.8c-2.48,0-4.71-1.53-5.6-3.85l-3.84-9.98h-21.94l-3.84,9.98c-.89,2.32-3.12,3.85-5.6,3.85h-27.22c-2.03,0-3.92-1.02-5.02-2.72s-1.29-3.84-.48-5.69l34.7-79.38c.29-.67.7-1.27,1.19-1.78-.84-2.04-.49-4.39.92-6.1l14.97-18.14c1.14-1.38,2.84-2.18,4.63-2.18h24.38c2.54,0,4.81,1.6,5.66,4,.85,2.4.1,5.07-1.87,6.67l-17.24,14c2.04.29,3.82,1.61,4.67,3.54l34.7,79.38c.81,1.86.63,4-.48,5.69s-3,2.72-5.02,2.72h-27.67Z"/><path class="cls-4" d="M963.17,145.8c-3.32,0-6-2.69-6-6V60.42c0-3.32,2.69-6,6-6h38.22c8.22,0,15.51,1.4,21.67,4.15,6.45,2.89,11.53,7.12,15.1,12.56,3.59,5.47,5.41,11.94,5.41,19.23s-1.82,13.75-5.42,19.19c-3.57,5.4-8.63,9.61-15.06,12.53-6.16,2.8-13.47,4.22-21.7,4.22h-5.45v13.5c0,3.32-2.69,6-6,6h-26.76ZM999.69,93.65c2.35,0,3.67-.45,4.12-.87.23-.21.76-.71.76-2.42s-.54-2.21-.77-2.42c-.45-.42-1.77-.87-4.12-.87h-3.75v6.59h3.75Z"/><path class="cls-4" d="M121.46,143.8c-3.32,0-6-2.69-6-6V58.42c0-3.32,2.69-6,6-6h38.22c8.22,0,15.51,1.4,21.67,4.15,6.45,2.89,11.53,7.12,15.1,12.56,3.59,5.47,5.41,11.94,5.41,19.22s-1.82,13.75-5.42,19.19c-3.57,5.4-8.63,9.61-15.06,12.53-6.16,2.8-13.47,4.22-21.7,4.22h-5.45v13.5c0,3.32-2.69,6-6,6h-26.76ZM157.97,91.65c2.35,0,3.67-.45,4.12-.87.23-.21.76-.72.76-2.42s-.54-2.21-.77-2.42c-.45-.42-1.77-.87-4.12-.87h-3.75v6.59h3.75Z"/><path class="cls-4" d="M256.06,143.8c-3.32,0-6-2.69-6-6v-23.25h-12.71v23.25c0,3.32-2.69,6-6,6h-26.76c-3.32,0-6-2.69-6-6V58.42c0-3.32,2.69-6,6-6h26.76c3.32,0,6,2.69,6,6v22.12h12.71v-22.12c0-3.32,2.69-6,6-6h26.76c3.32,0,6,2.69,6,6v79.38c0,3.32-2.69,6-6,6h-26.76Z"/><path class="cls-4" d="M333.74,145.61c-13.73,0-24.71-3.89-32.64-11.55-7.99-7.72-12.04-18.48-12.04-31.99v-43.66c0-3.32,2.69-6,6-6h26.76c3.32,0,6,2.69,6,6v42.87c0,6.17,1.27,8.31,1.82,8.94.74.85,1.83,1.73,4.31,1.73s3.66-.9,4.33-1.68c.54-.64,1.8-2.79,1.8-8.98v-42.87c0-3.32,2.69-6,6-6h16.82s.11-.08.21-.18c.03-.05.11-.28.11-.74,0-.58-.08-1.09-.26-1.57-.19-.53-.38-.78-.47-.88-1.34-1.49-1.85-3.56-1.35-5.5.5-1.94,1.93-3.51,3.83-4.18l14.52-5.1c.65-.23,1.33-.34,1.99-.34,1.82,0,3.59.83,4.75,2.33,1.66,2.15,2.99,4.58,3.95,7.23.99,2.74,1.5,5.77,1.5,9.03,0,8.63-2.79,15.5-8.3,20.41-1.5,1.33-3.16,2.49-4.97,3.46v25.69c0,13.5-4.05,24.26-12.04,31.99-7.93,7.67-18.91,11.55-32.64,11.55Z"/><path class="cls-4" d="M428.54,145.61c-7.11,0-13.83-1.16-19.96-3.44-6.2-2.31-11.67-5.65-16.23-9.91-4.59-4.28-8.21-9.39-10.75-15.18-2.56-5.8-3.85-12.19-3.85-18.97s1.3-13.27,3.86-19.05c2.56-5.76,6.22-10.86,10.9-15.15,4.65-4.26,10.23-7.59,16.58-9.89,6.26-2.27,13.19-3.42,20.59-3.42,4.26,0,8.29.27,11.97.8,3.1.45,5.71.68,7.76.68.69,0,1.25-.1,1.58-.27,0-.07.02-.17.02-.3,0-.58-.08-1.09-.26-1.57-.19-.53-.38-.78-.47-.88-1.34-1.49-1.85-3.56-1.35-5.5.5-1.94,1.93-3.51,3.83-4.18l14.52-5.1c.65-.23,1.33-.34,1.99-.34,1.82,0,3.59.83,4.75,2.33,1.66,2.15,2.99,4.58,3.95,7.23.99,2.74,1.5,5.77,1.5,9.03,0,10.03-4.32,15.92-8.33,19.22,2.61,3.63,4.64,7.68,6.06,12.05,1.44,4.43,2.16,9.25,2.16,14.32,0,6.78-1.3,13.17-3.85,18.97-2.55,5.79-6.17,10.9-10.75,15.18-4.57,4.27-10.01,7.6-16.16,9.91-6.1,2.29-12.83,3.44-20.03,3.44ZM428.54,84.26c-1.7,0-3.22.29-4.64.89-1.4.59-2.6,1.42-3.66,2.53-1.06,1.11-1.88,2.47-2.51,4.17-.66,1.78-.99,3.88-.99,6.26s.33,4.48.99,6.25c.63,1.7,1.45,3.06,2.51,4.17,1.06,1.11,2.26,1.94,3.66,2.53,1.42.6,2.94.89,4.64.89s3.22-.29,4.64-.89c1.4-.59,2.6-1.42,3.66-2.53,1.06-1.11,1.88-2.47,2.51-4.17.66-1.78.99-3.88.99-6.26s-.33-4.48-.99-6.26c-.63-1.69-1.45-3.06-2.51-4.17-1.06-1.11-2.26-1.94-3.66-2.52-1.42-.6-2.94-.89-4.64-.89Z"/><path class="cls-4" d="M539.33,143.8c-1.78,0-3.47-.79-4.61-2.15l-19.55-23.4v19.55c0,3.32-2.69,6-6,6h-26.08c-3.32,0-6-2.69-6-6V58.42c0-3.32,2.69-6,6-6h22c1.78,0,3.47.79,4.61,2.15l19.55,23.4v-19.55c0-3.32,2.69-6,6-6h26.08c3.32,0,6,2.69,6,6v79.38c0,3.32-2.69,6-6,6h-22Z"/><path class="cls-4" d="M615.42,145.61c-7.11,0-13.78-1.14-19.83-3.38-6.13-2.27-11.54-5.57-16.07-9.8-4.56-4.25-8.14-9.35-10.66-15.16-2.51-5.79-3.78-12.24-3.78-19.17s1.27-13.37,3.78-19.17c2.51-5.81,6.13-10.92,10.73-15.18,4.58-4.23,10.04-7.52,16.25-9.79,6.12-2.24,12.9-3.37,20.15-3.37,8.64,0,16.52,1.5,23.4,4.46,7.03,3.02,12.93,7.42,17.54,13.06,2.04,2.5,1.74,6.17-.68,8.3l-15.36,13.53h9.13c3.32,0,6,2.69,6,6v33.57c0,2-1,3.87-2.66,4.98-5.34,3.59-11.5,6.38-18.28,8.28-6.7,1.88-13.31,2.83-19.65,2.83ZM617.35,84.26c-2.2,0-4.17.33-5.86.97-1.55.59-2.82,1.41-3.86,2.51-1.11,1.16-1.95,2.53-2.57,4.2-.65,1.73-.98,3.81-.98,6.17,0,2.22.33,4.25.99,6.03.63,1.7,1.46,3.08,2.56,4.22,1.09,1.14,2.36,1.99,3.89,2.62,1.57.64,3.42.97,5.49.97,1.26,0,2.51-.12,3.75-.35v-15.65c0-3.32,2.69-6,6-6h2.96c-1.71-1.79-3.52-3.17-5.39-4.12-2.08-1.05-4.36-1.56-6.98-1.56Z"/><path class="cls-4" d="M695.48,143.8c-3.32,0-6-2.69-6-6V58.42c0-3.32,2.69-6,6-6h38.22c8.22,0,15.51,1.4,21.67,4.15,6.45,2.89,11.53,7.12,15.1,12.56,3.59,5.47,5.41,11.94,5.41,19.23s-1.82,13.75-5.42,19.19c-3.57,5.4-8.63,9.61-15.06,12.53-6.16,2.8-13.47,4.22-21.7,4.22h-5.45v13.5c0,3.32-2.69,6-6,6h-26.76ZM731.99,91.65c2.35,0,3.67-.45,4.12-.87.23-.21.76-.71.76-2.42s-.54-2.21-.77-2.42c-.45-.42-1.77-.87-4.12-.87h-3.75v6.59h3.75Z"/><path class="cls-4" d="M830.08,143.8c-3.32,0-6-2.69-6-6v-23.25h-12.71v23.25c0,3.32-2.69,6-6,6h-26.76c-3.32,0-6-2.69-6-6V58.42c0-3.32,2.69-6,6-6h26.76c3.32,0,6,2.69,6,6v22.12h12.71v-22.12c0-3.32,2.69-6,6-6h26.76c3.32,0,6,2.69,6,6v79.38c0,3.32-2.69,6-6,6h-26.76Z"/><path class="cls-4" d="M929.19,143.8c-2.48,0-4.71-1.53-5.6-3.85l-3.84-9.98h-21.94l-3.84,9.98c-.89,2.32-3.12,3.85-5.6,3.85h-27.22c-2.03,0-3.92-1.02-5.02-2.72s-1.29-3.84-.48-5.69l34.7-79.38c.29-.67.7-1.27,1.19-1.78-.84-2.04-.49-4.39.92-6.1l14.97-18.14c1.14-1.38,2.84-2.18,4.63-2.18h24.38c2.54,0,4.81,1.6,5.66,4,.85,2.4.1,5.07-1.87,6.67l-17.24,14c2.04.29,3.82,1.61,4.67,3.54l34.7,79.38c.81,1.86.63,4-.48,5.69s-3,2.72-5.02,2.72h-27.67Z"/><path class="cls-4" d="M961.17,143.8c-3.32,0-6-2.69-6-6V58.42c0-3.32,2.69-6,6-6h38.22c8.22,0,15.51,1.4,21.67,4.15,6.45,2.89,11.53,7.12,15.1,12.56,3.59,5.47,5.41,11.94,5.41,19.23s-1.82,13.75-5.42,19.19c-3.57,5.4-8.63,9.61-15.06,12.53-6.16,2.8-13.47,4.22-21.7,4.22h-5.45v13.5c0,3.32-2.69,6-6,6h-26.76ZM997.68,91.65c2.35,0,3.67-.45,4.12-.87.23-.21.76-.71.76-2.42s-.54-2.21-.77-2.42c-.45-.42-1.77-.87-4.12-.87h-3.75v6.59h3.75Z"/><path class="cls-4" d="M119.46,141.8c-3.32,0-6-2.69-6-6V56.41c0-3.32,2.69-6,6-6h38.22c8.22,0,15.51,1.4,21.67,4.15,6.45,2.89,11.53,7.12,15.1,12.56,3.59,5.47,5.41,11.94,5.41,19.22s-1.82,13.75-5.42,19.19c-3.57,5.4-8.63,9.61-15.06,12.53-6.16,2.8-13.47,4.22-21.7,4.22h-5.45v13.5c0,3.32-2.69,6-6,6h-26.76ZM155.97,89.65c2.35,0,3.67-.45,4.12-.87.23-.21.76-.72.76-2.42s-.54-2.21-.77-2.42c-.45-.42-1.77-.87-4.12-.87h-3.75v6.59h3.75Z"/><path class="cls-4" d="M254.06,141.8c-3.32,0-6-2.69-6-6v-23.25h-12.71v23.25c0,3.32-2.69,6-6,6h-26.76c-3.32,0-6-2.69-6-6V56.41c0-3.32,2.69-6,6-6h26.76c3.32,0,6,2.69,6,6v22.12h12.71v-22.12c0-3.32,2.69-6,6-6h26.76c3.32,0,6,2.69,6,6v79.38c0,3.32-2.69,6-6,6h-26.76Z"/><path class="cls-4" d="M331.74,143.61c-13.73,0-24.71-3.89-32.64-11.55-7.99-7.72-12.04-18.48-12.04-31.99v-43.66c0-3.32,2.69-6,6-6h26.76c3.32,0,6,2.69,6,6v42.87c0,6.17,1.27,8.31,1.82,8.94.74.85,1.83,1.73,4.31,1.73s3.66-.9,4.33-1.68c.54-.64,1.8-2.79,1.8-8.98v-42.87c0-3.32,2.69-6,6-6h16.82s.11-.08.21-.18c.03-.05.11-.28.11-.74,0-.58-.08-1.09-.26-1.57-.19-.53-.38-.78-.47-.88-1.34-1.49-1.85-3.56-1.35-5.5.5-1.94,1.93-3.51,3.83-4.18l14.52-5.1c.65-.23,1.33-.34,1.99-.34,1.82,0,3.59.83,4.75,2.33,1.66,2.15,2.99,4.58,3.95,7.23.99,2.74,1.5,5.77,1.5,9.03,0,8.63-2.79,15.5-8.3,20.41-1.5,1.33-3.16,2.49-4.97,3.46v25.69c0,13.5-4.05,24.26-12.04,31.99-7.93,7.67-18.91,11.55-32.64,11.55Z"/><path class="cls-4" d="M426.54,143.61c-7.11,0-13.83-1.16-19.96-3.44-6.2-2.31-11.67-5.65-16.23-9.91-4.59-4.28-8.21-9.39-10.75-15.18-2.56-5.8-3.85-12.19-3.85-18.97s1.3-13.27,3.86-19.05c2.56-5.76,6.22-10.86,10.9-15.15,4.65-4.26,10.23-7.59,16.58-9.89,6.26-2.27,13.19-3.42,20.59-3.42,4.26,0,8.29.27,11.97.8,3.1.45,5.71.68,7.76.68.69,0,1.25-.1,1.58-.27,0-.07.02-.17.02-.3,0-.58-.08-1.09-.26-1.57-.19-.53-.38-.78-.47-.88-1.34-1.49-1.85-3.56-1.35-5.5.5-1.94,1.93-3.51,3.83-4.18l14.52-5.1c.65-.23,1.33-.34,1.99-.34,1.82,0,3.59.83,4.75,2.33,1.66,2.15,2.99,4.58,3.95,7.23.99,2.74,1.5,5.77,1.5,9.03,0,10.03-4.32,15.92-8.33,19.22,2.61,3.63,4.64,7.68,6.06,12.05,1.44,4.43,2.16,9.25,2.16,14.32,0,6.78-1.3,13.17-3.85,18.97-2.55,5.79-6.17,10.9-10.75,15.18-4.57,4.27-10.01,7.6-16.16,9.91-6.1,2.29-12.83,3.44-20.03,3.44ZM426.54,82.26c-1.7,0-3.22.29-4.64.89-1.4.59-2.6,1.42-3.66,2.53-1.06,1.11-1.88,2.47-2.51,4.17-.66,1.78-.99,3.88-.99,6.26s.33,4.48.99,6.25c.63,1.7,1.45,3.06,2.51,4.17,1.06,1.11,2.26,1.94,3.66,2.53,1.42.6,2.94.89,4.64.89s3.22-.29,4.64-.89c1.4-.59,2.6-1.42,3.66-2.53,1.06-1.11,1.88-2.47,2.51-4.17.66-1.78.99-3.88.99-6.26s-.33-4.48-.99-6.26c-.63-1.69-1.45-3.06-2.51-4.17-1.06-1.11-2.26-1.94-3.66-2.52-1.42-.6-2.94-.89-4.64-.89Z"/><path class="cls-4" d="M537.33,141.8c-1.78,0-3.47-.79-4.61-2.15l-19.55-23.4v19.55c0,3.32-2.69,6-6,6h-26.08c-3.32,0-6-2.69-6-6V56.41c0-3.32,2.69-6,6-6h22c1.78,0,3.47.79,4.61,2.15l19.55,23.4v-19.55c0-3.32,2.69-6,6-6h26.08c3.32,0,6,2.69,6,6v79.38c0,3.32-2.69,6-6,6h-22Z"/><path class="cls-4" d="M613.42,143.61c-7.11,0-13.78-1.14-19.83-3.38-6.13-2.27-11.54-5.57-16.07-9.8-4.56-4.25-8.14-9.35-10.66-15.16-2.51-5.79-3.78-12.24-3.78-19.17s1.27-13.37,3.78-19.17c2.51-5.81,6.13-10.92,10.73-15.18,4.58-4.23,10.04-7.52,16.25-9.79,6.12-2.24,12.9-3.37,20.15-3.37,8.64,0,16.52,1.5,23.4,4.46,7.03,3.02,12.93,7.42,17.54,13.06,2.04,2.5,1.74,6.17-.68,8.3l-15.36,13.53h9.13c3.32,0,6,2.69,6,6v33.57c0,2-1,3.87-2.66,4.98-5.34,3.59-11.5,6.38-18.28,8.28-6.7,1.88-13.31,2.83-19.65,2.83ZM615.35,82.26c-2.2,0-4.17.33-5.86.97-1.55.59-2.82,1.41-3.86,2.51-1.11,1.16-1.95,2.53-2.57,4.2-.65,1.73-.98,3.81-.98,6.17,0,2.22.33,4.25.99,6.03.63,1.7,1.46,3.08,2.56,4.22,1.09,1.14,2.36,1.99,3.89,2.62,1.57.64,3.42.97,5.49.97,1.26,0,2.51-.12,3.75-.35v-15.65c0-3.32,2.69-6,6-6h2.96c-1.71-1.79-3.52-3.17-5.39-4.12-2.08-1.05-4.36-1.56-6.98-1.56Z"/><path class="cls-4" d="M693.48,141.8c-3.32,0-6-2.69-6-6V56.41c0-3.32,2.69-6,6-6h38.22c8.22,0,15.51,1.4,21.67,4.15,6.45,2.89,11.53,7.12,15.1,12.56,3.59,5.47,5.41,11.94,5.41,19.23s-1.82,13.75-5.42,19.19c-3.57,5.4-8.63,9.61-15.06,12.53-6.16,2.8-13.47,4.22-21.7,4.22h-5.45v13.5c0,3.32-2.69,6-6,6h-26.76ZM729.99,89.65c2.35,0,3.67-.45,4.12-.87.23-.21.76-.71.76-2.42s-.54-2.21-.77-2.42c-.45-.42-1.77-.87-4.12-.87h-3.75v6.59h3.75Z"/><path class="cls-4" d="M828.08,141.8c-3.32,0-6-2.69-6-6v-23.25h-12.71v23.25c0,3.32-2.69,6-6,6h-26.76c-3.32,0-6-2.69-6-6V56.41c0-3.32,2.69-6,6-6h26.76c3.32,0,6,2.69,6,6v22.12h12.71v-22.12c0-3.32,2.69-6,6-6h26.76c3.32,0,6,2.69,6,6v79.38c0,3.32-2.69,6-6,6h-26.76Z"/><path class="cls-4" d="M927.19,141.8c-2.48,0-4.71-1.53-5.6-3.85l-3.84-9.98h-21.94l-3.84,9.98c-.89,2.32-3.12,3.85-5.6,3.85h-27.22c-2.03,0-3.92-1.02-5.02-2.72s-1.29-3.84-.48-5.69l34.7-79.38c.29-.67.7-1.27,1.19-1.78-.84-2.04-.49-4.39.92-6.1l14.97-18.14c1.14-1.38,2.84-2.18,4.63-2.18h24.38c2.54,0,4.81,1.6,5.66,4,.85,2.4.1,5.07-1.87,6.67l-17.24,14c2.04.29,3.82,1.61,4.67,3.54l34.7,79.38c.81,1.86.63,4-.48,5.69s-3,2.72-5.02,2.72h-27.67Z"/><path class="cls-4" d="M959.17,141.8c-3.32,0-6-2.69-6-6V56.41c0-3.32,2.69-6,6-6h38.22c8.22,0,15.51,1.4,21.67,4.15,6.45,2.89,11.53,7.12,15.1,12.56,3.59,5.47,5.41,11.94,5.41,19.23s-1.82,13.75-5.42,19.19c-3.57,5.4-8.63,9.61-15.06,12.53-6.16,2.8-13.47,4.22-21.7,4.22h-5.45v13.5c0,3.32-2.69,6-6,6h-26.76ZM995.68,89.65c2.35,0,3.67-.45,4.12-.87.23-.21.76-.71.76-2.42s-.54-2.21-.77-2.42c-.45-.42-1.77-.87-4.12-.87h-3.75v6.59h3.75Z"/><path class="cls-4" d="M117.45,139.8c-3.32,0-6-2.69-6-6V54.41c0-3.32,2.69-6,6-6h38.22c8.22,0,15.51,1.4,21.67,4.15,6.45,2.89,11.53,7.12,15.1,12.56,3.59,5.47,5.41,11.94,5.41,19.22s-1.82,13.75-5.42,19.19c-3.57,5.4-8.63,9.61-15.06,12.53-6.16,2.8-13.47,4.22-21.7,4.22h-5.45v13.5c0,3.32-2.69,6-6,6h-26.76ZM153.97,87.65c2.35,0,3.67-.45,4.12-.87.23-.21.76-.72.76-2.42s-.54-2.21-.77-2.42c-.45-.42-1.77-.87-4.12-.87h-3.75v6.59h3.75Z"/><path class="cls-4" d="M252.06,139.8c-3.32,0-6-2.69-6-6v-23.25h-12.71v23.25c0,3.32-2.69,6-6,6h-26.76c-3.32,0-6-2.69-6-6V54.41c0-3.32,2.69-6,6-6h26.76c3.32,0,6,2.69,6,6v22.12h12.71v-22.12c0-3.32,2.69-6,6-6h26.76c3.32,0,6,2.69,6,6v79.38c0,3.32-2.69,6-6,6h-26.76Z"/><path class="cls-4" d="M329.74,141.61c-13.73,0-24.71-3.89-32.64-11.55-7.99-7.72-12.04-18.48-12.04-31.99v-43.66c0-3.32,2.69-6,6-6h26.76c3.32,0,6,2.69,6,6v42.87c0,6.17,1.27,8.31,1.82,8.94.74.85,1.83,1.73,4.31,1.73s3.66-.9,4.33-1.68c.54-.64,1.8-2.79,1.8-8.98v-42.87c0-3.32,2.69-6,6-6h16.82s.11-.08.21-.18c.03-.05.11-.28.11-.74,0-.58-.08-1.09-.26-1.57-.19-.53-.38-.78-.47-.88-1.34-1.49-1.85-3.56-1.35-5.5.5-1.94,1.93-3.51,3.83-4.18l14.52-5.1c.65-.23,1.33-.34,1.99-.34,1.82,0,3.59.83,4.75,2.33,1.66,2.15,2.99,4.58,3.95,7.23.99,2.74,1.5,5.77,1.5,9.03,0,8.63-2.79,15.5-8.3,20.41-1.5,1.33-3.16,2.49-4.97,3.46v25.69c0,13.5-4.05,24.26-12.04,31.99-7.93,7.67-18.91,11.55-32.64,11.55Z"/><path class="cls-4" d="M424.54,141.61c-7.11,0-13.83-1.16-19.96-3.44-6.2-2.31-11.67-5.65-16.23-9.91-4.59-4.28-8.21-9.39-10.75-15.18-2.56-5.8-3.85-12.19-3.85-18.97s1.3-13.27,3.86-19.05c2.56-5.76,6.22-10.86,10.9-15.15,4.65-4.26,10.23-7.59,16.58-9.89,6.26-2.27,13.19-3.42,20.59-3.42,4.26,0,8.29.27,11.97.8,3.1.45,5.71.68,7.76.68.69,0,1.25-.1,1.58-.27,0-.07.02-.17.02-.3,0-.58-.08-1.09-.26-1.57-.19-.53-.38-.78-.47-.88-1.34-1.49-1.85-3.56-1.35-5.5.5-1.94,1.93-3.51,3.83-4.18l14.52-5.1c.65-.23,1.33-.34,1.99-.34,1.82,0,3.59.83,4.75,2.33,1.66,2.15,2.99,4.58,3.95,7.23.99,2.74,1.5,5.77,1.5,9.03,0,10.03-4.32,15.92-8.33,19.22,2.61,3.63,4.64,7.68,6.06,12.05,1.44,4.43,2.16,9.25,2.16,14.32,0,6.78-1.3,13.17-3.85,18.97-2.55,5.79-6.17,10.9-10.75,15.18-4.57,4.27-10.01,7.6-16.16,9.91-6.1,2.29-12.83,3.44-20.03,3.44ZM424.54,80.26c-1.7,0-3.22.29-4.64.89-1.4.59-2.6,1.42-3.66,2.53-1.06,1.11-1.88,2.47-2.51,4.17-.66,1.78-.99,3.88-.99,6.26s.33,4.48.99,6.25c.63,1.7,1.45,3.06,2.51,4.17,1.06,1.11,2.26,1.94,3.66,2.53,1.42.6,2.94.89,4.64.89s3.22-.29,4.64-.89c1.4-.59,2.6-1.42,3.66-2.53,1.06-1.11,1.88-2.47,2.51-4.17.66-1.78.99-3.88.99-6.26s-.33-4.48-.99-6.26c-.63-1.69-1.45-3.06-2.51-4.17-1.06-1.11-2.26-1.94-3.66-2.52-1.42-.6-2.94-.89-4.64-.89Z"/><path class="cls-4" d="M535.33,139.8c-1.78,0-3.47-.79-4.61-2.15l-19.55-23.4v19.55c0,3.32-2.69,6-6,6h-26.08c-3.32,0-6-2.69-6-6V54.41c0-3.32,2.69-6,6-6h22c1.78,0,3.47.79,4.61,2.15l19.55,23.4v-19.55c0-3.32,2.69-6,6-6h26.08c3.32,0,6,2.69,6,6v79.38c0,3.32-2.69,6-6,6h-22Z"/><path class="cls-4" d="M611.42,141.61c-7.11,0-13.78-1.14-19.83-3.38-6.13-2.27-11.54-5.57-16.07-9.8-4.56-4.25-8.14-9.35-10.66-15.16-2.51-5.79-3.78-12.24-3.78-19.17s1.27-13.37,3.78-19.17c2.51-5.81,6.13-10.92,10.73-15.18,4.58-4.23,10.04-7.52,16.25-9.79,6.12-2.24,12.9-3.37,20.15-3.37,8.64,0,16.52,1.5,23.4,4.46,7.03,3.02,12.93,7.42,17.54,13.06,2.04,2.5,1.74,6.17-.68,8.3l-15.36,13.53h9.13c3.32,0,6,2.69,6,6v33.57c0,2-1,3.87-2.66,4.98-5.34,3.59-11.5,6.38-18.28,8.28-6.7,1.88-13.31,2.83-19.65,2.83ZM613.34,80.26c-2.2,0-4.17.33-5.86.97-1.55.59-2.82,1.41-3.86,2.51-1.11,1.16-1.95,2.53-2.57,4.2-.65,1.73-.98,3.81-.98,6.17,0,2.22.33,4.25.99,6.03.63,1.7,1.46,3.08,2.56,4.22,1.09,1.14,2.36,1.99,3.89,2.62,1.57.64,3.42.97,5.49.97,1.26,0,2.51-.12,3.75-.35v-15.65c0-3.32,2.69-6,6-6h2.96c-1.71-1.79-3.52-3.17-5.39-4.12-2.08-1.05-4.36-1.56-6.98-1.56Z"/><path class="cls-4" d="M691.47,139.8c-3.32,0-6-2.69-6-6V54.41c0-3.32,2.69-6,6-6h38.22c8.22,0,15.51,1.4,21.67,4.15,6.45,2.89,11.53,7.12,15.1,12.56,3.59,5.47,5.41,11.94,5.41,19.23s-1.82,13.75-5.42,19.19c-3.57,5.4-8.63,9.61-15.06,12.53-6.16,2.8-13.47,4.22-21.7,4.22h-5.45v13.5c0,3.32-2.69,6-6,6h-26.76ZM727.99,87.65c2.35,0,3.67-.45,4.12-.87.23-.21.76-.71.76-2.42s-.54-2.21-.77-2.42c-.45-.42-1.77-.87-4.12-.87h-3.75v6.59h3.75Z"/><path class="cls-4" d="M826.08,139.8c-3.32,0-6-2.69-6-6v-23.25h-12.71v23.25c0,3.32-2.69,6-6,6h-26.76c-3.32,0-6-2.69-6-6V54.41c0-3.32,2.69-6,6-6h26.76c3.32,0,6,2.69,6,6v22.12h12.71v-22.12c0-3.32,2.69-6,6-6h26.76c3.32,0,6,2.69,6,6v79.38c0,3.32-2.69,6-6,6h-26.76Z"/><path class="cls-4" d="M925.19,139.8c-2.48,0-4.71-1.53-5.6-3.85l-3.84-9.98h-21.94l-3.84,9.98c-.89,2.32-3.12,3.85-5.6,3.85h-27.22c-2.03,0-3.92-1.02-5.02-2.72s-1.29-3.84-.48-5.69l34.7-79.38c.29-.67.7-1.27,1.19-1.78-.84-2.04-.49-4.39.92-6.1l14.97-18.14c1.14-1.38,2.84-2.18,4.63-2.18h24.38c2.54,0,4.81,1.6,5.66,4,.85,2.4.1,5.07-1.87,6.67l-17.24,14c2.04.29,3.82,1.61,4.67,3.54l34.7,79.38c.81,1.86.63,4-.48,5.69s-3,2.72-5.02,2.72h-27.67Z"/><path class="cls-4" d="M957.17,139.8c-3.32,0-6-2.69-6-6V54.41c0-3.32,2.69-6,6-6h38.22c8.22,0,15.51,1.4,21.67,4.15,6.45,2.89,11.53,7.12,15.1,12.56,3.59,5.47,5.41,11.94,5.41,19.23s-1.82,13.75-5.42,19.19c-3.57,5.4-8.63,9.61-15.06,12.53-6.16,2.8-13.47,4.22-21.7,4.22h-5.45v13.5c0,3.32-2.69,6-6,6h-26.76ZM993.68,87.65c2.35,0,3.67-.45,4.12-.87.23-.21.76-.71.76-2.42s-.54-2.21-.77-2.42c-.45-.42-1.77-.87-4.12-.87h-3.75v6.59h3.75Z"/><path class="cls-2" d="M117.45,136.8c-1.66,0-3-1.34-3-3V54.41c0-1.66,1.34-3,3-3h38.22c7.8,0,14.68,1.31,20.45,3.89,5.92,2.65,10.56,6.51,13.82,11.47,3.26,4.98,4.91,10.89,4.91,17.58s-1.66,12.59-4.92,17.53c-3.25,4.92-7.89,8.77-13.79,11.45-5.77,2.62-12.66,3.95-20.46,3.95h-8.45v16.5c0,1.66-1.34,3-3,3h-26.76ZM153.97,90.65c2.9,0,4.98-.57,6.17-1.68,1.15-1.08,1.71-2.59,1.71-4.61s-.56-3.53-1.72-4.61c-1.19-1.12-3.27-1.68-6.17-1.68h-6.75v12.59h6.75Z"/><path class="cls-2" d="M252.06,136.8c-1.66,0-3-1.34-3-3v-26.25h-18.72v26.25c0,1.66-1.34,3-3,3h-26.76c-1.66,0-3-1.34-3-3V54.41c0-1.66,1.34-3,3-3h26.76c1.66,0,3,1.34,3,3v25.12h18.72v-25.12c0-1.66,1.34-3,3-3h26.76c1.66,0,3,1.34,3,3v79.38c0,1.66-1.34,3-3,3h-26.76Z"/><path class="cls-2" d="M329.74,138.61c-12.92,0-23.2-3.6-30.55-10.71-7.38-7.13-11.12-17.17-11.12-29.83v-43.66c0-1.66,1.34-3,3-3h26.76c1.66,0,3,1.34,3,3v42.87c0,5.2.88,8.98,2.56,10.91,1.61,1.86,3.76,2.76,6.58,2.76s5.05-.9,6.62-2.74c1.15-1.35,2.52-4.34,2.52-10.93v-42.87c0-1.66,1.34-3,3-3h16.9c.5,0,1.27-.11,2.22-1.02.44-.42,1.02-1.18,1.02-2.89,0-.92-.15-1.8-.44-2.6-.28-.76-.64-1.39-1.06-1.86-.67-.75-.92-1.78-.68-2.75s.97-1.76,1.91-2.09l14.52-5.1c.33-.11.66-.17,1-.17.91,0,1.8.42,2.38,1.17,1.47,1.9,2.65,4.06,3.51,6.42.87,2.41,1.31,5.1,1.31,8,0,7.74-2.46,13.85-7.3,18.17-1.74,1.55-3.74,2.83-5.97,3.83v27.56c0,12.66-3.74,22.69-11.12,29.83-7.35,7.11-17.63,10.71-30.55,10.71Z"/><path class="cls-2" d="M424.54,138.61c-6.76,0-13.12-1.09-18.91-3.25-5.83-2.17-10.95-5.3-15.23-9.29-4.29-4-7.67-8.78-10.05-14.2-2.39-5.42-3.6-11.4-3.6-17.76s1.21-12.44,3.6-17.83c2.39-5.38,5.81-10.14,10.18-14.15,4.36-3.99,9.6-7.12,15.58-9.28,5.93-2.15,12.52-3.24,19.56-3.24,4.12,0,8,.26,11.54.77,3.23.47,5.99.71,8.19.71,1.57,0,2.75-.34,3.61-1.03.46-.37.98-1,.98-2.54,0-.92-.15-1.8-.44-2.6-.28-.76-.64-1.39-1.06-1.86-.67-.75-.92-1.78-.68-2.75.25-.97.97-1.76,1.91-2.09l14.52-5.1c.33-.11.66-.17,1-.17.91,0,1.8.42,2.38,1.17,1.47,1.9,2.65,4.06,3.51,6.42.87,2.41,1.31,5.1,1.31,8,0,7.71-2.72,13.61-8.08,17.56-.49.36-1,.71-1.52,1.04.6.71,1.17,1.45,1.72,2.21,2.48,3.42,4.42,7.25,5.76,11.39,1.34,4.14,2.02,8.64,2.02,13.4,0,6.36-1.21,12.34-3.6,17.77-2.38,5.42-5.77,10.19-10.05,14.2-4.28,4-9.38,7.12-15.17,9.29-5.76,2.16-12.14,3.25-18.97,3.25ZM424.54,77.26c-2.08,0-4.03.38-5.81,1.13-1.76.74-3.33,1.83-4.66,3.22-1.33,1.39-2.39,3.14-3.15,5.2-.78,2.11-1.18,4.57-1.18,7.3s.4,5.18,1.17,7.29c.76,2.06,1.82,3.81,3.15,5.2,1.33,1.39,2.9,2.48,4.67,3.22,1.77.75,3.73,1.13,5.81,1.13s4.03-.38,5.81-1.13c1.79-.75,3.31-1.81,4.67-3.22,1.33-1.4,2.39-3.15,3.15-5.2.78-2.11,1.17-4.56,1.17-7.29s-.4-5.18-1.17-7.29c-.76-2.06-1.82-3.81-3.15-5.2-1.35-1.41-2.88-2.47-4.66-3.22-1.77-.75-3.73-1.13-5.81-1.13Z"/><path class="cls-2" d="M535.33,136.8c-.89,0-1.73-.39-2.3-1.08l-24.86-29.75v27.82c0,1.66-1.34,3-3,3h-26.08c-1.66,0-3-1.34-3-3V54.41c0-1.66,1.34-3,3-3h22c.89,0,1.73.39,2.3,1.08l24.86,29.75v-27.82c0-1.66,1.34-3,3-3h26.08c1.66,0,3,1.34,3,3v79.38c0,1.66-1.34,3-3,3h-22Z"/><path class="cls-2" d="M611.42,138.61c-6.75,0-13.07-1.07-18.79-3.19-5.75-2.13-10.82-5.22-15.07-9.18-4.26-3.97-7.6-8.73-9.95-14.16-2.35-5.42-3.53-11.46-3.53-17.98s1.19-12.56,3.54-17.98c2.35-5.43,5.72-10.19,10.02-14.17,4.28-3.96,9.41-7.05,15.24-9.18,5.79-2.12,12.22-3.19,19.12-3.19,8.23,0,15.71,1.42,22.22,4.21,6.58,2.83,12.1,6.93,16.39,12.2,1.02,1.25.87,3.08-.34,4.15l-17.12,15.08c-.55.48-1.26.75-1.98.75-.07,0-.13,0-.2,0-.8-.05-1.54-.42-2.07-1.03-2.23-2.57-4.65-4.52-7.2-5.81-2.47-1.25-5.28-1.89-8.34-1.89-2.57,0-4.9.39-6.93,1.16-1.95.74-3.62,1.83-4.96,3.24-1.37,1.44-2.46,3.19-3.21,5.22-.78,2.07-1.17,4.5-1.17,7.22,0,2.58.4,4.96,1.17,7.07.76,2.06,1.84,3.83,3.21,5.26,1.38,1.45,2.99,2.53,4.92,3.32,1.93.79,4.16,1.19,6.63,1.19,2.29,0,4.55-.34,6.75-1v-18c0-1.66,1.34-3,3-3h23.25c1.66,0,3,1.34,3,3v33.57c0,1-.5,1.93-1.33,2.49-5.08,3.41-10.94,6.07-17.42,7.88-6.44,1.8-12.78,2.72-18.84,2.72Z"/><path class="cls-2" d="M691.47,136.8c-1.66,0-3-1.34-3-3V54.41c0-1.66,1.34-3,3-3h38.22c7.79,0,14.67,1.31,20.45,3.89,5.91,2.65,10.56,6.51,13.82,11.47,3.26,4.98,4.91,10.89,4.91,17.58s-1.66,12.59-4.92,17.53c-3.25,4.92-7.89,8.77-13.79,11.45-5.77,2.62-12.66,3.95-20.46,3.95h-8.45v16.5c0,1.66-1.34,3-3,3h-26.76ZM727.99,90.65c2.9,0,4.98-.57,6.17-1.68,1.15-1.08,1.71-2.59,1.71-4.61s-.56-3.53-1.71-4.61c-1.19-1.12-3.27-1.68-6.17-1.68h-6.75v12.59h6.75Z"/><path class="cls-2" d="M826.08,136.8c-1.66,0-3-1.34-3-3v-26.25h-18.72v26.25c0,1.66-1.34,3-3,3h-26.76c-1.66,0-3-1.34-3-3V54.41c0-1.66,1.34-3,3-3h26.76c1.66,0,3,1.34,3,3v25.12h18.72v-25.12c0-1.66,1.34-3,3-3h26.76c1.66,0,3,1.34,3,3v79.38c0,1.66-1.34,3-3,3h-26.76Z"/><path class="cls-2" d="M925.19,136.8c-1.24,0-2.36-.77-2.8-1.92l-4.58-11.91h-26.06l-4.58,11.91c-.45,1.16-1.56,1.92-2.8,1.92h-27.22c-1.01,0-1.96-.51-2.51-1.36-.55-.85-.64-1.92-.24-2.85l34.7-79.38c.48-1.09,1.56-1.8,2.75-1.8h26.31c1.19,0,2.27.71,2.75,1.8l34.7,79.38c.41.93.32,2-.24,2.85-.55.85-1.5,1.36-2.51,1.36h-27.67ZM908.09,97.68l-3.32-8.62-3.31,8.62h6.63ZM893.1,50.95c-1.16,0-2.22-.67-2.72-1.72-.5-1.05-.34-2.29.4-3.19l14.97-18.14c.57-.69,1.42-1.09,2.32-1.09h24.38c1.27,0,2.4.8,2.83,2,.42,1.2.05,2.53-.94,3.33l-22.34,18.14c-.54.43-1.2.67-1.89.67h-17.01Z"/><path class="cls-2" d="M957.17,136.8c-1.66,0-3-1.34-3-3V54.41c0-1.66,1.34-3,3-3h38.22c7.79,0,14.67,1.31,20.45,3.89,5.91,2.65,10.56,6.51,13.82,11.47,3.26,4.98,4.91,10.89,4.91,17.58s-1.66,12.59-4.92,17.53c-3.25,4.92-7.89,8.77-13.79,11.45-5.77,2.62-12.66,3.95-20.46,3.95h-8.45v16.5c0,1.66-1.34,3-3,3h-26.76ZM993.68,90.65c2.9,0,4.98-.57,6.17-1.68,1.15-1.08,1.71-2.59,1.71-4.61s-.56-3.53-1.71-4.61c-1.19-1.12-3.27-1.68-6.17-1.68h-6.75v12.59h6.75Z"/><path class="cls-7" d="M117.45,133.79V54.41h38.22c7.41,0,13.82,1.21,19.22,3.63,5.4,2.42,9.58,5.88,12.53,10.38,2.95,4.5,4.42,9.81,4.42,15.93s-1.47,11.42-4.42,15.88c-2.95,4.46-7.13,7.92-12.53,10.38-5.41,2.46-11.81,3.69-19.22,3.69h-23.36l11.91-11.45v30.96h-26.76ZM144.22,105.78l-11.91-12.13h21.66c3.7,0,6.44-.83,8.22-2.49,1.78-1.66,2.67-3.93,2.67-6.8s-.89-5.14-2.67-6.8c-1.78-1.66-4.52-2.5-8.22-2.5h-21.66l11.91-12.13v42.87Z"/><path class="cls-7" d="M227.34,133.79h-26.76V54.41h26.76v79.38ZM253.87,104.54h-28.35v-22h28.35v22ZM252.06,54.41h26.76v79.38h-26.76V54.41Z"/><path class="cls-7" d="M329.74,135.61c-12.17,0-21.66-3.29-28.46-9.87-6.8-6.58-10.21-15.8-10.21-27.67v-43.66h26.76v42.87c0,6.05,1.1,10.34,3.29,12.87,2.19,2.53,5.14,3.8,8.85,3.8s6.75-1.27,8.9-3.8c2.15-2.53,3.23-6.82,3.23-12.87v-42.87h26.31v43.66c0,11.87-3.4,21.09-10.21,27.67-6.8,6.58-16.29,9.87-28.46,9.87ZM354.46,70.06v-15.65h4.54c1.59,0,3.02-.62,4.31-1.87,1.28-1.25,1.93-2.93,1.93-5.05,0-1.29-.21-2.5-.62-3.63-.42-1.13-.96-2.08-1.64-2.83l14.52-5.1c1.28,1.66,2.31,3.53,3.06,5.61.75,2.08,1.13,4.4,1.13,6.97,0,6.88-2.1,12.19-6.29,15.93s-10.04,5.61-17.52,5.61h-3.4Z"/><path class="cls-7" d="M424.54,135.61c-6.43,0-12.38-1.02-17.86-3.06-5.48-2.04-10.23-4.93-14.23-8.68-4.01-3.74-7.13-8.14-9.36-13.21-2.23-5.06-3.35-10.58-3.35-16.56s1.11-11.58,3.35-16.61c2.23-5.03,5.39-9.41,9.47-13.15,4.08-3.74,8.94-6.63,14.57-8.67,5.63-2.04,11.81-3.06,18.54-3.06,4.01,0,7.71.25,11.11.74,3.4.49,6.27.74,8.62.74s4.1-.57,5.5-1.7c1.4-1.13,2.1-2.76,2.1-4.88,0-1.29-.21-2.5-.62-3.63-.42-1.13-.96-2.08-1.64-2.83l14.52-5.1c1.28,1.66,2.31,3.53,3.06,5.61.75,2.08,1.13,4.4,1.13,6.97,0,6.73-2.29,11.78-6.86,15.14-4.58,3.37-10.6,5.05-18.09,5.05-3.71,0-7.18-.23-10.43-.68-3.25-.45-6.43-.87-9.53-1.25l29.48-3.86c3.1,2.27,5.8,4.99,8.11,8.17,2.31,3.17,4.08,6.69,5.33,10.55,1.25,3.86,1.87,8.01,1.87,12.47,0,5.97-1.12,11.49-3.35,16.56-2.23,5.07-5.35,9.47-9.36,13.21-4.01,3.74-8.73,6.63-14.17,8.68-5.44,2.04-11.42,3.06-17.92,3.06ZM424.54,113.95c2.49,0,4.82-.45,6.97-1.36,2.15-.91,4.04-2.21,5.67-3.91,1.62-1.7,2.89-3.78,3.8-6.24.91-2.46,1.36-5.23,1.36-8.33s-.45-5.88-1.36-8.33c-.91-2.46-2.17-4.54-3.8-6.24-1.63-1.7-3.52-3-5.67-3.91-2.15-.91-4.48-1.36-6.97-1.36s-4.82.45-6.97,1.36c-2.15.91-4.05,2.21-5.67,3.91-1.63,1.7-2.89,3.78-3.8,6.24-.91,2.46-1.36,5.24-1.36,8.33s.45,5.88,1.36,8.33c.91,2.46,2.17,4.54,3.8,6.24,1.62,1.7,3.52,3,5.67,3.91,2.15.91,4.48,1.36,6.97,1.36Z"/><path class="cls-7" d="M479.08,133.79V54.41h22l40.37,48.31h-10.21v-48.31h26.08v79.38h-22l-40.37-48.31h10.21v48.31h-26.08Z"/><path class="cls-7" d="M611.42,135.61c-6.43,0-12.34-1-17.75-3-5.41-2-10.09-4.86-14.06-8.56-3.97-3.7-7.05-8.09-9.24-13.15-2.19-5.06-3.29-10.66-3.29-16.78s1.09-11.72,3.29-16.78c2.19-5.06,5.29-9.45,9.3-13.15,4.01-3.7,8.75-6.56,14.23-8.56,5.48-2,11.51-3.01,18.09-3.01,7.86,0,14.87,1.32,21.04,3.97,6.16,2.65,11.24,6.43,15.25,11.34l-17.12,15.08c-2.5-2.87-5.2-5.05-8.11-6.52-2.91-1.47-6.14-2.21-9.7-2.21-2.95,0-5.61.45-8,1.36-2.38.91-4.4,2.23-6.07,3.97-1.66,1.74-2.95,3.82-3.86,6.24-.91,2.42-1.36,5.18-1.36,8.28s.45,5.65,1.36,8.11c.91,2.46,2.19,4.56,3.86,6.29,1.66,1.74,3.65,3.08,5.95,4.03,2.31.95,4.89,1.42,7.77,1.42,3.02,0,5.97-.51,8.84-1.53,2.87-1.02,5.93-2.78,9.19-5.27l14.97,18.37c-4.84,3.25-10.36,5.75-16.56,7.48-6.2,1.74-12.21,2.61-18.03,2.61ZM622.76,122.11v-30.17h23.25v33.57l-23.25-3.4Z"/><path class="cls-7" d="M691.47,133.79V54.41h38.22c7.41,0,13.81,1.21,19.22,3.63,5.4,2.42,9.58,5.88,12.53,10.38,2.95,4.5,4.42,9.81,4.42,15.93s-1.47,11.42-4.42,15.88c-2.95,4.46-7.13,7.92-12.53,10.38-5.41,2.46-11.81,3.69-19.22,3.69h-23.36l11.91-11.45v30.96h-26.76ZM718.24,105.78l-11.91-12.13h21.66c3.7,0,6.44-.83,8.22-2.49,1.78-1.66,2.66-3.93,2.66-6.8s-.89-5.14-2.66-6.8c-1.78-1.66-4.52-2.5-8.22-2.5h-21.66l11.91-12.13v42.87Z"/><path class="cls-7" d="M801.36,133.79h-26.76V54.41h26.76v79.38ZM827.89,104.54h-28.35v-22h28.35v22ZM826.08,54.41h26.76v79.38h-26.76V54.41Z"/><path class="cls-7" d="M857.15,133.79l34.7-79.38h26.31l34.7,79.38h-27.67l-25.63-66.68h10.43l-25.63,66.68h-27.22ZM877.79,119.96l6.8-19.28h36.51l6.8,19.28h-50.12ZM893.1,47.95l14.97-18.14h24.38l-22.34,18.14h-17.01Z"/><path class="cls-7" d="M957.17,133.79V54.41h38.22c7.41,0,13.81,1.21,19.22,3.63,5.4,2.42,9.58,5.88,12.53,10.38,2.95,4.5,4.42,9.81,4.42,15.93s-1.47,11.42-4.42,15.88c-2.95,4.46-7.13,7.92-12.53,10.38-5.41,2.46-11.81,3.69-19.22,3.69h-23.36l11.91-11.45v30.96h-26.76ZM983.93,105.78l-11.91-12.13h21.66c3.7,0,6.44-.83,8.22-2.49,1.78-1.66,2.66-3.93,2.66-6.8s-.89-5.14-2.66-6.8c-1.78-1.66-4.52-2.5-8.22-2.5h-21.66l11.91-12.13v42.87Z"/><path class="cls-5" d="M121.46,131.79V56.41h36.21c7.09,0,13.28,1.16,18.4,3.45,5.03,2.25,8.95,5.5,11.67,9.65,2.72,4.15,4.1,9.14,4.1,14.84s-1.38,10.67-4.09,14.77c-2.72,4.12-6.66,7.37-11.69,9.66-5.12,2.33-11.31,3.51-18.39,3.51h-13.45v19.5h-22.76ZM144.22,95.65h11.75c4.21,0,7.44-1.02,9.59-3.03,2.19-2.05,3.3-4.83,3.3-8.27s-1.11-6.21-3.3-8.26c-2.15-2.02-5.38-3.04-9.59-3.04h-11.75v22.6Z"/><polygon class="cls-5" points="256.06 131.79 256.06 102.53 227.34 102.53 227.34 131.79 204.58 131.79 204.58 56.41 227.34 56.41 227.34 84.54 256.06 84.54 256.06 56.41 278.82 56.41 278.82 131.79 256.06 131.79"/><path class="cls-5" d="M331.74,133.61c-11.58,0-20.69-3.13-27.07-9.3-6.37-6.16-9.6-14.98-9.6-26.23v-41.66h22.76v40.86c0,6.61,1.24,11.25,3.78,14.18,2.58,2.98,6.06,4.49,10.36,4.49s7.89-1.52,10.43-4.5c2.5-2.93,3.71-7.57,3.71-14.17v-40.86h14.9c2.12,0,4.04-.82,5.7-2.44,1.68-1.63,2.54-3.81,2.54-6.48,0-1.51-.25-2.96-.75-4.32-.14-.38-.3-.75-.46-1.1l10.7-3.76c.78,1.2,1.43,2.51,1.94,3.91.67,1.85,1.01,3.97,1.01,6.29,0,6.34-1.84,11.06-5.62,14.44-1.76,1.57-3.88,2.79-6.3,3.63l-1.35.47v31.02c0,11.25-3.23,20.08-9.6,26.23-6.39,6.17-15.5,9.3-27.07,9.3Z"/><path class="cls-5" d="M426.54,133.61c-6.16,0-11.93-.99-17.16-2.94-5.21-1.94-9.77-4.72-13.56-8.26-3.79-3.54-6.78-7.76-8.89-12.55-2.11-4.78-3.18-10.08-3.18-15.75s1.07-11.05,3.17-15.8c2.11-4.75,5.13-8.95,8.99-12.49,3.87-3.55,8.54-6.33,13.9-8.27,5.39-1.95,11.39-2.94,17.86-2.94,3.88,0,7.53.24,10.83.72,3.47.5,6.46.76,8.9.76,2.73,0,5-.72,6.76-2.15,1.88-1.53,2.84-3.69,2.84-6.43,0-1.51-.25-2.96-.75-4.32-.14-.38-.3-.75-.46-1.1l10.7-3.76c.78,1.2,1.43,2.51,1.94,3.91.67,1.85,1.01,3.97,1.01,6.29,0,6.11-1.98,10.54-6.04,13.53-1.27.93-2.68,1.74-4.21,2.39l-2.75,1.18,2.14,2.09c1.41,1.38,2.74,2.92,3.93,4.56,2.17,2.99,3.87,6.35,5.04,9.99,1.18,3.64,1.77,7.63,1.77,11.86,0,5.66-1.07,10.96-3.18,15.75-2.11,4.79-5.1,9.02-8.89,12.55-3.8,3.54-8.34,6.32-13.51,8.26-5.19,1.95-10.98,2.93-17.21,2.93ZM426.54,72.26c-2.75,0-5.36.51-7.75,1.52-2.4,1.01-4.53,2.48-6.34,4.37-1.81,1.89-3.23,4.22-4.23,6.93-.99,2.67-1.48,5.71-1.48,9.03s.5,6.36,1.48,9.03c1,2.7,2.42,5.04,4.23,6.93,1.81,1.89,3.94,3.36,6.34,4.37,2.39,1.01,5,1.52,7.75,1.52s5.36-.51,7.75-1.52c2.4-1.01,4.53-2.48,6.34-4.37,1.81-1.9,3.23-4.23,4.23-6.93.99-2.67,1.48-5.7,1.48-9.03s-.5-6.36-1.48-9.03c-1-2.7-2.42-5.03-4.23-6.93-1.81-1.89-3.94-3.37-6.34-4.37-2.39-1.01-5-1.52-7.75-1.52Z"/><polygon class="cls-5" points="538.26 131.79 505.16 92.18 505.16 131.79 483.08 131.79 483.08 56.41 502.15 56.41 535.25 96.02 535.25 56.41 557.33 56.41 557.33 131.79 538.26 131.79"/><path class="cls-5" d="M613.42,133.61c-6.16,0-11.89-.97-17.05-2.88-5.13-1.9-9.63-4.64-13.39-8.15-3.75-3.5-6.7-7.7-8.77-12.49-2.07-4.79-3.12-10.17-3.12-15.99s1.05-11.2,3.12-15.99c2.07-4.78,5.04-8.98,8.82-12.48,3.79-3.51,8.36-6.25,13.56-8.15,5.24-1.91,11.09-2.88,17.4-2.88,7.55,0,14.36,1.28,20.25,3.81,5.21,2.24,9.65,5.36,13.23,9.31l-14.17,12.48c-2.28-2.34-4.75-4.19-7.35-5.51-3.18-1.61-6.75-2.43-10.6-2.43-3.18,0-6.11.5-8.71,1.49-2.65,1.01-4.94,2.51-6.8,4.46-1.84,1.93-3.28,4.26-4.28,6.92-.99,2.63-1.49,5.66-1.49,8.98s.5,6.13,1.49,8.8c1,2.71,2.44,5.06,4.29,6.98,1.85,1.93,4.08,3.45,6.64,4.49,2.53,1.04,5.4,1.57,8.53,1.57s6.44-.55,9.51-1.65c.33-.12.66-.24.99-.37l1.25-.51v-19.47h19.25v30.48c-4.43,2.84-9.5,5.07-15.1,6.64-6,1.68-11.88,2.53-17.49,2.53Z"/><path class="cls-5" d="M695.48,131.79V56.41h36.21c7.09,0,13.28,1.16,18.4,3.45,5.03,2.25,8.95,5.5,11.67,9.65,2.72,4.15,4.09,9.14,4.09,14.83s-1.38,10.67-4.09,14.77c-2.72,4.12-6.66,7.37-11.69,9.66-5.12,2.33-11.31,3.51-18.39,3.51h-13.46v19.5h-22.76ZM718.24,95.65h11.75c4.21,0,7.44-1.02,9.59-3.03,2.19-2.05,3.3-4.83,3.3-8.27s-1.11-6.21-3.3-8.26c-2.15-2.02-5.38-3.04-9.59-3.04h-11.75v22.6Z"/><polygon class="cls-5" points="830.08 131.79 830.08 102.53 801.36 102.53 801.36 131.79 778.6 131.79 778.6 56.41 801.36 56.41 801.36 84.54 830.08 84.54 830.08 56.41 852.84 56.41 852.84 131.79 830.08 131.79"/><path class="cls-5" d="M928.57,131.79l-5.32-13.83h-32.94l-5.32,13.83h-22.78l32.95-75.38h23.69l32.95,75.38h-23.24ZM896.18,102.68h21.2l-10.6-27.57-10.6,27.57ZM899.34,45.95l11.67-14.14h17.8l-17.41,14.14h-12.05Z"/><path class="cls-5" d="M961.17,131.79V56.41h36.21c7.09,0,13.28,1.16,18.4,3.45,5.03,2.25,8.95,5.5,11.67,9.65,2.72,4.15,4.09,9.14,4.09,14.83s-1.38,10.67-4.09,14.77c-2.72,4.12-6.66,7.37-11.69,9.66-5.12,2.33-11.31,3.51-18.39,3.51h-13.46v19.5h-22.76ZM983.93,95.65h11.75c4.21,0,7.44-1.02,9.59-3.03,2.19-2.05,3.3-4.83,3.3-8.27s-1.11-6.21-3.3-8.26c-2.15-2.02-5.38-3.04-9.59-3.04h-11.75v22.6Z"/><path class="cls-1" d="M60.91,231.97l-2.96,3.6v15.04h-13.79v-51.86h13.79v17.47h.14l12.62-17.47h17.54l-18.25,22.17,19,29.69h-17.04l-11.01-18.64h-.04Z"/><path class="cls-1" d="M92.41,198.75h14.04v20.67h15.65v-20.67h14.04v51.86h-14.04v-18.89h-15.65v18.89h-14.04v-51.86Z"/><path class="cls-1" d="M202.12,194.05v5.7c0,6.68-2.9,10.79-8.7,12.33l-.04.11c1.78,3.78,2.67,7.95,2.67,12.51,0,3.92-.67,7.54-2,10.85s-3.17,6.13-5.52,8.45c-2.35,2.32-5.19,4.12-8.52,5.42s-6.94,1.94-10.84,1.94-7.59-.65-10.94-1.96-6.2-3.12-8.55-5.45-4.19-5.14-5.51-8.45c-1.32-3.3-1.98-6.9-1.98-10.8s.66-7.5,1.98-10.82c1.32-3.31,3.15-6.14,5.51-8.46,2.35-2.33,5.2-4.15,8.55-5.45,3.35-1.31,7-1.96,10.94-1.96,2.83,0,5.52.34,8.07,1.03,2.55.69,4.88,1.68,6.97,2.98s3.93,2.86,5.52,4.69c.76-.55,1.27-1.31,1.53-2.28s.39-2.3.39-3.99v-6.38h10.44ZM175.62,236.59c1.91-1.22,3.39-2.88,4.42-4.95,1.03-2.08,1.55-4.39,1.55-6.93s-.52-4.85-1.55-6.93c-1.03-2.08-2.51-3.73-4.42-4.95-1.91-1.22-4.07-1.84-6.47-1.84s-4.55.61-6.45,1.82c-1.9,1.21-3.38,2.86-4.44,4.95-1.06,2.09-1.59,4.41-1.59,6.95s.53,4.85,1.59,6.93c1.06,2.08,2.54,3.73,4.46,4.95,1.91,1.22,4.06,1.84,6.43,1.84s4.56-.61,6.47-1.84Z"/><path class="cls-1" d="M205.61,198.75h14.08v51.86h-14.08v-51.86Z"/><path class="cls-1" d="M298.57,198.75v51.86h-13.72v-25.56h-.21l-8.7,16.18h-8.84l-8.73-16.25h-.18v25.63h-13.72v-51.86h14.04l12.9,25.63h.29l12.8-25.63h14.08Z"/><path class="cls-1" d="M364.5,194.05v5.7c0,6.68-2.9,10.79-8.7,12.33l-.04.11c1.78,3.78,2.67,7.95,2.67,12.51,0,3.92-.67,7.54-2,10.85s-3.17,6.13-5.52,8.45c-2.35,2.32-5.19,4.12-8.52,5.42s-6.94,1.94-10.84,1.94-7.59-.65-10.94-1.96-6.2-3.12-8.55-5.45-4.19-5.14-5.51-8.45c-1.32-3.3-1.98-6.9-1.98-10.8s.66-7.5,1.98-10.82c1.32-3.31,3.15-6.14,5.51-8.46,2.35-2.33,5.2-4.15,8.55-5.45,3.35-1.31,7-1.96,10.94-1.96,2.83,0,5.52.34,8.07,1.03,2.55.69,4.88,1.68,6.97,2.98s3.93,2.86,5.52,4.69c.52-.36.93-.84,1.21-1.46.29-.62.48-1.3.57-2.03s.14-1.66.14-2.78v-6.38h10.44ZM338,236.59c1.91-1.22,3.39-2.88,4.42-4.95,1.03-2.08,1.55-4.39,1.55-6.93s-.52-4.85-1.55-6.93c-1.03-2.08-2.51-3.73-4.42-4.95-1.91-1.22-4.07-1.84-6.47-1.84s-4.55.61-6.45,1.82c-1.9,1.21-3.38,2.86-4.44,4.95-1.06,2.09-1.59,4.41-1.59,6.95s.53,4.85,1.59,6.93c1.06,2.08,2.54,3.73,4.46,4.95,1.91,1.22,4.06,1.84,6.43,1.84s4.56-.61,6.47-1.84ZM329.52,186.65c-.58.23-1.11.47-1.57.73-.46.26-.87.52-1.23.79l-3.39-3.35c1.02-.93,2.31-1.72,3.85-2.39,1.54-.67,3.22-1,5.03-1,2.59,0,4.59.54,5.99,1.64s2.1,2.55,2.1,4.38c0,1.02-.29,1.94-.86,2.74s-1.36,1.47-2.37,2c-1.01.52-2.2.93-3.58,1.21l-.32,1.53-4.78.36c-.81-.95-1.21-1.71-1.21-2.28,0-.48.29-.95.87-1.43.58-.48,1.22-.89,1.92-1.25.7-.36,1.34-.8,1.92-1.32.58-.52.87-1.06.87-1.6,0-.4-.15-.69-.45-.86-.3-.17-.75-.25-1.37-.25-.38,0-.86.11-1.44.34Z"/><path class="cls-1" d="M401.74,250.58c-2.26-.52-4.39-1.28-6.4-2.26-2.01-.99-3.85-2.24-5.52-3.76-1.68-1.52-3.11-3.24-4.31-5.17-1.2-1.92-2.13-4.13-2.8-6.61-.67-2.48-1-5.14-1-7.97,0-2.47.27-4.85.82-7.13s1.33-4.41,2.35-6.4,2.32-3.79,3.89-5.42c1.57-1.63,3.33-3.02,5.29-4.19,1.96-1.17,4.19-2.07,6.7-2.71,2.51-.64,5.17-.96,8-.96,3.78,0,7.55.83,11.32,2.49,3.77,1.66,7.04,4.17,9.82,7.52l-10.16,8.7c-.59-.67-1.25-1.29-1.98-1.87-.73-.58-1.55-1.15-2.48-1.69s-1.95-.98-3.08-1.3c-1.13-.32-2.28-.48-3.44-.48-1.28,0-2.53.18-3.74.53-1.21.36-2.35.91-3.4,1.66-1.06.75-1.98,1.65-2.76,2.71-.78,1.06-1.4,2.32-1.85,3.78-.45,1.46-.68,3.05-.68,4.76s.29,3.43.86,5.03,1.38,2.99,2.42,4.21c1.05,1.21,2.36,2.17,3.94,2.89,1.58.71,3.32,1.07,5.22,1.07,2.02,0,4.03-.49,6.04-1.46,2.01-.97,3.65-2.25,4.94-3.81l10.16,8.73c-2.4,2.95-5.43,5.33-9.09,7.16s-7.68,2.74-12.05,2.74c-2.42,0-4.76-.26-7.02-.78Z"/><path class="cls-1" d="M464.69,242.24h-16.65l-2.6,8.38h-14.54l18.82-51.86h13.26l18.82,51.86h-14.51l-2.6-8.38ZM453.64,186.88c-.83.4-1.56.82-2.17,1.25l-3.39-3.35c1.02-.93,2.31-1.72,3.85-2.39,1.54-.66,3.22-1,5.03-1,1.71,0,3.18.26,4.42.77,1.24.51,2.16,1.22,2.76,2.12.61.9.91,1.95.91,3.14,0,1.52-.61,2.79-1.82,3.79s-2.88,1.73-4.99,2.16l-.32,1.53-4.78.36c-.81-.95-1.21-1.71-1.21-2.28,0-.38.19-.76.57-1.14.38-.38.84-.73,1.39-1.05s1.1-.65,1.66-.98c.56-.33,1.03-.71,1.41-1.12s.57-.85.57-1.3c0-.4-.15-.69-.45-.86-.3-.17-.75-.25-1.37-.25-.55,0-1.24.2-2.07.61ZM461.05,230.58l-4.63-14.9h-.14l-4.63,14.9h9.41Z"/><path class="cls-1" d="M539.61,198.75v51.86h-13.72v-25.56h-.21l-8.7,16.18h-8.84l-8.73-16.25h-.18v25.63h-13.72v-51.86h14.04l12.9,25.63h.29l12.8-25.63h14.08Z"/><path class="cls-1" d="M564.05,198.75h14.04v20.67h15.65v-20.67h14.04v51.86h-14.04v-18.89h-15.65v18.89h-14.04v-51.86Z"/><path class="cls-1" d="M673.8,194.05v5.7c0,2.38-.36,4.43-1.09,6.15s-1.77,3.08-3.14,4.08-2.94,1.72-4.72,2.17-3.81.65-6.1.61v16.08c0,4.54-.83,8.49-2.49,11.85-1.66,3.36-4.16,5.98-7.49,7.86-3.33,1.88-7.32,2.82-11.98,2.82-3.28,0-6.25-.49-8.91-1.48-2.66-.99-4.95-2.42-6.86-4.29-1.91-1.88-3.39-4.24-4.44-7.09s-1.57-6.07-1.57-9.66v-30.08h14.04v29.3c0,1.9.27,3.62.8,5.15.54,1.53,1.4,2.79,2.6,3.78s2.64,1.48,4.33,1.48c1.52,0,2.88-.4,4.08-1.2,1.2-.79,2.15-1.99,2.85-3.58s1.05-3.47,1.05-5.63v-29.3h13.97v8.88c.67-.09,1.24-.24,1.73-.43.49-.19.9-.44,1.23-.75s.61-.65.82-1.02c.21-.37.38-.82.5-1.36.12-.53.2-1.08.25-1.64s.07-1.23.07-2.01v-6.38h10.44ZM642.11,193.9h-11.69l7.98-11.09,12.73-.07-9.02,11.16Z"/><path class="cls-1" d="M722.05,198.75v51.86h-14.4l-17-28.37h-.18v28.37h-13.79v-51.86h13.97l17.32,29.23h.18v-29.23h13.9Z"/><path class="cls-1" d="M746.59,250.15c-2.7-.74-5.17-1.84-7.43-3.32-2.26-1.47-4.21-3.25-5.85-5.33-1.64-2.08-2.92-4.54-3.83-7.4s-1.37-5.95-1.37-9.3c0-2.99.37-5.84,1.12-8.54.75-2.7,1.87-5.16,3.35-7.38,1.49-2.22,3.28-4.14,5.38-5.76,2.1-1.62,4.57-2.88,7.41-3.78,2.84-.9,5.91-1.35,9.21-1.35,2.57,0,5.14.36,7.73,1.07s5.08,1.8,7.49,3.26,4.46,3.21,6.17,5.26l-9.84,8.3c-3.38-3.23-7.24-4.85-11.58-4.85-1.26,0-2.48.19-3.65.57-1.18.38-2.27.96-3.28,1.73-1.01.77-1.89,1.7-2.64,2.78-.75,1.08-1.34,2.36-1.76,3.85-.43,1.48-.64,3.1-.64,4.83,0,1.85.29,3.61.86,5.26.57,1.65,1.37,3.11,2.41,4.38,1.03,1.27,2.36,2.28,3.97,3.01,1.62.74,3.4,1.1,5.35,1.1,2.71,0,5.3-.57,7.77-1.71v-4.78h-8.84v-11.19h21.85v24.13c-2.4,1.8-5.49,3.3-9.27,4.47s-7.62,1.76-11.51,1.76c-3.02,0-5.88-.37-8.57-1.1Z"/><path class="cls-1" d="M799.46,198.75h14.04v20.67h15.65v-20.67h14.04v51.86h-14.04v-18.89h-15.65v18.89h-14.04v-51.86Z"/><path class="cls-1" d="M865.29,249.4c-3.35-1.31-6.2-3.12-8.55-5.45-2.35-2.33-4.19-5.14-5.51-8.45-1.32-3.3-1.98-6.9-1.98-10.8s.66-7.5,1.98-10.82c1.32-3.31,3.15-6.14,5.51-8.46,2.35-2.33,5.2-4.15,8.55-5.45,3.35-1.31,7-1.96,10.94-1.96s7.51.65,10.84,1.94,6.17,3.1,8.52,5.42c2.35,2.32,4.19,5.14,5.53,8.47,1.33,3.33,2,6.95,2,10.87s-.67,7.54-2,10.85-3.17,6.13-5.53,8.45c-2.35,2.32-5.19,4.12-8.52,5.42s-6.94,1.94-10.84,1.94-7.59-.65-10.94-1.96ZM882.67,236.59c1.91-1.22,3.39-2.88,4.42-4.95,1.03-2.08,1.55-4.39,1.55-6.93s-.52-4.85-1.55-6.93c-1.03-2.08-2.51-3.73-4.42-4.95-1.91-1.22-4.07-1.84-6.47-1.84s-4.55.61-6.45,1.82c-1.9,1.21-3.38,2.86-4.44,4.95-1.06,2.09-1.59,4.41-1.59,6.95s.53,4.85,1.59,6.93c1.06,2.08,2.54,3.73,4.46,4.95,1.91,1.22,4.06,1.84,6.43,1.84s4.56-.61,6.47-1.84ZM881.65,257.62c1.4,1.34,2.1,3.02,2.1,5.04,0,1.28-.31,2.45-.94,3.51-.63,1.06-1.52,1.89-2.67,2.51-1.15.62-2.44.93-3.87.93-1.07,0-2.07-.18-3.01-.54-.94-.36-1.73-.84-2.39-1.46s-1.17-1.35-1.53-2.21-.55-1.77-.55-2.75c0-2.04.7-3.73,2.1-5.06,1.4-1.33,3.2-2,5.38-2s3.98.67,5.38,2.01Z"/><path class="cls-1" d="M927.52,250.58c-2.26-.52-4.39-1.28-6.4-2.26s-3.85-2.24-5.52-3.76c-1.68-1.52-3.11-3.24-4.31-5.17-1.2-1.92-2.13-4.13-2.8-6.61-.67-2.48-1-5.14-1-7.97,0-2.47.27-4.85.82-7.13.55-2.28,1.33-4.41,2.35-6.4,1.02-1.98,2.32-3.79,3.88-5.42,1.57-1.63,3.33-3.02,5.29-4.19,1.96-1.17,4.19-2.07,6.7-2.71,2.51-.64,5.17-.96,8-.96,3.78,0,7.55.83,11.32,2.49,3.77,1.66,7.04,4.17,9.82,7.52l-10.16,8.7c-.59-.67-1.25-1.29-1.98-1.87s-1.55-1.15-2.48-1.69-1.95-.98-3.08-1.3-2.28-.48-3.44-.48c-1.28,0-2.53.18-3.74.53-1.21.36-2.35.91-3.4,1.66s-1.98,1.65-2.76,2.71c-.79,1.06-1.4,2.32-1.85,3.78-.45,1.46-.68,3.05-.68,4.76s.29,3.43.86,5.03,1.38,2.99,2.42,4.21c1.05,1.21,2.36,2.17,3.94,2.89s3.32,1.07,5.22,1.07c2.02,0,4.03-.49,6.04-1.46s3.65-2.25,4.94-3.81l10.16,8.73c-2.4,2.95-5.43,5.33-9.09,7.16-3.66,1.83-7.68,2.74-12.05,2.74-2.42,0-4.76-.26-7.02-.78Z"/><path class="cls-1" d="M977.41,198.75h14.04v20.67h15.65v-20.67h14.04v51.86h-14.04v-18.89h-15.65v18.89h-14.04v-51.86Z"/><path class="cls-1" d="M1043.24,249.4c-3.35-1.31-6.2-3.12-8.55-5.45-2.35-2.33-4.19-5.14-5.51-8.45-1.32-3.3-1.98-6.9-1.98-10.8s.66-7.5,1.98-10.82c1.32-3.31,3.15-6.14,5.51-8.46,2.35-2.33,5.2-4.15,8.55-5.45,3.35-1.31,7-1.96,10.94-1.96s7.51.65,10.84,1.94,6.17,3.1,8.52,5.42c2.35,2.32,4.19,5.14,5.53,8.47,1.33,3.33,2,6.95,2,10.87s-.67,7.54-2,10.85-3.17,6.13-5.53,8.45c-2.35,2.32-5.19,4.12-8.52,5.42s-6.94,1.94-10.84,1.94-7.59-.65-10.94-1.96ZM1060.62,236.59c1.91-1.22,3.39-2.88,4.42-4.95,1.03-2.08,1.55-4.39,1.55-6.93s-.52-4.85-1.55-6.93c-1.03-2.08-2.51-3.73-4.42-4.95-1.91-1.22-4.07-1.84-6.47-1.84s-4.55.61-6.45,1.82c-1.9,1.21-3.38,2.86-4.44,4.95-1.06,2.09-1.59,4.41-1.59,6.95,0,3.87,1.18,7.13,3.53,9.77,2.35,2.64,5.33,3.96,8.95,3.96,2.4,0,4.56-.61,6.47-1.84ZM1049.8,193.01c0-.48.29-.95.87-1.43.58-.48,1.22-.89,1.92-1.25.7-.36,1.34-.8,1.92-1.32.58-.52.87-1.06.87-1.6,0-.4-.15-.69-.45-.86-.3-.17-.75-.25-1.37-.25-.38,0-.86.11-1.44.34-.58.23-1.1.47-1.57.73-.46.26-.87.52-1.23.79l-3.39-3.35c1.02-.93,2.3-1.72,3.85-2.39,1.54-.67,3.22-1,5.03-1,2.59,0,4.59.54,5.99,1.64s2.1,2.55,2.1,4.38c0,1.52-.61,2.79-1.82,3.79s-2.88,1.73-4.99,2.16l-.32,1.53-4.78.36c-.81-.95-1.21-1.71-1.21-2.28Z"/><path class="cls-1" d="M1087.4,198.75h14.08v51.86h-14.08v-51.86Z"/></g></svg>