<?xml version="1.0" encoding="UTF-8"?><svg id="Layer_2" xmlns="http://www.w3.org/2000/svg" viewBox="0 0 39.55 39.55"><defs><style>.cls-1{fill:#1d3072;stroke-width:0px;}</style></defs><g id="Layer_1-2"><path class="cls-1" d="M19.77,0C8.87,0,0,8.87,0,19.77s8.87,19.77,19.77,19.77,19.77-8.87,19.77-19.77S30.68,0,19.77,0ZM19.77,37.01c-9.5,0-17.24-7.73-17.24-17.24S10.27,2.54,19.77,2.54s17.24,7.73,17.24,17.24-7.73,17.24-17.24,17.24Z"/><path class="cls-1" d="M28.51,14.58c0,.8,0,1.6,0,2.4,0,.27,0,.54,0,.81,0,.15-.05.21-.21.21-1.59-.02-3.04-.49-4.37-1.35-.05-.03-.1-.06-.19-.13,0,.11,0,.18,0,.24,0,2.22,0,4.45,0,6.67-.01,3.15-2.26,5.77-5.37,6.27-1.4.23-2.76.04-3.98-.66-1.78-1.02-2.94-2.53-3.28-4.6-.5-3.06,1.26-5.99,4.17-7,.89-.31,1.8-.4,2.74-.32.14.01.22.05.22.22,0,1.03.02,2.07.03,3.1,0,.23-.01.24-.24.18-1.52-.39-3.37.64-3.51,2.51-.09,1.13.36,1.97,1.25,2.64,1.53,1.16,4,.29,4.42-1.79.04-.21.06-.42.06-.64,0-4.46,0-8.92,0-13.38,0-.17.03-.24.22-.23,1.01.01,2.03,0,3.04,0,.11,0,.19,0,.19.15.04,1.31.62,2.37,1.59,3.22.67.59,1.4,1.08,2.26,1.32.29.08.59.09.95.14Z"/></g></svg>