<?xml version="1.0" encoding="UTF-8"?><svg id="Layer_2" xmlns="http://www.w3.org/2000/svg" viewBox="0 0 46.47 46.47"><defs><style>.cls-1{fill:#fff;stroke-width:0px;}</style></defs><g id="Layer_1-2"><path class="cls-1" d="M23.24,0C10.41,0,0,10.4,0,23.24s10.41,23.23,23.24,23.23,23.23-10.4,23.23-23.23S36.07,0,23.24,0ZM33.02,30.59c-2.66,2.23-5.82,3.23-9.27,3.37-1.01.04-2.02-.05-3.03-.17-1.15-.14-2.23.08-3.24.65-.87.5-1.77.92-2.78,1.05-.17.02-.34.07-.54,0,.39-.43.78-.83,1.12-1.26.36-.44.66-.9.71-1.5.03-.31-.07-.49-.35-.64-1.92-.98-3.47-2.39-4.63-4.2-1.3-1.99-1.83-4.18-1.56-6.56.03-.13.07-.26.09-.4.28-1.75,1-3.31,2.09-4.69,1.67-2.11,3.84-3.52,6.36-4.39,3.03-1.04,6.13-1.19,9.22-.36,5.02,1.33,8.63,4.17,9.78,9.52.5,3.95-1,7.09-3.98,9.59Z"/></g></svg>