<?xml version="1.0" encoding="UTF-8"?><svg id="Layer_2" xmlns="http://www.w3.org/2000/svg" viewBox="0 0 82.19 64.75"><defs><style>.cls-1{fill:#5ad9ff;fill-rule:evenodd;stroke-width:0px;}</style></defs><g id="Layer_1-2"><path class="cls-1" d="M46.27,27.52c-2.92,1.13-6.79,3.26-10.13,4.86-1.17.56-2.35,1.27-3.38,1.62-1.02.34-2.71.61-3.85-.5-.93-.9-.73-2.02-.56-3.3.47-3.42.92-6.89,1.31-10.21-1.49,2.78-3.28,6.07-4.9,9.04-.57,1.06-.98,2.29-1.73,3.03-.9.9-2.48,1-3.47.3-.53-.37-1.02-1.19-1.51-1.92-2.93-4.4-6-8.95-8.9-13.27,1.36,5.71,2.9,12.15,4.48,18.32.25.99.52,1.91.19,2.64-.84,1.89-3.15,2.17-4.47.77-.97-1.03-1.1-3.07-1.5-4.66C5.55,25.04,3.24,15.92.86,6.48.48,5-.31,2.89.13,1.8.81.1,2.78-.5,4.17.45c.8.54,1.6,1.97,2.35,3.07,4.86,7.11,9.53,14.42,14.35,21.37,3.16-5.74,6.84-12.76,10.13-18.83.65-1.19,1.19-2.55,2.2-3.16.93-.55,2.47-.43,3.46.69,1.16,1.32.18,4.26-.04,5.83-.84,6-1.57,11.9-2.47,17.79,6.86-3.2,13.82-6.64,20.92-10.08,1.08-.52,2.2-1.1,3.05-.87,1.59.42,2.49,2.22,1.99,3.54-.5,1.31-2.29,2.83-3.42,4.08-3.55,3.95-7.27,8.24-10.58,11.87.63.36,1.39.18,2.07.23,9.21.65,18.66,1.62,28.15,2.15,1.22.07,3.29-.03,4.35.51,1.56.8,1.99,2.75.94,4.1-1.02,1.3-3.35,1.32-4.92,1.67-11.68,2.59-23.2,5.26-34.76,7.82,5.66,2.11,12.04,4.63,18.14,6.85.92.33,2.06.74,2.64,1.42.72.85.65,2.43-.14,3.39-1.73,2.1-5.31-.16-7.79-1.06-6.99-2.53-13.1-4.83-20.12-7.51-1.27-.49-3.16-.99-4.01-1.74-1.05-.93-1.44-2.78.11-4.16.68-.6,2.51-.83,3.72-1.1,6.44-1.45,12.33-2.78,18.65-4.1,2.57-.54,5.13-1.25,7.58-1.73.06-.05.14-.02.2-.1-5.68-.33-13.07-1.04-19.43-1.49-1.05-.07-2.07,0-2.81-.56-.85-.64-1.25-2.06-1-2.89.26-.86,1.15-1.6,1.93-2.49,2.21-2.51,4.47-5.12,6.65-7.44Z"/></g></svg>