<svg xmlns="http://www.w3.org/2000/svg" viewBox="0 0 67.41 81.58"><defs><style>.cls-1{fill:#fff;}</style></defs><g id="Layer_2" data-name="Layer 2"><g id="Layer_1-2" data-name="Layer 1"><rect class="cls-1" x="31.88" y="68.84" width="3.65" height="8.23"/><path class="cls-1" d="M50.42,81.58H17s2.13-6.83,16.71-6.83C49.51,74.75,50.42,81.58,50.42,81.58Z"/><path class="cls-1" d="M52.46,65.56A36.47,36.47,0,0,1,20.48,0l1.6,3.28a32.82,32.82,0,1,0,28.78,59Z"/><path class="cls-1" d="M64.35,19.17A30.25,30.25,0,1,0,50.43,59.64,30.29,30.29,0,0,0,64.35,19.17ZM48.68,56A26.26,26.26,0,1,1,60.77,20.92,26.26,26.26,0,0,1,48.68,56Z"/><path class="cls-1" d="M60.32,29.23s0,0,0,0,0,0,0,0S60.3,29.25,60.32,29.23Z"/><path class="cls-1" d="M14.38,22.73h0Z"/><path class="cls-1" d="M14.39,22.71s0,0,0,0,0,0,0,0Z"/><path class="cls-1" d="M56.3,25.6a16.37,16.37,0,0,1,1.25,2.15c.07.1.42.5.53.62l.16.17c.09.09.2.17.28.26s.12.17.19.23a.89.89,0,0,0,.31.12s0-.07.06-.1a1.49,1.49,0,0,0-.09-.4,7.29,7.29,0,0,0-1.08-1.3,1.23,1.23,0,0,1-.46-1h.07c.36.33.36.33.52.27s.13.22.28.22a3,3,0,0,0-.1-1.44c-.23-.51-.23-.51-1.3-1.69a1.14,1.14,0,0,1-.35-.68c0-.22.3-.29.26-.52a4.06,4.06,0,0,1,0-.69s0-.05,0-.07c.14-.19-.42-1.43-.57-1.71a4.8,4.8,0,0,0-.39-.66.81.81,0,0,0-.12-.14c-.07-.08-.17-.13-.25-.22s-.11-.18-.18-.25-.58-.51-.66-.56-.23-.12-.36-.36l-.24-.25.22.22a2.73,2.73,0,0,0-.25-.48c-.06-.07-.14-.13-.19,0l0,.07,0,.21a1.12,1.12,0,0,1-.49-.21c-.12-.17,0-.39-.08-.57l0-.14c.2.16.23.16.29.16s0-.15,0-.23.15.05.27.16a6.52,6.52,0,0,0,1.08.69c.1,0,.09-.29-.43-.74-.22-.18-.51-.28-.71-.48,0,0-.81-.92-.89-1.09.1,0,.11,0,.14,0A7.26,7.26,0,0,0,51,13l-.36-.22a.17.17,0,0,0,0,.1s0-.07,0-.11c-.65-.38-.94-.56-1.07-.5s0,0,0,0l-.92-.47a2.76,2.76,0,0,0-.29-.3c-.25-.19-.58-.26-.77-.53,0,0,0,0,0,0s.07-.08,0-.25.1-.06.16-.1,0,0-1.23-.83c.1,0,.19.06.28.07s0,0-.49-.27l.12,0,.16.07c.16.07.34.17.44.22C50,11.5,50,11.5,50.12,11.52a10.4,10.4,0,0,0-1.81-1.12,19.69,19.69,0,0,0-3.37-1.57h0c-.35-.12-.71-.23-1.1-.33l.31,0-.41-.1h0L44,8.5h0l-.26-.07h0l-.15,0h0l-.38-.09H43a.87.87,0,0,0-.29-.06l.24.05a2.15,2.15,0,0,0-.6,0s0,0,0,0l0,0a.49.49,0,0,1,0,.07c.18.08.39.07.57.16-.11,0-.22,0-.33,0a.53.53,0,0,0,.17.08l0,.08.11.07c-.15.09-.32,0-.49.09,0,0,.12,0,.15.1l0,.08c-.64.09-.64.09-.64.12s.06.05.21.09h-.35a.58.58,0,0,0,0,.13c-.43-.09-.6-.1-.63,0a.77.77,0,0,0,.61.14,2.4,2.4,0,0,1,.69.24c-.09,0-.13.12-.21.17v.05l.15.1h-.08a.84.84,0,0,0-.52,0,1.05,1.05,0,0,0-.61,0h0c0,.08-.12.09-.18.15s.1.12.36.2c0,0,0,.07,0,.09a2.16,2.16,0,0,0,.43.14h0l-.44-.1c0,.06,0,.08-.06.1s-.29,0-.42.1-.18.2-.32.2h-.07c-.34,0-.62-.23-1-.26s-.41,0-.47,0-.09.23-.25.22a3.87,3.87,0,0,1-.65-.09,1.77,1.77,0,0,0-.73.06s0,0,0,0a1,1,0,0,0,.08.11c-.42,0-.84,0-1.26,0-.09,0-.1,0-.32.13l0,0h0c0,.1.11.12.63.2,0,.23.6.18.61.17a.11.11,0,0,0,0-.08c.71-.18.71-.18.66-.25.17,0,.34.07.5,0l0,0h0l0,0h0l0,0h0l.38.14a3.34,3.34,0,0,1,0,.45c0,.14-.25.08-.23.23,0,.39,0,.39,0,.41h0c-.06.1,0,.27.51.36.13,0,.13,0,.16.06s0,0,0,0l-.21,0c0,.17-.2.16-.28.25s.23.25.78.4c-.15.06-.35,0-.48.15s.1.19.14.29c-.43-.1-.54-.12-.59-.09a1.3,1.3,0,0,0-1.7-.53,1,1,0,0,0-.24.17c-.15-.13-.54-.23-.57-.07a3.46,3.46,0,0,1-.22.75.8.8,0,0,0,0,.9.54.54,0,0,0,.27.27.35.35,0,0,0-.07.24h0c0,.15.19.29.42.33.73.08.88.1,1,0a2.17,2.17,0,0,0,.11.42,1.12,1.12,0,0,0,.17.21l0,0c-.2-.06-.29,0-.32.14a3.07,3.07,0,0,0,.32.31l-.32-.29c0,.13,0,.17-.13.21l-.37-.3c-.08,0-.34,0-.34.16s0,.31.54.28c0,.07,0,.07-.07.27,0,0,0,.1-.26,0s-.4.17-.4.18c-.1.27.56.23.39.47,0,0-.32.37-.51.19a1.41,1.41,0,0,0-1.32-.43,1.49,1.49,0,0,1-.87.19.68.68,0,0,0-.63.05,2.59,2.59,0,0,0-.55.33c-.1.1-.05.26-.17.36-.47.28-.57,1.88-.6,2.41,0,.71,0,.71-.13.94-.28.85-.28.85-.27.88s.36,1.27.67,1.35.49-.11.58-.32.14-.31.35-.2.44.64.88.65a.43.43,0,0,0,.26-.09c.3-.22.33-1.27.15-1.62-.73-1.46-.73-1.46-.48-1.61a3,3,0,0,0,.48,1c.09.08.13.08.76.09.05.28.11.36.27.45,0,.25-.24.41-.22.66a2.77,2.77,0,0,1,0,.71v.05a.24.24,0,0,1-.13.18h0c-.27.15-.35.48-.63.63h0c-.74.35-.76.18-.8-.11,0,0-.17-.81-.67-.48-.2.13-.16.67.13,1s.22.36.06.48h0a.94.94,0,0,0-.41.71c0,.49,0,.49-.07.52l.3-.14s0,0,0,0l-.32.14-.06.07c-.12.19,0,.42-.16.61s-.32.15-.41.32A.39.39,0,0,0,32,28c-.37.16-.41.18-.41.25s.16.32.32.39c.79.28.84.49,1,1.17-1.4.55-1.4.55-1.43.69s.64,1.88.88,1.95c.57.2.57.2,1.07-.22h0c1-.58.4-1.58.63-2.36.18-.57.18-.57.41-.58s.17,0,.64-.75a1.24,1.24,0,0,0,.22.18,15.22,15.22,0,0,0,1.63.34c.31.09.23.57.59.59s.23-.91.23-.92c-.33-.79-1.42,0-1.76-.82.17-.25.17-.25,1.43.17a.67.67,0,0,1,.12.06c.19.12.26.34.44.45s.58-.12.67.2.12.37.21.39a.42.42,0,0,0,.39-.27c.16-.34-.28-.6-.15-.94.71-.1,1,1.25,1.68.74a.52.52,0,0,0,.14-.2c.07-.22.1-.32.91-.66.58.25.61,1.34.62,1.93-.19,0-.38-.07-.58,0s0,.48-.3.55a3.45,3.45,0,0,0-.67.15.81.81,0,0,1-.45.11c-.75,0-1.4-.08-1.16.59.12.33,0,.51-.36.57,0,0-1.74-.11-1.85-.14s-.3-.16-.34-.56,0-.45-.23-.41c-.67.16-1.14.71-1.77.95a10,10,0,0,0-.78.94c-.27.26-.8-.08-1,.38l-.24,1c-.1.67.41,1.37-.07,2-.2.29-.23.34-.34,1.71,0,.32.19.54.29.81s.31.58.42.88.06.74.21,1.08.41.88.7.92c.59.08.59.08.84.3s.34.36.42.38a5.15,5.15,0,0,0,2,.48s.06,0,.09,0,.21-.33.37-.43.48,0,.68-.17l.73-.82a.61.61,0,0,1,.43-.28c.27,0,.42.23.66.26s.46-.32.75-.31a.34.34,0,0,1,.24.09s.53.9.47,1a.42.42,0,0,0,0,.45c.48.73,1.39.84,2,1.42.76.72-.28,2.22,1,2.66,0,0,1.19.75,1.35,1.12L47.29,49a.53.53,0,0,0,.56,0,7.3,7.3,0,0,0,1.52-1.14c1-2.59.45-3.8.45-3.81s-.09-.14-.06-.19c.16-.39.44-.73.59-1.12s.21-.52.09-1.36-1.16-.83-1.27-1.62l-.09-1a9.42,9.42,0,0,1,.65-1.84,1.2,1.2,0,0,0,.15-.53,19.75,19.75,0,0,0-.12-2.31.9.9,0,0,0-.31.13h0l.32-.2v-.48a.66.66,0,0,0,0-.23.32.32,0,0,0-.16-.17c-.17,0-.31,0-.5.31a1.67,1.67,0,0,1-1.19.84c-.25-.1-.36-.37-.57-.51s-.56,0-.8-.19a.58.58,0,0,1-.1-.12c-.18-.27-.58-.25-.75-.53s-.45-.45-.68-.69c-.48-.51-1.12-.84-1.61-1.36a.19.19,0,0,1,0-.32.8.8,0,0,1,.77.43.83.83,0,0,0,.31.28,10.81,10.81,0,0,0,1.75,1.12l.39.18A2.4,2.4,0,0,1,47,33a3.77,3.77,0,0,0,1,.88A5.54,5.54,0,0,0,49,32.41l.09-.14,0-.06a7.93,7.93,0,0,0,.57-1.44l.12-.78c0-.16-.1-.31-.09-.48a1.92,1.92,0,0,0,0-.62.26.26,0,0,0-.15-.17c-.09,0-.18,0-.27,0s-.35-.22-.55-.28c-.58-.18-.69-.1-.74-.05s0,.49-.22.67-.26.06-.52-.08c-.52-.29-.54-.3-.65-.32a.84.84,0,0,1-.66-.48c0-.09,0-.2.16-.18a.2.2,0,0,1,.13.06,1.53,1.53,0,0,0,.61.24,3.22,3.22,0,0,0,.45,0,.92.92,0,0,0,.61-.25c.29-.24.54.08.83,0l.58-.15a.3.3,0,0,0,.11-.06c.11-.08.11-.23.21-.31s.24,0,.33-.1a1.3,1.3,0,0,0,.23-.45c.23.1.37.34.62.42s.2.06.4-.1c.21.46.27.46.77.18a15.61,15.61,0,0,0,1.45,1.9,13.69,13.69,0,0,0,1.26,1c.12.1.17.15.26.11s.09-.15.08-.22a.5.5,0,0,0,0-.13v0a3.75,3.75,0,0,0-.19-.53s-.49-1.24-.51-1.4a14.33,14.33,0,0,1,.06-1.47,12.67,12.67,0,0,1-.06-1.37c0-.21.27-.28.32-.48l0,0c.2.11.46.11.66.26a1.92,1.92,0,0,1,.48.65.51.51,0,0,0,.23.25C56.17,26.08,56.17,26.08,56.3,25.6ZM35.81,22.34Zm4.1-7.91c.06-.08.16-.17.39,0v0a1.3,1.3,0,0,0-.31.16c0,.13.1.2.15.3A18.59,18.59,0,0,0,38.48,14l0-.15C38.75,14.05,39.69,14.65,39.91,14.43Zm-3.51,1s0,0-.06.06l-.07,0,0-.12.1.07h0S36.42,15.44,36.4,15.45Z"/><path class="cls-1" d="M33.77,55.51c.24-.36.24-.36-.46-.75.12,0,.29-.08.41-.13a2.2,2.2,0,0,1-.1-.56l.09-.21a8.65,8.65,0,0,0-.78-1c.22-.44.93-.48.91-1.13l-1.1-3.36c-.93-1.54-4.59-1.1-4.62-1.09,0-.41-.08-1.16-4.6-2.51-.31.18-.31.18-1.3,0l-.11.18a1.32,1.32,0,0,1-.43-.09c-.38.64-.38.64-.55.73-.92-.27-1-1.4-1.87-1.77s-.53-1.39-1.32-1.68c-.21.14-.21.14-.2.82l-.16,0a3.85,3.85,0,0,1-1.29-3.43c.28,0,.31,0,.58.25a.7.7,0,0,0,.29-.32c.46-.1.46-.1,1.44,1.62l.19-.13c0-.08,0-.18,0-.27,0-.71-.64-1.22-.66-1.93s.74-1.05.57-1.75c-.27-1.1.75-1.84.8-2.86l.43.16c.22-.11,1.16-1,.74-1.58a.89.89,0,0,0-.31.27c-.61-.45-.5-1.07-.26-1.19s.2-.1,1.2-1a22.65,22.65,0,0,0-1.52-3.17c-.21.2-.34.47-.56.64-.29-1.35-.29-1.35-.39-1.53-1.38-.08-1.46,2.91-1.43,4.2-1-1.83-1-1.83-1.13-1.87-.17-1.11.5-2,.84-2.94l.1.06c-.08.21-.12.42.05.52s.05,0,.3,0c0,.05.07,0,.09,0a1.83,1.83,0,0,0,.22-.36v0a1.17,1.17,0,0,0,.46-.12s0,0,0,0,.29-.11.4,0,.2.59.47.79a.81.81,0,0,0,.25.08h0c.15-.07.08-.34.3-.35h0c.3-.09.18-.91.06-1.1s-.08-.32,0-.39.05.44.25.38a.79.79,0,0,0,.34-.6c.05-.24,0-.3,0-.33s-.22-.16-.29-.27,0,0-.24-.07-.09-.14-.08-.35,0-.46-.43-.78c-.06-.05-.06-.05-.08-.41a4.46,4.46,0,0,0-.09-.55A.44.44,0,0,0,19,22s0,0-.05,0l.07,0a1.32,1.32,0,0,0,.73-1.18,1.69,1.69,0,0,1,.17-.29c.16-.23.36-.42.51-.64s.14-.34.31-.45a4,4,0,0,0,.65-.48c.19-.23.33-.51.51-.75s.22-.14.29-.24a.61.61,0,0,0,.1-.18c.08-.17.05-.19,0-.23s-.05-.08-.05-.15,0,0,0,0a.61.61,0,0,1-.33.07c-.06,0-.06,0-.33.16-.08-.07-.13.08-.21.1s0-.09-.08-.07-.12.14-.19.2l0,0c0-.26-.29,0-.29,0a2.93,2.93,0,0,0-.18.26.77.77,0,0,1-.07-.16,1.29,1.29,0,0,0-.58.61A.66.66,0,0,0,20,19c.05,0,.1,0,.16-.07l.21-.15c0,.05,0,.06-.05.15s-.2.3-.36.37-.1-.15-.16-.08a2.59,2.59,0,0,0-.26.46l-.12.17,0,0c0-.07.1-.14.16-.25.18-.33.35-.87.2-.9h-.06s-.14,0-.51.77c0,0,0,.08-.07.16a1.31,1.31,0,0,0-.47-.16s0,0,0-.06a.51.51,0,0,0,0-.13.06.06,0,0,0,0-.05c-.07,0-.14.11-.2.21a2,2,0,0,0-.34.05l0,0s0,0,0,0a.34.34,0,0,0-.14.09l-.07,0a1.23,1.23,0,0,0-.48.42c-.21.16-.53.43-.53.43a1.32,1.32,0,0,0-.12.46h0s0,0,.06,0h0c0,.08-.09.14-.07.23a.78.78,0,0,0,.27-.38c0-.05.08-.16.08-.16l.08-.09a.49.49,0,0,1,0,.12,1.16,1.16,0,0,0-.23.31c0,.09-.09.25-.14.39a1.62,1.62,0,0,0-.34.1h0c0-.06,0-.12,0-.16s-.22.22-.36.47a1.29,1.29,0,0,0-.28.53,1.93,1.93,0,0,0-.12.42h0a.79.79,0,0,0-.18.14.28.28,0,0,1,0-.09l-.16.14H15a2.51,2.51,0,0,0-.19.24,5.25,5.25,0,0,0,.14-.94.8.8,0,0,1,0-.18c.22-.46.21-.52.19-.58s0,0,0,0h0a3.05,3.05,0,0,1,.13-.31c-.17.17-.26.26-.7,1.21l0,.1-.13.29s0,0,0,0a2.45,2.45,0,0,0,.1-.23l-.12.29s0,0,0,0h0v0l-.06.1h0l-.11.26,0,0c0,.06,0,.13-.08.19l0,.11a1.21,1.21,0,0,1-.05.14.08.08,0,0,0,0,0h0s0,0-.09.19a.93.93,0,0,1-.07.2.21.21,0,0,1,0,.06c-.18.48-.33.93-.46,1.35s-.21.74-.32,1.18c0,0,0,0,0,0s0,0,0,0S13,26.85,13,27h0a.06.06,0,0,1,0,0,.11.11,0,0,1,0,0v0s0,0,0,.06c-.06.31,0,.32,0,.35l.05-.06,0,0c0-.07.11-.39.06-.45a.48.48,0,0,1,0-.28c.08-.21.16-.44.23-.66-.5,6.45-1,12,1.75,15.24a2.38,2.38,0,0,0-.2-.93c1.19,2.72,1.38,2.86,2.62,3.73.64-.35,2.18,1.49,2.21,1.51.55.78,1.65.77,2.23,1.52s.41,1.78,1,2.52c0,.05.11.13.17.18,1.76,1.57,4,2.46,5.8,4,2,1.73,4.32,3.35,7.6,3.5h.16l.21,0a.54.54,0,0,0-.27-.14A3.45,3.45,0,0,1,33.77,55.51Zm-15-31.44a.33.33,0,0,0,.05.12,1.33,1.33,0,0,0-.89-.54,1,1,0,0,1,.21-.14.18.18,0,0,1,.19.09c.08.07.1.32.21.23S18.77,23.89,18.77,24.07Zm-1-.43-.13,0,.12-.08v.06S17.8,23.62,17.8,23.64Zm1.17.79.05.08.06.07.15.59a.81.81,0,0,1-.21.16A1.39,1.39,0,0,0,19,24.43Zm-.74-2.31a.3.3,0,0,0,0-.1h.11Z"/><path class="cls-1" d="M25.8,22.14c.08-.12.07-.62-.07-.7s-.08,0-.4.07c-.14,0-.16,0-.29-.2.12-.12.12-.12.57-.22h0a.46.46,0,0,0,.07-.07c0-.19-.35-.28-.22-.52s.4.09.55-.09.08-.1.12-.89a4.52,4.52,0,0,1,.12-.64c.06-.37-.15-.72-.12-1.09s.46-.52.49-.9a.41.41,0,0,0-.11-.29,1.05,1.05,0,0,0-.79.47c0,.12,0,.12-.28.31l0,0c.06-.25.3-.42.33-.68s-.17-.4-.41,0h0c0-.19,0-.44-.58-.25a1.42,1.42,0,0,0-.63.68c-.11-.18-.11-.18-.14-.18a.92.92,0,0,0-.12.33c-.07-.07-.33-.12-.35.52l0,0c-.06-.09-.05-.21-.15-.27s-.06,0-.32.47a.08.08,0,0,1,0,0h0l-.05,0c0-.18,0-.19,0-.24l0,0a1.28,1.28,0,0,1-.57.25c-.1.11-.25.15-.35.26a1.8,1.8,0,0,0-.34.62c-.23.58-.23.58-.47.7-.51.24-.57.41-.6.48a.38.38,0,0,0,0,.21,1.15,1.15,0,0,1,0,.56c0,.16-.07.34.23.29h0c.19-.09.38-.22.58-.3a.74.74,0,0,1,.24.32c0,.53.07.69.07.69.05.23-.13.44-.09.67s.2.09.26.19a.31.31,0,0,1,0,.13c-.15.16-.07.31.09.57a.58.58,0,0,0-.14.51,1.92,1.92,0,0,0-.17,1.57c.3.24.24.63.37.93,0,0,.29.61.5.39.06-.07.08-.09.16,0,.28.17.42.12.45.1.3-.16.26-1.13.26-1.23s.21-1.23.64-1.49c.2-.06.2-.06.58-.73.21-.36.64-.45.91-.73A5,5,0,0,0,25.8,22.14Z"/><path class="cls-1" d="M49.7,12.08v0a1.71,1.71,0,0,0,.4.33c.27.18.58.28.86.46s.27.21.42.3a6.11,6.11,0,0,0,.69.38h0s0-.08-.84-.7l-.62-.4C50.49,12.39,49.76,12,49.7,12.08Z"/><path class="cls-1" d="M36.71,56.8s-.05,0,0,0a.44.44,0,0,0,.15.09s.19,0,.21,0,0,0,0,0h.17c.07,0,0-.07-.09-.09A1.08,1.08,0,0,0,36.71,56.8Z"/><path class="cls-1" d="M57,23.13s0,0,0,0a.61.61,0,0,0,.08.45c.11.2.18.17.24.15,0-.45,0-.45-.07-.5S57.08,23,57,23.13Z"/><path class="cls-1" d="M18.92,19.35S19.15,19,19,19a.71.71,0,0,0-.19.24.25.25,0,0,0,0,.18S18.85,19.46,18.92,19.35Z"/><path class="cls-1" d="M17.73,26.94c0,.09-.09.42.15.34,0-.05,0-.09,0-.14,0-.24,0-.28-.06-.28h0A.15.15,0,0,0,17.73,26.94Z"/><path class="cls-1" d="M23.21,5.6,20.93.93,17.65,2.52l2.42,5A31.78,31.78,0,0,1,23.21,5.6Z"/><path class="cls-1" d="M46.31,61.28,49,66.75l3.28-1.6L49.73,60A32.53,32.53,0,0,1,46.31,61.28Z"/></g></g></svg>