<?xml version="1.0" encoding="UTF-8"?><svg id="Layer_2" xmlns="http://www.w3.org/2000/svg" viewBox="0 0 63.72 63.73"><defs><style>.cls-1{fill:#fff;stroke-width:0px;}</style></defs><g id="Layer_1-2"><path class="cls-1" d="M31.87,0C14.27,0,0,14.27,0,31.88s14.27,31.85,31.87,31.85,31.85-14.27,31.85-31.85S49.45,0,31.87,0ZM48.54,40.84c-.01,1.48-.85,2.36-2.15,2.94-2.85,1.26-5.9,1.72-8.93,2.19-5.89.92-11.65.14-17.25-1.77-3.41-1.16-3.93-2.02-3.93-5.55,0-1.52.03-3.04,0-4.56-.03-.87,0-1.25,1.11-.88,3.32,1.11,6.71,2.04,10.05,3.09,3.04.95,6.06.94,9.1.07,3.93-1.14,7.86-2.27,12.01-3.47,0,2.75,0,5.35,0,7.94ZM53.83,35.79c0,.39-.01.74.31,1.16.7.91.63,2.17.1,3.02-.4.66-.46.9.02,1.42.33.35.31.87-.13,1.13-.74.44-1.58.4-2.32.04-.5-.25-.62-.77-.16-1.22.54-.53.39-.77-.08-1.38-.54-.69-.53-2.06-.08-2.63.79-1.01.51-2,.54-3,.06-2.11.02-4.23.02-6.53-3.74,1.15-7.44,2.07-10.96,3.44-5.93,2.3-11.7,2.32-17.67.15-4.56-1.65-9.27-2.84-13.92-4.23-.8-.24-1.6-.57-1.68-1.53-.08-1,.72-1.42,1.51-1.66,5.01-1.49,10.04-2.96,15.06-4.45l.41-.13,6.75-2.02h.65l1.33.4c5.41,1.59,10.82,3.19,16.23,4.79,1.5.44,3,.88,4.5,1.34.81.24,1.59.64,1.64,1.57.05.78-.62,1.23-1.3,1.46-.72.24-.8.72-.79,1.37.03,2.5,0,4.99.02,7.49Z"/></g></svg>