<svg xmlns="http://www.w3.org/2000/svg" viewBox="0 0 67.41 43.05"><defs><style>.cls-1{fill:#fff;}</style></defs><g id="Layer_2" data-name="Layer 2"><g id="Layer_1-2" data-name="Layer 1"><path class="cls-1" d="M66.09,4.15,66,40.81l-1.5-.58a41.36,41.36,0,0,0-14.74-2.89A41,41,0,0,0,35,40.14l-1.14.43v.13l-.18-.07-.19.07v-.14l-1.13-.43a41.38,41.38,0,0,0-14.74-2.9A41.26,41.26,0,0,0,2.83,40l-1.51.56L1.43,4.15H0v38.9H67.41V4.15Z"/><path class="cls-1" d="M2.55,2.87c0,10.65-.08,25-.12,35.67a40.77,40.77,0,0,1,30.29.1c0-10.65.08-25,.12-35.67A40.77,40.77,0,0,0,2.55,2.87ZM30,32.58c-10.29-3.19-14.41-3.2-24.71-.08V30.68c10.31-3.12,14.43-3.11,24.71.08Zm0-6c-10.29-3.19-14.41-3.2-24.71-.08V24.7c10.31-3.12,14.43-3.11,24.71.08Zm0-6c-10.29-3.19-14.41-3.21-24.71-.08V18.72C15.59,15.6,19.71,15.61,30,18.8Zm0-6c-10.29-3.2-14.41-3.21-24.71-.08V12.74C15.59,9.62,19.71,9.63,30,12.82Zm0-6C19.7,5.46,15.58,5.45,5.28,8.58V6.76C15.59,3.64,19.71,3.65,30,6.84Z"/><path class="cls-1" d="M34.69,3c0,10.65-.08,25-.11,35.67a40.79,40.79,0,0,1,30.28.1c0-10.65.08-25,.12-35.67A40.82,40.82,0,0,0,34.69,3ZM62.13,32.69c-10.29-3.2-14.4-3.21-24.71-.09V30.79c10.31-3.13,14.43-3.11,24.72.08C62.14,33.3,62.13,30.4,62.13,32.69Zm0-6c-10.29-3.2-14.4-3.21-24.71-.09V24.81c10.31-3.13,14.43-3.11,24.72.08C62.14,27.32,62.13,24.42,62.13,26.71Zm0-6c-10.29-3.2-14.4-3.21-24.71-.09V18.83c10.31-3.13,14.43-3.11,24.72.08C62.14,21.34,62.13,18.44,62.13,20.73Zm0-6c-10.29-3.2-14.4-3.21-24.71-.09V12.85c10.31-3.13,14.43-3.11,24.72.07C62.14,15.35,62.13,12.46,62.13,14.75Zm0-6c-10.29-3.2-14.4-3.21-24.71-.09V6.86c10.31-3.12,14.43-3.11,24.72.08C62.14,9.37,62.13,6.48,62.13,8.77Z"/></g></g></svg>