<svg xmlns="http://www.w3.org/2000/svg" viewBox="0 0 90 90"><defs><style>.cls-1{fill:#4d6bff;}.cls-2{fill:#fff;}</style></defs><g id="Layer_2" data-name="Layer 2"><g id="Layer_1-2" data-name="Layer 1"><path class="cls-1" d="M67.22,90H22.78A22.78,22.78,0,0,1,0,67.22V22.78A22.78,22.78,0,0,1,22.78,0H67.22A22.78,22.78,0,0,1,90,22.78V67.22A22.78,22.78,0,0,1,67.22,90"/><path class="cls-2" d="M68.8,39.57A10.68,10.68,0,0,0,58.12,28.9H30.83A10.67,10.67,0,0,0,20.16,39.57v12.7A10.67,10.67,0,0,0,30.83,63H58.12A10.68,10.68,0,0,0,68.8,52.27Zm-16,7.3L40.51,52.93c-.48.26-2.11-.09-2.11-.63V39.87c0-.56,1.64-.9,2.12-.63l11.72,6.37c.49.28,1,1,.51,1.26"/></g></g></svg>