<?xml version="1.0" encoding="UTF-8"?><svg id="uuid-79133d46-f6ca-4e40-a430-266b36788fc7" xmlns="http://www.w3.org/2000/svg" xmlns:xlink="http://www.w3.org/1999/xlink" viewBox="0 0 1634.92 655.14"><defs><style>.uuid-b83ecb1a-cb45-4087-96ad-41c6165466c6{fill:url(#uuid-0a4421b3-4beb-4cb3-bef9-238e93dee1d4);}.uuid-a24e36e4-aff5-4d1a-9085-614fe176a7ca{stroke:#82c0f4;stroke-width:1.35px;}.uuid-a24e36e4-aff5-4d1a-9085-614fe176a7ca,.uuid-3376a9eb-f1e0-4bf4-966b-aa3d3a3fe93e,.uuid-7e8c068b-a7e2-49ba-867c-6c12168dbe2b,.uuid-61d4e9c4-e8bc-4b29-8262-2d4fd42f3d0b,.uuid-7735ba9f-6490-47c2-bb4a-f2f615106c3e{fill:none;stroke-miterlimit:10;}.uuid-3376a9eb-f1e0-4bf4-966b-aa3d3a3fe93e{stroke:#fff;stroke-width:.7px;}.uuid-7e8c068b-a7e2-49ba-867c-6c12168dbe2b{stroke:#c1dffa;stroke-width:1.03px;}.uuid-61d4e9c4-e8bc-4b29-8262-2d4fd42f3d0b{stroke:#0580e9;stroke-width:2px;}.uuid-7735ba9f-6490-47c2-bb4a-f2f615106c3e{stroke:#44a0ef;stroke-width:1.68px;}</style><linearGradient id="uuid-0a4421b3-4beb-4cb3-bef9-238e93dee1d4" x1="817.44" y1="32.99" x2="817.44" y2="561.34" gradientUnits="userSpaceOnUse"><stop offset=".16" stop-color="#fdf61f"/><stop offset=".24" stop-color="#fdf625"/><stop offset=".36" stop-color="#fdf637"/><stop offset=".49" stop-color="#fdf855"/><stop offset=".64" stop-color="#fdf97e"/><stop offset=".8" stop-color="#fefbb3"/><stop offset=".97" stop-color="#fefef3"/><stop offset="1" stop-color="#fff"/></linearGradient></defs><g id="uuid-a41aa9fd-c3bc-4c83-8c15-3e4dcd884509"><polygon class="uuid-b83ecb1a-cb45-4087-96ad-41c6165466c6" points="1634.59 655.14 .91 655.14 .28 328.37 331.37 231.59 549.88 280.56 796.31 180.6 950.07 217.71 1170.23 119.99 1303.5 162.6 1634.59 48.89 1634.59 655.14"/><polyline class="uuid-61d4e9c4-e8bc-4b29-8262-2d4fd42f3d0b" points=".28 318.33 331.37 221.55 549.88 270.51 796.31 170.56 950.07 207.67 1170.23 109.95 1303.5 152.56 1634.59 38.85"/><polyline class="uuid-7735ba9f-6490-47c2-bb4a-f2f615106c3e" points=".28 308.7 331.37 211.92 549.88 260.89 796.31 160.93 950.07 198.04 1170.23 100.32 1303.5 142.94 1634.59 29.22"/><polyline class="uuid-a24e36e4-aff5-4d1a-9085-614fe176a7ca" points=".28 299.08 331.37 202.29 549.88 251.26 796.31 151.3 950.07 188.41 1170.23 90.69 1303.5 133.31 1634.59 19.59"/><polyline class="uuid-7e8c068b-a7e2-49ba-867c-6c12168dbe2b" points=".28 289.45 331.37 192.66 549.88 241.63 796.31 141.67 950.07 178.78 1170.23 81.06 1303.5 123.68 1634.59 9.96"/><polyline class="uuid-3376a9eb-f1e0-4bf4-966b-aa3d3a3fe93e" points=".28 279.82 331.37 183.03 549.88 232 796.31 132.05 950.07 169.15 1170.23 71.44 1303.5 114.05 1634.59 .33"/></g></svg>