<?xml version="1.0" encoding="UTF-8"?><svg id="Layer_2" xmlns="http://www.w3.org/2000/svg" xmlns:xlink="http://www.w3.org/1999/xlink" viewBox="0 0 163.07 353.45"><defs><clipPath id="clippath"><rect width="163.07" height="353.45" style="fill:none;"/></clipPath><linearGradient id="linear-gradient" x1="174.64" y1="802.19" x2="25.28" y2="802.19" gradientUnits="userSpaceOnUse"><stop offset=".16" stop-color="#f8f300"/><stop offset=".23" stop-color="#f8f306"/><stop offset=".34" stop-color="#f8f418"/><stop offset=".46" stop-color="#f9f536"/><stop offset=".6" stop-color="#faf75f"/><stop offset=".75" stop-color="#fcfa95"/><stop offset=".91" stop-color="#fdfdd4"/><stop offset="1" stop-color="#fff"/></linearGradient></defs><g id="Layer_1-2"><g style="clip-path:url(#clippath);"><polyline points="82.74 0 131.53 179.27 82.74 354.35 133.91 508.18 82 672.6 133.06 837.44 81.57 1011.54 133.06 1169.95 81.57 1310.77 131.76 1458.35 81.57 1604.39" style="fill:none; stroke:#0080ec; stroke-miterlimit:10; stroke-width:2px;"/><polyline points="92.37 0 141.16 179.27 92.37 354.35 143.54 507.92 91.63 672.6 142.69 837.44 91.2 1011.54 142.69 1169.95 91.2 1310.77 141.2 1458.35 90.83 1604.39" style="fill:none; stroke:#40a0f1; stroke-miterlimit:10; stroke-width:1.68px;"/><polyline points="101.99 0 150.79 179.27 101.99 354.35 153.17 507.67 101.26 672.6 152.32 837.44 100.83 1011.54 152.32 1169.95 100.83 1310.77 150.65 1458.35 100.08 1604.39" style="fill:none; stroke:#80c0f6; stroke-miterlimit:10; stroke-width:1.35px;"/><polyline points="111.62 0 160.41 179.27 111.62 354.35 162.8 507.41 110.89 672.6 161.95 837.44 110.46 1011.54 161.95 1169.95 110.46 1310.77 160.09 1458.35 109.34 1604.39" style="fill:none; stroke:#bfdffa; stroke-miterlimit:10; stroke-width:1.03px;"/><polyline points="121.25 0 170.04 179.27 121.25 354.35 172.43 507.16 120.52 672.6 171.57 837.44 120.09 1011.54 171.57 1169.95 120.09 1310.77 169.53 1458.35 118.59 1604.39" style="fill:none; stroke:#fff; stroke-miterlimit:10; stroke-width:.7px;"/><polygon points="69.41 1604.39 119.6 1458.35 69.41 1310.77 120.9 1169.95 69.41 1011.54 120.9 837.44 69.84 672.6 121.75 508.18 70.58 354.35 119.37 179.27 70.58 0 0 0 0 1604.39 69.41 1604.39" style="fill:url(#linear-gradient);"/></g></g></svg>