<?xml version="1.0" encoding="UTF-8"?><svg id="uuid-12adeb54-59f6-4d8c-8ab3-234cf2f085a6" xmlns="http://www.w3.org/2000/svg" xmlns:xlink="http://www.w3.org/1999/xlink" viewBox="0 0 172.8 1604.98"><defs><style>.uuid-f4e8ef4f-80af-4f3f-a5c7-2df4e38c2c0f{stroke:#bfdffa;stroke-width:1.03px;}.uuid-f4e8ef4f-80af-4f3f-a5c7-2df4e38c2c0f,.uuid-73a3a68c-467a-4103-9081-798bce63dfcc,.uuid-2b29f5e6-6323-49f8-ad8a-e896d916c326,.uuid-ff37b10e-6d74-4894-bb0c-fcadf83dd543,.uuid-a4cb4ddb-edf0-4604-aea2-0f4206534777{fill:none;stroke-miterlimit:10;}.uuid-73a3a68c-467a-4103-9081-798bce63dfcc{stroke:#fff;stroke-width:.7px;}.uuid-2b29f5e6-6323-49f8-ad8a-e896d916c326{stroke:#80c0f6;stroke-width:1.35px;}.uuid-77e60404-92c8-424f-a082-a33883fa5f53{fill:url(#uuid-2b4b61ca-02e7-4bc6-aabc-50702f18319f);}.uuid-ff37b10e-6d74-4894-bb0c-fcadf83dd543{stroke:#0080ec;stroke-width:2px;}.uuid-a4cb4ddb-edf0-4604-aea2-0f4206534777{stroke:#40a0f1;stroke-width:1.68px;}</style><linearGradient id="uuid-2b4b61ca-02e7-4bc6-aabc-50702f18319f" x1="174.64" y1="802.46" x2="25.28" y2="802.46" gradientUnits="userSpaceOnUse"><stop offset=".16" stop-color="#f8f300"/><stop offset=".23" stop-color="#f8f306"/><stop offset=".34" stop-color="#f8f418"/><stop offset=".46" stop-color="#f9f536"/><stop offset=".6" stop-color="#faf75f"/><stop offset=".75" stop-color="#fcfa95"/><stop offset=".91" stop-color="#fdfdd4"/><stop offset="1" stop-color="#fff"/></linearGradient></defs><g id="uuid-93289239-be9d-4aa0-aa1d-65efb5b8f996"><polyline class="uuid-ff37b10e-6d74-4894-bb0c-fcadf83dd543" points="82.74 .26 131.53 179.53 82.74 354.61 133.91 508.44 82 672.87 133.06 837.7 81.57 1011.8 133.06 1170.21 81.57 1311.04 131.76 1458.61 81.57 1604.65"/><polyline class="uuid-a4cb4ddb-edf0-4604-aea2-0f4206534777" points="92.37 .26 141.16 179.53 92.37 354.61 143.54 508.19 91.63 672.87 142.69 837.7 91.2 1011.8 142.69 1170.21 91.2 1311.04 141.2 1458.61 90.83 1604.65"/><polyline class="uuid-2b29f5e6-6323-49f8-ad8a-e896d916c326" points="101.99 .26 150.79 179.53 101.99 354.61 153.17 507.93 101.26 672.87 152.32 837.7 100.83 1011.8 152.32 1170.21 100.83 1311.04 150.65 1458.61 100.08 1604.65"/><polyline class="uuid-f4e8ef4f-80af-4f3f-a5c7-2df4e38c2c0f" points="111.62 .26 160.41 179.53 111.62 354.61 162.8 507.68 110.89 672.87 161.95 837.7 110.46 1011.8 161.95 1170.21 110.46 1311.04 160.09 1458.61 109.34 1604.65"/><polyline class="uuid-73a3a68c-467a-4103-9081-798bce63dfcc" points="121.25 .26 170.04 179.53 121.25 354.61 172.43 507.42 120.52 672.87 171.57 837.7 120.09 1011.8 171.57 1170.21 120.09 1311.04 169.53 1458.61 118.59 1604.65"/><polygon class="uuid-77e60404-92c8-424f-a082-a33883fa5f53" points="69.41 1604.65 119.6 1458.61 69.41 1311.04 120.9 1170.21 69.41 1011.8 120.9 837.7 69.84 672.87 121.75 508.44 70.58 354.61 119.37 179.53 70.58 .26 0 .26 0 1604.65 69.41 1604.65"/></g></svg>