<?xml version="1.0" encoding="UTF-8"?><svg id="Layer_2" xmlns="http://www.w3.org/2000/svg" xmlns:xlink="http://www.w3.org/1999/xlink" viewBox="0 0 2099 107.41"><defs><style>.cls-1{stroke-width:.04px;}.cls-1,.cls-2,.cls-3,.cls-4,.cls-5,.cls-6,.cls-7,.cls-8,.cls-9{fill:#fff;}.cls-1,.cls-3,.cls-4,.cls-5,.cls-6,.cls-7,.cls-8,.cls-9{stroke:#fff;stroke-miterlimit:10;}.cls-3{stroke-width:.03px;}.cls-10{opacity:.25;}.cls-11{fill:none;}.cls-4{stroke-width:.02px;}.cls-5{stroke-width:.03px;}.cls-6{stroke-width:.04px;}.cls-7{stroke-width:.02px;}.cls-8{stroke-width:.03px;}.cls-12{clip-path:url(#clippath);}.cls-13{opacity:.5;}.cls-9{stroke-width:.03px;}</style><clipPath id="clippath"><rect class="cls-11" width="2099" height="107.06"/></clipPath></defs><g id="Layer_2-2"><g class="cls-10"><g class="cls-12"><g class="cls-13"><circle class="cls-2" cx="139.25" cy="73.73" r="3.17"/><circle class="cls-2" cx="103.75" cy="97.08" r="3.17"/><circle class="cls-2" cx="14.94" cy="84.75" r="4.53" transform="translate(-70.98 79.82) rotate(-76.72)"/><circle class="cls-2" cx="427.92" cy="3.6" r="3.17"/><circle class="cls-2" cx="765.12" cy="87.72" r="3.18" transform="translate(162.07 566.71) rotate(-45)"/><circle class="cls-2" cx="813.34" cy="32.44" r="3.17"/><circle class="cls-2" cx="94.14" cy="23.66" r="4.53"/><circle class="cls-2" cx="582.14" cy="35.31" r="4.24"/><circle class="cls-2" cx="918.94" cy="98.88" r="4.24"/><circle class="cls-2" cx="900.09" cy="40.62" r="4.24"/><circle class="cls-2" cx="853.74" cy="-.45" r="4.24"/><circle class="cls-2" cx="27.48" cy="9.46" r="2.55"/><circle class="cls-2" cx="496.72" cy="18.81" r="2.55" transform="translate(132.19 356.74) rotate(-45)"/><path class="cls-2" d="M669.39,94.52c0,1.11-.9,2.01-2.01,2.01s-2.01-.9-2.01-2.01.9-2.01,2.01-2.01,2.01.9,2.01,2.01Z"/><circle class="cls-2" cx="215.26" cy="3.6" r="2.55" transform="translate(177.23 215.5) rotate(-80.78)"/><circle class="cls-2" cx="271.51" cy="97.08" r="2.55" transform="translate(-16.48 111.29) rotate(-22.5)"/><circle class="cls-2" cx="356.44" cy="17.5" r="2.55"/><circle class="cls-2" cx="640.18" cy="35.31" r="2.55"/><circle class="cls-2" cx="516.25" cy="73.73" r="2.55"/><circle class="cls-2" cx="341.8" cy="86.98" r="2.55"/><circle class="cls-2" cx="438.31" cy="93.42" r="3.2"/><circle class="cls-2" cx="1002.99" cy="68.48" r="4.24"/><circle class="cls-2" cx="270.55" cy="42.1" r="2.55" transform="translate(-2.44 63.29) rotate(-13.28)"/></g><g class="cls-13"><circle class="cls-2" cx="1154.89" cy="97.08" r="3.17"/><circle class="cls-2" cx="1479.06" cy="3.6" r="3.17"/><circle class="cls-2" cx="1816.26" cy="87.72" r="3.18" transform="translate(469.94 1309.98) rotate(-45)"/><circle class="cls-2" cx="1864.48" cy="32.44" r="3.17"/><circle class="cls-2" cx="1273.37" cy="71.34" r="2.97" transform="translate(998.98 1316.84) rotate(-80.78)"/><circle class="cls-2" cx="1359.35" cy="80.52" r="4.24"/><circle class="cls-2" cx="1633.28" cy="35.31" r="4.24"/><circle class="cls-2" cx="2009.85" cy="32.15" r="4.24"/><circle class="cls-2" cx="1886.16" cy="99.07" r="4.24"/><circle class="cls-2" cx="1904.88" cy="-.45" r="4.24"/><circle class="cls-2" cx="1115.98" cy="18.56" r="2.55" transform="translate(313.74 794.55) rotate(-45)"/><circle class="cls-2" cx="1216.61" cy="17.5" r="2.55"/><circle class="cls-2" cx="1547.86" cy="18.81" r="2.55" transform="translate(440.06 1100.01) rotate(-45)"/><path class="cls-2" d="M1720.53,94.52c0,1.11-.9,2.01-2.01,2.01s-2.01-.9-2.01-2.01.9-2.01,2.01-2.01,2.01.9,2.01,2.01Z"/><circle class="cls-2" cx="2070.88" cy="80.52" r="2.55"/><circle class="cls-2" cx="1044.39" cy="24.64" r="2.55" transform="translate(70.07 401.54) rotate(-22.5)"/><circle class="cls-2" cx="1407.58" cy="17.5" r="2.55"/><circle class="cls-2" cx="1691.32" cy="35.31" r="2.55"/><circle class="cls-2" cx="1567.39" cy="73.73" r="2.55"/><circle class="cls-2" cx="1489.45" cy="93.42" r="3.2"/><circle class="cls-2" cx="1408.2" cy="107.32" r="4.24"/><circle class="cls-2" cx="1442.63" cy="73.75" r="2.55"/><circle class="cls-2" cx="1676.72" cy="99.07" r="2.55"/><circle class="cls-2" cx="1347.07" cy="4.72" r="4.24" transform="translate(827.21 1247.45) rotate(-67.5)"/><circle class="cls-2" cx="1321.69" cy="42.1" r="2.55" transform="translate(25.68 304.79) rotate(-13.28)"/></g></g><polygon class="cls-11" points="404.24 86.8 408.45 84.27 408.45 79.51 404.33 81.89 404.24 86.8"/><polygon class="cls-11" points="404.33 75.91 408.45 78.28 408.45 73.53 404.24 71 404.33 75.91"/><polygon class="cls-11" points="403.98 76.52 399.68 78.9 403.98 81.27 408.09 78.9 403.98 76.52"/><polygon class="cls-11" points="409.16 79.51 409.16 84.27 413.36 86.8 413.27 81.89 409.16 79.51"/><polygon class="cls-11" points="413.36 71 409.16 73.53 409.16 78.28 413.27 75.91 413.36 71"/><polygon class="cls-11" points="413.63 76.52 409.51 78.9 413.63 81.27 417.92 78.9 413.63 76.52"/><path class="cls-2" d="M419.67,81.92l-2.89,1.17-2.44-1.41,5.04-2.79-5.04-2.79,2.44-1.41,2.89,1.17.27-.66-2.37-.97,2.15-1.24-.35-.61-2.15,1.24.35-2.54-.7-.1-.43,3.09-2.44,1.41.11-5.76-4.94,2.97v-2.82l2.46-1.91-.44-.56-2.02,1.57v-2.48h-.71v2.48l-2.02-1.57-.44.56,2.46,1.91v2.82l-4.94-2.97.11,5.76-2.44-1.41-.43-3.09-.7.1.35,2.54-2.15-1.24-.36.61,2.15,1.24-2.37.97.27.66,2.89-1.17,2.44,1.41-5.04,2.79,5.04,2.79-2.44,1.41-2.89-1.17-.27.66,2.37.97-2.15,1.24.36.61,2.15-1.24-.35,2.54.7.1.43-3.09,2.44-1.41-.11,5.76,4.94-2.97v2.82l-2.46,1.91.44.56,2.02-1.57v2.48h.71v-2.48l2.02,1.57.44-.56-2.46-1.91v-2.82l4.94,2.97-.11-5.76,2.44,1.41.43,3.09.7-.1-.35-2.54,2.15,1.24.35-.61-2.15-1.24,2.37-.97-.27-.66ZM399.68,78.9l4.29-2.38,4.12,2.38-4.12,2.38-4.29-2.38ZM408.45,84.27l-4.21,2.53.09-4.91,4.12-2.38v4.75ZM408.45,78.28l-4.12-2.38-.09-4.91,4.21,2.53v4.75ZM409.16,73.53l4.21-2.53-.09,4.91-4.12,2.38v-4.75ZM409.16,84.27v-4.75l4.12,2.38.09,4.91-4.21-2.53ZM413.63,81.27l-4.12-2.38,4.12-2.38,4.29,2.38-4.29,2.38Z"/><polygon class="cls-11" points="38.41 51.1 42.61 48.57 42.61 43.81 38.5 46.19 38.41 51.1"/><polygon class="cls-11" points="38.5 40.21 42.61 42.58 42.61 37.83 38.41 35.3 38.5 40.21"/><polygon class="cls-11" points="38.14 40.82 33.85 43.2 38.14 45.58 42.26 43.2 38.14 40.82"/><polygon class="cls-11" points="43.32 43.81 43.32 48.57 47.53 51.1 47.44 46.19 43.32 43.81"/><polygon class="cls-11" points="47.53 35.3 43.32 37.83 43.32 42.58 47.44 40.21 47.53 35.3"/><polygon class="cls-11" points="47.8 40.82 43.68 43.2 47.8 45.58 52.09 43.2 47.8 40.82"/><path class="cls-2" d="M53.84,46.22l-2.89,1.17-2.44-1.41,5.04-2.79-5.04-2.79,2.44-1.41,2.89,1.17.27-.66-2.37-.97,2.15-1.24-.35-.61-2.15,1.24.35-2.54-.7-.1-.43,3.09-2.44,1.41.11-5.76-4.94,2.97v-2.82l2.46-1.91-.44-.56-2.02,1.57v-2.48h-.71v2.48l-2.02-1.57-.44.56,2.46,1.91v2.82l-4.94-2.97.11,5.76-2.44-1.41-.43-3.09-.7.1.35,2.54-2.15-1.24-.36.61,2.15,1.24-2.37.97.27.66,2.89-1.17,2.44,1.41-5.04,2.79,5.04,2.79-2.44,1.41-2.89-1.17-.27.66,2.37.97-2.15,1.24.36.61,2.15-1.24-.35,2.54.7.1.43-3.09,2.44-1.41-.11,5.76,4.94-2.97v2.82l-2.46,1.91.44.56,2.02-1.57v2.48h.71v-2.48l2.02,1.57.44-.56-2.46-1.91v-2.82l4.94,2.97-.11-5.76,2.44,1.41.43,3.09.7-.1-.35-2.54,2.15,1.24.35-.61-2.15-1.24,2.37-.97-.27-.66ZM33.85,43.2l4.29-2.38,4.12,2.38-4.12,2.38-4.29-2.38ZM42.61,48.57l-4.21,2.53.09-4.91,4.12-2.38v4.75ZM42.61,42.58l-4.12-2.38-.09-4.91,4.21,2.53v4.75ZM43.32,37.83l4.21-2.53-.09,4.91-4.12,2.38v-4.75ZM43.32,48.57v-4.75l4.12,2.38.09,4.91-4.21-2.53ZM47.8,45.58l-4.12-2.38,4.12-2.38,4.29,2.38-4.29,2.38Z"/><polygon class="cls-11" points="919.35 25.7 923.56 23.17 923.56 18.42 919.44 20.8 919.35 25.7"/><polygon class="cls-11" points="919.44 14.81 923.56 17.19 923.56 12.44 919.35 9.91 919.44 14.81"/><polygon class="cls-11" points="919.09 15.43 914.79 17.8 919.09 20.18 923.2 17.8 919.09 15.43"/><polygon class="cls-11" points="924.27 18.42 924.27 23.17 928.47 25.7 928.39 20.8 924.27 18.42"/><polygon class="cls-11" points="928.47 9.91 924.27 12.44 924.27 17.19 928.39 14.81 928.47 9.91"/><polygon class="cls-11" points="928.74 15.43 924.62 17.8 928.74 20.18 933.04 17.8 928.74 15.43"/><path class="cls-2" d="M934.78,20.83l-2.89,1.17-2.44-1.41,5.04-2.79-5.04-2.79,2.44-1.41,2.89,1.17.27-.66-2.37-.97,2.15-1.24-.35-.61-2.15,1.24.35-2.54-.7-.1-.43,3.09-2.44,1.41.11-5.76-4.94,2.97v-2.82l2.46-1.91-.44-.56-2.02,1.57v-2.48h-.71v2.48l-2.02-1.57-.44.56,2.46,1.91v2.82l-4.94-2.97.11,5.76-2.44-1.41-.43-3.09-.7.1.35,2.54-2.15-1.24-.36.61,2.15,1.24-2.37.97.27.66,2.89-1.17,2.44,1.41-5.04,2.79,5.04,2.79-2.44,1.41-2.89-1.17-.27.66,2.37.97-2.15,1.24.36.61,2.15-1.24-.35,2.54.7.1.43-3.09,2.44-1.41-.11,5.76,4.94-2.97v2.82l-2.46,1.91.44.56,2.02-1.57v2.48h.71v-2.48l2.02,1.57.44-.56-2.46-1.91v-2.82l4.94,2.97-.11-5.76,2.44,1.41.43,3.09.7-.1-.35-2.54,2.15,1.24.35-.61-2.15-1.24,2.37-.97-.27-.66ZM914.79,17.8l4.29-2.38,4.12,2.38-4.12,2.38-4.29-2.38ZM923.56,23.17l-4.21,2.53.09-4.91,4.12-2.38v4.75ZM923.56,17.19l-4.12-2.38-.09-4.91,4.21,2.53v4.75ZM924.27,12.44l4.21-2.53-.09,4.91-4.12,2.38v-4.75ZM924.27,23.17v-4.75l4.12,2.38.09,4.91-4.21-2.53ZM928.74,20.18l-4.12-2.38,4.12-2.38,4.29,2.38-4.29,2.38Z"/><polygon class="cls-11" points="2006.94 73.82 2011.14 71.29 2011.14 66.54 2007.03 68.91 2006.94 73.82"/><polygon class="cls-11" points="2007.03 62.93 2011.14 65.31 2011.14 60.55 2006.94 58.02 2007.03 62.93"/><polygon class="cls-11" points="2006.67 63.55 2002.38 65.92 2006.67 68.3 2010.79 65.92 2006.67 63.55"/><polygon class="cls-11" points="2011.85 66.54 2011.85 71.29 2016.06 73.82 2015.97 68.91 2011.85 66.54"/><polygon class="cls-11" points="2016.06 58.02 2011.85 60.56 2011.85 65.31 2015.97 62.93 2016.06 58.02"/><polygon class="cls-11" points="2016.32 63.55 2012.21 65.92 2016.32 68.3 2020.62 65.92 2016.32 63.55"/><path class="cls-2" d="M2022.37,68.95l-2.89,1.17-2.44-1.41,5.04-2.79-5.04-2.79,2.44-1.41,2.89,1.17.27-.66-2.37-.97,2.15-1.24-.35-.61-2.15,1.24.35-2.54-.7-.1-.43,3.09-2.44,1.41.11-5.76-4.94,2.97v-2.82l2.46-1.91-.44-.56-2.02,1.57v-2.48h-.71v2.48l-2.02-1.57-.44.56,2.46,1.91v2.82l-4.94-2.97.11,5.76-2.44-1.41-.43-3.09-.7.1.35,2.54-2.15-1.24-.36.61,2.15,1.24-2.37.97.27.66,2.89-1.17,2.44,1.41-5.04,2.79,5.04,2.79-2.44,1.41-2.89-1.17-.27.66,2.37.97-2.15,1.24.36.61,2.15-1.24-.35,2.54.7.1.43-3.09,2.44-1.41-.11,5.76,4.94-2.97v2.82l-2.46,1.91.44.56,2.02-1.57v2.48h.71v-2.48l2.02,1.57.44-.56-2.46-1.91v-2.82l4.94,2.97-.11-5.76,2.44,1.41.43,3.09.7-.1-.35-2.54,2.15,1.24.35-.61-2.15-1.24,2.37-.97-.27-.66ZM2002.38,65.92l4.29-2.38,4.12,2.38-4.12,2.38-4.29-2.38ZM2011.14,71.29l-4.21,2.53.09-4.91,4.12-2.38v4.75ZM2011.14,65.31l-4.12-2.38-.09-4.91,4.21,2.53v4.75ZM2011.85,60.56l4.21-2.53-.09,4.91-4.12,2.38v-4.75ZM2011.85,71.29v-4.75l4.12,2.38.09,4.91-4.21-2.53ZM2016.32,68.3l-4.12-2.38,4.12-2.38,4.29,2.38-4.29,2.38Z"/><polygon class="cls-11" points="1315.93 103.07 1319.35 101.01 1319.35 97.13 1316 99.07 1315.93 103.07"/><polygon class="cls-11" points="1316 94.2 1319.35 96.13 1319.35 92.26 1315.93 90.2 1316 94.2"/><polygon class="cls-11" points="1315.71 94.7 1312.21 96.63 1315.71 98.57 1319.06 96.63 1315.71 94.7"/><polygon class="cls-11" points="1319.93 97.13 1319.93 101.01 1323.36 103.07 1323.28 99.07 1319.93 97.13"/><polygon class="cls-11" points="1323.36 90.2 1319.93 92.26 1319.93 96.13 1323.28 94.2 1323.36 90.2"/><polygon class="cls-11" points="1323.57 94.7 1320.22 96.63 1323.57 98.57 1327.07 96.63 1323.57 94.7"/><path class="cls-2" d="M1328.5,99.1l-2.35.96-1.99-1.15,4.11-2.27-4.11-2.27,1.99-1.15,2.35.96.22-.54-1.93-.79,1.75-1.01-.29-.5-1.75,1.01.29-2.07-.57-.08-.35,2.51-1.99,1.15.09-4.7-4.02,2.42v-2.29l2-1.56-.35-.46-1.65,1.28v-2.02h-.58v2.02l-1.65-1.28-.35.46,2,1.56v2.29l-4.02-2.42.09,4.7-1.99-1.15-.35-2.51-.57.08.29,2.07-1.75-1.01-.29.5,1.75,1.01-1.93.79.22.54,2.35-.96,1.99,1.15-4.11,2.27,4.11,2.27-1.99,1.15-2.35-.96-.22.54,1.93.79-1.75,1.01.29.5,1.75-1.01-.29,2.07.57.08.35-2.51,1.99-1.15-.09,4.7,4.02-2.42v2.29l-2,1.56.35.46,1.65-1.28v2.02h.58v-2.02l1.65,1.28.35-.46-2-1.56v-2.29l4.02,2.42-.09-4.7,1.99,1.15.35,2.51.57-.08-.29-2.07,1.75,1.01.29-.5-1.75-1.01,1.93-.79-.22-.54ZM1312.21,96.63l3.5-1.94,3.35,1.94-3.35,1.94-3.5-1.94ZM1319.35,101.01l-3.43,2.06.07-4,3.35-1.94v3.87ZM1319.35,96.13l-3.35-1.94-.07-4,3.43,2.06v3.87ZM1319.93,92.26l3.43-2.06-.07,4-3.35,1.94v-3.87ZM1319.93,101.01v-3.87l3.35,1.94.07,4-3.43-2.06ZM1323.57,98.57l-3.35-1.94,3.35-1.94,3.5,1.94-3.5,1.94Z"/><polygon class="cls-11" points="1739.69 40.81 1743.12 38.75 1743.12 34.87 1739.77 36.81 1739.69 40.81"/><polygon class="cls-11" points="1739.77 31.93 1743.12 33.87 1743.12 30 1739.69 27.94 1739.77 31.93"/><polygon class="cls-11" points="1739.48 32.44 1735.98 34.37 1739.48 36.31 1742.83 34.37 1739.48 32.44"/><polygon class="cls-11" points="1743.7 34.87 1743.7 38.75 1747.12 40.81 1747.05 36.81 1743.7 34.87"/><polygon class="cls-11" points="1747.12 27.94 1743.7 30 1743.7 33.87 1747.05 31.93 1747.12 27.94"/><polygon class="cls-11" points="1747.34 32.44 1743.99 34.37 1747.34 36.31 1750.84 34.37 1747.34 32.44"/><path class="cls-2" d="M1752.26,36.84l-2.35.96-1.99-1.15,4.11-2.27-4.11-2.27,1.99-1.15,2.35.96.22-.54-1.93-.79,1.75-1.01-.29-.5-1.75,1.01.29-2.07-.57-.08-.35,2.51-1.99,1.15.09-4.7-4.02,2.42v-2.29l2-1.56-.35-.46-1.65,1.28v-2.02h-.58v2.02l-1.65-1.28-.35.46,2,1.56v2.29l-4.02-2.42.09,4.7-1.99-1.15-.35-2.51-.57.08.29,2.07-1.75-1.01-.29.5,1.75,1.01-1.93.79.22.54,2.35-.96,1.99,1.15-4.11,2.27,4.11,2.27-1.99,1.15-2.35-.96-.22.54,1.93.79-1.75,1.01.29.5,1.75-1.01-.29,2.07.57.08.35-2.51,1.99-1.15-.09,4.7,4.02-2.42v2.29l-2,1.56.35.46,1.65-1.28v2.02h.58v-2.02l1.65,1.28.35-.46-2-1.56v-2.29l4.02,2.42-.09-4.7,1.99,1.15.35,2.51.57-.08-.29-2.07,1.75,1.01.29-.5-1.75-1.01,1.93-.79-.22-.54ZM1735.98,34.37l3.5-1.94,3.35,1.94-3.35,1.94-3.5-1.94ZM1743.12,38.75l-3.43,2.06.07-4,3.35-1.94v3.87ZM1743.12,33.87l-3.35-1.94-.07-4,3.43,2.06v3.87ZM1743.7,30l3.43-2.06-.07,4-3.35,1.94v-3.87ZM1743.7,38.75v-3.87l3.35,1.94.07,4-3.43-2.06ZM1747.34,36.31l-3.35-1.94,3.35-1.94,3.5,1.94-3.5,1.94Z"/><polygon class="cls-6" points="79.87 103.12 72.69 103.12 72.69 107.39 70.36 107.39 70.36 103.12 63.17 103.12 65.46 97.82 63.95 97.82 66.66 91.26 65.16 91.26 71.52 75.86 77.87 91.26 76.39 91.26 79.1 97.82 77.58 97.82 79.87 103.12"/><polygon class="cls-6" points="746.94 103.12 739.76 103.12 739.76 107.39 737.42 107.39 737.42 103.12 730.23 103.12 732.53 97.82 731.02 97.82 733.72 91.26 732.23 91.26 738.58 75.86 744.94 91.26 743.46 91.26 746.16 97.82 744.64 97.82 746.94 103.12"/><polygon class="cls-6" points="1200.52 103.12 1193.34 103.12 1193.34 107.39 1191.01 107.39 1191.01 103.12 1183.82 103.12 1186.11 97.82 1184.6 97.82 1187.31 91.26 1185.81 91.26 1192.17 75.86 1198.53 91.26 1197.04 91.26 1199.75 97.82 1198.23 97.82 1200.52 103.12"/><polygon class="cls-8" points="1663.6 104.16 1658.16 104.16 1658.16 107.39 1656.4 107.39 1656.4 104.16 1650.96 104.16 1652.69 100.15 1651.55 100.15 1653.6 95.18 1652.47 95.18 1657.28 83.54 1662.08 95.18 1660.96 95.18 1663.01 100.15 1661.86 100.15 1663.6 104.16"/><polygon class="cls-8" points="2055.19 104.16 2049.76 104.16 2049.76 107.39 2047.99 107.39 2047.99 104.16 2042.55 104.16 2044.29 100.15 2043.14 100.15 2045.19 95.18 2044.06 95.18 2048.87 83.54 2053.68 95.18 2052.56 95.18 2054.6 100.15 2053.45 100.15 2055.19 104.16"/><polygon class="cls-1" points="1849.17 102.99 1841.76 102.99 1841.76 107.39 1839.35 107.39 1839.35 102.99 1831.93 102.99 1834.3 97.51 1832.74 97.51 1835.53 90.75 1833.99 90.75 1840.55 74.86 1847.11 90.75 1845.58 90.75 1848.37 97.51 1846.8 97.51 1849.17 102.99"/><polygon class="cls-6" points="962.27 103.12 955.09 103.12 955.09 107.39 952.76 107.39 952.76 103.12 945.57 103.12 947.86 97.82 946.35 97.82 949.06 91.26 947.56 91.26 953.92 75.86 960.27 91.26 958.79 91.26 961.5 97.82 959.98 97.82 962.27 103.12"/><polygon class="cls-3" points="1474.9 104.23 1469.58 104.23 1469.58 107.39 1467.85 107.39 1467.85 104.23 1462.53 104.23 1464.23 100.3 1463.11 100.3 1465.11 95.44 1464.01 95.44 1468.71 84.04 1473.42 95.44 1472.32 95.44 1474.33 100.3 1473.2 100.3 1474.9 104.23"/><polygon class="cls-7" points="1443.92 105.25 1440.34 105.25 1440.34 107.39 1439.17 107.39 1439.17 105.25 1435.57 105.25 1436.72 102.6 1435.97 102.6 1437.32 99.33 1436.57 99.33 1439.75 91.63 1442.93 99.33 1442.18 99.33 1443.54 102.6 1442.78 102.6 1443.92 105.25"/><polygon class="cls-7" points="1918.91 105.25 1915.32 105.25 1915.32 107.39 1914.16 107.39 1914.16 105.25 1910.56 105.25 1911.71 102.6 1910.96 102.6 1912.31 99.33 1911.56 99.33 1914.74 91.63 1917.91 99.33 1917.17 99.33 1918.53 102.6 1917.77 102.6 1918.91 105.25"/><polygon class="cls-6" points="380.14 103.12 372.96 103.12 372.96 107.39 370.62 107.39 370.62 103.12 363.43 103.12 365.72 97.82 364.21 97.82 366.92 91.26 365.43 91.26 371.78 75.86 378.14 91.26 376.66 91.26 379.36 97.82 377.84 97.82 380.14 103.12"/><polygon class="cls-5" points="43.61 104.55 38.83 104.55 38.83 107.39 37.28 107.39 37.28 104.55 32.5 104.55 34.02 101.02 33.02 101.02 34.82 96.66 33.82 96.66 38.05 86.41 42.28 96.66 41.3 96.66 43.1 101.02 42.08 101.02 43.61 104.55"/><polygon class="cls-5" points="502.04 104.55 497.26 104.55 497.26 107.39 495.71 107.39 495.71 104.55 490.92 104.55 492.45 101.02 491.45 101.02 493.25 96.66 492.25 96.66 496.48 86.41 500.71 96.66 499.72 96.66 501.53 101.02 500.51 101.02 502.04 104.55"/><polygon class="cls-9" points="618.81 104.32 613.65 104.32 613.65 107.39 611.97 107.39 611.97 104.32 606.8 104.32 608.45 100.51 607.37 100.51 609.31 95.8 608.24 95.8 612.8 84.74 617.37 95.8 616.3 95.8 618.25 100.51 617.16 100.51 618.81 104.32"/><polygon class="cls-4" points="593.13 104.98 589.08 104.98 589.08 107.39 587.76 107.39 587.76 104.98 583.71 104.98 585 101.99 584.15 101.99 585.68 98.29 584.83 98.29 588.42 89.61 592 98.29 591.17 98.29 592.69 101.99 591.84 101.99 593.13 104.98"/><polygon class="cls-4" points="801.66 104.98 797.61 104.98 797.61 107.39 796.29 107.39 796.29 104.98 792.24 104.98 793.53 101.99 792.68 101.99 794.21 98.29 793.36 98.29 796.95 89.61 800.53 98.29 799.69 98.29 801.22 101.99 800.36 101.99 801.66 104.98"/><polygon class="cls-4" points="1117.02 104.98 1112.97 104.98 1112.97 107.39 1111.65 107.39 1111.65 104.98 1107.59 104.98 1108.89 101.99 1108.04 101.99 1109.56 98.29 1108.72 98.29 1112.3 89.61 1115.89 98.29 1115.05 98.29 1116.58 101.99 1115.72 101.99 1117.02 104.98"/></g></g></svg>