<?xml version="1.0" encoding="UTF-8"?><svg id="Layer_2" xmlns="http://www.w3.org/2000/svg" viewBox="0 0 492.31 72.25"><defs><style>.cls-1{fill:#d2e7f4;}.cls-2{fill:#f3fcff;}</style></defs><g id="Layer_2-2"><path class="cls-1" d="M483.22,43.35c-2.32,3.17-2.96,7.17-7.27,8.6-2.68.89-4.24-.02-6.99-.3-4.21-.42-8.46.74-12.48,1.81-4.95,1.31-10.03,3.15-15.24,2.78-4.13-.29-7.63-2.26-11.52-3.45-8.31-2.54-16.27-.69-24.71-.47-5.84.15-10.31-2.29-15.76-3.71-4.98-1.3-9.84-.91-14.88-.25-10.46,1.37-17.52.5-27.41-2.86-10.03-3.41-16.98-2.49-26.86.65-8.84,2.81-18.03-.11-26.84,2.24-8.4,2.23-11.76,11.08-20.66,12.3-7.62,1.04-11.71-2.29-18.14-5.12-3.77-1.66-7.76-2.03-11.46-3.95-3.12-1.62-5.77-3.65-9.32-4.29-3.88-.7-7.83.35-11.72-.55-4.35-1.01-8.18-4.34-12.73-4.52-4.38-.17-8.06,2.63-12.38,3.09-4.56.48-9.6-.7-14.04-1.65-9.37-2-16.45-3.24-25.51.43-8.81,3.57-17.94,5.71-27.5,3.49-3.92-.91-7.29-2.59-11.42-2.43-4.35.17-8.34,1.99-12.52,2.97-8.96,2.09-16.86-3.66-25.41-1.82-3.68.8-5.4,3.53-8.48,5.29-3.66,2.08-6.41,1.95-10.55,1.22-4.66-.82-9.26-2.41-14.07-1.49-3.76.71-6.89,3.27-10.76,3.59-7.94.65-13.91-6.67-21.82-6.16-7.03.45-14.45-5.37-14-12.7.03-.44.08-.87.15-1.29-2.48,5.96.45,13.61,5.6,17.87,5.78,4.78,13.49,6.38,20.85,7.82,9.7,1.89,19.4,3.79,29.1,5.68,8.73,1.7,17.74,3.41,26.43,1.56,7.66-1.62,14.74-5.95,22.56-6.24,10.34-.39,19.65,6.29,29.89,7.77,15.24,2.19,29.62-7.25,44.86-9.43,10.43-1.49,24.93-3.11,35.29-1.16,12,2.26,20.09,8.09,32.09,10.35,12.41,2.33,25.18,4.67,37.56,2.18,10.77-2.17,20.86-7.93,31.84-8.02,7.15-.06,14.07,2.31,21.15,3.27,4.85.66,8.32-1.43,13.28-3.71.96-.44,1.89-.95,2.81-1.47,1.58-.88,3.38-1.36,5.24-1.54,0,0,0,0,0,0h0c2.09-.2,4.25-.02,6.29.38,4.67.92,9.14,2.84,13.88,3.32,7.71.79,15.34-2.26,23.09-2.1,14.19.3,27.46,11.29,41.31,8.19,8.48-1.9,15.38-8.88,24.03-9.76,4.75-.49,9.69.93,14.27-.45,5.98-1.81,9.73-8.22,9.96-14.46.13-3.44-.62-6.8-1.89-10.01-.08.99-.3,1.93-.72,2.78-1.22,2.48-4.77,3.41-6.47,5.75Z"/><path class="cls-2" d="M12.99,23.69c-5.74,1.43-11.08,5-12.1,11.1-.07.42-.12.85-.15,1.29-.46,7.33,6.97,13.15,14,12.7,7.92-.5,13.88,6.82,21.82,6.16,3.87-.32,7-2.88,10.76-3.59,4.81-.92,9.41.67,14.07,1.49,4.14.73,6.89.86,10.55-1.22,3.09-1.75,4.8-4.49,8.48-5.29,8.55-1.85,16.45,3.9,25.41,1.82,4.18-.97,8.17-2.79,12.52-2.97,4.13-.16,7.5,1.52,11.42,2.43,9.56,2.21,18.7.07,27.5-3.49,9.06-3.67,16.14-2.44,25.51-.43,4.44.95,9.47,2.13,14.04,1.65,4.32-.45,8-3.26,12.38-3.09,4.55.18,8.37,3.51,12.73,4.52,3.89.9,7.84-.15,11.72.55,3.55.64,6.2,2.66,9.32,4.29,3.7,1.92,7.68,2.29,11.46,3.95,6.43,2.82,10.53,6.16,18.14,5.12,8.91-1.22,12.27-10.07,20.66-12.3,8.82-2.34,18.01.57,26.84-2.24,9.88-3.14,16.83-4.07,26.86-.65,9.89,3.37,16.95,4.23,27.41,2.86,5.05-.66,9.9-1.05,14.88.25,5.45,1.43,9.93,3.86,15.76,3.71,8.44-.22,16.4-2.07,24.71.47,3.89,1.19,7.39,3.16,11.52,3.45,5.21.37,10.28-1.47,15.24-2.78,4.03-1.07,8.27-2.23,12.48-1.81,2.75.27,4.31,1.18,6.99.3,4.32-1.43,4.96-5.43,7.27-8.6,1.71-2.34,5.25-3.27,6.47-5.75.41-.84.64-1.78.72-2.78.38-4.66-2.56-10.5-5.49-13.26-5.06-4.78-10.52-6.28-17.34-5.63-10.73,1.02-19.99.17-30.56-1.86-9.96-1.92-19.59-1.24-29.6-2.1-8.84-.75-17.23-3.37-26.19-3.64-10.57-.32-20.2.87-30.56,2.88-11.09,2.16-20.16.81-31.24.01-10.41-.75-19.95,3.08-30.11,4.44-9.42,1.26-18.49-1.28-27.84-2.14-10.34-.95-20.99-1.74-31.37-1.35-18.86.71-39.58-3.07-57.36-9.7-9.1-3.4-21.03-3.38-29.95.67-8.92,4.05-16.52,10.34-25.76,13.89-10.78,4.14-19.51,3.2-30.49.46-11.25-2.81-20.55-2.69-31.68.57-8.03,2.35-15.42,4.98-23.87,4.81-5.99-.12-12.12-.63-18,.84Z"/></g></svg>