<?xml version="1.0" encoding="UTF-8"?><svg id="Layer_2" xmlns="http://www.w3.org/2000/svg" viewBox="0 0 436.7 55.21"><defs><style>.cls-1{fill:#d2e7f4;}.cls-2{fill:#f3fcff;}</style></defs><g id="Layer_2-2"><path class="cls-1" d="M419.45,31.33c-7.95-.12-15.26-3.47-22.5-6.28-7.24-2.81-15.38-5.19-23.01-3.29-9.09,2.26-15.64,10.19-25.07,10.92-10.88.85-19.79-8.27-30.7-8.82-10.74-.54-19.97,7.3-30.72,7.64-10.28.32-19.1-6.21-29.16-8.04-11.03-2.01-22.22,1.78-33.35,3.31-29.42,4.04-25.48,2.98-65.55-5.97-15.8-3.53-32.02,1.24-43.33,3.18-11.97,2.05-22.25,10.79-34.6,10.56-7.8-.15-15.05-3.24-22.47-5.3-17.92-4.99-28.86,6.56-45.51,5.04-5.16-.47-10.16-3.54-12.35-7.38-.41,7.5,12.39,13.65,21.28,15.06,9.31,1.47,19.02-.2,28.3,1.37,14.07,2.39,26.3,12.08,40.61,11.17,19.75-1.26,33.46-22.21,53.16-20.37,14.73,1.38,23.76,14.96,37.63,19.44,10.34,3.33,22,1.14,32.23-2.43,10.23-3.57,19.89-8.48,30.6-10.81,10.71-2.33,23.24-1.55,31.14,5.06,11.95,8.39,23.72-2.09,34.57-1.94,13.64.19,25.46,11.71,38.8,9.27,8.99-1.64,14.86-9.11,23.16-12.5,9.02-3.69,19.59-2.16,29.51-1.13,9.92,1.03,24.4,2.06,31.25-6.14,2.6-2.5,3.1-5.9,2.14-9.14-2.7,4.71-9.66,7.62-16.08,7.53Z"/><path class="cls-2" d="M418.67,6.61c-8.86-.52-17.62,2.05-26.51,1.95-13.78-.16-26.43-6.66-40.1-8.19-21.96-2.45-43.18,8.1-65.31,8.69-11.32.3-22.48-2.01-33.62-3.79C226.92,1.09,200.07-.15,173.49,1.6c-20.55,1.35-41.1,7.12-61.56,4.67C72.19,1.49,40.19-1.03,9.52,12.81c-3.66,1.65-7.35,3.8-8.86,7.1-1.08,2.36-.75,4.8.5,6.99,2.18,3.85,7.18,6.91,12.35,7.38,16.65,1.51,27.59-10.03,45.51-5.04,7.42,2.07,14.67,5.16,22.47,5.3,12.35.23,22.62-8.51,34.6-10.56,11.31-1.93,27.52-6.71,43.33-3.18,40.07,8.95,36.12,10.01,65.55,5.97,11.14-1.53,22.32-5.32,33.35-3.31,10.06,1.83,18.88,8.36,29.16,8.04,10.75-.33,19.98-8.18,30.72-7.64,10.91.55,19.82,9.67,30.7,8.82,9.42-.74,15.98-8.66,25.07-10.92,7.63-1.9,15.77.48,23.01,3.29,7.24,2.81,14.55,6.16,22.5,6.28,6.42.1,13.38-2.81,16.08-7.53.64-1.12,1.05-2.33,1.15-3.64.58-7.6-9.15-13.05-18.01-13.56Z"/></g></svg>