<?xml version="1.0" encoding="UTF-8"?><svg id="Layer_2" xmlns="http://www.w3.org/2000/svg" xmlns:xlink="http://www.w3.org/1999/xlink" viewBox="0 0 778.34 121.32"><defs><style>.cls-1{fill:url(#linear-gradient);}.cls-1,.cls-2,.cls-3{stroke-width:0px;}.cls-2{fill:url(#linear-gradient-2);}.cls-3{fill:#001c80;}</style><linearGradient id="linear-gradient" x1="389.17" y1="108.16" x2="389.17" y2="-5.53" gradientUnits="userSpaceOnUse"><stop offset="0" stop-color="#315ed0"/><stop offset="1" stop-color="#0b3293"/></linearGradient><linearGradient id="linear-gradient-2" x1="389.17" y1="18.55" x2="389.17" y2="116.1" xlink:href="#linear-gradient"/></defs><g id="Layer_1-2"><path class="cls-3" d="M0,19.42h34.98s-7.02-14.63-17.21-13.47S0,19.42,0,19.42Z"/><path class="cls-3" d="M778.34,19.42h-34.98s7.02-14.63,17.21-13.47c10.19,1.17,17.77,13.47,17.77,13.47Z"/><path class="cls-1" d="M753.49,0H24.85C10.13,0,0,19.42,0,19.42,41.69-30.04,46.72,121.32,76.67,121.32h625.01c29.94,0,34.98-151.36,76.67-101.9,0,0-10.13-19.42-24.85-19.42Z"/><path class="cls-2" d="M76.67,121.32h625.01c25.71,0,33.06-111.58,61.01-111.82-1.94-.04-3.89.32-5.78,1.38-2.43,1.43-4.77,3.59-6.9,6.47-4.23,5.86-7.75,13.67-10.86,21.92-6.26,16.52-11.17,34.94-17.23,51.3-3,8.16-6.31,15.92-10.3,21.36-1.97,2.78-4.17,4.61-6.43,5.62-1.13.59-2.28.63-3.44.77l-3.75-.07-30.07-.67c-40.09-.88-249.9-1.01-289.99-1.12-40.09.12-227.46.25-267.55,1.14l-30.07.66-3.75.07c-1.15-.14-2.31-.18-3.44-.77-2.25-1.01-4.45-2.85-6.43-5.63-3.99-5.44-7.3-13.21-10.3-21.36-6.05-16.36-10.97-34.78-17.22-51.31-3.11-8.25-6.62-16.06-10.86-21.92-2.13-2.89-4.47-5.04-6.9-6.47-1.89-1.06-3.84-1.42-5.78-1.38,27.95.25,35.3,111.82,61.01,111.82Z"/></g></svg>