<?xml version="1.0" encoding="UTF-8"?><svg xmlns="http://www.w3.org/2000/svg" viewBox="0 0 854.27 204.01"><defs><style>.cls-1,.cls-2,.cls-3,.cls-4,.cls-5{stroke-width:0px;}.cls-1,.cls-5{fill:#ca8c34;}.cls-2{fill:#ffd19c;}.cls-3{fill:#b17f5d;}.cls-6{isolation:isolate;}.cls-4{fill:#cdc2ac;mix-blend-mode:overlay;opacity:.5;}.cls-5{mix-blend-mode:multiply;opacity:.3;}</style></defs><g class="cls-6"><g id="Layer_2"><g id="Layer_1-2"><path class="cls-3" d="M27.03,36.52C89.32,30.95,828.17-6.61,839.66,9.97c.36.52,8.2,27.72,8.54,28.49,10.36,23.85,5.61,152.62-.63,159.05-6.44,6.64-816.71,14.41-834.29-11.47C-4.3,160.17,27.03,36.52,27.03,36.52Z"/><path class="cls-2" d="M18.85,8.77c62.28-5.56,808.63-16.58,820.12,0,11.5,16.58,10.12,166.05,3.68,172.69-6.44,6.64-819.68,9.55-837.27-16.33C-12.19,139.26,18.85,8.77,18.85,8.77Z"/><path class="cls-3" d="M830.38,151.92c-10.32,23.75-802.97,7.17-802.97,7.17V25.12s791.54-13.29,800.44,6.6c8.9,19.89,12.85,96.45,2.53,120.21Z"/><path class="cls-1" d="M821.42,141.84c-7.66,19.71-794.01,5.95-794.01,5.95V36.64s785.52-11.03,792.13,5.47c6.61,16.5,9.55,80.02,1.88,99.73Z"/><path class="cls-5" d="M807.79,124.92H27.41v22.87s786.35,13.76,794.01-5.95c3.66-9.4,4.9-28.78,4.48-48.26-2.75,17.67-8.78,31.34-18.11,31.34Z"/><path class="cls-4" d="M816.32,60.81c.15,11.55-754.55,9-764.23-4.21-9.68-13.21,763.92-20.95,764.23,4.21Z"/></g></g></g></svg>