<?xml version="1.0" encoding="UTF-8"?><svg id="Layer_2" xmlns="http://www.w3.org/2000/svg" viewBox="0 0 463.49 85.89"><defs><style>.cls-1{fill:#163980;stroke-width:0px;}</style></defs><g id="Layer_1-2"><path class="cls-1" d="M433.96,1.85c-52.47-3.52-104.85,2.41-157.29,2.92-49.82.49-99.71-.51-149.5-2.36-16.83-.63-40.22-3.26-56.96-2.12-28.86,1.98-28.7-1.31-56.31,15.43C-9.16,29.71-.11,51.35,16.35,60.08c21.82,11.57,32.5,12.56,56.27,14.53,80.95,6.71,163.18,12.84,244.33,10.92,32.66-.77,68.65,1.83,100.28-11.78,15.7-6.75,32.92-18.68,42.1-35.15,9.01-16.17,3.12-34.18-15.41-35.95-3.31-.32-6.63-.58-9.96-.81Z"/></g></svg>