<?xml version="1.0" encoding="UTF-8"?><svg id="Layer_1" xmlns="http://www.w3.org/2000/svg" xmlns:xlink="http://www.w3.org/1999/xlink" viewBox="0 0 965 157.02"><defs><style>.cls-1{fill:#2a53a4;}.cls-1,.cls-2,.cls-3,.cls-4,.cls-5,.cls-6{stroke-width:0px;}.cls-2,.cls-7{fill:none;}.cls-8{clip-path:url(#clippath);}.cls-3{fill:#2751a3;}.cls-4{fill:#fff;}.cls-5{fill:#fdd800;}.cls-6{fill:#9ea2ae;}.cls-7{stroke:#2a53a4;stroke-width:3px;}</style><clipPath id="clippath"><rect class="cls-2" width="965" height="157.02"/></clipPath></defs><g class="cls-8"><path class="cls-5" d="M33.45,146.87c-4.97,0-9.01-4.03-9.01-9.01V58.49c0-4.97,4.03-9.01,9.01-9.01h38.22c8.65,0,16.35,1.48,22.9,4.41,6.98,3.13,12.49,7.72,16.39,13.66,3.91,5.97,5.9,13,5.9,20.87s-1.99,14.9-5.91,20.84c-3.88,5.88-9.38,10.46-16.32,13.61-6.56,2.98-14.28,4.49-22.95,4.49h-2.45v10.5c0,4.97-4.03,9.01-9.01,9.01h-26.76ZM69.97,88.72c.9,0,1.51-.08,1.88-.15,0-.04,0-.24,0-.28-.37-.08-.98-.15-1.88-.15h-.75v.59h.75Z"/><path class="cls-5" d="M168.06,146.87c-4.97,0-9.01-4.03-9.01-9.01v-20.25h-6.71v20.25c0,4.97-4.03,9.01-9.01,9.01h-26.76c-4.97,0-9.01-4.03-9.01-9.01V58.49c0-4.97,4.03-9.01,9.01-9.01h26.76c4.97,0,9.01,4.03,9.01,9.01v19.12h6.71v-19.12c0-4.97,4.03-9.01,9.01-9.01h26.76c4.97,0,9.01,4.03,9.01,9.01v79.38c0,4.97-4.03,9.01-9.01,9.01h-26.76Z"/><path class="cls-5" d="M245.74,148.69c-14.53,0-26.21-4.17-34.72-12.4-8.6-8.31-12.95-19.79-12.95-34.14v-43.66c0-4.97,4.03-9.01,9.01-9.01h26.76c4.97,0,9.01,4.03,9.01,9.01v42.87c0,5.5,1.09,6.97,1.1,6.99.26.3.59.68,2.03.68s1.83-.38,2.04-.63c0,0,1.09-1.5,1.09-7.04v-42.87c0-4.97,4.03-9.01,9.01-9.01h12.99c-1.11-1.99-1.43-4.35-.85-6.61.75-2.92,2.9-5.27,5.74-6.26l14.51-5.1c.98-.34,1.99-.51,2.98-.51,2.74,0,5.39,1.25,7.13,3.5,1.85,2.39,3.33,5.1,4.4,8.04,1.11,3.07,1.68,6.45,1.68,10.05,0,9.52-3.13,17.15-9.31,22.65-1.23,1.09-2.55,2.08-3.96,2.95v23.95c0,14.35-4.36,25.84-12.95,34.14-8.51,8.23-20.19,12.4-34.72,12.4Z"/><path class="cls-5" d="M340.54,148.69c-7.47,0-14.54-1.22-21-3.63-6.57-2.45-12.37-5.99-17.24-10.53-4.89-4.56-8.74-10-11.45-16.17-2.73-6.19-4.11-12.98-4.11-20.18s1.39-14.1,4.12-20.27c2.72-6.14,6.63-11.57,11.62-16.14,4.94-4.53,10.86-8.07,17.59-10.5,6.59-2.39,13.86-3.6,21.61-3.6,4.41,0,8.58.28,12.4.83,1.68.24,3.2.42,4.55.52-.91-1.89-1.15-4.06-.61-6.14.75-2.92,2.9-5.27,5.74-6.27l14.51-5.1c.98-.34,1.99-.51,2.98-.51,2.74,0,5.39,1.25,7.13,3.5,1.85,2.39,3.33,5.1,4.4,8.04,1.11,3.07,1.68,6.45,1.68,10.05,0,9.53-3.55,15.74-7.4,19.68,2.08,3.29,3.75,6.87,4.98,10.66,1.53,4.73,2.31,9.86,2.31,15.25,0,7.2-1.38,13.99-4.11,20.18-2.71,6.17-6.57,11.6-11.45,16.16-4.86,4.54-10.63,8.08-17.16,10.53-6.43,2.41-13.53,3.64-21.08,3.64ZM340.54,87.34c-1.29,0-2.43.21-3.48.66-1.02.43-1.88,1.03-2.65,1.83-.77.81-1.38,1.83-1.86,3.13-.53,1.45-.8,3.2-.8,5.22s.27,3.77.8,5.21c.48,1.3,1.09,2.33,1.86,3.13.77.81,1.64,1.41,2.66,1.84,1.05.44,2.19.66,3.48.66s2.43-.21,3.48-.66c1.02-.43,1.88-1.03,2.66-1.84.77-.81,1.38-1.83,1.86-3.13.53-1.44.8-3.2.8-5.22s-.27-3.77-.8-5.22c-.48-1.3-1.09-2.33-1.86-3.14-.77-.8-1.64-1.4-2.65-1.83-1.05-.44-2.19-.66-3.48-.66Z"/><path class="cls-5" d="M451.33,146.87c-2.67,0-5.2-1.18-6.91-3.23l-14.25-17.05v11.27c0,4.97-4.03,9.01-9.01,9.01h-26.08c-4.97,0-9.01-4.03-9.01-9.01V58.49c0-4.97,4.03-9.01,9.01-9.01h22c2.67,0,5.2,1.18,6.91,3.23l14.25,17.05v-11.27c0-4.97,4.03-9.01,9.01-9.01h26.08c4.97,0,9.01,4.03,9.01,9.01v79.38c0,4.97-4.03,9.01-9.01,9.01h-22Z"/><path class="cls-5" d="M527.42,148.69c-7.46,0-14.49-1.2-20.87-3.57-6.5-2.41-12.25-5.92-17.08-10.42-4.86-4.54-8.69-9.98-11.36-16.16-2.67-6.17-4.03-13.02-4.03-20.36s1.36-14.19,4.03-20.36c2.68-6.2,6.53-11.64,11.45-16.19,4.87-4.5,10.67-8,17.25-10.41,6.45-2.36,13.58-3.55,21.18-3.55,9.05,0,17.32,1.58,24.59,4.7,7.48,3.21,13.76,7.9,18.68,13.92,3.06,3.75,2.61,9.25-1.03,12.45l-9.4,8.28h1.18c4.97,0,9.01,4.03,9.01,9.01v33.57c0,3-1.49,5.8-3.98,7.48-5.61,3.77-12.05,6.69-19.15,8.68-6.97,1.95-13.85,2.94-20.46,2.94ZM529.34,87.34c-1.83,0-3.44.26-4.79.77-1.13.43-2.03,1.01-2.76,1.78-.82.86-1.45,1.9-1.93,3.17-.52,1.4-.79,3.12-.79,5.12,0,1.87.27,3.54.8,4.98.48,1.31,1.11,2.35,1.92,3.19.79.83,1.72,1.45,2.86,1.92,1.21.5,2.67.75,4.36.75.25,0,.5,0,.75-.02v-12.98c0-3.32,1.8-6.23,4.48-7.79-1.46-.6-3.06-.9-4.88-.9Z"/><path class="cls-5" d="M607.47,146.87c-4.97,0-9.01-4.03-9.01-9.01V58.49c0-4.97,4.03-9.01,9.01-9.01h38.21c8.65,0,16.35,1.48,22.9,4.41,6.98,3.13,12.49,7.72,16.39,13.66,3.91,5.97,5.9,12.99,5.9,20.87s-1.99,14.91-5.92,20.84c-3.88,5.87-9.37,10.45-16.32,13.61-6.55,2.98-14.28,4.49-22.95,4.49h-2.45v10.5c0,4.97-4.03,9.01-9.01,9.01h-26.76ZM643.99,88.72c.9,0,1.51-.08,1.88-.15,0-.04,0-.24,0-.28-.37-.08-.98-.15-1.88-.15h-.75v.59h.75Z"/><path class="cls-5" d="M742.08,146.87c-4.97,0-9.01-4.03-9.01-9.01v-20.25h-6.71v20.25c0,4.97-4.03,9.01-9.01,9.01h-26.76c-4.97,0-9.01-4.03-9.01-9.01V58.49c0-4.97,4.03-9.01,9.01-9.01h26.76c4.97,0,9.01,4.03,9.01,9.01v19.12h6.71v-19.12c0-4.97,4.03-9.01,9.01-9.01h26.76c4.97,0,9.01,4.03,9.01,9.01v79.38c0,4.97-4.03,9.01-9.01,9.01h-26.76Z"/><path class="cls-5" d="M841.19,146.87c-3.73,0-7.07-2.3-8.41-5.77l-3.1-8.06h-17.82l-3.1,8.06c-1.34,3.48-4.68,5.77-8.41,5.77h-27.21c-3.04,0-5.87-1.53-7.54-4.08-1.66-2.54-1.93-5.75-.72-8.54l34.7-79.38c.19-.42.4-.83.64-1.21-.48-2.58.19-5.29,1.91-7.37l14.97-18.14c1.71-2.07,4.26-3.27,6.95-3.27h24.38c3.81,0,7.21,2.4,8.49,5.99,1.28,3.59.15,7.6-2.81,10l-13.71,11.14c.83.8,1.52,1.77,2,2.87l34.7,79.38c1.22,2.78.95,6-.72,8.54-1.66,2.54-4.5,4.08-7.54,4.08h-27.67Z"/><path class="cls-5" d="M873.17,146.87c-4.97,0-9.01-4.03-9.01-9.01V58.49c0-4.97,4.03-9.01,9.01-9.01h38.21c8.65,0,16.35,1.48,22.9,4.41,6.98,3.13,12.49,7.72,16.39,13.66,3.91,5.97,5.9,12.99,5.9,20.87s-1.99,14.91-5.92,20.84c-3.88,5.87-9.37,10.45-16.32,13.61-6.55,2.98-14.28,4.49-22.95,4.49h-2.45v10.5c0,4.97-4.03,9.01-9.01,9.01h-26.76ZM909.68,88.72c.9,0,1.51-.08,1.88-.15,0-.04,0-.24,0-.28-.37-.08-.98-.15-1.88-.15h-.75v.59h.75Z"/><path class="cls-5" d="M31.45,144.87c-4.97,0-9.01-4.03-9.01-9.01V56.49c0-4.97,4.03-9.01,9.01-9.01h38.22c8.65,0,16.35,1.48,22.9,4.41,6.98,3.13,12.49,7.72,16.39,13.66,3.91,5.97,5.9,13,5.9,20.87s-1.99,14.9-5.91,20.84c-3.88,5.88-9.38,10.46-16.32,13.61-6.56,2.98-14.28,4.49-22.95,4.49h-2.45v10.5c0,4.97-4.03,9.01-9.01,9.01h-26.76ZM67.97,86.72c.9,0,1.51-.08,1.88-.15,0-.04,0-.24,0-.28-.37-.08-.98-.15-1.88-.15h-.75v.59h.75Z"/><path class="cls-5" d="M166.06,144.87c-4.97,0-9.01-4.03-9.01-9.01v-20.25h-6.71v20.25c0,4.97-4.03,9.01-9.01,9.01h-26.76c-4.97,0-9.01-4.03-9.01-9.01V56.49c0-4.97,4.03-9.01,9.01-9.01h26.76c4.97,0,9.01,4.03,9.01,9.01v19.12h6.71v-19.12c0-4.97,4.03-9.01,9.01-9.01h26.76c4.97,0,9.01,4.03,9.01,9.01v79.38c0,4.97-4.03,9.01-9.01,9.01h-26.76Z"/><path class="cls-5" d="M243.73,146.69c-14.53,0-26.21-4.17-34.72-12.4-8.6-8.31-12.95-19.79-12.95-34.14v-43.66c0-4.97,4.03-9.01,9.01-9.01h26.76c4.97,0,9.01,4.03,9.01,9.01v42.87c0,5.5,1.09,6.97,1.1,6.99.26.3.59.68,2.03.68s1.83-.38,2.04-.63c0,0,1.09-1.5,1.09-7.04v-42.87c0-4.97,4.03-9.01,9.01-9.01h12.99c-1.11-1.99-1.43-4.35-.85-6.61.75-2.92,2.9-5.27,5.74-6.26l14.51-5.1c.98-.34,1.99-.51,2.98-.51,2.74,0,5.39,1.25,7.13,3.5,1.85,2.39,3.33,5.1,4.4,8.04,1.11,3.07,1.68,6.45,1.68,10.05,0,9.52-3.13,17.15-9.31,22.65-1.23,1.09-2.55,2.08-3.96,2.95v23.95c0,14.35-4.36,25.84-12.95,34.14-8.51,8.23-20.19,12.4-34.72,12.4Z"/><path class="cls-5" d="M338.54,146.69c-7.47,0-14.54-1.22-21-3.63-6.57-2.45-12.37-5.99-17.24-10.53-4.89-4.56-8.74-10-11.45-16.17-2.73-6.19-4.11-12.98-4.11-20.18s1.39-14.1,4.12-20.27c2.72-6.14,6.63-11.57,11.62-16.14,4.94-4.53,10.86-8.07,17.59-10.5,6.59-2.39,13.86-3.6,21.61-3.6,4.41,0,8.58.28,12.4.83,1.68.24,3.2.42,4.55.52-.91-1.89-1.15-4.06-.61-6.14.75-2.92,2.9-5.27,5.74-6.27l14.51-5.1c.98-.34,1.99-.51,2.98-.51,2.74,0,5.39,1.25,7.13,3.5,1.85,2.39,3.33,5.1,4.4,8.04,1.11,3.07,1.68,6.45,1.68,10.05,0,9.53-3.55,15.74-7.4,19.68,2.08,3.29,3.75,6.87,4.98,10.66,1.53,4.73,2.31,9.86,2.31,15.25,0,7.2-1.38,13.99-4.11,20.18-2.71,6.17-6.57,11.6-11.45,16.16-4.86,4.54-10.63,8.08-17.16,10.53-6.43,2.41-13.53,3.64-21.08,3.64ZM338.54,85.34c-1.29,0-2.43.21-3.48.66-1.02.43-1.88,1.03-2.65,1.83-.77.81-1.38,1.83-1.86,3.13-.53,1.45-.8,3.2-.8,5.22s.27,3.77.8,5.21c.48,1.3,1.09,2.33,1.86,3.13.77.81,1.64,1.41,2.66,1.84,1.05.44,2.19.66,3.48.66s2.43-.21,3.48-.66c1.02-.43,1.88-1.03,2.66-1.84.77-.81,1.38-1.83,1.86-3.13.53-1.44.8-3.2.8-5.22s-.27-3.77-.8-5.22c-.48-1.3-1.09-2.33-1.86-3.14-.77-.8-1.64-1.4-2.65-1.83-1.05-.44-2.19-.66-3.48-.66Z"/><path class="cls-5" d="M449.32,144.87c-2.67,0-5.2-1.18-6.91-3.23l-14.25-17.05v11.27c0,4.97-4.03,9.01-9.01,9.01h-26.08c-4.97,0-9.01-4.03-9.01-9.01V56.49c0-4.97,4.03-9.01,9.01-9.01h22c2.67,0,5.2,1.18,6.91,3.23l14.25,17.05v-11.27c0-4.97,4.03-9.01,9.01-9.01h26.08c4.97,0,9.01,4.03,9.01,9.01v79.38c0,4.97-4.03,9.01-9.01,9.01h-22Z"/><path class="cls-5" d="M525.41,146.69c-7.46,0-14.49-1.2-20.87-3.57-6.5-2.41-12.25-5.92-17.08-10.42-4.86-4.54-8.69-9.98-11.36-16.16-2.67-6.17-4.03-13.02-4.03-20.36s1.36-14.19,4.03-20.36c2.68-6.2,6.53-11.64,11.45-16.19,4.87-4.5,10.67-8,17.25-10.41,6.45-2.36,13.58-3.55,21.18-3.55,9.05,0,17.32,1.58,24.59,4.7,7.48,3.21,13.76,7.9,18.68,13.92,3.06,3.75,2.61,9.25-1.03,12.45l-9.4,8.28h1.18c4.97,0,9.01,4.03,9.01,9.01v33.57c0,3-1.49,5.8-3.98,7.48-5.61,3.77-12.05,6.69-19.15,8.68-6.97,1.95-13.85,2.94-20.46,2.94ZM527.34,85.34c-1.83,0-3.44.26-4.79.77-1.13.43-2.03,1.01-2.76,1.78-.82.86-1.45,1.9-1.93,3.17-.52,1.4-.79,3.12-.79,5.12,0,1.87.27,3.54.8,4.98.48,1.31,1.11,2.35,1.92,3.19.79.83,1.72,1.45,2.86,1.92,1.21.5,2.67.75,4.36.75.25,0,.5,0,.75-.02v-12.98c0-3.32,1.8-6.23,4.48-7.79-1.46-.6-3.06-.9-4.88-.9Z"/><path class="cls-5" d="M605.47,144.87c-4.97,0-9.01-4.03-9.01-9.01V56.49c0-4.97,4.03-9.01,9.01-9.01h38.21c8.65,0,16.35,1.48,22.9,4.41,6.98,3.13,12.49,7.72,16.39,13.66,3.91,5.97,5.9,12.99,5.9,20.87s-1.99,14.91-5.92,20.84c-3.88,5.87-9.37,10.45-16.32,13.61-6.55,2.98-14.28,4.49-22.95,4.49h-2.45v10.5c0,4.97-4.03,9.01-9.01,9.01h-26.76ZM641.99,86.72c.9,0,1.51-.08,1.88-.15,0-.04,0-.24,0-.28-.37-.08-.98-.15-1.88-.15h-.75v.59h.75Z"/><path class="cls-5" d="M740.08,144.87c-4.97,0-9.01-4.03-9.01-9.01v-20.25h-6.71v20.25c0,4.97-4.03,9.01-9.01,9.01h-26.76c-4.97,0-9.01-4.03-9.01-9.01V56.49c0-4.97,4.03-9.01,9.01-9.01h26.76c4.97,0,9.01,4.03,9.01,9.01v19.12h6.71v-19.12c0-4.97,4.03-9.01,9.01-9.01h26.76c4.97,0,9.01,4.03,9.01,9.01v79.38c0,4.97-4.03,9.01-9.01,9.01h-26.76Z"/><path class="cls-5" d="M839.19,144.87c-3.73,0-7.07-2.3-8.41-5.77l-3.1-8.06h-17.82l-3.1,8.06c-1.34,3.48-4.68,5.77-8.41,5.77h-27.21c-3.04,0-5.87-1.53-7.54-4.08-1.66-2.54-1.93-5.75-.72-8.54l34.7-79.38c.19-.42.4-.83.64-1.21-.48-2.58.19-5.29,1.91-7.37l14.97-18.14c1.71-2.07,4.26-3.27,6.95-3.27h24.38c3.81,0,7.21,2.4,8.49,5.99,1.28,3.59.15,7.6-2.81,10l-13.71,11.14c.83.8,1.52,1.77,2,2.87l34.7,79.38c1.22,2.78.95,6-.72,8.54-1.66,2.54-4.5,4.08-7.54,4.08h-27.67Z"/><path class="cls-5" d="M871.17,144.87c-4.97,0-9.01-4.03-9.01-9.01V56.49c0-4.97,4.03-9.01,9.01-9.01h38.21c8.65,0,16.35,1.48,22.9,4.41,6.98,3.13,12.49,7.72,16.39,13.66,3.91,5.97,5.9,12.99,5.9,20.87s-1.99,14.91-5.92,20.84c-3.88,5.87-9.37,10.45-16.32,13.61-6.55,2.98-14.28,4.49-22.95,4.49h-2.45v10.5c0,4.97-4.03,9.01-9.01,9.01h-26.76ZM907.68,86.72c.9,0,1.51-.08,1.88-.15,0-.04,0-.24,0-.28-.37-.08-.98-.15-1.88-.15h-.75v.59h.75Z"/><path class="cls-5" d="M29.45,142.87c-4.97,0-9.01-4.03-9.01-9.01V54.49c0-4.97,4.03-9.01,9.01-9.01h38.22c8.65,0,16.35,1.48,22.9,4.41,6.98,3.13,12.49,7.72,16.39,13.66,3.91,5.97,5.9,13,5.9,20.87s-1.99,14.9-5.91,20.84c-3.88,5.88-9.38,10.46-16.32,13.61-6.56,2.98-14.28,4.49-22.95,4.49h-2.45v10.5c0,4.97-4.03,9.01-9.01,9.01h-26.76ZM65.97,84.72c.9,0,1.51-.08,1.88-.15,0-.04,0-.24,0-.28-.37-.08-.98-.15-1.88-.15h-.75v.59h.75Z"/><path class="cls-5" d="M164.06,142.87c-4.97,0-9.01-4.03-9.01-9.01v-20.25h-6.71v20.25c0,4.97-4.03,9.01-9.01,9.01h-26.76c-4.97,0-9.01-4.03-9.01-9.01V54.49c0-4.97,4.03-9.01,9.01-9.01h26.76c4.97,0,9.01,4.03,9.01,9.01v19.12h6.71v-19.12c0-4.97,4.03-9.01,9.01-9.01h26.76c4.97,0,9.01,4.03,9.01,9.01v79.38c0,4.97-4.03,9.01-9.01,9.01h-26.76Z"/><path class="cls-5" d="M241.73,144.69c-14.53,0-26.21-4.17-34.72-12.4-8.6-8.31-12.95-19.79-12.95-34.14v-43.66c0-4.97,4.03-9.01,9.01-9.01h26.76c4.97,0,9.01,4.03,9.01,9.01v42.87c0,5.5,1.09,6.97,1.1,6.99.26.3.59.68,2.03.68s1.83-.38,2.04-.63c0,0,1.09-1.5,1.09-7.04v-42.87c0-4.97,4.03-9.01,9.01-9.01h12.99c-1.11-1.99-1.43-4.35-.85-6.61.75-2.92,2.9-5.27,5.74-6.26l14.51-5.1c.98-.34,1.99-.51,2.98-.51,2.74,0,5.39,1.25,7.13,3.5,1.85,2.39,3.33,5.1,4.4,8.04,1.11,3.07,1.68,6.45,1.68,10.05,0,9.52-3.13,17.15-9.31,22.65-1.23,1.09-2.55,2.08-3.96,2.95v23.95c0,14.35-4.36,25.84-12.95,34.14-8.51,8.23-20.19,12.4-34.72,12.4Z"/><path class="cls-5" d="M336.53,144.69c-7.47,0-14.54-1.22-21-3.63-6.57-2.45-12.37-5.99-17.24-10.53-4.89-4.56-8.74-10-11.45-16.17-2.73-6.19-4.11-12.98-4.11-20.18s1.39-14.1,4.12-20.27c2.72-6.14,6.63-11.57,11.62-16.14,4.94-4.53,10.86-8.07,17.59-10.5,6.59-2.39,13.86-3.6,21.61-3.6,4.41,0,8.58.28,12.4.83,1.68.24,3.2.42,4.55.52-.91-1.89-1.15-4.06-.61-6.14.75-2.92,2.9-5.27,5.74-6.27l14.51-5.1c.98-.34,1.99-.51,2.98-.51,2.74,0,5.39,1.25,7.13,3.5,1.85,2.39,3.33,5.1,4.4,8.04,1.11,3.07,1.68,6.45,1.68,10.05,0,9.53-3.55,15.74-7.4,19.68,2.08,3.29,3.75,6.87,4.98,10.66,1.53,4.73,2.31,9.86,2.31,15.25,0,7.2-1.38,13.99-4.11,20.18-2.71,6.17-6.57,11.6-11.45,16.16-4.86,4.54-10.63,8.08-17.16,10.53-6.43,2.41-13.53,3.64-21.08,3.64ZM336.53,83.34c-1.29,0-2.43.21-3.48.66-1.02.43-1.88,1.03-2.65,1.83-.77.81-1.38,1.83-1.86,3.13-.53,1.45-.8,3.2-.8,5.22s.27,3.77.8,5.21c.48,1.3,1.09,2.33,1.86,3.13.77.81,1.64,1.41,2.66,1.84,1.05.44,2.19.66,3.48.66s2.43-.21,3.48-.66c1.02-.43,1.88-1.03,2.66-1.84.77-.81,1.38-1.83,1.86-3.13.53-1.44.8-3.2.8-5.22s-.27-3.77-.8-5.22c-.48-1.3-1.09-2.33-1.86-3.14-.77-.8-1.64-1.4-2.65-1.83-1.05-.44-2.19-.66-3.48-.66Z"/><path class="cls-5" d="M447.32,142.87c-2.67,0-5.2-1.18-6.91-3.23l-14.25-17.05v11.27c0,4.97-4.03,9.01-9.01,9.01h-26.08c-4.97,0-9.01-4.03-9.01-9.01V54.49c0-4.97,4.03-9.01,9.01-9.01h22c2.67,0,5.2,1.18,6.91,3.23l14.25,17.05v-11.27c0-4.97,4.03-9.01,9.01-9.01h26.08c4.97,0,9.01,4.03,9.01,9.01v79.38c0,4.97-4.03,9.01-9.01,9.01h-22Z"/><path class="cls-5" d="M523.41,144.69c-7.46,0-14.49-1.2-20.87-3.57-6.5-2.41-12.25-5.92-17.08-10.42-4.86-4.54-8.69-9.98-11.36-16.16-2.67-6.17-4.03-13.02-4.03-20.36s1.36-14.19,4.03-20.36c2.68-6.2,6.53-11.64,11.45-16.19,4.87-4.5,10.67-8,17.25-10.41,6.45-2.36,13.58-3.55,21.18-3.55,9.05,0,17.32,1.58,24.59,4.7,7.48,3.21,13.76,7.9,18.68,13.92,3.06,3.75,2.61,9.25-1.03,12.45l-9.4,8.28h1.18c4.97,0,9.01,4.03,9.01,9.01v33.57c0,3-1.49,5.8-3.98,7.48-5.61,3.77-12.05,6.69-19.15,8.68-6.97,1.95-13.85,2.94-20.46,2.94ZM525.34,83.34c-1.83,0-3.44.26-4.79.77-1.13.43-2.03,1.01-2.76,1.78-.82.86-1.45,1.9-1.93,3.17-.52,1.4-.79,3.12-.79,5.12,0,1.87.27,3.54.8,4.98.48,1.31,1.11,2.35,1.92,3.19.79.83,1.72,1.45,2.86,1.92,1.21.5,2.67.75,4.36.75.25,0,.5,0,.75-.02v-12.98c0-3.32,1.8-6.23,4.48-7.79-1.46-.6-3.06-.9-4.88-.9Z"/><path class="cls-5" d="M603.47,142.87c-4.97,0-9.01-4.03-9.01-9.01V54.49c0-4.97,4.03-9.01,9.01-9.01h38.21c8.65,0,16.35,1.48,22.9,4.41,6.98,3.13,12.49,7.72,16.39,13.66,3.91,5.97,5.9,12.99,5.9,20.87s-1.99,14.91-5.92,20.84c-3.88,5.87-9.37,10.45-16.32,13.61-6.55,2.98-14.28,4.49-22.95,4.49h-2.45v10.5c0,4.97-4.03,9.01-9.01,9.01h-26.76ZM639.99,84.72c.9,0,1.51-.08,1.88-.15,0-.04,0-.24,0-.28-.37-.08-.98-.15-1.88-.15h-.75v.59h.75Z"/><path class="cls-5" d="M738.08,142.87c-4.97,0-9.01-4.03-9.01-9.01v-20.25h-6.71v20.25c0,4.97-4.03,9.01-9.01,9.01h-26.76c-4.97,0-9.01-4.03-9.01-9.01V54.49c0-4.97,4.03-9.01,9.01-9.01h26.76c4.97,0,9.01,4.03,9.01,9.01v19.12h6.71v-19.12c0-4.97,4.03-9.01,9.01-9.01h26.76c4.97,0,9.01,4.03,9.01,9.01v79.38c0,4.97-4.03,9.01-9.01,9.01h-26.76Z"/><path class="cls-5" d="M837.19,142.87c-3.73,0-7.07-2.3-8.41-5.77l-3.1-8.06h-17.82l-3.1,8.06c-1.34,3.48-4.68,5.77-8.41,5.77h-27.21c-3.04,0-5.87-1.53-7.54-4.08-1.66-2.54-1.93-5.75-.72-8.54l34.7-79.38c.19-.42.4-.83.64-1.21-.48-2.58.19-5.29,1.91-7.37l14.97-18.14c1.71-2.07,4.26-3.27,6.95-3.27h24.38c3.81,0,7.21,2.4,8.49,5.99,1.28,3.59.15,7.6-2.81,10l-13.71,11.14c.83.8,1.52,1.77,2,2.87l34.7,79.38c1.22,2.78.95,6-.72,8.54-1.66,2.54-4.5,4.08-7.54,4.08h-27.67Z"/><path class="cls-5" d="M869.16,142.87c-4.97,0-9.01-4.03-9.01-9.01V54.49c0-4.97,4.03-9.01,9.01-9.01h38.21c8.65,0,16.35,1.48,22.9,4.41,6.98,3.13,12.49,7.72,16.39,13.66,3.91,5.97,5.9,12.99,5.9,20.87s-1.99,14.91-5.92,20.84c-3.88,5.87-9.37,10.45-16.32,13.61-6.55,2.98-14.28,4.49-22.95,4.49h-2.45v10.5c0,4.97-4.03,9.01-9.01,9.01h-26.76ZM905.68,84.72c.9,0,1.51-.08,1.88-.15,0-.04,0-.24,0-.28-.37-.08-.98-.15-1.88-.15h-.75v.59h.75Z"/><path class="cls-5" d="M27.45,140.87c-4.97,0-9.01-4.03-9.01-9.01V52.48c0-4.97,4.03-9.01,9.01-9.01h38.22c8.65,0,16.35,1.48,22.9,4.41,6.98,3.13,12.49,7.72,16.39,13.66,3.91,5.97,5.9,13,5.9,20.87s-1.99,14.9-5.91,20.84c-3.88,5.88-9.38,10.46-16.32,13.61-6.56,2.98-14.28,4.49-22.95,4.49h-2.45v10.5c0,4.97-4.03,9.01-9.01,9.01h-26.76ZM63.96,82.71c.9,0,1.51-.08,1.88-.15,0-.04,0-.24,0-.28-.37-.08-.98-.15-1.88-.15h-.75v.59h.75Z"/><path class="cls-5" d="M162.06,140.87c-4.97,0-9.01-4.03-9.01-9.01v-20.25h-6.71v20.25c0,4.97-4.03,9.01-9.01,9.01h-26.76c-4.97,0-9.01-4.03-9.01-9.01V52.48c0-4.97,4.03-9.01,9.01-9.01h26.76c4.97,0,9.01,4.03,9.01,9.01v19.12h6.71v-19.12c0-4.97,4.03-9.01,9.01-9.01h26.76c4.97,0,9.01,4.03,9.01,9.01v79.38c0,4.97-4.03,9.01-9.01,9.01h-26.76Z"/><path class="cls-5" d="M239.73,142.68c-14.53,0-26.21-4.17-34.72-12.4-8.6-8.31-12.95-19.79-12.95-34.14v-43.66c0-4.97,4.03-9.01,9.01-9.01h26.76c4.97,0,9.01,4.03,9.01,9.01v42.87c0,5.5,1.09,6.97,1.1,6.99.26.3.59.68,2.03.68s1.83-.38,2.04-.63c0,0,1.09-1.5,1.09-7.04v-42.87c0-4.97,4.03-9.01,9.01-9.01h12.99c-1.11-1.99-1.43-4.35-.85-6.61.75-2.92,2.9-5.27,5.74-6.26l14.51-5.1c.98-.34,1.99-.51,2.98-.51,2.74,0,5.39,1.25,7.13,3.5,1.85,2.39,3.33,5.1,4.4,8.04,1.11,3.07,1.68,6.45,1.68,10.05,0,9.52-3.13,17.15-9.31,22.65-1.23,1.09-2.55,2.08-3.96,2.95v23.95c0,14.35-4.36,25.84-12.95,34.14-8.51,8.23-20.19,12.4-34.72,12.4Z"/><path class="cls-5" d="M334.53,142.68c-7.47,0-14.54-1.22-21-3.63-6.57-2.45-12.37-5.99-17.24-10.53-4.89-4.56-8.74-10-11.45-16.17-2.73-6.19-4.11-12.98-4.11-20.18s1.39-14.1,4.12-20.27c2.72-6.14,6.63-11.57,11.62-16.14,4.94-4.53,10.86-8.07,17.59-10.5,6.59-2.39,13.86-3.6,21.61-3.6,4.41,0,8.58.28,12.4.83,1.68.24,3.2.42,4.55.52-.91-1.89-1.15-4.06-.61-6.14.75-2.92,2.9-5.27,5.74-6.27l14.51-5.1c.98-.34,1.99-.51,2.98-.51,2.74,0,5.39,1.25,7.13,3.5,1.85,2.39,3.33,5.1,4.4,8.04,1.11,3.07,1.68,6.45,1.68,10.05,0,9.53-3.55,15.74-7.4,19.68,2.08,3.29,3.75,6.87,4.98,10.66,1.53,4.73,2.31,9.86,2.31,15.25,0,7.2-1.38,13.99-4.11,20.18-2.71,6.17-6.57,11.6-11.45,16.16-4.86,4.54-10.63,8.08-17.16,10.53-6.43,2.41-13.53,3.64-21.08,3.64ZM334.53,81.33c-1.29,0-2.43.21-3.48.66-1.02.43-1.88,1.03-2.65,1.83-.77.81-1.38,1.83-1.86,3.13-.53,1.45-.8,3.2-.8,5.22s.27,3.77.8,5.21c.48,1.3,1.09,2.33,1.86,3.13.77.81,1.64,1.41,2.66,1.84,1.05.44,2.19.66,3.48.66s2.43-.21,3.48-.66c1.02-.43,1.88-1.03,2.66-1.84.77-.81,1.38-1.83,1.86-3.13.53-1.44.8-3.2.8-5.22s-.27-3.77-.8-5.22c-.48-1.3-1.09-2.33-1.86-3.14-.77-.8-1.64-1.4-2.65-1.83-1.05-.44-2.19-.66-3.48-.66Z"/><path class="cls-5" d="M445.32,140.87c-2.67,0-5.2-1.18-6.91-3.23l-14.25-17.05v11.27c0,4.97-4.03,9.01-9.01,9.01h-26.08c-4.97,0-9.01-4.03-9.01-9.01V52.48c0-4.97,4.03-9.01,9.01-9.01h22c2.67,0,5.2,1.18,6.91,3.23l14.25,17.05v-11.27c0-4.97,4.03-9.01,9.01-9.01h26.08c4.97,0,9.01,4.03,9.01,9.01v79.38c0,4.97-4.03,9.01-9.01,9.01h-22Z"/><path class="cls-5" d="M521.41,142.68c-7.46,0-14.49-1.2-20.87-3.57-6.5-2.41-12.25-5.92-17.08-10.42-4.86-4.54-8.69-9.98-11.36-16.16-2.67-6.17-4.03-13.02-4.03-20.36s1.36-14.19,4.03-20.36c2.68-6.2,6.53-11.64,11.45-16.19,4.87-4.5,10.67-8,17.25-10.41,6.45-2.36,13.58-3.55,21.18-3.55,9.05,0,17.32,1.58,24.59,4.7,7.48,3.21,13.76,7.9,18.68,13.92,3.06,3.75,2.61,9.25-1.03,12.45l-9.4,8.28h1.18c4.97,0,9.01,4.03,9.01,9.01v33.57c0,3-1.49,5.8-3.98,7.48-5.61,3.77-12.05,6.69-19.15,8.68-6.97,1.95-13.85,2.94-20.46,2.94ZM523.34,81.33c-1.83,0-3.44.26-4.79.77-1.13.43-2.03,1.01-2.76,1.78-.82.86-1.45,1.9-1.93,3.17-.52,1.4-.79,3.12-.79,5.12,0,1.87.27,3.54.8,4.98.48,1.31,1.11,2.35,1.92,3.19.79.83,1.72,1.45,2.86,1.92,1.21.5,2.67.75,4.36.75.25,0,.5,0,.75-.02v-12.98c0-3.32,1.8-6.23,4.48-7.79-1.46-.6-3.06-.9-4.88-.9Z"/><path class="cls-5" d="M601.47,140.87c-4.97,0-9.01-4.03-9.01-9.01V52.48c0-4.97,4.03-9.01,9.01-9.01h38.21c8.65,0,16.35,1.48,22.9,4.41,6.98,3.13,12.49,7.72,16.39,13.66,3.91,5.97,5.9,12.99,5.9,20.87s-1.99,14.91-5.92,20.84c-3.88,5.87-9.37,10.45-16.32,13.61-6.55,2.98-14.28,4.49-22.95,4.49h-2.45v10.5c0,4.97-4.03,9.01-9.01,9.01h-26.76ZM637.98,82.71c.9,0,1.51-.08,1.88-.15,0-.04,0-.24,0-.28-.37-.08-.98-.15-1.88-.15h-.75v.59h.75Z"/><path class="cls-5" d="M736.08,140.87c-4.97,0-9.01-4.03-9.01-9.01v-20.25h-6.71v20.25c0,4.97-4.03,9.01-9.01,9.01h-26.76c-4.97,0-9.01-4.03-9.01-9.01V52.48c0-4.97,4.03-9.01,9.01-9.01h26.76c4.97,0,9.01,4.03,9.01,9.01v19.12h6.71v-19.12c0-4.97,4.03-9.01,9.01-9.01h26.76c4.97,0,9.01,4.03,9.01,9.01v79.38c0,4.97-4.03,9.01-9.01,9.01h-26.76Z"/><path class="cls-5" d="M835.18,140.87c-3.73,0-7.07-2.3-8.41-5.77l-3.1-8.06h-17.82l-3.1,8.06c-1.34,3.48-4.68,5.77-8.41,5.77h-27.21c-3.04,0-5.87-1.53-7.54-4.08-1.66-2.54-1.93-5.75-.72-8.54l34.7-79.38c.19-.42.4-.83.64-1.21-.48-2.58.19-5.29,1.91-7.37l14.97-18.14c1.71-2.07,4.26-3.27,6.95-3.27h24.38c3.81,0,7.21,2.4,8.49,5.99,1.28,3.59.15,7.6-2.81,10l-13.71,11.14c.83.8,1.52,1.77,2,2.87l34.7,79.38c1.22,2.78.95,6-.72,8.54-1.66,2.54-4.5,4.08-7.54,4.08h-27.67Z"/><path class="cls-5" d="M867.16,140.87c-4.97,0-9.01-4.03-9.01-9.01V52.48c0-4.97,4.03-9.01,9.01-9.01h38.21c8.65,0,16.35,1.48,22.9,4.41,6.98,3.13,12.49,7.72,16.39,13.66,3.91,5.97,5.9,12.99,5.9,20.87s-1.99,14.91-5.92,20.84c-3.88,5.87-9.37,10.45-16.32,13.61-6.55,2.98-14.28,4.49-22.95,4.49h-2.45v10.5c0,4.97-4.03,9.01-9.01,9.01h-26.76ZM903.68,82.71c.9,0,1.51-.08,1.88-.15,0-.04,0-.24,0-.28-.37-.08-.98-.15-1.88-.15h-.75v.59h.75Z"/><path class="cls-5" d="M25.45,138.87c-4.97,0-9.01-4.03-9.01-9.01V50.48c0-4.97,4.03-9.01,9.01-9.01h38.22c8.65,0,16.35,1.48,22.9,4.41,6.98,3.13,12.49,7.72,16.39,13.66,3.91,5.97,5.9,13,5.9,20.87s-1.99,14.9-5.91,20.84c-3.88,5.88-9.38,10.46-16.32,13.61-6.56,2.98-14.28,4.49-22.95,4.49h-2.45v10.5c0,4.97-4.03,9.01-9.01,9.01h-26.76ZM61.96,80.71c.9,0,1.51-.08,1.88-.15,0-.04,0-.24,0-.28-.37-.08-.98-.15-1.88-.15h-.75v.59h.75Z"/><path class="cls-5" d="M160.05,138.87c-4.97,0-9.01-4.03-9.01-9.01v-20.25h-6.71v20.25c0,4.97-4.03,9.01-9.01,9.01h-26.76c-4.97,0-9.01-4.03-9.01-9.01V50.48c0-4.97,4.03-9.01,9.01-9.01h26.76c4.97,0,9.01,4.03,9.01,9.01v19.12h6.71v-19.12c0-4.97,4.03-9.01,9.01-9.01h26.76c4.97,0,9.01,4.03,9.01,9.01v79.38c0,4.97-4.03,9.01-9.01,9.01h-26.76Z"/><path class="cls-5" d="M237.73,140.68c-14.53,0-26.21-4.17-34.72-12.4-8.6-8.31-12.95-19.79-12.95-34.14v-43.66c0-4.97,4.03-9.01,9.01-9.01h26.76c4.97,0,9.01,4.03,9.01,9.01v42.87c0,5.5,1.09,6.97,1.1,6.99.26.3.59.68,2.03.68s1.83-.38,2.04-.63c0,0,1.09-1.5,1.09-7.04v-42.87c0-4.97,4.03-9.01,9.01-9.01h12.99c-1.11-1.99-1.43-4.35-.85-6.61.75-2.92,2.9-5.27,5.74-6.26l14.51-5.1c.98-.34,1.99-.51,2.98-.51,2.74,0,5.39,1.25,7.13,3.5,1.85,2.39,3.33,5.1,4.4,8.04,1.11,3.07,1.68,6.45,1.68,10.05,0,9.52-3.13,17.15-9.31,22.65-1.23,1.09-2.55,2.08-3.96,2.95v23.95c0,14.35-4.36,25.84-12.95,34.14-8.51,8.23-20.19,12.4-34.72,12.4Z"/><path class="cls-5" d="M332.53,140.68c-7.47,0-14.54-1.22-21-3.63-6.57-2.45-12.37-5.99-17.24-10.53-4.89-4.56-8.74-10-11.45-16.17-2.73-6.19-4.11-12.98-4.11-20.18s1.39-14.1,4.12-20.27c2.72-6.14,6.63-11.57,11.62-16.14,4.94-4.53,10.86-8.07,17.59-10.5,6.59-2.39,13.86-3.6,21.61-3.6,4.41,0,8.58.28,12.4.83,1.68.24,3.2.42,4.55.52-.91-1.89-1.15-4.06-.61-6.14.75-2.92,2.9-5.27,5.74-6.27l14.51-5.1c.98-.34,1.99-.51,2.98-.51,2.74,0,5.39,1.25,7.13,3.5,1.85,2.39,3.33,5.1,4.4,8.04,1.11,3.07,1.68,6.45,1.68,10.05,0,9.53-3.55,15.74-7.4,19.68,2.08,3.29,3.75,6.87,4.98,10.66,1.53,4.73,2.31,9.86,2.31,15.25,0,7.2-1.38,13.99-4.11,20.18-2.71,6.17-6.57,11.6-11.45,16.16-4.86,4.54-10.63,8.08-17.16,10.53-6.43,2.41-13.53,3.64-21.08,3.64ZM332.53,79.33c-1.29,0-2.43.21-3.48.66-1.02.43-1.88,1.03-2.65,1.83-.77.81-1.38,1.83-1.86,3.13-.53,1.45-.8,3.2-.8,5.22s.27,3.77.8,5.21c.48,1.3,1.09,2.33,1.86,3.13.77.81,1.64,1.41,2.66,1.84,1.05.44,2.19.66,3.48.66s2.43-.21,3.48-.66c1.02-.43,1.88-1.03,2.66-1.84.77-.81,1.38-1.83,1.86-3.13.53-1.44.8-3.2.8-5.22s-.27-3.77-.8-5.22c-.48-1.3-1.09-2.33-1.86-3.14-.77-.8-1.64-1.4-2.65-1.83-1.05-.44-2.19-.66-3.48-.66Z"/><path class="cls-5" d="M443.32,138.87c-2.67,0-5.2-1.18-6.91-3.23l-14.25-17.05v11.27c0,4.97-4.03,9.01-9.01,9.01h-26.08c-4.97,0-9.01-4.03-9.01-9.01V50.48c0-4.97,4.03-9.01,9.01-9.01h22c2.67,0,5.2,1.18,6.91,3.23l14.25,17.05v-11.27c0-4.97,4.03-9.01,9.01-9.01h26.08c4.97,0,9.01,4.03,9.01,9.01v79.38c0,4.97-4.03,9.01-9.01,9.01h-22Z"/><path class="cls-5" d="M519.41,140.68c-7.46,0-14.49-1.2-20.87-3.57-6.5-2.41-12.25-5.92-17.08-10.42-4.86-4.54-8.69-9.98-11.36-16.16-2.67-6.17-4.03-13.02-4.03-20.36s1.36-14.19,4.03-20.36c2.68-6.2,6.53-11.64,11.45-16.19,4.87-4.5,10.67-8,17.25-10.41,6.45-2.36,13.58-3.55,21.18-3.55,9.05,0,17.32,1.58,24.59,4.7,7.48,3.21,13.76,7.9,18.68,13.92,3.06,3.75,2.61,9.25-1.03,12.45l-9.4,8.28h1.18c4.97,0,9.01,4.03,9.01,9.01v33.57c0,3-1.49,5.8-3.98,7.48-5.61,3.77-12.05,6.69-19.15,8.68-6.97,1.95-13.85,2.94-20.46,2.94ZM521.34,79.33c-1.83,0-3.44.26-4.79.77-1.13.43-2.03,1.01-2.76,1.78-.82.86-1.45,1.9-1.93,3.17-.52,1.4-.79,3.12-.79,5.12,0,1.87.27,3.54.8,4.98.48,1.31,1.11,2.35,1.92,3.19.79.83,1.72,1.45,2.86,1.92,1.21.5,2.67.75,4.36.75.25,0,.5,0,.75-.02v-12.98c0-3.32,1.8-6.23,4.48-7.79-1.46-.6-3.06-.9-4.88-.9Z"/><path class="cls-5" d="M599.47,138.87c-4.97,0-9.01-4.03-9.01-9.01V50.48c0-4.97,4.03-9.01,9.01-9.01h38.21c8.65,0,16.35,1.48,22.9,4.41,6.98,3.13,12.49,7.72,16.39,13.66,3.91,5.97,5.9,12.99,5.9,20.87s-1.99,14.91-5.92,20.84c-3.88,5.87-9.37,10.45-16.32,13.61-6.55,2.98-14.28,4.49-22.95,4.49h-2.45v10.5c0,4.97-4.03,9.01-9.01,9.01h-26.76ZM635.98,80.71c.9,0,1.51-.08,1.88-.15,0-.04,0-.24,0-.28-.37-.08-.98-.15-1.88-.15h-.75v.59h.75Z"/><path class="cls-5" d="M734.07,138.87c-4.97,0-9.01-4.03-9.01-9.01v-20.25h-6.71v20.25c0,4.97-4.03,9.01-9.01,9.01h-26.76c-4.97,0-9.01-4.03-9.01-9.01V50.48c0-4.97,4.03-9.01,9.01-9.01h26.76c4.97,0,9.01,4.03,9.01,9.01v19.12h6.71v-19.12c0-4.97,4.03-9.01,9.01-9.01h26.76c4.97,0,9.01,4.03,9.01,9.01v79.38c0,4.97-4.03,9.01-9.01,9.01h-26.76Z"/><path class="cls-5" d="M833.18,138.87c-3.73,0-7.07-2.3-8.41-5.77l-3.1-8.06h-17.82l-3.1,8.06c-1.34,3.48-4.68,5.77-8.41,5.77h-27.21c-3.04,0-5.87-1.53-7.54-4.08-1.66-2.54-1.93-5.75-.72-8.54l34.7-79.38c.19-.42.4-.83.64-1.21-.48-2.58.19-5.29,1.91-7.37l14.97-18.14c1.71-2.07,4.26-3.27,6.95-3.27h24.38c3.81,0,7.21,2.4,8.49,5.99,1.28,3.59.15,7.6-2.81,10l-13.71,11.14c.83.8,1.52,1.77,2,2.87l34.7,79.38c1.22,2.78.95,6-.72,8.54-1.66,2.54-4.5,4.08-7.54,4.08h-27.67Z"/><path class="cls-5" d="M865.16,138.87c-4.97,0-9.01-4.03-9.01-9.01V50.48c0-4.97,4.03-9.01,9.01-9.01h38.21c8.65,0,16.35,1.48,22.9,4.41,6.98,3.13,12.49,7.72,16.39,13.66,3.91,5.97,5.9,12.99,5.9,20.87s-1.99,14.91-5.92,20.84c-3.88,5.87-9.37,10.45-16.32,13.61-6.55,2.98-14.28,4.49-22.95,4.49h-2.45v10.5c0,4.97-4.03,9.01-9.01,9.01h-26.76ZM901.68,80.71c.9,0,1.51-.08,1.88-.15,0-.04,0-.24,0-.28-.37-.08-.98-.15-1.88-.15h-.75v.59h.75Z"/><path class="cls-5" d="M23.45,136.87c-4.97,0-9.01-4.03-9.01-9.01V48.48c0-4.97,4.03-9.01,9.01-9.01h38.22c8.65,0,16.35,1.48,22.9,4.41,6.98,3.13,12.49,7.72,16.39,13.66,3.91,5.97,5.9,13,5.9,20.87s-1.99,14.9-5.91,20.84c-3.88,5.88-9.38,10.46-16.32,13.61-6.56,2.98-14.28,4.49-22.95,4.49h-2.45v10.5c0,4.97-4.03,9.01-9.01,9.01h-26.76ZM59.96,78.71c.9,0,1.51-.08,1.88-.15,0-.04,0-.24,0-.28-.37-.08-.98-.15-1.88-.15h-.75v.59h.75Z"/><path class="cls-5" d="M158.05,136.87c-4.97,0-9.01-4.03-9.01-9.01v-20.25h-6.71v20.25c0,4.97-4.03,9.01-9.01,9.01h-26.76c-4.97,0-9.01-4.03-9.01-9.01V48.48c0-4.97,4.03-9.01,9.01-9.01h26.76c4.97,0,9.01,4.03,9.01,9.01v19.12h6.71v-19.12c0-4.97,4.03-9.01,9.01-9.01h26.76c4.97,0,9.01,4.03,9.01,9.01v79.38c0,4.97-4.03,9.01-9.01,9.01h-26.76Z"/><path class="cls-5" d="M235.73,138.68c-14.53,0-26.21-4.17-34.72-12.4-8.6-8.31-12.95-19.79-12.95-34.14v-43.66c0-4.97,4.03-9.01,9.01-9.01h26.76c4.97,0,9.01,4.03,9.01,9.01v42.87c0,5.5,1.09,6.97,1.1,6.99.26.3.59.68,2.03.68s1.83-.38,2.04-.63c0,0,1.09-1.5,1.09-7.04v-42.87c0-4.97,4.03-9.01,9.01-9.01h12.99c-1.11-1.99-1.43-4.35-.85-6.61.75-2.92,2.9-5.27,5.74-6.26l14.51-5.1c.98-.34,1.99-.51,2.98-.51,2.74,0,5.39,1.25,7.13,3.5,1.85,2.39,3.33,5.1,4.4,8.04,1.11,3.07,1.68,6.45,1.68,10.05,0,9.52-3.13,17.15-9.31,22.65-1.23,1.09-2.55,2.08-3.96,2.95v23.95c0,14.35-4.36,25.84-12.95,34.14-8.51,8.23-20.19,12.4-34.72,12.4Z"/><path class="cls-5" d="M330.53,138.68c-7.47,0-14.54-1.22-21-3.63-6.57-2.45-12.37-5.99-17.24-10.53-4.89-4.56-8.74-10-11.45-16.17-2.73-6.19-4.11-12.98-4.11-20.18s1.39-14.1,4.12-20.27c2.72-6.14,6.63-11.57,11.62-16.14,4.94-4.53,10.86-8.07,17.59-10.5,6.59-2.39,13.86-3.6,21.61-3.6,4.41,0,8.58.28,12.4.83,1.68.24,3.2.42,4.55.52-.91-1.89-1.15-4.06-.61-6.14.75-2.92,2.9-5.27,5.74-6.27l14.51-5.1c.98-.34,1.99-.51,2.98-.51,2.74,0,5.39,1.25,7.13,3.5,1.85,2.39,3.33,5.1,4.4,8.04,1.11,3.07,1.68,6.45,1.68,10.05,0,9.53-3.55,15.74-7.4,19.68,2.08,3.29,3.75,6.87,4.98,10.66,1.53,4.73,2.31,9.86,2.31,15.25,0,7.2-1.38,13.99-4.11,20.18-2.71,6.17-6.57,11.6-11.45,16.16-4.86,4.54-10.63,8.08-17.16,10.53-6.43,2.41-13.53,3.64-21.08,3.64ZM330.53,77.33c-1.29,0-2.43.21-3.48.66-1.02.43-1.88,1.03-2.65,1.83-.77.81-1.38,1.83-1.86,3.13-.53,1.45-.8,3.2-.8,5.22s.27,3.77.8,5.21c.48,1.3,1.09,2.33,1.86,3.13.77.81,1.64,1.41,2.66,1.84,1.05.44,2.19.66,3.48.66s2.43-.21,3.48-.66c1.02-.43,1.88-1.03,2.66-1.84.77-.81,1.38-1.83,1.86-3.13.53-1.44.8-3.2.8-5.22s-.27-3.77-.8-5.22c-.48-1.3-1.09-2.33-1.86-3.14-.77-.8-1.64-1.4-2.65-1.83-1.05-.44-2.19-.66-3.48-.66Z"/><path class="cls-5" d="M441.32,136.87c-2.67,0-5.2-1.18-6.91-3.23l-14.25-17.05v11.27c0,4.97-4.03,9.01-9.01,9.01h-26.08c-4.97,0-9.01-4.03-9.01-9.01V48.48c0-4.97,4.03-9.01,9.01-9.01h22c2.67,0,5.2,1.18,6.91,3.23l14.25,17.05v-11.27c0-4.97,4.03-9.01,9.01-9.01h26.08c4.97,0,9.01,4.03,9.01,9.01v79.38c0,4.97-4.03,9.01-9.01,9.01h-22Z"/><path class="cls-5" d="M517.41,138.68c-7.46,0-14.49-1.2-20.87-3.57-6.5-2.41-12.25-5.92-17.08-10.42-4.86-4.54-8.69-9.98-11.36-16.16-2.67-6.17-4.03-13.02-4.03-20.36s1.36-14.19,4.03-20.36c2.68-6.2,6.53-11.64,11.45-16.19,4.87-4.5,10.67-8,17.25-10.41,6.45-2.36,13.58-3.55,21.18-3.55,9.05,0,17.32,1.58,24.59,4.7,7.48,3.21,13.76,7.9,18.68,13.92,3.06,3.75,2.61,9.25-1.03,12.45l-9.4,8.28h1.18c4.97,0,9.01,4.03,9.01,9.01v33.57c0,3-1.49,5.8-3.98,7.48-5.61,3.77-12.05,6.69-19.15,8.68-6.97,1.95-13.85,2.94-20.46,2.94ZM519.34,77.33c-1.83,0-3.44.26-4.79.77-1.13.43-2.03,1.01-2.76,1.78-.82.86-1.45,1.9-1.93,3.17-.52,1.4-.79,3.12-.79,5.12,0,1.87.27,3.54.8,4.98.48,1.31,1.11,2.35,1.92,3.19.79.83,1.72,1.45,2.86,1.92,1.21.5,2.67.75,4.36.75.25,0,.5,0,.75-.02v-12.98c0-3.32,1.8-6.23,4.48-7.79-1.46-.6-3.06-.9-4.88-.9Z"/><path class="cls-5" d="M597.47,136.87c-4.97,0-9.01-4.03-9.01-9.01V48.48c0-4.97,4.03-9.01,9.01-9.01h38.21c8.65,0,16.35,1.48,22.9,4.41,6.98,3.13,12.49,7.72,16.39,13.66,3.91,5.97,5.9,12.99,5.9,20.87s-1.99,14.91-5.92,20.84c-3.88,5.87-9.37,10.45-16.32,13.61-6.55,2.98-14.28,4.49-22.95,4.49h-2.45v10.5c0,4.97-4.03,9.01-9.01,9.01h-26.76ZM633.98,78.71c.9,0,1.51-.08,1.88-.15,0-.04,0-.24,0-.28-.37-.08-.98-.15-1.88-.15h-.75v.59h.75Z"/><path class="cls-5" d="M732.07,136.87c-4.97,0-9.01-4.03-9.01-9.01v-20.25h-6.71v20.25c0,4.97-4.03,9.01-9.01,9.01h-26.76c-4.97,0-9.01-4.03-9.01-9.01V48.48c0-4.97,4.03-9.01,9.01-9.01h26.76c4.97,0,9.01,4.03,9.01,9.01v19.12h6.71v-19.12c0-4.97,4.03-9.01,9.01-9.01h26.76c4.97,0,9.01,4.03,9.01,9.01v79.38c0,4.97-4.03,9.01-9.01,9.01h-26.76Z"/><path class="cls-5" d="M831.18,136.87c-3.73,0-7.07-2.3-8.41-5.77l-3.1-8.06h-17.82l-3.1,8.06c-1.34,3.48-4.68,5.77-8.41,5.77h-27.21c-3.04,0-5.87-1.53-7.54-4.08-1.66-2.54-1.93-5.75-.72-8.54l34.7-79.38c.19-.42.4-.83.64-1.21-.48-2.58.19-5.29,1.91-7.37l14.97-18.14c1.71-2.07,4.26-3.27,6.95-3.27h24.38c3.81,0,7.21,2.4,8.49,5.99,1.28,3.59.15,7.6-2.81,10l-13.71,11.14c.83.8,1.52,1.77,2,2.87l34.7,79.38c1.22,2.78.95,6-.72,8.54-1.66,2.54-4.5,4.08-7.54,4.08h-27.67Z"/><path class="cls-5" d="M863.16,136.87c-4.97,0-9.01-4.03-9.01-9.01V48.48c0-4.97,4.03-9.01,9.01-9.01h38.21c8.65,0,16.35,1.48,22.9,4.41,6.98,3.13,12.49,7.72,16.39,13.66,3.91,5.97,5.9,12.99,5.9,20.87s-1.99,14.91-5.92,20.84c-3.88,5.87-9.37,10.45-16.32,13.61-6.55,2.98-14.28,4.49-22.95,4.49h-2.45v10.5c0,4.97-4.03,9.01-9.01,9.01h-26.76ZM899.67,78.71c.9,0,1.51-.08,1.88-.15,0-.04,0-.24,0-.28-.37-.08-.98-.15-1.88-.15h-.75v.59h.75Z"/><path class="cls-5" d="M21.45,134.87c-4.97,0-9.01-4.03-9.01-9.01V46.48c0-4.97,4.03-9.01,9.01-9.01h38.22c8.65,0,16.35,1.48,22.9,4.41,6.98,3.13,12.49,7.72,16.39,13.66,3.91,5.97,5.9,13,5.9,20.87s-1.99,14.9-5.91,20.84c-3.88,5.88-9.38,10.46-16.32,13.61-6.56,2.98-14.28,4.49-22.95,4.49h-2.45v10.5c0,4.97-4.03,9.01-9.01,9.01h-26.76ZM57.96,76.71c.9,0,1.51-.08,1.88-.15,0-.04,0-.24,0-.28-.37-.08-.98-.15-1.88-.15h-.75v.59h.75Z"/><path class="cls-5" d="M156.05,134.87c-4.97,0-9.01-4.03-9.01-9.01v-20.25h-6.71v20.25c0,4.97-4.03,9.01-9.01,9.01h-26.76c-4.97,0-9.01-4.03-9.01-9.01V46.48c0-4.97,4.03-9.01,9.01-9.01h26.76c4.97,0,9.01,4.03,9.01,9.01v19.12h6.71v-19.12c0-4.97,4.03-9.01,9.01-9.01h26.76c4.97,0,9.01,4.03,9.01,9.01v79.38c0,4.97-4.03,9.01-9.01,9.01h-26.76Z"/><path class="cls-5" d="M233.73,136.68c-14.53,0-26.21-4.17-34.72-12.4-8.6-8.31-12.95-19.79-12.95-34.14v-43.66c0-4.97,4.03-9.01,9.01-9.01h26.76c4.97,0,9.01,4.03,9.01,9.01v42.87c0,5.5,1.09,6.97,1.1,6.99.26.3.59.68,2.03.68s1.83-.38,2.04-.63c0,0,1.09-1.5,1.09-7.04v-42.87c0-4.97,4.03-9.01,9.01-9.01h12.99c-1.11-1.99-1.43-4.35-.85-6.61.75-2.92,2.9-5.27,5.74-6.26l14.51-5.1c.98-.34,1.99-.51,2.98-.51,2.74,0,5.39,1.25,7.13,3.5,1.85,2.39,3.33,5.1,4.4,8.04,1.11,3.07,1.68,6.45,1.68,10.05,0,9.52-3.13,17.15-9.31,22.65-1.23,1.09-2.55,2.08-3.96,2.95v23.95c0,14.35-4.36,25.84-12.95,34.14-8.51,8.23-20.19,12.4-34.72,12.4Z"/><path class="cls-5" d="M328.53,136.68c-7.47,0-14.54-1.22-21-3.63-6.57-2.45-12.37-5.99-17.24-10.53-4.89-4.56-8.74-10-11.45-16.17-2.73-6.19-4.11-12.98-4.11-20.18s1.39-14.1,4.12-20.27c2.72-6.14,6.63-11.57,11.62-16.14,4.94-4.53,10.86-8.07,17.59-10.5,6.59-2.39,13.86-3.6,21.61-3.6,4.41,0,8.58.28,12.4.83,1.68.24,3.2.42,4.55.52-.91-1.89-1.15-4.06-.61-6.14.75-2.92,2.9-5.27,5.74-6.27l14.51-5.1c.98-.34,1.99-.51,2.98-.51,2.74,0,5.39,1.25,7.13,3.5,1.85,2.39,3.33,5.1,4.4,8.04,1.11,3.07,1.68,6.45,1.68,10.05,0,9.53-3.55,15.74-7.4,19.68,2.08,3.29,3.75,6.87,4.98,10.66,1.53,4.73,2.31,9.86,2.31,15.25,0,7.2-1.38,13.99-4.11,20.18-2.71,6.17-6.57,11.6-11.45,16.16-4.86,4.54-10.63,8.08-17.16,10.53-6.43,2.41-13.53,3.64-21.08,3.64ZM328.53,75.33c-1.29,0-2.43.21-3.48.66-1.02.43-1.88,1.03-2.65,1.83-.77.81-1.38,1.83-1.86,3.13-.53,1.45-.8,3.2-.8,5.22s.27,3.77.8,5.21c.48,1.3,1.09,2.33,1.86,3.13.77.81,1.64,1.41,2.66,1.84,1.05.44,2.19.66,3.48.66s2.43-.21,3.48-.66c1.02-.43,1.88-1.03,2.66-1.84.77-.81,1.38-1.83,1.86-3.13.53-1.44.8-3.2.8-5.22s-.27-3.77-.8-5.22c-.48-1.3-1.09-2.33-1.86-3.14-.77-.8-1.64-1.4-2.65-1.83-1.05-.44-2.19-.66-3.48-.66Z"/><path class="cls-5" d="M439.32,134.87c-2.67,0-5.2-1.18-6.91-3.23l-14.25-17.05v11.27c0,4.97-4.03,9.01-9.01,9.01h-26.08c-4.97,0-9.01-4.03-9.01-9.01V46.48c0-4.97,4.03-9.01,9.01-9.01h22c2.67,0,5.2,1.18,6.91,3.23l14.25,17.05v-11.27c0-4.97,4.03-9.01,9.01-9.01h26.08c4.97,0,9.01,4.03,9.01,9.01v79.38c0,4.97-4.03,9.01-9.01,9.01h-22Z"/><path class="cls-5" d="M515.41,136.68c-7.46,0-14.49-1.2-20.87-3.57-6.5-2.41-12.25-5.92-17.08-10.42-4.86-4.54-8.69-9.98-11.36-16.16-2.67-6.17-4.03-13.02-4.03-20.36s1.36-14.19,4.03-20.36c2.68-6.2,6.53-11.64,11.45-16.19,4.87-4.5,10.67-8,17.25-10.41,6.45-2.36,13.58-3.55,21.18-3.55,9.05,0,17.32,1.58,24.59,4.7,7.48,3.21,13.76,7.9,18.68,13.92,3.06,3.75,2.61,9.25-1.03,12.45l-9.4,8.28h1.18c4.97,0,9.01,4.03,9.01,9.01v33.57c0,3-1.49,5.8-3.98,7.48-5.61,3.77-12.05,6.69-19.15,8.68-6.97,1.95-13.85,2.94-20.46,2.94ZM517.34,75.33c-1.83,0-3.44.26-4.79.77-1.13.43-2.03,1.01-2.76,1.78-.82.86-1.45,1.9-1.93,3.17-.52,1.4-.79,3.12-.79,5.12,0,1.87.27,3.54.8,4.98.48,1.31,1.11,2.35,1.92,3.19.79.83,1.72,1.45,2.86,1.92,1.21.5,2.67.75,4.36.75.25,0,.5,0,.75-.02v-12.98c0-3.32,1.8-6.23,4.48-7.79-1.46-.6-3.06-.9-4.88-.9Z"/><path class="cls-5" d="M595.47,134.87c-4.97,0-9.01-4.03-9.01-9.01V46.48c0-4.97,4.03-9.01,9.01-9.01h38.21c8.65,0,16.35,1.48,22.9,4.41,6.98,3.13,12.49,7.72,16.39,13.66,3.91,5.97,5.9,12.99,5.9,20.87s-1.99,14.91-5.92,20.84c-3.88,5.87-9.37,10.45-16.32,13.61-6.55,2.98-14.28,4.49-22.95,4.49h-2.45v10.5c0,4.97-4.03,9.01-9.01,9.01h-26.76ZM631.98,76.71c.9,0,1.51-.08,1.88-.15,0-.04,0-.24,0-.28-.37-.08-.98-.15-1.88-.15h-.75v.59h.75Z"/><path class="cls-5" d="M730.07,134.87c-4.97,0-9.01-4.03-9.01-9.01v-20.25h-6.71v20.25c0,4.97-4.03,9.01-9.01,9.01h-26.76c-4.97,0-9.01-4.03-9.01-9.01V46.48c0-4.97,4.03-9.01,9.01-9.01h26.76c4.97,0,9.01,4.03,9.01,9.01v19.12h6.71v-19.12c0-4.97,4.03-9.01,9.01-9.01h26.76c4.97,0,9.01,4.03,9.01,9.01v79.38c0,4.97-4.03,9.01-9.01,9.01h-26.76Z"/><path class="cls-5" d="M829.18,134.87c-3.73,0-7.07-2.3-8.41-5.77l-3.1-8.06h-17.82l-3.1,8.06c-1.34,3.48-4.68,5.77-8.41,5.77h-27.21c-3.04,0-5.87-1.53-7.54-4.08-1.66-2.54-1.93-5.75-.72-8.54l34.7-79.38c.19-.42.4-.83.64-1.21-.48-2.58.19-5.29,1.91-7.37l14.97-18.14c1.71-2.07,4.26-3.27,6.95-3.27h24.38c3.81,0,7.21,2.4,8.49,5.99,1.28,3.59.15,7.6-2.81,10l-13.71,11.14c.83.8,1.52,1.77,2,2.87l34.7,79.38c1.22,2.78.95,6-.72,8.54-1.66,2.54-4.5,4.08-7.54,4.08h-27.67Z"/><path class="cls-5" d="M861.16,134.87c-4.97,0-9.01-4.03-9.01-9.01V46.48c0-4.97,4.03-9.01,9.01-9.01h38.21c8.65,0,16.35,1.48,22.9,4.41,6.98,3.13,12.49,7.72,16.39,13.66,3.91,5.97,5.9,12.99,5.9,20.87s-1.99,14.91-5.92,20.84c-3.88,5.87-9.37,10.45-16.32,13.61-6.55,2.98-14.28,4.49-22.95,4.49h-2.45v10.5c0,4.97-4.03,9.01-9.01,9.01h-26.76ZM897.67,76.71c.9,0,1.51-.08,1.88-.15,0-.04,0-.24,0-.28-.37-.08-.98-.15-1.88-.15h-.75v.59h.75Z"/><path class="cls-5" d="M19.44,132.86c-4.97,0-9.01-4.03-9.01-9.01V44.48c0-4.97,4.03-9.01,9.01-9.01h38.22c8.65,0,16.35,1.48,22.9,4.41,6.98,3.13,12.49,7.72,16.39,13.66,3.91,5.97,5.9,13,5.9,20.87s-1.99,14.9-5.91,20.84c-3.88,5.88-9.38,10.46-16.32,13.61-6.56,2.98-14.28,4.49-22.95,4.49h-2.45v10.5c0,4.97-4.03,9.01-9.01,9.01h-26.76ZM55.96,74.71c.9,0,1.51-.08,1.88-.15,0-.04,0-.24,0-.28-.37-.08-.98-.15-1.88-.15h-.75v.59h.75Z"/><path class="cls-5" d="M154.05,132.86c-4.97,0-9.01-4.03-9.01-9.01v-20.25h-6.71v20.25c0,4.97-4.03,9.01-9.01,9.01h-26.76c-4.97,0-9.01-4.03-9.01-9.01V44.48c0-4.97,4.03-9.01,9.01-9.01h26.76c4.97,0,9.01,4.03,9.01,9.01v19.12h6.71v-19.12c0-4.97,4.03-9.01,9.01-9.01h26.76c4.97,0,9.01,4.03,9.01,9.01v79.38c0,4.97-4.03,9.01-9.01,9.01h-26.76Z"/><path class="cls-5" d="M231.73,134.68c-14.53,0-26.21-4.17-34.72-12.4-8.6-8.31-12.95-19.79-12.95-34.14v-43.66c0-4.97,4.03-9.01,9.01-9.01h26.76c4.97,0,9.01,4.03,9.01,9.01v42.87c0,5.5,1.09,6.97,1.1,6.99.26.3.59.68,2.03.68s1.83-.38,2.04-.63c0,0,1.09-1.5,1.09-7.04v-42.87c0-4.97,4.03-9.01,9.01-9.01h12.99c-1.11-1.99-1.43-4.35-.85-6.61.75-2.92,2.9-5.27,5.74-6.26l14.51-5.1c.98-.34,1.99-.51,2.98-.51,2.74,0,5.39,1.25,7.13,3.5,1.85,2.39,3.33,5.1,4.4,8.04,1.11,3.07,1.68,6.45,1.68,10.05,0,9.52-3.13,17.15-9.31,22.65-1.23,1.09-2.55,2.08-3.96,2.95v23.95c0,14.35-4.36,25.84-12.95,34.14-8.51,8.23-20.19,12.4-34.72,12.4Z"/><path class="cls-5" d="M326.53,134.68c-7.47,0-14.54-1.22-21-3.63-6.57-2.45-12.37-5.99-17.24-10.53-4.89-4.56-8.74-10-11.45-16.17-2.73-6.19-4.11-12.98-4.11-20.18s1.39-14.1,4.12-20.27c2.72-6.14,6.63-11.57,11.62-16.14,4.94-4.53,10.86-8.07,17.59-10.5,6.59-2.39,13.86-3.6,21.61-3.6,4.41,0,8.58.28,12.4.83,1.68.24,3.2.42,4.55.52-.91-1.89-1.15-4.06-.61-6.14.75-2.92,2.9-5.27,5.74-6.27l14.51-5.1c.98-.34,1.99-.51,2.98-.51,2.74,0,5.39,1.25,7.13,3.5,1.85,2.39,3.33,5.1,4.4,8.04,1.11,3.07,1.68,6.45,1.68,10.05,0,9.53-3.55,15.74-7.4,19.68,2.08,3.29,3.75,6.87,4.98,10.66,1.53,4.73,2.31,9.86,2.31,15.25,0,7.2-1.38,13.99-4.11,20.18-2.71,6.17-6.57,11.6-11.45,16.16-4.86,4.54-10.63,8.08-17.16,10.53-6.43,2.41-13.53,3.64-21.08,3.64ZM326.53,73.33c-1.29,0-2.43.21-3.48.66-1.02.43-1.88,1.03-2.65,1.83-.77.81-1.38,1.83-1.86,3.13-.53,1.45-.8,3.2-.8,5.22s.27,3.77.8,5.21c.48,1.3,1.09,2.33,1.86,3.13.77.81,1.64,1.41,2.66,1.84,1.05.44,2.19.66,3.48.66s2.43-.21,3.48-.66c1.02-.43,1.88-1.03,2.66-1.84.77-.81,1.38-1.83,1.86-3.13.53-1.44.8-3.2.8-5.22s-.27-3.77-.8-5.22c-.48-1.3-1.09-2.33-1.86-3.14-.77-.8-1.64-1.4-2.65-1.83-1.05-.44-2.19-.66-3.48-.66Z"/><path class="cls-5" d="M437.32,132.86c-2.67,0-5.2-1.18-6.91-3.23l-14.25-17.05v11.27c0,4.97-4.03,9.01-9.01,9.01h-26.08c-4.97,0-9.01-4.03-9.01-9.01V44.48c0-4.97,4.03-9.01,9.01-9.01h22c2.67,0,5.2,1.18,6.91,3.23l14.25,17.05v-11.27c0-4.97,4.03-9.01,9.01-9.01h26.08c4.97,0,9.01,4.03,9.01,9.01v79.38c0,4.97-4.03,9.01-9.01,9.01h-22Z"/><path class="cls-5" d="M513.41,134.68c-7.46,0-14.49-1.2-20.87-3.57-6.5-2.41-12.25-5.92-17.08-10.42-4.86-4.54-8.69-9.98-11.36-16.16-2.67-6.17-4.03-13.02-4.03-20.36s1.36-14.19,4.03-20.36c2.68-6.2,6.53-11.64,11.45-16.19,4.87-4.5,10.67-8,17.25-10.41,6.45-2.36,13.58-3.55,21.18-3.55,9.05,0,17.32,1.58,24.59,4.7,7.48,3.21,13.76,7.9,18.68,13.92,3.06,3.75,2.61,9.25-1.03,12.45l-9.4,8.28h1.18c4.97,0,9.01,4.03,9.01,9.01v33.57c0,3-1.49,5.8-3.98,7.48-5.61,3.77-12.05,6.69-19.15,8.68-6.97,1.95-13.85,2.94-20.46,2.94ZM515.33,73.33c-1.83,0-3.44.26-4.79.77-1.13.43-2.03,1.01-2.76,1.78-.82.86-1.45,1.9-1.93,3.17-.52,1.4-.79,3.12-.79,5.12,0,1.87.27,3.54.8,4.98.48,1.31,1.11,2.35,1.92,3.19.79.83,1.72,1.45,2.86,1.92,1.21.5,2.67.75,4.36.75.25,0,.5,0,.75-.02v-12.98c0-3.32,1.8-6.23,4.48-7.79-1.46-.6-3.06-.9-4.88-.9Z"/><path class="cls-5" d="M593.46,132.86c-4.97,0-9.01-4.03-9.01-9.01V44.48c0-4.97,4.03-9.01,9.01-9.01h38.21c8.65,0,16.35,1.48,22.9,4.41,6.98,3.13,12.49,7.72,16.39,13.66,3.91,5.97,5.9,12.99,5.9,20.87s-1.99,14.91-5.92,20.84c-3.88,5.87-9.37,10.45-16.32,13.61-6.55,2.98-14.28,4.49-22.95,4.49h-2.45v10.5c0,4.97-4.03,9.01-9.01,9.01h-26.76ZM629.98,74.71c.9,0,1.51-.08,1.88-.15,0-.04,0-.24,0-.28-.37-.08-.98-.15-1.88-.15h-.75v.59h.75Z"/><path class="cls-5" d="M728.07,132.86c-4.97,0-9.01-4.03-9.01-9.01v-20.25h-6.71v20.25c0,4.97-4.03,9.01-9.01,9.01h-26.76c-4.97,0-9.01-4.03-9.01-9.01V44.48c0-4.97,4.03-9.01,9.01-9.01h26.76c4.97,0,9.01,4.03,9.01,9.01v19.12h6.71v-19.12c0-4.97,4.03-9.01,9.01-9.01h26.76c4.97,0,9.01,4.03,9.01,9.01v79.38c0,4.97-4.03,9.01-9.01,9.01h-26.76Z"/><path class="cls-5" d="M827.18,132.86c-3.73,0-7.07-2.3-8.41-5.77l-3.1-8.06h-17.82l-3.1,8.06c-1.34,3.48-4.68,5.77-8.41,5.77h-27.21c-3.04,0-5.87-1.53-7.54-4.08-1.66-2.54-1.93-5.75-.72-8.54l34.7-79.38c.19-.42.4-.83.64-1.21-.48-2.58.19-5.29,1.91-7.37l14.97-18.14c1.71-2.07,4.26-3.27,6.95-3.27h24.38c3.81,0,7.21,2.4,8.49,5.99,1.28,3.59.15,7.6-2.81,10l-13.71,11.14c.83.8,1.52,1.77,2,2.87l34.7,79.38c1.22,2.78.95,6-.72,8.54-1.66,2.54-4.5,4.08-7.54,4.08h-27.67Z"/><path class="cls-5" d="M859.16,132.86c-4.97,0-9.01-4.03-9.01-9.01V44.48c0-4.97,4.03-9.01,9.01-9.01h38.21c8.65,0,16.35,1.48,22.9,4.41,6.98,3.13,12.49,7.72,16.39,13.66,3.91,5.97,5.9,12.99,5.9,20.87s-1.99,14.91-5.92,20.84c-3.88,5.87-9.37,10.45-16.32,13.61-6.55,2.98-14.28,4.49-22.95,4.49h-2.45v10.5c0,4.97-4.03,9.01-9.01,9.01h-26.76ZM895.67,74.71c.9,0,1.51-.08,1.88-.15,0-.04,0-.24,0-.28-.37-.08-.98-.15-1.88-.15h-.75v.59h.75Z"/><path class="cls-7" d="M573.53,82.5c5.65-4.98,6.36-13.53,1.6-19.37-1.45-1.77-3.01-3.43-4.66-4.99-.65-.68-1.32-1.36-2-2-.65-.68-1.31-1.35-2-2-.65-.68-1.32-1.36-2-2-.65-.68-1.31-1.35-2-2-.65-.68-1.31-1.35-2-2-.65-.68-1.31-1.35-2-2-4.97-5.22-10.98-9.38-17.92-12.37-7.89-3.39-16.83-5.11-26.56-5.11-8.19,0-15.89,1.3-22.9,3.86-5.71,2.09-10.88,4.95-15.45,8.5-.45-.49-.93-.96-1.45-1.39-.6-.73-1.27-1.4-2-2-.6-.73-1.27-1.4-2-2-2.57-3.15-6.48-5.16-10.85-5.16h-26.08c-6.63,0-12.17,4.61-13.63,10.8-.5-.57-1.04-1.08-1.61-1.56l-.18-.21c-.55-.66-1.17-1.25-1.83-1.79l-.18-.21c-.55-.66-1.17-1.25-1.83-1.79l-.18-.21c-2.66-3.19-6.6-5.03-10.75-5.03h-11.58c-.46-.49-.94-.96-1.46-1.38-.61-.74-1.27-1.42-2-2-.61-.74-1.27-1.42-2-2-.61-.74-1.27-1.42-2-2-.61-.74-1.27-1.42-2-2-.61-.74-1.27-1.42-2-2-.61-.74-1.27-1.42-2-2-2.71-3.27-6.68-5.1-10.79-5.1-1.55,0-3.12.26-4.64.79l-14.51,5.1c-4.42,1.55-7.77,5.21-8.93,9.75-.14.55-.25,1.1-.32,1.65-3.51-.42-7.26-.63-11.17-.63-8.02,0-15.58,1.23-22.5,3.63-.2-.28-.39-.57-.6-.84-.68-.89-1.46-1.67-2.31-2.35-.61-.74-1.27-1.42-2-2-.61-.74-1.27-1.42-2-2-.61-.74-1.27-1.42-2-2-.61-.74-1.27-1.42-2-2-.61-.74-1.27-1.42-2-2-.61-.74-1.27-1.42-2-2-2.71-3.27-6.68-5.1-10.79-5.1-1.55,0-3.12.26-4.64.79l-14.51,5.1c-4.42,1.55-7.77,5.21-8.93,9.74-.24.94-.38,1.89-.42,2.84h-6.87c-5.02,0-9.41,2.64-11.89,6.61-.47-.52-.98-1.01-1.53-1.45-2.57-3.14-6.47-5.16-10.85-5.16h-26.76c-2.2,0-4.27.52-6.12,1.42-1.85-.9-3.92-1.42-6.12-1.42h-26.76c-5.15,0-9.64,2.78-12.07,6.91-.55-.64-1.15-1.23-1.8-1.76-2.57-3.14-6.47-5.15-10.85-5.15h-26.76c-5.87,0-10.89,3.62-12.98,8.74-2.17-1.46-4.49-2.77-6.99-3.89-7.2-3.22-15.59-4.85-24.94-4.85H19.44c-7.74,0-14.01,6.27-14.01,14.01v79.38c0,4.38,2.01,8.28,5.16,10.85.6.73,1.27,1.4,2,2,.6.73,1.27,1.4,2,2,.6.73,1.27,1.4,2,2,.6.73,1.27,1.4,2,2,.6.73,1.27,1.4,2,2,.6.73,1.27,1.4,2,2,2.57,3.15,6.48,5.16,10.85,5.16h26.76c7.74,0,14.01-6.27,14.01-14.01v-5.54c5.63-.19,10.88-1.01,15.72-2.42.9,1.87,2.18,3.51,3.77,4.81.6.73,1.27,1.4,2,2,.6.73,1.27,1.4,2,2,.6.73,1.27,1.4,2,2,.6.73,1.27,1.4,2,2,.6.73,1.27,1.4,2,2,.6.73,1.27,1.4,2,2,2.57,3.15,6.48,5.16,10.85,5.16h26.76c5.15,0,9.64-2.78,12.07-6.91.55.64,1.15,1.23,1.8,1.76,2.57,3.14,6.47,5.15,10.85,5.15h26.76c6.73,0,12.35-4.75,13.7-11.09,9.37,8.55,21.88,12.9,37.22,12.9s28.73-4.64,38.2-13.8c2.88-2.78,5.33-5.88,7.35-9.27.42.43.85.85,1.28,1.26.65.68,1.32,1.35,2,2,.65.68,1.31,1.35,2,2,.75.79,1.51,1.56,2.31,2.31,5.35,4.99,11.71,8.88,18.9,11.57,7.02,2.62,14.68,3.94,22.75,3.94s15.84-1.33,22.84-3.95c5.63-2.11,10.74-4.98,15.28-8.54.49.54,1.01,1.06,1.57,1.52.6.73,1.27,1.4,2,2,.6.73,1.27,1.4,2,2,2.57,3.15,6.48,5.16,10.85,5.16h26.08c6.63,0,12.17-4.61,13.63-10.8.5.57,1.04,1.08,1.61,1.56l.18.21c.55.66,1.17,1.25,1.83,1.79l.18.21c.55.66,1.17,1.25,1.83,1.79l.18.21c2.66,3.18,6.6,5.03,10.75,5.03h22c7.21,0,13.15-5.45,13.92-12.46,5.06,4.45,10.95,7.95,17.56,10.4,6.95,2.57,14.55,3.88,22.61,3.88,7.07,0,14.41-1.05,21.81-3.13,7.61-2.13,14.53-5.28,20.59-9.34,3.87-2.6,6.2-6.96,6.2-11.63v-33.57c0-4.36-2-8.24-5.12-10.81-.06-.08-.13-.15-.2-.22l2.83-2.5Z"/><path class="cls-7" d="M954.85,64.81c-1.81-2.75-3.93-5.24-6.32-7.47-.64-.69-1.31-1.36-2-2-.64-.69-1.31-1.36-2-2-.64-.69-1.31-1.36-2-2-.64-.69-1.31-1.36-2-2-.64-.69-1.31-1.36-2-2-.64-.69-1.31-1.36-2-2-3.87-4.15-8.62-7.51-14.2-10.01-7.2-3.22-15.59-4.85-24.94-4.85h-35.35c-.11-.43-.23-.85-.38-1.28-.88-2.48-2.42-4.6-4.37-6.18-.6-.73-1.27-1.41-2-2-.6-.73-1.27-1.41-2-2-.6-.73-1.27-1.41-2-2-.6-.73-1.27-1.41-2-2-.6-.73-1.27-1.41-2-2-.6-.73-1.27-1.41-2-2-2.61-3.19-6.55-5.14-10.83-5.14h-24.38c-4.18,0-8.14,1.87-10.81,5.09l-14.97,18.14c-2.25,2.73-3.35,6.15-3.19,9.57,0,.01-1.45,3.32-3.75,8.57-.51-.58-1.06-1.12-1.65-1.61-.6-.73-1.27-1.4-2-2-.6-.73-1.27-1.4-2-2-.6-.73-1.27-1.4-2-2-.6-.73-1.27-1.4-2-2-.6-.73-1.27-1.4-2-2-2.57-3.15-6.48-5.16-10.85-5.16h-26.76c-5.15,0-9.64,2.78-12.07,6.92-.55-.64-1.15-1.23-1.8-1.76-2.57-3.14-6.47-5.15-10.85-5.15h-26.76c-5.87,0-10.89,3.62-12.98,8.74-2.17-1.46-4.49-2.77-6.99-3.89-7.2-3.22-15.59-4.85-24.94-4.85h-38.21c-7.74,0-14.01,6.27-14.01,14.01v79.38c0,4.38,2.01,8.29,5.16,10.85.6.73,1.27,1.4,2,2,.6.73,1.27,1.4,2,2,.6.73,1.27,1.4,2,2,.6.73,1.27,1.4,2,2,.6.73,1.27,1.4,2,2,.6.73,1.27,1.4,2,2,2.57,3.15,6.48,5.16,10.85,5.16h26.76c7.74,0,14.01-6.27,14.01-14.01v-5.54c5.63-.19,10.88-1.01,15.72-2.42.9,1.87,2.18,3.51,3.77,4.81.6.73,1.27,1.4,2,2,.6.73,1.27,1.4,2,2,.6.73,1.27,1.4,2,2,.6.73,1.27,1.4,2,2,.6.73,1.27,1.4,2,2,.6.73,1.27,1.4,2,2,2.57,3.15,6.48,5.16,10.85,5.16h26.76c5.15,0,9.64-2.78,12.07-6.91.55.64,1.15,1.23,1.8,1.76,2.57,3.14,6.47,5.15,10.85,5.15h26.76c.74,0,1.46-.07,2.16-.18.71.11,1.42.18,2.14.18h27.21c5.8,0,11-3.57,13.08-8.98l1.87-4.85h6.26c.25.24.51.46.77.68.6.74,1.27,1.41,2,2,.6.74,1.27,1.41,2,2,.6.74,1.27,1.41,2,2,.6.74,1.27,1.41,2,2,2.61,3.2,6.56,5.15,10.85,5.15h27.67c.73,0,1.44-.07,2.14-.18.71.11,1.43.18,2.16.18h26.76c7.74,0,14.01-6.27,14.01-14.01v-5.54c8.37-.28,15.91-1.92,22.46-4.9,7.82-3.55,14.01-8.73,18.42-15.4,4.48-6.77,6.75-14.71,6.75-23.6s-2.26-16.82-6.72-23.62Z"/><path class="cls-3" d="M25.45,135.87c-3.32,0-6-2.69-6-6V50.48c0-3.32,2.69-6,6-6h38.22c8.22,0,15.51,1.4,21.67,4.15,6.45,2.89,11.53,7.11,15.1,12.56,3.59,5.48,5.41,11.94,5.41,19.23s-1.82,13.75-5.42,19.19c-3.57,5.4-8.63,9.61-15.06,12.53-6.16,2.8-13.47,4.22-21.7,4.22h-5.45v13.5c0,3.32-2.69,6-6,6h-26.76ZM61.96,83.72c2.35,0,3.67-.45,4.12-.87.23-.21.77-.72.77-2.42s-.54-2.21-.77-2.42c-.45-.42-1.77-.87-4.11-.87h-3.75v6.59h3.75Z"/><path class="cls-3" d="M160.05,135.87c-3.32,0-6-2.69-6-6v-23.25h-12.71v23.25c0,3.32-2.69,6-6,6h-26.76c-3.32,0-6-2.69-6-6V50.48c0-3.32,2.69-6,6-6h26.76c3.32,0,6,2.69,6,6v22.12h12.71v-22.12c0-3.32,2.69-6,6-6h26.76c3.32,0,6,2.69,6,6v79.38c0,3.32-2.69,6-6,6h-26.76Z"/><path class="cls-3" d="M237.73,137.68c-13.73,0-24.71-3.89-32.64-11.55-7.99-7.72-12.04-18.48-12.04-31.99v-43.66c0-3.32,2.69-6,6-6h26.76c3.32,0,6,2.69,6,6v42.87c0,6.17,1.27,8.31,1.82,8.94.74.85,1.83,1.73,4.31,1.73s3.66-.9,4.33-1.68c.54-.64,1.8-2.79,1.8-8.98v-42.87c0-3.32,2.69-6,6-6h16.82s.11-.08.21-.18c.03-.05.1-.28.1-.74,0-.58-.08-1.09-.26-1.56-.2-.53-.38-.78-.47-.89-1.34-1.49-1.85-3.56-1.35-5.5.5-1.94,1.93-3.51,3.83-4.18l14.51-5.1c.65-.23,1.33-.34,1.99-.34,1.82,0,3.59.83,4.75,2.33,1.66,2.15,2.99,4.58,3.95,7.23.99,2.74,1.5,5.77,1.5,9.02,0,8.63-2.79,15.5-8.3,20.41-1.5,1.33-3.16,2.49-4.97,3.46v25.69c0,13.5-4.05,24.27-12.04,31.99-7.93,7.67-18.91,11.55-32.64,11.55Z"/><path class="cls-3" d="M332.53,137.68c-7.11,0-13.83-1.16-19.96-3.44-6.2-2.31-11.66-5.64-16.23-9.91-4.59-4.28-8.2-9.39-10.75-15.18-2.56-5.8-3.85-12.19-3.85-18.97s1.3-13.27,3.86-19.05c2.56-5.76,6.22-10.86,10.9-15.15,4.65-4.26,10.23-7.59,16.58-9.89,6.26-2.27,13.19-3.42,20.59-3.42,4.26,0,8.29.27,11.97.8,3.1.45,5.71.68,7.76.68.69,0,1.25-.1,1.58-.27,0-.07.02-.17.02-.3,0-.58-.08-1.09-.26-1.56-.19-.53-.38-.78-.47-.88-1.34-1.49-1.85-3.56-1.35-5.5.5-1.94,1.93-3.51,3.83-4.18l14.51-5.1c.65-.23,1.33-.34,1.99-.34,1.82,0,3.59.83,4.75,2.33,1.66,2.15,2.99,4.58,3.95,7.23.99,2.74,1.5,5.77,1.5,9.03,0,10.03-4.32,15.92-8.33,19.22,2.61,3.63,4.64,7.68,6.06,12.05,1.44,4.44,2.16,9.25,2.16,14.32,0,6.78-1.3,13.17-3.85,18.97-2.55,5.79-6.17,10.9-10.75,15.18-4.57,4.27-10.01,7.6-16.17,9.91-6.1,2.29-12.83,3.44-20.02,3.44ZM332.53,76.33c-1.7,0-3.22.29-4.64.89-1.4.59-2.6,1.42-3.66,2.53-1.06,1.11-1.88,2.47-2.51,4.17-.66,1.78-.99,3.88-.99,6.26s.33,4.48.99,6.25c.63,1.7,1.44,3.06,2.51,4.17,1.06,1.11,2.26,1.94,3.66,2.53,1.42.6,2.94.89,4.64.89s3.22-.29,4.64-.89c1.4-.59,2.6-1.42,3.66-2.53,1.06-1.11,1.88-2.47,2.51-4.17.66-1.78.99-3.88.99-6.25s-.33-4.48-.99-6.26c-.63-1.69-1.45-3.06-2.51-4.17-1.06-1.11-2.26-1.94-3.66-2.52-1.42-.6-2.94-.89-4.64-.89Z"/><path class="cls-3" d="M443.32,135.87c-1.78,0-3.47-.79-4.61-2.15l-19.55-23.4v19.55c0,3.32-2.69,6-6,6h-26.08c-3.32,0-6-2.69-6-6V50.48c0-3.32,2.69-6,6-6h22c1.78,0,3.47.79,4.61,2.15l19.55,23.4v-19.55c0-3.32,2.69-6,6-6h26.08c3.32,0,6,2.69,6,6v79.38c0,3.32-2.69,6-6,6h-22Z"/><path class="cls-3" d="M519.41,137.68c-7.11,0-13.78-1.14-19.83-3.38-6.13-2.27-11.54-5.57-16.07-9.8-4.56-4.25-8.14-9.36-10.66-15.16-2.51-5.79-3.78-12.24-3.78-19.17s1.27-13.37,3.78-19.17c2.51-5.81,6.13-10.92,10.73-15.18,4.58-4.23,10.04-7.52,16.25-9.79,6.12-2.24,12.9-3.37,20.15-3.37,8.64,0,16.51,1.5,23.41,4.46,7.03,3.02,12.93,7.42,17.54,13.06,2.04,2.5,1.74,6.17-.68,8.3l-15.36,13.53h9.13c3.32,0,6,2.69,6,6v33.57c0,2-1,3.87-2.66,4.98-5.35,3.59-11.5,6.38-18.28,8.28-6.7,1.88-13.31,2.83-19.65,2.83ZM521.34,76.33c-2.2,0-4.17.33-5.86.97-1.55.59-2.82,1.41-3.86,2.51-1.11,1.16-1.95,2.53-2.57,4.19-.65,1.73-.98,3.81-.98,6.17,0,2.22.33,4.25.99,6.02.63,1.7,1.46,3.08,2.56,4.23,1.09,1.14,2.36,1.99,3.89,2.62,1.57.64,3.42.97,5.49.97,1.28,0,2.52-.11,3.75-.35v-15.65c0-3.32,2.69-6,6-6h2.96c-1.71-1.79-3.52-3.17-5.39-4.12-2.08-1.05-4.36-1.56-6.98-1.56Z"/><path class="cls-3" d="M599.47,135.87c-3.32,0-6-2.69-6-6V50.48c0-3.32,2.69-6,6-6h38.21c8.22,0,15.51,1.4,21.67,4.15,6.45,2.89,11.53,7.11,15.1,12.56,3.59,5.47,5.41,11.94,5.41,19.23s-1.82,13.75-5.42,19.19c-3.57,5.4-8.63,9.61-15.06,12.53-6.16,2.8-13.47,4.22-21.7,4.22h-5.45v13.5c0,3.32-2.69,6-6,6h-26.76ZM635.98,83.72c2.35,0,3.67-.45,4.12-.87.23-.21.76-.71.76-2.42s-.54-2.21-.77-2.42c-.45-.42-1.77-.87-4.12-.87h-3.75v6.59h3.75Z"/><path class="cls-3" d="M734.07,135.87c-3.32,0-6-2.69-6-6v-23.25h-12.71v23.25c0,3.32-2.69,6-6,6h-26.76c-3.32,0-6-2.69-6-6V50.48c0-3.32,2.69-6,6-6h26.76c3.32,0,6,2.69,6,6v22.12h12.71v-22.12c0-3.32,2.69-6,6-6h26.76c3.32,0,6,2.69,6,6v79.38c0,3.32-2.69,6-6,6h-26.76Z"/><path class="cls-3" d="M833.18,135.87c-2.48,0-4.71-1.53-5.6-3.85l-3.84-9.99h-21.94l-3.84,9.99c-.89,2.32-3.12,3.85-5.6,3.85h-27.21c-2.03,0-3.92-1.02-5.02-2.72s-1.29-3.84-.48-5.69l34.7-79.38c.29-.67.7-1.27,1.19-1.78-.84-2.04-.49-4.39.92-6.1l14.97-18.14c1.14-1.38,2.84-2.18,4.63-2.18h24.38c2.54,0,4.81,1.6,5.66,4,.85,2.4.1,5.07-1.87,6.67l-17.24,14c2.04.29,3.82,1.61,4.67,3.54l34.7,79.38c.81,1.86.63,4-.48,5.69s-3,2.72-5.02,2.72h-27.67Z"/><path class="cls-3" d="M865.16,135.87c-3.32,0-6-2.69-6-6V50.48c0-3.32,2.69-6,6-6h38.21c8.22,0,15.51,1.4,21.67,4.15,6.45,2.89,11.53,7.11,15.1,12.56,3.59,5.47,5.41,11.94,5.41,19.23s-1.82,13.75-5.42,19.19c-3.57,5.4-8.63,9.61-15.06,12.53-6.16,2.8-13.47,4.22-21.7,4.22h-5.45v13.5c0,3.32-2.69,6-6,6h-26.76ZM901.68,83.72c2.35,0,3.67-.45,4.12-.87.23-.21.76-.71.76-2.42s-.54-2.21-.77-2.42c-.45-.42-1.77-.87-4.12-.87h-3.75v6.59h3.75Z"/><path class="cls-3" d="M23.45,133.87c-3.32,0-6-2.69-6-6V48.48c0-3.32,2.69-6,6-6h38.22c8.22,0,15.51,1.4,21.67,4.15,6.45,2.89,11.53,7.11,15.1,12.56,3.59,5.48,5.41,11.94,5.41,19.23s-1.82,13.75-5.42,19.19c-3.57,5.4-8.63,9.61-15.06,12.53-6.16,2.8-13.47,4.22-21.7,4.22h-5.45v13.5c0,3.32-2.69,6-6,6h-26.76ZM59.96,81.71c2.35,0,3.67-.45,4.12-.87.23-.21.77-.72.77-2.42s-.54-2.21-.77-2.42c-.45-.42-1.77-.87-4.11-.87h-3.75v6.59h3.75Z"/><path class="cls-3" d="M158.05,133.87c-3.32,0-6-2.69-6-6v-23.25h-12.71v23.25c0,3.32-2.69,6-6,6h-26.76c-3.32,0-6-2.69-6-6V48.48c0-3.32,2.69-6,6-6h26.76c3.32,0,6,2.69,6,6v22.12h12.71v-22.12c0-3.32,2.69-6,6-6h26.76c3.32,0,6,2.69,6,6v79.38c0,3.32-2.69,6-6,6h-26.76Z"/><path class="cls-3" d="M235.73,135.68c-13.73,0-24.71-3.89-32.64-11.55-7.99-7.72-12.04-18.48-12.04-31.99v-43.66c0-3.32,2.69-6,6-6h26.76c3.32,0,6,2.69,6,6v42.87c0,6.17,1.27,8.31,1.82,8.94.74.85,1.83,1.73,4.31,1.73s3.66-.9,4.33-1.68c.54-.64,1.8-2.79,1.8-8.98v-42.87c0-3.32,2.69-6,6-6h16.82s.11-.08.21-.18c.03-.05.1-.28.1-.74,0-.58-.08-1.09-.26-1.56-.2-.53-.38-.78-.47-.89-1.34-1.49-1.85-3.56-1.35-5.5.5-1.94,1.93-3.51,3.83-4.18l14.51-5.1c.65-.23,1.33-.34,1.99-.34,1.82,0,3.59.83,4.75,2.33,1.66,2.15,2.99,4.58,3.95,7.23.99,2.74,1.5,5.77,1.5,9.02,0,8.63-2.79,15.5-8.3,20.41-1.5,1.33-3.16,2.49-4.97,3.46v25.69c0,13.5-4.05,24.27-12.04,31.99-7.93,7.67-18.91,11.55-32.64,11.55Z"/><path class="cls-3" d="M330.53,135.68c-7.11,0-13.83-1.16-19.96-3.44-6.2-2.31-11.66-5.64-16.23-9.91-4.59-4.28-8.2-9.39-10.75-15.18-2.56-5.8-3.85-12.19-3.85-18.97s1.3-13.27,3.86-19.05c2.56-5.76,6.22-10.86,10.9-15.15,4.65-4.26,10.23-7.59,16.58-9.89,6.26-2.27,13.19-3.42,20.59-3.42,4.26,0,8.29.27,11.97.8,3.1.45,5.71.68,7.76.68.69,0,1.25-.1,1.58-.27,0-.07.02-.17.02-.3,0-.58-.08-1.09-.26-1.56-.19-.53-.38-.78-.47-.88-1.34-1.49-1.85-3.56-1.35-5.5.5-1.94,1.93-3.51,3.83-4.18l14.51-5.1c.65-.23,1.33-.34,1.99-.34,1.82,0,3.59.83,4.75,2.33,1.66,2.15,2.99,4.58,3.95,7.23.99,2.74,1.5,5.77,1.5,9.03,0,10.03-4.32,15.92-8.33,19.22,2.61,3.63,4.64,7.68,6.06,12.05,1.44,4.44,2.16,9.25,2.16,14.32,0,6.78-1.3,13.17-3.85,18.97-2.55,5.79-6.17,10.9-10.75,15.18-4.57,4.27-10.01,7.6-16.17,9.91-6.1,2.29-12.83,3.44-20.02,3.44ZM330.53,74.33c-1.7,0-3.22.29-4.64.89-1.4.59-2.6,1.42-3.66,2.53-1.06,1.11-1.88,2.47-2.51,4.17-.66,1.78-.99,3.88-.99,6.26s.33,4.48.99,6.25c.63,1.7,1.44,3.06,2.51,4.17,1.06,1.11,2.26,1.94,3.66,2.53,1.42.6,2.94.89,4.64.89s3.22-.29,4.64-.89c1.4-.59,2.6-1.42,3.66-2.53,1.06-1.11,1.88-2.47,2.51-4.17.66-1.78.99-3.88.99-6.25s-.33-4.48-.99-6.26c-.63-1.69-1.45-3.06-2.51-4.17-1.06-1.11-2.26-1.94-3.66-2.52-1.42-.6-2.94-.89-4.64-.89Z"/><path class="cls-3" d="M441.32,133.87c-1.78,0-3.47-.79-4.61-2.15l-19.55-23.4v19.55c0,3.32-2.69,6-6,6h-26.08c-3.32,0-6-2.69-6-6V48.48c0-3.32,2.69-6,6-6h22c1.78,0,3.47.79,4.61,2.15l19.55,23.4v-19.55c0-3.32,2.69-6,6-6h26.08c3.32,0,6,2.69,6,6v79.38c0,3.32-2.69,6-6,6h-22Z"/><path class="cls-3" d="M517.41,135.68c-7.11,0-13.78-1.14-19.83-3.38-6.13-2.27-11.54-5.57-16.07-9.8-4.56-4.25-8.14-9.36-10.66-15.16-2.51-5.79-3.78-12.24-3.78-19.17s1.27-13.37,3.78-19.17c2.51-5.81,6.13-10.92,10.73-15.18,4.58-4.23,10.04-7.52,16.25-9.79,6.12-2.24,12.9-3.37,20.15-3.37,8.64,0,16.51,1.5,23.41,4.46,7.03,3.02,12.93,7.42,17.54,13.06,2.04,2.5,1.74,6.17-.68,8.3l-15.36,13.53h9.13c3.32,0,6,2.69,6,6v33.57c0,2-1,3.87-2.66,4.98-5.35,3.59-11.5,6.38-18.28,8.28-6.7,1.88-13.31,2.83-19.65,2.83ZM519.34,74.33c-2.2,0-4.17.33-5.86.97-1.55.59-2.82,1.41-3.86,2.51-1.11,1.16-1.95,2.53-2.57,4.19-.65,1.73-.98,3.81-.98,6.17,0,2.22.33,4.25.99,6.02.63,1.7,1.46,3.08,2.56,4.23,1.09,1.14,2.36,1.99,3.89,2.62,1.57.64,3.42.97,5.49.97,1.28,0,2.52-.11,3.75-.35v-15.65c0-3.32,2.69-6,6-6h2.96c-1.71-1.79-3.52-3.17-5.39-4.12-2.08-1.05-4.36-1.56-6.98-1.56Z"/><path class="cls-3" d="M597.47,133.87c-3.32,0-6-2.69-6-6V48.48c0-3.32,2.69-6,6-6h38.21c8.22,0,15.51,1.4,21.67,4.15,6.45,2.89,11.53,7.11,15.1,12.56,3.59,5.47,5.41,11.94,5.41,19.23s-1.82,13.75-5.42,19.19c-3.57,5.4-8.63,9.61-15.06,12.53-6.16,2.8-13.47,4.22-21.7,4.22h-5.45v13.5c0,3.32-2.69,6-6,6h-26.76ZM633.98,81.71c2.35,0,3.67-.45,4.12-.87.23-.21.76-.71.76-2.42s-.54-2.21-.77-2.42c-.45-.42-1.77-.87-4.12-.87h-3.75v6.59h3.75Z"/><path class="cls-3" d="M732.07,133.87c-3.32,0-6-2.69-6-6v-23.25h-12.71v23.25c0,3.32-2.69,6-6,6h-26.76c-3.32,0-6-2.69-6-6V48.48c0-3.32,2.69-6,6-6h26.76c3.32,0,6,2.69,6,6v22.12h12.71v-22.12c0-3.32,2.69-6,6-6h26.76c3.32,0,6,2.69,6,6v79.38c0,3.32-2.69,6-6,6h-26.76Z"/><path class="cls-3" d="M831.18,133.87c-2.48,0-4.71-1.53-5.6-3.85l-3.84-9.99h-21.94l-3.84,9.99c-.89,2.32-3.12,3.85-5.6,3.85h-27.21c-2.03,0-3.92-1.02-5.02-2.72s-1.29-3.84-.48-5.69l34.7-79.38c.29-.67.7-1.27,1.19-1.78-.84-2.04-.49-4.39.92-6.1l14.97-18.14c1.14-1.38,2.84-2.18,4.63-2.18h24.38c2.54,0,4.81,1.6,5.66,4,.85,2.4.1,5.07-1.87,6.67l-17.24,14c2.04.29,3.82,1.61,4.67,3.54l34.7,79.38c.81,1.86.63,4-.48,5.69s-3,2.72-5.02,2.72h-27.67Z"/><path class="cls-3" d="M863.16,133.87c-3.32,0-6-2.69-6-6V48.48c0-3.32,2.69-6,6-6h38.21c8.22,0,15.51,1.4,21.67,4.15,6.45,2.89,11.53,7.11,15.1,12.56,3.59,5.47,5.41,11.94,5.41,19.23s-1.82,13.75-5.42,19.19c-3.57,5.4-8.63,9.61-15.06,12.53-6.16,2.8-13.47,4.22-21.7,4.22h-5.45v13.5c0,3.32-2.69,6-6,6h-26.76ZM899.67,81.71c2.35,0,3.67-.45,4.12-.87.23-.21.76-.71.76-2.42s-.54-2.21-.77-2.42c-.45-.42-1.77-.87-4.12-.87h-3.75v6.59h3.75Z"/><path class="cls-3" d="M21.45,131.86c-3.32,0-6-2.69-6-6V46.48c0-3.32,2.69-6,6-6h38.22c8.22,0,15.51,1.4,21.67,4.15,6.45,2.89,11.53,7.11,15.1,12.56,3.59,5.48,5.41,11.94,5.41,19.23s-1.82,13.75-5.42,19.19c-3.57,5.4-8.63,9.61-15.06,12.53-6.16,2.8-13.47,4.22-21.7,4.22h-5.45v13.5c0,3.32-2.69,6-6,6h-26.76ZM57.96,79.71c2.35,0,3.67-.45,4.12-.87.23-.21.77-.72.77-2.42s-.54-2.21-.77-2.42c-.45-.42-1.77-.87-4.11-.87h-3.75v6.59h3.75Z"/><path class="cls-3" d="M156.05,131.86c-3.32,0-6-2.69-6-6v-23.25h-12.71v23.25c0,3.32-2.69,6-6,6h-26.76c-3.32,0-6-2.69-6-6V46.48c0-3.32,2.69-6,6-6h26.76c3.32,0,6,2.69,6,6v22.12h12.71v-22.12c0-3.32,2.69-6,6-6h26.76c3.32,0,6,2.69,6,6v79.38c0,3.32-2.69,6-6,6h-26.76Z"/><path class="cls-3" d="M233.73,133.68c-13.73,0-24.71-3.89-32.64-11.55-7.99-7.72-12.04-18.48-12.04-31.99v-43.66c0-3.32,2.69-6,6-6h26.76c3.32,0,6,2.69,6,6v42.87c0,6.17,1.27,8.31,1.82,8.94.74.85,1.83,1.73,4.31,1.73s3.66-.9,4.33-1.68c.54-.64,1.8-2.79,1.8-8.98v-42.87c0-3.32,2.69-6,6-6h16.82s.11-.08.21-.18c.03-.05.1-.28.1-.74,0-.58-.08-1.09-.26-1.56-.2-.53-.38-.78-.47-.89-1.34-1.49-1.85-3.56-1.35-5.5.5-1.94,1.93-3.51,3.83-4.18l14.51-5.1c.65-.23,1.33-.34,1.99-.34,1.82,0,3.59.83,4.75,2.33,1.66,2.15,2.99,4.58,3.95,7.23.99,2.74,1.5,5.77,1.5,9.02,0,8.63-2.79,15.5-8.3,20.41-1.5,1.33-3.16,2.49-4.97,3.46v25.69c0,13.5-4.05,24.27-12.04,31.99-7.93,7.67-18.91,11.55-32.64,11.55Z"/><path class="cls-3" d="M328.53,133.68c-7.11,0-13.83-1.16-19.96-3.44-6.2-2.31-11.66-5.64-16.23-9.91-4.59-4.28-8.2-9.39-10.75-15.18-2.56-5.8-3.85-12.19-3.85-18.97s1.3-13.27,3.86-19.05c2.56-5.76,6.22-10.86,10.9-15.15,4.65-4.26,10.23-7.59,16.58-9.89,6.26-2.27,13.19-3.42,20.59-3.42,4.26,0,8.29.27,11.97.8,3.1.45,5.71.68,7.76.68.69,0,1.25-.1,1.58-.27,0-.07.02-.17.02-.3,0-.58-.08-1.09-.26-1.56-.19-.53-.38-.78-.47-.88-1.34-1.49-1.85-3.56-1.35-5.5.5-1.94,1.93-3.51,3.83-4.18l14.51-5.1c.65-.23,1.33-.34,1.99-.34,1.82,0,3.59.83,4.75,2.33,1.66,2.15,2.99,4.58,3.95,7.23.99,2.74,1.5,5.77,1.5,9.03,0,10.03-4.32,15.92-8.33,19.22,2.61,3.63,4.64,7.68,6.06,12.05,1.44,4.44,2.16,9.25,2.16,14.32,0,6.78-1.3,13.17-3.85,18.97-2.55,5.79-6.17,10.9-10.75,15.18-4.57,4.27-10.01,7.6-16.17,9.91-6.1,2.29-12.83,3.44-20.02,3.44ZM328.53,72.33c-1.7,0-3.22.29-4.64.89-1.4.59-2.6,1.42-3.66,2.53-1.06,1.11-1.88,2.47-2.51,4.17-.66,1.78-.99,3.88-.99,6.26s.33,4.48.99,6.25c.63,1.7,1.44,3.06,2.51,4.17,1.06,1.11,2.26,1.94,3.66,2.53,1.42.6,2.94.89,4.64.89s3.22-.29,4.64-.89c1.4-.59,2.6-1.42,3.66-2.53,1.06-1.11,1.88-2.47,2.51-4.17.66-1.78.99-3.88.99-6.25s-.33-4.48-.99-6.26c-.63-1.69-1.45-3.06-2.51-4.17-1.06-1.11-2.26-1.94-3.66-2.52-1.42-.6-2.94-.89-4.64-.89Z"/><path class="cls-3" d="M439.32,131.86c-1.78,0-3.47-.79-4.61-2.15l-19.55-23.4v19.55c0,3.32-2.69,6-6,6h-26.08c-3.32,0-6-2.69-6-6V46.48c0-3.32,2.69-6,6-6h22c1.78,0,3.47.79,4.61,2.15l19.55,23.4v-19.55c0-3.32,2.69-6,6-6h26.08c3.32,0,6,2.69,6,6v79.38c0,3.32-2.69,6-6,6h-22Z"/><path class="cls-3" d="M515.41,133.68c-7.11,0-13.78-1.14-19.83-3.38-6.13-2.27-11.54-5.57-16.07-9.8-4.56-4.25-8.14-9.36-10.66-15.16-2.51-5.79-3.78-12.24-3.78-19.17s1.27-13.37,3.78-19.17c2.51-5.81,6.13-10.92,10.73-15.18,4.58-4.23,10.04-7.52,16.25-9.79,6.12-2.24,12.9-3.37,20.15-3.37,8.64,0,16.51,1.5,23.41,4.46,7.03,3.02,12.93,7.42,17.54,13.06,2.04,2.5,1.74,6.17-.68,8.3l-15.36,13.53h9.13c3.32,0,6,2.69,6,6v33.57c0,2-1,3.87-2.66,4.98-5.35,3.59-11.5,6.38-18.28,8.28-6.7,1.88-13.31,2.83-19.65,2.83ZM517.34,72.33c-2.2,0-4.17.33-5.86.97-1.55.59-2.82,1.41-3.86,2.51-1.11,1.16-1.95,2.53-2.57,4.19-.65,1.73-.98,3.81-.98,6.17,0,2.22.33,4.25.99,6.02.63,1.7,1.46,3.08,2.56,4.23,1.09,1.14,2.36,1.99,3.89,2.62,1.57.64,3.42.97,5.49.97,1.28,0,2.52-.11,3.75-.35v-15.65c0-3.32,2.69-6,6-6h2.96c-1.71-1.79-3.52-3.17-5.39-4.12-2.08-1.05-4.36-1.56-6.98-1.56Z"/><path class="cls-3" d="M595.47,131.86c-3.32,0-6-2.69-6-6V46.48c0-3.32,2.69-6,6-6h38.21c8.22,0,15.51,1.4,21.67,4.15,6.45,2.89,11.53,7.11,15.1,12.56,3.59,5.47,5.41,11.94,5.41,19.23s-1.82,13.75-5.42,19.19c-3.57,5.4-8.63,9.61-15.06,12.53-6.16,2.8-13.47,4.22-21.7,4.22h-5.45v13.5c0,3.32-2.69,6-6,6h-26.76ZM631.98,79.71c2.35,0,3.67-.45,4.12-.87.23-.21.76-.71.76-2.42s-.54-2.21-.77-2.42c-.45-.42-1.77-.87-4.12-.87h-3.75v6.59h3.75Z"/><path class="cls-3" d="M730.07,131.86c-3.32,0-6-2.69-6-6v-23.25h-12.71v23.25c0,3.32-2.69,6-6,6h-26.76c-3.32,0-6-2.69-6-6V46.48c0-3.32,2.69-6,6-6h26.76c3.32,0,6,2.69,6,6v22.12h12.71v-22.12c0-3.32,2.69-6,6-6h26.76c3.32,0,6,2.69,6,6v79.38c0,3.32-2.69,6-6,6h-26.76Z"/><path class="cls-3" d="M829.18,131.86c-2.48,0-4.71-1.53-5.6-3.85l-3.84-9.99h-21.94l-3.84,9.99c-.89,2.32-3.12,3.85-5.6,3.85h-27.21c-2.03,0-3.92-1.02-5.02-2.72s-1.29-3.84-.48-5.69l34.7-79.38c.29-.67.7-1.27,1.19-1.78-.84-2.04-.49-4.39.92-6.1l14.97-18.14c1.14-1.38,2.84-2.18,4.63-2.18h24.38c2.54,0,4.81,1.6,5.66,4,.85,2.4.1,5.07-1.87,6.67l-17.24,14c2.04.29,3.82,1.61,4.67,3.54l34.7,79.38c.81,1.86.63,4-.48,5.69s-3,2.72-5.02,2.72h-27.67Z"/><path class="cls-3" d="M861.16,131.86c-3.32,0-6-2.69-6-6V46.48c0-3.32,2.69-6,6-6h38.21c8.22,0,15.51,1.4,21.67,4.15,6.45,2.89,11.53,7.11,15.1,12.56,3.59,5.47,5.41,11.94,5.41,19.23s-1.82,13.75-5.42,19.19c-3.57,5.4-8.63,9.61-15.06,12.53-6.16,2.8-13.47,4.22-21.7,4.22h-5.45v13.5c0,3.32-2.69,6-6,6h-26.76ZM897.67,79.71c2.35,0,3.67-.45,4.12-.87.23-.21.76-.71.76-2.42s-.54-2.21-.77-2.42c-.45-.42-1.77-.87-4.12-.87h-3.75v6.59h3.75Z"/><path class="cls-3" d="M19.44,129.86c-3.32,0-6-2.69-6-6V44.48c0-3.32,2.69-6,6-6h38.22c8.22,0,15.51,1.4,21.67,4.15,6.45,2.89,11.53,7.11,15.1,12.56,3.59,5.48,5.41,11.94,5.41,19.23s-1.82,13.75-5.42,19.19c-3.57,5.4-8.63,9.61-15.06,12.53-6.16,2.8-13.47,4.22-21.7,4.22h-5.45v13.5c0,3.32-2.69,6-6,6h-26.76ZM55.96,77.71c2.35,0,3.67-.45,4.12-.87.23-.21.77-.72.77-2.42s-.54-2.21-.77-2.42c-.45-.42-1.77-.87-4.11-.87h-3.75v6.59h3.75Z"/><path class="cls-3" d="M154.05,129.86c-3.32,0-6-2.69-6-6v-23.25h-12.71v23.25c0,3.32-2.69,6-6,6h-26.76c-3.32,0-6-2.69-6-6V44.48c0-3.32,2.69-6,6-6h26.76c3.32,0,6,2.69,6,6v22.12h12.71v-22.12c0-3.32,2.69-6,6-6h26.76c3.32,0,6,2.69,6,6v79.38c0,3.32-2.69,6-6,6h-26.76Z"/><path class="cls-3" d="M231.73,131.68c-13.73,0-24.71-3.89-32.64-11.55-7.99-7.72-12.04-18.48-12.04-31.99v-43.66c0-3.32,2.69-6,6-6h26.76c3.32,0,6,2.69,6,6v42.87c0,6.17,1.27,8.31,1.82,8.94.74.85,1.83,1.73,4.31,1.73s3.66-.9,4.33-1.68c.54-.64,1.8-2.79,1.8-8.98v-42.87c0-3.32,2.69-6,6-6h16.82s.11-.08.21-.18c.03-.05.1-.28.1-.74,0-.58-.08-1.09-.26-1.56-.2-.53-.38-.78-.47-.89-1.34-1.49-1.85-3.56-1.35-5.5.5-1.94,1.93-3.51,3.83-4.18l14.51-5.1c.65-.23,1.33-.34,1.99-.34,1.82,0,3.59.83,4.75,2.33,1.66,2.15,2.99,4.58,3.95,7.23.99,2.74,1.5,5.77,1.5,9.02,0,8.63-2.79,15.5-8.3,20.41-1.5,1.33-3.16,2.49-4.97,3.46v25.69c0,13.5-4.05,24.27-12.04,31.99-7.93,7.67-18.91,11.55-32.64,11.55Z"/><path class="cls-3" d="M326.53,131.68c-7.11,0-13.83-1.16-19.96-3.44-6.2-2.31-11.66-5.64-16.23-9.91-4.59-4.28-8.2-9.39-10.75-15.18-2.56-5.8-3.85-12.19-3.85-18.97s1.3-13.27,3.86-19.05c2.56-5.76,6.22-10.86,10.9-15.15,4.65-4.26,10.23-7.59,16.58-9.89,6.26-2.27,13.19-3.42,20.59-3.42,4.26,0,8.29.27,11.97.8,3.1.45,5.71.68,7.76.68.69,0,1.25-.1,1.58-.27,0-.07.02-.17.02-.3,0-.58-.08-1.09-.26-1.56-.19-.53-.38-.78-.47-.88-1.34-1.49-1.85-3.56-1.35-5.5.5-1.94,1.93-3.51,3.83-4.18l14.51-5.1c.65-.23,1.33-.34,1.99-.34,1.82,0,3.59.83,4.75,2.33,1.66,2.15,2.99,4.58,3.95,7.23.99,2.74,1.5,5.77,1.5,9.03,0,10.03-4.32,15.92-8.33,19.22,2.61,3.63,4.64,7.68,6.06,12.05,1.44,4.44,2.16,9.25,2.16,14.32,0,6.78-1.3,13.17-3.85,18.97-2.55,5.79-6.17,10.9-10.75,15.18-4.57,4.27-10.01,7.6-16.17,9.91-6.1,2.29-12.83,3.44-20.02,3.44ZM326.53,70.33c-1.7,0-3.22.29-4.64.89-1.4.59-2.6,1.42-3.66,2.53-1.06,1.11-1.88,2.47-2.51,4.17-.66,1.78-.99,3.88-.99,6.26s.33,4.48.99,6.25c.63,1.7,1.44,3.06,2.51,4.17,1.06,1.11,2.26,1.94,3.66,2.53,1.42.6,2.94.89,4.64.89s3.22-.29,4.64-.89c1.4-.59,2.6-1.42,3.66-2.53,1.06-1.11,1.88-2.47,2.51-4.17.66-1.78.99-3.88.99-6.25s-.33-4.48-.99-6.26c-.63-1.69-1.45-3.06-2.51-4.17-1.06-1.11-2.26-1.94-3.66-2.52-1.42-.6-2.94-.89-4.64-.89Z"/><path class="cls-3" d="M437.32,129.86c-1.78,0-3.47-.79-4.61-2.15l-19.55-23.4v19.55c0,3.32-2.69,6-6,6h-26.08c-3.32,0-6-2.69-6-6V44.48c0-3.32,2.69-6,6-6h22c1.78,0,3.47.79,4.61,2.15l19.55,23.4v-19.55c0-3.32,2.69-6,6-6h26.08c3.32,0,6,2.69,6,6v79.38c0,3.32-2.69,6-6,6h-22Z"/><path class="cls-3" d="M513.41,131.68c-7.11,0-13.78-1.14-19.83-3.38-6.13-2.27-11.54-5.57-16.07-9.8-4.56-4.25-8.14-9.36-10.66-15.16-2.51-5.79-3.78-12.24-3.78-19.17s1.27-13.37,3.78-19.17c2.51-5.81,6.13-10.92,10.73-15.18,4.58-4.23,10.04-7.52,16.25-9.79,6.12-2.24,12.9-3.37,20.15-3.37,8.64,0,16.51,1.5,23.41,4.46,7.03,3.02,12.93,7.42,17.54,13.06,2.04,2.5,1.74,6.17-.68,8.3l-15.36,13.53h9.13c3.32,0,6,2.69,6,6v33.57c0,2-1,3.87-2.66,4.98-5.35,3.59-11.5,6.38-18.28,8.28-6.7,1.88-13.31,2.83-19.65,2.83ZM515.33,70.33c-2.2,0-4.17.33-5.86.97-1.55.59-2.82,1.41-3.86,2.51-1.11,1.16-1.95,2.53-2.57,4.19-.65,1.73-.98,3.81-.98,6.17,0,2.22.33,4.25.99,6.02.63,1.7,1.46,3.08,2.56,4.23,1.09,1.14,2.36,1.99,3.89,2.62,1.57.64,3.42.97,5.49.97,1.28,0,2.52-.11,3.75-.35v-15.65c0-3.32,2.69-6,6-6h2.96c-1.71-1.79-3.52-3.17-5.39-4.12-2.08-1.05-4.36-1.56-6.98-1.56Z"/><path class="cls-3" d="M593.46,129.86c-3.32,0-6-2.69-6-6V44.48c0-3.32,2.69-6,6-6h38.21c8.22,0,15.51,1.4,21.67,4.15,6.45,2.89,11.53,7.11,15.1,12.56,3.59,5.47,5.41,11.94,5.41,19.23s-1.82,13.75-5.42,19.19c-3.57,5.4-8.63,9.61-15.06,12.53-6.16,2.8-13.47,4.22-21.7,4.22h-5.45v13.5c0,3.32-2.69,6-6,6h-26.76ZM629.98,77.71c2.35,0,3.67-.45,4.12-.87.23-.21.76-.71.76-2.42s-.54-2.21-.77-2.42c-.45-.42-1.77-.87-4.12-.87h-3.75v6.59h3.75Z"/><path class="cls-3" d="M728.07,129.86c-3.32,0-6-2.69-6-6v-23.25h-12.71v23.25c0,3.32-2.69,6-6,6h-26.76c-3.32,0-6-2.69-6-6V44.48c0-3.32,2.69-6,6-6h26.76c3.32,0,6,2.69,6,6v22.12h12.71v-22.12c0-3.32,2.69-6,6-6h26.76c3.32,0,6,2.69,6,6v79.38c0,3.32-2.69,6-6,6h-26.76Z"/><path class="cls-3" d="M827.18,129.86c-2.48,0-4.71-1.53-5.6-3.85l-3.84-9.99h-21.94l-3.84,9.99c-.89,2.32-3.12,3.85-5.6,3.85h-27.21c-2.03,0-3.92-1.02-5.02-2.72s-1.29-3.84-.48-5.69l34.7-79.38c.29-.67.7-1.27,1.19-1.78-.84-2.04-.49-4.39.92-6.1l14.97-18.14c1.14-1.38,2.84-2.18,4.63-2.18h24.38c2.54,0,4.81,1.6,5.66,4,.85,2.4.1,5.07-1.87,6.67l-17.24,14c2.04.29,3.82,1.61,4.67,3.54l34.7,79.38c.81,1.86.63,4-.48,5.69s-3,2.72-5.02,2.72h-27.67Z"/><path class="cls-3" d="M859.16,129.86c-3.32,0-6-2.69-6-6V44.48c0-3.32,2.69-6,6-6h38.21c8.22,0,15.51,1.4,21.67,4.15,6.45,2.89,11.53,7.11,15.1,12.56,3.59,5.47,5.41,11.94,5.41,19.23s-1.82,13.75-5.42,19.19c-3.57,5.4-8.63,9.61-15.06,12.53-6.16,2.8-13.47,4.22-21.7,4.22h-5.45v13.5c0,3.32-2.69,6-6,6h-26.76ZM895.67,77.71c2.35,0,3.67-.45,4.12-.87.23-.21.76-.71.76-2.42s-.54-2.21-.77-2.42c-.45-.42-1.77-.87-4.12-.87h-3.75v6.59h3.75Z"/><path class="cls-1" d="M19.44,126.86c-1.66,0-3-1.34-3-3V44.48c0-1.66,1.34-3,3-3h38.22c7.8,0,14.67,1.31,20.45,3.89,5.91,2.65,10.56,6.51,13.82,11.47,3.26,4.98,4.91,10.89,4.91,17.58s-1.66,12.59-4.92,17.53c-3.25,4.92-7.89,8.77-13.79,11.45-5.77,2.62-12.66,3.95-20.46,3.95h-8.45v16.5c0,1.66-1.34,3-3,3h-26.76ZM55.96,80.71c2.9,0,4.98-.57,6.17-1.68,1.15-1.08,1.72-2.59,1.72-4.61s-.56-3.53-1.72-4.61c-1.19-1.12-3.27-1.68-6.17-1.68h-6.75v12.59h6.75Z"/><path class="cls-1" d="M154.05,126.86c-1.66,0-3-1.34-3-3v-26.25h-18.72v26.25c0,1.66-1.34,3-3,3h-26.76c-1.66,0-3-1.34-3-3V44.48c0-1.66,1.34-3,3-3h26.76c1.66,0,3,1.34,3,3v25.12h18.72v-25.12c0-1.66,1.34-3,3-3h26.76c1.66,0,3,1.34,3,3v79.38c0,1.66-1.34,3-3,3h-26.76Z"/><path class="cls-1" d="M231.73,128.68c-12.92,0-23.2-3.6-30.55-10.71-7.38-7.13-11.12-17.17-11.12-29.83v-43.66c0-1.66,1.34-3,3-3h26.76c1.66,0,3,1.34,3,3v42.87c0,5.21.88,8.98,2.56,10.91,1.61,1.86,3.76,2.76,6.58,2.76s5.05-.9,6.62-2.74c1.15-1.35,2.52-4.34,2.52-10.93v-42.87c0-1.66,1.34-3,3-3h16.9c.5,0,1.27-.11,2.22-1.02.44-.42,1.02-1.18,1.02-2.89,0-.92-.15-1.8-.44-2.6-.28-.77-.64-1.39-1.06-1.86-.67-.75-.92-1.78-.67-2.75s.97-1.76,1.91-2.09l14.51-5.1c.33-.11.66-.17,1-.17.91,0,1.8.42,2.38,1.17,1.47,1.9,2.65,4.06,3.51,6.42.87,2.41,1.32,5.1,1.32,8,0,7.74-2.46,13.85-7.3,18.17-1.74,1.55-3.74,2.83-5.97,3.83v27.56c0,12.66-3.74,22.69-11.12,29.83-7.35,7.11-17.63,10.71-30.55,10.71Z"/><path class="cls-1" d="M326.53,128.68c-6.76,0-13.12-1.09-18.91-3.25-5.83-2.17-10.95-5.3-15.23-9.29-4.29-4-7.67-8.78-10.05-14.2-2.39-5.42-3.6-11.4-3.6-17.76s1.21-12.44,3.6-17.83c2.39-5.38,5.81-10.14,10.18-14.15,4.36-3.99,9.6-7.12,15.58-9.28,5.93-2.15,12.52-3.24,19.56-3.24,4.12,0,8,.26,11.54.77,3.24.47,5.99.71,8.19.71,1.57,0,2.75-.34,3.61-1.03.46-.37.98-1,.98-2.54,0-.92-.15-1.8-.44-2.6-.28-.77-.64-1.39-1.06-1.86-.67-.75-.92-1.78-.68-2.75.25-.97.97-1.76,1.91-2.09l14.51-5.1c.33-.11.66-.17,1-.17.91,0,1.8.42,2.38,1.17,1.47,1.9,2.65,4.06,3.51,6.42.87,2.41,1.31,5.1,1.31,8,0,7.71-2.72,13.61-8.08,17.56-.49.36-1,.71-1.52,1.04.6.71,1.17,1.45,1.72,2.21,2.48,3.42,4.42,7.25,5.76,11.39,1.34,4.14,2.02,8.65,2.02,13.4,0,6.36-1.21,12.34-3.6,17.76-2.39,5.42-5.77,10.19-10.05,14.2-4.28,4-9.38,7.12-15.17,9.29-5.76,2.16-12.14,3.25-18.97,3.25ZM326.53,67.33c-2.08,0-4.04.38-5.81,1.13-1.76.74-3.33,1.83-4.66,3.22-1.33,1.39-2.39,3.14-3.15,5.2-.78,2.11-1.18,4.57-1.18,7.3s.4,5.18,1.18,7.29c.76,2.06,1.82,3.81,3.15,5.2,1.33,1.39,2.9,2.48,4.67,3.22,1.77.75,3.73,1.13,5.81,1.13s4.03-.38,5.81-1.13c1.79-.75,3.31-1.81,4.67-3.22,1.33-1.4,2.39-3.15,3.15-5.2.78-2.11,1.17-4.56,1.17-7.29s-.4-5.18-1.17-7.29c-.76-2.06-1.82-3.81-3.15-5.2-1.35-1.41-2.88-2.47-4.66-3.22-1.77-.75-3.73-1.13-5.81-1.13Z"/><path class="cls-1" d="M437.32,126.86c-.89,0-1.73-.39-2.3-1.08l-24.86-29.75v27.82c0,1.66-1.34,3-3,3h-26.08c-1.66,0-3-1.34-3-3V44.48c0-1.66,1.34-3,3-3h22c.89,0,1.73.39,2.3,1.08l24.86,29.75v-27.82c0-1.66,1.34-3,3-3h26.08c1.66,0,3,1.34,3,3v79.38c0,1.66-1.34,3-3,3h-22Z"/><path class="cls-1" d="M513.41,128.68c-6.75,0-13.07-1.07-18.79-3.19-5.75-2.13-10.82-5.22-15.07-9.18-4.26-3.97-7.6-8.73-9.95-14.16-2.34-5.41-3.53-11.46-3.53-17.98s1.19-12.56,3.53-17.98c2.35-5.43,5.72-10.19,10.02-14.17,4.28-3.96,9.41-7.05,15.24-9.18,5.79-2.12,12.22-3.19,19.12-3.19,8.23,0,15.71,1.42,22.22,4.21,6.58,2.83,12.1,6.93,16.39,12.2,1.02,1.25.87,3.08-.34,4.15l-17.12,15.08c-.55.48-1.26.75-1.98.75-.07,0-.13,0-.2,0-.8-.05-1.54-.42-2.07-1.03-2.23-2.57-4.65-4.52-7.2-5.81-2.47-1.25-5.28-1.89-8.34-1.89-2.57,0-4.9.39-6.92,1.16-1.95.74-3.62,1.83-4.97,3.24-1.38,1.44-2.46,3.19-3.21,5.22-.78,2.07-1.17,4.5-1.17,7.23,0,2.58.4,4.96,1.17,7.07.76,2.06,1.84,3.83,3.21,5.26,1.38,1.45,2.99,2.53,4.92,3.32,1.93.79,4.16,1.19,6.63,1.19,2.28,0,4.55-.34,6.75-1v-18c0-1.66,1.34-3,3-3h23.25c1.66,0,3,1.34,3,3v33.57c0,1-.5,1.93-1.33,2.49-5.08,3.41-10.94,6.07-17.42,7.88-6.44,1.8-12.78,2.72-18.84,2.72Z"/><path class="cls-1" d="M593.46,126.86c-1.66,0-3-1.34-3-3V44.48c0-1.66,1.34-3,3-3h38.21c7.79,0,14.67,1.31,20.45,3.89,5.91,2.65,10.56,6.51,13.82,11.47,3.26,4.97,4.91,10.89,4.91,17.58s-1.66,12.59-4.92,17.53c-3.25,4.92-7.89,8.77-13.79,11.45-5.77,2.62-12.66,3.95-20.46,3.95h-8.45v16.5c0,1.66-1.34,3-3,3h-26.76ZM629.98,80.71c2.9,0,4.98-.57,6.17-1.68,1.15-1.08,1.71-2.59,1.71-4.61s-.56-3.53-1.71-4.61c-1.19-1.12-3.27-1.68-6.17-1.68h-6.75v12.59h6.75Z"/><path class="cls-1" d="M728.07,126.86c-1.66,0-3-1.34-3-3v-26.25h-18.72v26.25c0,1.66-1.34,3-3,3h-26.76c-1.66,0-3-1.34-3-3V44.48c0-1.66,1.34-3,3-3h26.76c1.66,0,3,1.34,3,3v25.12h18.72v-25.12c0-1.66,1.34-3,3-3h26.76c1.66,0,3,1.34,3,3v79.38c0,1.66-1.34,3-3,3h-26.76Z"/><path class="cls-1" d="M827.18,126.86c-1.24,0-2.36-.77-2.8-1.92l-4.58-11.91h-26.06l-4.58,11.91c-.45,1.16-1.56,1.92-2.8,1.92h-27.21c-1.01,0-1.96-.51-2.51-1.36-.55-.85-.64-1.92-.24-2.85l34.7-79.38c.48-1.09,1.56-1.8,2.75-1.8h26.31c1.19,0,2.27.71,2.75,1.8l34.7,79.38c.41.93.32,2-.24,2.85-.55.85-1.5,1.36-2.51,1.36h-27.67ZM810.08,87.74l-3.32-8.62-3.32,8.62h6.63ZM795.09,41.02c-1.16,0-2.22-.67-2.72-1.72-.5-1.05-.34-2.29.4-3.19l14.97-18.14c.57-.69,1.42-1.09,2.32-1.09h24.38c1.27,0,2.4.8,2.83,2,.42,1.2.05,2.53-.94,3.33l-22.34,18.14c-.54.43-1.2.67-1.89.67h-17.01Z"/><path class="cls-1" d="M859.16,126.86c-1.66,0-3-1.34-3-3V44.48c0-1.66,1.34-3,3-3h38.21c7.79,0,14.67,1.31,20.45,3.89,5.91,2.65,10.56,6.51,13.82,11.47,3.26,4.97,4.91,10.89,4.91,17.58s-1.66,12.59-4.92,17.53c-3.25,4.92-7.89,8.77-13.79,11.45-5.77,2.62-12.66,3.95-20.46,3.95h-8.45v16.5c0,1.66-1.34,3-3,3h-26.76ZM895.67,80.71c2.9,0,4.98-.57,6.17-1.68,1.15-1.08,1.71-2.59,1.71-4.61s-.56-3.53-1.71-4.61c-1.19-1.12-3.27-1.68-6.17-1.68h-6.75v12.59h6.75Z"/><path class="cls-6" d="M19.44,123.86V44.48h38.22c7.41,0,13.81,1.21,19.22,3.63,5.4,2.42,9.58,5.88,12.53,10.38,2.95,4.5,4.42,9.81,4.42,15.93s-1.47,11.42-4.42,15.88c-2.95,4.46-7.13,7.92-12.53,10.38-5.41,2.46-11.81,3.69-19.22,3.69h-23.36l11.91-11.45v30.96h-26.76ZM46.21,95.85l-11.91-12.13h21.66c3.7,0,6.44-.83,8.22-2.49,1.78-1.66,2.67-3.93,2.67-6.8s-.89-5.14-2.67-6.8c-1.78-1.66-4.52-2.5-8.22-2.5h-21.66l11.91-12.13v42.87Z"/><path class="cls-6" d="M129.33,123.86h-26.76V44.48h26.76v79.38ZM155.86,94.6h-28.35v-22h28.35v22ZM154.05,44.48h26.76v79.38h-26.76V44.48Z"/><path class="cls-6" d="M231.73,125.67c-12.17,0-21.66-3.29-28.46-9.87-6.8-6.58-10.21-15.8-10.21-27.67v-43.66h26.76v42.87c0,6.05,1.09,10.34,3.29,12.87,2.19,2.53,5.14,3.8,8.85,3.8s6.75-1.27,8.9-3.8c2.15-2.53,3.23-6.82,3.23-12.87v-42.87h26.31v43.66c0,11.87-3.4,21.09-10.21,27.67-6.8,6.58-16.29,9.87-28.46,9.87ZM256.45,60.13v-15.65h4.54c1.59,0,3.02-.62,4.31-1.87,1.28-1.25,1.93-2.93,1.93-5.05,0-1.29-.21-2.5-.62-3.63-.42-1.13-.96-2.08-1.64-2.83l14.51-5.1c1.28,1.66,2.31,3.53,3.06,5.61.75,2.08,1.13,4.4,1.13,6.97,0,6.88-2.1,12.19-6.29,15.93-4.2,3.74-10.04,5.61-17.52,5.61h-3.4Z"/><path class="cls-6" d="M326.53,125.67c-6.43,0-12.38-1.02-17.86-3.06-5.48-2.04-10.22-4.93-14.23-8.68-4.01-3.74-7.13-8.14-9.36-13.21-2.23-5.06-3.34-10.58-3.34-16.56s1.11-11.58,3.34-16.61c2.23-5.03,5.39-9.41,9.47-13.15,4.08-3.74,8.94-6.63,14.57-8.67,5.63-2.04,11.81-3.06,18.54-3.06,4.01,0,7.71.25,11.11.74,3.4.49,6.27.74,8.62.74s4.1-.57,5.5-1.7c1.4-1.13,2.1-2.76,2.1-4.88,0-1.29-.21-2.5-.62-3.63-.42-1.13-.96-2.08-1.64-2.83l14.51-5.1c1.29,1.66,2.31,3.53,3.06,5.61.75,2.08,1.13,4.4,1.13,6.97,0,6.73-2.29,11.78-6.86,15.14-4.58,3.37-10.6,5.05-18.09,5.05-3.71,0-7.18-.23-10.43-.68-3.25-.45-6.43-.87-9.53-1.25l29.48-3.86c3.1,2.27,5.8,4.99,8.11,8.17,2.3,3.17,4.08,6.69,5.33,10.55s1.87,8.01,1.87,12.47c0,5.97-1.12,11.49-3.34,16.56-2.23,5.07-5.35,9.47-9.36,13.21-4.01,3.74-8.73,6.63-14.18,8.68-5.44,2.04-11.42,3.06-17.92,3.06ZM326.53,104.01c2.49,0,4.82-.45,6.97-1.36,2.16-.91,4.04-2.21,5.67-3.91,1.62-1.7,2.89-3.78,3.8-6.24.91-2.46,1.36-5.23,1.36-8.33s-.45-5.88-1.36-8.33c-.91-2.46-2.17-4.54-3.8-6.24-1.63-1.7-3.52-3-5.67-3.91-2.15-.91-4.48-1.36-6.97-1.36s-4.82.45-6.97,1.36-4.04,2.21-5.67,3.91c-1.63,1.7-2.89,3.78-3.8,6.24-.91,2.46-1.36,5.24-1.36,8.33s.45,5.88,1.36,8.33c.91,2.46,2.17,4.54,3.8,6.24,1.62,1.7,3.52,3,5.67,3.91s4.48,1.36,6.97,1.36Z"/><path class="cls-6" d="M381.07,123.86V44.48h22l40.37,48.31h-10.21v-48.31h26.08v79.38h-22l-40.37-48.31h10.21v48.31h-26.08Z"/><path class="cls-6" d="M513.41,125.67c-6.43,0-12.34-1-17.75-3-5.41-2-10.09-4.86-14.06-8.56-3.97-3.7-7.05-8.09-9.24-13.15-2.19-5.06-3.29-10.66-3.29-16.78s1.09-11.72,3.29-16.78c2.19-5.06,5.29-9.45,9.3-13.15,4.01-3.7,8.75-6.56,14.23-8.56,5.48-2,11.51-3.01,18.09-3.01,7.86,0,14.87,1.32,21.04,3.97,6.16,2.65,11.24,6.43,15.25,11.34l-17.12,15.08c-2.5-2.87-5.2-5.05-8.11-6.52-2.91-1.47-6.14-2.21-9.7-2.21-2.95,0-5.61.45-7.99,1.36s-4.4,2.23-6.07,3.97c-1.66,1.74-2.95,3.82-3.86,6.24-.91,2.42-1.36,5.18-1.36,8.28s.45,5.65,1.36,8.11c.91,2.46,2.19,4.56,3.86,6.29,1.66,1.74,3.65,3.08,5.95,4.03,2.3.95,4.89,1.42,7.77,1.42,3.02,0,5.97-.51,8.85-1.53,2.87-1.02,5.93-2.78,9.19-5.27l14.97,18.37c-4.84,3.25-10.36,5.75-16.56,7.48-6.2,1.74-12.21,2.61-18.03,2.61ZM524.75,112.18v-30.17h23.25v33.57l-23.25-3.4Z"/><path class="cls-6" d="M593.46,123.86V44.48h38.21c7.41,0,13.81,1.21,19.22,3.63,5.4,2.42,9.58,5.88,12.53,10.38,2.95,4.5,4.42,9.81,4.42,15.93s-1.47,11.42-4.42,15.88c-2.95,4.46-7.13,7.92-12.53,10.38-5.41,2.46-11.81,3.69-19.22,3.69h-23.36l11.91-11.45v30.96h-26.76ZM620.23,95.85l-11.91-12.13h21.66c3.7,0,6.45-.83,8.22-2.49,1.78-1.66,2.66-3.93,2.66-6.8s-.89-5.14-2.66-6.8c-1.78-1.66-4.52-2.5-8.22-2.5h-21.66l11.91-12.13v42.87Z"/><path class="cls-6" d="M703.35,123.86h-26.76V44.48h26.76v79.38ZM729.88,94.6h-28.35v-22h28.35v22ZM728.07,44.48h26.76v79.38h-26.76V44.48Z"/><path class="cls-6" d="M759.14,123.86l34.7-79.38h26.31l34.7,79.38h-27.67l-25.63-66.68h10.43l-25.63,66.68h-27.21ZM779.78,110.02l6.8-19.28h36.52l6.8,19.28h-50.12ZM795.09,38.01l14.97-18.14h24.38l-22.34,18.14h-17.01Z"/><path class="cls-6" d="M859.16,123.86V44.48h38.21c7.41,0,13.81,1.21,19.22,3.63,5.4,2.42,9.58,5.88,12.53,10.38,2.95,4.5,4.42,9.81,4.42,15.93s-1.47,11.42-4.42,15.88c-2.95,4.46-7.13,7.92-12.53,10.38-5.41,2.46-11.81,3.69-19.22,3.69h-23.36l11.91-11.45v30.96h-26.76ZM885.92,95.85l-11.91-12.13h21.66c3.7,0,6.45-.83,8.22-2.49,1.78-1.66,2.66-3.93,2.66-6.8s-.89-5.14-2.66-6.8c-1.78-1.66-4.52-2.5-8.22-2.5h-21.66l11.91-12.13v42.87Z"/><path class="cls-4" d="M23.45,121.86V46.48h36.21c7.09,0,13.28,1.16,18.4,3.45,5.02,2.25,8.95,5.5,11.67,9.65,2.72,4.15,4.09,9.14,4.09,14.83s-1.38,10.67-4.09,14.77c-2.72,4.12-6.66,7.37-11.69,9.66-5.12,2.33-11.31,3.51-18.39,3.51h-13.45v19.5h-22.76ZM46.21,85.72h11.75c4.21,0,7.44-1.02,9.59-3.03,2.19-2.05,3.3-4.83,3.3-8.27s-1.11-6.21-3.3-8.26c-2.15-2.02-5.38-3.04-9.59-3.04h-11.75v22.6Z"/><polygon class="cls-4" points="158.05 121.86 158.05 92.6 129.33 92.6 129.33 121.86 106.57 121.86 106.57 46.48 129.33 46.48 129.33 74.6 158.05 74.6 158.05 46.48 180.81 46.48 180.81 121.86 158.05 121.86"/><path class="cls-4" d="M233.73,123.67c-11.58,0-20.69-3.13-27.07-9.3-6.37-6.16-9.6-14.98-9.6-26.23v-41.66h22.76v40.86c0,6.61,1.24,11.25,3.78,14.18,2.58,2.98,6.06,4.49,10.36,4.49s7.89-1.51,10.43-4.5c2.5-2.93,3.71-7.57,3.71-14.17v-40.86h14.9c2.12,0,4.04-.82,5.7-2.44,1.68-1.63,2.54-3.82,2.54-6.48,0-1.51-.25-2.96-.75-4.32-.14-.38-.3-.75-.46-1.1l10.7-3.76c.78,1.2,1.43,2.51,1.94,3.91.67,1.85,1.01,3.97,1.01,6.29,0,6.34-1.84,11.06-5.63,14.44-1.76,1.57-3.88,2.79-6.3,3.63l-1.35.47v31.02c0,11.25-3.23,20.08-9.6,26.23-6.39,6.17-15.49,9.3-27.07,9.3Z"/><path class="cls-4" d="M328.53,123.67c-6.16,0-11.93-.99-17.16-2.94-5.21-1.94-9.77-4.72-13.56-8.26-3.79-3.54-6.78-7.76-8.89-12.55-2.11-4.78-3.17-10.08-3.17-15.75s1.07-11.06,3.17-15.8c2.11-4.75,5.13-8.95,8.99-12.49,3.87-3.55,8.55-6.33,13.9-8.27,5.39-1.95,11.39-2.94,17.86-2.94,3.88,0,7.53.24,10.83.72,3.47.5,6.47.76,8.9.76,2.73,0,5-.72,6.76-2.15,1.88-1.53,2.84-3.69,2.84-6.43,0-1.51-.25-2.96-.75-4.32-.14-.38-.3-.75-.46-1.1l10.7-3.76c.78,1.2,1.43,2.51,1.94,3.91.67,1.85,1.01,3.97,1.01,6.29,0,6.11-1.98,10.54-6.04,13.53-1.27.93-2.68,1.74-4.21,2.39l-2.75,1.18,2.14,2.09c1.42,1.38,2.74,2.92,3.93,4.56,2.17,2.99,3.87,6.35,5.04,9.98,1.18,3.64,1.77,7.63,1.77,11.86,0,5.66-1.07,10.96-3.17,15.75-2.11,4.79-5.1,9.02-8.89,12.55-3.8,3.54-8.34,6.33-13.51,8.26-5.19,1.95-10.98,2.93-17.21,2.93ZM328.53,62.32c-2.75,0-5.36.51-7.75,1.52-2.4,1.01-4.53,2.48-6.34,4.37-1.81,1.89-3.23,4.22-4.23,6.93-.99,2.67-1.49,5.71-1.49,9.03s.5,6.36,1.49,9.03c1,2.7,2.42,5.03,4.23,6.93,1.81,1.89,3.94,3.36,6.34,4.37,2.39,1.01,5,1.52,7.75,1.52s5.36-.51,7.75-1.52c2.4-1.01,4.53-2.48,6.34-4.37,1.81-1.9,3.23-4.23,4.23-6.93.98-2.67,1.48-5.7,1.48-9.03s-.5-6.36-1.48-9.03c-1-2.7-2.42-5.03-4.23-6.93-1.81-1.89-3.95-3.37-6.34-4.38-2.39-1.01-5-1.52-7.75-1.52Z"/><polygon class="cls-4" points="440.25 121.86 407.15 82.25 407.15 121.86 385.07 121.86 385.07 46.48 404.14 46.48 437.24 86.09 437.24 46.48 459.32 46.48 459.32 121.86 440.25 121.86"/><path class="cls-4" d="M515.41,123.67c-6.16,0-11.89-.97-17.05-2.88-5.13-1.9-9.64-4.64-13.39-8.15-3.75-3.5-6.7-7.7-8.77-12.49-2.07-4.78-3.12-10.16-3.12-15.99s1.05-11.2,3.12-15.99c2.07-4.78,5.04-8.98,8.82-12.48,3.79-3.51,8.36-6.25,13.56-8.15,5.24-1.91,11.09-2.88,17.4-2.88,7.55,0,14.36,1.28,20.25,3.81,5.21,2.24,9.65,5.36,13.23,9.31l-14.17,12.48c-2.29-2.34-4.75-4.19-7.35-5.51-3.18-1.61-6.75-2.43-10.6-2.43-3.18,0-6.11.5-8.71,1.49-2.65,1.01-4.94,2.51-6.8,4.46-1.85,1.93-3.29,4.26-4.28,6.92-.99,2.63-1.49,5.65-1.49,8.98s.5,6.14,1.49,8.8c1,2.7,2.44,5.05,4.29,6.98,1.85,1.93,4.08,3.45,6.64,4.49,2.53,1.04,5.4,1.57,8.53,1.57s6.44-.55,9.52-1.65c.33-.12.65-.24.99-.37l1.25-.5v-19.47h19.25v30.49c-4.43,2.84-9.51,5.07-15.1,6.64-6,1.68-11.88,2.53-17.49,2.53Z"/><path class="cls-4" d="M597.47,121.86V46.48h36.21c7.09,0,13.28,1.16,18.4,3.45,5.03,2.25,8.95,5.5,11.67,9.65,2.72,4.14,4.09,9.14,4.09,14.83s-1.38,10.67-4.09,14.77c-2.73,4.12-6.66,7.37-11.69,9.66-5.12,2.33-11.31,3.51-18.39,3.51h-13.45v19.5h-22.76ZM620.23,85.72h11.75c4.21,0,7.44-1.02,9.59-3.03,2.19-2.05,3.3-4.83,3.3-8.27s-1.11-6.21-3.3-8.26c-2.15-2.02-5.38-3.04-9.59-3.04h-11.75v22.6Z"/><polygon class="cls-4" points="732.07 121.86 732.07 92.6 703.35 92.6 703.35 121.86 680.59 121.86 680.59 46.48 703.35 46.48 703.35 74.6 732.07 74.6 732.07 46.48 754.83 46.48 754.83 121.86 732.07 121.86"/><path class="cls-4" d="M830.56,121.86l-5.32-13.83h-32.94l-5.32,13.83h-22.78l32.95-75.38h23.69l32.95,75.38h-23.24ZM798.17,92.75h21.2l-10.6-27.57-10.6,27.57ZM801.33,36.01l11.67-14.14h17.8l-17.41,14.14h-12.05Z"/><path class="cls-4" d="M863.16,121.86V46.48h36.21c7.09,0,13.28,1.16,18.4,3.45,5.03,2.25,8.95,5.5,11.67,9.65,2.72,4.14,4.09,9.14,4.09,14.83s-1.38,10.67-4.09,14.77c-2.73,4.12-6.66,7.37-11.69,9.66-5.12,2.33-11.31,3.51-18.39,3.51h-13.45v19.5h-22.76ZM885.92,85.72h11.75c4.21,0,7.44-1.02,9.59-3.03,2.19-2.05,3.3-4.83,3.3-8.27s-1.11-6.21-3.3-8.26c-2.15-2.02-5.38-3.04-9.59-3.04h-11.75v22.6Z"/></g></svg>