<?xml version="1.0" encoding="UTF-8"?><svg id="Layer_2" xmlns="http://www.w3.org/2000/svg" viewBox="0 0 82.37 101.55"><defs><style>.cls-1{fill:#040336;}.cls-1,.cls-2,.cls-3,.cls-4,.cls-5{stroke-width:0px;}.cls-2{fill:#00dbff;}.cls-3{fill:red;}.cls-4{fill:#ffcfc0;}.cls-5{fill:#fff;}</style></defs><g id="Layer_1-2"><path class="cls-2" d="M67.53,45.39c.02.37.02.75.02,1.13,0,1.29-.1,2.57-.28,3.81h0s-12.91-7.56-12.91-7.56l6.74-10.58c.33-.53.6-1.07.79-1.64h0c.28.35.55.7.82,1.06l8.31-7.98c2.63-2.53,6.86-2.44,9.38.19,1.23,1.28,1.84,2.94,1.84,4.6,0,1.75-.68,3.49-2.03,4.79l-12.68,12.19Z"/><polygon class="cls-1" points="80.59 63.12 80.26 63.69 73.5 61.55 75.3 58.48 80.59 63.12"/><polygon class="cls-5" points="72.24 53.24 75.3 58.48 73.5 61.55 67.43 61.46 65.92 57.11 68.95 56.83 68.39 54.09 72.24 53.24"/><path class="cls-3" d="M72.24,53.24l-3.85.86.56,2.73-3.03.28,1.51,4.35-3.42-2-6.94-4.06c-2.09-2.48-5-4.24-8.32-4.87l-3.93-2.3c3.1.66,6.45-.62,8.25-3.44l1.29-2.02,12.91,7.56,4.97,2.91Z"/><path class="cls-2" d="M57.07,55.39l6.94,4.06c-.51.87-1.08,1.7-1.69,2.49l.05.04v14.17c4.51,1.64,7.26,3.81,7.26,6.2s-2.75,4.56-7.26,6.2c-5.1,1.85-12.47,3.02-20.65,3.02s-14.98-1.08-20.05-2.81c-4.86-1.66-7.85-3.92-7.85-6.41s2.99-4.75,7.85-6.41v-14.53c-1.9-2.62-3.32-5.61-4.11-8.85l.08-.17c-2.56-1.2-4.34-3.81-4.34-6.81v-2.67c0-4.13,3.38-7.52,7.52-7.52h13.98c1.77,0,3.4.62,4.69,1.66,1.72,1.38,2.83,3.49,2.83,5.86v2.67c0,.54-.06,1.06-.16,1.56l.12.03c.8.51,1.67.86,2.55,1.05l3.93,2.3c3.31.62,6.23,2.39,8.32,4.87Z"/><path class="cls-4" d="M21.67,101.43v-12.67c5.07,1.73,12.18,2.81,20.05,2.81s15.55-1.16,20.65-3.02v12.88"/><path class="cls-2" d="M54.36,42.77l-1.29,2.02c-1.8,2.82-5.14,4.1-8.25,3.44-.88-.19-1.75-.54-2.55-1.05l-.12-.03c.11-.51.16-1.03.16-1.56v-2.67c0-2.37-1.11-4.48-2.83-5.86.12-.23.25-.46.39-.67l.97-1.52,4.54-7.13,2.52-3.95c2.31-3.63,7.17-4.7,10.8-2.39,2.33,1.49,3.61,4.03,3.61,6.62,0,.86-.14,1.71-.43,2.54-.19.57-.46,1.12-.79,1.64l-6.74,10.58Z"/><path class="cls-2" d="M46.27,5.06c.42,1.61.56,3.78-.26,6.4-.35,1.11-.61,2.26-.73,3.42-.26,2.53-.5,7.06.12,12.85l-4.54,7.13-.04-.03-13-7.61v-10.74c0-.3-.02-.6-.06-.9-.25-1.87-.96-9.65,3.9-12.85,0,0,4.78-3.57,9.84-2.38,2.33.55,4.17,2.38,4.77,4.7Z"/><path class="cls-3" d="M40.85,34.86l-.97,1.52c-.14.22-.27.45-.39.67-1.29-1.04-2.92-1.66-4.69-1.66h-11.9l-12.04-7.05,4.81-8.22,12.13,7.1,13,7.61.04.03Z"/><rect class="cls-5" x="7.21" y="21.97" width="9.53" height="3.01" transform="translate(-14.33 21.94) rotate(-59.65)"/><rect class="cls-5" x="4.74" y="20.67" width="9.53" height="2.71" transform="translate(-14.31 19.1) rotate(-59.66)"/><path class="cls-3" d="M10.74,17.23l-4.81,8.22-3.45-2.02c-2.26-1.32-3.03-4.26-1.71-6.52.88-1.51,2.48-2.35,4.12-2.35.82,0,1.64.21,2.39.65l3.45,2.02Z"/><path class="cls-5" d="M27.81,16.83s3.2,6.32,7.65,5.2c0,0,6.28-.7,9.82-7.15l-.17,2.06-.1,2.75.02,2.69.33,5.06-.15.57-4.26,6.69h-.39l-12.64-7.4-.11-.29v-10.17Z"/><path class="cls-5" d="M41.68,39.88s3.3,2.75,7.08-1.07l7.8-10.08s3.26-4.31,2.88-6.81l.81.76.76.97,1,2.17.29,1.69-.15,2.09-.43,1.39-8.57,13.66-1.06,1.37-1.74,1.34-2.26.86-1.5.17-.9-.04-1.65-.34-.76-.29-.89-.47-.21-.34.12-1.33v-2.67l-.13-1.41-.51-1.62Z"/><path class="cls-5" d="M40.01,37.5s-.59,7.04-8.72,8.88h-7.22s-8.3-.16-10.67-4.66l-.1,1.77v2.67l.48,2.07.55,1.15.62.9.78.84.75.61,1.14.67.15,1.03.81,2.41.99,2.18,2.74,4.26,1.3,1.51,4.22,3.84s2.93,2.56,2.93,6.45l.2,10.2,3.28.32,2.94.17,3.63.07,3.3-.07,6.12-.44,2.44-.29,2.71-.39,6.22-1.17,1.04-.23s5.55-1.72-.29-4.03v-9.67l.07-6.75,1.47-2.16-.04-.26-6.36-3.72v.29s-6.97-.82-12.15-5.61l1.81-.05,1.72.28-4.23-2.37-1.22-.4.12-6.1-1.71-1.4-.62-1.27-1.22-1.52Z"/><path class="cls-5" d="M28.82,83.98s-4.28,2.12-.85,6.39l3.8.59,2.43.26,3.36.24,3.33.1,4.62-.08,4.05-.28,4.46-.59,2.64-.44,2.75-.69,4.15-1.39,1.94-.91s.15-3.37-2.57-5.05l-4.95,1.07s1.43,2.85-4.32,3.84c0,0-13.33,1.83-18.5-.04,0,0-1.18-.13-1.21-1.28-.03-1.15.77-1.09.77-1.09l-3.59-.41-2.32-.24Z"/><path class="cls-5" d="M62.37,78.21s5.35.01,7.03,2.97l.22,1.17-.16.99-.56,1.1-1.45,1.48-2.59,1.58-3.35-6.88.85-2.41Z"/><path class="cls-1" d="M59.45,65.22s-.06-.01-.09-.04c-.05-.05-.04-.12,0-.17,1.03-.96,1.99-2.01,2.85-3.14.61-.79,1.17-1.62,1.68-2.48.03-.06.11-.08.16-.04.06.03.08.11.04.16-.51.87-1.09,1.71-1.7,2.5-.87,1.14-1.84,2.2-2.88,3.17-.02.02-.05.03-.08.03Z"/><path class="cls-1" d="M67.27,50.44s-.01,0-.02,0c-.07,0-.11-.07-.1-.14.19-1.24.28-2.52.28-3.79,0-.36,0-.73-.02-1.12,0-.07.05-.12.12-.13.06,0,.12.05.13.12.02.39.02.77.02,1.13,0,1.28-.1,2.57-.28,3.82,0,.06-.06.1-.12.1Z"/><path class="cls-1" d="M62.71,31.73s-.07-.02-.1-.05c-.25-.35-.53-.7-.81-1.06-.04-.05-.03-.13.02-.17.05-.04.13-.03.17.02.29.36.56.71.82,1.07.04.05.03.13-.03.17-.02.02-.05.02-.07.02Z"/><path class="cls-1" d="M24.49,64.8s-.06-.01-.08-.03c-1.04-1.01-1.99-2.11-2.84-3.28-1.95-2.69-3.34-5.68-4.13-8.89-.02-.06.02-.13.09-.15.06-.02.13.02.15.09.78,3.18,2.15,6.14,4.09,8.81.84,1.15,1.79,2.25,2.81,3.25.05.05.05.12,0,.17-.02.02-.05.04-.09.04Z"/><path class="cls-1" d="M21.67,77.94c-.07,0-.12-.05-.12-.12v-16.41c0-.07.05-.12.12-.12s.12.05.12.12v16.41c0,.07-.05.12-.12.12Z"/><path class="cls-1" d="M62.25,101.35v-12.8c0-.07.05-.12.12-.12s.12.05.12.12v12.88c0,.05-.03.1-.08.11"/><path class="cls-1" d="M21.63,101.55s-.08-.06-.08-.11v-12.67c0-.07.05-.12.12-.12s.12.05.12.12v12.59"/><path class="cls-1" d="M62.37,78.55c-.07,0-.12-.05-.12-.12v-16.44c0-.07.05-.12.12-.12s.12.05.12.12v16.44c0,.07-.05.12-.12.12Z"/><path class="cls-1" d="M34.8,53.22h-2.36c-.07,0-.12-.05-.12-.12s.05-.12.12-.12h2.36c3.47,0,6.51-2.46,7.23-5.86,0,0,0-.01,0-.02.1-.5.16-1.01.16-1.52v-2.67c0-2.25-1.01-4.35-2.78-5.77-1.31-1.05-2.95-1.63-4.62-1.63h-13.98c-4.08,0-7.4,3.32-7.4,7.4v2.67c0,2.85,1.68,5.48,4.27,6.7.53.25,1.08.43,1.64.55.07.01.11.08.09.14s-.08.11-.14.09c-.58-.12-1.15-.31-1.7-.57-2.68-1.26-4.41-3.98-4.41-6.92v-2.67c0-4.21,3.43-7.64,7.64-7.64h13.98c1.73,0,3.42.6,4.77,1.68,1.82,1.46,2.87,3.63,2.87,5.95v2.67c0,.53-.06,1.07-.17,1.59,0,0,0,.01,0,.02-.76,3.49-3.89,6.03-7.47,6.03Z"/><path class="cls-1" d="M45.4,27.86c-.06,0-.11-.04-.12-.1,0,0,0-.01,0-.02-.6-5.67-.4-10.13-.12-12.88.11-1.11.35-2.24.73-3.44.69-2.2.78-4.33.26-6.33-.59-2.27-2.43-4.08-4.69-4.61-4.95-1.16-9.69,2.32-9.74,2.36-2.04,1.34-3.33,3.64-3.82,6.84-.4,2.56-.15,4.97-.03,5.89.04.32.06.62.06.91v10.74c0,.07-.05.12-.12.12s-.12-.05-.12-.12v-10.74c0-.29-.02-.58-.06-.88-.12-.93-.37-3.37.03-5.96.51-3.27,1.83-5.63,3.92-7,.04-.03,4.88-3.58,9.93-2.39,2.38.56,4.24,2.39,4.86,4.79.53,2.05.44,4.22-.26,6.46-.37,1.19-.61,2.3-.72,3.39-.28,2.74-.48,7.18.12,12.82,0,.01,0,.02,0,.03,0,.07-.05.12-.12.12Z"/><path class="cls-1" d="M46.45,48.52c-.55,0-1.1-.06-1.65-.17-.92-.2-1.79-.55-2.59-1.06-.06-.04-.07-.11-.04-.17.04-.06.11-.07.17-.04.78.49,1.62.84,2.51,1.03,3.14.67,6.4-.69,8.12-3.39l8.03-12.59c.33-.51.59-1.06.78-1.62.28-.8.42-1.64.42-2.5,0-2.66-1.33-5.09-3.55-6.51-3.58-2.28-8.35-1.23-10.63,2.35l-8.03,12.6c-.14.22-.27.44-.38.66-.02.06-.09.1-.15.08-.06-.02-.1-.09-.08-.15,0,0,.01-.02.02-.03.12-.23.25-.46.39-.69l8.03-12.6c2.35-3.69,7.27-4.78,10.96-2.43,2.29,1.46,3.66,3.98,3.66,6.72,0,.89-.15,1.76-.43,2.58-.2.58-.47,1.14-.8,1.67l-8.03,12.59c-1.47,2.31-4.04,3.67-6.72,3.67Z"/><path class="cls-1" d="M65.69,47.28s-.06-.01-.09-.04c-.05-.05-.04-.12,0-.17l14.53-13.96c1.29-1.24,1.99-2.91,1.99-4.7,0-1.69-.64-3.3-1.81-4.51-1.2-1.25-2.82-1.96-4.57-1.99-1.75-.03-3.4.61-4.65,1.81l-9.29,8.92s-.12.04-.17,0c-.05-.05-.04-.12,0-.17l9.29-8.92c1.3-1.25,3-1.91,4.82-1.88,1.81.04,3.49.77,4.74,2.07,1.21,1.26,1.88,2.92,1.88,4.68,0,1.86-.73,3.59-2.07,4.87l-14.53,13.96s-.05.03-.08.03Z"/><path class="cls-1" d="M48.76,50.65s-.02,0-.04,0h0s-.02,0-.02-.01l-3.93-2.3c-.06-.03-.08-.1-.05-.16.03-.06.1-.08.16-.05l3.94,2.31c.05.03.08.09.06.14-.02.05-.06.08-.11.08Z"/><path class="cls-1" d="M73.5,61.67h0l-6.07-.09s-.04,0-.06-.02l-10.35-6.06c-.06-.03-.08-.11-.04-.16.03-.06.11-.08.16-.04l10.33,6.05,5.97.09,1.72-2.94-3-5.16-17.92-10.49c-.06-.03-.08-.11-.04-.16.03-.06.11-.08.16-.04l.06.04,17.88,10.47s.03.03.04.04l3.05,5.25s.02.08,0,.12l-1.79,3.06s-.06.06-.1.06Z"/><path class="cls-1" d="M22.91,35.51s-.04,0-.06-.02L2.42,23.54c-2.32-1.36-3.11-4.36-1.75-6.68.87-1.49,2.49-2.41,4.23-2.41.86,0,1.71.23,2.45.66l33.52,19.62c.06.03.08.11.04.16-.03.06-.11.08-.16.04L7.23,15.32c-.71-.41-1.51-.63-2.33-.63-1.65,0-3.19.88-4.02,2.29-1.29,2.21-.55,5.06,1.66,6.35l20.43,11.96c.06.03.08.11.04.16-.02.04-.06.06-.1.06Z"/><path class="cls-1" d="M80.26,63.81s-.02,0-.04,0l-6.76-2.15c-.06-.02-.1-.09-.08-.15.02-.06.09-.1.15-.08l6.67,2.12.24-.4-5.22-4.57s-.05-.12-.01-.17c.04-.05.12-.06.17-.01l5.3,4.64s.05.1.02.15l-.33.57s-.06.06-.1.06Z"/><path class="cls-1" d="M67.43,61.58s-.1-.03-.11-.08l-1.51-4.35s0-.07.01-.1.05-.05.09-.05l2.9-.27-.53-2.6c-.01-.06.03-.13.09-.14l3.85-.86c.06-.01.13.03.14.09.01.06-.03.13-.09.14l-3.74.83.53,2.62s0,.07-.02.1-.05.04-.09.05l-2.88.27,1.46,4.2c.02.06-.01.13-.07.15-.01,0-.03,0-.04,0Z"/><path class="cls-1" d="M5.92,25.57c-.07,0-.12-.05-.12-.12h0s0-.04.02-.06l4.81-8.22c.03-.06.11-.08.16-.04.06.03.08.11.04.16l-4.81,8.22s-.06.07-.11.07Z"/><path class="cls-1" d="M10.87,28.47s-.04,0-.06-.02c-.06-.03-.08-.11-.04-.16l4.81-8.22c.03-.06.11-.08.16-.04.06.03.08.11.04.16l-4.81,8.22s-.06.06-.1.06Z"/><path class="cls-1" d="M8.27,26.94s-.04,0-.06-.02c-.06-.03-.08-.11-.04-.16l4.81-8.22c.03-.06.11-.08.16-.04.06.03.08.11.04.16l-4.81,8.22s-.06.06-.1.06Z"/><path class="cls-1" d="M59.28,59.07s-.09-.03-.11-.07c-.55-1.27-1.29-2.46-2.19-3.53-2.11-2.51-5.04-4.22-8.25-4.83-1.92-.36-3.95-.33-5.86.11-.06.02-.13-.03-.14-.09-.01-.06.03-.13.09-.14,1.94-.44,4.01-.48,5.96-.11,3.26.61,6.24,2.36,8.39,4.91.92,1.09,1.67,2.3,2.23,3.59.03.06,0,.13-.06.16-.02,0-.03,0-.05,0Z"/><path class="cls-1" d="M41.72,91.69c-7.64,0-14.78-1-20.09-2.82-5.12-1.75-7.93-4.06-7.93-6.52s2.82-4.78,7.93-6.52c.06-.02.13.01.15.08.02.06-.01.13-.07.15-5.01,1.71-7.77,3.95-7.77,6.3s2.76,4.59,7.77,6.3c5.29,1.81,12.4,2.8,20.02,2.8s15.34-1.1,20.61-3.01c4.63-1.68,7.18-3.85,7.18-6.09s-2.55-4.4-7.18-6.09c-.02,0-.05-.02-.07-.03-.06-.02-.09-.1-.07-.16.03-.06.1-.09.16-.07.02,0,.04.01.06.02,4.74,1.72,7.34,3.96,7.34,6.31s-2.6,4.59-7.33,6.31c-5.3,1.92-12.84,3.03-20.69,3.03Z"/><path class="cls-1" d="M40.65,84.93c-12.68,0-20.11-2.73-20.22-2.78-.06-.02-.09-.09-.07-.15.02-.06.09-.09.16-.07.16.06,16.81,6.18,42.97,0,.06-.02.13.02.14.09.02.06-.02.13-.09.14-8.78,2.08-16.5,2.77-22.89,2.77Z"/></g></svg>