<?xml version="1.0" encoding="UTF-8"?><svg id="Layer_2" xmlns="http://www.w3.org/2000/svg" xmlns:xlink="http://www.w3.org/1999/xlink" viewBox="0 0 689.13 541.93"><defs><style>.cls-1{fill:none;}.cls-2{fill:#97ef5b;}.cls-3{fill:#8fdd52;}.cls-4{clip-path:url(#clippath);}</style><clipPath id="clippath"><rect class="cls-1" width="689.13" height="541.93" rx="43.86" ry="43.86"/></clipPath></defs><g id="Layer_1-2"><rect class="cls-2" width="689.13" height="541.93" rx="43.86" ry="43.86"/><g class="cls-4"><path class="cls-3" d="M323.66-18.39c-8.17,1.51-16.04,4.38-23.53,7.93-7.63,3.61-14.82,8.12-21.5,13.26-7.2,5.55-13.9,11.67-19.8,18.59-5.77,6.77-10.92,14.12-14.9,22.08-3.81,7.63-6.76,15.78-8.04,24.23-.21,1.41-.4,2.83-.56,4.25.07.52.14,1.04.21,1.56.2.47.4.94.59,1.4.65,1.11,1.65,1.91,2.81,2.4,1,.42,1.97.54,3.05.4,1.37-.18,2.3-.74,3.37-1.62,1.64-1.35,3.31-2.67,4.99-3.98-.4.31-.79.61-1.19.92,11.48-8.85,23.86-16.52,36.88-22.9,3.68-1.8,7.41-3.5,11.19-5.09-.47.2-.94.4-1.4.59,13.87-5.84,28.33-10.27,43.11-13.15,4.18-.81,8.38-1.5,12.59-2.07-.52.07-1.04.14-1.56.21,5.31-.71,10.65-1.22,16-1.53-.99-3.65-1.98-7.3-2.97-10.95-11.39,5.72-22.05,12.71-32.01,20.65-9.62,7.66-18.45,16.32-26.29,25.79-4.67,5.65-9.05,11.55-13.04,17.69-.71,1.09-.87,2.5-.7,3.75.17,1.23.67,2.51,1.62,3.37,1.89,1.73,4.85,2.34,7.12.92,4.73-2.95,9.68-5.51,14.81-7.68-.47.2-.94.4-1.4.59,8.76-3.69,18-6.2,27.42-7.47-.52.07-1.04.14-1.56.21,5.77-.76,11.59-1.06,17.4-.87,3.08.1,6.02-2.77,5.88-5.88-.15-3.27-2.58-5.77-5.88-5.87-8.62-.28-17.29.52-25.75,2.21-8.51,1.7-16.73,4.48-24.63,8.06-4.21,1.91-8.3,4.1-12.22,6.55,2.68,2.68,5.36,5.36,8.04,8.04,2.64-4.07,5.45-8.04,8.42-11.89-.31.4-.61.79-.92,1.19,7.25-9.36,15.43-18,24.38-25.75,2.52-2.19,5.11-4.3,7.76-6.34-.4.31-.79.61-1.19.92,6.97-5.38,14.34-10.25,22.03-14.53,2.19-1.22,4.4-2.39,6.64-3.51.4-.31.79-.61,1.19-.92.57-.53.98-1.16,1.21-1.89.49-1.17.7-2.59.3-3.82-.31-.97-.82-1.84-1.51-2.59-.94-1.02-2.77-1.8-4.16-1.72-9.33.54-18.64,1.68-27.83,3.36-8.76,1.61-17.42,3.76-25.91,6.43-8.9,2.8-17.62,6.18-26.12,10.03-8.11,3.67-16,7.84-23.6,12.47-7.97,4.86-15.58,10.25-22.88,16.06-.86.69-1.72,1.38-2.57,2.08,3.34,1.38,6.69,2.77,10.03,4.15.06-.51.12-1.02.19-1.54-.07.52-.14,1.04-.21,1.56.88-6.5,2.72-12.83,5.26-18.86-.2.47-.4.94-.59,1.4,3.3-7.8,7.74-15.08,12.91-21.78-.31.4-.61.79-.92,1.19,4.94-6.38,10.55-12.24,16.66-17.51,1.75-1.51,3.55-2.98,5.38-4.39-.4.31-.79.61-1.19.92,6.18-4.76,12.8-8.96,19.79-12.43,1.93-.96,3.9-1.86,5.88-2.7-.47.2-.94.4-1.4.59,5.78-2.43,11.78-4.33,17.96-5.47,1.38-.25,2.83-1.53,3.51-2.7.74-1.26,1.05-3.11.59-4.53-.46-1.42-1.34-2.79-2.7-3.51-1.47-.77-2.9-.89-4.53-.59h0Z"/><path class="cls-3" d="M345.35-34.58c3.46.78,6.83,1.88,10.1,3.25-.47-.2-.94-.4-1.4-.59,5.41,2.3,10.47,5.34,15.13,8.92-.4-.31-.79-.61-1.19-.92,5.85,4.52,11.03,9.85,15.55,15.69-.31-.4-.61-.79-.92-1.19,6.05,7.85,10.79,16.59,14.65,25.71-.2-.47-.4-.94-.59-1.4,4.93,11.7,8.4,23.95,11.52,36.24.88,3.45,1.73,6.9,2.57,10.35.56,2.26,2.66,3.91,4.89,4.21,2.2.29,4.8-.72,5.86-2.8,6.29-12.45,10.97-25.74,13.73-39.42,2.77-13.73,3.84-27.84,2.92-41.82-.53-8.04-1.65-16.06-3.39-23.93-3.28,1.91-6.55,3.81-9.82,5.72,3.96,3.54,7.58,7.46,10.83,11.66-.31-.4-.61-.79-.92-1.19,4.82,6.27,8.8,13.15,11.88,20.43-.2-.47-.4-.94-.59-1.4,3.26,7.75,5.49,15.9,6.62,24.23-.07-.52-.14-1.04-.21-1.56,1.07,8.04,1.12,16.2.04,24.24.07-.52.14-1.04.21-1.56-.49,3.6-1.2,7.17-2.14,10.69-.4,1.48-.18,3.2.59,4.53.71,1.22,2.11,2.38,3.51,2.7,3.09.7,6.38-.93,7.23-4.1,3.65-13.64,3.96-27.91,1.52-41.79-2.34-13.29-7.52-26.27-15.03-37.48-4.34-6.48-9.42-12.5-15.24-17.7-1.89-1.69-4.86-2.38-7.12-.92-2.28,1.47-3.29,3.99-2.7,6.63.9,4.06,1.62,8.15,2.18,12.27-.07-.52-.14-1.04-.21-1.56,1.39,10.46,1.69,21.06.89,31.59-.23,2.97-.54,5.93-.93,8.88.07-.52.14-1.04.21-1.56-1.41,10.38-3.86,20.61-7.35,30.49-.99,2.8-2.07,5.58-3.23,8.32.2-.47.4-.94.59-1.4-1.3,3.08-2.71,6.11-4.22,9.09,3.58.47,7.16.94,10.74,1.4-2.2-8.97-4.41-17.94-7.08-26.79-2.77-9.21-6.06-18.28-10.19-26.97-3.76-7.91-8.34-15.29-13.79-22.15-5.16-6.5-11.17-12.21-17.9-17.06-6.58-4.74-14.05-8.42-21.87-10.59-.93-.26-1.86-.49-2.8-.7-1.53-.35-3.15-.21-4.53.59-1.22.71-2.38,2.11-2.7,3.51-.34,1.5-.27,3.19.59,4.53.81,1.25,2.01,2.36,3.51,2.7h0Z"/><path class="cls-3" d="M255.48,104.24c.15,16.81,6.35,33.07,17,46.02,5.45,6.63,12.22,12.52,20.39,15.47,4.31,1.56,9.2,1.94,13.65.73,4.06-1.1,7.85-3.56,10.52-6.8,3.02-3.65,5.12-7.83,6.45-12.38,1.46-4.99,1.86-10.25,2.54-15.38-.07.52-.14,1.04-.21,1.56.39-2.88.86-5.75,1.65-8.55.19-.67.4-1.33.63-1.98.1-.27.2-.54.3-.82.37-1.05-.56,1.23-.12.28.5-1.08,1.05-2.12,1.7-3.12.31-.48.65-.93.98-1.4-1.12,1.59.02.02.37-.36.38-.42.77-.82,1.19-1.2.22-.21.45-.41.68-.6.46-.39,1.03-.49-.24.17.47-.25.9-.63,1.37-.9.46-.27.98-.47,1.44-.75-1.28.79-.88.36-.32.16.27-.1.55-.19.83-.26.56-.16,1.13-.27,1.71-.35-.52.07-1.04.14-1.56.21,1.08-.13,2.15-.12,3.23.02-.52-.07-1.04-.14-1.56-.21.73.11,1.45.27,2.15.5.25.08,1.36.53.31.09-1.07-.45.27.16.51.29.6.33,1.15.71,1.71,1.1.57.39-1.05-.89-.54-.42.1.09.21.18.32.26.35.3.69.61,1.03.94.47.46.92.95,1.36,1.45.25.29.48.61.73.89-1.28-1.4-.25-.32.05.09.89,1.25,1.71,2.55,2.48,3.88,1.58,2.73,2.88,5.62,4.48,8.34,1.8,3.07,3.94,6.06,6.5,8.54,2.67,2.59,5.97,4.8,9.62,5.68,4.1.99,8.2.45,11.98-1.36,6.18-2.97,9.89-9.96,11.35-16.37,1.88-8.26.04-16.66,1.14-24.98-.07.52-.14,1.04-.21,1.56.17-1.16.38-2.31.69-3.43.14-.51.3-1.01.47-1.5.08-.23.31-.58.31-.83,0,.4-.53,1.18-.09.27.42-.89.91-1.74,1.47-2.55.09-.14.73-.98.08-.15-.63.81-.03.05.12-.13.33-.39.68-.77,1.04-1.13.32-.33.66-.64,1.01-.95.18-.16.38-.38.59-.49-.3.16-1.11.83-.33.27.79-.57,1.62-1.08,2.49-1.53.23-.12.46-.23.69-.34.89-.41-.14-.02-.42.17.38-.26,1.01-.38,1.45-.51.96-.29,1.95-.5,2.95-.64-.52.07-1.04.14-1.56.21,1.75-.23,3.51-.27,5.27-.05-.52-.07-1.04-.14-1.56-.21,1.14.16,2.26.41,3.35.8.08.03.72.21.73.28,0,.06-1.53-.68-.87-.37.11.06.23.11.35.16.49.23.97.49,1.44.76.44.26.87.54,1.29.83.21.15.41.3.62.45.52.37-1.22-.97-.73-.57.12.1.25.2.38.3.83.68,1.61,1.41,2.37,2.17,3.15,3.18,5.75,6.83,8.78,10.11,3.62,3.91,7.95,7.17,13.1,8.75,6.91,2.12,14.56.85,20.85-2.52,7.45-3.98,13.43-11.44,15.07-19.78.31-1.57.24-3.11-.59-4.53-.71-1.22-2.11-2.38-3.51-2.7-2.91-.66-6.6.88-7.23,4.1-.23,1.15-.53,2.28-.94,3.39-.07.18-.14.37-.21.55.12-.29.25-.57.37-.86-.15.19-.26.58-.36.8-.25.53-.52,1.04-.82,1.55-.29.51-.6,1-.93,1.49-.17.24-.34.48-.51.72-.65.92.92-1.13.2-.26-.75.9-1.54,1.77-2.41,2.57-.43.4-.88.78-1.33,1.15-.78.65,1.15-.82.26-.2-.24.17-.48.34-.72.51-.97.66-1.99,1.25-3.05,1.77-.26.13-.53.25-.8.37-.93.43,1.35-.51.32-.14-.51.18-1.01.37-1.52.53-1.17.36-2.36.62-3.56.8.52-.07,1.04-.14,1.56-.21-1.84.24-3.69.26-5.53.03.52.07,1.04.14,1.56.21-1.34-.18-2.66-.49-3.93-.95-.28-.1-1.41-.57-.24-.08,1.16.49.05,0-.21-.13-.6-.29-1.17-.62-1.74-.97-.5-.31-.99-.66-1.47-1-1-.72,1.17.95.33.25-.28-.23-.56-.46-.84-.7-.93-.81-1.8-1.68-2.65-2.58-3.45-3.69-6.33-7.9-10.04-11.35-4.71-4.38-10.49-7.19-17.03-7.18-9.05.01-17.96,4.99-22.25,13.07-2.71,5.12-3.48,10.88-3.5,16.61-.01,4.87.53,9.79-.07,14.64.07-.52.14-1.04.21-1.56-.25,1.84-.65,3.66-1.24,5.41-.15.44-.31.87-.47,1.3-.33.89.53-1.14.22-.52-.1.2-.19.42-.29.62-.39.81-.82,1.59-1.31,2.34-.31.47-1.31,1.58,0,.09-.28.32-.54.66-.84.98-.29.31-.59.61-.91.89-.13.11-.26.22-.38.33-.73.65.99-.68.49-.38-.36.21-.69.47-1.05.67-.26.15-1.63.77-.53.3,1.09-.46-.33.08-.62.15-.46.13-.93.21-1.4.28.52-.07,1.04-.14,1.56-.21-1.03.13-2.05.13-3.08,0,.52.07,1.04.14,1.56.21-.63-.1-1.25-.23-1.86-.43-.26-.08-.51-.2-.77-.27,1.7.45.7.31.16.03-.58-.3-1.14-.64-1.67-1-.12-.08-.23-.17-.35-.25-.58-.39,1.05.85.51.4-.26-.22-.52-.43-.77-.65-1.08-.95-2.06-2.01-2.96-3.13-.04-.05-.29-.3-.28-.36,0-.05.8,1.06.46.58-.21-.29-.42-.57-.63-.87-.44-.63-.87-1.27-1.27-1.92-2.98-4.75-5.03-9.97-8.46-14.45-2.12-2.75-4.41-5.21-7.39-7.06-2.89-1.8-6.39-2.81-9.8-2.79-7.54.04-13.87,4.9-17.89,10.94-4.74,7.11-5.31,15.91-6.41,24.12.07-.52.14-1.04.21-1.56-.38,2.77-.8,5.54-1.57,8.24-.33,1.16-.73,2.3-1.16,3.42-.4,1.04.57-1.23.12-.29-.13.27-.25.55-.38.82-.28.58-.59,1.15-.91,1.71-.3.51-.61,1.01-.95,1.5-.17.24-.34.48-.51.72-.36.5,1-1.23.2-.28-.75.89-1.57,1.68-2.46,2.42-.47.39,1.29-.94.27-.23-.24.16-.48.32-.72.47-.5.3-1.01.55-1.53.81-.52.26,1.5-.57.3-.15-.31.11-.63.21-.94.3-.68.19-1.37.32-2.06.43.52-.07,1.04-.14,1.56-.21-1.39.17-2.77.16-4.17-.01.52.07,1.04.14,1.56.21-.97-.13-1.93-.33-2.87-.59-.48-.14-.95-.29-1.42-.45-.26-.09-.52-.2-.78-.29-1.03-.38,1.23.58.17.07-1.86-.9-3.63-1.89-5.32-3.07-.37-.26-1.8-1.55-.46-.3-.33-.31-.71-.57-1.06-.86-.86-.71-1.68-1.46-2.49-2.23-1.44-1.37-2.82-2.81-4.13-4.31-.65-.75-1.29-1.51-1.91-2.29-.14-.17-.27-.36-.41-.52,1.05,1.22.46.6.21.27-.37-.49-.72-.98-1.08-1.47-1.15-1.62-2.23-3.3-3.24-5.01-1.03-1.77-1.98-3.58-2.85-5.43-.21-.45-.42-.9-.62-1.36-.09-.2-.18-.41-.27-.61-.48-1.08.44,1.08.14.33-.39-.98-.78-1.95-1.13-2.94-1.57-4.37-2.67-8.9-3.31-13.5.07.52.14,1.04.21,1.56-.37-2.74-.57-5.5-.59-8.26-.03-3.07-2.68-6.02-5.88-5.88-3.16.14-5.91,2.58-5.88,5.88h0Z"/><path class="cls-3" d="M401.95,206.38c-.06-5.23.26-10.46.94-15.64-.07.52-.14,1.04-.21,1.56,1.32-9.82,3.96-19.44,7.81-28.57l-.59,1.4c3.66-8.61,8.38-16.75,14.09-24.16-.31.4-.61.79-.92,1.19.57-.74,1.14-1.46,1.87-2.05-.4.31-.79.61-1.19.92.28-.2.56-.37.87-.51-.47.2-.94.4-1.4.59.26-.1.51-.16.78-.2-.52.07-1.04.14-1.56.21.22-.02.43-.02.65,0-.52-.07-1.04-.14-1.56-.21.26.04.49.1.73.2-.47-.2-.94-.4-1.4-.59.23.11.44.24.65.39-.4-.31-.79-.61-1.19-.92.25.2.46.43.67.68-.31-.4-.61-.79-.92-1.19.35.46.63.96.86,1.49l-.59-1.4c.83,1.96,1,4.11,1.34,6.19.42,2.55.87,5.09,1.37,7.63.99,5.07,2.15,10.11,3.46,15.1,2.62,9.95,5.87,19.74,9.72,29.28,2.34,5.78,4.85,11.49,7.59,17.09.4.82,1.33,1.65,2.11,2.11,1.14.67,2.45.87,3.75.7,1.06-.14,1.94-.5,2.78-1.16.94-.73,1.88-1.84,2.11-3.05,2.77-14.9,6.8-29.55,12.02-43.77,1.47-4.01,3.04-7.98,4.7-11.91l-.59,1.4c3.97-9.41,8.47-18.59,13.48-27.49,1.44-2.55,2.92-5.08,4.44-7.59-3.58-.47-7.16-.94-10.74-1.4,2.26,11.38,4.52,22.75,6.78,34.13,2.26,11.38,4.52,22.75,6.78,34.13,1.27,6.4,2.54,12.79,3.81,19.19.2.47.4.94.59,1.4.37.68.87,1.23,1.51,1.65.99.77,2.27,1.32,3.56,1.26,2.7-.12,4.8-1.77,5.67-4.31,4.64-13.67,9.28-27.34,13.93-41.01,1.32-3.88,2.64-7.76,3.95-11.64.47-1.39.14-3.29-.59-4.53-.71-1.22-2.11-2.38-3.51-2.7-3.26-.74-6.17.98-7.23,4.1-4.64,13.67-9.28,27.34-13.93,41.01-1.32,3.88-2.64,7.76-3.95,11.64h11.34c-2.26-11.38-4.52-22.75-6.78-34.13-2.26-11.38-4.52-22.75-6.78-34.13-1.27-6.4-2.54-12.79-3.81-19.19l-.59-1.4c-.31-.4-.61-.79-.92-1.19-.92-.92-2.1-1.44-3.37-1.62-2.33-.31-4.62.77-5.86,2.8-6.6,10.88-12.42,22.22-17.42,33.92-5.17,12.1-9.58,24.49-13.01,37.2-1.88,6.95-3.48,13.97-4.79,21.05,3.58-.47,7.16-.94,10.74-1.4-1.97-4.02-3.82-8.1-5.57-12.22l.59,1.4c-4.08-9.68-7.55-19.62-10.35-29.74-1.41-5.1-2.66-10.25-3.73-15.44-.53-2.57-1.03-5.15-1.48-7.74-.41-2.35-.61-4.78-1.21-7.09-.78-3.01-2.38-5.8-5.03-7.51-1.91-1.23-4.13-1.37-6.31-1.01-1.85.3-3.66,1.53-4.93,2.86-1.1,1.14-2.01,2.48-2.96,3.74-.71.95-1.41,1.91-2.09,2.89-1.39,1.98-2.7,4-3.96,6.07-5.23,8.65-9.33,18.08-12.15,27.78-2.82,9.68-4.37,19.82-4.57,29.9-.02,1.19-.03,2.38-.01,3.56.02,1.52.64,3.08,1.72,4.15,1.02,1.02,2.69,1.79,4.16,1.72,3.15-.14,5.92-2.58,5.88-5.87h0Z"/><path class="cls-3" d="M361.86,187.1c-3.73,2.86-7.16,5.97-10.13,9.63-2.95,3.64-5.56,7.5-7.65,11.7-4.21,8.47-6.62,17.71-6.96,27.17-.34,9.47,1.62,18.94,5.69,27.5,3.71,7.8,9.8,14.69,17.43,18.84,7.35,4,15.94,5.61,24.26,4.78,9.46-.95,18.57-4.26,26.55-9.42,8.4-5.42,15.56-12.65,20.85-21.13,1.2-1.93,2.29-3.92,3.27-5.97,1.12-2.37,2.21-4.83,2.7-7.43.54-2.89.76-6.07-.33-8.87-.71-1.81-1.59-3.44-3.01-4.81-1.39-1.34-2.91-2.2-4.71-2.87-2.7-1-5.89-.79-8.63-.07-2.56.67-5.06,1.88-7.26,3.34-2.23,1.47-4.32,3.22-6.35,4.96-1.81,1.56-3.56,3.2-5.24,4.91-6.87,7.01-12.68,15.19-16.94,24.03-2.23,4.62-4.14,9.42-5.59,14.35-1.5,5.1-2.77,10.49-2.86,15.82-.16,9.79,4.82,19.58,13.06,24.95,2.85,1.86,6.23,3.11,9.6,3.61,2,.3,3.98.51,6.01.46,2.07-.05,4.15-.33,6.19-.67,3.38-.57,6.68-1.58,9.85-2.86,3.82-1.53,7.51-3.3,11.06-5.4,6.42-3.8,12.48-8.43,17.76-13.7,2.41-2.4,4.62-4.99,6.62-7.74,3.05-4.21,5.18-10.01,3.76-15.2-.49-1.79-1.42-3.36-2.65-4.74-1.29-1.45-2.92-2.33-4.69-3.02-.46-.18-.93-.3-1.42-.37-.98-.15-1.97-.31-2.96-.24-1.51.12-3.03.36-4.44.91-3.04,1.19-5.62,2.82-8.08,4.99-1.86,1.64-3.63,3.39-5.31,5.22-3.71,4.04-7.06,8.49-9.86,13.21-2.69,4.53-5.01,9.42-6.4,14.51-1.48,5.39-1.92,11.05-.76,16.53,1.08,5.13,4.01,10.09,8.14,13.35,1.2.95,2.41,1.87,3.75,2.62,1.31.73,2.71,1.32,4.1,1.87,2.51.99,5.14,1.45,7.82,1.73,5.1.54,10.45-.47,15.17-2.42,2.59-1.07,5.08-2.26,7.44-3.76,2.41-1.54,4.69-3.3,6.86-5.16,1.09-.94,1.72-2.76,1.72-4.15s-.64-3.16-1.72-4.15c-1.12-1.03-2.59-1.79-4.16-1.72-1.62.07-2.92.66-4.16,1.72-.74.64-1.5,1.25-2.27,1.85.4-.31.79-.61,1.19-.92-2.85,2.18-5.91,4.06-9.21,5.47.47-.2.94-.4,1.4-.59-2.54,1.06-5.17,1.83-7.9,2.2.52-.07,1.04-.14,1.56-.21-2.19.28-4.38.3-6.57.02.52.07,1.04.14,1.56.21-2.14-.29-4.22-.85-6.21-1.69.47.2.94.4,1.4.59-1.63-.7-3.16-1.59-4.58-2.66.4.31.79.61,1.19.92-1.23-.96-2.33-2.05-3.29-3.27.31.4.61.79.92,1.19-.95-1.24-1.73-2.6-2.34-4.04.2.47.4.94.59,1.4-.68-1.66-1.13-3.39-1.37-5.16.07.52.14,1.04.21,1.56-.29-2.35-.24-4.71.07-7.05-.07.52-.14,1.04-.21,1.56.49-3.51,1.51-6.9,2.87-10.17-.2.47-.4.94-.59,1.4,2.25-5.34,5.33-10.34,8.86-14.93-.31.4-.61.79-.92,1.19,3.06-3.95,6.53-7.87,10.5-10.94-.4.31-.79.61-1.19.92,1.21-.92,2.49-1.71,3.88-2.32-.47.2-.94.4-1.4.59.93-.39,1.88-.69,2.88-.83-.52.07-1.04.14-1.56.21.6-.07,1.2-.08,1.8-.01-.52-.07-1.04-.14-1.56-.21.53.07,1.02.21,1.52.41-.47-.2-.94-.4-1.4-.59.44.2.84.44,1.22.73-.4-.31-.79-.61-1.19-.92.36.29.67.6.96.96-.31-.4-.61-.79-.92-1.19.29.39.53.8.72,1.25-.2-.47-.4-.94-.59-1.4.2.51.33,1.03.41,1.57-.07-.52-.14-1.04-.21-1.56.09.76.06,1.51-.03,2.27.07-.52.14-1.04.21-1.56-.18,1.22-.55,2.39-1.02,3.53.2-.47.4-.94.59-1.4-.77,1.79-1.81,3.4-3,4.94.31-.4.61-.79.92-1.19-3.65,4.72-8.11,8.81-12.83,12.45.4-.31.79-.61,1.19-.92-5.38,4.14-11.23,7.73-17.49,10.37.47-.2.94-.4,1.4-.59-3.82,1.6-7.82,2.84-11.93,3.41.52-.07,1.04-.14,1.56-.21-2.54.33-5.12.4-7.66.06.52.07,1.04.14,1.56.21-1.84-.26-3.64-.72-5.37-1.44.47.2.94.4,1.4.59-1.55-.66-3-1.5-4.33-2.53.4.31.79.61,1.19.92-1.42-1.11-2.68-2.4-3.78-3.82.31.4.61.79.92,1.19-1.35-1.78-2.47-3.72-3.34-5.78.2.47.4.94.59,1.4-.75-1.84-1.27-3.74-1.54-5.71.07.52.14,1.04.21,1.56-.31-2.46-.23-4.94.09-7.39-.07.52-.14,1.04-.21,1.56.9-6.67,2.95-13.27,5.54-19.46l-.59,1.4c2.92-6.9,6.72-13.41,11.3-19.35-.31.4-.61.79-.92,1.19,4.4-5.68,9.5-10.8,15.18-15.19-.4.31-.79.61-1.19.92,1.67-1.28,3.45-2.4,5.38-3.24-.47.2-.94.4-1.4.59,1.23-.51,2.51-.91,3.83-1.09-.52.07-1.04.14-1.56.21.78-.09,1.56-.1,2.34,0-.52-.07-1.04-.14-1.56-.21.63.09,1.23.26,1.81.5-.47-.2-.94-.4-1.4-.59.47.22.91.47,1.32.79-.4-.31-.79-.61-1.19-.92.43.34.81.72,1.15,1.15-.31-.4-.61-.79-.92-1.19.36.48.65.98.88,1.53l-.59-1.4c.24.62.4,1.25.5,1.91-.07-.52-.14-1.04-.21-1.56.13,1.03.09,2.06-.04,3.1.07-.52.14-1.04.21-1.56-.26,1.78-.8,3.5-1.5,5.16.2-.47.4-.94.59-1.4-1.94,4.5-4.51,8.73-7.5,12.61.31-.4.61-.79.92-1.19-3.2,4.12-6.91,7.82-11.04,11.02.4-.31.79-.61,1.19-.92-4.08,3.14-8.53,5.76-13.26,7.77.47-.2.94-.4,1.4-.59-4.16,1.75-8.51,3.01-12.98,3.63.52-.07,1.04-.14,1.56-.21-3.62.48-7.28.53-10.91.06.52.07,1.04.14,1.56.21-3.1-.42-6.14-1.23-9.03-2.45.47.2.94.4,1.4.59-2.6-1.11-5.04-2.54-7.29-4.26.4.31.79.61,1.19.92-2.38-1.84-4.5-3.98-6.34-6.36.31.4.61.79.92,1.19-2.22-2.88-4.01-6.05-5.43-9.38l.59,1.4c-1.78-4.23-2.97-8.67-3.59-13.22.07.52.14,1.04.21,1.56-.67-5.03-.64-10.13.03-15.17-.07.52-.14,1.04-.21,1.56.72-5.25,2.13-10.38,4.19-15.26-.2.47-.4.94-.59,1.4,1.94-4.54,4.42-8.84,7.44-12.75-.31.4-.61.79-.92,1.19,2.77-3.57,5.97-6.79,9.55-9.56-.4.31-.79.61-1.19.92.05-.04.11-.08.17-.13,1.27-.97,2.26-1.9,2.7-3.51.39-1.41.21-3.28-.59-4.53-.81-1.25-2.01-2.36-3.51-2.7-1.43-.32-3.31-.34-4.53.59h0Z"/><path class="cls-3" d="M344.51,170.56c1.51,0,3.09-.66,4.16-1.72,1.02-1.02,1.79-2.69,1.72-4.15-.14-3.18-2.58-5.88-5.88-5.88-1.51,0-3.09.66-4.16,1.72-1.02,1.02-1.79,2.69-1.72,4.15.14,3.18,2.58,5.87,5.88,5.87h0Z"/><path class="cls-3" d="M383.13,56.03c1.51,0,3.09-.66,4.16-1.72,1.07-1.07,1.79-2.69,1.72-4.15-.14-3.18-2.58-5.87-5.88-5.87-1.51,0-3.09.66-4.16,1.72-1.07,1.07-1.79,2.69-1.72,4.15.14,3.18,2.58,5.88,5.88,5.88h0Z"/><path class="cls-3" d="M467.83,240.9c1.51,0,3.09-.66,4.16-1.72,1.07-1.07,1.79-2.69,1.72-4.15-.14-3.18-2.58-5.88-5.88-5.88-1.51,0-3.09.66-4.16,1.72-1.02,1.02-1.79,2.69-1.72,4.15.14,3.18,2.58,5.87,5.88,5.87h0Z"/><path class="cls-3" d="M511.74,232.11c-6.8,8.99-12.8,18.57-17.92,28.61-2.65,5.21-5.15,10.55-7.25,16.01-1.85,4.82-3.1,9.83-3.5,14.99-.4,5.18.49,10.65,3.14,15.18,2.89,4.95,7.78,8.53,13.32,9.95,5.17,1.32,10.95,1.04,15.96-.83,5.39-2.01,10.12-5.4,14.01-9.62,3.78-4.1,6.86-8.8,9.62-13.62,2.77-4.85,5.3-9.85,8.4-14.5.76-1.14,1.55-2.26,2.38-3.35-.31.4-.61.79-.92,1.19,1.53-1.96,3.28-3.74,5.24-5.27-.4.31-.79.61-1.19.92,1.62-1.25,3.35-2.32,5.24-3.13-.47.2-.94.4-1.4.59,1.29-.54,2.63-.94,4.01-1.14-.52.07-1.04.14-1.56.21,1.08-.14,2.17-.16,3.25-.03-.52-.07-1.04-.14-1.56-.21.96.14,1.89.39,2.79.76-.47-.2-.94-.4-1.4-.59.81.36,1.57.79,2.28,1.32-.4-.31-.79-.61-1.19-.92.81.63,1.52,1.35,2.14,2.15-.31-.4-.61-.79-.92-1.19.7.94,1.27,1.95,1.73,3.02l-.59-1.4c.56,1.35.92,2.76,1.12,4.21-.07-.52-.14-1.04-.21-1.56.25,2.07.16,4.18-.11,6.25.07-.52.14-1.04.21-1.56-.45,3.27-1.42,6.42-2.7,9.46.2-.47.4-.94.59-1.4-1.46,3.41-3.26,6.65-5.13,9.85-1.74,2.98-3.61,5.92-5.15,9.01-1.29,2.59-2.36,5.34-2.95,8.18-.58,2.81-.94,5.78-.59,8.64.39,3.18,1.12,6.32,2.95,9.03.88,1.3,1.89,2.59,3.11,3.59.81.66,1.64,1.32,2.53,1.87.98.6,2.04,1.02,3.1,1.46,3.85,1.58,8.08,1.71,12.14,1.02,4.4-.75,8.35-3.01,11.83-5.72,7.61-5.93,11.37-15.18,14.92-23.83.54-1.31.09-3.36-.59-4.53-.71-1.22-2.11-2.38-3.51-2.7-1.51-.34-3.19-.27-4.53.59-.4.31-.79.61-1.19.92-.73.73-1.23,1.6-1.51,2.59-.43,1.04-.86,2.09-1.3,3.12l.59-1.4c-1.94,4.58-4.08,9.12-7.12,13.08.31-.4.61-.79.92-1.19-1.46,1.88-3.11,3.57-4.99,5.03.4-.31.79-.61,1.19-.92-1.55,1.18-3.22,2.18-5.01,2.95.47-.2.94-.4,1.4-.59-1.56.66-3.19,1.12-4.87,1.36.52-.07,1.04-.14,1.56-.21-1.39.17-2.77.18-4.16,0,.52.07,1.04.14,1.56.21-1.45-.2-2.86-.56-4.21-1.12.47.2.94.4,1.4.59-1-.43-1.94-.97-2.81-1.63.4.31.79.61,1.19.92-.75-.59-1.42-1.26-2.01-2.02.31.4.61.79.92,1.19-.62-.82-1.13-1.7-1.53-2.65.2.47.4.94.59,1.4-.49-1.18-.81-2.42-.99-3.69.07.52.14,1.04.21,1.56-.25-1.87-.21-3.77.04-5.64-.07.52-.14,1.04-.21,1.56.33-2.37.98-4.68,1.91-6.89l-.59,1.4c1.28-3.03,3.08-5.84,4.74-8.67,1.88-3.2,3.77-6.4,5.35-9.76,1.78-3.76,3.35-7.68,4.05-11.8.75-4.4,1.01-9.01-.34-13.33-1.4-4.48-4.25-8.66-8.45-10.94-4.06-2.2-8.75-2.6-13.2-1.42-4.17,1.11-7.86,3.47-11.11,6.24-3.21,2.74-5.74,6.2-8.02,9.73-4.9,7.57-8.47,15.95-14,23.11.31-.4.61-.79.92-1.19-2.11,2.71-4.47,5.21-7.18,7.32.4-.31.79-.61,1.19-.92-1.85,1.41-3.85,2.64-6,3.55.47-.2.94-.4,1.4-.59-1.82.76-3.72,1.27-5.68,1.55.52-.07,1.04-.14,1.56-.21-1.95.26-3.91.28-5.85.03.52.07,1.04.14,1.56.21-1.58-.22-3.11-.62-4.59-1.23.47.2.94.4,1.4.59-1.27-.54-2.47-1.23-3.56-2.07.4.31.79.61,1.19.92-1-.78-1.88-1.68-2.67-2.68.31.4.61.79.92,1.19-.83-1.08-1.51-2.24-2.05-3.49.2.47.4.94.59,1.4-.65-1.55-1.07-3.16-1.3-4.82.07.52.14,1.04.21,1.56-.34-2.54-.25-5.11.09-7.65-.07.52-.14,1.04-.21,1.56.66-4.73,2.16-9.31,4.01-13.7-.2.47-.4.94-.59,1.4,4.8-11.35,10.69-22.23,17.59-32.45,1.94-2.87,3.95-5.68,6.04-8.44.86-1.13.95-3.23.59-4.53-.38-1.36-1.43-2.84-2.7-3.51-1.36-.72-3.02-1.08-4.53-.59-.47.2-.94.4-1.4.59-.88.52-1.59,1.22-2.11,2.11h0Z"/><path class="cls-3" d="M461.58,379.31c2.84-2.7,5.81-5.24,8.91-7.64-.4.31-.79.61-1.19.92,6.2-4.77,12.88-8.92,19.91-12.37,2-.98,4.02-1.9,6.07-2.77-.47.2-.94.4-1.4.59,7.5-3.16,15.31-5.57,23.3-7.13,2.26-.44,4.53-.82,6.81-1.13-.52.07-1.04.14-1.56.21,5.17-.69,10.39-1.04,15.61-1.03-.99-3.65-1.98-7.3-2.97-10.95-7.66,5.07-14.73,11.07-20.87,17.89-6.14,6.81-11.52,14.39-15.78,22.51-2.5,4.76-4.65,9.73-6.45,14.8-.07.52-.14,1.04-.21,1.56.07.52.14,1.04.21,1.56.34,1.24,1.1,2.28,2.11,3.05.85.65,1.72,1.01,2.78,1.16,1.21.16,2.71.04,3.75-.7,7.13-5.04,14.81-9.29,22.85-12.68-.47.2-.94.4-1.4.59,7.64-3.21,15.6-5.65,23.74-7.24,2.34-.46,4.69-.85,7.06-1.16-.52.07-1.04.14-1.56.21,1.68-.22,3.37-.42,5.06-.57-1.38-3.34-2.77-6.69-4.16-10.03-6.83,8.68-12.7,17.99-17.27,28.05-1.41,3.1-2.72,6.24-3.92,9.43-.51,1.35-.11,3.33.59,4.53.71,1.22,2.11,2.38,3.51,2.7,1.51.34,3.19.27,4.53-.59,1.35-.87,2.13-2.01,2.7-3.51.61-1.63,1.26-3.24,1.93-4.84l-.59,1.4c3.42-8.08,7.64-15.81,12.6-23.05,1.4-2.05,2.87-4.05,4.38-6.02-.31.4-.61.79-.92,1.19.25-.33.51-.65.76-.98.63-.8,1.23-1.59,1.51-2.59.35-1.28.21-2.62-.3-3.82-.41-.97-.98-1.71-1.81-2.35-.95-.74-2.31-1.38-3.56-1.26-8.7.8-17.32,2.39-25.68,4.94-8.32,2.53-16.43,5.93-24.07,10.09-4.12,2.24-8.1,4.72-11.93,7.43,2.88,2.21,5.76,4.42,8.63,6.63.67-1.88,1.39-3.74,2.16-5.58-.2.47-.4.94-.59,1.4,3.49-8.24,8.04-16.01,13.51-23.09-.31.4-.61.79-.92,1.19,5.39-6.96,11.64-13.23,18.6-18.62-.4.31-.79.61-1.19.92,1.99-1.54,4.03-3,6.13-4.39,2.11-1.39,3.53-4.08,2.7-6.63-.8-2.48-3-4.31-5.67-4.31-12.08-.03-24.26,1.79-35.81,5.33-11.51,3.52-22.6,8.7-32.6,15.4-5.8,3.88-11.3,8.25-16.36,13.06-2.23,2.12-2.3,6.2,0,8.31,2.4,2.2,5.93,2.26,8.31,0h0Z"/><path class="cls-3" d="M671.27,193.32c-4.89-6.97-10.35-13.55-16.39-19.56-6.01-5.98-12.58-11.41-19.5-16.3-6.61-4.67-13.62-8.78-20.91-12.28-7.65-3.67-15.6-6.76-23.76-9.1-8.22-2.36-16.64-3.91-25.14-4.8-1.01-.1-2.01-.2-3.02-.28-.52.07-1.04.14-1.56.21-.77.18-1.43.53-2,1.05-.97.75-1.83,1.82-2.11,3.05-.6,2.61.42,5.19,2.7,6.63,4.94,3.13,9.73,6.48,14.36,10.05-.4-.31-.79-.61-1.19-.92,9.99,7.73,19.21,16.45,27.48,25.99,2.33,2.69,4.59,5.45,6.77,8.26-.31-.4-.61-.79-.92-1.19,6.92,8.96,13.05,18.52,18.26,28.56,1.48,2.86,2.89,5.76,4.23,8.69,3.08-2.37,6.16-4.75,9.23-7.12-7.89-7.6-16.42-14.54-25.43-20.78-8.69-6.02-17.88-11.33-27.43-15.87-5.76-2.73-11.65-5.2-17.63-7.41-1.92-.71-4.33.13-5.72,1.51-.73.73-1.23,1.6-1.51,2.59-.28,1.04-.28,2.08,0,3.12,6.91,16.61,13.81,33.22,20.72,49.82,1.93,4.65,3.87,9.29,5.8,13.94,3.28-1.91,6.55-3.81,9.82-5.72-11.95-10.97-25.15-20.67-39.25-28.71-3.89-2.22-7.85-4.31-11.86-6.27-1.44-.7-2.95-1.03-4.53-.59-1.36.38-2.84,1.43-3.51,2.7-.72,1.36-1.08,3.02-.59,4.53.45,1.39,1.34,2.84,2.7,3.51,9.97,4.88,19.56,10.54,28.64,16.92,2.58,1.81,5.11,3.68,7.6,5.6-.4-.31-.79-.61-1.19-.92,4.72,3.65,9.28,7.5,13.68,11.53,1.86,1.71,4.88,2.36,7.12.92.85-.55,1.56-1.26,2.11-2.11.71-1.1,1.11-3.27.59-4.53-6.91-16.61-13.81-33.22-20.72-49.82-1.93-4.65-3.87-9.29-5.8-13.94-2.41,2.41-4.82,4.82-7.23,7.23,2.85,1.05,5.67,2.16,8.46,3.34-.47-.2-.94-.4-1.4-.59,12.06,5.1,23.6,11.4,34.4,18.8,3.03,2.08,6,4.24,8.9,6.48-.4-.31-.79-.61-1.19-.92,5.62,4.34,11.01,8.99,16.12,13.92,2.12,2.04,5.39,2.25,7.72.46.97-.75,1.83-1.82,2.11-3.05.07-.52.14-1.04.21-1.56,0-1.06-.27-2.05-.8-2.97-5.94-13.07-13.4-25.43-22.14-36.81-9-11.71-19.12-22.46-30.51-31.89-6.53-5.41-13.39-10.44-20.56-14.98-.99,3.65-1.98,7.3-2.97,10.95,2.3.19,4.6.44,6.9.74-.52-.07-1.04-.14-1.56-.21,9.59,1.29,19.04,3.6,28.16,6.84,2.59.92,5.14,1.92,7.67,2.98-.47-.2-.94-.4-1.4-.59,8.92,3.77,17.46,8.43,25.45,13.91,2.26,1.55,4.48,3.17,6.66,4.85-.4-.31-.79-.61-1.19-.92,7.31,5.66,14.08,12.01,20.14,18.99,1.71,1.96,3.35,3.97,4.94,6.03-.31-.4-.61-.79-.92-1.19,1.28,1.66,2.52,3.35,3.72,5.06.89,1.27,1.97,2.28,3.51,2.7,1.41.39,3.28.21,4.53-.59,1.26-.81,2.36-2.01,2.7-3.51.33-1.47.31-3.25-.59-4.53h0Z"/><path class="cls-3" d="M517.03,126.98c1.51,0,3.09-.66,4.16-1.72,1.07-1.07,1.79-2.69,1.72-4.15-.14-3.18-2.58-5.88-5.88-5.88-1.51,0-3.09.66-4.16,1.72-1.07,1.07-1.79,2.69-1.72,4.15.14,3.18,2.58,5.87,5.88,5.87h0Z"/><path class="cls-3" d="M485.95,48.76c3.21,8.11,7.25,15.82,12.33,22.91,5.06,7.07,10.86,13.6,17.46,19.27,7.06,6.06,14.82,11.47,23.45,15.04,2.07.86,4.21,1.56,6.41,2.01,2.55.52,5.22.86,7.82.7,2.58-.16,5.19-.59,7.59-1.57,1.28-.52,2.55-1.06,3.74-1.78,1.17-.71,2.26-1.56,3.31-2.42,3.65-2.99,6.09-7.09,7.85-11.4,1.71-4.17,2.33-8.87,2.06-13.35-.62-10.16-5.01-19.74-10.6-28.11-5.31-7.96-11.95-15.48-19.78-21.07-1.28-.91-2.65-1.56-4.12-2.13-.51-.2-1.03-.35-1.56-.44-.96-.17-1.96-.34-2.94-.27-3.17.21-6.26,1.57-8.27,4.09-1.21,1.51-1.97,2.84-2.65,4.67-.5,1.34-.68,2.84-.73,4.25-.1,2.85.65,5.72,1.72,8.34,3.36,8.23,8.27,15.72,14.47,22.11,5.79,5.97,12.75,11.02,20.31,14.51,7.75,3.57,16.15,5.9,24.75,5.5,2.3-.11,4.61-.4,6.86-.88,2.22-.47,4.31-1.24,6.39-2.13,3.66-1.56,7.09-4.02,9.64-7.07,3.06-3.65,5.26-7.92,6.26-12.6,1.04-4.85.98-9.62.21-14.49-1.5-9.45-6.8-17.74-12.64-25.1-2.79-3.51-5.77-6.89-8.82-10.17-3.64-3.92-8.36-7.46-13.91-7.67-3.17-.12-6.37,1.22-8.64,3.41-1.82,1.77-3.19,4.33-3.61,6.83-.45,2.71-.46,5.43.46,8.06,1.04,2.95,2.61,5.34,4.53,7.77,2.68,3.4,5.75,6.59,8.84,9.61,3.38,3.3,7.06,6.38,11.09,8.86,2.2,1.35,4.52,2.43,6.91,3.39,1.73.7,3.52,1.23,5.35,1.56,4.47.8,8.89.8,13.34-.18,8.82-1.95,16.49-8.56,18.38-17.59,1.06-5.04.7-10.35-.96-15.23-1.73-5.09-4.56-9.47-7.95-13.6-2.78-3.39-5.95-6.43-9.11-9.45-1.1-1.06-2.62-1.72-4.16-1.72-1.44,0-3.16.64-4.16,1.72-1.03,1.12-1.79,2.59-1.72,4.15.07,1.54.58,3.06,1.72,4.15,3.51,3.36,7.02,6.75,10.01,10.59-.31-.4-.61-.79-.92-1.19,1.89,2.46,3.57,5.09,4.79,7.94l-.59-1.4c.92,2.2,1.57,4.49,1.9,6.84-.07-.52-.14-1.04-.21-1.56.25,1.95.28,3.92.02,5.87.07-.52.14-1.04.21-1.56-.22,1.56-.62,3.07-1.22,4.52.2-.47.4-.94.59-1.4-.56,1.31-1.28,2.53-2.15,3.66.31-.4.61-.79.92-1.19-.87,1.1-1.86,2.08-2.97,2.94.4-.31.79-.61,1.19-.92-1.31,1-2.74,1.81-4.26,2.46.47-.2.94-.4,1.4-.59-1.91.79-3.91,1.31-5.95,1.6.52-.07,1.04-.14,1.56-.21-2.34.3-4.7.3-7.04,0,.52.07,1.04.14,1.56.21-2.39-.33-4.68-.99-6.91-1.91.47.2.94.4,1.4.59-3.25-1.37-6.25-3.23-9.05-5.37.4.31.79.61,1.19.92-2.79-2.16-5.37-4.57-7.83-7.1-2.45-2.53-4.92-5.12-7.09-7.9.31.4.61.79.92,1.19-.99-1.29-1.88-2.65-2.54-4.14.2.47.4.94.59,1.4-.39-.92-.68-1.86-.83-2.85.07.52.14,1.04.21,1.56-.12-.89-.12-1.77,0-2.66-.07.52-.14,1.04-.21,1.56.11-.75.3-1.47.58-2.18-.2.47-.4.94-.59,1.4.27-.63.6-1.2,1.01-1.74-.31.4-.61.79-.92,1.19.31-.38.65-.72,1.03-1.02-.4.31-.79.61-1.19.92.41-.31.85-.56,1.32-.78-.47.2-.94.4-1.4.59.51-.21,1.03-.36,1.58-.44-.52.07-1.04.14-1.56.21.6-.07,1.19-.06,1.8.01-.52-.07-1.04-.14-1.56-.21.76.11,1.48.33,2.18.62-.47-.2-.94-.4-1.4-.59,1.24.53,2.36,1.25,3.43,2.07-.4-.31-.79-.61-1.19-.92,2.52,1.98,4.59,4.45,6.71,6.83,2.19,2.47,4.34,4.97,6.36,7.58-.31-.4-.61-.79-.92-1.19,3.11,4.05,5.9,8.36,7.9,13.08-.2-.47-.4-.94-.59-1.4,1.22,2.93,2.08,5.98,2.52,9.13-.07-.52-.14-1.04-.21-1.56.38,2.81.42,5.65.06,8.46.07-.52.14-1.04.21-1.56-.31,2.27-.88,4.49-1.76,6.61.2-.47.4-.94.59-1.4-.76,1.78-1.72,3.46-2.91,4.99.31-.4.61-.79.92-1.19-1.11,1.41-2.38,2.66-3.79,3.76.4-.31.79-.61,1.19-.92-1.58,1.2-3.3,2.18-5.13,2.96.47-.2.94-.4,1.4-.59-2.34.97-4.8,1.6-7.32,1.94.52-.07,1.04-.14,1.56-.21-3.4.44-6.84.38-10.24-.06.52.07,1.04.14,1.56.21-4.35-.59-8.54-1.82-12.58-3.51.47.2.94.4,1.4.59-5.03-2.12-9.76-4.9-14.09-8.22.4.31.79.61,1.19.92-4.38-3.38-8.32-7.3-11.71-11.67.31.4.61.79.92,1.19-3.28-4.24-6.03-8.88-8.12-13.82.2.47.4.94.59,1.4-.67-1.61-1.23-3.25-1.49-4.97.07.52.14,1.04.21,1.56-.14-1.01-.16-2.01-.04-3.02-.07.52-.14,1.04-.21,1.56.11-.72.3-1.42.58-2.09-.2.47-.4.94-.59,1.4.27-.61.6-1.17.99-1.71-.31.4-.61.79-.92,1.19.36-.46.77-.87,1.22-1.24-.4.31-.79.61-1.19.92.41-.31.84-.56,1.32-.76-.47.2-.94.4-1.4.59.44-.17.88-.28,1.35-.35-.52.07-1.04.14-1.56.21.47-.05.92-.04,1.39,0-.52-.07-1.04-.14-1.56-.21.7.1,1.36.3,2.01.57-.47-.2-.94-.4-1.4-.59,1.18.53,2.25,1.24,3.28,2.03-.4-.31-.79-.61-1.19-.92,5.11,4,9.67,8.73,13.63,13.85-.31-.4-.61-.79-.92-1.19,3.84,4.99,7.19,10.42,9.66,16.21l-.59-1.4c1.5,3.56,2.64,7.26,3.16,11.1-.07-.52-.14-1.04-.21-1.56.34,2.62.4,5.28.05,7.91.07-.52.14-1.04.21-1.56-.31,2.25-.91,4.43-1.79,6.52.2-.47.4-.94.59-1.4-.81,1.88-1.83,3.65-3.08,5.28.31-.4.61-.79.92-1.19-1.04,1.32-2.21,2.52-3.54,3.56.4-.31.79-.61,1.19-.92-1.23.94-2.55,1.73-3.97,2.34.47-.2.94-.4,1.4-.59-1.49.62-3.04,1.03-4.63,1.26.52-.07,1.04-.14,1.56-.21-2,.26-4.01.22-6.01-.05.52.07,1.04.14,1.56.21-2.93-.42-5.76-1.31-8.48-2.45.47.2.94.4,1.4.59-5.89-2.51-11.33-6.14-16.4-10.03.4.31.79.61,1.19.92-6.89-5.33-13.08-11.53-18.42-18.42.31.4.61.79.92,1.19-5.32-6.9-9.75-14.46-13.14-22.48.2.47.4.94.59,1.4-.28-.68-.56-1.36-.84-2.05-.58-1.47-1.28-2.68-2.7-3.51-1.26-.74-3.12-1.05-4.53-.59-1.42.46-2.8,1.34-3.51,2.7-.69,1.31-1.16,3.08-.59,4.53h0Z"/><path class="cls-3" d="M481.98-83.66c-5.71,5.26-11.41,10.72-15.5,17.38-2,3.26-3.69,6.93-4.49,10.69-.82,3.83-.8,7.5-.22,11.35,1.02,6.77,4.94,13.45,10.92,16.97,3.37,1.98,7.52,2.99,11.42,2.67,4.31-.35,8.33-1.78,12.04-3.99,7.6-4.52,13.31-11.42,20.25-16.79-.4.31-.79.61-1.19.92,3-2.3,6.2-4.34,9.68-5.84-.47.2-.94.4-1.4.59,2.38-1,4.84-1.73,7.4-2.08-.52.07-1.04.14-1.56.21,2.21-.28,4.43-.29,6.64,0-.52-.07-1.04-.14-1.56-.21,1.9.26,3.75.75,5.52,1.49-.47-.2-.94-.4-1.4-.59,1.43.62,2.77,1.39,4.01,2.34-.4-.31-.79-.61-1.19-.92,1.11.87,2.09,1.86,2.96,2.98-.31-.4-.61-.79-.92-1.19.84,1.12,1.54,2.32,2.09,3.6-.2-.47-.4-.94-.59-1.4.63,1.52,1.05,3.1,1.27,4.73-.07-.52-.14-1.04-.21-1.56.27,2.06.23,4.13-.04,6.18.07-.52.14-1.04.21-1.56-.35,2.44-1.02,4.82-1.98,7.1.2-.47.4-.94.59-1.4-.97,2.28-2.22,4.43-3.72,6.4.31-.4.61-.79.92-1.19-2.09,2.69-4.61,5.02-7.3,7.1.4-.31.79-.61,1.19-.92-6.31,4.84-13.53,8.23-20.51,11.97-6.98,3.73-13.95,8.11-19.28,14.04-3.4,3.78-6,7.99-7.69,12.79-.48,1.38-.13,3.3.59,4.53.71,1.22,2.11,2.38,3.51,2.7,1.51.34,3.19.27,4.53-.59,1.34-.86,2.17-2.01,2.7-3.51.19-.54.39-1.07.61-1.6l-.59,1.4c1-2.35,2.31-4.53,3.86-6.55-.31.4-.61.79-.92,1.19,2.25-2.89,4.93-5.4,7.82-7.65-.4.31-.79.61-1.19.92,7.62-5.86,16.51-9.58,24.78-14.38,4.52-2.63,8.9-5.64,12.69-9.26,1.96-1.87,3.71-3.95,5.25-6.17,1.48-2.14,2.58-4.46,3.57-6.86.81-1.97,1.43-4.03,1.78-6.13.42-2.47.69-4.97.48-7.48-.21-2.47-.62-4.94-1.56-7.25-1.13-2.77-2.53-5.17-4.57-7.4-3.46-3.77-8.49-6.29-13.52-7.1-5.38-.87-10.86-.54-16.02,1.31-5.6,2.01-10.44,5.14-15.05,8.85-3.83,3.07-7.24,6.61-10.96,9.81-.92.8-1.87,1.58-2.83,2.32.4-.31.79-.61,1.19-.92-2.39,1.84-4.92,3.51-7.71,4.69.47-.2.94-.4,1.4-.59-1.54.64-3.14,1.11-4.8,1.34.52-.07,1.04-.14,1.56-.21-1.31.17-2.62.18-3.94.02.52.07,1.04.14,1.56.21-1.26-.17-2.49-.48-3.67-.97.47.2.94.4,1.4.59-1.09-.46-2.11-1.06-3.06-1.77.4.31.79.61,1.19.92-1.07-.83-2.02-1.79-2.86-2.86.31.4.61.79.92,1.19-.99-1.29-1.79-2.69-2.43-4.18.2.47.4.94.59,1.4-.79-1.87-1.31-3.83-1.59-5.84.07.52.14,1.04.21,1.56-.27-2.09-.28-4.2,0-6.29-.07.52-.14,1.04-.21,1.56.31-2.18.96-4.27,1.81-6.3l-.59,1.4c1.3-3.03,3.05-5.83,5.05-8.44-.31.4-.61.79-.92,1.19,3.5-4.52,7.69-8.45,11.89-12.32,2.27-2.09,2.27-6.22,0-8.31-2.42-2.23-5.9-2.23-8.31,0h0Z"/><path class="cls-3" d="M618.48,274.44c1.61-.14,3.21-.1,4.81.11-.52-.07-1.04-.14-1.56-.21,2.23.31,4.39.94,6.46,1.81-.47-.2-.94-.4-1.4-.59,2.96,1.26,5.69,2.98,8.23,4.94-.4-.31-.79-.61-1.19-.92,5.09,3.96,9.42,8.83,13.35,13.91-.31-.4-.61-.79-.92-1.19,3.92,5.09,7.35,10.57,9.88,16.49-.2-.47-.4-.94-.59-1.4,1.84,4.36,3.15,8.9,3.79,13.59-.07-.52-.14-1.04-.21-1.56.52,3.97.57,7.99.04,11.96.07-.52.14-1.04.21-1.56-.46,3.3-1.32,6.53-2.61,9.61l.59-1.4c-1.1,2.56-2.5,4.95-4.19,7.16.31-.4.61-.79.92-1.19-1.74,2.24-3.74,4.26-5.98,5.99.4-.31.79-.61,1.19-.92-2.02,1.54-4.2,2.83-6.54,3.82.47-.2.94-.4,1.4-.59-2.15.89-4.39,1.52-6.7,1.84.52-.07,1.04-.14,1.56-.21-2.08.27-4.17.26-6.25-.01.52.07,1.04.14,1.56.21-2.2-.3-4.35-.89-6.4-1.74.47.2.94.4,1.4.59-1.98-.84-3.84-1.9-5.55-3.2.4.31.79.61,1.19.92-1.53-1.18-2.91-2.53-4.1-4.05.31.4.61.79.92,1.19-1.06-1.37-1.95-2.86-2.64-4.45.2.47.4.94.59,1.4-.53-1.26-.93-2.55-1.12-3.9.07.52.14,1.04.21,1.56-.11-.9-.13-1.8-.03-2.71-.07.52-.14,1.04-.21,1.56.09-.68.25-1.33.51-1.97-.2.47-.4.94-.59,1.4.2-.44.43-.86.72-1.24-.31.4-.61.79-.92,1.19.27-.34.56-.63.9-.91-.4.31-.79.61-1.19.92.39-.29.8-.53,1.26-.72-.47.2-.94.4-1.4.59.45-.17.9-.28,1.38-.35-.52.07-1.04.14-1.56.21.63-.07,1.25-.05,1.87.04-.52-.07-1.04-.14-1.56-.21.95.15,1.86.43,2.75.8-.47-.2-.94-.4-1.4-.59,1.84.79,3.48,1.92,5.06,3.14-.4-.31-.79-.61-1.19-.92,2.86,2.21,5.43,4.77,7.66,7.63-.31-.4-.61-.79-.92-1.19,2.06,2.68,3.8,5.59,5.12,8.7-.2-.47-.4-.94-.59-1.4,1.15,2.76,1.97,5.65,2.37,8.62-.07-.52-.14-1.04-.21-1.56.33,2.53.36,5.07.03,7.6.07-.52.14-1.04.21-1.56-.35,2.58-1.04,5.09-2.03,7.49.2-.47.4-.94.59-1.4-1.01,2.39-2.31,4.64-3.89,6.69.31-.4.61-.79.92-1.19-1.42,1.81-3.04,3.45-4.86,4.86.4-.31.79-.61,1.19-.92-1.61,1.23-3.35,2.26-5.22,3.06.47-.2.94-.4,1.4-.59-1.71.72-3.49,1.23-5.33,1.49.52-.07,1.04-.14,1.56-.21-1.88.25-3.77.24-5.65,0,.52.07,1.04.14,1.56.21-2.07-.28-4.07-.85-6-1.65.47.2.94.4,1.4.59-1.85-.79-3.6-1.81-5.21-3.03.4.31.79.61,1.19.92-1.48-1.15-2.81-2.45-3.96-3.93.31.4.61.79.92,1.19-.98-1.28-1.8-2.66-2.44-4.14.2.47.4.94.59,1.4-.61-1.44-1.02-2.95-1.23-4.5.07.52.14,1.04.21,1.56-.02-.12-.03-.24-.04-.36-.18-1.61-.53-2.97-1.72-4.15-1.02-1.02-2.69-1.79-4.16-1.72-1.52.07-3.1.57-4.16,1.72-.98,1.07-1.9,2.64-1.72,4.15.17,1.51.37,3.03.8,4.49.42,1.42,1.01,2.82,1.66,4.15,1.07,2.2,2.6,4.24,4.27,6.02,3.46,3.7,8.07,6.39,12.9,7.84,4.9,1.48,10.35,1.6,15.28.15,5.15-1.52,9.91-4.53,13.54-8.48,3.7-4.02,6.45-8.86,8.01-14.1,1.62-5.46,1.71-11.11.7-16.68-.95-5.23-3.16-10.36-6.09-14.78-3.27-4.93-7.31-9.05-12.04-12.58-2.39-1.78-5.12-3.38-8.06-4.02-4.05-.89-8.44-.18-11.42,2.92-2.45,2.56-3.59,6.2-3.36,9.7.2,3.18,1.13,6.05,2.58,8.87,2.4,4.68,6.47,8.62,11.02,11.21,4.66,2.67,10.1,4.16,15.47,4.14,5.56-.03,11.11-1.7,15.9-4.49,4.89-2.84,8.95-6.83,12.19-11.44,3.22-4.58,5.36-10.06,6.32-15.56,1.13-6.51.97-12.96-.29-19.44-2.32-11.87-8.74-22.48-16.28-31.75-3.36-4.13-6.99-8.09-11.15-11.43-4.65-3.72-9.81-6.96-15.68-8.34-2.79-.66-5.74-.98-8.61-.73-1.58.14-3,.56-4.16,1.72-1.02,1.02-1.79,2.69-1.72,4.15.07,1.52.57,3.09,1.72,4.15,1.09,1,2.62,1.85,4.16,1.72h0Z"/><path class="cls-3" d="M603.86,111.41c1.11,5.7,5.22,10.61,10.16,13.49,5.14,3,11.23,3.95,17.04,2.72,5.59-1.18,10.86-4.63,14.53-8.96,3.97-4.68,6.7-10.29,7.67-16.37.63-3.92.83-7.82.42-11.76-.41-3.95-1.15-7.84-2.28-11.65-.84-2.82-3.54-4.6-6.45-4.21-1.23.17-2.51.67-3.37,1.62-.99,1.08-1.89,2.64-1.72,4.15,1.18,10.65,3.68,21.07,7.8,30.98,2.14,5.15,4.54,10.16,7.39,14.97,1.3,2.19,2.68,4.34,4.14,6.43,1.57,2.26,3.23,4.52,5.22,6.43,2.23,2.14,4.83,3.89,7.8,4.81,1.46.45,3.07.68,4.6.58,2.09-.14,3.78-.62,5.67-1.47,2.82-1.26,5.1-3.64,6.79-6.17,1.64-2.45,2.64-5.42,3.27-8.28,1.22-5.53,1.83-11.27,2.09-16.92.24-5.29.09-10.59-.45-15.86-1.13-10.96-3.68-21.7-7.96-31.86-.67-1.58-1.34-3.16-2.06-4.72-.58-1.26-2.22-2.34-3.51-2.7-1.41-.39-3.28-.21-4.53.59-1.26.81-2.36,2.01-2.7,3.51-.07.52-.14,1.04-.21,1.56,0,1.06.27,2.05.8,2.97.49,1.06.96,2.13,1.42,3.2-.2-.47-.4-.94-.59-1.4,3.67,8.69,6.15,17.84,7.42,27.19-.07-.52-.14-1.04-.21-1.56,1.24,9.35,1.26,18.83.02,28.18.07-.52.14-1.04.21-1.56-.49,3.59-1,7.28-2.4,10.64.2-.47.4-.94.59-1.4-.49,1.13-1.08,2.21-1.83,3.2.31-.4.61-.79.92-1.19-.61.78-1.29,1.48-2.06,2.1.4-.31.79-.61,1.19-.92-.66.51-1.37.94-2.13,1.28.47-.2.94-.4,1.4-.59-.7.3-1.42.5-2.18.61.52-.07,1.04-.14,1.56-.21-.69.08-1.38.08-2.07,0,.52.07,1.04.14,1.56.21-.81-.11-1.59-.33-2.35-.64.47.2.94.4,1.4.59-1.03-.44-1.98-1.03-2.87-1.71.4.31.79.61,1.19.92-1.62-1.27-2.99-2.79-4.25-4.41.31.4.61.79.92,1.19-5.01-6.55-9.02-13.97-12.23-21.55l.59,1.4c-3.68-8.74-6.22-17.94-7.5-27.33.07.52.14,1.04.21,1.56-.12-.88-.23-1.77-.32-2.65-3.85.52-7.7,1.04-11.55,1.56.83,2.8,1.48,5.66,1.89,8.55-.07-.52-.14-1.04-.21-1.56.49,3.65.58,7.33.09,10.98.07-.52.14-1.04.21-1.56-.37,2.6-1.01,5.15-2.01,7.57l.59-1.4c-.91,2.14-2.07,4.16-3.49,6.01.31-.4.61-.79.92-1.19-1.29,1.66-2.76,3.17-4.42,4.47.4-.31.79-.61,1.19-.92-1.49,1.15-3.1,2.11-4.83,2.85.47-.2.94-.4,1.4-.59-1.54.64-3.14,1.09-4.79,1.31.52-.07,1.04-.14,1.56-.21-1.43.18-2.86.17-4.29-.01.52.07,1.04.14,1.56.21-1.62-.22-3.19-.64-4.7-1.26.47.2.94.4,1.4.59-1.44-.61-2.79-1.38-4.03-2.32.4.31.79.61,1.19.92-1.12-.87-2.12-1.85-2.99-2.97.31.4.61.79.92,1.19-.74-.97-1.35-2.01-1.83-3.13l.59,1.4c-.35-.86-.62-1.73-.79-2.64-.27-1.38-1.52-2.82-2.7-3.51-1.26-.74-3.12-1.05-4.53-.59-1.42.46-2.8,1.34-3.51,2.7-.77,1.46-.91,2.9-.59,4.53h.01Z"/><path class="cls-3" d="M213.18,38.33c-7.53,6.81-14.18,14.5-20.18,22.68-5.75,7.85-10.79,16.2-15.27,24.84-3.88,7.47-7.22,15.19-10.65,22.87-3.31,7.4-6.54,14.88-8.9,22.65-1.13,3.72-2.07,7.51-2.64,11.36-.61,4.12-1.01,8.26-.65,12.42.39,4.53,1.41,8.69,3.25,12.84,1.65,3.73,4.21,7.16,7.17,9.95,5.67,5.34,13.26,9.06,21.22,8.36,3.99-.35,7.58-1.42,11.2-3.14,3.32-1.57,6.31-3.75,9.14-6.09,5.79-4.78,10.6-10.8,14.73-17.04,3.9-5.9,7.15-12.22,9.67-18.83.47-1.24.91-2.5,1.3-3.77-3.78-1.04-7.56-2.08-11.34-3.12-2.09,6.84-4.5,13.57-6.35,20.49-1.08,4.05-2.01,8.16-2.61,12.31-.64,4.39-1.11,8.83-.77,13.27.34,4.49,1.27,8.81,3.35,12.83,2.03,3.92,5.38,7.24,9.26,9.34,4.56,2.47,9.67,3.22,14.73,2.04,4.59-1.07,8.57-3.72,12.17-6.64,6.28-5.1,11.03-11.73,16.24-17.84.52-.62,1.06-1.22,1.6-1.82-3.28-1.91-6.55-3.81-9.82-5.72-1.22,6.76-3.71,13.26-3.95,20.18-.25,7.03,2.52,14.12,7.77,18.88,4.38,3.98,10.07,6.21,16,6.15,5.6-.06,11.29-2,15.77-5.37,3.46-2.61,6.25-5.64,8.88-9.06,2.22-2.9,4.17-5.99,6.11-9.08,1.63-2.61.64-6.59-2.11-8.04-2.89-1.53-6.3-.68-8.04,2.11-1.96,3.13-3.93,6.27-6.19,9.2.31-.4.61-.79.92-1.19-1.92,2.46-4.04,4.78-6.51,6.71.4-.31.79-.61,1.19-.92-1.61,1.23-3.34,2.26-5.21,3.05.47-.2.94-.4,1.4-.59-1.72.72-3.51,1.22-5.36,1.48.52-.07,1.04-.14,1.56-.21-1.66.22-3.33.23-4.99.02.52.07,1.04.14,1.56.21-1.51-.21-2.98-.59-4.39-1.17.47.2.94.4,1.4.59-1.37-.58-2.65-1.33-3.84-2.23.4.31.79.61,1.19.92-1.19-.93-2.24-2-3.17-3.18.31.4.61.79.92,1.19-1.02-1.32-1.88-2.75-2.54-4.28l.59,1.4c-.61-1.47-1.01-3-1.22-4.57.07.52.14,1.04.21,1.56-.27-2.21-.17-4.43.12-6.63-.07.52-.14,1.04-.21,1.56.74-5.28,2.52-10.33,3.47-15.56.24-1.34.25-2.54-.3-3.82-.48-1.13-1.29-2.22-2.41-2.81-2.24-1.18-5.33-1.06-7.12.92-4.77,5.24-8.87,11.07-13.9,16.09-1.49,1.49-3.05,2.9-4.72,4.19.4-.31.79-.61,1.19-.92-1.86,1.42-3.84,2.68-6,3.6.47-.2.94-.4,1.4-.59-1.37.56-2.79.98-4.26,1.18.52-.07,1.04-.14,1.56-.21-1.23.15-2.46.15-3.69,0,.52.07,1.04.14,1.56.21-1.24-.18-2.44-.52-3.59-1,.47.2.94.4,1.4.59-1.44-.62-2.79-1.43-4.03-2.38.4.31.79.61,1.19.92-1.06-.83-2.01-1.78-2.84-2.84.31.4.61.79.92,1.19-.98-1.27-1.78-2.67-2.4-4.15l.59,1.4c-.85-2.05-1.37-4.21-1.67-6.41.07.52.14,1.04.21,1.56-.57-4.32-.32-8.7.25-13.01-.07.52-.14,1.04-.21,1.56,1.3-9.46,4.21-18.61,7.18-27.66.64-1.95,1.28-3.9,1.88-5.86.9-2.94-1.07-6.54-4.11-7.23-3.18-.72-6.27.96-7.23,4.1-.65,2.11-1.42,4.18-2.28,6.22.2-.47.4-.94.59-1.4-3.06,7.2-7.08,14.04-11.85,20.24.31-.4.61-.79.92-1.19-3.29,4.26-6.99,8.25-11.25,11.55.4-.31.79-.61,1.19-.92-2.45,1.89-5.09,3.54-7.95,4.75.47-.2.94-.4,1.4-.59-1.94.81-3.95,1.4-6.03,1.69.52-.07,1.04-.14,1.56-.21-1.77.23-3.55.24-5.33,0,.52.07,1.04.14,1.56.21-1.74-.24-3.42-.72-5.03-1.39.47.2.94.4,1.4.59-1.92-.82-3.7-1.9-5.36-3.16.4.31.79.61,1.19.92-1.96-1.51-3.74-3.25-5.27-5.2.31.4.61.79.92,1.19-1.43-1.85-2.61-3.86-3.52-6.01.2.47.4.94.59,1.4-1.04-2.49-1.71-5.11-2.07-7.78.07.52.14,1.04.21,1.56-.5-3.9-.37-7.84.15-11.74-.07.52-.14,1.04-.21,1.56,1.26-9.21,4.5-18.06,8.1-26.59-.2.47-.4.94-.59,1.4,2.82-6.68,5.79-13.33,8.84-19.91,3.93-8.49,8.33-16.79,13.33-24.7,2.82-4.46,5.83-8.8,9.05-12.97-.31.4-.61.79-.92,1.19,5.1-6.6,10.73-12.79,16.93-18.39,2.29-2.07,2.26-6.24,0-8.31-2.44-2.24-5.87-2.2-8.31,0h0Z"/><path class="cls-3" d="M214.78,109.56c1.51,0,3.09-.66,4.16-1.72,1.02-1.02,1.79-2.69,1.72-4.15-.14-3.18-2.58-5.88-5.88-5.88-1.51,0-3.09.66-4.16,1.72-1.02,1.02-1.79,2.69-1.72,4.15.14,3.18,2.58,5.87,5.88,5.87h0Z"/><path class="cls-3" d="M228.29,306.26c-1.28-2.17-2.41-4.43-3.39-6.75l.59,1.4c-1.97-4.73-3.3-9.7-3.99-14.77.07.52.14,1.04.21,1.56-.69-5.23-.7-10.53,0-15.76-.07.52-.14,1.04-.21,1.56.67-4.92,1.97-9.74,3.89-14.32-.2.47-.4.94-.59,1.4,1.15-2.69,2.62-5.24,4.4-7.57-.31.4-.61.79-.92,1.19,1.43-1.85,3.05-3.54,4.89-4.99-.4.31-.79.61-1.19.92,1.34-1.03,2.78-1.91,4.33-2.57-.47.2-.94.4-1.4.59,1.21-.5,2.46-.86,3.76-1.04-.52.07-1.04.14-1.56.21,1.19-.15,2.37-.15,3.56,0-.52-.07-1.04-.14-1.56-.21,1.22.18,2.4.51,3.54.98-.47-.2-.94-.4-1.4-.59,1.24.54,2.39,1.24,3.47,2.07-.4-.31-.79-.61-1.19-.92,1.59,1.24,2.96,2.72,4.19,4.31-.31-.4-.61-.79-.92-1.19,3.35,4.38,5.73,9.52,7.87,14.57-.2-.47-.4-.94-.59-1.4,3.82,9.08,6.42,18.63,7.75,28.39-.07-.52-.14-1.04-.21-1.56,1.02,7.61,1.26,15.3.69,22.96-.11,1.43.73,3.17,1.72,4.15,1.02,1.02,2.69,1.79,4.16,1.72,1.52-.07,3.1-.57,4.16-1.72,1.11-1.21,1.56-2.52,1.72-4.15.23-2.25.49-4.49.79-6.73-.07.52-.14,1.04-.21,1.56,1.85-13.69,5.1-27.19,9.72-40.21,1.31-3.69,2.72-7.33,4.24-10.93l-.59,1.4c1.76-4.16,3.56-8.39,6.33-11.99-.31.4-.61.79-.92,1.19,1.04-1.32,2.19-2.53,3.51-3.56-.4.31-.79.61-1.19.92,1.11-.84,2.3-1.54,3.59-2.08l-1.4.59c1.14-.47,2.32-.8,3.54-.97-.52.07-1.04.14-1.56.21.99-.12,1.97-.13,2.97-.01-.52-.07-1.04-.14-1.56-.21.91.13,1.79.36,2.64.72-.47-.2-.94-.4-1.4-.59.83.36,1.6.81,2.32,1.36-.4-.31-.79-.61-1.19-.92.79.62,1.49,1.34,2.1,2.13-.31-.4-.61-.79-.92-1.19.85,1.12,1.51,2.35,2.06,3.63-.2-.47-.4-.94-.59-1.4,1.01,2.43,1.57,5.01,1.93,7.61-.07-.52-.14-1.04-.21-1.56.57,4.3.7,8.69.74,13.02.05,4.74-.12,9.48-.5,14.21-.22,2.67-.51,5.34-.86,8,.07-.52.14-1.04.21-1.56-.83,6.12-2.01,12.18-3.55,18.16-.39,1.49-.19,3.19.59,4.53.71,1.22,2.11,2.38,3.51,2.7,3.06.7,6.41-.92,7.23-4.1,3.1-12.01,4.82-24.44,5.1-36.84.13-5.7.05-11.49-.6-17.17-.29-2.6-.66-5.2-1.4-7.72-.7-2.38-1.67-4.82-3.09-6.87-1.62-2.35-3.64-4.49-6.21-5.83-2.85-1.48-6.11-2.25-9.32-1.86-3.28.4-6.43,1.37-9.2,3.22-2.92,1.95-5.18,4.39-7.2,7.24-1.49,2.1-2.68,4.4-3.75,6.74-1.36,2.95-2.61,5.96-3.82,8.97-2.17,5.4-4.1,10.9-5.79,16.47-3.51,11.58-5.89,23.43-7.35,35.44-.17,1.42-.33,2.85-.47,4.27h11.76c.92-12.35-.26-24.91-3.29-36.91-1.57-6.21-3.71-12.21-6.24-18.09-2.35-5.47-5.05-10.72-8.75-15.4-1.78-2.26-3.94-4.22-6.36-5.77-2.83-1.82-6.01-2.74-9.34-3.04-6.22-.56-12.17,2.55-16.64,6.61-4.48,4.07-7.54,9.34-9.76,14.9-2.2,5.5-3.41,11.32-3.97,17.21-1.12,11.76,1.26,23.78,6.48,34.35.61,1.23,1.27,2.44,1.97,3.62.75,1.27,2.08,2.31,3.51,2.7,1.41.39,3.28.21,4.53-.59,2.67-1.72,3.78-5.2,2.11-8.04h-.01Z"/><path class="cls-3" d="M344.31,309.16c1.51,0,3.09-.66,4.16-1.72,1.07-1.07,1.79-2.69,1.72-4.15-.14-3.18-2.58-5.88-5.88-5.88-1.51,0-3.09.66-4.16,1.72-1.02,1.02-1.79,2.69-1.72,4.15.14,3.18,2.58,5.87,5.88,5.87h0Z"/><path class="cls-3" d="M250.59,354.5c8.27,1.17,16.59,1.86,24.95,1.85,8.31,0,16.57-.69,24.79-1.84,16.1-2.25,31.72-6.88,46.55-13.49,8.14-3.62,15.97-7.92,23.4-12.83-2.88-1.17-5.76-2.34-8.63-3.51.06.33.11.67.15,1.01-.07-.52-.14-1.04-.21-1.56.27,2.22.25,4.44-.03,6.66.07-.52.14-1.04.21-1.56-.28,1.99-.74,3.94-1.38,5.84-.14.43-.3.85-.46,1.27-.08.21-.17.42-.25.63-.34.91.18-.38.2-.46-.34.96-.85,1.89-1.32,2.79-.95,1.85-2.03,3.64-3.19,5.37-.52.77-1.05,1.54-1.6,2.29-.31.42-.63.84-.94,1.25-.45.6.75-.95.28-.37-.22.27-.43.54-.65.81-4.79,5.94-10.23,11.39-16.01,16.36-1.44,1.24-2.9,2.44-4.39,3.62-.34.27-.69.53-1.03.8,1.5-1.21.09-.08-.23.17-.78.59-1.56,1.17-2.36,1.74-3.12,2.25-6.34,4.37-9.64,6.35-3.25,1.95-6.59,3.78-9.99,5.46-1.7.84-3.42,1.65-5.15,2.42-.4.18-.79.35-1.19.52-.25.11-.5.22-.75.32.06-.02,1.39-.58.5-.21-.9.37-1.8.74-2.71,1.1-7.97,3.13-16.24,5.5-24.66,7.06-2.26.42-3.93,2.77-4.21,4.88-.28,2.1.69,4.93,2.81,5.85,10.51,4.6,21.4,7.52,32.8,8.85,10.93,1.27,21.99.78,32.81-1.18,19.66-3.57,38.04-12.93,52.98-26.14,8.13-7.19,15.2-15.67,20.86-24.92l-10.95-2.97c.76,5.73.71,11.53-.03,17.26.07-.52.14-1.04.21-1.56-.77,5.75-2.23,11.38-4.28,16.81-.25.65-.5,1.3-.76,1.95-.15.37-.72,1.43.05-.11-.16.31-.28.64-.42.96-.57,1.28-1.16,2.54-1.79,3.79-1.3,2.6-2.74,5.12-4.3,7.58-1.52,2.39-3.24,4.61-4.85,6.93,1.08-1.56-.07.09-.33.41-.42.53-.85,1.05-1.28,1.57-.94,1.13-1.9,2.23-2.88,3.32-3.71,4.11-7.72,7.93-11.94,11.51-1.21,1.02-2.44,2.03-3.68,3.01-.27.21-.53.42-.8.63-.48.38-.36.28.38-.29-.18.14-.36.28-.54.41-.63.48-1.27.95-1.9,1.43-2.55,1.88-5.16,3.68-7.81,5.42-2.11,1.38-3.53,4.09-2.7,6.63.85,2.61,2.98,4.09,5.67,4.31,14.61,1.18,29.57-.63,43.55-5,14.47-4.52,27.87-11.71,39.73-21.11,6.29-4.99,12.02-10.66,17.06-16.9,1.01-1.25,1.72-2.48,1.72-4.15,0-1.44-.64-3.16-1.72-4.15-2.14-1.96-6.25-2.56-8.31,0-3.47,4.3-7.26,8.33-11.35,12.05-2.04,1.86-4.15,3.64-6.33,5.34-1,.78.84-.64.08-.06-.25.19-.5.38-.75.56-.58.44-1.17.87-1.76,1.3-1.1.79-2.21,1.56-3.34,2.31-4.6,3.06-9.42,5.79-14.41,8.16-1.27.6-2.55,1.18-3.85,1.74-.13.06-.29.16-.43.19-.08.02,1.27-.53.68-.29-.29.12-.58.24-.87.36-.68.28-1.35.55-2.03.81-2.58,1-5.19,1.9-7.83,2.71-5.98,1.83-12.11,3.17-18.31,4.01.52-.07,1.04-.14,1.56-.21-7.65,1.01-15.39,1.23-23.08.61.99,3.65,1.98,7.3,2.97,10.95,11.73-7.68,22.81-16.67,31.76-27.52,9.37-11.34,16.61-24.53,19.74-38.99,1.75-8.07,2.34-16.43,1.25-24.63-.18-1.35-.4-2.44-1.26-3.56-.75-.97-1.82-1.83-3.05-2.11-2.59-.59-5.23.4-6.64,2.7-1.53,2.5-3.16,4.94-4.9,7.3-.4.55-.82,1.09-1.23,1.63-.44.58.79-1.01.34-.44-.1.12-.19.25-.29.37-.26.33-.52.66-.79.98-.92,1.14-1.87,2.26-2.84,3.36-3.84,4.37-8.05,8.41-12.56,12.09-.53.43-1.06.86-1.6,1.28-.17.13-.33.26-.5.39-.07.05,1.07-.82.57-.44-.34.25-.67.51-1.01.76-1.18.88-2.37,1.73-3.58,2.56-2.42,1.65-4.92,3.21-7.47,4.66-2.51,1.42-5.07,2.74-7.69,3.95-.67.31-1.33.61-2.01.9-.29.13-.58.25-.87.37,1.73-.77.37-.16-.05.01-1.36.55-2.73,1.08-4.11,1.58-6.85,2.46-13.95,4.16-21.16,5.13.52-.07,1.04-.14,1.56-.21-9.38,1.23-18.9,1.21-28.28-.04.52.07,1.04.14,1.56.21-4.74-.65-9.44-1.6-14.05-2.88-2.28-.63-4.53-1.34-6.76-2.12-1.11-.39-2.22-.8-3.32-1.24-.55-.22-1.1-.44-1.65-.66-.16-.07-.33-.14-.49-.2.25.1.5.21.75.32-.33-.13-.65-.28-.98-.42-.47,3.58-.94,7.16-1.4,10.74,16.72-3.11,32.93-9.43,47.45-18.27,14.86-9.05,28.72-20.91,38.88-35.11,3.08-4.29,5.62-8.97,7.33-13.98,1.86-5.45,2.25-11.13,1.31-16.79-.61-3.66-5.7-5.45-8.63-3.51-8.1,5.35-16.67,9.97-25.6,13.79-.21.09-.42.18-.63.27,1.63-.73.49-.21.14-.06-.53.22-1.06.43-1.59.65-1.16.47-2.34.92-3.51,1.36-2.24.84-4.51,1.64-6.79,2.38-4.56,1.49-9.18,2.79-13.85,3.89-5.34,1.25-10.74,2.25-16.17,2.98.52-.07,1.04-.14,1.56-.21-11.43,1.53-23.01,1.92-34.52,1.09-3.3-.24-6.6-.58-9.88-1.02.52.07,1.04.14,1.56.21-.45-.06-.9-.12-1.36-.19-1.63-.23-3.04-.28-4.53.59-1.22.71-2.38,2.11-2.7,3.51-.34,1.5-.27,3.19.59,4.53.77,1.19,2.04,2.49,3.51,2.7h0Z"/><path class="cls-3" d="M451.91,479.79c-1.43-4.38-2.66-8.82-3.3-13.39.07.52.14,1.04.21,1.56-.45-3.32-.56-6.67-.12-10-.07.52-.14,1.04-.21,1.56.31-2.21.84-4.39,1.7-6.46-.2.47-.4.94-.59,1.4.68-1.58,1.56-3.06,2.6-4.43-.31.4-.61.79-.92,1.19,1.14-1.47,2.46-2.78,3.93-3.93-.4.31-.79.61-1.19.92,1.35-1.03,2.81-1.91,4.38-2.59-.47.2-.94.4-1.4.59,1.41-.6,2.87-1.02,4.39-1.22-.52.07-1.04.14-1.56.21,1.19-.15,2.38-.16,3.57-.02-.52-.07-1.04-.14-1.56-.21,1.14.15,2.25.45,3.32.89-.47-.2-.94-.4-1.4-.59,1.09.47,2.11,1.07,3.06,1.79-.4-.31-.79-.61-1.19-.92,1.27.98,2.37,2.14,3.35,3.41-.31-.4-.61-.79-.92-1.19,2.73,3.6,4.41,7.81,6.36,11.85.99,2.05,2.12,4.03,3.47,5.87.9,1.22,1.83,2.45,2.88,3.55,1.06,1.11,2.25,2.05,3.48,2.97,4.84,3.59,11.28,4.14,16.76,1.83,5.29-2.23,9.4-6.7,12.14-11.67,2.86-5.17,4.55-11,8.14-15.75-.31.4-.61.79-.92,1.19,1.01-1.3,2.16-2.46,3.46-3.46-.4.31-.79.61-1.19.92,1.13-.86,2.34-1.58,3.64-2.14-.47.2-.94.4-1.4.59,1.02-.42,2.06-.72,3.14-.88-.52.07-1.04.14-1.56.21.93-.12,1.86-.13,2.8,0-.52-.07-1.04-.14-1.56-.21.81.12,1.58.33,2.33.64-.47-.2-.94-.4-1.4-.59.81.35,1.55.78,2.25,1.31-.4-.31-.79-.61-1.19-.92.86.67,1.61,1.45,2.28,2.31-.31-.4-.61-.79-.92-1.19,1.98,2.58,3.23,5.61,4.66,8.51,1.61,3.28,3.59,6.55,6.43,8.91,3.12,2.6,6.77,4.5,10.77,5.3,4.18.83,8.34.78,12.5-.15,8.18-1.82,14.96-7.54,19.05-14.74,4.12-7.26,5.81-15.93,5.25-24.21-.65-9.67-3.69-18.8-7.4-27.68-.6-1.43-1.2-2.85-1.81-4.27-.54-1.26-2.26-2.36-3.51-2.7-1.41-.39-3.28-.21-4.53.59-1.26.81-2.36,2.01-2.7,3.51-.07.52-.14,1.04-.21,1.56,0,1.06.27,2.05.8,2.97.27.64.54,1.27.81,1.91l-.59-1.4c3.22,7.64,6.14,15.49,7.26,23.74-.07-.52-.14-1.04-.21-1.56.51,3.92.59,7.87.07,11.79.07-.52.14-1.04.21-1.56-.45,3.28-1.29,6.49-2.58,9.54.2-.47.4-.94.59-1.4-1.01,2.36-2.28,4.59-3.84,6.62.31-.4.61-.79.92-1.19-1.36,1.75-2.91,3.33-4.66,4.69.4-.31.79-.61,1.19-.92-1.44,1.1-2.99,2-4.66,2.71.47-.2.94-.4,1.4-.59-1.9.8-3.88,1.34-5.92,1.62.52-.07,1.04-.14,1.56-.21-2.02.27-4.07.28-6.1.02.52.07,1.04.14,1.56.21-1.81-.25-3.57-.71-5.25-1.42.47.2.94.4,1.4.59-1.38-.6-2.67-1.34-3.86-2.26.4.31.79.61,1.19.92-1.05-.83-1.99-1.77-2.82-2.82.31.4.61.79.92,1.19-2.28-2.97-3.62-6.49-5.33-9.79-1.96-3.79-4.71-7.63-8.68-9.51-2.58-1.23-5.43-1.97-8.31-1.65-2.99.34-5.77,1.19-8.37,2.76-4.62,2.8-7.91,7.09-10.3,11.87-2.37,4.73-4.05,9.87-7.32,14.1.31-.4.61-.79.92-1.19-1.11,1.41-2.36,2.7-3.78,3.8.4-.31.79-.61,1.19-.92-1,.76-2.07,1.4-3.22,1.9.47-.2.94-.4,1.4-.59-.95.4-1.93.68-2.94.84.52-.07,1.04-.14,1.56-.21-1.02.14-2.04.14-3.06,0,.52.07,1.04.14,1.56.21-.96-.15-1.88-.41-2.78-.78.47.2.94.4,1.4.59-1.07-.46-2.06-1.06-2.98-1.77.4.31.79.61,1.19.92-1.38-1.08-2.58-2.35-3.65-3.73.31.4.61.79.92,1.19-3.52-4.61-5.27-10.17-8.16-15.14-3.31-5.68-8.49-10.89-15.28-11.85-1.75-.25-3.39-.41-5.14-.19-1.72.21-3.38.47-5.01,1.06-3.36,1.22-6.26,2.97-8.95,5.32-2.27,1.99-4.26,4.49-5.68,7.15-1.92,3.61-2.82,7.43-3.3,11.46-.51,4.28-.06,8.61.66,12.83.68,3.95,1.78,7.82,3.03,11.63.47,1.45,1.36,2.73,2.7,3.51,1.26.74,3.12,1.05,4.53.59,1.42-.46,2.8-1.34,3.51-2.7.72-1.36,1.09-3.02.59-4.53h0Z"/><path class="cls-3" d="M481.98,521.51c-5.71,5.26-11.41,10.72-15.5,17.38-2,3.26-3.69,6.93-4.49,10.69-.82,3.83-.8,7.5-.22,11.35,1.02,6.77,4.94,13.45,10.92,16.97,3.37,1.99,7.52,2.99,11.42,2.67,4.31-.35,8.33-1.78,12.04-3.99,7.6-4.52,13.31-11.42,20.25-16.79-.4.31-.79.61-1.19.92,3-2.3,6.2-4.34,9.68-5.84-.47.2-.94.4-1.4.59,2.38-1,4.84-1.73,7.4-2.08-.52.07-1.04.14-1.56.21,2.21-.28,4.43-.29,6.64,0-.52-.07-1.04-.14-1.56-.21,1.9.26,3.75.75,5.52,1.49-.47-.2-.94-.4-1.4-.59,1.43.62,2.77,1.39,4.01,2.34-.4-.31-.79-.61-1.19-.92,1.11.87,2.09,1.86,2.96,2.98-.31-.4-.61-.79-.92-1.19.84,1.12,1.54,2.32,2.09,3.6-.2-.47-.4-.94-.59-1.4.63,1.52,1.05,3.1,1.27,4.73-.07-.52-.14-1.04-.21-1.56.27,2.06.23,4.13-.04,6.18.07-.52.14-1.04.21-1.56-.35,2.44-1.02,4.82-1.98,7.1.2-.47.4-.94.59-1.4-.97,2.28-2.22,4.43-3.72,6.4.31-.4.61-.79.92-1.19-2.09,2.69-4.61,5.02-7.3,7.1.4-.31.79-.61,1.19-.92-6.31,4.84-13.53,8.23-20.51,11.97-6.98,3.73-13.95,8.11-19.28,14.04-3.4,3.78-6,7.99-7.69,12.79-.48,1.38-.13,3.3.59,4.53.71,1.22,2.11,2.38,3.51,2.7,1.51.34,3.19.27,4.53-.59,1.34-.86,2.17-2.01,2.7-3.51.19-.54.39-1.07.61-1.6l-.59,1.4c1-2.35,2.31-4.53,3.86-6.55-.31.4-.61.79-.92,1.19,2.25-2.89,4.93-5.4,7.82-7.65-.4.31-.79.61-1.19.92,7.62-5.86,16.51-9.58,24.78-14.38,4.52-2.63,8.9-5.64,12.69-9.26,1.96-1.87,3.71-3.95,5.25-6.17,1.48-2.14,2.58-4.46,3.57-6.86.81-1.97,1.43-4.03,1.78-6.13.42-2.47.69-4.97.48-7.48-.21-2.47-.62-4.94-1.56-7.25-1.13-2.77-2.53-5.17-4.57-7.4-3.46-3.77-8.49-6.29-13.52-7.1-5.38-.87-10.86-.54-16.02,1.31-5.6,2.01-10.44,5.14-15.05,8.85-3.83,3.07-7.24,6.61-10.96,9.81-.92.8-1.87,1.58-2.83,2.32.4-.31.79-.61,1.19-.92-2.39,1.84-4.92,3.51-7.71,4.69.47-.2.94-.4,1.4-.59-1.54.64-3.14,1.11-4.8,1.34.52-.07,1.04-.14,1.56-.21-1.31.17-2.62.18-3.94.02.52.07,1.04.14,1.56.21-1.26-.17-2.49-.48-3.67-.97.47.2.94.4,1.4.59-1.09-.46-2.11-1.06-3.06-1.77.4.31.79.61,1.19.92-1.07-.83-2.02-1.79-2.86-2.86.31.4.61.79.92,1.19-.99-1.29-1.79-2.69-2.43-4.18.2.47.4.94.59,1.4-.79-1.87-1.31-3.83-1.59-5.84.07.52.14,1.04.21,1.56-.27-2.09-.28-4.2,0-6.29-.07.52-.14,1.04-.21,1.56.31-2.18.96-4.27,1.81-6.3l-.59,1.4c1.3-3.03,3.05-5.83,5.05-8.44-.31.4-.61.79-.92,1.19,3.5-4.52,7.69-8.45,11.89-12.32,2.27-2.09,2.27-6.22,0-8.31-2.42-2.23-5.9-2.23-8.31,0h0Z"/><path class="cls-3" d="M313.35,560.87c-5.3-18.43-16.33-35.4-31.32-47.41-8.42-6.75-18.95-12.9-30.19-11.56-3.07.37-5.77,1.11-8.6,2.36-2.3,1.01-4.31,2.4-6.27,3.94-3.6,2.83-6.6,6.57-8.77,10.6-5.27,9.75-5.95,21.17-5.15,32.02.43,5.88,1.19,11.74,2.22,17.54.9,5.12,1.91,10.33,3.51,15.28,1.42,4.39,3.58,9.13,7.24,12.11,2.48,2.02,5.1,3.2,8.3,3.53,2.66.28,5.37-.43,7.71-1.69,4.43-2.41,7.23-7.16,8.69-11.82,1.43-4.57,1.56-9.7.98-14.42-.7-5.68-2.27-11.01-4.85-16.13-2.26-4.5-5.36-8.66-8.95-12.19-7.03-6.92-16.19-11.81-25.81-13.95-10.75-2.39-22.63-1.68-31.68,5.16-8.48,6.41-13.64,15.68-17.61,25.35-4.06,9.9-6.3,20.54-6.86,31.21-.27,5.08-.12,10.18.48,15.24.7,5.94,1.96,12.08,6.42,16.44,4.66,4.56,11.76,6.13,17.54,2.7,4.99-2.96,7.98-8.61,9.05-14.16,2.02-10.45-.85-21.8-6.78-30.56-2.83-4.18-6.22-7.74-10.33-10.66-4.14-2.94-8.92-4.63-13.93-5.27-10.1-1.3-19.72,3.41-27.21,9.81-7.47,6.38-13.11,14.99-17.23,23.83-4.54,9.74-7.34,19.99-8.43,30.68-.49,4.79-.56,9.61-.23,14.42.11,1.57.58,3.02,1.72,4.15,1.02,1.02,2.69,1.79,4.16,1.72,3.01-.14,6.1-2.59,5.88-5.88-.39-5.77-.19-11.55.58-17.29-.07.52-.14,1.04-.21,1.56,1.04-7.53,3.05-14.9,5.99-21.91-.2.47-.4.94-.59,1.4,2.65-6.26,5.99-12.29,10.14-17.67-.31.4-.61.79-.92,1.19,2.71-3.48,5.79-6.67,9.29-9.38-.4.31-.79.61-1.19.92,2.43-1.85,5.04-3.45,7.85-4.66-.47.2-.94.4-1.4.59,2.23-.94,4.55-1.61,6.95-1.95-.52.07-1.04.14-1.56.21,2.14-.28,4.29-.28,6.44,0-.52-.07-1.04-.14-1.56-.21,2.03.29,3.99.84,5.88,1.63-.47-.2-.94-.4-1.4-.59,2.12.91,4.1,2.09,5.94,3.48-.4-.31-.79-.61-1.19-.92,2.29,1.78,4.31,3.85,6.08,6.14-.31-.4-.61-.79-.92-1.19,2,2.63,3.64,5.49,4.93,8.52-.2-.47-.4-.94-.59-1.4,1.33,3.2,2.26,6.56,2.73,9.99-.07-.52-.14-1.04-.21-1.56.34,2.66.38,5.33.02,7.99.07-.52.14-1.04.21-1.56-.28,1.94-.76,3.83-1.5,5.65.2-.47.4-.94.59-1.4-.55,1.28-1.23,2.49-2.07,3.6.31-.4.61-.79.92-1.19-.63.79-1.32,1.49-2.11,2.12.4-.31.79-.61,1.19-.92-.58.43-1.17.78-1.82,1.08.47-.2.94-.4,1.4-.59-.67.28-1.34.47-2.05.57.52-.07,1.04-.14,1.56-.21-.66.07-1.3.07-1.96,0,.52.07,1.04.14,1.56.21-.75-.11-1.46-.31-2.16-.6.47.2.94.4,1.4.59-.79-.35-1.52-.78-2.21-1.29.4.31.79.61,1.19.92-.84-.66-1.58-1.4-2.23-2.24.31.4.61.79.92,1.19-.68-.92-1.22-1.9-1.68-2.94l.59,1.4c-.95-2.27-1.43-4.67-1.76-7.1.07.52.14,1.04.21,1.56-1.01-7.78-.95-15.68.08-23.46-.07.52-.14,1.04-.21,1.56,1.09-8.01,3.22-15.85,6.36-23.3-.2.47-.4.94-.59,1.4,2.15-5.04,4.69-9.95,8.02-14.31-.31.4-.61.79-.92,1.19,1.9-2.45,4.04-4.7,6.5-6.6-.4.31-.79.61-1.19.92,1.8-1.37,3.74-2.52,5.82-3.41-.47.2-.94.4-1.4.59,2.3-.96,4.7-1.58,7.17-1.93-.52.07-1.04.14-1.56.21,3.36-.44,6.74-.38,10.1.06-.52-.07-1.04-.14-1.56-.21,4.31.59,8.52,1.75,12.54,3.43-.47-.2-.94-.4-1.4-.59,3.83,1.62,7.43,3.71,10.73,6.24-.4-.31-.79-.61-1.19-.92,2.9,2.26,5.51,4.84,7.77,7.73-.31-.4-.61-.79-.92-1.19,2.2,2.86,4.01,5.97,5.42,9.28l-.59-1.4c1.39,3.32,2.35,6.78,2.84,10.34-.07-.52-.14-1.04-.21-1.56.42,3.23.46,6.5.04,9.73.07-.52.14-1.04.21-1.56-.26,1.84-.75,3.63-1.48,5.35.2-.47.4-.94.59-1.4-.53,1.23-1.18,2.39-1.98,3.46.31-.4.61-.79.92-1.19-.63.82-1.34,1.55-2.15,2.19.4-.31.79-.61,1.19-.92-.62.46-1.26.84-1.97,1.14.47-.2.94-.4,1.4-.59-.58.22-1.16.38-1.77.48.52-.07,1.04-.14,1.56-.21-.72.09-1.43.1-2.15.02.52.07,1.04.14,1.56.21-.69-.1-1.35-.27-2-.53.47.2.94.4,1.4.59-.7-.3-1.35-.68-1.96-1.14.4.31.79.61,1.19.92-.88-.69-1.64-1.48-2.32-2.36.31.4.61.79.92,1.19-1.07-1.43-1.91-3-2.61-4.64l.59,1.4c-1.5-3.59-2.33-7.45-3.16-11.23-.98-4.45-1.77-8.95-2.38-13.47.07.52.14,1.04.21,1.56-1.08-8.17-1.81-16.56-.75-24.77-.07.52-.14,1.04-.21,1.56.5-3.7,1.38-7.33,2.82-10.78-.2.47-.4.94-.59,1.4,1.09-2.54,2.48-4.92,4.16-7.11-.31.4-.61.79-.92,1.19,1.47-1.87,3.12-3.56,5-5.02-.4.31-.79.61-1.19.92,1.65-1.26,3.42-2.32,5.33-3.13-.47.2-.94.4-1.4.59,1.74-.71,3.53-1.19,5.39-1.45-.52.07-1.04.14-1.56.21,1.97-.24,3.95-.22,5.92.03-.52-.07-1.04-.14-1.56-.21,2.72.38,5.35,1.16,7.88,2.22-.47-.2-.94-.4-1.4-.59,3.97,1.7,7.62,4.02,11.04,6.65-.4-.31-.79-.61-1.19-.92,5.92,4.59,11.22,9.92,15.81,15.83-.31-.4-.61-.79-.92-1.19,4.75,6.16,8.69,12.9,11.72,20.07-.2-.47-.4-.94-.59-1.4,1.35,3.22,2.51,6.51,3.47,9.86.85,2.95,4.19,5.09,7.23,4.1,3-.97,5.02-4.06,4.11-7.23h0Z"/><path class="cls-3" d="M491.51,425.77c1.51,0,3.09-.66,4.16-1.72,1.02-1.02,1.79-2.69,1.72-4.15-.14-3.18-2.58-5.87-5.88-5.87-1.51,0-3.09.66-4.16,1.72-1.02,1.02-1.79,2.69-1.72,4.15.14,3.18,2.58,5.88,5.88,5.88h0Z"/><path class="cls-3" d="M473.64,506.27c1.51,0,3.09-.66,4.16-1.72,1.02-1.02,1.79-2.69,1.72-4.15-.14-3.18-2.58-5.87-5.88-5.87-1.51,0-3.09.66-4.16,1.72-1.07,1.07-1.79,2.69-1.72,4.15.14,3.18,2.58,5.88,5.88,5.88h0Z"/><path class="cls-3" d="M313.35-44.29c-5.3-18.43-16.33-35.4-31.32-47.41-8.42-6.75-18.95-12.9-30.19-11.56-3.07.37-5.77,1.11-8.6,2.36-2.3,1.01-4.31,2.4-6.27,3.94-3.6,2.83-6.6,6.57-8.77,10.6-5.27,9.75-5.95,21.17-5.15,32.02.43,5.88,1.19,11.74,2.22,17.54.9,5.12,1.91,10.33,3.51,15.28,1.42,4.39,3.58,9.13,7.24,12.11,2.48,2.02,5.1,3.2,8.3,3.53,2.66.28,5.37-.43,7.71-1.69,4.43-2.41,7.23-7.16,8.69-11.82,1.43-4.57,1.56-9.7.98-14.42-.7-5.68-2.27-11.01-4.85-16.13-2.26-4.5-5.36-8.66-8.95-12.19-7.03-6.92-16.19-11.81-25.81-13.95-10.75-2.39-22.63-1.68-31.68,5.16-8.48,6.41-13.64,15.68-17.61,25.35-4.06,9.9-6.3,20.54-6.86,31.21-.27,5.08-.12,10.18.48,15.24.7,5.94,1.96,12.08,6.42,16.44,4.66,4.56,11.76,6.13,17.54,2.7,4.99-2.96,7.98-8.61,9.05-14.16,2.02-10.45-.85-21.8-6.78-30.56-2.83-4.18-6.22-7.74-10.33-10.66-4.14-2.94-8.92-4.63-13.93-5.27-10.1-1.3-19.72,3.41-27.21,9.81-7.47,6.38-13.11,14.99-17.23,23.83-4.54,9.74-7.34,19.99-8.43,30.68-.49,4.79-.56,9.61-.23,14.42.11,1.57.58,3.02,1.72,4.15,1.02,1.02,2.69,1.79,4.16,1.72,3.01-.14,6.1-2.59,5.88-5.88-.39-5.77-.19-11.55.58-17.29-.07.52-.14,1.04-.21,1.56,1.04-7.53,3.05-14.9,5.99-21.91-.2.47-.4.94-.59,1.4,2.65-6.26,5.99-12.29,10.14-17.67-.31.4-.61.79-.92,1.19,2.71-3.48,5.79-6.67,9.29-9.38-.4.31-.79.61-1.19.92,2.43-1.85,5.04-3.45,7.85-4.66-.47.2-.94.4-1.4.59,2.23-.94,4.55-1.61,6.95-1.95-.52.07-1.04.14-1.56.21,2.14-.28,4.29-.28,6.44,0-.52-.07-1.04-.14-1.56-.21,2.03.29,3.99.84,5.88,1.63-.47-.2-.94-.4-1.4-.59,2.12.91,4.1,2.09,5.94,3.48-.4-.31-.79-.61-1.19-.92,2.29,1.78,4.31,3.85,6.08,6.14-.31-.4-.61-.79-.92-1.19,2,2.63,3.64,5.49,4.93,8.52-.2-.47-.4-.94-.59-1.4,1.33,3.2,2.26,6.56,2.73,9.99-.07-.52-.14-1.04-.21-1.56.34,2.66.38,5.33.02,7.99.07-.52.14-1.04.21-1.56-.28,1.94-.76,3.83-1.5,5.65.2-.47.4-.94.59-1.4-.55,1.28-1.23,2.49-2.07,3.6.31-.4.61-.79.92-1.19-.63.79-1.32,1.49-2.11,2.12.4-.31.79-.61,1.19-.92-.58.43-1.17.78-1.82,1.08.47-.2.94-.4,1.4-.59-.67.28-1.34.47-2.05.57.52-.07,1.04-.14,1.56-.21-.66.07-1.3.07-1.96,0,.52.07,1.04.14,1.56.21-.75-.11-1.46-.31-2.16-.6.47.2.94.4,1.4.59-.79-.35-1.52-.78-2.21-1.29.4.31.79.61,1.19.92-.84-.66-1.58-1.4-2.23-2.24.31.4.61.79.92,1.19-.68-.92-1.22-1.9-1.68-2.94l.59,1.4c-.95-2.27-1.43-4.67-1.76-7.1.07.52.14,1.04.21,1.56-1.01-7.78-.95-15.68.08-23.46-.07.52-.14,1.04-.21,1.56,1.09-8.01,3.22-15.85,6.36-23.3-.2.47-.4.94-.59,1.4,2.15-5.04,4.69-9.95,8.02-14.31-.31.4-.61.79-.92,1.19,1.9-2.45,4.04-4.7,6.5-6.6-.4.31-.79.61-1.19.92,1.8-1.37,3.74-2.52,5.82-3.41-.47.2-.94.4-1.4.59,2.3-.96,4.7-1.58,7.17-1.93-.52.07-1.04.14-1.56.21,3.36-.44,6.74-.38,10.1.06-.52-.07-1.04-.14-1.56-.21,4.31.59,8.52,1.75,12.54,3.43-.47-.2-.94-.4-1.4-.59,3.83,1.62,7.43,3.71,10.73,6.24-.4-.31-.79-.61-1.19-.92,2.9,2.26,5.51,4.84,7.77,7.73-.31-.4-.61-.79-.92-1.19,2.2,2.86,4.01,5.97,5.42,9.28l-.59-1.4c1.39,3.32,2.35,6.78,2.84,10.34-.07-.52-.14-1.04-.21-1.56.42,3.23.46,6.5.04,9.73.07-.52.14-1.04.21-1.56-.26,1.84-.75,3.63-1.48,5.35.2-.47.4-.94.59-1.4-.53,1.23-1.18,2.39-1.98,3.46.31-.4.61-.79.92-1.19-.63.82-1.34,1.55-2.15,2.19.4-.31.79-.61,1.19-.92-.62.46-1.26.84-1.97,1.14.47-.2.94-.4,1.4-.59-.58.22-1.16.38-1.77.48.52-.07,1.04-.14,1.56-.21-.72.09-1.43.1-2.15.02.52.07,1.04.14,1.56.21-.69-.1-1.35-.27-2-.53.47.2.94.4,1.4.59-.7-.3-1.35-.68-1.96-1.14.4.31.79.61,1.19.92-.88-.69-1.64-1.48-2.32-2.36.31.4.61.79.92,1.19-1.07-1.43-1.91-3-2.61-4.64.2.47.4.94.59,1.4-1.5-3.59-2.33-7.45-3.16-11.23-.98-4.45-1.77-8.95-2.38-13.47.07.52.14,1.04.21,1.56-1.08-8.17-1.81-16.56-.75-24.77-.07.52-.14,1.04-.21,1.56.5-3.7,1.38-7.33,2.82-10.78-.2.47-.4.94-.59,1.4,1.09-2.54,2.48-4.92,4.16-7.11-.31.4-.61.79-.92,1.19,1.47-1.87,3.12-3.56,5-5.02-.4.31-.79.61-1.19.92,1.65-1.26,3.42-2.32,5.33-3.13-.47.2-.94.4-1.4.59,1.74-.71,3.53-1.19,5.39-1.45-.52.07-1.04.14-1.56.21,1.97-.24,3.95-.22,5.92.03-.52-.07-1.04-.14-1.56-.21,2.72.38,5.35,1.16,7.88,2.22-.47-.2-.94-.4-1.4-.59,3.97,1.7,7.62,4.02,11.04,6.65-.4-.31-.79-.61-1.19-.92,5.92,4.59,11.22,9.92,15.81,15.83-.31-.4-.61-.79-.92-1.19,4.75,6.16,8.69,12.9,11.72,20.07-.2-.47-.4-.94-.59-1.4,1.35,3.22,2.51,6.51,3.47,9.86.85,2.95,4.19,5.09,7.23,4.1,3-.97,5.02-4.06,4.11-7.23h0Z"/><path class="cls-3" d="M157.06,46.07c1.51,0,3.09-.66,4.16-1.72,1.02-1.02,1.79-2.69,1.72-4.15-.14-3.18-2.58-5.88-5.88-5.88-1.51,0-3.09.66-4.16,1.72-1.07,1.07-1.79,2.69-1.72,4.15.14,3.18,2.58,5.88,5.88,5.88h0Z"/><path class="cls-3" d="M181.27,206.49c-7.38,7.87-14.29,16.16-20.78,24.77-6.28,8.33-12.1,17-17.45,25.96-5.32,8.92-10.16,18.12-14.5,27.55-4.53,9.85-8.56,19.93-12.01,30.2-3.3,9.84-6.08,19.86-8.29,30-.28,1.27-.54,2.54-.8,3.81-.51,2.48.31,5.37,2.7,6.63,2.43,1.28,5.07.86,7.12-.92,2.91-2.53,5.9-4.97,8.95-7.33-.4.31-.79.61-1.19.92,10.93-8.44,22.7-15.78,35.1-21.87,3.51-1.72,7.07-3.34,10.67-4.86l-1.4.59c2.59-1.09,5.21-2.13,7.84-3.12-2.21-2.88-4.43-5.75-6.64-8.63-10.64,19.37-19.55,39.73-26.57,60.69-1.94,5.78-3.72,11.61-5.36,17.47-.64,2.28.26,4.75,2.11,6.17.85.65,1.72,1.01,2.78,1.16,1.4.19,2.46-.12,3.75-.7,17.12-7.67,34.25-15.35,51.37-23.02,4.8-2.15,9.6-4.3,14.4-6.45,1.26-.56,2.35-2.24,2.7-3.51.39-1.41.21-3.28-.59-4.53-.81-1.25-2.01-2.36-3.51-2.7-1.63-.37-3.01-.09-4.53.59-17.12,7.67-34.25,15.35-51.37,23.02-4.8,2.15-9.6,4.3-14.4,6.45,2.88,2.21,5.76,4.42,8.63,6.63,3.21-11.47,6.98-22.78,11.3-33.88,1.23-3.15,2.5-6.28,3.81-9.39-.2.47-.4.94-.59,1.4,4.83-11.43,10.25-22.61,16.22-33.49,1.15-2.09,1.01-4.63-.46-6.53-1.33-1.72-3.99-2.92-6.18-2.11-18.35,6.87-35.76,16.15-51.52,27.81-4.68,3.46-9.23,7.08-13.63,10.89l9.82,5.72c2.96-14.47,7.04-28.71,12.19-42.56,1.46-3.93,3.01-7.82,4.64-11.69l-.59,1.4c7.62-18.02,17.04-35.27,28.11-51.41,3.11-4.53,6.34-8.96,9.7-13.31-.31.4-.61.79-.92,1.19,5.56-7.18,11.46-14.1,17.68-20.72,2.1-2.24,2.39-6.12,0-8.31-2.28-2.1-6.06-2.39-8.31,0h0Z"/><path class="cls-3" d="M180.74,278.46c1.51,0,3.09-.66,4.16-1.72,1.07-1.07,1.79-2.69,1.72-4.15-.14-3.18-2.58-5.88-5.88-5.88-1.51,0-3.09.66-4.16,1.72-1.02,1.02-1.79,2.69-1.72,4.15.14,3.18,2.58,5.88,5.88,5.88h0Z"/><path class="cls-3" d="M243,388.83c1.51,0,3.09-.66,4.16-1.72,1.02-1.02,1.79-2.69,1.72-4.15-.14-3.18-2.58-5.88-5.88-5.88-1.51,0-3.09.66-4.16,1.72-1.02,1.02-1.79,2.69-1.72,4.15.14,3.18,2.58,5.88,5.88,5.88h0Z"/><path class="cls-3" d="M184.34,397.41c-6.22,8.63-12.43,17.54-15.39,27.9-2.67,9.36-2.06,19.64,2.55,28.3,2.24,4.21,5.61,7.88,9.68,10.39,4.26,2.63,9.46,3.91,14.46,3.69,10.06-.42,19.78-5.74,26.07-13.53,3.37-4.17,6.07-8.69,8.18-13.61,2.13-4.96,3.86-10.04,5.39-15.21.35-1.16.69-2.33,1.03-3.5-3.78-1.04-7.56-2.08-11.34-3.12-2.01,9.21-4.13,18.82-3.03,28.3.28,2.46.64,4.92,1.34,7.3.61,2.07,1.45,4.1,2.39,6.04,1.65,3.38,3.96,6.58,6.69,9.18,3.02,2.87,6.57,5.08,10.54,6.37,4.15,1.34,8.71,1.36,12.93.34,8.05-1.96,15-8,19.04-15.1,5.1-8.97,6.16-19.53,6.3-29.66.04-2.93-2.27-5.39-5.1-5.77-2.7-.36-5.88,1.33-6.45,4.21-.66,3.31-.78,6.51-.33,9.84.45,3.32,1.42,6.35,2.82,9.39,2.53,5.49,6.86,10.23,11.96,13.45,5.11,3.23,11.47,4.86,17.5,4.16,1.74-.2,3.48-.45,5.17-.91,1.72-.47,3.35-1.15,4.98-1.86,2.83-1.24,5.37-3,7.73-4.99,5.08-4.26,8.97-10.54,10.06-17.12.26-1.6.26-3.07-.59-4.53-.71-1.22-2.11-2.38-3.51-2.7-1.51-.34-3.19-.27-4.53.59-1.21.78-2.46,2.03-2.7,3.51-.29,1.76-.79,3.47-1.48,5.11.2-.47.4-.94.59-1.4-.81,1.88-1.85,3.64-3.09,5.27.31-.4.61-.79.92-1.19-1.39,1.79-2.99,3.39-4.78,4.79.4-.31.79-.61,1.19-.92-1.85,1.43-3.87,2.62-6.02,3.54.47-.2.94-.4,1.4-.59-2.08.88-4.26,1.49-6.49,1.8.52-.07,1.04-.14,1.56-.21-1.97.25-3.95.27-5.92.01.52.07,1.04.14,1.56.21-1.9-.26-3.74-.77-5.51-1.49.47.2.94.4,1.4.59-1.94-.82-3.75-1.89-5.43-3.17.4.31.79.61,1.19.92-1.78-1.39-3.37-2.99-4.76-4.76.31.4.61.79.92,1.19-1.42-1.85-2.6-3.85-3.52-5.99.2.47.4.94.59,1.4-.87-2.07-1.48-4.23-1.79-6.46.07.52.14,1.04.21,1.56-.27-2.02-.28-4.06-.02-6.08-.07.52-.14,1.04-.21,1.56.07-.47.15-.95.24-1.41-3.85-.52-7.7-1.04-11.55-1.56-.05,3.8-.23,7.59-.72,11.36.07-.52.14-1.04.21-1.56-.56,4.08-1.5,8.1-3.09,11.9.2-.47.4-.94.59-1.4-1.04,2.43-2.33,4.72-3.94,6.81.31-.4.61-.79.92-1.19-1.45,1.85-3.1,3.51-4.96,4.94.4-.31.79-.61,1.19-.92-1.6,1.22-3.33,2.25-5.18,3.04.47-.2.94-.4,1.4-.59-1.63.68-3.32,1.16-5.07,1.41.52-.07,1.04-.14,1.56-.21-1.6.21-3.21.21-4.81,0,.52.07,1.04.14,1.56.21-1.59-.23-3.12-.66-4.61-1.28.47.2.94.4,1.4.59-1.6-.69-3.09-1.58-4.47-2.63.4.31.79.61,1.19.92-1.74-1.35-3.28-2.92-4.63-4.67.31.4.61.79.92,1.19-1.49-1.96-2.72-4.09-3.7-6.35.2.47.4.94.59,1.4-1.1-2.62-1.8-5.34-2.19-8.15.07.52.14,1.04.21,1.56-.65-4.83-.41-9.71.24-14.53-.07.52-.14,1.04-.21,1.56.61-4.39,1.53-8.73,2.48-13.05.34-1.54.22-3.14-.59-4.53-.71-1.22-2.11-2.38-3.51-2.7-3.14-.72-6.31.94-7.23,4.1-1.67,5.72-3.36,11.46-5.68,16.96l.59-1.4c-1.82,4.28-4.03,8.39-6.87,12.09.31-.4.61-.79.92-1.19-1.79,2.31-3.81,4.39-6.13,6.18.4-.31.79-.61,1.19-.92-2.2,1.68-4.58,3.08-7.12,4.17.47-.2.94-.4,1.4-.59-2.23.93-4.56,1.6-6.95,1.94.52-.07,1.04-.14,1.56-.21-1.99.26-3.99.29-5.98.05.52.07,1.04.14,1.56.21-1.78-.24-3.51-.7-5.17-1.39.47.2.94.4,1.4.59-1.51-.65-2.93-1.48-4.23-2.48.4.31.79.61,1.19.92-1.41-1.1-2.67-2.37-3.77-3.79.31.4.61.79.92,1.19-1.31-1.71-2.36-3.58-3.2-5.56l.59,1.4c-1-2.42-1.67-4.95-2.03-7.54.07.52.14,1.04.21,1.56-.39-2.88-.4-5.8-.03-8.69-.07.52-.14,1.04-.21,1.56.51-3.77,1.65-7.44,3.13-10.94-.2.47-.4.94-.59,1.4,3.23-7.55,8.03-14.27,12.81-20.9.84-1.17.96-3.2.59-4.53-.38-1.36-1.43-2.84-2.7-3.51-1.36-.72-3.02-1.08-4.53-.59-1.53.5-2.57,1.4-3.51,2.7h0Z"/><path class="cls-3" d="M90.66,181.9c1.51,0,3.09-.66,4.16-1.72,1.07-1.07,1.79-2.69,1.72-4.15-.14-3.18-2.58-5.88-5.88-5.88-1.51,0-3.09.66-4.16,1.72s-1.79,2.69-1.72,4.15c.14,3.18,2.58,5.88,5.88,5.88h0Z"/><path class="cls-3" d="M117.71,251.6c1.51,0,3.09-.66,4.16-1.72,1.07-1.07,1.79-2.69,1.72-4.15-.14-3.18-2.58-5.88-5.88-5.88-1.51,0-3.09.66-4.16,1.72-1.07,1.07-1.79,2.69-1.72,4.15.14,3.18,2.58,5.87,5.88,5.87h0Z"/><path class="cls-3" d="M99.71,269.18c-3.21-.78-6.37-1.76-9.47-2.89-.79-.29-1.58-.59-2.37-.9-.37-.14-.73-.29-1.09-.44-.21-.08-.41-.17-.62-.25-.95-.39,1,.43.33.14-1.49-.65-2.96-1.32-4.42-2.04-2.55-1.26-5.06-2.65-7.39-4.3-.23-.17-.46-.33-.69-.5-.63-.45,1.27,1.02.28.21-.41-.33-.81-.68-1.18-1.05-.54-.53-1.06-1.08-1.56-1.65-.25-.29-.5-.58-.75-.87-.14-.17-.27-.34-.41-.51-.44-.53.9,1.23.23.28-1.03-1.45-1.96-2.94-2.7-4.56-.1-.22-.4-.91-.02-.03.42.98,0-.03-.05-.18-.14-.4-.28-.79-.4-1.2-.27-.91-.46-1.83-.6-2.77.07.52.14,1.04.21,1.56-.21-1.6-.21-3.19,0-4.79-.07.52-.14,1.04-.21,1.56.11-.79.27-1.58.49-2.35.11-.38.23-.76.36-1.14.17-.49.84-1.63-.05.02.72-1.33,1.34-2.64,2.23-3.88.9-1.25-.66.76,0,0,.26-.31.52-.62.79-.92.48-.53.97-1.04,1.49-1.53.59-.56,1.22-1.09,1.85-1.61.78-.65-1.23.9.03-.01.29-.21.59-.41.88-.61,1.23-.83,2.51-1.56,3.84-2.21.82-.4-1.65.66-.41.17.21-.08.42-.16.64-.23.6-.21,1.21-.4,1.82-.57,2.72-.75,5.51-1.2,8.3-1.58-.52.07-1.04.14-1.56.21,6.37-.85,12.91-1.1,19.19-2.53,3.59-.82,7.22-1.58,10.73-2.73,4.32-1.42,8.23-3.38,11.79-6.21,6.2-4.93,9.55-12.55,9.64-20.41.09-8.06-3.29-15.21-7.09-22.11-2.21-4.01-4.55-7.94-6.6-12.03-.48-.96-.95-1.93-1.39-2.91-.1-.22-.2-.44-.29-.65-.07-.16-.14-.33-.21-.49-.18-.41-.09-.22.24.58-.12-.55-.46-1.14-.66-1.66-.7-1.87-1.25-3.76-1.54-5.75.07.52.14,1.04.21,1.56-.34-2.55-.29-5.12.05-7.66-.07.52-.14,1.04-.21,1.56.2-1.4.48-2.78.86-4.14.17-.6.35-1.2.55-1.8.12-.34.24-.69.37-1.03.09-.24.58-1.42.17-.45-.4.95.04-.07.14-.29.15-.33.31-.65.47-.97.32-.64.66-1.26,1.03-1.87.31-.52.63-1.02.97-1.52.2-.29.41-.56.61-.85.32-.46-.5.61-.47.6.09-.02.3-.38.37-.46,3.72-4.5,8.51-7.99,12.2-12.52,2.4-2.95,4.22-5.94,5.57-9.5,1.18-3.09,1.72-6.47,1.87-9.76.29-6.64-1.53-13.31-4.73-19.1-3.56-6.46-8.85-11.7-14.79-15.97-1.17-.84-3.19-.96-4.53-.59-1.36.38-2.84,1.43-3.51,2.7-1.61,3.04-.57,6.12,2.11,8.04.26.19.53.38.79.58.35.26,1.06,1.01-.15-.12.43.41.94.75,1.39,1.14.92.78,1.8,1.59,2.65,2.44.89.88,1.74,1.81,2.55,2.76.18.21.35.42.52.63.59.72.05.03-.21-.29.41.5.78,1.05,1.15,1.58.68.98,1.3,2,1.88,3.04.29.52.56,1.05.82,1.59.14.29.28.59.41.88.4.89.07-.05-.14-.36.35.49.5,1.27.69,1.84.18.52.34,1.05.49,1.58.36,1.28.62,2.58.81,3.9-.07-.52-.14-1.04-.21-1.56.35,2.64.37,5.29.02,7.93.07-.52.14-1.04.21-1.56-.24,1.63-.6,3.24-1.14,4.79-.12.36-.27.72-.4,1.08-.26.7.53-1.17.21-.49-.07.15-.14.3-.2.45-.38.79-.8,1.57-1.26,2.32-.4.65-.85,1.27-1.29,1.89-.59.81.82-1.01.01-.03-.31.38-.63.75-.96,1.12-1.1,1.23-2.26,2.39-3.45,3.53-4.86,4.67-9.81,9.22-12.63,15.48-3.09,6.85-4.32,14.17-3.1,21.62.6,3.66,2.17,7.17,3.7,10.51,1.48,3.22,3.19,6.33,4.93,9.42,1.97,3.51,3.99,6.99,5.75,10.61.21.43.41.86.61,1.29.09.2.18.4.27.59.41.88-.45-1.12-.19-.45.3.78.6,1.56.85,2.35.5,1.58.86,3.19,1.09,4.83-.07-.52-.14-1.04-.21-1.56.28,2.18.31,4.37.03,6.56.07-.52.14-1.04.21-1.56-.17,1.21-.42,2.41-.79,3.58-.1.31-.21.63-.32.94-.09.23-.49,1.21-.07.22.43-1.03-.08.13-.18.33-.15.3-.31.6-.47.89-.31.55-.64,1.08-1.01,1.6-.08.12-.18.24-.26.36-.3.45.46-.6.47-.6-.06-.01-.6.72-.67.8-.44.5-.91.97-1.39,1.43-.24.22-.48.43-.72.64-.15.13-.35.33-.52.43.17-.1,1.04-.76.39-.3-1.15.83-2.34,1.58-3.6,2.22-.33.17-.67.33-1.01.49-.21.1-1.27.55-.32.16.94-.4-.12.04-.34.13-.4.16-.8.3-1.21.44-2.75.96-5.58,1.63-8.41,2.28-2.58.6-5.13,1.16-7.76,1.51.52-.07,1.04-.14,1.56-.21-6.93.92-13.98,1.28-20.83,2.81-7.07,1.58-13.74,5.6-18.29,11.27-2.68,3.34-4.9,7.15-5.71,11.41-.84,4.41-.62,9.01,1.02,13.22,1.68,4.31,4.15,8.1,7.34,11.45,2.24,2.36,4.99,4.27,7.78,5.93,3.93,2.32,8.12,4.18,12.34,5.88,4.06,1.63,8.22,3,12.47,4.04,2.98.73,6.51-.95,7.23-4.1.69-3.03-.91-6.45-4.11-7.23h0Z"/><path class="cls-3" d="M85.6,322.78c1.51,0,3.09-.66,4.16-1.72,1.02-1.02,1.79-2.69,1.72-4.15-.14-3.18-2.58-5.87-5.88-5.87-1.51,0-3.09.66-4.16,1.72-1.07,1.07-1.79,2.69-1.72,4.15.14,3.18,2.58,5.88,5.88,5.88h0Z"/><path class="cls-3" d="M65.79,193.32c-4.89-6.97-10.35-13.55-16.39-19.56-6.01-5.98-12.58-11.41-19.5-16.3-6.61-4.67-13.62-8.78-20.91-12.28-7.65-3.67-15.6-6.76-23.76-9.1-8.22-2.36-16.64-3.91-25.14-4.8-1.01-.1-2.01-.2-3.02-.28-.52.07-1.04.14-1.56.21-.77.18-1.43.53-2,1.05-.97.75-1.83,1.82-2.11,3.05-.6,2.61.42,5.19,2.7,6.63,4.94,3.13,9.73,6.48,14.36,10.05-.4-.31-.79-.61-1.19-.92,9.99,7.73,19.21,16.45,27.48,25.99,2.33,2.69,4.59,5.45,6.77,8.26-.31-.4-.61-.79-.92-1.19,6.92,8.96,13.05,18.52,18.26,28.56,1.48,2.86,2.89,5.76,4.23,8.69,3.08-2.37,6.16-4.75,9.23-7.12-7.89-7.6-16.42-14.54-25.43-20.78-8.69-6.02-17.88-11.33-27.43-15.87-5.76-2.73-11.65-5.2-17.63-7.41-1.92-.71-4.33.13-5.72,1.51-.73.73-1.23,1.6-1.51,2.59-.28,1.04-.28,2.08,0,3.12,6.91,16.61,13.81,33.22,20.72,49.82,1.93,4.65,3.87,9.29,5.8,13.94l9.82-5.72c-11.95-10.97-25.15-20.67-39.25-28.71-3.89-2.22-7.84-4.31-11.86-6.27-1.43-.7-2.95-1.03-4.53-.59-1.36.38-2.84,1.43-3.51,2.7-.72,1.36-1.08,3.02-.59,4.53.45,1.39,1.34,2.84,2.7,3.51,9.97,4.88,19.56,10.54,28.64,16.92,2.58,1.81,5.11,3.68,7.6,5.6-.4-.31-.79-.61-1.19-.92,4.72,3.65,9.28,7.5,13.68,11.53,1.86,1.71,4.88,2.36,7.12.92.85-.55,1.56-1.26,2.11-2.11.71-1.1,1.11-3.27.59-4.53-6.91-16.61-13.81-33.22-20.72-49.82-1.93-4.65-3.87-9.29-5.8-13.94-2.41,2.41-4.82,4.82-7.23,7.23,2.85,1.05,5.67,2.16,8.46,3.34-.47-.2-.94-.4-1.4-.59,12.06,5.1,23.6,11.4,34.4,18.8,3.03,2.08,6,4.24,8.9,6.48-.4-.31-.79-.61-1.19-.92,5.62,4.34,11.01,8.99,16.12,13.92,2.12,2.04,5.39,2.25,7.72.46.97-.75,1.83-1.82,2.11-3.05.07-.52.14-1.04.21-1.56,0-1.06-.27-2.05-.8-2.97-5.94-13.07-13.4-25.43-22.14-36.81-9-11.71-19.12-22.46-30.51-31.89-6.53-5.41-13.39-10.44-20.56-14.98-.99,3.65-1.98,7.3-2.97,10.95,2.3.19,4.6.44,6.9.74-.52-.07-1.04-.14-1.56-.21,9.59,1.29,19.04,3.6,28.16,6.84,2.59.92,5.14,1.92,7.67,2.98-.47-.2-.94-.4-1.4-.59,8.92,3.77,17.46,8.43,25.45,13.91,2.26,1.55,4.48,3.17,6.66,4.85-.4-.31-.79-.61-1.19-.92,7.31,5.66,14.08,12.01,20.14,18.99,1.71,1.96,3.35,3.97,4.94,6.03-.31-.4-.61-.79-.92-1.19,1.28,1.66,2.52,3.35,3.72,5.06.89,1.27,1.97,2.28,3.51,2.7,1.41.39,3.28.21,4.53-.59,1.26-.81,2.36-2.01,2.7-3.51.33-1.47.31-3.25-.59-4.53h0Z"/><path class="cls-3" d="M12.99,274.44c1.61-.14,3.21-.1,4.81.11-.52-.07-1.04-.14-1.56-.21,2.23.31,4.39.94,6.46,1.81-.47-.2-.94-.4-1.4-.59,2.96,1.26,5.69,2.98,8.23,4.94-.4-.31-.79-.61-1.19-.92,5.09,3.96,9.42,8.83,13.35,13.91-.31-.4-.61-.79-.92-1.19,3.92,5.09,7.35,10.57,9.88,16.49-.2-.47-.4-.94-.59-1.4,1.84,4.36,3.15,8.9,3.79,13.59-.07-.52-.14-1.04-.21-1.56.52,3.97.57,7.99.04,11.96.07-.52.14-1.04.21-1.56-.46,3.3-1.32,6.53-2.61,9.61.2-.47.4-.94.59-1.4-1.1,2.56-2.5,4.95-4.19,7.16.31-.4.61-.79.92-1.19-1.74,2.24-3.74,4.26-5.98,5.99.4-.31.79-.61,1.19-.92-2.02,1.54-4.2,2.83-6.54,3.82.47-.2.94-.4,1.4-.59-2.15.89-4.39,1.52-6.7,1.84.52-.07,1.04-.14,1.56-.21-2.08.27-4.17.26-6.25-.01.52.07,1.04.14,1.56.21-2.2-.3-4.35-.89-6.4-1.74.47.2.94.4,1.4.59-1.98-.84-3.84-1.9-5.55-3.2.4.31.79.61,1.19.92-1.53-1.18-2.91-2.53-4.1-4.05.31.4.61.79.92,1.19-1.06-1.37-1.95-2.86-2.64-4.45.2.47.4.94.59,1.4-.53-1.26-.93-2.55-1.12-3.9.07.52.14,1.04.21,1.56-.11-.9-.13-1.8-.03-2.71-.07.52-.14,1.04-.21,1.56.09-.68.25-1.33.51-1.97-.2.47-.4.94-.59,1.4.2-.44.43-.86.72-1.24-.31.4-.61.79-.92,1.19.27-.34.57-.63.9-.91-.4.31-.79.61-1.19.92.39-.29.8-.53,1.26-.72-.47.2-.94.4-1.4.59.45-.17.9-.28,1.38-.35-.52.07-1.04.14-1.56.21.63-.07,1.25-.05,1.87.04-.52-.07-1.04-.14-1.56-.21.95.15,1.86.43,2.75.8-.47-.2-.94-.4-1.4-.59,1.84.79,3.48,1.92,5.06,3.14-.4-.31-.79-.61-1.19-.92,2.86,2.21,5.43,4.77,7.66,7.63-.31-.4-.61-.79-.92-1.19,2.06,2.68,3.8,5.59,5.12,8.7-.2-.47-.4-.94-.59-1.4,1.15,2.76,1.97,5.65,2.37,8.62-.07-.52-.14-1.04-.21-1.56.33,2.53.36,5.07.03,7.6.07-.52.14-1.04.21-1.56-.35,2.58-1.04,5.09-2.03,7.49.2-.47.4-.94.59-1.4-1.01,2.39-2.31,4.64-3.89,6.69.31-.4.61-.79.92-1.19-1.42,1.81-3.04,3.45-4.86,4.86.4-.31.79-.61,1.19-.92-1.61,1.23-3.35,2.26-5.22,3.06.47-.2.94-.4,1.4-.59-1.71.72-3.49,1.23-5.33,1.49.52-.07,1.04-.14,1.56-.21-1.88.25-3.77.24-5.65,0,.52.07,1.04.14,1.56.21-2.07-.28-4.07-.85-6-1.65.47.2.94.4,1.4.59-1.85-.79-3.6-1.81-5.21-3.03.4.31.79.61,1.19.92-1.48-1.15-2.81-2.45-3.96-3.93.31.4.61.79.92,1.19-.98-1.28-1.8-2.66-2.44-4.14.2.47.4.94.59,1.4-.61-1.44-1.02-2.95-1.23-4.5.07.52.14,1.04.21,1.56-.02-.12-.03-.24-.04-.36-.18-1.61-.53-2.97-1.72-4.15-1.02-1.02-2.69-1.79-4.16-1.72-1.52.07-3.1.57-4.16,1.72-.98,1.07-1.9,2.64-1.72,4.15.17,1.51.37,3.03.8,4.49.42,1.42,1.01,2.82,1.66,4.15,1.07,2.2,2.6,4.24,4.27,6.02,3.46,3.7,8.07,6.39,12.9,7.84,4.9,1.48,10.35,1.6,15.28.15,5.15-1.52,9.91-4.53,13.54-8.48,3.7-4.02,6.45-8.86,8.01-14.1,1.62-5.46,1.71-11.11.7-16.68-.95-5.23-3.16-10.36-6.09-14.78-3.27-4.93-7.31-9.05-12.04-12.58-2.39-1.78-5.12-3.38-8.06-4.02-4.05-.89-8.44-.18-11.42,2.92-2.45,2.56-3.59,6.2-3.36,9.7.2,3.18,1.13,6.05,2.58,8.87,2.4,4.68,6.47,8.62,11.02,11.21,4.66,2.67,10.1,4.16,15.47,4.14,5.56-.03,11.11-1.7,15.9-4.49,4.89-2.84,8.95-6.83,12.19-11.44,3.22-4.58,5.36-10.06,6.32-15.56,1.13-6.51.97-12.96-.29-19.44-2.32-11.87-8.74-22.48-16.28-31.75-3.36-4.13-6.99-8.09-11.15-11.43-4.65-3.72-9.81-6.96-15.68-8.34-2.79-.66-5.74-.98-8.61-.73-1.58.14-3,.56-4.16,1.72-1.02,1.02-1.79,2.69-1.72,4.15.07,1.52.57,3.09,1.72,4.15,1.09,1,2.62,1.85,4.16,1.72h0Z"/><path class="cls-3" d="M-1.64,111.41c1.11,5.7,5.22,10.61,10.16,13.49,5.14,3,11.23,3.95,17.04,2.72,5.59-1.18,10.86-4.63,14.53-8.96,3.97-4.68,6.7-10.29,7.67-16.37.63-3.92.83-7.82.42-11.76-.41-3.95-1.15-7.84-2.28-11.65-.84-2.82-3.54-4.6-6.45-4.21-1.23.17-2.51.67-3.37,1.62-.99,1.08-1.89,2.64-1.72,4.15,1.18,10.65,3.68,21.07,7.8,30.98,2.14,5.15,4.54,10.16,7.39,14.97,1.3,2.19,2.68,4.34,4.14,6.43,1.57,2.26,3.23,4.52,5.22,6.43,2.23,2.14,4.83,3.89,7.8,4.81,1.46.45,3.07.68,4.6.58,2.1-.14,3.78-.62,5.67-1.47,2.82-1.26,5.1-3.64,6.79-6.17,1.64-2.45,2.64-5.42,3.27-8.28,1.22-5.53,1.83-11.27,2.09-16.92.24-5.29.09-10.59-.45-15.86-1.13-10.96-3.68-21.7-7.96-31.86-.67-1.58-1.34-3.16-2.06-4.72-.58-1.26-2.22-2.34-3.51-2.7-1.41-.39-3.28-.21-4.53.59-1.26.81-2.36,2.01-2.7,3.51-.07.52-.14,1.04-.21,1.56,0,1.06.27,2.05.8,2.97.49,1.06.96,2.13,1.42,3.2-.2-.47-.4-.94-.59-1.4,3.67,8.69,6.15,17.84,7.41,27.19-.07-.52-.14-1.04-.21-1.56,1.24,9.35,1.26,18.83.02,28.18.07-.52.14-1.04.21-1.56-.49,3.59-1,7.28-2.4,10.64l.59-1.4c-.49,1.13-1.08,2.21-1.83,3.2.31-.4.61-.79.92-1.19-.61.78-1.29,1.48-2.06,2.1.4-.31.79-.61,1.19-.92-.66.51-1.37.94-2.13,1.28.47-.2.94-.4,1.4-.59-.7.3-1.42.5-2.18.61.52-.07,1.04-.14,1.56-.21-.69.08-1.38.08-2.07,0,.52.07,1.04.14,1.56.21-.81-.11-1.59-.33-2.35-.64.47.2.94.4,1.4.59-1.03-.44-1.98-1.03-2.87-1.71.4.31.79.61,1.19.92-1.62-1.27-2.99-2.79-4.25-4.41.31.4.61.79.92,1.19-5.01-6.55-9.02-13.97-12.23-21.55l.59,1.4c-3.68-8.74-6.22-17.94-7.5-27.33.07.52.14,1.04.21,1.56-.12-.88-.23-1.77-.32-2.65-3.85.52-7.7,1.04-11.55,1.56.83,2.8,1.48,5.66,1.89,8.55-.07-.52-.14-1.04-.21-1.56.49,3.65.58,7.33.09,10.98.07-.52.14-1.04.21-1.56-.37,2.6-1.01,5.15-2.01,7.57l.59-1.4c-.91,2.14-2.07,4.16-3.49,6.01.31-.4.61-.79.92-1.19-1.29,1.66-2.76,3.17-4.42,4.47.4-.31.79-.61,1.19-.92-1.49,1.15-3.1,2.11-4.83,2.85.47-.2.94-.4,1.4-.59-1.54.64-3.14,1.09-4.79,1.31.52-.07,1.04-.14,1.56-.21-1.43.18-2.86.17-4.29-.01.52.07,1.04.14,1.56.21-1.62-.22-3.19-.64-4.7-1.26.47.2.94.4,1.4.59-1.44-.61-2.79-1.38-4.03-2.32.4.31.79.61,1.19.92-1.12-.87-2.12-1.85-2.99-2.97.31.4.61.79.92,1.19-.74-.97-1.35-2.01-1.83-3.13l.59,1.4c-.35-.86-.62-1.73-.79-2.64-.27-1.38-1.52-2.82-2.7-3.51-1.26-.74-3.12-1.05-4.53-.59-1.42.46-2.8,1.34-3.51,2.7-.77,1.46-.91,2.9-.59,4.53h.01Z"/><path class="cls-3" d="M77.15,26.43c-1.65-1.87-3.24-3.78-4.76-5.75.31.4.61.79.92,1.19-6.04-7.82-11.05-16.41-14.89-25.51.2.47.4.94.59,1.4-1.24-2.96-2.36-5.97-3.35-9.03-2.41,2.41-4.82,4.82-7.23,7.23C59.31.14,70.77,2.63,82.39,3.6c1.4.12,2.79.21,4.19.27,1.48.07,3.07.01,4.48-.43,2.19-.67,4.27-2.1,5.3-4.21.65-1.33.99-2.65,1.02-4.15.03-1.09-.2-2.18-.38-3.25-.96-5.88-1.97-11.75-2.95-17.62-1.11-6.61-2.21-13.21-3.32-19.82l-7.23,7.23c10.39,2.91,20.79,5.83,31.18,8.74,3,.84,6.47-1.03,7.23-4.1,2.5-10.09,5-20.17,7.5-30.26.37-1.5.2-3.18-.59-4.53-.71-1.22-2.11-2.38-3.51-2.7-1.51-.34-3.19-.27-4.53.59-1.27.82-2.33,2.01-2.7,3.51-2.5,10.09-5,20.17-7.5,30.26,2.41-1.37,4.82-2.74,7.23-4.1-10.39-2.91-20.79-5.83-31.18-8.74-2.02-.56-4.24.03-5.72,1.51-.73.73-1.23,1.6-1.51,2.59-.28,1.04-.28,2.08,0,3.12,1.66,9.91,3.32,19.82,4.98,29.73.47,2.79,1.01,5.58,1.39,8.38-.07-.52-.14-1.04-.21-1.56.06.53.09,1.04.02,1.57.07-.52.14-1.04.21-1.56-.04.22-.1.42-.17.63.2-.47.4-.94.59-1.4-.09.2-.19.37-.31.54.31-.4.61-.79.92-1.19-.16.19-.32.35-.51.5.4-.31.79-.61,1.19-.92-.2.14-.4.25-.62.34.47-.2.94-.4,1.4-.59-.35.14-.71.22-1.08.28.52-.07,1.04-.14,1.56-.21-1.87.25-3.85-.02-5.72-.17-2.14-.17-4.27-.39-6.4-.68.52.07,1.04.14,1.56.21-9.12-1.23-18.07-3.51-26.66-6.8-1.91-.73-4.35.14-5.72,1.51-1.43,1.43-2.15,3.75-1.51,5.72,3.92,12.08,9.71,23.6,17.25,33.83,2.3,3.12,4.71,6.15,7.28,9.05.96,1.09,2.74,1.72,4.16,1.72s3.16-.64,4.16-1.72c1.03-1.12,1.79-2.59,1.72-4.15-.07-1.61-.65-2.94-1.72-4.15h0Z"/><path class="cls-3" d="M682.64,26.43c-1.65-1.87-3.24-3.78-4.76-5.75.31.4.61.79.92,1.19-6.04-7.82-11.05-16.41-14.89-25.51.2.47.4.94.59,1.4-1.24-2.96-2.36-5.97-3.35-9.03-2.41,2.41-4.82,4.82-7.23,7.23,10.89,4.18,22.35,6.66,33.97,7.63,1.4.12,2.79.21,4.19.27,1.48.07,3.07.01,4.48-.43,2.19-.67,4.27-2.1,5.3-4.21.65-1.33.99-2.65,1.02-4.15.03-1.09-.2-2.18-.38-3.25-.96-5.88-1.97-11.75-2.95-17.62-1.11-6.61-2.21-13.21-3.32-19.82l-7.23,7.23c10.39,2.91,20.79,5.83,31.18,8.74,3,.84,6.47-1.03,7.23-4.1,2.5-10.09,5-20.17,7.5-30.26.37-1.5.2-3.18-.59-4.53-.71-1.22-2.11-2.38-3.51-2.7-1.51-.34-3.19-.27-4.53.59-1.27.82-2.33,2.01-2.7,3.51-2.5,10.09-5,20.17-7.5,30.26l7.23-4.1c-10.39-2.91-20.79-5.83-31.18-8.74-2.02-.56-4.24.03-5.72,1.51-.73.73-1.23,1.6-1.51,2.59-.28,1.04-.28,2.08,0,3.12,1.66,9.91,3.32,19.82,4.98,29.73.47,2.79,1.01,5.58,1.39,8.38-.07-.52-.14-1.04-.21-1.56.06.53.09,1.04.02,1.57.07-.52.14-1.04.21-1.56-.04.22-.1.42-.17.63.2-.47.4-.94.59-1.4-.09.2-.19.37-.31.54.31-.4.61-.79.92-1.19-.16.19-.32.35-.51.5.4-.31.79-.61,1.19-.92-.2.14-.4.25-.62.34.47-.2.94-.4,1.4-.59-.35.14-.71.22-1.08.28.52-.07,1.04-.14,1.56-.21-1.87.25-3.85-.02-5.72-.17-2.14-.17-4.27-.39-6.4-.68.52.07,1.04.14,1.56.21-9.12-1.23-18.07-3.51-26.66-6.8-1.91-.73-4.35.14-5.72,1.51-1.43,1.43-2.15,3.75-1.51,5.72,3.92,12.08,9.71,23.6,17.25,33.83,2.3,3.12,4.71,6.15,7.28,9.05.96,1.09,2.74,1.72,4.16,1.72s3.16-.64,4.16-1.72c1.03-1.12,1.79-2.59,1.72-4.15-.07-1.61-.65-2.94-1.72-4.15h0Z"/><path class="cls-3" d="M685.14,362.65c.64.64,1.23,1.31,1.78,2.02-.31-.4-.61-.79-.92-1.19,1.08,1.42,1.97,2.97,2.68,4.61-.2-.47-.4-.94-.59-1.4.86,2.04,1.42,4.17,1.72,6.36-.07-.52-.14-1.04-.21-1.56.31,2.38.3,4.78,0,7.17.07-.52.14-1.04.21-1.56-.34,2.49-1.01,4.89-1.98,7.2l.59-1.4c-1.13,2.62-2.59,5.06-4.33,7.32.31-.4.61-.79.92-1.19-2.24,2.88-4.88,5.43-7.76,7.66.4-.31.79-.61,1.19-.92-4.13,3.16-8.71,5.62-13.49,7.64.47-.2.94-.4,1.4-.59-5.64,2.36-11.51,4.12-17.39,5.8-5.3,1.51-10.7,3.03-15.51,5.78-5.37,3.06-9.69,7.81-11.46,13.81-1.79,6.08-.78,12.59,1.91,18.23,2.51,5.29,7.18,9.63,12.32,12.34,5.48,2.89,11.59,4.33,17.78,4.49,12.59.34,25.06-4.58,35.12-11.92,5-3.65,9.61-7.76,13.85-12.26,2-2.12,3.93-4.32,5.8-6.56,1.72-2.06,3.35-4.2,5.2-6.15.88-.93,1.81-1.8,2.83-2.58-.4.31-.79.61-1.19.92,1-.75,2.06-1.39,3.21-1.88-.47.2-.94.4-1.4.59.85-.34,1.72-.59,2.62-.72-.52.07-1.04.14-1.56.21.94-.12,1.88-.12,2.83,0-.52-.07-1.04-.14-1.56-.21,1.02.15,1.99.42,2.94.81-.47-.2-.94-.4-1.4-.59,1.11.48,2.14,1.09,3.1,1.82-.4-.31-.79-.61-1.19-.92,1.03.81,1.95,1.74,2.76,2.77-.31-.4-.61-.79-.92-1.19.8,1.05,1.46,2.17,1.99,3.37-.2-.47-.4-.94-.59-1.4.6,1.44.97,2.95,1.17,4.49-.07-.52-.14-1.04-.21-1.56.23,1.93.19,3.86-.05,5.79.07-.52.14-1.04.21-1.56-.42,3.04-1.32,5.96-2.51,8.78.2-.47.4-.94.59-1.4-1.8,4.21-4.16,8.16-6.94,11.79.31-.4.61-.79.92-1.19-2.89,3.72-6.22,7.07-9.94,9.97.4-.31.79-.61,1.19-.92-3.56,2.75-7.45,4.9-11.43,6.97-4.18,2.17-8.27,4.44-11.85,7.54-3.73,3.23-6.75,7.77-7.65,12.67-.56,3.02-.53,5.77-.08,8.79.37,2.51,1.26,4.85,2.31,7.15,2.09,4.59,5.6,8.48,9.72,11.34,4.29,2.98,9.43,4.29,14.56,4.83,4.8.5,9.69-.04,14.41-.94,4.14-.79,8.07-2.05,11.86-3.91,6.53-3.19,12.04-8.07,17.68-12.57.66-.53,1.32-1.05,1.99-1.56-.4.31-.79.61-1.19.92,3.49-2.68,7.14-5.19,11.22-6.9-.47.2-.94.4-1.4.59,2.35-.97,4.79-1.66,7.3-2.01-.52.07-1.04.14-1.56.21,2.65-.35,5.31-.31,7.95.03-.52-.07-1.04-.14-1.56-.21,2.59.36,5.1,1.01,7.52,2.02-.47-.2-.94-.4-1.4-.59,2.19.94,4.26,2.13,6.16,3.57-.4-.31-.79-.61-1.19-.92,1.81,1.4,3.44,3,4.83,4.81-.31-.4-.61-.79-.92-1.19,1.18,1.56,2.17,3.23,2.94,5.03-.2-.47-.4-.94-.59-1.4.16.38.3.76.44,1.14.53,1.46,1.32,2.7,2.7,3.51,1.26.74,3.12,1.05,4.53.59,2.83-.92,5.23-4.14,4.11-7.23-1.22-3.34-2.85-6.17-5.04-8.95-1.89-2.39-4.19-4.36-6.67-6.12-4.95-3.52-10.79-5.29-16.77-5.92-9.5-1.01-18.52,2.53-26.12,8-4.14,2.98-8,6.3-12.02,9.42.4-.31.79-.61,1.19-.92-3.69,2.85-7.55,5.49-11.86,7.33.47-.2.94-.4,1.4-.59-3.7,1.56-7.67,2.43-11.64,2.98.52-.07,1.04-.14,1.56-.21-3.6.48-7.25.6-10.86.12.52.07,1.04.14,1.56.21-2.3-.32-4.54-.89-6.69-1.78.47.2.94.4,1.4.59-1.68-.72-3.26-1.62-4.72-2.72.4.31.79.61,1.19.92-1.52-1.19-2.87-2.56-4.06-4.08.31.4.61.79.92,1.19-1.23-1.61-2.24-3.36-3.04-5.22.2.47.4.94.59,1.4-.7-1.71-1.2-3.48-1.46-5.31.07.52.14,1.04.21,1.56-.2-1.58-.21-3.15,0-4.73-.07.52-.14,1.04-.21,1.56.2-1.35.55-2.65,1.07-3.92l-.59,1.4c.58-1.35,1.33-2.6,2.22-3.76-.31.4-.61.79-.92,1.19,1.18-1.51,2.57-2.83,4.08-4.01-.4.31-.79.61-1.19.92,3.28-2.53,7-4.38,10.66-6.28,4.16-2.16,8.03-4.58,11.72-7.48,7.18-5.65,13.16-13.15,16.99-21.44,2.37-5.12,4.13-10.58,4.12-16.28,0-5.72-1.9-11.07-5.68-15.37-3.43-3.9-8.72-6.58-13.97-6.46-5.53.13-10.29,3.1-14,7.01-1.72,1.81-3.24,3.79-4.83,5.7-1.68,2.02-3.4,4-5.18,5.94-3.68,4-7.62,7.76-11.92,11.1.4-.31.79-.61,1.19-.92-4.42,3.41-9.19,6.33-14.34,8.51.47-.2.94-.4,1.4-.59-4.07,1.7-8.32,2.93-12.7,3.54.52-.07,1.04-.14,1.56-.21-3.59.48-7.22.53-10.82.07.52.07,1.04.14,1.56.21-2.96-.41-5.85-1.16-8.61-2.32l1.4.59c-2.16-.93-4.19-2.08-6.06-3.51.4.31.79.61,1.19.92-1.56-1.22-2.98-2.61-4.2-4.18.31.4.61.79.92,1.19-1.05-1.4-1.92-2.91-2.6-4.52l.59,1.4c-.7-1.69-1.18-3.45-1.43-5.27.07.52.14,1.04.21,1.56-.21-1.63-.22-3.27-.02-4.9-.07.52-.14,1.04-.21,1.56.2-1.45.56-2.86,1.12-4.23-.2.47-.4.94-.59,1.4.55-1.29,1.25-2.48,2.1-3.59-.31.4-.61.79-.92,1.19.95-1.21,2.04-2.27,3.25-3.22-.4.31-.79.61-1.19.92,1.96-1.5,4.14-2.66,6.4-3.63-.47.2-.94.4-1.4.59,5.99-2.51,12.43-3.87,18.6-5.85,7-2.24,14-4.94,20.24-8.86,5.91-3.72,11.11-8.43,15.06-14.21,3.82-5.58,6.02-12.25,6.13-19.02.12-7.73-2.62-15.57-8.14-21.08-2.18-2.18-6.17-2.34-8.31,0-2.15,2.35-2.32,5.98,0,8.31h.01Z"/><path class="cls-3" d="M606.89,471.56c1.51,0,3.09-.66,4.16-1.72,1.02-1.02,1.79-2.69,1.72-4.15-.14-3.18-2.58-5.87-5.88-5.87-1.51,0-3.09.66-4.16,1.72-1.02,1.02-1.79,2.69-1.72,4.15.14,3.18,2.58,5.88,5.88,5.88h0Z"/><path class="cls-3" d="M522.69,492.81c-.65,3.87-.61,7.66.38,11.48.83,3.19,2.27,6.33,4.18,9.03,4.17,5.9,10.1,10.5,17.14,12.45,6.77,1.87,14.34,1.28,20.82-1.35,3.32-1.35,6.43-2.95,9.29-5.13,1.65-1.25,3.24-2.54,4.69-4.02,1.39-1.42,2.63-2.97,3.82-4.56,2.55-3.41,4.48-7.56,4.47-11.89-.01-4.57-2.33-9.39-6.44-11.64-8.6-4.7-17.7,2.56-21.32,10.19-1.65,3.48-2.55,6.96-2.92,10.79-.32,3.35.04,6.81.78,10.08,1.49,6.56,5.18,12.78,10.36,17.09,5.43,4.52,11.99,7.52,18.99,8.53,3.53.51,7.03.74,10.58.39,3.6-.36,7.14-1.03,10.56-2.23,7.11-2.49,13.46-6.44,19.09-11.42,2.47-2.18,4.75-4.56,6.85-7.09,2.45-2.95,4.93-6.05,6.48-9.59,1.08-2.46,1.78-4.8,1.95-7.51.12-1.89-.15-3.92-.78-5.71-1.52-4.35-4.79-8.19-9.47-9.25-2.39-.54-4.89-.5-7.26.19-2.41.7-4.45,1.92-6.38,3.49-3,2.45-5,6.02-6.55,9.51-6.23,14.05-12.06,30.17-6.89,45.49,2.33,6.91,6.47,13.02,12.57,17.13,6.41,4.31,14.39,5.16,21.84,3.78,7.11-1.32,13.74-5.09,18.92-10.07,5.2-4.99,9.13-11.28,12.03-17.84,1.51-3.42,2.86-6.91,4.02-10.47.95-2.92-1.11-6.55-4.11-7.23-3.23-.73-6.21.97-7.23,4.1-.86,2.63-1.81,5.23-2.88,7.79.2-.47.4-.94.59-1.4-2,4.72-4.43,9.27-7.56,13.34.31-.4.61-.79.92-1.19-2.03,2.62-4.34,5.02-6.96,7.06.4-.31.79-.61,1.19-.92-2.18,1.67-4.56,3.06-7.08,4.14l1.4-.59c-2.52,1.06-5.15,1.8-7.86,2.17.52-.07,1.04-.14,1.56-.21-2.24.28-4.5.3-6.74,0,.52.07,1.04.14,1.56.21-1.88-.27-3.71-.75-5.47-1.48.47.2.94.4,1.4.59-1.7-.72-3.29-1.65-4.76-2.77.4.31.79.61,1.19.92-1.58-1.23-2.98-2.65-4.21-4.23.31.4.61.79.92,1.19-1.48-1.93-2.69-4.04-3.65-6.27.2.47.4.94.59,1.4-1.17-2.78-1.95-5.7-2.35-8.69.07.52.14,1.04.21,1.56-.45-3.5-.35-7.04.11-10.54-.07.52-.14,1.04-.21,1.56,1.02-7.44,3.64-14.53,6.55-21.41-.2.47-.4.94-.59,1.4,1.27-3,2.53-6.05,4.53-8.64-.31.4-.61.79-.92,1.19.71-.89,1.49-1.71,2.39-2.41-.4.31-.79.61-1.19.92.75-.56,1.55-1.03,2.41-1.41-.47.2-.94.4-1.4.59.86-.36,1.73-.61,2.65-.74-.52.07-1.04.14-1.56.21.69-.08,1.38-.08,2.07,0-.52-.07-1.04-.14-1.56-.21.62.09,1.22.26,1.8.49-.47-.2-.94-.4-1.4-.59.53.24,1.03.53,1.49.88-.4-.31-.79-.61-1.19-.92.5.4.93.84,1.32,1.34-.31-.4-.61-.79-.92-1.19.46.62.84,1.28,1.14,1.99l-.59-1.4c.35.85.58,1.73.7,2.64-.07-.52-.14-1.04-.21-1.56.11.91.12,1.82,0,2.73.07-.52.14-1.04.21-1.56-.19,1.34-.56,2.62-1.08,3.87l.59-1.4c-1.05,2.42-2.56,4.58-4.16,6.65.31-.4.61-.79.92-1.19-3.26,4.19-6.98,8.01-11.18,11.26.4-.31.79-.61,1.19-.92-3.41,2.62-7.11,4.85-11.08,6.53l1.4-.59c-3.28,1.37-6.71,2.35-10.23,2.83.52-.07,1.04-.14,1.56-.21-3.34.44-6.72.44-10.06,0,.52.07,1.04.14,1.56.21-3.04-.42-6.01-1.2-8.84-2.38.47.2.94.4,1.4.59-2.48-1.05-4.82-2.38-6.96-4.02.4.31.79.61,1.19.92-1.78-1.39-3.39-2.96-4.79-4.73.31.4.61.79.92,1.19-1.37-1.78-2.5-3.73-3.38-5.8l.59,1.4c-.95-2.26-1.59-4.63-1.93-7.05.07.52.14,1.04.21,1.56-.31-2.34-.32-4.71-.02-7.05-.07.52-.14,1.04-.21,1.56.28-2.06.81-4.06,1.61-5.98-.2.47-.4.94-.59,1.4.71-1.67,1.62-3.24,2.72-4.69-.31.4-.61.79-.92,1.19.84-1.07,1.77-2.05,2.85-2.88-.4.31-.79.61-1.19.92.77-.58,1.58-1.07,2.47-1.45-.47.2-.94.4-1.4.59.66-.27,1.33-.46,2.04-.57-.52.07-1.04.14-1.56.21.56-.06,1.1-.07,1.66,0-.52-.07-1.04-.14-1.56-.21.49.08.95.2,1.41.38-.47-.2-.94-.4-1.4-.59.47.21.91.46,1.32.78-.4-.31-.79-.61-1.19-.92.4.32.75.69,1.08,1.09-.31-.4-.61-.79-.92-1.19.4.52.72,1.08.98,1.68-.2-.47-.4-.94-.59-1.4.28.68.47,1.37.58,2.09-.07-.52-.14-1.04-.21-1.56.11.84.1,1.67-.01,2.51.07-.52.14-1.04.21-1.56-.17,1.09-.48,2.13-.91,3.15.2-.47.4-.94.59-1.4-.75,1.72-1.78,3.29-2.92,4.77.31-.4.61-.79.92-1.19-1.78,2.3-3.85,4.35-6.15,6.14.4-.31.79-.61,1.19-.92-2.31,1.77-4.82,3.24-7.49,4.38.47-.2.94-.4,1.4-.59-2.46,1.02-5.03,1.75-7.67,2.12.52-.07,1.04-.14,1.56-.21-2.42.32-4.87.34-7.29.02.52.07,1.04.14,1.56.21-2.02-.28-3.97-.8-5.86-1.58.47.2.94.4,1.4.59-1.97-.83-3.81-1.91-5.51-3.21.4.31.79.61,1.19.92-1.74-1.35-3.31-2.9-4.67-4.64.31.4.61.79.92,1.19-1.29-1.67-2.38-3.49-3.22-5.43.2.47.4.94.59,1.4-.76-1.81-1.3-3.69-1.57-5.63.07.52.14,1.04.21,1.56-.22-1.69-.23-3.39-.01-5.08-.07.52-.14,1.04-.21,1.56.04-.26.08-.52.12-.79.27-1.6.26-3.08-.59-4.53-.71-1.22-2.11-2.38-3.51-2.7-1.51-.34-3.19-.27-4.53.59-1.21.78-2.45,2.03-2.7,3.51h.01Z"/><path class="cls-3" d="M79.66,362.65c.64.64,1.23,1.31,1.78,2.02-.31-.4-.61-.79-.92-1.19,1.08,1.42,1.97,2.97,2.68,4.61-.2-.47-.4-.94-.59-1.4.86,2.04,1.42,4.17,1.72,6.36-.07-.52-.14-1.04-.21-1.56.31,2.38.3,4.78,0,7.17.07-.52.14-1.04.21-1.56-.34,2.49-1.01,4.89-1.98,7.2.2-.47.4-.94.59-1.4-1.13,2.62-2.59,5.06-4.33,7.32.31-.4.61-.79.92-1.19-2.24,2.88-4.88,5.43-7.76,7.66.4-.31.79-.61,1.19-.92-4.13,3.16-8.71,5.62-13.49,7.64.47-.2.94-.4,1.4-.59-5.64,2.36-11.51,4.12-17.39,5.8-5.3,1.51-10.7,3.03-15.51,5.78-5.37,3.06-9.69,7.81-11.46,13.81-1.79,6.08-.78,12.59,1.91,18.23,2.51,5.29,7.18,9.63,12.32,12.34,5.48,2.89,11.59,4.33,17.78,4.49,12.59.34,25.06-4.58,35.12-11.92,5-3.65,9.61-7.76,13.85-12.26,2-2.12,3.93-4.32,5.8-6.56,1.72-2.06,3.35-4.2,5.2-6.15.88-.93,1.81-1.8,2.83-2.58-.4.31-.79.61-1.19.92,1-.75,2.06-1.39,3.21-1.88-.47.2-.94.4-1.4.59.85-.34,1.72-.59,2.62-.72-.52.07-1.04.14-1.56.21.94-.12,1.88-.12,2.83,0-.52-.07-1.04-.14-1.56-.21,1.02.15,1.99.42,2.94.81-.47-.2-.94-.4-1.4-.59,1.11.48,2.14,1.09,3.1,1.82-.4-.31-.79-.61-1.19-.92,1.03.81,1.95,1.74,2.76,2.77-.31-.4-.61-.79-.92-1.19.8,1.05,1.46,2.17,1.99,3.37-.2-.47-.4-.94-.59-1.4.6,1.44.97,2.95,1.17,4.49-.07-.52-.14-1.04-.21-1.56.23,1.93.19,3.86-.05,5.79.07-.52.14-1.04.21-1.56-.42,3.04-1.32,5.96-2.51,8.78.2-.47.4-.94.59-1.4-1.8,4.21-4.16,8.16-6.94,11.79.31-.4.61-.79.92-1.19-2.89,3.72-6.22,7.07-9.94,9.97.4-.31.79-.61,1.19-.92-3.56,2.75-7.45,4.9-11.43,6.97-4.18,2.17-8.27,4.44-11.85,7.54-3.73,3.23-6.75,7.77-7.65,12.67-.56,3.02-.53,5.77-.08,8.79.37,2.51,1.26,4.85,2.31,7.15,2.09,4.59,5.6,8.48,9.72,11.34,4.29,2.98,9.43,4.29,14.56,4.83,4.8.5,9.69-.04,14.41-.94,4.14-.79,8.07-2.05,11.86-3.91,6.53-3.19,12.04-8.07,17.68-12.57.66-.53,1.32-1.05,1.99-1.56-.4.31-.79.61-1.19.92,3.49-2.68,7.14-5.19,11.22-6.9-.47.2-.94.4-1.4.59,2.35-.97,4.79-1.66,7.3-2.01-.52.07-1.04.14-1.56.21,2.65-.35,5.31-.31,7.95.03-.52-.07-1.04-.14-1.56-.21,2.59.36,5.1,1.01,7.52,2.02-.47-.2-.94-.4-1.4-.59,2.19.94,4.26,2.13,6.16,3.57-.4-.31-.79-.61-1.19-.92,1.81,1.4,3.44,3,4.83,4.81-.31-.4-.61-.79-.92-1.19,1.18,1.56,2.17,3.23,2.94,5.03l-.59-1.4c.16.38.3.76.44,1.14.53,1.46,1.32,2.7,2.7,3.51,1.26.74,3.12,1.05,4.53.59,2.83-.92,5.23-4.14,4.11-7.23-1.22-3.34-2.85-6.17-5.04-8.95-1.89-2.39-4.19-4.36-6.67-6.12-4.95-3.52-10.79-5.29-16.77-5.92-9.5-1.01-18.52,2.53-26.12,8-4.14,2.98-8,6.3-12.02,9.42.4-.31.79-.61,1.19-.92-3.69,2.85-7.55,5.49-11.86,7.33.47-.2.94-.4,1.4-.59-3.7,1.56-7.67,2.43-11.64,2.98.52-.07,1.04-.14,1.56-.21-3.6.48-7.25.6-10.86.12.52.07,1.04.14,1.56.21-2.3-.32-4.54-.89-6.69-1.78.47.2.94.4,1.4.59-1.68-.72-3.26-1.62-4.72-2.72.4.31.79.61,1.19.92-1.52-1.19-2.87-2.56-4.06-4.08.31.4.61.79.92,1.19-1.23-1.61-2.24-3.36-3.04-5.22.2.47.4.94.59,1.4-.7-1.71-1.2-3.48-1.46-5.31.07.52.14,1.04.21,1.56-.2-1.58-.21-3.15,0-4.73-.07.52-.14,1.04-.21,1.56.2-1.35.55-2.65,1.07-3.92-.2.47-.4.94-.59,1.4.58-1.35,1.33-2.6,2.22-3.76-.31.4-.61.79-.92,1.19,1.18-1.51,2.57-2.83,4.08-4.01-.4.31-.79.61-1.19.92,3.28-2.53,7-4.38,10.66-6.28,4.16-2.16,8.03-4.58,11.72-7.48,7.18-5.65,13.16-13.15,16.99-21.44,2.37-5.12,4.13-10.58,4.12-16.28,0-5.72-1.9-11.07-5.68-15.37-3.43-3.9-8.72-6.58-13.97-6.46-5.53.13-10.29,3.1-14,7.01-1.72,1.81-3.24,3.79-4.83,5.7-1.68,2.02-3.4,4-5.18,5.94-3.68,4-7.62,7.76-11.92,11.1.4-.31.79-.61,1.19-.92-4.42,3.41-9.19,6.33-14.34,8.51.47-.2.94-.4,1.4-.59-4.07,1.7-8.32,2.93-12.7,3.54.52-.07,1.04-.14,1.56-.21-3.59.48-7.22.53-10.82.07.52.07,1.04.14,1.56.21-2.96-.41-5.85-1.16-8.61-2.32l1.4.59c-2.16-.93-4.19-2.08-6.06-3.51.4.31.79.61,1.19.92-1.56-1.22-2.98-2.61-4.2-4.18.31.4.61.79.92,1.19-1.05-1.4-1.92-2.91-2.6-4.52.2.47.4.94.59,1.4-.7-1.69-1.18-3.45-1.43-5.27.07.52.14,1.04.21,1.56-.21-1.63-.22-3.27-.02-4.9-.07.52-.14,1.04-.21,1.56.2-1.45.56-2.86,1.12-4.23-.2.47-.4.94-.59,1.4.55-1.29,1.25-2.48,2.1-3.59-.31.4-.61.79-.92,1.19.95-1.21,2.04-2.27,3.25-3.22-.4.31-.79.61-1.19.92,1.96-1.5,4.14-2.66,6.4-3.63-.47.2-.94.4-1.4.59,5.99-2.51,12.43-3.87,18.6-5.85,7-2.24,14-4.94,20.24-8.86,5.91-3.72,11.11-8.43,15.06-14.21,3.82-5.58,6.02-12.25,6.13-19.02.12-7.73-2.62-15.57-8.14-21.08-2.18-2.18-6.17-2.34-8.31,0-2.15,2.35-2.32,5.98,0,8.31h.01Z"/><path class="cls-3" d="M-82.8,492.81c-.65,3.87-.61,7.66.38,11.48.83,3.19,2.27,6.33,4.18,9.03,4.17,5.9,10.1,10.5,17.14,12.45,6.77,1.87,14.34,1.28,20.82-1.35,3.32-1.35,6.43-2.95,9.29-5.13,1.65-1.25,3.24-2.54,4.69-4.02,1.39-1.42,2.63-2.97,3.82-4.56,2.55-3.41,4.48-7.56,4.47-11.89-.01-4.57-2.33-9.39-6.44-11.64-8.6-4.7-17.7,2.56-21.32,10.19-1.65,3.48-2.55,6.96-2.92,10.79-.32,3.35.04,6.81.78,10.08,1.49,6.56,5.18,12.78,10.36,17.09,5.42,4.52,11.99,7.52,18.99,8.53,3.53.51,7.03.74,10.58.39,3.6-.36,7.14-1.03,10.56-2.23,7.11-2.49,13.46-6.44,19.09-11.42,2.47-2.18,4.75-4.56,6.85-7.09,2.45-2.95,4.93-6.05,6.48-9.59,1.08-2.46,1.78-4.8,1.95-7.51.12-1.89-.15-3.92-.78-5.71-1.52-4.35-4.79-8.19-9.47-9.25-2.39-.54-4.89-.5-7.26.19-2.41.7-4.45,1.92-6.38,3.49-3,2.45-5,6.02-6.55,9.51-6.23,14.05-12.06,30.17-6.89,45.49,2.33,6.91,6.47,13.02,12.57,17.13,6.41,4.31,14.39,5.16,21.84,3.78,7.11-1.32,13.74-5.09,18.92-10.07,5.2-4.99,9.13-11.28,12.03-17.84,1.51-3.42,2.86-6.91,4.02-10.47.95-2.92-1.11-6.55-4.11-7.23-3.23-.73-6.21.97-7.23,4.1-.86,2.63-1.81,5.23-2.88,7.79.2-.47.4-.94.59-1.4-2,4.72-4.43,9.27-7.56,13.34.31-.4.61-.79.92-1.19-2.03,2.62-4.34,5.02-6.96,7.06.4-.31.79-.61,1.19-.92-2.18,1.67-4.56,3.06-7.08,4.14l1.4-.59c-2.52,1.06-5.15,1.8-7.86,2.17.52-.07,1.04-.14,1.56-.21-2.24.28-4.5.3-6.74,0,.52.07,1.04.14,1.56.21-1.88-.27-3.71-.75-5.47-1.48.47.2.94.4,1.4.59-1.7-.72-3.29-1.65-4.76-2.77.4.31.79.61,1.19.92-1.58-1.23-2.98-2.65-4.21-4.23.31.4.61.79.92,1.19-1.48-1.93-2.69-4.04-3.65-6.27.2.47.4.94.59,1.4-1.17-2.78-1.95-5.7-2.35-8.69.07.52.14,1.04.21,1.56-.45-3.5-.35-7.04.11-10.54-.07.52-.14,1.04-.21,1.56,1.02-7.44,3.64-14.53,6.55-21.41-.2.47-.4.94-.59,1.4,1.27-3,2.53-6.05,4.53-8.64-.31.4-.61.79-.92,1.19.71-.89,1.49-1.71,2.39-2.41-.4.31-.79.61-1.19.92.75-.56,1.55-1.03,2.41-1.41-.47.2-.94.4-1.4.59.86-.36,1.73-.61,2.65-.74-.52.07-1.04.14-1.56.21.69-.08,1.38-.08,2.07,0-.52-.07-1.04-.14-1.56-.21.62.09,1.22.26,1.8.49-.47-.2-.94-.4-1.4-.59.53.24,1.03.53,1.49.88-.4-.31-.79-.61-1.19-.92.5.4.93.84,1.32,1.34-.31-.4-.61-.79-.92-1.19.46.62.84,1.28,1.14,1.99l-.59-1.4c.35.85.58,1.73.7,2.64-.07-.52-.14-1.04-.21-1.56.11.91.12,1.82,0,2.73.07-.52.14-1.04.21-1.56-.19,1.34-.56,2.62-1.08,3.87l.59-1.4c-1.05,2.42-2.56,4.58-4.16,6.65.31-.4.61-.79.92-1.19-3.26,4.19-6.98,8.01-11.18,11.26.4-.31.79-.61,1.19-.92-3.41,2.62-7.11,4.85-11.08,6.53l1.4-.59c-3.28,1.37-6.71,2.35-10.23,2.83.52-.07,1.04-.14,1.56-.21-3.34.44-6.72.44-10.06,0,.52.07,1.04.14,1.56.21-3.04-.42-6.01-1.2-8.84-2.38.47.2.94.4,1.4.59-2.48-1.05-4.82-2.38-6.96-4.02.4.31.79.61,1.19.92-1.78-1.39-3.39-2.96-4.79-4.73.31.4.61.79.92,1.19-1.37-1.78-2.5-3.73-3.38-5.8l.59,1.4c-.95-2.26-1.59-4.63-1.93-7.05.07.52.14,1.04.21,1.56-.31-2.34-.32-4.71-.02-7.05-.07.52-.14,1.04-.21,1.56.28-2.06.81-4.06,1.61-5.98-.2.47-.4.94-.59,1.4.71-1.67,1.62-3.24,2.72-4.69-.31.4-.61.79-.92,1.19.84-1.07,1.77-2.05,2.85-2.88-.4.31-.79.61-1.19.92.77-.58,1.58-1.07,2.47-1.45-.47.2-.94.4-1.4.59.66-.27,1.33-.46,2.04-.57-.52.07-1.04.14-1.56.21.56-.06,1.1-.07,1.66,0-.52-.07-1.04-.14-1.56-.21.49.08.95.2,1.41.38-.47-.2-.94-.4-1.4-.59.47.21.91.46,1.32.78-.4-.31-.79-.61-1.19-.92.4.32.75.69,1.08,1.09-.31-.4-.61-.79-.92-1.19.4.52.72,1.08.98,1.68-.2-.47-.4-.94-.59-1.4.28.68.47,1.37.58,2.09-.07-.52-.14-1.04-.21-1.56.11.84.1,1.67-.01,2.51.07-.52.14-1.04.21-1.56-.17,1.09-.48,2.13-.91,3.15.2-.47.4-.94.59-1.4-.75,1.72-1.78,3.29-2.92,4.77.31-.4.61-.79.92-1.19-1.78,2.3-3.85,4.35-6.15,6.14.4-.31.79-.61,1.19-.92-2.31,1.77-4.82,3.24-7.49,4.38.47-.2.94-.4,1.4-.59-2.46,1.02-5.03,1.75-7.67,2.12.52-.07,1.04-.14,1.56-.21-2.42.32-4.87.34-7.29.02.52.07,1.04.14,1.56.21-2.02-.28-3.97-.8-5.86-1.58.47.2.94.4,1.4.59-1.97-.83-3.81-1.91-5.51-3.21.4.31.79.61,1.19.92-1.74-1.35-3.31-2.9-4.67-4.64.31.4.61.79.92,1.19-1.29-1.67-2.38-3.49-3.22-5.43.2.47.4.94.59,1.4-.76-1.81-1.3-3.69-1.57-5.63.07.52.14,1.04.21,1.56-.22-1.69-.23-3.39-.01-5.08-.07.52-.14,1.04-.21,1.56.04-.26.08-.52.12-.79.27-1.6.26-3.08-.59-4.53-.71-1.22-2.11-2.38-3.51-2.7-1.51-.34-3.19-.27-4.53.59-1.21.78-2.45,2.03-2.7,3.51h.01Z"/><path class="cls-3" d="M161.48,530.69c1.51,0,3.09-.66,4.16-1.72,1.02-1.02,1.79-2.69,1.72-4.15-.14-3.18-2.58-5.88-5.88-5.88-1.51,0-3.09.66-4.16,1.72-1.07,1.07-1.79,2.69-1.72,4.15.14,3.18,2.58,5.88,5.88,5.88h0Z"/><path class="cls-3" d="M302.38,502.55c3.94,11.04,10.79,21.09,19.96,28.45,2.71,2.18,5.53,4.2,8.55,5.94,1.83,1.05,4.11,1.07,5.93,0,.88-.52,1.59-1.22,2.11-2.11.53-.92.8-1.9.8-2.97.09-.95.21-1.91.33-2.86-.07.52-.14,1.04-.21,1.56.97-7.09,2.89-14.02,5.66-20.62-.2.47-.4.94-.59,1.4,2.82-6.66,6.48-12.94,10.89-18.67-.31.4-.61.79-.92,1.19,3.75-4.84,8.03-9.26,12.77-13.13-3.28-1.91-6.55-3.81-9.82-5.72-2.34,11.9-1.69,24.27,1.83,35.88,3.48,11.49,9.57,22.18,17.77,30.96,4.56,4.88,9.86,9.15,15.6,12.57,1.8,1.07,4.13,1.06,5.93,0,1.65-.97,3.11-3.07,2.91-5.07-.88-8.93-.96-17.94-.22-26.88.21-2.54.49-5.08.82-7.61-.07.52-.14,1.04-.21,1.56,1.11-8.2,2.88-16.3,5.32-24.2-3.58.47-7.16.94-10.74,1.4,3.91,6.15,7.84,12.3,12.25,18.11,4.56,6.02,9.47,11.79,15.33,16.59,3.41,2.8,7.01,5.36,10.91,7.44,1.38.73,3,1.01,4.53.59,1.36-.38,2.84-1.43,3.51-2.7,1.44-2.72.79-6.5-2.11-8.04-2.87-1.53-5.59-3.31-8.17-5.29.4.31.79.61,1.19.92-5.76-4.45-10.69-9.83-15.14-15.57.31.4.61.79.92,1.19-4.73-6.13-8.93-12.65-13.07-19.18-1.28-2.01-3.47-3.12-5.86-2.8-2.34.31-4.19,1.95-4.89,4.21-4.69,15.18-7.01,31.19-6.85,47.08.04,4.4.29,8.79.72,13.17,2.95-1.69,5.9-3.38,8.85-5.07-2.2-1.31-4.32-2.75-6.36-4.32.4.31.79.61,1.19.92-4.59-3.54-8.68-7.68-12.23-12.25.31.4.61.79.92,1.19-3.84-4.97-7.01-10.43-9.46-16.21.2.47.4.94.59,1.4-2.48-5.91-4.2-12.13-5.05-18.48.07.52.14,1.04.21,1.56-.78-5.88-.81-11.83-.02-17.71-.07.52-.14,1.04-.21,1.56.17-1.27.38-2.54.63-3.79.26-1.33.24-2.55-.3-3.82-.48-1.13-1.29-2.22-2.41-2.81-.92-.49-1.92-.75-2.97-.8-1.61-.07-2.97.75-4.16,1.72-6.86,5.61-12.76,12.4-17.59,19.82-4.85,7.45-8.57,15.73-10.97,24.28-1.41,5.01-2.29,10.16-2.81,15.34,2.95-1.69,5.9-3.38,8.84-5.07-2.26-1.3-4.43-2.75-6.5-4.35.4.31.79.61,1.19.92-3.96-3.07-7.51-6.63-10.57-10.59.31.4.61.79.92,1.19-3.05-3.97-5.6-8.3-7.55-12.91l.59,1.4c-.42-1-.81-2.02-1.18-3.04-.52-1.46-1.33-2.71-2.7-3.51-1.26-.74-3.12-1.05-4.53-.59-1.42.46-2.8,1.34-3.51,2.7-.71,1.34-1.12,3.05-.59,4.53h0Z"/></g></g></svg>