<?xml version="1.0" encoding="UTF-8"?><svg id="Layer_2" xmlns="http://www.w3.org/2000/svg" xmlns:xlink="http://www.w3.org/1999/xlink" viewBox="0 0 689.13 537.45"><defs><style>.cls-1{fill:none;}.cls-2{fill:#dd9bcf;}.cls-3{fill:#f2b2e2;}.cls-4{clip-path:url(#clippath);}.cls-5{opacity:.5;}</style><clipPath id="clippath"><rect class="cls-1" width="689.13" height="537.45" rx="43.68" ry="43.68"/></clipPath></defs><g id="Layer_1-2"><rect class="cls-3" width="689.13" height="537.45" rx="43.68" ry="43.68"/><g class="cls-5"><g class="cls-4"><path class="cls-2" d="M309.94-22.25c-9.66,1.78-18.96,5.18-27.82,9.37-9.02,4.27-17.52,9.59-25.42,15.68-8.52,6.56-16.43,13.8-23.41,21.98-6.82,8-12.91,16.69-17.62,26.11-4.51,9.02-7.99,18.66-9.51,28.65-.25,1.67-.48,3.34-.66,5.02.08.62.16,1.23.25,1.85.23.55.47,1.11.7,1.66.76,1.31,1.94,2.26,3.32,2.84,1.18.5,2.33.64,3.6.47,1.62-.22,2.72-.87,3.99-1.91,1.94-1.6,3.91-3.16,5.9-4.7-.47.36-.94.72-1.41,1.09,13.57-10.46,28.21-19.54,43.6-27.08,4.35-2.13,8.76-4.14,13.22-6.02-.55.23-1.11.47-1.66.7,16.4-6.91,33.5-12.14,50.97-15.55,4.94-.96,9.9-1.78,14.89-2.44-.62.08-1.23.16-1.85.25,6.28-.84,12.59-1.44,18.92-1.8-1.17-4.31-2.34-8.63-3.51-12.94-13.47,6.77-26.07,15.03-37.85,24.41-11.37,9.06-21.81,19.29-31.08,30.49-5.53,6.68-10.7,13.65-15.42,20.92-.84,1.29-1.02,2.95-.83,4.43.2,1.46.79,2.96,1.91,3.99,2.24,2.05,5.73,2.76,8.42,1.09,5.59-3.48,11.45-6.52,17.51-9.08-.55.23-1.11.47-1.66.7,10.36-4.36,21.28-7.33,32.41-8.83-.62.08-1.23.16-1.85.25,6.82-.9,13.7-1.25,20.57-1.03,3.64.12,7.11-3.28,6.95-6.95-.17-3.87-3.05-6.82-6.95-6.94-10.2-.33-20.44.61-30.44,2.61-10.06,2.01-19.78,5.3-29.11,9.53-4.98,2.26-9.81,4.85-14.45,7.74,3.17,3.17,6.34,6.34,9.51,9.5,3.13-4.82,6.45-9.51,9.96-14.05-.36.47-.73.94-1.09,1.4,8.57-11.07,18.24-21.29,28.82-30.45,2.99-2.59,6.04-5.08,9.17-7.5-.47.36-.94.72-1.41,1.09,8.24-6.36,16.95-12.11,26.05-17.18,2.59-1.44,5.21-2.83,7.85-4.15.47-.36.94-.73,1.41-1.09.68-.63,1.16-1.37,1.44-2.23.58-1.38.83-3.06.35-4.52-.37-1.14-.97-2.18-1.79-3.06-1.11-1.21-3.27-2.13-4.91-2.03-11.03.63-22.04,1.98-32.91,3.98-10.35,1.9-20.59,4.44-30.63,7.6-10.53,3.31-20.83,7.31-30.89,11.86-9.59,4.34-18.92,9.27-27.9,14.75-9.42,5.75-18.42,12.12-27.05,18.99-1.02.81-2.04,1.63-3.04,2.46,3.95,1.64,7.91,3.27,11.86,4.91.07-.61.14-1.21.22-1.81-.08.62-.16,1.23-.25,1.85,1.04-7.68,3.21-15.16,6.21-22.3-.23.55-.47,1.11-.7,1.66,3.9-9.22,9.15-17.83,15.26-25.75-.36.47-.73.94-1.09,1.4,5.84-7.54,12.47-14.47,19.7-20.7,2.07-1.79,4.19-3.52,6.36-5.19-.47.36-.94.73-1.41,1.09,7.31-5.63,15.13-10.6,23.39-14.7,2.29-1.13,4.61-2.2,6.96-3.19-.55.23-1.11.47-1.66.7,6.83-2.87,13.93-5.12,21.23-6.47,1.63-.3,3.35-1.81,4.15-3.19.87-1.49,1.24-3.68.7-5.35-.54-1.68-1.59-3.3-3.19-4.15-1.73-.92-3.43-1.06-5.35-.7h0Z"/><path class="cls-2" d="M335.58-41.4c4.09.93,8.08,2.22,11.94,3.84-.55-.23-1.11-.47-1.66-.7,6.4,2.71,12.38,6.31,17.88,10.54-.47-.36-.94-.73-1.41-1.09,6.91,5.35,13.04,11.65,18.38,18.55-.36-.47-.73-.94-1.09-1.4,7.16,9.28,12.76,19.62,17.32,30.39-.23-.55-.47-1.11-.7-1.66,5.83,13.84,9.93,28.31,13.62,42.84,1.04,4.08,2.04,8.16,3.04,12.24.66,2.67,3.14,4.62,5.78,4.97,2.6.35,5.68-.85,6.92-3.32,7.44-14.72,12.96-30.43,16.23-46.6,3.28-16.23,4.54-32.91,3.46-49.44-.62-9.5-1.96-18.99-4.01-28.29-3.87,2.25-7.74,4.51-11.62,6.76,4.69,4.19,8.96,8.81,12.81,13.79-.36-.47-.73-.94-1.09-1.4,5.7,7.41,10.4,15.55,14.04,24.15-.23-.55-.47-1.11-.7-1.66,3.85,9.16,6.49,18.8,7.83,28.65-.08-.62-.16-1.23-.25-1.85,1.27,9.5,1.32,19.15.05,28.66.08-.62.16-1.23.25-1.85-.58,4.26-1.42,8.48-2.53,12.64-.47,1.75-.22,3.78.7,5.35.84,1.44,2.5,2.81,4.15,3.19,3.65.83,7.55-1.09,8.55-4.85,4.31-16.13,4.69-33,1.8-49.4-2.76-15.71-8.89-31.06-17.77-44.32-5.13-7.66-11.14-14.77-18.02-20.92-2.23-1.99-5.75-2.81-8.42-1.09-2.69,1.73-3.88,4.72-3.19,7.84,1.06,4.8,1.92,9.64,2.57,14.51-.08-.62-.16-1.23-.25-1.85,1.65,12.37,1.99,24.9,1.05,37.35-.27,3.51-.64,7.01-1.1,10.49.08-.62.16-1.23.25-1.85-1.66,12.27-4.56,24.37-8.7,36.04-1.17,3.32-2.45,6.59-3.82,9.83.23-.55.47-1.11.7-1.66-1.54,3.64-3.2,7.22-4.98,10.75,4.23.55,8.47,1.11,12.7,1.66-2.6-10.6-5.22-21.21-8.37-31.67-3.27-10.89-7.17-21.61-12.05-31.89-4.44-9.36-9.86-18.08-16.3-26.19-6.1-7.68-13.21-14.43-21.17-20.16-7.78-5.6-16.61-9.96-25.86-12.52-1.1-.3-2.2-.58-3.3-.83-1.81-.41-3.73-.25-5.35.7-1.44.84-2.82,2.49-3.19,4.15-.41,1.78-.32,3.77.7,5.35.96,1.48,2.38,2.79,4.15,3.19h0Z"/><path class="cls-2" d="M229.33,122.72c.18,19.88,7.51,39.09,20.09,54.41,6.44,7.84,14.45,14.81,24.11,18.29,5.1,1.84,10.87,2.29,16.13.86,4.8-1.3,9.28-4.21,12.44-8.04,3.57-4.32,6.05-9.26,7.62-14.64,1.73-5.9,2.2-12.12,3.01-18.18-.08.62-.16,1.23-.25,1.85.46-3.4,1.01-6.8,1.95-10.11.22-.79.47-1.57.74-2.35.11-.32.24-.64.36-.97.43-1.25-.67,1.45-.14.33.59-1.27,1.25-2.51,2.01-3.69.37-.57.77-1.1,1.16-1.66-1.32,1.88.03.02.43-.42.45-.49.92-.96,1.4-1.41.26-.24.53-.48.81-.71.54-.46,1.21-.58-.28.21.56-.3,1.07-.74,1.62-1.07.55-.32,1.16-.55,1.7-.88-1.52.93-1.05.42-.38.19.32-.11.65-.22.99-.31.67-.19,1.34-.32,2.02-.42-.62.08-1.23.16-1.85.25,1.28-.15,2.54-.14,3.82.02-.62-.08-1.23-.16-1.85-.25.86.13,1.71.32,2.54.59.29.1,1.61.62.37.1-1.26-.53.32.19.6.34.71.39,1.36.84,2.02,1.3.68.46-1.24-1.05-.64-.49.12.11.25.21.38.31.42.36.82.72,1.21,1.11.56.55,1.09,1.12,1.6,1.71.3.34.56.72.87,1.05-1.52-1.66-.29-.38.06.11,1.06,1.47,2.02,3.01,2.93,4.58,1.87,3.23,3.41,6.64,5.3,9.86,2.13,3.63,4.66,7.17,7.68,10.1,3.15,3.06,7.06,5.68,11.38,6.72,4.85,1.17,9.7.54,14.16-1.61,7.3-3.52,11.69-11.77,13.42-19.35,2.22-9.76.05-19.7,1.34-29.53-.08.62-.16,1.23-.25,1.85.2-1.37.45-2.73.82-4.06.16-.6.35-1.19.56-1.78.1-.27.36-.68.36-.98,0,.47-.62,1.39-.11.31.5-1.05,1.08-2.06,1.74-3.01.11-.16.87-1.16.1-.18-.74.95-.04.06.14-.15.39-.46.8-.91,1.23-1.34.38-.39.79-.76,1.2-1.12.21-.19.44-.45.7-.58-.36.19-1.31.98-.39.31.94-.67,1.92-1.28,2.94-1.8.27-.14.54-.27.82-.4,1.05-.49-.17-.02-.49.2.45-.3,1.19-.44,1.71-.6,1.14-.35,2.3-.59,3.49-.76-.62.08-1.23.16-1.85.25,2.07-.27,4.15-.32,6.23-.06-.62-.08-1.23-.16-1.85-.25,1.35.19,2.68.49,3.96.94.09.03.85.24.86.33,0,.07-1.8-.81-1.03-.43.14.07.28.13.42.19.58.27,1.15.58,1.7.9.52.31,1.03.63,1.52.98.25.17.49.36.73.53.61.43-1.45-1.15-.87-.67.15.12.3.24.44.36.98.8,1.91,1.66,2.8,2.56,3.72,3.75,6.79,8.08,10.38,11.95,4.28,4.62,9.4,8.48,15.49,10.35,8.18,2.51,17.22,1,24.65-2.98,8.81-4.71,15.87-13.52,17.82-23.39.36-1.85.28-3.68-.7-5.35-.84-1.44-2.5-2.81-4.15-3.19-3.44-.78-7.8,1.04-8.55,4.85-.27,1.36-.63,2.7-1.11,4-.08.22-.16.43-.25.65.15-.34.29-.68.44-1.02-.17.23-.31.68-.43.94-.3.62-.62,1.24-.97,1.83-.35.6-.71,1.19-1.1,1.76-.2.29-.4.57-.6.85-.77,1.09,1.09-1.33.24-.31-.89,1.07-1.83,2.09-2.85,3.04-.51.47-1.04.92-1.58,1.36-.93.77,1.36-.98.3-.24-.29.2-.57.41-.85.6-1.15.78-2.35,1.48-3.6,2.09-.31.15-.63.29-.94.44-1.1.51,1.6-.6.38-.17-.6.21-1.19.44-1.8.62-1.38.43-2.78.73-4.21.94.62-.08,1.23-.16,1.85-.25-2.17.29-4.36.31-6.53.04.62.08,1.23.16,1.85.25-1.59-.21-3.14-.58-4.65-1.13-.33-.12-1.66-.67-.29-.1,1.37.57.06,0-.25-.15-.7-.35-1.39-.73-2.06-1.15-.6-.37-1.17-.78-1.74-1.19-1.18-.85,1.38,1.13.39.3-.33-.28-.66-.55-.99-.83-1.1-.96-2.13-1.99-3.13-3.05-4.08-4.36-7.48-9.34-11.87-13.42-5.57-5.18-12.41-8.5-20.13-8.49-10.7.01-21.24,5.91-26.3,15.46-3.21,6.06-4.11,12.87-4.13,19.64-.01,5.76.63,11.58-.09,17.31.08-.62.16-1.23.25-1.85-.29,2.18-.77,4.32-1.47,6.4-.17.52-.37,1.03-.56,1.54-.39,1.05.63-1.35.26-.61-.12.24-.22.49-.34.73-.46.95-.97,1.88-1.55,2.77-.36.56-1.55,1.86,0,.1-.34.38-.64.78-.99,1.16-.34.36-.7.72-1.07,1.05-.15.13-.3.26-.45.39-.86.77,1.18-.8.58-.45-.42.25-.81.55-1.24.79-.31.17-1.93.91-.63.36,1.29-.55-.39.09-.73.18-.55.15-1.1.25-1.66.33.62-.08,1.23-.16,1.85-.25-1.22.15-2.42.15-3.64,0,.62.08,1.23.16,1.85.25-.75-.11-1.48-.27-2.2-.5-.31-.1-.6-.24-.91-.32,2,.53.83.36.18.03-.68-.35-1.34-.75-1.98-1.19-.14-.1-.27-.2-.41-.29-.68-.47,1.24,1,.6.47-.31-.26-.62-.5-.91-.77-1.27-1.13-2.43-2.38-3.5-3.7-.05-.05-.35-.36-.34-.42,0-.06.94,1.25.54.69-.25-.34-.5-.68-.74-1.02-.52-.74-1.02-1.5-1.51-2.27-3.52-5.61-5.94-11.79-10.01-17.08-2.5-3.25-5.21-6.16-8.73-8.35-3.42-2.13-7.56-3.33-11.59-3.3-8.91.05-16.4,5.8-21.15,12.94-5.6,8.41-6.28,18.81-7.58,28.52.08-.62.16-1.23.25-1.85-.44,3.27-.95,6.55-1.85,9.74-.39,1.37-.87,2.71-1.38,4.05-.47,1.23.67-1.46.14-.35-.15.32-.3.65-.45.97-.33.69-.69,1.36-1.08,2.02-.35.6-.72,1.2-1.12,1.77-.2.29-.4.57-.61.85-.43.59,1.18-1.45.23-.33-.88,1.05-1.86,1.98-2.91,2.86-.56.47,1.52-1.11.32-.28-.28.19-.56.38-.85.55-.59.36-1.2.66-1.81.96-.62.3,1.77-.68.36-.17-.37.13-.74.25-1.11.36-.8.23-1.62.38-2.44.5.62-.08,1.23-.16,1.85-.25-1.65.2-3.28.18-4.92-.01.62.08,1.23.16,1.85.25-1.15-.16-2.28-.39-3.4-.7-.57-.16-1.12-.34-1.68-.54-.31-.11-.62-.23-.93-.35-1.21-.44,1.45.69.2.08-2.2-1.06-4.29-2.23-6.29-3.63-.44-.31-2.13-1.83-.55-.36-.39-.36-.84-.67-1.25-1.01-1.01-.84-1.99-1.73-2.94-2.64-1.7-1.62-3.33-3.32-4.88-5.09-.77-.88-1.53-1.79-2.26-2.71-.16-.2-.32-.42-.48-.62,1.25,1.44.55.71.25.32-.43-.57-.86-1.15-1.27-1.74-1.36-1.92-2.64-3.9-3.82-5.93-1.22-2.09-2.35-4.23-3.37-6.42-.25-.53-.49-1.07-.73-1.6-.1-.24-.21-.48-.31-.72-.56-1.28.52,1.28.17.39-.46-1.15-.92-2.31-1.34-3.48-1.85-5.17-3.16-10.52-3.91-15.96.08.62.16,1.23.25,1.85-.43-3.24-.67-6.5-.7-9.77-.03-3.63-3.17-7.11-6.95-6.95-3.74.17-6.98,3.05-6.95,6.95h0Z"/><path class="cls-2" d="M402.5,243.48c-.07-6.18.3-12.36,1.11-18.49-.08.62-.16,1.23-.25,1.85,1.56-11.61,4.68-22.99,9.24-33.78l-.7,1.66c4.32-10.18,9.9-19.8,16.66-28.56-.36.47-.73.94-1.09,1.4.67-.87,1.35-1.73,2.21-2.42-.47.36-.94.72-1.41,1.09.33-.24.66-.44,1.03-.61-.55.23-1.11.47-1.66.7.31-.11.6-.19.92-.24-.62.08-1.23.16-1.85.25.26-.02.51-.02.77,0-.62-.08-1.23-.16-1.85-.25.3.05.58.12.86.24-.55-.23-1.11-.47-1.66-.7.27.13.52.28.76.46-.47-.36-.94-.72-1.41-1.09.29.24.55.51.79.8-.36-.47-.73-.94-1.09-1.4.42.55.74,1.14,1.02,1.77l-.7-1.66c.98,2.32,1.18,4.86,1.58,7.32.49,3.01,1.03,6.02,1.62,9.02,1.17,5.99,2.54,11.95,4.09,17.86,3.09,11.76,6.94,23.33,11.5,34.61,2.76,6.83,5.74,13.58,8.97,20.2.48.97,1.57,1.95,2.49,2.49,1.35.79,2.9,1.03,4.43.83,1.25-.17,2.29-.6,3.29-1.37,1.11-.86,2.22-2.18,2.49-3.61,3.28-17.61,8.04-34.94,14.21-51.75,1.74-4.74,3.59-9.43,5.56-14.08-.23.55-.47,1.11-.7,1.66,4.7-11.12,10.01-21.98,15.93-32.5,1.7-3.02,3.45-6.01,5.24-8.97-4.23-.55-8.47-1.11-12.7-1.66,2.67,13.45,5.35,26.9,8.02,40.35,2.67,13.45,5.35,26.9,8.02,40.35,1.5,7.56,3.01,15.12,4.51,22.69.23.55.47,1.11.7,1.66.44.81,1.03,1.46,1.79,1.95,1.17.91,2.69,1.56,4.21,1.49,3.2-.14,5.68-2.09,6.7-5.1,5.49-16.16,10.98-32.32,16.47-48.48,1.56-4.59,3.12-9.17,4.67-13.76.56-1.65.16-3.89-.7-5.35-.84-1.44-2.5-2.81-4.15-3.19-3.85-.88-7.3,1.16-8.55,4.85-5.49,16.16-10.98,32.32-16.47,48.48-1.56,4.59-3.12,9.17-4.67,13.76h13.4c-2.67-13.45-5.35-26.9-8.02-40.35-2.67-13.45-5.35-26.9-8.02-40.35-1.5-7.56-3.01-15.12-4.51-22.69l-.7-1.66c-.36-.47-.73-.94-1.09-1.4-1.09-1.09-2.48-1.71-3.99-1.91-2.76-.37-5.47.91-6.92,3.32-7.8,12.86-14.69,26.27-20.6,40.11-6.11,14.3-11.32,28.96-15.38,43.98-2.22,8.22-4.11,16.52-5.67,24.89,4.23-.55,8.47-1.11,12.7-1.66-2.33-4.76-4.52-9.58-6.58-14.45l.7,1.66c-4.83-11.45-8.92-23.2-12.23-35.17-1.67-6.03-3.14-12.12-4.41-18.25-.63-3.04-1.21-6.09-1.74-9.15-.48-2.78-.72-5.66-1.43-8.39-.92-3.55-2.81-6.86-5.95-8.87-2.26-1.45-4.89-1.61-7.46-1.19-2.19.36-4.32,1.8-5.83,3.38-1.3,1.35-2.38,2.93-3.5,4.42-.84,1.12-1.67,2.26-2.47,3.41-1.64,2.34-3.2,4.73-4.68,7.18-6.18,10.23-11.03,21.37-14.36,32.84-3.33,11.45-5.16,23.43-5.41,35.35-.03,1.4-.03,2.81-.02,4.21.02,1.79.76,3.64,2.04,4.91,1.2,1.2,3.18,2.11,4.91,2.03,3.73-.17,7-3.05,6.95-6.94h0Z"/><path class="cls-2" d="M355.1,220.69c-4.41,3.38-8.47,7.05-11.97,11.38-3.49,4.3-6.58,8.86-9.05,13.83-4.97,10.01-7.83,20.93-8.23,32.12-.4,11.2,1.92,22.4,6.73,32.51,4.39,9.22,11.58,17.36,20.6,22.27,8.7,4.73,18.85,6.63,28.68,5.65,11.18-1.12,21.95-5.04,31.39-11.14,9.93-6.41,18.4-14.96,24.65-24.98,1.42-2.28,2.71-4.64,3.86-7.06,1.33-2.8,2.62-5.71,3.19-8.78.64-3.42.9-7.17-.4-10.48-.84-2.14-1.88-4.06-3.56-5.69-1.65-1.59-3.44-2.6-5.56-3.39-3.19-1.19-6.97-.93-10.2-.08-3.02.8-5.98,2.22-8.59,3.94-2.64,1.74-5.11,3.8-7.5,5.86-2.15,1.84-4.21,3.78-6.19,5.8-8.12,8.29-14.99,17.96-20.03,28.41-2.64,5.46-4.89,11.14-6.61,16.96-1.77,6.03-3.27,12.4-3.38,18.7-.19,11.58,5.7,23.15,15.45,29.5,3.37,2.2,7.37,3.68,11.35,4.27,2.37.35,4.71.6,7.1.54,2.45-.06,4.9-.39,7.32-.79,3.99-.67,7.89-1.87,11.65-3.38,4.51-1.81,8.88-3.91,13.07-6.38,7.59-4.49,14.75-9.97,21-16.19,2.85-2.84,5.46-5.9,7.82-9.16,3.61-4.97,6.13-11.83,4.44-17.98-.58-2.12-1.68-3.97-3.13-5.6-1.52-1.71-3.45-2.76-5.55-3.57-.55-.21-1.1-.35-1.68-.44-1.16-.18-2.32-.37-3.5-.28-1.79.14-3.58.42-5.25,1.08-3.6,1.41-6.65,3.34-9.55,5.9-2.2,1.94-4.29,4.01-6.28,6.17-4.39,4.78-8.34,10.04-11.66,15.62-3.19,5.36-5.92,11.13-7.57,17.16-1.74,6.37-2.27,13.06-.9,19.55,1.28,6.07,4.74,11.92,9.63,15.78,1.42,1.12,2.85,2.21,4.43,3.09,1.55.87,3.2,1.56,4.85,2.21,2.97,1.17,6.08,1.71,9.24,2.05,6.03.64,12.36-.56,17.93-2.86,3.06-1.26,6-2.67,8.79-4.45,2.85-1.82,5.55-3.9,8.11-6.1,1.29-1.11,2.04-3.26,2.04-4.91s-.76-3.74-2.04-4.91c-1.32-1.22-3.06-2.12-4.91-2.03-1.92.09-3.45.78-4.91,2.03-.88.75-1.77,1.48-2.68,2.19.47-.36.94-.72,1.41-1.09-3.36,2.58-6.99,4.8-10.89,6.46.55-.23,1.11-.47,1.66-.7-3,1.26-6.12,2.16-9.34,2.61.62-.08,1.23-.16,1.85-.25-2.59.34-5.18.35-7.77.02.62.08,1.23.16,1.85.25-2.53-.35-4.99-1-7.34-2,.55.23,1.11.47,1.66.7-1.93-.83-3.74-1.88-5.41-3.15.47.36.94.72,1.41,1.09-1.45-1.13-2.75-2.42-3.89-3.87.36.47.73.94,1.09,1.4-1.12-1.47-2.04-3.07-2.77-4.77.23.55.47,1.11.7,1.66-.81-1.96-1.33-4.01-1.62-6.11.08.62.16,1.23.25,1.85-.35-2.78-.28-5.57.08-8.34-.08.62-.16,1.23-.25,1.85.58-4.15,1.78-8.16,3.39-12.02-.23.55-.47,1.11-.7,1.66,2.66-6.31,6.31-12.23,10.48-17.65-.36.47-.73.94-1.09,1.4,3.62-4.67,7.72-9.3,12.41-12.94-.47.36-.94.73-1.41,1.09,1.43-1.08,2.95-2.03,4.59-2.75-.55.23-1.11.47-1.66.7,1.1-.46,2.22-.81,3.41-.98-.62.08-1.23.16-1.85.25.71-.08,1.42-.1,2.13-.02-.62-.08-1.23-.16-1.85-.25.62.09,1.21.25,1.79.48-.55-.23-1.11-.47-1.66-.7.52.24.99.52,1.45.87-.47-.36-.94-.72-1.41-1.09.42.34.79.71,1.13,1.14-.36-.47-.73-.94-1.09-1.4.35.46.63.95.86,1.48-.23-.55-.47-1.11-.7-1.66.24.6.39,1.22.48,1.86-.08-.62-.16-1.23-.25-1.85.1.9.08,1.79-.04,2.69.08-.62.16-1.23.25-1.85-.21,1.44-.65,2.83-1.21,4.17.23-.55.47-1.11.7-1.66-.91,2.11-2.15,4.02-3.54,5.84.36-.47.73-.94,1.09-1.4-4.31,5.58-9.59,10.42-15.16,14.72.47-.36.94-.72,1.41-1.09-6.36,4.89-13.27,9.14-20.68,12.26.55-.23,1.11-.47,1.66-.7-4.52,1.89-9.24,3.36-14.11,4.03.62-.08,1.23-.16,1.85-.25-3.01.4-6.05.47-9.06.07.62.08,1.23.16,1.85.25-2.18-.3-4.31-.86-6.34-1.7.55.23,1.11.47,1.66.7-1.83-.78-3.55-1.77-5.12-2.99.47.36.94.72,1.41,1.09-1.68-1.31-3.17-2.84-4.47-4.52.36.47.73.94,1.09,1.4-1.6-2.1-2.93-4.4-3.95-6.83.23.55.47,1.11.7,1.66-.89-2.17-1.5-4.42-1.82-6.75.08.62.16,1.23.25,1.85-.37-2.91-.27-5.84.1-8.74-.08.62-.16,1.23-.25,1.85,1.06-7.88,3.48-15.69,6.55-23.01l-.7,1.66c3.45-8.16,7.95-15.85,13.36-22.87-.36.47-.73.94-1.09,1.4,5.21-6.71,11.23-12.76,17.95-17.96-.47.36-.94.72-1.41,1.09,1.98-1.52,4.07-2.84,6.37-3.83-.55.23-1.11.47-1.66.7,1.46-.61,2.96-1.07,4.53-1.29-.62.08-1.23.16-1.85.25.92-.11,1.84-.12,2.77,0-.62-.08-1.23-.16-1.85-.25.74.11,1.45.3,2.15.59-.55-.23-1.11-.47-1.66-.7.56.26,1.07.56,1.56.93-.47-.36-.94-.72-1.41-1.09.5.4.95.85,1.36,1.35-.36-.47-.73-.94-1.09-1.4.42.57.77,1.16,1.05,1.81l-.7-1.66c.29.73.48,1.48.59,2.25-.08-.62-.16-1.23-.25-1.85.15,1.22.11,2.44-.05,3.66.08-.62.16-1.23.25-1.85-.31,2.11-.95,4.14-1.78,6.1.23-.55.47-1.11.7-1.66-2.3,5.32-5.33,10.33-8.87,14.91.36-.47.73-.94,1.09-1.4-3.79,4.87-8.17,9.25-13.05,13.03.47-.36.94-.72,1.41-1.09-4.82,3.71-10.08,6.81-15.68,9.19.55-.23,1.11-.47,1.66-.7-4.91,2.07-10.06,3.56-15.34,4.29.62-.08,1.23-.16,1.85-.25-4.28.57-8.61.63-12.9.07.62.08,1.23.16,1.85.25-3.67-.5-7.26-1.46-10.67-2.9.55.23,1.11.47,1.66.7-3.07-1.31-5.96-3-8.61-5.03.47.36.94.72,1.41,1.09-2.81-2.18-5.32-4.71-7.5-7.51.36.47.73.94,1.09,1.4-2.62-3.4-4.74-7.15-6.42-11.09l.7,1.66c-2.1-5-3.51-10.26-4.25-15.63.08.62.16,1.23.25,1.85-.79-5.95-.76-11.98.03-17.93-.08.62-.16,1.23-.25,1.85.85-6.21,2.51-12.28,4.95-18.05-.23.55-.47,1.11-.7,1.66,2.29-5.37,5.23-10.45,8.8-15.08-.36.47-.73.94-1.09,1.4,3.28-4.22,7.06-8.03,11.29-11.3-.47.36-.94.72-1.41,1.09.06-.05.13-.1.2-.15,1.5-1.15,2.67-2.25,3.19-4.15.46-1.66.25-3.88-.7-5.35-.96-1.48-2.38-2.79-4.15-3.19-1.69-.38-3.91-.41-5.35.7h0Z"/><path class="cls-2" d="M334.59,201.13c1.78,0,3.65-.78,4.91-2.03,1.2-1.2,2.11-3.18,2.04-4.91-.17-3.76-3.05-6.95-6.95-6.95-1.78,0-3.65.78-4.91,2.03-1.2,1.2-2.11,3.18-2.04,4.91.17,3.76,3.05,6.94,6.95,6.94h0Z"/><path class="cls-2" d="M380.25,65.73c1.78,0,3.65-.78,4.91-2.03,1.26-1.26,2.11-3.18,2.04-4.91-.17-3.76-3.05-6.95-6.95-6.95-1.78,0-3.65.78-4.91,2.03-1.26,1.26-2.11,3.18-2.04,4.91.17,3.76,3.05,6.95,6.95,6.95h0Z"/><path class="cls-2" d="M480.39,284.3c1.78,0,3.65-.78,4.91-2.03,1.26-1.26,2.11-3.18,2.04-4.91-.17-3.76-3.05-6.95-6.95-6.95-1.78,0-3.65.78-4.91,2.03-1.2,1.2-2.11,3.18-2.04,4.91.17,3.76,3.05,6.95,6.95,6.95h0Z"/><path class="cls-2" d="M532.3,273.9c-8.04,10.62-15.14,21.95-21.18,33.83-3.14,6.16-6.08,12.48-8.57,18.93-2.19,5.7-3.67,11.62-4.14,17.72-.47,6.13.58,12.59,3.72,17.95,3.42,5.85,9.19,10.09,15.75,11.76,6.12,1.56,12.95,1.23,18.87-.98,6.38-2.38,11.97-6.38,16.57-11.37,4.46-4.85,8.11-10.4,11.37-16.11,3.28-5.73,6.27-11.64,9.93-17.15.89-1.35,1.83-2.67,2.81-3.96-.36.47-.73.94-1.09,1.4,1.8-2.32,3.88-4.42,6.2-6.23-.47.36-.94.72-1.41,1.09,1.91-1.47,3.97-2.74,6.19-3.7-.55.23-1.11.47-1.66.7,1.53-.64,3.11-1.11,4.75-1.35-.62.08-1.23.16-1.85.25,1.28-.17,2.56-.19,3.84-.03-.62-.08-1.23-.16-1.85-.25,1.14.16,2.23.46,3.3.9-.55-.23-1.11-.47-1.66-.7.96.42,1.85.94,2.69,1.56-.47-.36-.94-.72-1.41-1.09.95.74,1.79,1.59,2.53,2.55-.36-.47-.73-.94-1.09-1.4.83,1.11,1.5,2.3,2.05,3.57l-.7-1.66c.66,1.6,1.09,3.27,1.32,4.98-.08-.62-.16-1.23-.25-1.85.3,2.45.19,4.94-.13,7.39.08-.62.16-1.23.25-1.85-.53,3.87-1.68,7.59-3.2,11.18.23-.55.47-1.11.7-1.66-1.72,4.03-3.85,7.86-6.06,11.64-2.06,3.53-4.27,7-6.09,10.66-1.53,3.06-2.79,6.32-3.48,9.67-.69,3.32-1.11,6.83-.7,10.22.46,3.76,1.32,7.47,3.48,10.67,1.04,1.54,2.23,3.06,3.68,4.25.95.78,1.94,1.56,2.99,2.21,1.16.7,2.41,1.21,3.67,1.72,4.56,1.87,9.56,2.02,14.36,1.2,5.2-.89,9.88-3.56,13.98-6.76,9-7.01,13.44-17.95,17.64-28.17.64-1.55.11-3.98-.7-5.35-.84-1.44-2.5-2.81-4.15-3.19-1.78-.41-3.77-.32-5.35.7-.47.36-.94.73-1.41,1.09-.86.87-1.46,1.89-1.79,3.06-.51,1.23-1.01,2.47-1.53,3.69l.7-1.66c-2.29,5.42-4.82,10.78-8.42,15.47.36-.47.73-.94,1.09-1.4-1.73,2.22-3.67,4.22-5.9,5.95.47-.36.94-.73,1.41-1.09-1.83,1.39-3.81,2.58-5.93,3.49.55-.23,1.11-.47,1.66-.7-1.85.78-3.77,1.33-5.75,1.6.62-.08,1.23-.16,1.85-.25-1.64.21-3.28.22-4.92,0,.62.08,1.23.16,1.85.25-1.71-.24-3.38-.67-4.98-1.33.55.23,1.11.47,1.66.7-1.18-.51-2.3-1.14-3.32-1.92.47.36.94.73,1.41,1.09-.89-.7-1.68-1.5-2.38-2.39.36.47.73.94,1.09,1.4-.73-.97-1.33-2.01-1.81-3.13.23.55.47,1.11.7,1.66-.58-1.4-.95-2.86-1.17-4.36.08.62.16,1.23.25,1.85-.3-2.22-.24-4.45.05-6.67-.08.62-.16,1.23-.25,1.85.39-2.8,1.16-5.54,2.25-8.14l-.7,1.66c1.52-3.58,3.64-6.91,5.61-10.25,2.23-3.78,4.45-7.57,6.33-11.54,2.1-4.44,3.96-9.08,4.79-13.95.89-5.2,1.2-10.66-.4-15.76-1.66-5.29-5.02-10.24-9.99-12.94-4.81-2.6-10.35-3.07-15.61-1.67-4.93,1.31-9.3,4.1-13.14,7.38-3.8,3.24-6.79,7.33-9.48,11.5-5.79,8.95-10.01,18.86-16.55,27.32.36-.47.73-.94,1.09-1.4-2.49,3.2-5.28,6.16-8.49,8.65.47-.36.94-.73,1.41-1.09-2.19,1.67-4.55,3.12-7.09,4.2.55-.23,1.11-.47,1.66-.7-2.15.89-4.4,1.5-6.71,1.84.62-.08,1.23-.16,1.85-.25-2.3.31-4.62.33-6.92.03.62.08,1.23.16,1.85.25-1.87-.26-3.68-.73-5.42-1.45.55.23,1.11.47,1.66.7-1.51-.64-2.92-1.45-4.21-2.44.47.36.94.72,1.41,1.09-1.18-.93-2.23-1.99-3.15-3.17.36.47.73.94,1.09,1.4-.98-1.27-1.78-2.65-2.42-4.12.23.55.47,1.11.7,1.66-.77-1.83-1.26-3.74-1.54-5.7.08.62.16,1.23.25,1.85-.4-3.01-.3-6.04.11-9.05-.08.62-.16,1.23-.25,1.85.78-5.6,2.55-11,4.74-16.2-.23.55-.47,1.11-.7,1.66,5.68-13.42,12.64-26.28,20.79-38.36,2.29-3.39,4.67-6.72,7.14-9.98,1.01-1.34,1.12-3.82.7-5.35-.44-1.61-1.69-3.36-3.19-4.15-1.61-.85-3.57-1.28-5.35-.7-.55.23-1.11.47-1.66.7-1.05.62-1.88,1.45-2.49,2.49h0Z"/><path class="cls-2" d="M473,447.93c3.35-3.19,6.87-6.2,10.53-9.03-.47.36-.94.73-1.41,1.09,7.34-5.65,15.23-10.55,23.54-14.62,2.36-1.16,4.76-2.25,7.18-3.28-.55.23-1.11.47-1.66.7,8.86-3.74,18.1-6.58,27.54-8.43,2.67-.52,5.36-.97,8.05-1.33-.62.08-1.23.16-1.85.25,6.12-.82,12.28-1.23,18.45-1.21-1.17-4.31-2.34-8.63-3.51-12.94-9.05,5.99-17.41,13.08-24.68,21.15-7.26,8.06-13.62,17.01-18.66,26.61-2.96,5.63-5.5,11.5-7.62,17.5-.08.62-.16,1.23-.25,1.85.08.62.16,1.23.25,1.85.4,1.46,1.31,2.69,2.49,3.61,1,.77,2.04,1.2,3.29,1.37,1.43.19,3.21.04,4.43-.83,8.44-5.96,17.5-10.98,27.02-14.99-.55.23-1.11.47-1.66.7,9.04-3.79,18.44-6.68,28.06-8.56,2.77-.54,5.55-1,8.34-1.38-.62.08-1.23.16-1.85.25,1.99-.26,3.98-.49,5.98-.67-1.64-3.95-3.28-7.91-4.91-11.86-8.07,10.26-15.02,21.27-20.42,33.16-1.67,3.66-3.22,7.38-4.64,11.14-.6,1.6-.13,3.93.7,5.35.84,1.44,2.5,2.81,4.15,3.19,1.78.41,3.77.32,5.35-.7,1.6-1.03,2.52-2.37,3.19-4.15.73-1.92,1.49-3.83,2.29-5.72-.23.55-.47,1.11-.7,1.66,4.05-9.55,9.04-18.69,14.9-27.25,1.66-2.42,3.39-4.79,5.18-7.12-.36.47-.73.94-1.09,1.4.3-.39.6-.77.9-1.16.75-.95,1.46-1.87,1.79-3.06.42-1.51.25-3.1-.35-4.52-.48-1.14-1.16-2.02-2.14-2.78-1.13-.87-2.74-1.63-4.21-1.49-10.28.94-20.48,2.83-30.36,5.84-9.84,3-19.43,7.01-28.45,11.93-4.87,2.65-9.58,5.59-14.11,8.79,3.4,2.61,6.81,5.23,10.21,7.84.79-2.23,1.64-4.42,2.56-6.6-.23.55-.47,1.11-.7,1.66,4.12-9.75,9.51-18.92,15.98-27.3-.36.47-.73.94-1.09,1.4,6.38-8.23,13.76-15.64,21.99-22.02-.47.36-.94.73-1.41,1.09,2.35-1.81,4.77-3.55,7.25-5.18,2.49-1.65,4.17-4.82,3.19-7.84-.95-2.93-3.55-5.09-6.7-5.1-14.29-.04-28.68,2.12-42.34,6.3-13.6,4.17-26.72,10.29-38.54,18.2-6.85,4.59-13.36,9.75-19.34,15.44-2.64,2.51-2.72,7.33,0,9.82,2.83,2.6,7.01,2.68,9.83,0h0Z"/><path class="cls-2" d="M720.92,228.04c-5.78-8.24-12.24-16.02-19.37-23.12-7.1-7.07-14.87-13.49-23.05-19.27-7.82-5.52-16.1-10.38-24.73-14.52-9.04-4.34-18.45-7.99-28.09-10.75-9.71-2.79-19.67-4.63-29.72-5.67-1.19-.12-2.38-.23-3.57-.33-.62.08-1.23.16-1.85.25-.9.21-1.69.63-2.36,1.24-1.15.89-2.16,2.15-2.49,3.61-.7,3.09.5,6.14,3.19,7.84,5.84,3.7,11.51,7.66,16.98,11.89-.47-.36-.94-.73-1.41-1.09,11.81,9.14,22.71,19.44,32.49,30.73,2.76,3.18,5.42,6.44,8,9.77-.36-.47-.73-.94-1.09-1.4,8.18,10.59,15.43,21.89,21.59,33.77,1.75,3.38,3.42,6.81,5,10.28,3.64-2.8,7.28-5.61,10.91-8.42-9.32-8.99-19.42-17.19-30.06-24.56-10.28-7.12-21.14-13.4-32.44-18.76-6.81-3.23-13.77-6.15-20.84-8.75-2.27-.84-5.12.15-6.76,1.79-.86.87-1.46,1.89-1.79,3.06-.33,1.23-.33,2.46,0,3.69,8.17,19.63,16.33,39.27,24.5,58.91,2.28,5.49,4.57,10.99,6.86,16.48,3.87-2.25,7.74-4.51,11.62-6.76-14.13-12.97-29.73-24.43-46.4-33.94-4.6-2.62-9.28-5.09-14.03-7.41-1.7-.83-3.48-1.22-5.35-.7-1.61.44-3.36,1.69-4.15,3.19-.85,1.61-1.28,3.57-.7,5.35.53,1.65,1.58,3.36,3.19,4.15,11.79,5.77,23.13,12.46,33.86,20.01,3.04,2.14,6.04,4.35,8.99,6.63-.47-.36-.94-.72-1.41-1.09,5.58,4.31,10.97,8.86,16.17,13.63,2.2,2.02,5.77,2.8,8.42,1.09,1-.65,1.84-1.49,2.49-2.49.84-1.3,1.32-3.87.7-5.35-8.17-19.64-16.33-39.27-24.5-58.91-2.29-5.49-4.57-10.99-6.86-16.48-2.85,2.85-5.7,5.7-8.55,8.55,3.37,1.24,6.7,2.55,10.01,3.95-.55-.23-1.11-.47-1.66-.7,14.26,6.03,27.9,13.48,40.67,22.23,3.58,2.45,7.09,5.01,10.53,7.66-.47-.36-.94-.72-1.41-1.09,6.65,5.13,13.01,10.63,19.06,16.46,2.5,2.41,6.38,2.66,9.12.54,1.15-.89,2.16-2.15,2.49-3.61.08-.62.16-1.23.25-1.85,0-1.25-.32-2.42-.95-3.51-7.03-15.45-15.84-30.07-26.18-43.52-10.64-13.84-22.61-26.55-36.07-37.7-7.72-6.4-15.83-12.34-24.31-17.71-1.17,4.31-2.34,8.63-3.51,12.94,2.73.22,5.44.52,8.15.88-.62-.08-1.23-.16-1.85-.25,11.34,1.52,22.51,4.25,33.29,8.09,3.06,1.09,6.08,2.27,9.07,3.53-.55-.23-1.11-.47-1.66-.7,10.54,4.46,20.64,9.97,30.09,16.44,2.68,1.83,5.3,3.75,7.87,5.73-.47-.36-.94-.72-1.41-1.09,8.64,6.69,16.65,14.2,23.82,22.45,2.02,2.32,3.96,4.7,5.84,7.13-.36-.47-.73-.94-1.09-1.4,1.51,1.96,2.98,3.96,4.4,5.98,1.06,1.51,2.33,2.69,4.15,3.19,1.66.46,3.88.25,5.35-.7,1.48-.96,2.79-2.38,3.19-4.15.4-1.74.36-3.84-.7-5.35h0Z"/><path class="cls-2" d="M538.56,149.61c1.78,0,3.65-.78,4.91-2.03,1.26-1.26,2.11-3.18,2.04-4.91-.17-3.76-3.05-6.95-6.95-6.95-1.78,0-3.65.78-4.91,2.03-1.26,1.26-2.11,3.18-2.04,4.91.17,3.76,3.05,6.94,6.95,6.94h0Z"/><path class="cls-2" d="M501.82,57.13c3.79,9.58,8.57,18.7,14.57,27.09,5.98,8.36,12.84,16.08,20.65,22.79,8.35,7.17,17.52,13.56,27.72,17.78,2.45,1.01,4.98,1.84,7.58,2.38,3.01.62,6.17,1.02,9.25.83,3.05-.18,6.14-.7,8.98-1.86,1.52-.62,3.02-1.25,4.42-2.1,1.38-.84,2.67-1.84,3.92-2.87,4.31-3.54,7.2-8.39,9.28-13.48,2.02-4.92,2.75-10.49,2.43-15.78-.73-12.01-5.93-23.33-12.53-33.23-6.28-9.41-14.13-18.31-23.38-24.91-1.52-1.08-3.14-1.85-4.87-2.52-.6-.23-1.21-.41-1.85-.52-1.13-.2-2.32-.4-3.48-.32-3.75.25-7.4,1.86-9.78,4.84-1.43,1.78-2.33,3.36-3.14,5.52-.59,1.58-.8,3.36-.86,5.03-.12,3.37.77,6.77,2.04,9.86,3.97,9.73,9.78,18.59,17.1,26.14,6.85,7.06,15.08,13.03,24.01,17.15,9.16,4.23,19.09,6.98,29.27,6.5,2.72-.13,5.45-.47,8.12-1.04,2.63-.55,5.09-1.47,7.56-2.52,4.32-1.85,8.38-4.75,11.4-8.35,3.62-4.31,6.22-9.37,7.4-14.9,1.22-5.73,1.16-11.37.25-17.13-1.77-11.18-8.04-20.97-14.94-29.68-3.29-4.15-6.82-8.15-10.43-12.03-4.3-4.63-9.88-8.82-16.44-9.07-3.75-.14-7.53,1.44-10.21,4.03-2.15,2.09-3.77,5.12-4.26,8.08-.53,3.2-.54,6.42.55,9.53,1.22,3.49,3.08,6.31,5.35,9.19,3.17,4.02,6.79,7.79,10.45,11.36,3.99,3.9,8.35,7.55,13.11,10.48,2.6,1.6,5.34,2.87,8.17,4.01,2.05.82,4.16,1.46,6.33,1.85,5.28.94,10.51.95,15.77-.21,10.43-2.3,19.49-10.12,21.73-20.8,1.25-5.96.83-12.24-1.13-18.01-2.04-6.02-5.39-11.2-9.4-16.08-3.29-4-7.03-7.6-10.77-11.18-1.31-1.25-3.09-2.03-4.91-2.03-1.7,0-3.74.76-4.91,2.03-1.22,1.32-2.12,3.06-2.04,4.91.08,1.82.69,3.62,2.04,4.91,4.15,3.97,8.3,7.98,11.84,12.52-.36-.47-.73-.94-1.09-1.4,2.24,2.9,4.22,6.01,5.67,9.39l-.7-1.66c1.09,2.6,1.86,5.3,2.25,8.09-.08-.62-.16-1.23-.25-1.85.3,2.31.33,4.63.03,6.94.08-.62.16-1.23.25-1.85-.26,1.84-.73,3.63-1.45,5.35.23-.55.47-1.11.7-1.66-.67,1.55-1.51,2.99-2.54,4.33.36-.47.73-.94,1.09-1.4-1.03,1.3-2.2,2.45-3.51,3.47.47-.36.94-.73,1.41-1.09-1.55,1.18-3.24,2.14-5.04,2.91.55-.23,1.11-.47,1.66-.7-2.26.94-4.62,1.55-7.04,1.89.62-.08,1.23-.16,1.85-.25-2.77.36-5.56.35-8.32,0,.62.08,1.23.16,1.85.25-2.83-.39-5.54-1.17-8.17-2.26.55.23,1.11.47,1.66.7-3.84-1.62-7.39-3.82-10.69-6.35.47.36.94.72,1.41,1.09-3.3-2.55-6.35-5.4-9.26-8.4-2.9-2.99-5.82-6.05-8.38-9.33.36.47.73.94,1.09,1.4-1.17-1.52-2.22-3.13-3-4.89.23.55.47,1.11.7,1.66-.46-1.09-.81-2.2-.99-3.37.08.62.16,1.23.25,1.85-.14-1.05-.14-2.1,0-3.15-.08.62-.16,1.23-.25,1.85.13-.89.35-1.74.68-2.58-.23.55-.47,1.11-.7,1.66.32-.74.7-1.42,1.2-2.06-.36.47-.73.94-1.09,1.4.37-.45.76-.85,1.21-1.21-.47.36-.94.73-1.41,1.09.49-.37,1-.67,1.57-.92-.55.23-1.11.47-1.66.7.61-.25,1.22-.42,1.87-.52-.62.08-1.23.16-1.85.25.71-.09,1.41-.08,2.12.01-.62-.08-1.23-.16-1.85-.25.89.14,1.74.39,2.58.73-.55-.23-1.11-.47-1.66-.7,1.46.63,2.79,1.48,4.05,2.44-.47-.36-.94-.73-1.41-1.09,2.98,2.34,5.43,5.26,7.94,8.08,2.59,2.92,5.13,5.88,7.52,8.97-.36-.47-.73-.94-1.09-1.4,3.68,4.79,6.97,9.89,9.33,15.46-.23-.55-.47-1.11-.7-1.66,1.45,3.47,2.46,7.07,2.98,10.79-.08-.62-.16-1.23-.25-1.85.44,3.32.49,6.68.07,10,.08-.62.16-1.23.25-1.85-.36,2.69-1.04,5.31-2.08,7.81l.7-1.66c-.89,2.11-2.04,4.09-3.44,5.9.36-.47.73-.94,1.09-1.4-1.31,1.66-2.81,3.15-4.48,4.44.47-.36.94-.72,1.41-1.09-1.87,1.42-3.9,2.58-6.06,3.5.55-.23,1.11-.47,1.66-.7-2.77,1.15-5.68,1.89-8.65,2.29.62-.08,1.23-.16,1.85-.25-4.02.52-8.09.45-12.11-.07.62.08,1.23.16,1.85.25-5.14-.7-10.09-2.15-14.87-4.15.55.23,1.11.47,1.66.7-5.95-2.51-11.54-5.79-16.66-9.72.47.36.94.72,1.41,1.09-5.18-4-9.83-8.64-13.84-13.8.36.47.73.94,1.09,1.4-3.87-5.02-7.13-10.5-9.6-16.34.23.55.47,1.11.7,1.66-.79-1.9-1.45-3.84-1.77-5.88.08.62.16,1.23.25,1.85-.16-1.19-.19-2.37-.05-3.57-.08.62-.16,1.23-.25,1.85.13-.86.36-1.68.69-2.48-.23.55-.47,1.11-.7,1.66.32-.72.7-1.39,1.17-2.02-.36.47-.73.94-1.09,1.4.43-.54.9-1.03,1.45-1.46-.47.36-.94.72-1.41,1.09.49-.36,1-.66,1.56-.9-.55.23-1.11.47-1.66.7.52-.2,1.04-.33,1.59-.41-.62.08-1.23.16-1.85.25.55-.05,1.09-.05,1.64,0-.62-.08-1.23-.16-1.85-.25.83.12,1.6.35,2.37.67-.55-.23-1.11-.47-1.66-.7,1.4.62,2.66,1.47,3.87,2.4-.47-.36-.94-.72-1.41-1.09,6.04,4.73,11.43,10.32,16.12,16.37-.36-.47-.73-.94-1.09-1.4,4.54,5.9,8.5,12.32,11.42,19.17l-.7-1.66c1.78,4.21,3.12,8.59,3.74,13.12-.08-.62-.16-1.23-.25-1.85.4,3.1.47,6.24.06,9.35.08-.62.16-1.23.25-1.85-.37,2.65-1.08,5.24-2.11,7.71.23-.55.47-1.11.7-1.66-.95,2.23-2.16,4.32-3.64,6.24.36-.47.73-.94,1.09-1.4-1.23,1.56-2.62,2.98-4.18,4.21.47-.36.94-.72,1.41-1.09-1.45,1.11-3.02,2.04-4.7,2.77.55-.23,1.11-.47,1.66-.7-1.76.73-3.59,1.22-5.48,1.49.62-.08,1.23-.16,1.85-.25-2.37.31-4.74.26-7.11-.06.62.08,1.23.16,1.85.25-3.46-.5-6.81-1.54-10.03-2.9.55.23,1.11.47,1.66.7-6.97-2.97-13.4-7.25-19.39-11.86.47.36.94.72,1.41,1.09-8.15-6.3-15.47-13.63-21.77-21.78.36.47.73.94,1.09,1.4-6.29-8.16-11.53-17.09-15.54-26.58.23.55.47,1.11.7,1.66-.34-.8-.67-1.61-.99-2.42-.69-1.74-1.52-3.17-3.19-4.15-1.49-.87-3.68-1.24-5.35-.7-1.68.54-3.3,1.59-4.15,3.19-.82,1.55-1.37,3.65-.7,5.35h0Z"/><path class="cls-2" d="M497.12-99.42c-6.75,6.22-13.49,12.67-18.32,20.55-2.36,3.86-4.36,8.2-5.3,12.63-.96,4.53-.95,8.86-.26,13.42,1.21,8.01,5.84,15.9,12.91,20.07,3.98,2.35,8.89,3.53,13.5,3.16,5.1-.41,9.85-2.1,14.24-4.71,8.99-5.35,15.74-13.5,23.94-19.85-.47.36-.94.72-1.41,1.09,3.55-2.72,7.33-5.13,11.44-6.9-.55.23-1.11.47-1.66.7,2.81-1.18,5.72-2.05,8.75-2.46-.62.08-1.23.16-1.85.25,2.61-.33,5.24-.35,7.85,0-.62-.08-1.23-.16-1.85-.25,2.24.31,4.43.88,6.52,1.76-.55-.23-1.11-.47-1.66-.7,1.69.73,3.28,1.64,4.74,2.76-.47-.36-.94-.72-1.41-1.09,1.31,1.03,2.48,2.2,3.5,3.52-.36-.47-.73-.94-1.09-1.4,1,1.32,1.82,2.74,2.47,4.26-.23-.55-.47-1.11-.7-1.66.74,1.79,1.24,3.67,1.5,5.59-.08-.62-.16-1.23-.25-1.85.32,2.43.28,4.88-.05,7.31.08-.62.16-1.23.25-1.85-.41,2.89-1.21,5.7-2.34,8.39.23-.55.47-1.11.7-1.66-1.15,2.69-2.62,5.23-4.4,7.56.36-.47.73-.94,1.09-1.4-2.47,3.18-5.45,5.94-8.63,8.4.47-.36.94-.73,1.41-1.09-7.46,5.72-16,9.74-24.25,14.15-8.25,4.41-16.49,9.59-22.8,16.6-4.02,4.47-7.1,9.44-9.09,15.12-.57,1.63-.15,3.9.7,5.35.84,1.44,2.5,2.81,4.15,3.19,1.78.41,3.78.32,5.35-.7,1.58-1.02,2.57-2.37,3.19-4.15.22-.64.47-1.27.73-1.89-.23.55-.47,1.11-.7,1.66,1.18-2.77,2.73-5.35,4.56-7.75-.36.47-.73.94-1.09,1.4,2.66-3.42,5.83-6.39,9.25-9.04-.47.36-.94.72-1.41,1.09,9.01-6.92,19.52-11.33,29.29-17,5.34-3.11,10.53-6.66,15-10.95,2.31-2.21,4.39-4.67,6.21-7.3,1.75-2.53,3.05-5.27,4.22-8.11.96-2.33,1.69-4.76,2.11-7.25.49-2.92.82-5.88.57-8.84-.25-2.92-.73-5.84-1.84-8.57-1.34-3.28-2.99-6.11-5.4-8.75-4.09-4.46-10.04-7.44-15.99-8.4-6.36-1.03-12.84-.64-18.94,1.55-6.62,2.38-12.34,6.07-17.8,10.46-4.52,3.63-8.56,7.81-12.95,11.6-1.09.94-2.21,1.86-3.35,2.75.47-.36.94-.72,1.41-1.09-2.82,2.18-5.82,4.15-9.11,5.54.55-.23,1.11-.47,1.66-.7-1.83.75-3.71,1.31-5.67,1.58.62-.08,1.23-.16,1.85-.25-1.55.2-3.1.21-4.65.02.62.08,1.23.16,1.85.25-1.49-.2-2.94-.57-4.34-1.14.55.23,1.11.47,1.66.7-1.29-.55-2.5-1.25-3.62-2.1.47.36.94.73,1.41,1.09-1.27-.98-2.39-2.12-3.38-3.38.36.47.73.94,1.09,1.4-1.17-1.52-2.11-3.18-2.87-4.94.23.55.47,1.11.7,1.66-.93-2.21-1.55-4.53-1.88-6.9.08.62.16,1.23.25,1.85-.32-2.47-.33-4.96,0-7.43-.08.62-.16,1.23-.25,1.85.36-2.58,1.13-5.05,2.14-7.45l-.7,1.66c1.53-3.58,3.6-6.89,5.97-9.98-.36.47-.73.94-1.09,1.4,4.14-5.35,9.09-9.99,14.05-14.56,2.68-2.47,2.69-7.36,0-9.82-2.87-2.63-6.97-2.64-9.83,0h0Z"/><path class="cls-2" d="M658.5,323.96c1.9-.16,3.8-.12,5.69.13-.62-.08-1.23-.16-1.85-.25,2.64.37,5.19,1.11,7.64,2.14-.55-.23-1.11-.47-1.66-.7,3.5,1.5,6.72,3.52,9.73,5.84-.47-.36-.94-.72-1.41-1.09,6.01,4.68,11.14,10.44,15.79,16.44-.36-.47-.73-.94-1.09-1.4,4.64,6.02,8.69,12.5,11.68,19.5-.23-.55-.47-1.11-.7-1.66,2.17,5.15,3.72,10.52,4.48,16.06-.08-.62-.16-1.23-.25-1.85.62,4.7.67,9.44.04,14.14.08-.62.16-1.23.25-1.85-.55,3.91-1.56,7.72-3.09,11.36.23-.55.47-1.11.7-1.66-1.3,3.02-2.96,5.86-4.96,8.47.36-.47.73-.94,1.09-1.4-2.05,2.65-4.42,5.03-7.07,7.08.47-.36.94-.73,1.41-1.09-2.38,1.82-4.97,3.35-7.73,4.52.55-.23,1.11-.47,1.66-.7-2.54,1.06-5.19,1.8-7.92,2.17.62-.08,1.23-.16,1.85-.25-2.46.32-4.93.31-7.39-.01.62.08,1.23.16,1.85.25-2.6-.36-5.14-1.05-7.56-2.06.55.23,1.11.47,1.66.7-2.34-.99-4.54-2.25-6.56-3.79.47.36.94.73,1.41,1.09-1.81-1.4-3.44-2.99-4.85-4.79.36.47.73.94,1.09,1.4-1.25-1.62-2.3-3.38-3.12-5.26.23.55.47,1.11.7,1.66-.63-1.49-1.1-3.01-1.33-4.61.08.62.16,1.23.25,1.85-.13-1.07-.16-2.13-.03-3.2-.08.62-.16,1.23-.25,1.85.11-.8.3-1.57.61-2.33-.23.55-.47,1.11-.7,1.66.23-.52.51-1.01.85-1.47-.36.47-.73.94-1.09,1.4.32-.4.67-.75,1.07-1.07-.47.36-.94.72-1.41,1.09.47-.35.95-.62,1.48-.85-.55.23-1.11.47-1.66.7.53-.2,1.07-.33,1.64-.41-.62.08-1.23.16-1.85.25.74-.08,1.48-.05,2.22.04-.62-.08-1.23-.16-1.85-.25,1.13.18,2.2.51,3.25.95-.55-.23-1.11-.47-1.66-.7,2.17.94,4.11,2.28,5.98,3.71-.47-.36-.94-.72-1.41-1.09,3.38,2.62,6.42,5.64,9.05,9.02-.36-.47-.73-.94-1.09-1.4,2.44,3.16,4.49,6.6,6.05,10.28-.23-.55-.47-1.11-.7-1.66,1.36,3.27,2.33,6.68,2.8,10.19-.08-.62-.16-1.23-.25-1.85.39,2.99.42,6,.04,8.99.08-.62.16-1.23.25-1.85-.41,3.05-1.23,6.02-2.41,8.86.23-.55.47-1.11.7-1.66-1.19,2.82-2.73,5.48-4.6,7.91.36-.47.73-.94,1.09-1.4-1.68,2.14-3.59,4.08-5.74,5.75.47-.36.94-.72,1.41-1.09-1.91,1.45-3.96,2.67-6.17,3.62.55-.23,1.11-.47,1.66-.7-2.02.85-4.13,1.46-6.3,1.77.62-.08,1.23-.16,1.85-.25-2.22.3-4.46.28-6.68,0,.62.08,1.23.16,1.85.25-2.44-.34-4.82-1-7.09-1.95.55.23,1.11.47,1.66.7-2.19-.94-4.26-2.13-6.15-3.58.47.36.94.72,1.41,1.09-1.75-1.35-3.32-2.9-4.68-4.65.36.47.73.94,1.09,1.4-1.15-1.51-2.13-3.15-2.88-4.89.23.55.47,1.11.7,1.66-.72-1.71-1.21-3.48-1.46-5.32.08.62.16,1.23.25,1.85-.02-.14-.04-.29-.05-.43-.22-1.9-.63-3.51-2.04-4.91-1.2-1.2-3.18-2.11-4.91-2.03-1.8.08-3.66.67-4.91,2.03-1.16,1.27-2.24,3.12-2.04,4.91.21,1.79.43,3.58.94,5.31.49,1.68,1.19,3.33,1.96,4.91,1.26,2.61,3.07,5.01,5.04,7.12,4.09,4.37,9.54,7.55,15.25,9.27,5.8,1.75,12.24,1.89,18.06.18,6.09-1.8,11.71-5.36,16.01-10.03,4.38-4.76,7.63-10.47,9.47-16.67,1.92-6.45,2.02-13.14.82-19.73-1.12-6.18-3.73-12.25-7.2-17.48-3.87-5.83-8.65-10.7-14.24-14.87-2.83-2.11-6.05-4-9.53-4.76-4.79-1.05-9.98-.21-13.5,3.46-2.9,3.02-4.25,7.33-3.98,11.47.24,3.75,1.33,7.15,3.04,10.49,2.84,5.54,7.65,10.19,13.03,13.26,5.51,3.15,11.94,4.92,18.29,4.89,6.57-.03,13.14-2.02,18.8-5.31,5.79-3.36,10.58-8.08,14.41-13.53,3.8-5.42,6.34-11.89,7.47-18.4,1.34-7.69,1.15-15.33-.35-22.99-2.74-14.04-10.33-26.58-19.25-37.54-3.97-4.88-8.26-9.57-13.18-13.51-5.5-4.4-11.6-8.22-18.54-9.86-3.3-.78-6.79-1.16-10.17-.87-1.87.16-3.55.67-4.91,2.03-1.2,1.2-2.11,3.18-2.04,4.91.08,1.8.67,3.66,2.04,4.91,1.29,1.19,3.1,2.19,4.91,2.03h0Z"/><path class="cls-2" d="M641.21,131.2c1.31,6.74,6.17,12.55,12.01,15.95,6.08,3.54,13.27,4.67,20.14,3.21,6.61-1.4,12.84-5.47,17.17-10.59,4.69-5.54,7.92-12.16,9.07-19.35.74-4.63.98-9.24.49-13.91-.48-4.67-1.36-9.27-2.69-13.78-.99-3.33-4.19-5.44-7.63-4.97-1.46.2-2.97.79-3.99,1.91-1.17,1.27-2.23,3.12-2.04,4.91,1.39,12.6,4.35,24.92,9.22,36.63,2.53,6.09,5.37,12.02,8.74,17.69,1.54,2.59,3.17,5.13,4.9,7.61,1.86,2.67,3.82,5.35,6.17,7.61,2.64,2.53,5.71,4.6,9.22,5.69,1.72.53,3.63.8,5.43.69,2.48-.16,4.47-.73,6.71-1.73,3.34-1.5,6.03-4.3,8.03-7.3,1.94-2.9,3.12-6.41,3.86-9.79,1.44-6.53,2.16-13.32,2.47-20,.29-6.25.11-12.53-.54-18.75-1.34-12.95-4.35-25.65-9.41-37.67-.79-1.87-1.58-3.74-2.44-5.58-.69-1.49-2.63-2.77-4.15-3.19-1.66-.46-3.88-.25-5.35.7-1.48.96-2.79,2.38-3.19,4.15-.08.62-.16,1.23-.25,1.85,0,1.25.32,2.42.95,3.51.58,1.25,1.14,2.51,1.68,3.78-.23-.55-.47-1.11-.7-1.66,4.34,10.27,7.27,21.1,8.77,32.14-.08-.62-.16-1.23-.25-1.85,1.47,11.05,1.49,22.27.02,33.31.08-.62.16-1.23.25-1.85-.58,4.24-1.19,8.6-2.84,12.58.23-.55.47-1.11.7-1.66-.58,1.34-1.28,2.61-2.16,3.78.36-.47.73-.94,1.09-1.4-.72.92-1.52,1.75-2.44,2.48.47-.36.94-.72,1.41-1.09-.79.6-1.62,1.11-2.52,1.52.55-.23,1.11-.47,1.66-.7-.83.35-1.68.59-2.58.72.62-.08,1.23-.16,1.85-.25-.82.1-1.63.1-2.45,0,.62.08,1.23.16,1.85.25-.96-.13-1.88-.39-2.78-.75.55.23,1.11.47,1.66.7-1.22-.52-2.34-1.21-3.39-2.02.47.36.94.73,1.41,1.09-1.91-1.5-3.54-3.3-5.02-5.22.36.47.73.94,1.09,1.4-5.92-7.74-10.67-16.52-14.47-25.47l.7,1.66c-4.35-10.33-7.35-21.2-8.86-32.31.08.62.16,1.23.25,1.85-.14-1.04-.27-2.09-.38-3.14-4.55.62-9.1,1.23-13.65,1.85.99,3.32,1.75,6.69,2.23,10.11-.08-.62-.16-1.23-.25-1.85.58,4.31.68,8.67.11,12.98.08-.62.16-1.23.25-1.85-.43,3.07-1.19,6.09-2.38,8.95l.7-1.66c-1.07,2.53-2.45,4.91-4.12,7.1.36-.47.73-.94,1.09-1.4-1.53,1.97-3.27,3.75-5.23,5.29.47-.36.94-.72,1.41-1.09-1.76,1.36-3.67,2.49-5.71,3.37.55-.23,1.11-.47,1.66-.7-1.82.75-3.71,1.29-5.66,1.55.62-.08,1.23-.16,1.85-.25-1.69.21-3.39.2-5.08-.01.62.08,1.23.16,1.85.25-1.91-.26-3.77-.76-5.56-1.5.55.23,1.11.47,1.66.7-1.7-.72-3.29-1.63-4.76-2.74.47.36.94.72,1.41,1.09-1.32-1.02-2.51-2.19-3.53-3.51.36.47.73.94,1.09,1.4-.87-1.15-1.6-2.38-2.16-3.71.23.55.47,1.11.7,1.66-.42-1.01-.73-2.05-.94-3.12-.32-1.63-1.8-3.34-3.19-4.15-1.49-.87-3.68-1.24-5.35-.7-1.68.54-3.3,1.59-4.15,3.19-.91,1.72-1.07,3.43-.7,5.35h.01Z"/><path class="cls-2" d="M179.32,44.8c-8.91,8.05-16.77,17.14-23.86,26.81-6.8,9.28-12.76,19.16-18.05,29.36-4.58,8.83-8.54,17.96-12.6,27.04-3.91,8.75-7.73,17.6-10.53,26.78-1.34,4.4-2.44,8.88-3.12,13.44-.72,4.87-1.19,9.77-.77,14.69.46,5.35,1.67,10.27,3.84,15.18,1.96,4.41,4.98,8.46,8.48,11.76,6.71,6.32,15.68,10.71,25.09,9.89,4.72-.41,8.96-1.68,13.24-3.71,3.93-1.86,7.46-4.44,10.8-7.2,6.85-5.65,12.53-12.77,17.41-20.15,4.61-6.97,8.45-14.45,11.43-22.27.56-1.47,1.08-2.95,1.54-4.46-4.47-1.23-8.94-2.46-13.4-3.69-2.47,8.09-5.33,16.05-7.51,24.23-1.28,4.79-2.37,9.64-3.09,14.56-.75,5.19-1.31,10.43-.92,15.68.4,5.31,1.5,10.41,3.96,15.17,2.4,4.64,6.36,8.55,10.94,11.04,5.39,2.92,11.43,3.8,17.41,2.41,5.42-1.26,10.13-4.4,14.39-7.85,7.43-6.03,13.04-13.87,19.2-21.09.62-.73,1.25-1.45,1.89-2.15-3.87-2.25-7.74-4.51-11.62-6.76-1.44,7.99-4.38,15.67-4.67,23.86-.29,8.32,2.98,16.69,9.18,22.33,5.18,4.7,11.9,7.34,18.92,7.27,6.62-.07,13.35-2.37,18.64-6.35,4.09-3.08,7.39-6.66,10.5-10.71,2.63-3.42,4.93-7.08,7.22-10.74,1.93-3.09.76-7.79-2.49-9.5-3.41-1.8-7.45-.8-9.51,2.49-2.32,3.71-4.65,7.41-7.32,10.87.36-.47.73-.94,1.09-1.4-2.27,2.91-4.78,5.65-7.7,7.93.47-.36.94-.73,1.41-1.09-1.9,1.45-3.95,2.67-6.15,3.61.55-.23,1.11-.47,1.66-.7-2.04.85-4.15,1.44-6.34,1.75.62-.08,1.23-.16,1.85-.25-1.96.26-3.93.27-5.9.03.62.08,1.23.16,1.85.25-1.79-.24-3.52-.7-5.19-1.38.55.23,1.11.47,1.66.7-1.62-.69-3.14-1.57-4.54-2.64.47.36.94.73,1.41,1.09-1.4-1.1-2.65-2.36-3.75-3.76.36.47.73.94,1.09,1.4-1.2-1.56-2.22-3.25-3.01-5.06.23.55.47,1.11.7,1.66-.72-1.74-1.19-3.54-1.44-5.4.08.62.16,1.23.25,1.85-.32-2.61-.21-5.23.14-7.84-.08.62-.16,1.23-.25,1.85.88-6.24,2.98-12.21,4.1-18.4.29-1.59.29-3-.35-4.52-.56-1.34-1.52-2.63-2.84-3.32-2.65-1.4-6.3-1.25-8.42,1.09-5.64,6.2-10.48,13.08-16.43,19.02-1.76,1.76-3.61,3.43-5.58,4.96.47-.36.94-.72,1.41-1.09-2.2,1.68-4.54,3.17-7.1,4.26.55-.23,1.11-.47,1.66-.7-1.62.67-3.3,1.15-5.03,1.39.62-.08,1.23-.16,1.85-.25-1.45.18-2.91.18-4.36,0,.62.08,1.23.16,1.85.25-1.47-.21-2.88-.62-4.25-1.19.55.23,1.11.47,1.66.7-1.7-.73-3.3-1.69-4.77-2.82.47.36.94.73,1.41,1.09-1.25-.98-2.37-2.1-3.36-3.35.36.47.73.94,1.09,1.4-1.16-1.51-2.1-3.16-2.84-4.91.23.55.47,1.11.7,1.66-1-2.43-1.62-4.98-1.97-7.57.08.62.16,1.23.25,1.85-.67-5.11-.38-10.29.3-15.38-.08.62-.16,1.23-.25,1.85,1.53-11.19,4.98-22,8.49-32.7.76-2.3,1.52-4.61,2.23-6.93,1.06-3.47-1.26-7.73-4.85-8.55-3.76-.86-7.41,1.13-8.55,4.85-.76,2.5-1.68,4.94-2.7,7.35.23-.55.47-1.11.7-1.66-3.61,8.52-8.37,16.6-14.01,23.93.36-.47.73-.94,1.09-1.4-3.89,5.03-8.26,9.75-13.3,13.66.47-.36.94-.72,1.41-1.09-2.9,2.23-6.02,4.18-9.4,5.61.55-.23,1.11-.47,1.66-.7-2.29.95-4.67,1.65-7.13,1.99.62-.08,1.23-.16,1.85-.25-2.1.28-4.2.29-6.3,0,.62.08,1.23.16,1.85.25-2.05-.29-4.04-.85-5.95-1.65.55.23,1.11.47,1.66.7-2.27-.97-4.37-2.25-6.33-3.74.47.36.94.72,1.41,1.09-2.32-1.79-4.42-3.84-6.23-6.15.36.47.73.94,1.09,1.4-1.69-2.19-3.08-4.56-4.16-7.1.23.55.47,1.11.7,1.66-1.23-2.95-2.02-6.04-2.45-9.2.08.62.16,1.23.25,1.85-.6-4.61-.43-9.27.18-13.88-.08.62-.16,1.23-.25,1.85,1.49-10.89,5.33-21.35,9.58-31.44-.23.55-.47,1.11-.7,1.66,3.34-7.9,6.85-15.75,10.45-23.53,4.65-10.04,9.85-19.85,15.76-29.21,3.33-5.27,6.89-10.4,10.7-15.34-.36.47-.73.94-1.09,1.4,6.03-7.81,12.69-15.12,20.01-21.74,2.7-2.44,2.67-7.37,0-9.82-2.89-2.65-6.94-2.61-9.83,0h0Z"/><path class="cls-2" d="M181.21,129.01c1.78,0,3.65-.78,4.91-2.03,1.21-1.2,2.11-3.18,2.04-4.91-.17-3.76-3.05-6.95-6.95-6.95-1.78,0-3.65.78-4.91,2.03-1.2,1.2-2.11,3.18-2.04,4.91.17,3.76,3.05,6.94,6.95,6.94h0Z"/><path class="cls-2" d="M197.19,361.57c-1.52-2.57-2.85-5.23-4.01-7.98.23.55.47,1.11.7,1.66-2.33-5.59-3.91-11.46-4.72-17.46.08.62.16,1.23.25,1.85-.82-6.19-.82-12.45,0-18.64-.08.62-.16,1.23-.25,1.85.8-5.82,2.32-11.52,4.6-16.94-.23.55-.47,1.11-.7,1.66,1.36-3.19,3.1-6.19,5.2-8.95-.36.47-.73.94-1.09,1.4,1.69-2.19,3.61-4.19,5.79-5.9-.47.36-.94.72-1.41,1.09,1.58-1.22,3.28-2.26,5.12-3.04-.55.23-1.11.47-1.66.7,1.43-.59,2.91-1.01,4.45-1.23-.62.08-1.23.16-1.85.25,1.4-.18,2.81-.18,4.21,0-.62-.08-1.23-.16-1.85-.25,1.45.21,2.84.6,4.19,1.16-.55-.23-1.11-.47-1.66-.7,1.47.64,2.83,1.47,4.1,2.44-.47-.36-.94-.73-1.41-1.09,1.88,1.47,3.5,3.21,4.96,5.09-.36-.47-.73-.94-1.09-1.4,3.96,5.18,6.77,11.25,9.3,17.23-.23-.55-.47-1.11-.7-1.66,4.52,10.73,7.59,22.03,9.16,33.56-.08-.62-.16-1.23-.25-1.85,1.2,8.99,1.49,18.09.82,27.14-.13,1.7.87,3.74,2.04,4.91,1.2,1.2,3.18,2.11,4.91,2.03,1.8-.08,3.66-.67,4.91-2.03,1.31-1.43,1.84-2.98,2.04-4.91.27-2.66.58-5.31.93-7.96-.08.62-.16,1.23-.25,1.85,2.19-16.19,6.03-32.14,11.49-47.54,1.54-4.36,3.22-8.67,5.01-12.93-.23.55-.47,1.11-.7,1.66,2.08-4.92,4.21-9.91,7.49-14.17-.36.47-.73.94-1.09,1.4,1.22-1.56,2.59-2.99,4.15-4.21-.47.36-.94.72-1.41,1.09,1.31-.99,2.73-1.82,4.24-2.46l-1.66.7c1.35-.55,2.74-.94,4.18-1.14-.62.08-1.23.16-1.85.25,1.17-.14,2.33-.15,3.51-.01-.62-.08-1.23-.16-1.85-.25,1.08.15,2.12.43,3.12.85-.55-.23-1.11-.47-1.66-.7.98.43,1.89.96,2.75,1.61-.47-.36-.94-.72-1.41-1.09.93.74,1.76,1.58,2.48,2.52-.36-.47-.73-.94-1.09-1.4,1,1.32,1.79,2.77,2.44,4.3-.23-.55-.47-1.11-.7-1.66,1.19,2.88,1.86,5.93,2.28,9-.08-.62-.16-1.23-.25-1.85.67,5.08.82,10.27.88,15.39.06,5.6-.14,11.21-.59,16.8-.26,3.16-.6,6.32-1.02,9.46.08-.62.16-1.23.25-1.85-.98,7.24-2.38,14.4-4.2,21.47-.46,1.76-.22,3.77.7,5.35.84,1.44,2.5,2.81,4.15,3.19,3.62.83,7.58-1.09,8.55-4.85,3.67-14.2,5.7-28.9,6.03-43.56.15-6.74.05-13.58-.7-20.3-.35-3.07-.78-6.15-1.66-9.12-.83-2.82-1.98-5.69-3.65-8.13-1.91-2.78-4.3-5.31-7.34-6.89-3.37-1.75-7.23-2.65-11.02-2.2-3.88.47-7.6,1.61-10.88,3.8-3.45,2.3-6.13,5.19-8.52,8.55-1.76,2.48-3.16,5.2-4.43,7.97-1.61,3.49-3.09,7.05-4.52,10.61-2.56,6.39-4.85,12.89-6.84,19.47-4.15,13.69-6.97,27.71-8.69,41.9-.21,1.68-.39,3.37-.56,5.05h13.9c1.08-14.6-.31-29.45-3.89-43.64-1.85-7.34-4.39-14.44-7.38-21.38-2.78-6.47-5.97-12.68-10.35-18.21-2.11-2.67-4.66-4.98-7.52-6.83-3.34-2.15-7.11-3.24-11.04-3.6-7.35-.66-14.39,3.01-19.68,7.82-5.29,4.81-8.91,11.04-11.54,17.61-2.6,6.51-4.03,13.38-4.69,20.34-1.32,13.9,1.49,28.12,7.67,40.61.72,1.46,1.5,2.89,2.32,4.29.89,1.51,2.46,2.73,4.15,3.19,1.66.46,3.88.25,5.35-.7,3.15-2.03,4.47-6.15,2.49-9.5h-.01Z"/><path class="cls-2" d="M334.35,365c1.78,0,3.65-.78,4.91-2.03,1.26-1.26,2.11-3.18,2.04-4.91-.17-3.76-3.05-6.95-6.95-6.95-1.78,0-3.65.78-4.91,2.03-1.2,1.2-2.11,3.18-2.04,4.91.17,3.76,3.05,6.94,6.95,6.94h0Z"/><path class="cls-2" d="M223.55,418.61c9.78,1.38,19.61,2.19,29.49,2.18,9.82,0,19.59-.82,29.3-2.18,19.03-2.66,37.5-8.14,55.04-15.95,9.62-4.29,18.88-9.36,27.66-15.17-3.4-1.38-6.81-2.77-10.21-4.15.07.4.13.79.18,1.19-.08-.62-.16-1.23-.25-1.85.32,2.62.3,5.25-.03,7.87.08-.62.16-1.23.25-1.85-.33,2.35-.88,4.66-1.63,6.91-.17.51-.35,1.01-.54,1.5-.1.25-.2.5-.29.75-.41,1.08.21-.45.24-.54-.4,1.13-1.01,2.23-1.56,3.3-1.13,2.19-2.4,4.31-3.77,6.35-.61.91-1.25,1.81-1.89,2.7-.37.5-.74.99-1.11,1.48-.54.71.89-1.13.33-.43-.26.32-.51.64-.77.96-5.66,7.02-12.09,13.47-18.92,19.34-1.7,1.46-3.43,2.89-5.19,4.28-.4.32-.81.63-1.21.95,1.78-1.43.11-.09-.27.2-.92.69-1.85,1.38-2.78,2.05-3.69,2.66-7.49,5.17-11.39,7.51-3.84,2.31-7.79,4.46-11.81,6.45-2.01.99-4.04,1.95-6.09,2.86-.47.21-.94.41-1.41.62-.29.13-.59.26-.88.38.07-.03,1.64-.68.6-.25-1.07.44-2.13.88-3.21,1.3-9.43,3.7-19.2,6.5-29.15,8.35-2.67.5-4.64,3.28-4.98,5.77-.33,2.48.82,5.83,3.32,6.92,12.43,5.43,25.31,8.89,38.78,10.46,12.92,1.51,26,.93,38.79-1.4,23.25-4.22,44.98-15.29,62.63-30.9,9.61-8.5,17.97-18.53,24.67-29.47l-12.95-3.51c.9,6.78.84,13.63-.04,20.41.08-.62.16-1.23.25-1.85-.92,6.79-2.63,13.46-5.06,19.87-.29.77-.59,1.54-.9,2.3-.18.43-.85,1.7.06-.14-.18.37-.33.76-.49,1.14-.67,1.51-1.37,3-2.11,4.48-1.54,3.07-3.24,6.06-5.08,8.96-1.79,2.82-3.83,5.45-5.74,8.19,1.28-1.85-.09.1-.39.48-.5.62-1,1.24-1.51,1.86-1.11,1.33-2.24,2.64-3.4,3.92-4.38,4.86-9.12,9.38-14.12,13.6-1.43,1.21-2.88,2.39-4.35,3.56-.32.25-.63.5-.95.74-.57.45-.42.33.45-.35-.21.16-.42.33-.64.49-.75.57-1.5,1.13-2.25,1.69-3.01,2.22-6.1,4.35-9.23,6.4-2.49,1.63-4.17,4.83-3.19,7.84,1,3.09,3.52,4.84,6.7,5.1,17.28,1.4,34.96-.75,51.49-5.92,17.1-5.35,32.95-13.84,46.97-24.96,7.44-5.9,14.21-12.6,20.17-19.99,1.2-1.48,2.04-2.93,2.04-4.91,0-1.7-.76-3.74-2.04-4.91-2.53-2.32-7.39-3.02-9.83,0-4.1,5.08-8.59,9.85-13.42,14.25-2.41,2.2-4.91,4.3-7.48,6.31-1.19.93,1-.76.09-.07-.3.22-.59.45-.89.67-.69.52-1.39,1.03-2.09,1.53-1.3.93-2.62,1.85-3.95,2.73-5.44,3.62-11.14,6.84-17.04,9.65-1.5.71-3.02,1.4-4.55,2.06-.15.07-.35.19-.51.22-.1.02,1.5-.62.81-.34-.34.14-.68.28-1.03.42-.8.33-1.6.65-2.41.96-3.05,1.18-6.14,2.25-9.26,3.21-7.07,2.17-14.31,3.75-21.65,4.74.62-.08,1.23-.16,1.85-.25-9.05,1.19-18.19,1.45-27.29.72,1.17,4.31,2.34,8.63,3.51,12.94,13.87-9.08,26.97-19.71,37.55-32.53,11.08-13.41,19.64-29,23.34-46.1,2.07-9.54,2.77-19.42,1.48-29.12-.21-1.59-.48-2.89-1.49-4.21-.89-1.15-2.15-2.16-3.61-2.49-3.06-.7-6.18.48-7.85,3.19-1.81,2.96-3.74,5.84-5.8,8.64-.48.65-.96,1.29-1.45,1.93-.52.68.94-1.2.4-.52-.11.15-.23.29-.34.44-.31.39-.62.78-.93,1.16-1.09,1.35-2.21,2.67-3.35,3.98-4.55,5.16-9.52,9.94-14.85,14.29-.63.51-1.25,1.01-1.89,1.51-.2.15-.39.31-.59.46-.08.06,1.27-.97.67-.52-.4.3-.79.6-1.19.89-1.39,1.04-2.8,2.04-4.24,3.02-2.87,1.96-5.81,3.79-8.83,5.5-2.96,1.68-6,3.24-9.09,4.67-.79.36-1.58.72-2.37,1.07-.34.15-.68.29-1.02.44,2.05-.91.44-.19-.05.02-1.61.66-3.23,1.28-4.86,1.87-8.09,2.91-16.49,4.92-25.01,6.06.62-.08,1.23-.16,1.85-.25-11.1,1.46-22.34,1.43-33.43-.05.62.08,1.23.16,1.85.25-5.61-.77-11.16-1.89-16.61-3.4-2.69-.75-5.36-1.58-7.99-2.51-1.32-.47-2.63-.95-3.93-1.46-.65-.26-1.3-.52-1.94-.78-.19-.08-.39-.16-.58-.24.3.12.59.25.89.37-.39-.15-.77-.33-1.16-.5-.55,4.23-1.11,8.46-1.66,12.69,19.77-3.68,38.93-11.14,56.1-21.6,17.57-10.7,33.95-24.72,45.97-41.5,3.64-5.08,6.64-10.61,8.67-16.53,2.2-6.44,2.66-13.16,1.55-19.85-.72-4.33-6.74-6.45-10.21-4.15-9.57,6.33-19.71,11.78-30.26,16.3-.25.1-.5.21-.74.32,1.93-.86.58-.25.17-.08-.62.26-1.25.51-1.88.76-1.38.55-2.76,1.09-4.15,1.61-2.65,1-5.33,1.93-8.02,2.82-5.39,1.76-10.86,3.29-16.38,4.59-6.31,1.48-12.69,2.65-19.12,3.53.62-.08,1.23-.16,1.85-.25-13.52,1.81-27.21,2.27-40.82,1.28-3.9-.28-7.8-.69-11.68-1.2.62.08,1.23.16,1.85.25-.53-.07-1.07-.15-1.6-.22-1.93-.27-3.6-.33-5.35.7-1.44.84-2.82,2.49-3.19,4.15-.41,1.78-.32,3.77.7,5.35.91,1.41,2.41,2.95,4.15,3.19h0Z"/><path class="cls-2" d="M461.57,566.74c-1.69-5.17-3.15-10.43-3.9-15.83.08.62.16,1.23.25,1.85-.53-3.93-.66-7.89-.14-11.83-.08.62-.16,1.23-.25,1.85.37-2.61,1-5.19,2.01-7.63-.23.55-.47,1.11-.7,1.66.8-1.87,1.84-3.62,3.08-5.24-.36.47-.73.94-1.09,1.4,1.35-1.74,2.91-3.29,4.64-4.64-.47.36-.94.73-1.41,1.09,1.6-1.22,3.32-2.26,5.17-3.06-.55.23-1.11.47-1.66.7,1.67-.7,3.4-1.2,5.19-1.45-.62.08-1.23.16-1.85.25,1.41-.18,2.82-.19,4.23-.02-.62-.08-1.23-.16-1.85-.25,1.35.18,2.66.53,3.93,1.05-.55-.23-1.11-.47-1.66-.7,1.29.55,2.5,1.27,3.62,2.11-.47-.36-.94-.73-1.41-1.09,1.5,1.16,2.8,2.53,3.96,4.03-.36-.47-.73-.94-1.09-1.4,3.23,4.25,5.22,9.23,7.52,14,1.17,2.42,2.5,4.77,4.1,6.94,1.06,1.45,2.17,2.89,3.41,4.2,1.25,1.31,2.66,2.43,4.12,3.51,5.72,4.25,13.34,4.9,19.82,2.16,6.25-2.64,11.11-7.93,14.35-13.79,3.38-6.12,5.37-13,9.63-18.63-.36.47-.73.94-1.09,1.4,1.19-1.53,2.55-2.9,4.09-4.09-.47.36-.94.72-1.41,1.09,1.33-1.01,2.76-1.87,4.3-2.53-.55.23-1.11.47-1.66.7,1.2-.49,2.43-.85,3.72-1.04-.62.08-1.23.16-1.85.25,1.1-.14,2.2-.15,3.31,0-.62-.08-1.23-.16-1.85-.25.95.14,1.87.4,2.76.76-.55-.23-1.11-.47-1.66-.7.95.41,1.83.93,2.66,1.55-.47-.36-.94-.73-1.41-1.09,1.02.79,1.9,1.72,2.7,2.73-.36-.47-.73-.94-1.09-1.4,2.34,3.05,3.82,6.63,5.5,10.06,1.91,3.87,4.25,7.74,7.6,10.53,3.69,3.07,8,5.32,12.73,6.27,4.94.98,9.86.92,14.78-.17,9.67-2.15,17.69-8.92,22.52-17.42,4.87-8.58,6.87-18.83,6.21-28.63-.77-11.43-4.37-22.23-8.75-32.73-.7-1.69-1.42-3.37-2.14-5.05-.64-1.49-2.67-2.79-4.15-3.19-1.66-.46-3.88-.25-5.35.7-1.48.96-2.79,2.38-3.19,4.15-.08.62-.16,1.23-.25,1.85,0,1.25.32,2.42.95,3.51.32.75.64,1.5.96,2.26l-.7-1.66c3.81,9.03,7.26,18.31,8.58,28.07-.08-.62-.16-1.23-.25-1.85.6,4.64.7,9.3.09,13.94.08-.62.16-1.23.25-1.85-.53,3.87-1.52,7.67-3.04,11.27.23-.55.47-1.11.7-1.66-1.2,2.79-2.69,5.42-4.54,7.83.36-.47.73-.94,1.09-1.4-1.61,2.07-3.45,3.93-5.51,5.54.47-.36.94-.73,1.41-1.09-1.7,1.3-3.54,2.37-5.5,3.21.55-.23,1.11-.47,1.66-.7-2.24.94-4.59,1.58-7,1.92.62-.08,1.23-.16,1.85-.25-2.39.32-4.81.34-7.21.03.62.08,1.23.16,1.85.25-2.14-.29-4.22-.84-6.2-1.67.55.23,1.11.47,1.66.7-1.63-.7-3.16-1.59-4.57-2.67.47.36.94.72,1.41,1.09-1.24-.98-2.36-2.09-3.34-3.33.36.47.73.94,1.09,1.4-2.69-3.51-4.29-7.67-6.3-11.57-2.31-4.48-5.57-9.02-10.26-11.24-3.05-1.45-6.41-2.33-9.82-1.95-3.53.4-6.83,1.4-9.89,3.26-5.46,3.32-9.35,8.39-12.18,14.03-2.8,5.59-4.79,11.67-8.65,16.67.36-.47.73-.94,1.09-1.4-1.31,1.67-2.79,3.19-4.47,4.49.47-.36.94-.72,1.41-1.09-1.18.89-2.45,1.66-3.81,2.25.55-.23,1.11-.47,1.66-.7-1.12.47-2.28.8-3.48.99.62-.08,1.23-.16,1.85-.25-1.21.16-2.41.16-3.62,0,.62.08,1.23.16,1.85.25-1.14-.17-2.23-.48-3.29-.92.55.23,1.11.47,1.66.7-1.26-.55-2.43-1.25-3.52-2.09.47.36.94.72,1.41,1.09-1.63-1.28-3.05-2.78-4.31-4.41.36.47.73.94,1.09,1.4-4.16-5.45-6.23-12.02-9.65-17.9-3.91-6.71-10.04-12.88-18.07-14.01-2.06-.29-4-.48-6.07-.23-2.03.25-3.99.56-5.92,1.25-3.97,1.44-7.4,3.51-10.58,6.29-2.69,2.35-5.04,5.3-6.71,8.46-2.27,4.26-3.33,8.79-3.9,13.54-.61,5.06-.07,10.18.79,15.17.8,4.67,2.11,9.24,3.58,13.75.56,1.71,1.61,3.23,3.19,4.15,1.49.87,3.68,1.24,5.35.7,1.68-.54,3.3-1.59,4.15-3.19.85-1.61,1.28-3.57.7-5.35h0Z"/><path class="cls-2" d="M508.39,502.87c1.78,0,3.65-.78,4.91-2.03,1.2-1.2,2.11-3.18,2.04-4.91-.17-3.76-3.05-6.95-6.95-6.95-1.78,0-3.65.78-4.91,2.03-1.2,1.2-2.11,3.18-2.04,4.91.17,3.76,3.05,6.95,6.95,6.95h0Z"/><path class="cls-2" d="M297.75-52.88c-6.27-21.79-19.31-41.85-37.03-56.06-9.96-7.98-22.4-15.25-35.69-13.66-3.63.43-6.82,1.32-10.17,2.79-2.72,1.19-5.09,2.83-7.41,4.66-4.26,3.35-7.8,7.77-10.37,12.53-6.23,11.53-7.03,25.03-6.08,37.85.51,6.95,1.41,13.88,2.62,20.74,1.07,6.05,2.26,12.21,4.15,18.06,1.68,5.19,4.24,10.79,8.56,14.32,2.93,2.39,6.03,3.78,9.81,4.17,3.14.33,6.35-.5,9.11-2,5.24-2.85,8.54-8.46,10.28-13.98,1.69-5.4,1.84-11.46,1.16-17.05-.83-6.71-2.68-13.01-5.73-19.07-2.67-5.32-6.34-10.24-10.58-14.41-8.31-8.18-19.14-13.96-30.51-16.49-12.71-2.83-26.76-1.99-37.46,6.1-10.03,7.58-16.13,18.54-20.81,29.97-4.8,11.71-7.44,24.28-8.12,36.9-.32,6.01-.14,12.04.57,18.02.83,7.03,2.32,14.28,7.59,19.44,5.5,5.39,13.9,7.25,20.74,3.19,5.9-3.5,9.43-10.18,10.7-16.74,2.38-12.35-1-25.78-8.02-36.13-3.35-4.94-7.35-9.15-12.22-12.6-4.89-3.48-10.54-5.47-16.46-6.24-11.94-1.54-23.32,4.03-32.17,11.59-8.83,7.55-15.51,17.72-20.38,28.18-5.36,11.52-8.68,23.63-9.97,36.27-.58,5.66-.67,11.37-.28,17.05.13,1.86.69,3.57,2.04,4.91,1.2,1.2,3.18,2.11,4.91,2.03,3.55-.16,7.22-3.06,6.95-6.95-.47-6.82-.23-13.66.68-20.44-.08.62-.16,1.23-.25,1.85,1.23-8.91,3.61-17.62,7.08-25.91l-.7,1.66c3.13-7.4,7.08-14.53,11.99-20.9-.36.47-.73.94-1.09,1.4,3.21-4.12,6.85-7.89,10.98-11.09-.47.36-.94.72-1.41,1.09,2.87-2.19,5.96-4.08,9.28-5.51-.55.23-1.11.47-1.66.7,2.64-1.11,5.38-1.9,8.22-2.31-.62.08-1.23.16-1.85.25,2.53-.33,5.08-.34,7.61,0-.62-.08-1.23-.16-1.85-.25,2.4.35,4.72.99,6.95,1.92-.55-.23-1.11-.47-1.66-.7,2.51,1.07,4.85,2.47,7.02,4.12-.47-.36-.94-.72-1.41-1.09,2.71,2.1,5.1,4.55,7.19,7.26-.36-.47-.73-.94-1.09-1.4,2.36,3.11,4.31,6.49,5.83,10.08-.23-.55-.47-1.11-.7-1.66,1.57,3.78,2.67,7.75,3.23,11.81-.08-.62-.16-1.23-.25-1.85.4,3.14.45,6.3.03,9.44.08-.62.16-1.23.25-1.85-.33,2.29-.9,4.53-1.78,6.68.23-.55.47-1.11.7-1.66-.65,1.52-1.45,2.94-2.45,4.25.36-.47.73-.94,1.09-1.4-.74.93-1.56,1.77-2.49,2.5.47-.36.94-.72,1.41-1.09-.68.5-1.39.93-2.15,1.28.55-.23,1.11-.47,1.66-.7-.79.33-1.58.55-2.43.68.62-.08,1.23-.16,1.85-.25-.78.09-1.54.08-2.32,0,.62.08,1.23.16,1.85.25-.88-.14-1.72-.37-2.55-.71.55.23,1.11.47,1.66.7-.94-.41-1.8-.92-2.62-1.52.47.36.94.72,1.41,1.09-1-.78-1.87-1.65-2.64-2.65.36.47.73.94,1.09,1.4-.8-1.08-1.44-2.25-1.98-3.48.23.55.47,1.11.7,1.66-1.12-2.68-1.69-5.52-2.08-8.39.08.62.16,1.23.25,1.85-1.2-9.2-1.12-18.54.09-27.73-.08.62-.16,1.23-.25,1.85,1.29-9.47,3.81-18.74,7.52-27.55l-.7,1.66c2.54-5.96,5.55-11.76,9.49-16.92-.36.47-.73.94-1.09,1.4,2.25-2.9,4.77-5.56,7.68-7.81-.47.36-.94.73-1.41,1.09,2.13-1.61,4.42-2.97,6.88-4.03-.55.23-1.11.47-1.66.7,2.72-1.13,5.56-1.87,8.48-2.29-.62.08-1.23.16-1.85.25,3.97-.52,7.97-.45,11.94.07-.62-.08-1.23-.16-1.85-.25,5.1.7,10.07,2.07,14.82,4.05-.55-.23-1.11-.47-1.66-.7,4.52,1.92,8.79,4.38,12.69,7.38-.47-.36-.94-.72-1.41-1.09,3.43,2.67,6.52,5.72,9.19,9.14-.36-.47-.73-.94-1.09-1.4,2.6,3.38,4.74,7.06,6.41,10.97l-.7-1.66c1.64,3.92,2.78,8.02,3.36,12.23-.08-.62-.16-1.23-.25-1.85.5,3.82.54,7.68.05,11.5.08-.62.16-1.23.25-1.85-.31,2.18-.89,4.3-1.74,6.33.23-.55.47-1.11.7-1.66-.63,1.45-1.4,2.82-2.35,4.09.36-.47.73-.94,1.09-1.4-.75.97-1.58,1.84-2.54,2.59.47-.36.94-.72,1.41-1.09-.73.54-1.49.99-2.33,1.34.55-.23,1.11-.47,1.66-.7-.68.26-1.37.45-2.09.57.62-.08,1.23-.16,1.85-.25-.85.11-1.69.12-2.54.02.62.08,1.23.16,1.85.25-.82-.12-1.59-.32-2.36-.63.55.23,1.11.47,1.66.7-.83-.36-1.59-.81-2.32-1.35.47.36.94.72,1.41,1.09-1.04-.81-1.94-1.75-2.74-2.8.36.47.73.94,1.09,1.4-1.26-1.69-2.25-3.55-3.09-5.48.23.55.47,1.11.7,1.66-1.77-4.24-2.75-8.8-3.74-13.28-1.16-5.27-2.09-10.58-2.81-15.92.08.62.16,1.23.25,1.85-1.28-9.66-2.14-19.58-.89-29.29-.08.62-.16,1.23-.25,1.85.59-4.37,1.63-8.67,3.34-12.74-.23.55-.47,1.11-.7,1.66,1.29-3,2.93-5.82,4.92-8.4-.36.47-.73.94-1.09,1.4,1.73-2.21,3.69-4.21,5.91-5.94-.47.36-.94.73-1.41,1.09,1.95-1.49,4.04-2.74,6.3-3.7-.55.23-1.11.47-1.66.7,2.05-.84,4.17-1.41,6.37-1.71-.62.08-1.23.16-1.85.25,2.33-.28,4.67-.26,7,.03-.62-.08-1.23-.16-1.85-.25,3.22.44,6.32,1.37,9.32,2.63-.55-.23-1.11-.47-1.66-.7,4.69,2.01,9.01,4.76,13.05,7.86-.47-.36-.94-.72-1.41-1.09,6.99,5.42,13.26,11.73,18.69,18.72-.36-.47-.73-.94-1.09-1.4,5.61,7.28,10.28,15.26,13.86,23.73-.23-.55-.47-1.11-.7-1.66,1.59,3.8,2.96,7.69,4.1,11.65,1,3.49,4.95,6.01,8.55,4.85,3.55-1.15,5.93-4.8,4.85-8.55h0Z"/><path class="cls-2" d="M112.97,53.95c1.78,0,3.65-.78,4.91-2.03,1.2-1.2,2.11-3.18,2.04-4.91-.17-3.76-3.05-6.95-6.95-6.95-1.78,0-3.65.78-4.91,2.03-1.26,1.26-2.11,3.18-2.04,4.91.17,3.76,3.05,6.95,6.95,6.95h0Z"/><path class="cls-2" d="M141.59,243.61c-8.73,9.3-16.89,19.1-24.57,29.29-7.42,9.85-14.31,20.1-20.63,30.69-6.29,10.54-12.01,21.42-17.14,32.57-5.35,11.64-10.12,23.56-14.2,35.7-3.91,11.63-7.18,23.48-9.8,35.47-.33,1.5-.64,3-.95,4.5-.6,2.93.37,6.35,3.19,7.84,2.88,1.52,5.99,1.02,8.42-1.09,3.45-2.99,6.97-5.88,10.58-8.67-.47.36-.94.72-1.41,1.09,12.92-9.98,26.84-18.66,41.5-25.86,4.15-2.04,8.35-3.95,12.61-5.75l-1.66.7c3.07-1.29,6.16-2.52,9.27-3.69-2.62-3.4-5.23-6.8-7.85-10.2-12.58,22.9-23.11,46.97-31.41,71.75-2.29,6.83-4.4,13.72-6.34,20.66-.75,2.7.31,5.62,2.49,7.3,1,.77,2.04,1.2,3.29,1.37,1.65.22,2.9-.14,4.43-.83,20.25-9.07,40.49-18.15,60.74-27.22,5.67-2.54,11.35-5.08,17.02-7.63,1.49-.67,2.78-2.64,3.19-4.15.46-1.66.25-3.88-.7-5.35-.96-1.48-2.38-2.79-4.15-3.19-1.93-.44-3.56-.1-5.35.7-20.25,9.07-40.49,18.15-60.74,27.22-5.67,2.54-11.35,5.08-17.02,7.63,3.4,2.61,6.81,5.23,10.21,7.84,3.8-13.56,8.25-26.93,13.36-40.05,1.45-3.72,2.95-7.42,4.51-11.1-.23.55-.47,1.11-.7,1.66,5.71-13.51,12.11-26.73,19.18-39.59,1.36-2.48,1.19-5.47-.54-7.72-1.57-2.04-4.72-3.46-7.3-2.49-21.7,8.13-42.28,19.09-60.91,32.88-5.53,4.09-10.91,8.37-16.11,12.88l11.62,6.76c3.5-17.11,8.32-33.94,14.41-50.31,1.73-4.65,3.56-9.25,5.49-13.82-.23.55-.47,1.11-.7,1.66,9.01-21.31,20.14-41.7,33.23-60.78,3.67-5.35,7.5-10.6,11.47-15.73-.36.47-.73.94-1.09,1.4,6.58-8.49,13.55-16.67,20.9-24.5,2.49-2.65,2.83-7.23,0-9.82-2.7-2.48-7.17-2.83-9.83,0h0Z"/><path class="cls-2" d="M140.97,328.7c1.78,0,3.65-.78,4.91-2.03,1.26-1.26,2.11-3.18,2.04-4.91-.17-3.76-3.05-6.95-6.95-6.95-1.78,0-3.65.78-4.91,2.03-1.2,1.2-2.11,3.18-2.04,4.91.17,3.76,3.05,6.95,6.95,6.95h0Z"/><path class="cls-2" d="M214.58,459.2c1.78,0,3.65-.78,4.91-2.03,1.2-1.2,2.11-3.18,2.04-4.91-.17-3.76-3.05-6.95-6.95-6.95-1.78,0-3.65.78-4.91,2.03-1.2,1.2-2.11,3.18-2.04,4.91.17,3.76,3.05,6.95,6.95,6.95h0Z"/><path class="cls-2" d="M145.23,469.33c-7.35,10.2-14.7,20.74-18.19,32.98-3.16,11.07-2.44,23.22,3.02,33.46,2.65,4.98,6.64,9.32,11.45,12.29,5.04,3.11,11.19,4.62,17.09,4.37,11.89-.5,23.39-6.79,30.82-15.99,3.98-4.93,7.18-10.27,9.68-16.1,2.52-5.86,4.56-11.87,6.38-17.98.41-1.38.81-2.76,1.21-4.14-4.47-1.23-8.94-2.46-13.4-3.69-2.38,10.89-4.88,22.25-3.59,33.46.34,2.91.76,5.82,1.59,8.64.72,2.45,1.71,4.85,2.83,7.14,1.95,4,4.69,7.78,7.91,10.85,3.57,3.4,7.77,6.01,12.46,7.53,4.9,1.59,10.3,1.61,15.28.4,9.52-2.32,17.73-9.45,22.51-17.86,6.03-10.61,7.29-23.1,7.44-35.07.05-3.46-2.68-6.37-6.03-6.82-3.2-.43-6.95,1.57-7.63,4.97-.78,3.92-.92,7.69-.39,11.63.53,3.92,1.68,7.51,3.34,11.1,3,6.49,8.11,12.1,14.15,15.91,6.04,3.82,13.57,5.74,20.69,4.92,2.06-.24,4.11-.53,6.11-1.08,2.03-.55,3.96-1.35,5.88-2.2,3.35-1.47,6.34-3.55,9.13-5.9,6-5.04,10.61-12.47,11.89-20.24.31-1.9.31-3.63-.7-5.35-.84-1.44-2.5-2.81-4.15-3.19-1.78-.41-3.77-.32-5.35.7-1.43.92-2.9,2.4-3.19,4.15-.34,2.08-.93,4.1-1.75,6.04.23-.55.47-1.11.7-1.66-.96,2.23-2.19,4.31-3.66,6.24.36-.47.73-.94,1.09-1.4-1.64,2.12-3.54,4.01-5.65,5.67.47-.36.94-.72,1.41-1.09-2.19,1.69-4.57,3.1-7.12,4.19.55-.23,1.11-.47,1.66-.7-2.46,1.04-5.03,1.76-7.68,2.12.62-.08,1.23-.16,1.85-.25-2.33.3-4.67.31-7,.02.62.08,1.23.16,1.85.25-2.25-.31-4.42-.91-6.52-1.77.55.23,1.11.47,1.66.7-2.3-.97-4.44-2.23-6.42-3.75.47.36.94.72,1.41,1.09-2.1-1.64-3.98-3.53-5.62-5.63.36.47.73.94,1.09,1.4-1.68-2.18-3.07-4.56-4.16-7.08.23.55.47,1.11.7,1.66-1.03-2.45-1.75-5.01-2.12-7.64.08.62.16,1.23.25,1.85-.31-2.39-.33-4.8-.02-7.19-.08.62-.16,1.23-.25,1.85.08-.56.17-1.12.28-1.67-4.55-.62-9.1-1.23-13.65-1.85-.06,4.49-.27,8.98-.86,13.43.08-.62.16-1.23.25-1.85-.66,4.82-1.77,9.58-3.65,14.07.23-.55.47-1.11.7-1.66-1.23,2.87-2.75,5.58-4.66,8.05.36-.47.73-.94,1.09-1.4-1.71,2.18-3.67,4.15-5.87,5.85.47-.36.94-.72,1.41-1.09-1.89,1.44-3.93,2.66-6.12,3.59.55-.23,1.11-.47,1.66-.7-1.93.8-3.92,1.37-5.99,1.66.62-.08,1.23-.16,1.85-.25-1.89.24-3.79.25-5.69,0,.62.08,1.23.16,1.85.25-1.88-.27-3.69-.78-5.45-1.51.55.23,1.11.47,1.66.7-1.89-.82-3.65-1.86-5.29-3.11.47.36.94.72,1.41,1.09-2.06-1.6-3.88-3.46-5.47-5.52.36.47.73.94,1.09,1.4-1.76-2.32-3.22-4.84-4.37-7.51.23.55.47,1.11.7,1.66-1.31-3.09-2.13-6.31-2.59-9.63.08.62.16,1.23.25,1.85-.76-5.71-.48-11.48.28-17.18-.08.62-.16,1.23-.25,1.85.72-5.19,1.81-10.32,2.93-15.43.4-1.82.26-3.71-.7-5.35-.84-1.44-2.5-2.81-4.15-3.19-3.72-.85-7.46,1.12-8.55,4.85-1.97,6.77-3.97,13.54-6.71,20.05l.7-1.66c-2.15,5.06-4.76,9.92-8.12,14.29.36-.47.73-.94,1.09-1.4-2.12,2.73-4.51,5.18-7.24,7.31.47-.36.94-.73,1.41-1.09-2.6,1.99-5.41,3.65-8.42,4.93.55-.23,1.11-.47,1.66-.7-2.64,1.1-5.39,1.89-8.22,2.29.62-.08,1.23-.16,1.85-.25-2.35.31-4.72.35-7.08.05.62.08,1.23.16,1.85.25-2.1-.28-4.15-.83-6.11-1.65.55.23,1.11.47,1.66.7-1.79-.77-3.46-1.75-5.01-2.93.47.36.94.72,1.41,1.09-1.67-1.3-3.15-2.81-4.46-4.48.36.47.73.94,1.09,1.4-1.54-2.02-2.79-4.23-3.78-6.57l.7,1.66c-1.19-2.86-1.97-5.85-2.4-8.91.08.62.16,1.23.25,1.85-.46-3.41-.47-6.86-.03-10.28-.08.62-.16,1.23-.25,1.85.6-4.46,1.96-8.8,3.7-12.94-.23.55-.47,1.11-.7,1.66,3.82-8.93,9.49-16.87,15.14-24.71,1-1.38,1.13-3.78.7-5.35-.44-1.61-1.69-3.36-3.19-4.15-1.61-.85-3.57-1.28-5.35-.7-1.81.59-3.04,1.65-4.15,3.19h0Z"/><path class="cls-2" d="M34.46,214.54c1.78,0,3.65-.78,4.91-2.03,1.26-1.26,2.11-3.18,2.04-4.91-.17-3.76-3.05-6.95-6.95-6.95-1.78,0-3.65.78-4.91,2.03-1.26,1.26-2.11,3.18-2.04,4.91.17,3.76,3.05,6.95,6.95,6.95h0Z"/><path class="cls-2" d="M66.45,296.95c1.78,0,3.65-.78,4.91-2.03,1.26-1.26,2.11-3.18,2.04-4.91-.17-3.76-3.05-6.95-6.95-6.95-1.78,0-3.65.78-4.91,2.03-1.26,1.26-2.11,3.18-2.04,4.91.17,3.76,3.05,6.95,6.95,6.95h0Z"/><path class="cls-2" d="M45.16,317.73c-3.79-.93-7.53-2.08-11.2-3.42-.94-.34-1.87-.7-2.8-1.06-.43-.17-.86-.34-1.29-.52-.24-.1-.49-.2-.73-.3-1.13-.46,1.18.51.39.16-1.76-.77-3.51-1.55-5.22-2.41-3.02-1.5-5.98-3.13-8.73-5.08-.27-.2-.54-.4-.82-.59-.74-.54,1.5,1.2.33.25-.48-.4-.95-.81-1.4-1.24-.64-.62-1.26-1.28-1.85-1.95-.3-.34-.59-.68-.88-1.03-.16-.2-.32-.4-.49-.6-.52-.63,1.06,1.45.27.33-1.21-1.71-2.32-3.47-3.2-5.39-.12-.26-.47-1.08-.02-.03.49,1.16,0-.03-.06-.21-.17-.47-.33-.94-.47-1.42-.32-1.08-.55-2.17-.71-3.28.08.62.16,1.23.25,1.85-.24-1.89-.25-3.77,0-5.66-.08.62-.16,1.23-.25,1.85.14-.94.32-1.86.58-2.77.13-.45.27-.9.42-1.34.2-.58.99-1.93-.06.02.85-1.57,1.59-3.13,2.64-4.59,1.07-1.48-.78.9,0,0,.31-.36.61-.73.94-1.09.56-.62,1.15-1.23,1.76-1.81.7-.67,1.44-1.29,2.19-1.91.92-.77-1.46,1.07.04-.01.34-.25.69-.49,1.04-.72,1.45-.98,2.97-1.85,4.54-2.61.97-.47-1.95.78-.48.21.25-.1.5-.19.75-.28.71-.25,1.43-.47,2.15-.67,3.21-.89,6.52-1.41,9.81-1.86-.62.08-1.23.16-1.85.25,7.53-1.01,15.26-1.3,22.69-2.99,4.25-.97,8.54-1.87,12.68-3.23,5.1-1.68,9.73-4,13.94-7.34,7.33-5.83,11.29-14.84,11.4-24.13.11-9.53-3.89-17.98-8.39-26.14-2.61-4.74-5.38-9.39-7.81-14.23-.57-1.14-1.12-2.29-1.65-3.45-.12-.26-.23-.52-.35-.77-.09-.19-.17-.39-.25-.58-.21-.49-.11-.26.29.68-.14-.65-.54-1.34-.78-1.97-.83-2.22-1.48-4.45-1.82-6.79.08.62.16,1.23.25,1.85-.4-3.02-.35-6.05.05-9.06-.08.62-.16,1.23-.25,1.85.24-1.65.57-3.28,1.02-4.89.2-.71.42-1.42.65-2.12.14-.41.28-.81.44-1.22.11-.28.68-1.68.2-.54-.48,1.13.05-.09.17-.34.18-.39.36-.77.56-1.15.38-.75.79-1.49,1.22-2.22.37-.61.75-1.21,1.15-1.8.23-.34.48-.67.72-1,.38-.54-.59.72-.56.71.11-.02.36-.44.44-.54,4.4-5.32,10.06-9.45,14.42-14.81,2.83-3.48,4.99-7.03,6.59-11.23,1.39-3.65,2.04-7.64,2.21-11.54.34-7.85-1.81-15.73-5.59-22.58-4.21-7.63-10.46-13.83-17.49-18.88-1.38-.99-3.78-1.14-5.35-.7-1.61.44-3.36,1.69-4.15,3.19-1.9,3.59-.67,7.23,2.49,9.5.31.23.63.45.94.68.42.31,1.25,1.2-.18-.15.51.48,1.11.89,1.65,1.35,1.08.92,2.13,1.88,3.14,2.88,1.05,1.04,2.06,2.13,3.01,3.27.21.25.41.49.62.74.69.85.06.03-.25-.35.49.59.92,1.24,1.36,1.87.8,1.16,1.54,2.36,2.22,3.6.34.62.66,1.24.97,1.88.17.35.33.69.49,1.04.47,1.05.09-.06-.17-.42.41.58.59,1.5.81,2.18.21.62.4,1.24.58,1.87.42,1.51.73,3.06.96,4.61-.08-.62-.16-1.23-.25-1.85.42,3.12.43,6.25.02,9.37.08-.62.16-1.23.25-1.85-.28,1.93-.71,3.83-1.35,5.67-.15.43-.31.85-.47,1.27-.3.83.62-1.38.25-.58-.08.18-.16.36-.24.53-.44.94-.94,1.86-1.49,2.74-.48.77-1,1.5-1.53,2.24-.69.96.96-1.19.01-.04-.37.45-.75.89-1.13,1.32-1.3,1.45-2.67,2.83-4.08,4.18-5.74,5.52-11.6,10.9-14.94,18.3-3.65,8.1-5.11,16.75-3.67,25.56.71,4.33,2.56,8.47,4.38,12.43,1.75,3.81,3.77,7.49,5.83,11.14,2.33,4.15,4.72,8.27,6.8,12.54.25.51.49,1.01.73,1.52.11.23.21.47.32.7.49,1.04-.53-1.32-.22-.54.36.92.71,1.84,1,2.78.59,1.86,1.01,3.77,1.29,5.71-.08-.62-.16-1.23-.25-1.85.33,2.58.37,5.17.04,7.75.08-.62.16-1.23.25-1.85-.2,1.44-.5,2.85-.94,4.24-.12.37-.24.74-.38,1.11-.1.28-.58,1.43-.09.26.51-1.22-.09.15-.21.39-.18.36-.36.7-.56,1.05-.37.65-.76,1.28-1.19,1.89-.1.14-.21.28-.31.42-.36.53.55-.71.56-.71-.07-.02-.71.85-.8.95-.52.59-1.07,1.15-1.65,1.69-.28.26-.57.51-.86.76-.17.15-.41.39-.62.51.2-.12,1.22-.9.47-.36-1.36.98-2.77,1.86-4.26,2.63-.39.2-.79.4-1.2.58-.25.12-1.5.66-.38.19,1.11-.47-.14.05-.4.15-.48.18-.95.36-1.43.52-3.25,1.13-6.6,1.93-9.95,2.7-3.05.7-6.07,1.37-9.17,1.79.62-.08,1.23-.16,1.85-.25-8.2,1.09-16.53,1.52-24.62,3.32-8.36,1.87-16.24,6.62-21.62,13.32-3.17,3.95-5.8,8.45-6.75,13.49-.99,5.21-.73,10.65,1.21,15.63,1.98,5.1,4.91,9.57,8.68,13.54,2.65,2.8,5.9,5.05,9.2,7.01,4.64,2.75,9.59,4.94,14.59,6.95,4.8,1.92,9.72,3.55,14.74,4.77,3.53.86,7.7-1.12,8.55-4.85.82-3.58-1.08-7.62-4.85-8.55h0Z"/><path class="cls-2" d="M28.49,381.1c1.78,0,3.65-.78,4.91-2.03,1.21-1.2,2.11-3.18,2.04-4.91-.17-3.76-3.05-6.95-6.95-6.95-1.78,0-3.65.78-4.91,2.03s-2.11,3.18-2.04,4.91c.17,3.76,3.05,6.95,6.95,6.95h0Z"/><path class="cls-2" d="M5.06,228.04c-5.78-8.24-12.24-16.02-19.37-23.12-7.1-7.07-14.87-13.49-23.06-19.27-7.82-5.52-16.1-10.38-24.73-14.52-9.04-4.34-18.45-7.99-28.09-10.75-9.71-2.79-19.67-4.63-29.72-5.67-1.19-.12-2.38-.23-3.57-.33-.62.08-1.23.16-1.85.25-.9.21-1.69.63-2.36,1.24-1.15.89-2.16,2.15-2.49,3.61-.7,3.09.5,6.14,3.19,7.84,5.84,3.7,11.51,7.66,16.98,11.89-.47-.36-.94-.73-1.41-1.09,11.81,9.14,22.71,19.44,32.49,30.73,2.76,3.18,5.42,6.44,8,9.77-.36-.47-.73-.94-1.09-1.4,8.18,10.59,15.43,21.89,21.59,33.77,1.75,3.38,3.42,6.81,5,10.28,3.64-2.8,7.28-5.61,10.91-8.42-9.32-8.99-19.42-17.19-30.06-24.56-10.28-7.12-21.14-13.4-32.44-18.76-6.81-3.23-13.77-6.15-20.84-8.75-2.27-.84-5.12.15-6.76,1.79-.86.87-1.46,1.89-1.79,3.06-.33,1.23-.33,2.46,0,3.69,8.17,19.63,16.33,39.27,24.5,58.91,2.28,5.49,4.57,10.99,6.86,16.48l11.62-6.76c-14.13-12.97-29.73-24.43-46.4-33.94-4.6-2.62-9.27-5.09-14.03-7.41-1.7-.83-3.48-1.22-5.35-.7-1.61.44-3.36,1.69-4.15,3.19-.85,1.61-1.28,3.57-.7,5.35.53,1.65,1.58,3.36,3.19,4.15,11.79,5.77,23.13,12.46,33.86,20.01,3.04,2.14,6.04,4.35,8.99,6.63-.47-.36-.94-.72-1.41-1.09,5.58,4.31,10.97,8.86,16.17,13.63,2.2,2.02,5.77,2.8,8.42,1.09,1-.65,1.84-1.49,2.49-2.49.84-1.3,1.32-3.87.7-5.35-8.17-19.64-16.33-39.27-24.5-58.91-2.29-5.49-4.57-10.99-6.86-16.48-2.85,2.85-5.7,5.7-8.55,8.55,3.37,1.24,6.7,2.55,10.01,3.95-.55-.23-1.11-.47-1.66-.7,14.26,6.03,27.9,13.48,40.67,22.23,3.58,2.45,7.09,5.01,10.53,7.66-.47-.36-.94-.72-1.41-1.09,6.65,5.13,13.01,10.63,19.06,16.46,2.5,2.41,6.38,2.66,9.12.54,1.15-.89,2.16-2.15,2.49-3.61.08-.62.16-1.23.25-1.85,0-1.25-.32-2.42-.95-3.51-7.03-15.45-15.84-30.07-26.18-43.52-10.64-13.84-22.61-26.55-36.07-37.7-7.72-6.4-15.83-12.34-24.31-17.71-1.17,4.31-2.34,8.63-3.51,12.94,2.73.22,5.44.52,8.15.88-.62-.08-1.23-.16-1.85-.25,11.34,1.52,22.51,4.25,33.29,8.09,3.06,1.09,6.08,2.27,9.07,3.53-.55-.23-1.11-.47-1.66-.7,10.54,4.46,20.64,9.97,30.09,16.44,2.68,1.83,5.3,3.75,7.87,5.73-.47-.36-.94-.72-1.41-1.09,8.64,6.69,16.65,14.2,23.82,22.45,2.02,2.32,3.96,4.7,5.84,7.13-.36-.47-.73-.94-1.09-1.4,1.51,1.96,2.98,3.96,4.4,5.98,1.06,1.51,2.33,2.69,4.15,3.19,1.66.46,3.88.25,5.35-.7,1.48-.96,2.79-2.38,3.19-4.15.4-1.74.36-3.84-.7-5.35h0Z"/><path class="cls-2" d="M-57.36,323.96c1.9-.16,3.8-.12,5.69.13-.62-.08-1.23-.16-1.85-.25,2.64.37,5.19,1.11,7.64,2.14-.55-.23-1.11-.47-1.66-.7,3.5,1.5,6.72,3.52,9.73,5.84-.47-.36-.94-.72-1.41-1.09,6.01,4.68,11.14,10.44,15.79,16.44-.36-.47-.73-.94-1.09-1.4,4.64,6.02,8.69,12.5,11.68,19.5-.23-.55-.47-1.11-.7-1.66,2.17,5.15,3.72,10.52,4.48,16.06-.08-.62-.16-1.23-.25-1.85.62,4.7.67,9.44.04,14.14.08-.62.16-1.23.25-1.85-.55,3.91-1.56,7.72-3.09,11.36.23-.55.47-1.11.7-1.66-1.3,3.02-2.96,5.86-4.96,8.47.36-.47.73-.94,1.09-1.4-2.05,2.65-4.42,5.03-7.07,7.08.47-.36.94-.73,1.41-1.09-2.38,1.82-4.97,3.35-7.73,4.52.55-.23,1.11-.47,1.66-.7-2.54,1.06-5.19,1.8-7.92,2.17.62-.08,1.23-.16,1.85-.25-2.46.32-4.93.31-7.39-.01.62.08,1.23.16,1.85.25-2.6-.36-5.14-1.05-7.56-2.06.55.23,1.11.47,1.66.7-2.34-.99-4.54-2.25-6.56-3.79.47.36.94.73,1.41,1.09-1.81-1.4-3.44-2.99-4.85-4.79.36.47.73.94,1.09,1.4-1.25-1.62-2.3-3.38-3.12-5.26.23.55.47,1.11.7,1.66-.63-1.49-1.1-3.01-1.33-4.61.08.62.16,1.23.25,1.85-.13-1.07-.15-2.13-.03-3.2-.08.62-.16,1.23-.25,1.85.11-.8.3-1.57.61-2.33-.23.55-.47,1.11-.7,1.66.23-.52.51-1.01.85-1.47-.36.47-.73.94-1.09,1.4.32-.4.67-.75,1.07-1.07-.47.36-.94.72-1.41,1.09.47-.35.95-.62,1.48-.85-.55.23-1.11.47-1.66.7.53-.2,1.07-.33,1.64-.41-.62.08-1.23.16-1.85.25.74-.08,1.48-.05,2.22.04-.62-.08-1.23-.16-1.85-.25,1.13.18,2.2.51,3.25.95-.55-.23-1.11-.47-1.66-.7,2.17.94,4.11,2.28,5.98,3.71-.47-.36-.94-.72-1.41-1.09,3.38,2.62,6.42,5.64,9.05,9.02-.36-.47-.73-.94-1.09-1.4,2.44,3.16,4.49,6.6,6.05,10.28-.23-.55-.47-1.11-.7-1.66,1.36,3.27,2.33,6.68,2.8,10.19-.08-.62-.16-1.23-.25-1.85.39,2.99.42,6,.04,8.99.08-.62.16-1.23.25-1.85-.41,3.05-1.23,6.02-2.41,8.86.23-.55.47-1.11.7-1.66-1.19,2.82-2.73,5.48-4.6,7.91.36-.47.73-.94,1.09-1.4-1.68,2.14-3.59,4.08-5.74,5.75.47-.36.94-.72,1.41-1.09-1.91,1.45-3.96,2.67-6.17,3.62.55-.23,1.11-.47,1.66-.7-2.02.85-4.13,1.46-6.3,1.77.62-.08,1.23-.16,1.85-.25-2.22.3-4.46.28-6.68,0,.62.08,1.23.16,1.85.25-2.44-.34-4.82-1-7.09-1.95.55.23,1.11.47,1.66.7-2.19-.94-4.26-2.13-6.15-3.58.47.36.94.72,1.41,1.09-1.75-1.35-3.32-2.9-4.68-4.65.36.47.73.94,1.09,1.4-1.16-1.51-2.13-3.15-2.88-4.89.23.55.47,1.11.7,1.66-.72-1.71-1.21-3.48-1.46-5.32.08.62.16,1.23.25,1.85-.02-.14-.04-.29-.05-.43-.22-1.9-.63-3.51-2.04-4.91-1.21-1.2-3.18-2.11-4.91-2.03-1.8.08-3.66.67-4.91,2.03-1.16,1.27-2.24,3.12-2.04,4.91.21,1.79.43,3.58.94,5.31.49,1.68,1.19,3.33,1.96,4.91,1.26,2.61,3.07,5.01,5.04,7.12,4.09,4.37,9.54,7.55,15.25,9.27,5.8,1.75,12.24,1.89,18.06.18,6.09-1.8,11.71-5.36,16.01-10.03,4.38-4.76,7.63-10.47,9.47-16.67,1.92-6.45,2.02-13.14.82-19.73-1.12-6.18-3.73-12.25-7.2-17.48-3.87-5.83-8.65-10.7-14.24-14.87-2.83-2.11-6.05-4-9.53-4.76-4.79-1.05-9.98-.21-13.5,3.46-2.9,3.02-4.25,7.33-3.98,11.47.24,3.75,1.33,7.15,3.04,10.49,2.84,5.54,7.65,10.19,13.03,13.26,5.51,3.15,11.94,4.92,18.3,4.89,6.57-.03,13.14-2.02,18.8-5.31,5.79-3.36,10.58-8.08,14.41-13.53,3.8-5.42,6.34-11.89,7.47-18.4,1.34-7.69,1.15-15.33-.34-22.99-2.74-14.04-10.33-26.58-19.25-37.54-3.97-4.88-8.26-9.57-13.18-13.51-5.5-4.4-11.6-8.22-18.54-9.86-3.3-.78-6.79-1.16-10.17-.87-1.87.16-3.55.67-4.91,2.03-1.2,1.2-2.11,3.18-2.04,4.91.08,1.8.67,3.66,2.04,4.91,1.29,1.19,3.1,2.19,4.91,2.03h0Z"/><path class="cls-2" d="M-74.66,131.2c1.31,6.74,6.17,12.55,12.01,15.95,6.08,3.54,13.27,4.67,20.14,3.21,6.61-1.4,12.84-5.47,17.17-10.59,4.69-5.54,7.92-12.16,9.07-19.35.74-4.63.98-9.24.49-13.91-.48-4.67-1.36-9.27-2.69-13.78-.99-3.33-4.19-5.44-7.63-4.97-1.46.2-2.97.79-3.99,1.91-1.17,1.27-2.23,3.12-2.04,4.91,1.39,12.6,4.35,24.92,9.22,36.63,2.53,6.09,5.37,12.02,8.74,17.69,1.54,2.59,3.17,5.13,4.9,7.61,1.86,2.67,3.82,5.35,6.17,7.61,2.64,2.53,5.71,4.6,9.22,5.69,1.72.53,3.63.8,5.43.69,2.48-.16,4.47-.73,6.71-1.73,3.34-1.5,6.03-4.3,8.03-7.3,1.94-2.9,3.12-6.41,3.86-9.79,1.44-6.53,2.16-13.32,2.47-20,.29-6.25.11-12.53-.54-18.75-1.34-12.95-4.35-25.65-9.41-37.67-.79-1.87-1.58-3.74-2.44-5.58-.69-1.49-2.63-2.77-4.15-3.19-1.66-.46-3.88-.25-5.35.7-1.48.96-2.79,2.38-3.19,4.15-.08.62-.16,1.23-.25,1.85,0,1.25.32,2.42.95,3.51.58,1.25,1.14,2.51,1.68,3.78-.23-.55-.47-1.11-.7-1.66,4.34,10.27,7.27,21.1,8.76,32.14-.08-.62-.16-1.23-.25-1.85,1.47,11.05,1.49,22.27.02,33.31.08-.62.16-1.23.25-1.85-.58,4.24-1.19,8.6-2.84,12.58.23-.55.47-1.11.7-1.66-.58,1.34-1.28,2.61-2.16,3.78.36-.47.73-.94,1.09-1.4-.72.92-1.52,1.75-2.44,2.48.47-.36.94-.72,1.41-1.09-.79.6-1.62,1.11-2.52,1.52.55-.23,1.11-.47,1.66-.7-.83.35-1.68.59-2.58.72.62-.08,1.23-.16,1.85-.25-.82.1-1.63.1-2.45,0,.62.08,1.23.16,1.85.25-.96-.13-1.88-.39-2.78-.75.55.23,1.11.47,1.66.7-1.22-.52-2.34-1.21-3.39-2.02.47.36.94.73,1.41,1.09-1.91-1.5-3.54-3.3-5.02-5.22.36.47.73.94,1.09,1.4-5.92-7.74-10.67-16.52-14.47-25.47l.7,1.66c-4.35-10.33-7.35-21.2-8.86-32.31.08.62.16,1.23.25,1.85-.14-1.04-.27-2.09-.38-3.14-4.55.62-9.1,1.23-13.65,1.85.99,3.32,1.75,6.69,2.23,10.11-.08-.62-.16-1.23-.25-1.85.58,4.31.68,8.67.11,12.98.08-.62.16-1.23.25-1.85-.43,3.07-1.19,6.09-2.38,8.95.23-.55.47-1.11.7-1.66-1.07,2.53-2.45,4.91-4.12,7.1.36-.47.73-.94,1.09-1.4-1.53,1.97-3.27,3.75-5.23,5.29.47-.36.94-.72,1.41-1.09-1.76,1.36-3.67,2.49-5.71,3.37.55-.23,1.11-.47,1.66-.7-1.82.75-3.71,1.29-5.66,1.55.62-.08,1.23-.16,1.85-.25-1.69.21-3.39.2-5.08-.01.62.08,1.23.16,1.85.25-1.91-.26-3.77-.76-5.56-1.5.55.23,1.11.47,1.66.7-1.7-.72-3.29-1.63-4.76-2.74.47.36.94.72,1.41,1.09-1.32-1.02-2.51-2.19-3.53-3.51.36.47.73.94,1.09,1.4-.87-1.15-1.6-2.38-2.16-3.71l.7,1.66c-.42-1.01-.73-2.05-.94-3.12-.32-1.63-1.8-3.34-3.19-4.15-1.49-.87-3.68-1.24-5.35-.7-1.68.54-3.3,1.59-4.15,3.19-.91,1.72-1.07,3.43-.7,5.35h.01Z"/><path class="cls-2" d="M18.5,30.74c-1.95-2.21-3.82-4.47-5.63-6.8.36.47.73.94,1.09,1.4C6.81,16.1.89,5.95-3.66-4.82c.23.55.47,1.11.7,1.66-1.47-3.5-2.79-7.06-3.97-10.67-2.85,2.85-5.7,5.7-8.55,8.55C-2.6-.35,10.95,2.59,24.68,3.74c1.65.14,3.3.25,4.96.32,1.75.08,3.63.01,5.3-.5,2.59-.8,5.05-2.48,6.26-4.97.77-1.58,1.17-3.14,1.21-4.9.03-1.29-.24-2.58-.44-3.84-1.14-6.95-2.32-13.89-3.49-20.83-1.31-7.81-2.62-15.62-3.92-23.43l-8.55,8.55c12.29,3.44,24.58,6.89,36.86,10.33,3.55.99,7.65-1.21,8.55-4.85,2.96-11.92,5.91-23.85,8.87-35.77.44-1.78.23-3.76-.7-5.35-.84-1.44-2.5-2.81-4.15-3.19-1.78-.41-3.78-.32-5.35.7-1.5.97-2.75,2.38-3.19,4.15-2.96,11.92-5.91,23.85-8.87,35.77,2.85-1.62,5.7-3.23,8.55-4.85-12.29-3.44-24.58-6.89-36.86-10.33-2.39-.67-5.02.04-6.76,1.79-.86.87-1.46,1.89-1.79,3.06-.33,1.23-.33,2.46,0,3.69,1.96,11.72,3.92,23.43,5.88,35.15.55,3.3,1.19,6.59,1.65,9.91-.08-.62-.16-1.23-.25-1.85.07.62.1,1.23.02,1.86.08-.62.16-1.23.25-1.85-.05.26-.11.49-.21.74l.7-1.66c-.11.23-.22.43-.36.64.36-.47.73-.94,1.09-1.4-.18.22-.37.41-.6.59.47-.36.94-.72,1.41-1.09-.24.16-.47.29-.74.41.55-.23,1.11-.47,1.66-.7-.42.16-.84.26-1.28.34.62-.08,1.23-.16,1.85-.25-2.21.29-4.55-.03-6.77-.2-2.53-.2-5.05-.47-7.56-.8.62.08,1.23.16,1.85.25-10.78-1.45-21.36-4.14-31.52-8.04-2.25-.86-5.14.16-6.76,1.79-1.69,1.69-2.54,4.43-1.79,6.76C-15.68,4.15-8.85,17.77.07,29.86c2.72,3.68,5.57,7.27,8.6,10.7,1.14,1.29,3.24,2.03,4.91,2.03s3.74-.76,4.91-2.03c1.22-1.32,2.12-3.06,2.04-4.91-.09-1.91-.77-3.47-2.04-4.91h0Z"/><path class="cls-2" d="M737.31,428.24c.75.75,1.45,1.55,2.1,2.38-.36-.47-.73-.94-1.09-1.4,1.28,1.68,2.33,3.51,3.17,5.44-.23-.55-.47-1.11-.7-1.66,1.01,2.41,1.68,4.93,2.04,7.52-.08-.62-.16-1.23-.25-1.85.36,2.82.35,5.65,0,8.47.08-.62.16-1.23.25-1.85-.4,2.94-1.19,5.78-2.34,8.51.23-.55.47-1.11.7-1.66-1.33,3.09-3.07,5.98-5.11,8.65.36-.47.73-.94,1.09-1.4-2.65,3.41-5.76,6.42-9.18,9.06.47-.36.94-.72,1.41-1.09-4.88,3.73-10.3,6.64-15.95,9.03.55-.23,1.11-.47,1.66-.7-6.67,2.8-13.61,4.87-20.55,6.86-6.26,1.79-12.65,3.58-18.34,6.83-6.35,3.62-11.46,9.23-13.55,16.32-2.12,7.19-.92,14.88,2.26,21.55,2.97,6.25,8.49,11.38,14.57,14.59,6.48,3.42,13.71,5.12,21.02,5.31,14.88.41,29.63-5.42,41.52-14.09,5.91-4.31,11.36-9.17,16.38-14.49,2.37-2.51,4.65-5.1,6.86-7.75,2.04-2.43,3.96-4.97,6.15-7.27,1.04-1.1,2.14-2.13,3.34-3.06-.47.36-.94.72-1.41,1.09,1.18-.89,2.43-1.65,3.8-2.23-.55.23-1.11.47-1.66.7,1-.4,2.03-.69,3.1-.85-.62.08-1.23.16-1.85.25,1.12-.14,2.22-.14,3.34,0-.62-.08-1.23-.16-1.85-.25,1.2.18,2.36.5,3.48.96-.55-.23-1.11-.47-1.66-.7,1.31.57,2.52,1.29,3.66,2.16-.47-.36-.94-.73-1.41-1.09,1.22.96,2.3,2.05,3.26,3.27-.36-.47-.73-.94-1.09-1.4.94,1.24,1.73,2.56,2.35,3.99-.23-.55-.47-1.11-.7-1.66.71,1.7,1.14,3.49,1.39,5.31-.08-.62-.16-1.23-.25-1.85.27,2.28.23,4.57-.06,6.84.08-.62.16-1.23.25-1.85-.5,3.59-1.57,7.05-2.97,10.38.23-.55.47-1.11.7-1.66-2.13,4.97-4.91,9.65-8.21,13.94.36-.47.73-.94,1.09-1.4-3.41,4.4-7.36,8.36-11.75,11.79.47-.36.94-.72,1.41-1.09-4.21,3.25-8.8,5.8-13.52,8.24-4.95,2.57-9.78,5.24-14.01,8.91-4.41,3.82-7.98,9.19-9.05,14.98-.66,3.57-.63,6.82-.1,10.4.44,2.96,1.49,5.73,2.73,8.45,2.47,5.42,6.62,10.03,11.5,13.41,5.08,3.52,11.15,5.08,17.21,5.71,5.67.59,11.46-.05,17.04-1.11,4.89-.93,9.54-2.43,14.02-4.62,7.71-3.77,14.24-9.55,20.9-14.86.78-.62,1.57-1.24,2.36-1.85-.47.36-.94.73-1.41,1.09,4.12-3.17,8.45-6.13,13.26-8.16-.55.23-1.11.47-1.66.7,2.77-1.15,5.66-1.97,8.63-2.38-.62.08-1.23.16-1.85.25,3.13-.41,6.28-.37,9.4.04-.62-.08-1.23-.16-1.85-.25,3.06.42,6.03,1.19,8.89,2.39-.55-.23-1.11-.47-1.66-.7,2.59,1.11,5.03,2.52,7.28,4.23-.47-.36-.94-.72-1.41-1.09,2.14,1.66,4.06,3.55,5.71,5.69-.36-.47-.73-.94-1.09-1.4,1.39,1.84,2.56,3.82,3.47,5.95-.23-.55-.47-1.11-.7-1.66.19.45.36.89.52,1.35.63,1.73,1.56,3.2,3.19,4.15,1.49.87,3.68,1.24,5.35.7,3.35-1.08,6.18-4.89,4.85-8.55-1.44-3.95-3.37-7.3-5.96-10.59-2.23-2.83-4.95-5.15-7.88-7.24-5.86-4.16-12.75-6.25-19.83-7-11.23-1.19-21.89,2.99-30.88,9.46-4.89,3.52-9.45,7.45-14.21,11.14.47-.36.94-.72,1.41-1.09-4.36,3.37-8.93,6.49-14.02,8.67.55-.23,1.11-.47,1.66-.7-4.37,1.84-9.07,2.88-13.76,3.52.62-.08,1.23-.16,1.85-.25-4.26.57-8.58.71-12.84.15.62.08,1.23.16,1.85.25-2.72-.38-5.37-1.05-7.91-2.1.55.23,1.11.47,1.66.7-1.99-.85-3.85-1.92-5.58-3.22.47.36.94.72,1.41,1.09-1.8-1.4-3.4-3.03-4.8-4.83.36.47.73.94,1.09,1.4-1.45-1.91-2.65-3.97-3.59-6.17.23.55.47,1.11.7,1.66-.83-2.02-1.42-4.12-1.72-6.28.08.62.16,1.23.25,1.85-.23-1.86-.25-3.73,0-5.59-.08.62-.16,1.23-.25,1.85.23-1.6.65-3.14,1.26-4.63-.23.55-.47,1.11-.7,1.66.68-1.6,1.57-3.07,2.62-4.45-.36.47-.73.94-1.09,1.4,1.4-1.79,3.04-3.35,4.82-4.75-.47.36-.94.72-1.41,1.09,3.88-2.99,8.28-5.18,12.61-7.43,4.91-2.56,9.5-5.41,13.86-8.84,8.49-6.68,15.56-15.54,20.09-25.35,2.8-6.06,4.88-12.51,4.87-19.25,0-6.77-2.24-13.09-6.71-18.18-4.05-4.61-10.31-7.78-16.52-7.64-6.54.15-12.17,3.66-16.56,8.29-2.03,2.14-3.82,4.48-5.71,6.74-1.99,2.39-4.02,4.73-6.13,7.02-4.35,4.72-9.01,9.17-14.09,13.12.47-.36.94-.72,1.41-1.09-5.23,4.03-10.87,7.48-16.95,10.06.55-.23,1.11-.47,1.66-.7-4.82,2.01-9.84,3.46-15.01,4.18.62-.08,1.23-.16,1.85-.25-4.25.56-8.54.63-12.79.08.62.08,1.23.16,1.85.25-3.5-.48-6.92-1.38-10.18-2.74l1.66.7c-2.55-1.09-4.96-2.46-7.17-4.15.47.36.94.72,1.41,1.09-1.85-1.44-3.52-3.08-4.96-4.94.36.47.73.94,1.09,1.4-1.25-1.65-2.27-3.44-3.08-5.34l.7,1.66c-.82-2-1.39-4.08-1.69-6.23.08.62.16,1.23.25,1.85-.25-1.93-.26-3.86-.03-5.8-.08.62-.16,1.23-.25,1.85.23-1.72.67-3.39,1.32-5-.23.55-.47,1.11-.7,1.66.65-1.52,1.48-2.93,2.48-4.24-.36.47-.73.94-1.09,1.4,1.13-1.43,2.42-2.68,3.84-3.81-.47.36-.94.72-1.41,1.09,2.32-1.78,4.89-3.15,7.57-4.29-.55.23-1.11.47-1.66.7,7.08-2.97,14.69-4.58,22-6.91,8.27-2.64,16.56-5.84,23.93-10.47,6.99-4.4,13.14-9.97,17.81-16.8,4.51-6.6,7.12-14.49,7.24-22.49.14-9.14-3.1-18.41-9.62-24.92-2.57-2.57-7.29-2.76-9.83,0-2.55,2.77-2.75,7.08,0,9.82v-.02Z"/><path class="cls-2" d="M21.46,428.24c.75.75,1.45,1.55,2.1,2.38-.36-.47-.73-.94-1.09-1.4,1.28,1.68,2.33,3.51,3.17,5.44-.23-.55-.47-1.11-.7-1.66,1.01,2.41,1.68,4.93,2.04,7.52-.08-.62-.16-1.23-.25-1.85.36,2.82.35,5.65,0,8.47.08-.62.16-1.23.25-1.85-.4,2.94-1.19,5.78-2.34,8.51.23-.55.47-1.11.7-1.66-1.33,3.09-3.07,5.98-5.11,8.65.36-.47.73-.94,1.09-1.4-2.65,3.41-5.76,6.42-9.18,9.06.47-.36.94-.72,1.41-1.09-4.88,3.73-10.3,6.64-15.95,9.03.55-.23,1.11-.47,1.66-.7-6.67,2.8-13.61,4.87-20.55,6.86-6.26,1.79-12.65,3.58-18.34,6.83-6.35,3.62-11.46,9.23-13.55,16.32-2.12,7.19-.92,14.88,2.26,21.55,2.97,6.25,8.49,11.38,14.57,14.59,6.48,3.42,13.71,5.12,21.02,5.31,14.88.41,29.63-5.42,41.52-14.09,5.91-4.31,11.36-9.17,16.38-14.49,2.37-2.51,4.65-5.1,6.86-7.75,2.04-2.43,3.96-4.97,6.15-7.27,1.04-1.1,2.15-2.13,3.34-3.06-.47.36-.94.72-1.41,1.09,1.18-.89,2.43-1.65,3.8-2.23-.55.23-1.11.47-1.66.7,1-.4,2.03-.69,3.1-.85-.62.08-1.23.16-1.85.25,1.12-.14,2.22-.14,3.34,0-.62-.08-1.23-.16-1.85-.25,1.2.18,2.36.5,3.48.96-.55-.23-1.11-.47-1.66-.7,1.31.57,2.52,1.29,3.66,2.16-.47-.36-.94-.73-1.41-1.09,1.22.96,2.3,2.05,3.26,3.27-.36-.47-.73-.94-1.09-1.4.94,1.24,1.73,2.56,2.35,3.99-.23-.55-.47-1.11-.7-1.66.71,1.7,1.14,3.49,1.39,5.31-.08-.62-.16-1.23-.25-1.85.27,2.28.23,4.57-.06,6.84.08-.62.16-1.23.25-1.85-.5,3.59-1.57,7.05-2.97,10.38.23-.55.47-1.11.7-1.66-2.13,4.97-4.91,9.65-8.21,13.94.36-.47.73-.94,1.09-1.4-3.41,4.4-7.35,8.36-11.75,11.79.47-.36.94-.72,1.41-1.09-4.21,3.25-8.8,5.8-13.52,8.24-4.95,2.57-9.78,5.24-14.01,8.91-4.41,3.82-7.98,9.19-9.05,14.98-.66,3.57-.63,6.82-.1,10.4.44,2.96,1.49,5.73,2.73,8.45,2.47,5.42,6.62,10.03,11.5,13.41,5.08,3.52,11.15,5.08,17.21,5.71,5.67.59,11.46-.05,17.04-1.11,4.89-.93,9.54-2.43,14.02-4.62,7.71-3.77,14.24-9.55,20.9-14.86.78-.62,1.57-1.24,2.36-1.85-.47.36-.94.73-1.41,1.09,4.12-3.17,8.45-6.13,13.26-8.16-.55.23-1.11.47-1.66.7,2.77-1.15,5.66-1.97,8.63-2.38-.62.08-1.23.16-1.85.25,3.13-.41,6.28-.37,9.4.04-.62-.08-1.23-.16-1.85-.25,3.06.42,6.03,1.19,8.89,2.39-.55-.23-1.11-.47-1.66-.7,2.59,1.11,5.03,2.52,7.28,4.23-.47-.36-.94-.72-1.41-1.09,2.14,1.66,4.06,3.55,5.71,5.69-.36-.47-.73-.94-1.09-1.4,1.39,1.84,2.56,3.82,3.47,5.95-.23-.55-.47-1.11-.7-1.66.19.45.36.89.53,1.35.63,1.73,1.56,3.2,3.19,4.15,1.49.87,3.68,1.24,5.35.7,3.35-1.08,6.18-4.89,4.85-8.55-1.44-3.95-3.37-7.3-5.96-10.59-2.23-2.83-4.95-5.15-7.88-7.24-5.86-4.16-12.75-6.25-19.83-7-11.23-1.19-21.89,2.99-30.88,9.46-4.89,3.52-9.45,7.45-14.21,11.14.47-.36.94-.72,1.41-1.09-4.36,3.37-8.93,6.49-14.02,8.67.55-.23,1.11-.47,1.66-.7-4.37,1.84-9.07,2.88-13.76,3.52.62-.08,1.23-.16,1.85-.25-4.26.57-8.58.71-12.84.15.62.08,1.23.16,1.85.25-2.72-.38-5.37-1.05-7.91-2.1.55.23,1.11.47,1.66.7-1.99-.85-3.85-1.92-5.58-3.22.47.36.94.72,1.41,1.09-1.8-1.4-3.4-3.03-4.8-4.83.36.47.73.94,1.09,1.4-1.45-1.91-2.65-3.97-3.59-6.17.23.55.47,1.11.7,1.66-.83-2.02-1.42-4.12-1.72-6.28.08.62.16,1.23.25,1.85-.23-1.86-.25-3.73,0-5.59-.08.62-.16,1.23-.25,1.85.23-1.6.65-3.14,1.26-4.63-.23.55-.47,1.11-.7,1.66.68-1.6,1.57-3.07,2.62-4.45-.36.47-.73.94-1.09,1.4,1.4-1.79,3.04-3.35,4.82-4.75-.47.36-.94.72-1.41,1.09,3.88-2.99,8.28-5.18,12.61-7.43,4.91-2.56,9.5-5.41,13.86-8.84,8.49-6.68,15.56-15.54,20.09-25.35,2.8-6.06,4.88-12.51,4.87-19.25,0-6.77-2.24-13.09-6.71-18.18-4.05-4.61-10.31-7.78-16.52-7.64-6.54.15-12.17,3.66-16.56,8.29-2.03,2.14-3.82,4.48-5.71,6.74-1.99,2.39-4.02,4.73-6.13,7.02-4.35,4.72-9.01,9.17-14.09,13.12.47-.36.94-.72,1.41-1.09-5.23,4.03-10.87,7.48-16.95,10.06.55-.23,1.11-.47,1.66-.7-4.82,2.01-9.84,3.46-15.01,4.18.62-.08,1.23-.16,1.85-.25-4.25.56-8.54.63-12.79.08.62.08,1.23.16,1.85.25-3.5-.48-6.92-1.38-10.18-2.74l1.66.7c-2.55-1.09-4.96-2.46-7.17-4.15.47.36.94.72,1.41,1.09-1.85-1.44-3.52-3.08-4.96-4.94.36.47.73.94,1.09,1.4-1.25-1.65-2.27-3.44-3.08-5.34.23.55.47,1.11.7,1.66-.82-2-1.39-4.08-1.69-6.23.08.62.16,1.23.25,1.85-.25-1.93-.26-3.86-.03-5.8-.08.62-.16,1.23-.25,1.85.23-1.72.67-3.39,1.32-5-.23.55-.47,1.11-.7,1.66.65-1.52,1.48-2.93,2.48-4.24-.36.47-.73.94-1.09,1.4,1.13-1.43,2.42-2.68,3.84-3.81-.47.36-.94.72-1.41,1.09,2.32-1.78,4.89-3.15,7.57-4.29-.55.23-1.11.47-1.66.7,7.08-2.97,14.69-4.58,22-6.91,8.27-2.64,16.56-5.84,23.93-10.47,6.99-4.4,13.14-9.97,17.81-16.8,4.51-6.6,7.12-14.49,7.24-22.49.14-9.14-3.1-18.41-9.62-24.92-2.57-2.57-7.29-2.76-9.83,0-2.55,2.77-2.75,7.08,0,9.82v-.02Z"/></g></g></g></svg>