<svg xmlns="http://www.w3.org/2000/svg" xmlns:xlink="http://www.w3.org/1999/xlink" viewBox="0 0 529.84 621.38"><defs><style>.cls-1{isolation:isolate;}.cls-2{fill:#1d839b;}.cls-3{fill:#1e1e1e;}.cls-4{fill:#010101;}.cls-5{fill:#e73534;}.cls-6{fill:#c32328;}.cls-17,.cls-20,.cls-7{fill:#fff;}.cls-8{fill:#7a1b24;}.cls-9{fill:#f2bad5;}.cls-10{fill:#3a3b3a;}.cls-11{fill:url(#_ÂÁ_Ï_ÌÌ_È_ËÂÌÚ_440);}.cls-12{fill:#eff8fb;}.cls-13{fill:url(#_ÂÁ_Ï_ÌÌ_È_ËÂÌÚ_12);}.cls-14{fill:url(#_ÂÁ_Ï_ÌÌ_È_ËÂÌÚ_440-2);}.cls-15{fill:url(#_ÂÁ_Ï_ÌÌ_È_ËÂÌÚ_12-2);}.cls-16{fill:#f8b119;}.cls-17{fill-rule:evenodd;}.cls-18{fill:#302d4f;}.cls-19{fill:#c9e0f4;}.cls-20{opacity:0.5;}.cls-21,.cls-23{fill:#77c9e2;}.cls-21{mix-blend-mode:multiply;opacity:0.4;}.cls-22{fill:#067d9f;}.cls-24{fill:#e4eee6;}.cls-25{fill:#2bafc6;}</style><radialGradient id="_ÂÁ_Ï_ÌÌ_È_ËÂÌÚ_440" cx="224.38" cy="-189.19" r="50.04" gradientTransform="translate(-55.23 184.85) rotate(43.15)" gradientUnits="userSpaceOnUse"><stop offset="0" stop-color="#384b9d"/><stop offset="1" stop-color="#252159"/></radialGradient><linearGradient id="_ÂÁ_Ï_ÌÌ_È_ËÂÌÚ_12" x1="193.9" y1="-189.19" x2="254.86" y2="-189.19" gradientTransform="translate(19.69 396.61) rotate(-1.85)" gradientUnits="userSpaceOnUse"><stop offset="0" stop-color="#0f1418"/><stop offset="1" stop-color="#0a2f44"/></linearGradient><radialGradient id="_ÂÁ_Ï_ÌÌ_È_ËÂÌÚ_440-2" cx="360.97" cy="-189.19" r="50.04" gradientTransform="translate(-18.36 87.03) rotate(43.15)" xlink:href="#_ÂÁ_Ï_ÌÌ_È_ËÂÌÚ_440"/><linearGradient id="_ÂÁ_Ï_ÌÌ_È_ËÂÌÚ_12-2" x1="330.49" y1="-189.19" x2="391.45" y2="-189.19" gradientTransform="matrix(0.93, 0.38, -0.38, 0.93, -31.26, 235.28)" xlink:href="#_ÂÁ_Ï_ÌÌ_È_ËÂÌÚ_12"/></defs><g class="cls-1"><g id="Layer_1" data-name="Layer 1"><path class="cls-2" d="M528.26,158.88C536,197.63,514,234.22,488,241.9s-44.16-18.77-55.72-54.26.13-70.57,26.14-78.16C493.94,99.12,521,122.46,528.26,158.88Z"/><circle class="cls-3" cx="426.51" cy="65.55" r="63.55" transform="translate(78.57 320.78) rotate(-45)"/><path class="cls-4" d="M362.36,52.13a65.53,65.53,0,1,1,50.72,77.57A65.61,65.61,0,0,1,362.36,52.13Zm124.4,26A61.56,61.56,0,1,0,413.9,125.8,61.62,61.62,0,0,0,486.76,78.16Z"/><circle class="cls-5" cx="426.51" cy="65.55" r="46.8" transform="matrix(0.84, -0.55, 0.55, 0.84, 33.67, 244.11)"/><path class="cls-6" d="M472.31,75.13a46.8,46.8,0,1,0-55.39,36.23A46.79,46.79,0,0,0,472.31,75.13ZM387.43,58.88c4.31-20.62,26.08-33.51,48.62-28.79s37.32,25.25,33,45.87S443,109.47,420.43,104.75,383.11,79.5,387.43,58.88Z"/><circle class="cls-3" cx="90.7" cy="88.72" r="63.55" transform="translate(-36.17 90.12) rotate(-45)"/><path class="cls-4" d="M92.16,154.25a65.54,65.54,0,1,1,64.07-67A65.62,65.62,0,0,1,92.16,154.25ZM89.34,27.18a61.56,61.56,0,1,0,62.9,60.18A61.64,61.64,0,0,0,89.34,27.18Z"/><circle class="cls-5" cx="90.7" cy="88.72" r="46.8" transform="translate(-36.17 90.12) rotate(-45)"/><path class="cls-6" d="M89.67,41.93a46.8,46.8,0,1,0,47.82,45.76A46.81,46.81,0,0,0,89.67,41.93Zm3.39,86.37C72,128.77,54.52,110.48,54,87.46S70.15,45.39,91.21,44.92s38.54,17.82,39.05,40.84S114.12,127.83,93.06,128.3Z"/><path class="cls-6" d="M262.72,34.83h10.42A218.18,218.18,0,0,1,491.32,253v0A121.58,121.58,0,0,1,369.74,374.59H166.13A121.58,121.58,0,0,1,44.55,253v0A218.18,218.18,0,0,1,262.72,34.83Z" transform="translate(-6.47 8.75) rotate(-1.85)"/><path class="cls-5" d="M492.29,231.07C489,130.33,413.62,49.73,312.88,53l-80.21,2.59C131.93,58.82,52.17,143.91,55.42,244.64l1.73,53.48c1.82,56.62,61.09,84.48,101.58,80.09l235-7.59s80.66,2,98.77-89.31Z"/><path class="cls-7" d="M236.57,65.43c6.55,5.47,9.59,17.45,5,24-4.34,6.15-14,5.56-24,5s-33.59-3.85-34.32-11.55C182.24,72.69,221.1,52.53,236.57,65.43Z"/><path class="cls-7" d="M166.39,86.13a6.36,6.36,0,1,1-9,.56A6.35,6.35,0,0,1,166.39,86.13Z"/><path class="cls-8" d="M269.75,277.89l78.49,11.59s-29.2,70.49-48,65.81S269.75,277.89,269.75,277.89Z"/><path class="cls-9" d="M274.7,302.17c5.14,21.61,14,50.24,25.57,53.12,8.56,2.14,19.3-11.38,28.44-26.71C316.72,311.43,296,301.76,274.7,302.17Z"/><path class="cls-7" d="M453.75,255.87h0a43.12,43.12,0,0,1-18.91,5l-268,8.65a43.18,43.18,0,0,1-19.19-3.79h0c-14.58-6.63-23.14-20.69-21.59-35.45l.12-1.08c5.26-50,49.1-89.72,104.28-94.38,23.34-2,47.86-3.39,73.46-4.07q30.09-.79,58.15-.21c55.57,1.07,102.22,37.72,110.72,87.46.07.36.13.72.19,1.08C475.51,233.73,467.87,248.32,453.75,255.87Z"/><polygon class="cls-5" points="126.38 102.98 113.44 118.64 73.21 95.66 96.23 67.8 126.38 102.98"/><path class="cls-6" d="M70.77,96.1a2.46,2.46,0,0,1,.53-2l23-27.86a2.47,2.47,0,0,1,3.79,0l30.15,35.18a2.47,2.47,0,0,1,0,3.19l-12.94,15.66a2.47,2.47,0,0,1-3.14.57L72,97.81a2.71,2.71,0,0,1-.35-.24A2.49,2.49,0,0,1,70.77,96.1ZM123.14,103,96.26,71.65,77,95l35.86,20.48Z"/><circle class="cls-3" cx="84.72" cy="81.73" r="18.07" transform="translate(-32.25 94.98) rotate(-50.43)"/><path class="cls-4" d="M71.63,97.57a20.55,20.55,0,1,1,28.93-2.75A20.56,20.56,0,0,1,71.63,97.57Zm23-27.86a15.59,15.59,0,1,0,2.08,22A15.62,15.62,0,0,0,94.65,69.71Z"/><path class="cls-7" d="M93.42,71.2a13.66,13.66,0,1,0,1.83,19.23A13.65,13.65,0,0,0,93.42,71.2Z"/><path class="cls-10" d="M93.42,71.2a13.66,13.66,0,1,0,1.83,19.23A13.65,13.65,0,0,0,93.42,71.2ZM90.7,74.49a10,10,0,1,1-14.46,1A10.25,10.25,0,0,1,90.7,74.49Z"/><circle class="cls-11" cx="237.85" cy="200.3" r="50.56" transform="translate(-71.97 226.85) rotate(-45)"/><circle class="cls-12" cx="237.85" cy="200.3" r="36.29" transform="translate(19.08 421.28) rotate(-85.39)"/><path class="cls-13" d="M268.31,199.31a30.48,30.48,0,1,1-31.44-29.48A30.48,30.48,0,0,1,268.31,199.31Z"/><circle class="cls-12" cx="226.56" cy="209.03" r="11.29" transform="translate(-64.47 107.41) rotate(-23.45)"/><path class="cls-12" d="M225.4,185a4.5,4.5,0,1,1,6.32.78A4.5,4.5,0,0,1,225.4,185Z"/><path class="cls-12" d="M241.91,180.64a2.25,2.25,0,1,1,3.16.39A2.26,2.26,0,0,1,241.91,180.64Z"/><circle class="cls-14" cx="374.35" cy="195.89" r="50.56" transform="translate(-28.87 322.08) rotate(-45)"/><path class="cls-12" d="M410.62,194.72a36.28,36.28,0,1,1-37.44-35.1A36.28,36.28,0,0,1,410.62,194.72Z"/><circle class="cls-15" cx="374.35" cy="195.89" r="30.48" transform="translate(-47.29 168.91) rotate(-23.96)"/><circle class="cls-12" cx="372.11" cy="209.03" r="11.29" transform="translate(-52.45 165.33) rotate(-23.45)"/><path class="cls-12" d="M371,185a4.5,4.5,0,1,1,6.33.78A4.5,4.5,0,0,1,371,185Z"/><path class="cls-12" d="M387.47,180.64a2.25,2.25,0,1,1,3.16.39A2.25,2.25,0,0,1,387.47,180.64Z"/><polygon class="cls-5" points="408.83 99.79 394.21 85.69 420.22 47.34 446.22 72.44 408.83 99.79"/><path class="cls-6" d="M420,44.88a2.45,2.45,0,0,1,2,.68l26,25.09a2.52,2.52,0,0,1,.75,2,2.47,2.47,0,0,1-1,1.83l-37.4,27.35a2.47,2.47,0,0,1-3.18-.21L392.49,87.47a2.46,2.46,0,0,1-.33-3.17l26-38.35a2.16,2.16,0,0,1,.27-.33A2.44,2.44,0,0,1,420,44.88ZM409.05,96.56l33.33-24.38-21.76-21L397.44,85.35Z"/><circle class="cls-3" cx="433.22" cy="59.89" r="18.07" transform="translate(89.29 330.04) rotate(-46.02)"/><path class="cls-4" d="M418.44,45.62A20.55,20.55,0,1,1,419,74.68,20.58,20.58,0,0,1,418.44,45.62Zm26,25.1a15.59,15.59,0,1,0-22,.39A15.61,15.61,0,0,0,444.44,70.72Z"/><path class="cls-7" d="M443.05,69.38a13.66,13.66,0,1,0-19.32.34A13.66,13.66,0,0,0,443.05,69.38Z"/><path class="cls-10" d="M443.05,69.38a13.66,13.66,0,1,0-19.32.34A13.66,13.66,0,0,0,443.05,69.38Zm-3.07-3a10,10,0,1,1,.14-14.5C444.08,55.74,444,62.23,440,66.42Z"/><path class="cls-5" d="M121.08,443c0,.62,0,1.21,0,1.77a41.28,41.28,0,0,0,2,11.78c17.41,56.64,27.92,86.53,43,110.83,2.6,4.2,5.33,8.23,8.28,12.2,3.87,5.28,8.11,10.44,12.83,15.77,10.49,11.83,26.57,17.4,31.76,19.31,18.95,7.09,35.82,6.16,47,6.47l2,0c11.23.1,28,1.63,47.23-4.76,5.25-1.73,21.55-6.7,32.44-18.14,30-31.49,41.8-57.89,69.07-136.39A42.58,42.58,0,0,0,419,446.31c-.39-9.45-4-18.78-10.68-27.35-11.38-14.71-29.21-23-47.8-23.4l-89.57-2-87.94-1.95c-19-.42-37.54,7.21-49.87,21.68-6,7-9.82,14.62-11.32,22.51-.21,1.12-.39,2.27-.52,3.39S121.11,441.7,121.08,443Z"/><path class="cls-16" d="M228.56,443.8c-54.35-43.33-59.53-59.15-81.09-58.21-2.48.11-15.12.66-25.23,9.77a38.92,38.92,0,0,0-12,22.23c-4.42,31.65,54.8,66.67,100.17,78.37,9.89,2.55,36.42,9.4,43.89-1.33,3.06-4.4,1.89-10.27,1-14.44C251.42,461.74,236.76,450.33,228.56,443.8Z"/><path class="cls-7" d="M140.57,437.25c5.52,5.05,10.37,8,20.08,13.83,12.7,7.66,20.89,9.42,20.71,13.5-.11,2.65-3.7,4.46-4.51,4.88-12.29,6.23-32.49-8.46-42.92-19.84-6.38-7-12.15-16.11-10-18.87a3.88,3.88,0,0,1,2.64-1.41C131.71,429.06,136.37,433.42,140.57,437.25Z"/><path class="cls-7" d="M244.47,566.16l18.72-36.51-13.09-.27-11.35,24.79h-.12L228.4,529l-12.73-.25,19.13,42A55.68,55.68,0,0,1,244.47,566.16Zm30.47-5.51c9.92.55,22.1,4.71,31.05,6.62a30,30,0,0,0,5.94.93c3.73.18,19.39-.42,19.66-13.89.21-10.85-18.37-9.72-25.09-12.38-1.51-.61-2.43-1.44-2.41-2.59a3.64,3.64,0,0,1,2.53-3.41,14.16,14.16,0,0,1,4.56-.6c4.56.09,7,1.88,7.25,5.45l12.15.24c-.42-8.08-9.23-11.25-18-11.42a44.12,44.12,0,0,0-5.84.23c-7.49.65-11.51,3.11-13.43,5.83l.1-5.41L281.28,530l-.41,20.4c-.13,6.22-2.15,8.26-8.35,8.13s-8.12-2.24-8-8.46l.3-15-11.65,22.37c0,2.3,1.08,4,4,5.38A49.7,49.7,0,0,1,274.94,560.65Zm18.18-15.53c2.38,3.84,7.83,5.22,13.2,6,6.62,1.17,13.16,1.53,13.08,5.22,0,2.53-2.42,4-7.89,3.88a17,17,0,0,1-5.36-.81,4.76,4.76,0,0,1-3.4-5l-9.81-.2Z"/><path class="cls-17" d="M320.05,570.78c-17.18,6.57-53.21-25.62-92.88,13.69l14.47.29c25.2-28,51.94-10,71.34-10.44a17.46,17.46,0,0,0,13.69-7.21A20.68,20.68,0,0,1,320.05,570.78ZM250.86,585l13.07.26c1.59-3,8.29-11.7,34.66-9.91,7.58.5,8.4.17,8.4.17s-3.72-.42-6.86-1.06C267.56,567.88,254,581.21,250.86,585Zm21.25.42,12.26.25c1.89-7,18.5-8.51,18.5-8.51S281.06,575.65,272.11,585.37Z"/><path class="cls-16" d="M319.26,488.06c64.57-25.74,80.88-22.41,90.74-41.6,1.13-2.2,6.92-13.46,4-26.75a38.92,38.92,0,0,0-13.38-21.4c-25.31-19.53-85.07,14.57-117.7,48.17-7.12,7.33-26.21,27-20.59,38.79,2.3,4.84,8,6.73,12,8C292.35,499,309.52,491.94,319.26,488.06Z"/><path class="cls-7" d="M368.54,414.87c-7.11,2.3-12.06,5.06-22,10.59-12.95,7.24-18.53,13.48-22,11.31-2.25-1.42-2.05-5.43-2-6.34.68-13.77,23.45-24,38.5-27.45,9.21-2.09,20-2.58,21.35.65a3.92,3.92,0,0,1-.09,3C380.05,411.23,374,413.12,368.54,414.87Z"/><path class="cls-18" d="M333.46,486.7a6.55,6.55,0,0,1-5.13,7.72l-122.6,24.24a6.55,6.55,0,0,1-7.68-5.18L160.56,323.9a6.57,6.57,0,0,1,5.14-7.72l122.59-24.24a6.56,6.56,0,0,1,7.69,5.18Z"/><rect class="cls-19" x="184.08" y="313.41" width="124.1" height="174.81" rx="6.67" transform="translate(-73.07 55.36) rotate(-11.19)"/><path class="cls-20" d="M204.32,323.09l82.33-16.28a6.55,6.55,0,0,1,3.66.32,6.65,6.65,0,0,0-6.81-2.8L206,319.66l-31.12,6.15a6.68,6.68,0,0,0-5.25,7.84l8.69,43.91,22.63,114.49a6.71,6.71,0,0,0,4.18,4.94,6.65,6.65,0,0,1-1-2.46L180.16,373.62Z"/><path class="cls-21" d="M286.51,304.43a6.78,6.78,0,0,1,1.25,2.75L309.27,416,277,480.7l-71.85,14.2a6.62,6.62,0,0,1-3-.1,6.67,6.67,0,0,0,6.59,2.5l66.55-13.16,42.11-8.32a6.68,6.68,0,0,0,5.25-7.84l-11.17-56.46L291.34,309.58A6.68,6.68,0,0,0,286.51,304.43Z"/><rect class="cls-22" x="258.82" y="489.77" width="12.2" height="12.2" rx="5.72" transform="translate(-91.16 60.81) rotate(-11.19)"/><rect class="cls-23" x="262.93" y="493.88" width="3.98" height="3.98" rx="1.87" transform="translate(-91.16 60.81) rotate(-11.19)"/><path class="cls-22" d="M238.85,307.93a1.25,1.25,0,0,1-.76,1.56l-19.29,3.82c-.57.11-1.15-.41-1.3-1.16h0a1.26,1.26,0,0,1,.76-1.57l19.29-3.81c.57-.11,1.15.4,1.3,1.16Z"/><polygon class="cls-24" points="157.42 294.11 161.41 297.03 166.36 297.01 163.44 301 163.45 305.95 159.46 303.03 154.51 303.04 157.44 299.05 157.42 294.11"/><polygon class="cls-24" points="134.81 287.98 136.46 300.86 145.43 310.26 132.55 311.91 123.15 320.89 121.5 308 112.53 298.61 125.41 296.95 134.81 287.98"/><polygon class="cls-24" points="145.35 320.89 147.04 326.94 151.99 330.8 145.94 332.5 142.07 337.45 140.38 331.4 135.43 327.53 141.48 325.84 145.35 320.89"/><path class="cls-25" d="M508,120c-9-32-29.28-53.46-66.7-77.56C404.53,18.8,305.84-5.9,205.22,7.61,99.05,21.86,24.66,74.84,35.84,206.49c.35,4.15,1.09,7.34,1.15,9.34.34,9.39,11,17.25,24.17,18.1.59,0,1.18.06,1.78.07,14,.21,13.49-21.07,12.72-26.42C66.1,141.11,68,45.5,212.54,23.36,311.63,8.18,394.8,20.43,440.82,49.47c26,16.39,40,34.11,46.95,59.23A55.43,55.43,0,0,1,508,120Z"/><path class="cls-2" d="M123.88,204.1c1.33,41.32-18.23,75.48-43.7,76.3s-47.2-32-48.53-73.32,18.23-75.47,43.7-76.3S122.54,162.79,123.88,204.1Z"/><rect class="cls-2" x="46.17" y="131.2" width="34.79" height="149.7" transform="translate(-6.62 2.16) rotate(-1.85)"/><path class="cls-7" d="M97.24,205c1.34,41.32-17.16,75.44-41.32,76.22S11.1,249.1,9.77,207.79s17.17-75.44,41.32-76.22S95.91,163.65,97.24,205Z"/><path class="cls-25" d="M92.29,205.12c1.34,41.32-18.23,75.48-43.7,76.3S1.4,249.42.06,208.1s18.23-75.48,43.7-76.3S91,163.81,92.29,205.12Z"/><path class="cls-7" d="M44.56,241.39c-11.24.36-20.52-14.59-21.15-34s7.67-35,18.91-35.33,20.5,14.6,21.13,34S55.78,241,44.56,241.39Zm-2.12-65.68c-8.86.29-15.87,14.71-15.33,31.51S35.58,238,44.45,237.69,60.29,223,59.75,206.17,51.28,175.43,42.44,175.71Z"/></g></g></svg>