<svg xmlns="http://www.w3.org/2000/svg" viewBox="0 0 522.04 654.06"><defs><style>.cls-1{isolation:isolate;}.cls-2{fill:#1d839b;}.cls-3{fill:#1e1e1e;}.cls-4{fill:#010101;}.cls-5{fill:#e73534;}.cls-6{fill:#c32328;}.cls-10,.cls-14,.cls-7{fill:#fff;}.cls-8{fill:#eff8fb;}.cls-9{fill:#fed20d;}.cls-10{fill-rule:evenodd;}.cls-11{fill:#3a3b3a;}.cls-12{fill:#302d4f;}.cls-13{fill:#c9e0f4;}.cls-14{opacity:0.5;}.cls-15,.cls-17{fill:#77c9e2;}.cls-15{mix-blend-mode:multiply;opacity:0.4;}.cls-16{fill:#067d9f;}.cls-18{fill:#2bafc6;}.cls-19{fill:#f8b119;}</style></defs><g class="cls-1"><g id="Layer_1" data-name="Layer 1"><path class="cls-2" d="M517.28,167.32c13.35,37.2-3.16,76.63-27.74,88s-46.43-12.12-63-45.55S416.32,140,441,128.65C474.61,113.21,504.74,132.35,517.28,167.32Z"/><circle class="cls-3" cx="374.7" cy="65.55" r="63.55" transform="translate(63.4 284.15) rotate(-45)"/><path class="cls-4" d="M310.45,78.45a65.54,65.54,0,1,1,77.16,51.35A65.61,65.61,0,0,1,310.45,78.45Zm124.61-25a61.56,61.56,0,1,0-48.24,72.47A61.63,61.63,0,0,0,435.06,53.43Z"/><circle class="cls-5" cx="374.7" cy="65.55" r="46.8" transform="translate(112.54 341.17) rotate(-56.36)"/><path class="cls-6" d="M420.59,56.33a46.8,46.8,0,1,0-36.67,55.1A46.8,46.8,0,0,0,420.59,56.33ZM336.15,74.8C332,54.15,347,33.73,369.53,29.19s44.24,8.53,48.39,29.19S407.13,99.44,384.55,104,340.3,95.45,336.15,74.8Z"/><circle class="cls-3" cx="68.11" cy="148.12" r="63.55" transform="translate(-84.79 91.54) rotate(-45)"/><path class="cls-4" d="M78.45,212.84a65.54,65.54,0,1,1,54.38-75.05A65.62,65.62,0,0,1,78.45,212.84ZM58.4,87.34a61.56,61.56,0,1,0,70.49,51.08A61.62,61.62,0,0,0,58.4,87.34Z"/><circle class="cls-5" cx="68.11" cy="148.12" r="46.8" transform="translate(-84.79 91.54) rotate(-45)"/><path class="cls-6" d="M60.73,101.91a46.8,46.8,0,1,0,53.59,38.83A46.81,46.81,0,0,0,60.73,101.91ZM75.82,187c-20.8,3.32-40.61-12.42-44.24-35.16S41.86,108,62.66,104.66s40.61,12.42,44.24,35.16S96.62,183.69,75.82,187Z"/><path class="cls-6" d="M254.24,69.1h10.42A218.18,218.18,0,0,1,482.83,287.28v0A121.58,121.58,0,0,1,361.25,408.86H157.64A121.58,121.58,0,0,1,36.06,287.28v0A218.18,218.18,0,0,1,254.24,69.1Z" transform="translate(-36.39 46.88) rotate(-9.65)"/><path class="cls-5" d="M485.3,234.63c-16.9-99.36-102.56-169-201.92-152.08L204.26,96C104.89,112.9,37.42,208,54.32,307.39l9,52.75c9.5,55.84,72,75.4,111.51,65.55l231.81-39.42s80.19-8.94,85.73-101.89Z"/><path class="cls-7" d="M209.46,105.24c7.24,4.53,11.87,16,8.18,23.11-3.47,6.68-13.14,7.42-23.11,8.18s-33.81.74-35.57-6.79C156.62,119.81,192.38,94.56,209.46,105.24Z"/><path class="cls-7" d="M142.74,135.28a6.35,6.35,0,1,1-8.81,1.77A6.36,6.36,0,0,1,142.74,135.28Z"/><path class="cls-7" d="M450.48,264.44h0A43.05,43.05,0,0,1,432.43,272L168.12,316.92a43,43,0,0,1-19.53-1.14h0c-15.34-4.59-25.74-17.36-26.2-32.2l0-1.08c-1.58-50.25,36.47-95.56,90.5-107.66,22.86-5.13,47-9.86,72.23-14q29.7-4.87,57.59-8.1c55.2-6.48,106.39,23.5,121.57,71.62.1.35.21.69.32,1C469,239.55,463.45,255,450.48,264.44Z"/><path class="cls-8" d="M216.37,257.69a2.25,2.25,0,1,1-2.6-1.84A2.25,2.25,0,0,1,216.37,257.69Z"/><path class="cls-5" d="M146.3,495c.07.61.14,1.19.23,1.75a41.7,41.7,0,0,0,3.54,11.41c24.93,53.75,39.4,81.94,57.61,104,3.15,3.8,6.4,7.43,9.87,10.95,4.54,4.72,9.44,9.25,14.84,13.89,12,10.3,28.69,13.63,34.09,14.82,19.73,4.45,36.33,1.24,47.47,0l1.94-.23c11.15-1.43,28-2.19,46.15-11.13,5-2.42,20.44-9.56,29.67-22.37,25.46-35.27,33.56-63,49.93-144.5a41.58,41.58,0,0,0,.82-11.2,43.67,43.67,0,0,0-.51-4.55c-1.67-9.31-6.56-18.05-14.3-25.64-13.26-13-32-18.81-50.53-16.7l-89,10.18-87.39,10c-18.87,2.16-36.21,12.24-46.47,28.25-4.95,7.75-7.74,15.81-8.16,23.84-.06,1.13-.08,2.3-.05,3.42S146.15,493.7,146.3,495Z"/><path class="cls-9" d="M377.71,358.35a47.7,47.7,0,0,1-7,5.3c-17.68,11-36.77,6.6-37.58,6.41a3.69,3.69,0,0,1,1.72-7.17c.26.06,17.07,3.83,32.05-5.54,10.78-6.76,18.16-18.65,21.92-35.37a3.68,3.68,0,1,1,7.18,1.61C392.64,338.64,386.49,350.29,377.71,358.35Z"/><path class="cls-7" d="M278.21,583.14l13.59-38.72-13,1.51L270.92,572h-.12l-13.57-23.59-12.64,1.47,24.65,39A56,56,0,0,1,278.21,583.14Zm29.44-9.61c9.9-.8,22.54,1.68,31.66,2.35a30.19,30.19,0,0,0,6,.12c3.71-.33,19.14-3,17.58-16.44-1.26-10.77-19.51-7.13-26.53-8.85-1.58-.41-2.61-1.1-2.74-2.24a3.62,3.62,0,0,1,2-3.72,14,14,0,0,1,4.44-1.22c4.53-.53,7.16.91,7.92,4.42l12.07-1.41c-1.52-7.95-10.67-9.89-19.39-8.88a45.47,45.47,0,0,0-5.75,1c-7.33,1.66-11,4.64-12.52,7.61l-.62-5.38-12.06,1.41,2.36,20.26c.72,6.18-1,8.48-7.16,9.2s-8.36-1.12-9.08-7.3l-1.73-14.89-8.51,23.74c.26,2.28,1.62,3.86,4.67,4.79A50.11,50.11,0,0,1,307.65,573.53Zm15.9-17.84c2.88,3.48,8.47,4.1,13.89,4.16,6.73.27,13.25-.27,13.68,3.4.29,2.51-1.86,4.28-7.3,4.91a16.63,16.63,0,0,1-5.41-.07,4.77,4.77,0,0,1-4.06-4.51l-9.75,1.13Z"/><path class="cls-10" d="M353.72,577.45c-16.13,8.84-56.2-18.16-90.17,26.17l14.38-1.68c21.17-31.11,50.1-17,69.26-20a17.42,17.42,0,0,0,12.58-9A20.31,20.31,0,0,1,353.72,577.45Zm-66.63,23.42,13-1.51c1.18-3.15,6.63-12.72,33-14.52,7.58-.53,8.35-1,8.35-1s-3.74.1-6.94-.11C301.32,581.7,289.68,596.75,287.09,600.87Zm21.11-2.46L320.38,597c.93-7.17,17.18-10.93,17.18-10.93S315.75,587.56,308.2,598.41Z"/><polygon class="cls-5" points="105.39 157.4 94.7 174.67 51.72 157.37 70.74 126.64 105.39 157.4"/><path class="cls-6" d="M49.36,158.14a2.46,2.46,0,0,1,.25-2.08l19-30.72a2.49,2.49,0,0,1,1.75-1.15,2.46,2.46,0,0,1,2,.6L107,155.55a2.49,2.49,0,0,1,.46,3.16L96.81,176a2.49,2.49,0,0,1-3,1l-43-17.3a2.69,2.69,0,0,1-.38-.19A2.55,2.55,0,0,1,49.36,158.14Zm52.82-.27L71.3,130.46,55.38,156.17l38.31,15.42Z"/><circle class="cls-3" cx="61.23" cy="142.01" r="18.07" transform="translate(-91.74 119.31) rotate(-58.24)"/><path class="cls-4" d="M50.41,159.48a20.55,20.55,0,1,1,28.29-6.66A20.57,20.57,0,0,1,50.41,159.48Zm19-30.73a15.59,15.59,0,1,0,5,21.46A15.61,15.61,0,0,0,69.44,128.75Z"/><path class="cls-7" d="M68.42,130.39a13.66,13.66,0,1,0,4.43,18.81A13.67,13.67,0,0,0,68.42,130.39Z"/><path class="cls-11" d="M68.42,130.39a13.66,13.66,0,1,0,4.43,18.81A13.67,13.67,0,0,0,68.42,130.39ZM66.18,134A10,10,0,1,1,52,137,10.27,10.27,0,0,1,66.18,134Z"/><polygon class="cls-5" points="371.93 103.98 352.94 96.77 361.76 51.29 395.54 64.12 371.93 103.98"/><path class="cls-6" d="M360.56,49.12a2.45,2.45,0,0,1,2.08-.15L396.42,61.8a2.48,2.48,0,0,1,1.26,3.59l-23.62,39.86a2.46,2.46,0,0,1-3,1l-19-7.21a2.49,2.49,0,0,1-1.55-2.79l8.82-45.49a3.11,3.11,0,0,1,.11-.41A2.5,2.5,0,0,1,360.56,49.12Zm10.3,51.81,21.05-35.54L363.64,54.65l-7.86,40.54Z"/><circle class="cls-3" cx="378.65" cy="57.7" r="18.07" transform="translate(190.21 391.17) rotate(-69.19)"/><path class="cls-4" d="M359.44,50.41a20.55,20.55,0,1,1,11.91,26.5A20.57,20.57,0,0,1,359.44,50.41Zm33.78,12.83a15.59,15.59,0,1,0-20.1,9A15.6,15.6,0,0,0,393.22,63.24Z"/><path class="cls-7" d="M391.43,62.56a13.67,13.67,0,1,0-17.63,7.92A13.67,13.67,0,0,0,391.43,62.56Z"/><path class="cls-11" d="M391.43,62.56a13.67,13.67,0,1,0-17.63,7.92A13.67,13.67,0,0,0,391.43,62.56Zm-4-1.52c-2.07,5.44-7.92,8.26-13.06,6.3a10.54,10.54,0,0,1,7.47-19.68A10.27,10.27,0,0,1,387.44,61Z"/><path class="cls-3" d="M368.56,181.22c-.33,2.15-.79,4.23-1.3,6.28s-1.08,4.07-1.69,6.07c-1.22,4-2.61,7.92-4.13,11.76A205.1,205.1,0,0,1,351,227.7l-3.49-8.3a192.06,192.06,0,0,1,19.72,7.51q4.85,2.16,9.58,4.69a87.24,87.24,0,0,1,9.28,5.66,88.46,88.46,0,0,1-10.86-.47c-3.56-.36-7.08-.83-10.56-1.44a191.65,191.65,0,0,1-20.56-4.75l-6.69-1.91,3.2-6.39a207.87,207.87,0,0,1,12.3-21.41c2.28-3.45,4.69-6.83,7.26-10.13q1.93-2.47,4-4.87C365.55,184.29,367,182.72,368.56,181.22Z"/><path class="cls-3" d="M191.87,216.84c2.14.41,4.19,1,6.22,1.56s4,1.25,6,1.94c3.94,1.39,7.79,2.94,11.57,4.61a204.74,204.74,0,0,1,21.91,11.39l6.14,3.65-4.6,5.22a189,189,0,0,1-14.74,15.09q-3.92,3.58-8.12,6.91a86.69,86.69,0,0,1-8.89,6.26,85.78,85.78,0,0,1,4.76-9.77c1.75-3.12,3.59-6.17,5.53-9.12a192.43,192.43,0,0,1,12.55-17l1.54,8.87a205.67,205.67,0,0,1-20.87-13.19c-3.35-2.42-6.63-5-9.82-7.68q-2.38-2-4.7-4.2C194.82,220,193.31,218.47,191.87,216.84Z"/><path class="cls-12" d="M370.75,511.21a6.56,6.56,0,0,1-6,7.08l-124.56,10a6.56,6.56,0,0,1-7-6L217.65,329.66a6.56,6.56,0,0,1,6-7.08l124.57-10a6.55,6.55,0,0,1,7,6Z"/><rect class="cls-13" x="231.78" y="328.47" width="124.1" height="174.81" rx="6.67" transform="translate(-32.42 24.92) rotate(-4.6)"/><path class="cls-14" d="M261.22,333.87l83.65-6.73a6.64,6.64,0,0,1,3.6.73,6.68,6.68,0,0,0-6.45-3.56l-78.78,6.34-31.62,2.55a6.67,6.67,0,0,0-6.12,7.18L229.1,385l9.36,116.33a6.63,6.63,0,0,0,3.59,5.38,6.45,6.45,0,0,1-.74-2.55L231.42,381.3Z"/><path class="cls-15" d="M345,324.76a6.52,6.52,0,0,1,.92,2.87l8.9,110.55-39.46,60.59-73,5.88a6.75,6.75,0,0,1-3-.45,6.69,6.69,0,0,0,6.27,3.24L313.26,502l42.79-3.45a6.66,6.66,0,0,0,6.11-7.18L357.54,434,349.2,330.43A6.66,6.66,0,0,0,345,324.76Z"/><rect class="cls-16" x="295.51" y="506.36" width="12.2" height="12.2" rx="5.72" transform="translate(-40.15 25.86) rotate(-4.6)"/><rect class="cls-17" x="299.62" y="510.47" width="3.98" height="3.98" rx="1.87" transform="translate(-40.15 25.86) rotate(-4.6)"/><path class="cls-16" d="M297.26,322.77a1.25,1.25,0,0,1-.94,1.46l-19.6,1.58c-.58.05-1.1-.53-1.16-1.3h0a1.25,1.25,0,0,1,.94-1.46l19.59-1.58c.58-.05,1.1.53,1.17,1.3Z"/><path class="cls-18" d="M491.54,131.84c-13.58-30.38-36.77-48.62-77.3-67-39.8-18.05-141-28.08-238.62,0C72.67,94.4,6.81,157.67,37.08,286.28c1,4.05,2.14,7.09,2.5,9.06,1.71,9.25,13.4,15.47,26.55,14.38.59,0,1.18-.11,1.77-.18,13.86-1.83,10.27-22.82,8.73-28C57.48,217.18,45.37,122.32,185.16,79.32,281,49.84,365,49.83,414.82,71.84c28.09,12.43,44.52,27.92,55.08,51.74A55.35,55.35,0,0,1,491.54,131.84Z"/><path class="cls-2" d="M123.82,271.07c7.35,40.68-7,77.32-32.09,81.85S40.37,328.15,33,287.47s7-77.33,32.1-81.86S116.48,230.39,123.82,271.07Z"/><rect class="cls-2" x="47.05" y="206.95" width="34.79" height="149.7" transform="translate(-49.08 15.95) rotate(-10.24)"/><path class="cls-7" d="M97.6,275.8c7.35,40.68-6,77.14-29.75,81.44s-49-25.2-56.37-65.88,6-77.14,29.75-81.43S90.26,235.12,97.6,275.8Z"/><path class="cls-18" d="M92.73,276.68c7.35,40.68-7,77.33-32.1,81.86S9.27,333.77,1.92,293.09s7-77.33,32.1-81.86S85.38,236,92.73,276.68Z"/><path class="cls-7" d="M50.8,319.53c-11.06,2-22.43-11.44-25.89-30.6s2.49-35.71,13.55-37.71,22.41,11.45,25.87,30.59S61.85,317.53,50.8,319.53ZM39.12,254.86c-8.72,1.58-13.56,16.87-10.57,33.41s12.87,29.19,21.6,27.62S63.68,299,60.69,282.47,47.82,253.29,39.12,254.86Z"/><path class="cls-19" d="M259.18,461.77c-67.59-16.21-79-28.34-98.12-18.35-2.2,1.15-13.41,7-18.71,19.55a38.92,38.92,0,0,0-1.41,25.2c9.42,30.54,77.9,37.15,123.94,28.52,10-1.88,37-6.93,39.19-19.81.91-5.28-2.63-10.1-5.21-13.5C287.49,468.34,269.37,464.21,259.18,461.77Z"/><path class="cls-7" d="M176.71,493.14c7.14,2.23,12.77,2.82,24,4,14.75,1.56,22.91-.32,24.48,3.45,1,2.44-1.46,5.61-2,6.33-8.49,10.86-33,6.11-47.28.22-8.73-3.61-17.83-9.44-17.07-12.84a3.92,3.92,0,0,1,1.8-2.4C165.21,489.48,171.28,491.45,176.71,493.14Z"/><path class="cls-7" d="M148.86,492.44a2.73,2.73,0,1,1,3.51-1.61A2.73,2.73,0,0,1,148.86,492.44Z"/><path class="cls-19" d="M344.34,452.3c56.46-40.55,62.43-56.09,83.91-54.07,2.47.23,15.07,1.42,24.71,11a39,39,0,0,1,10.83,22.8c2.83,31.84-58.07,63.84-104,73.26-10,2.05-36.84,7.56-43.77-3.53-2.83-4.55-1.37-10.35-.28-14.47C320.62,469.08,335.83,458.42,344.34,452.3Z"/><path class="cls-7" d="M432.55,450.17c-5.76,4.76-10.76,7.44-20.74,12.81-13.07,7-21.34,8.36-21.37,12.44,0,2.65,3.47,4.64,4.27,5.1,12,6.84,32.87-6.82,43.85-17.67,6.73-6.64,12.95-15.47,10.95-18.34a3.93,3.93,0,0,0-2.57-1.54C441.81,442.44,436.94,446.56,432.55,450.17Z"/><path class="cls-7" d="M458.07,439a2.73,2.73,0,1,0-3.85-.17A2.73,2.73,0,0,0,458.07,439Z"/></g></g></svg>