<svg xmlns="http://www.w3.org/2000/svg" xmlns:xlink="http://www.w3.org/1999/xlink" viewBox="0 0 769.49 654.06"><defs><style>.cls-1{isolation:isolate;}.cls-2{fill:#1d839b;}.cls-3{fill:#f8b119;}.cls-14,.cls-20,.cls-4{fill:#fff;}.cls-5{fill:#1e1e1e;}.cls-6{fill:#010101;}.cls-7{fill:#e73534;}.cls-8{fill:#c32328;}.cls-9{fill:url(#_ÂÁ_Ï_ÌÌ_È_ËÂÌÚ_440);}.cls-10{fill:#eff8fb;}.cls-11{fill:url(#_ÂÁ_Ï_ÌÌ_È_ËÂÌÚ_12);}.cls-12{fill:url(#_ÂÁ_Ï_ÌÌ_È_ËÂÌÚ_440-2);}.cls-13{fill:url(#_ÂÁ_Ï_ÌÌ_È_ËÂÌÚ_12-2);}.cls-14{fill-rule:evenodd;}.cls-15{fill:#3a3b3a;}.cls-16{fill:#7a1b24;}.cls-17{fill:#f2bad5;}.cls-18{fill:#302d4f;}.cls-19{fill:#c9e0f4;}.cls-20{opacity:0.5;}.cls-21,.cls-23{fill:#77c9e2;}.cls-21{mix-blend-mode:multiply;opacity:0.4;}.cls-22{fill:#067d9f;}.cls-24{fill:#f16161;}.cls-25{fill:#8cd2d3;}.cls-26{fill:#fbbc1d;}.cls-27{fill:#2bafc6;}</style><radialGradient id="_ÂÁ_Ï_ÌÌ_È_ËÂÌÚ_440" cx="344.5" cy="114.69" r="50.04" gradientTransform="matrix(0.71, 0.71, -0.71, 0.71, 72.71, -86)" gradientUnits="userSpaceOnUse"><stop offset="0" stop-color="#384b9d"/><stop offset="1" stop-color="#252159"/></radialGradient><linearGradient id="_ÂÁ_Ï_ÌÌ_È_ËÂÌÚ_12" x1="314.02" y1="114.69" x2="374.98" y2="114.69" gradientTransform="translate(-123.64 183.37) rotate(-9.65)" gradientUnits="userSpaceOnUse"><stop offset="0" stop-color="#0f1418"/><stop offset="1" stop-color="#0a2f44"/></linearGradient><radialGradient id="_ÂÁ_Ï_ÌÌ_È_ËÂÌÚ_440-2" cx="481.08" cy="114.68" r="50.04" gradientTransform="matrix(0.71, 0.71, -0.71, 0.71, 110.78, -205.47)" xlink:href="#_ÂÁ_Ï_ÌÌ_È_ËÂÌÚ_440"/><linearGradient id="_ÂÁ_Ï_ÌÌ_È_ËÂÌÚ_12-2" x1="450.6" y1="114.68" x2="511.56" y2="114.68" gradientTransform="translate(-32.67 -71.55) rotate(22.11)" xlink:href="#_ÂÁ_Ï_ÌÌ_È_ËÂÌÚ_12"/></defs><g class="cls-1"><g id="Layer_1" data-name="Layer 1"><path class="cls-2" d="M520.9,181c12,37.67-6,76.45-31,86.91S444,254,428.6,220s-7.57-70.17,17.46-80.54C480.28,125.29,509.67,145.55,520.9,181Z"/><path class="cls-3" d="M508.83,417.83c-48.74,49.55-52,65.88-73.5,67.54-2.47.19-15.09,1.16-26.22-6.67a38.87,38.87,0,0,1-14.55-20.63c-8.19-30.89,46.39-72.78,90-89.85,9.51-3.72,35-13.7,43.73-4,3.57,4,3.11,10,2.73,14.21C529.36,397.26,516.18,410.36,508.83,417.83Z"/><path class="cls-4" d="M422.27,434.91c4.87-5.67,9.34-9.16,18.27-16.14,11.68-9.14,19.6-11.87,18.94-15.89-.44-2.62-4.21-4-5.07-4.3-13-4.72-31.24,12.3-40.22,24.85-5.5,7.69-10.13,17.45-7.67,19.94a3.89,3.89,0,0,0,2.79,1.07C414.45,444.1,418.56,439.22,422.27,434.91Z"/><path class="cls-4" d="M399,450.25a2.72,2.72,0,1,0,3.82-.49A2.72,2.72,0,0,0,399,450.25Z"/><circle class="cls-5" cx="380.86" cy="65.55" r="63.55" transform="translate(65.2 288.5) rotate(-45)"/><path class="cls-6" d="M316.6,78.45a65.54,65.54,0,1,1,77.16,51.35A65.62,65.62,0,0,1,316.6,78.45Zm124.61-25A61.55,61.55,0,1,0,393,125.9,61.62,61.62,0,0,0,441.21,53.43Z"/><circle class="cls-7" cx="380.86" cy="65.55" r="46.8" transform="translate(115.28 346.29) rotate(-56.36)"/><path class="cls-8" d="M426.74,56.33a46.8,46.8,0,1,0-36.67,55.1A46.8,46.8,0,0,0,426.74,56.33ZM342.3,74.8c-4.14-20.65,10.8-41.07,33.38-45.61s44.24,8.53,48.39,29.19S413.28,99.44,390.7,104,346.45,95.45,342.3,74.8Z"/><circle class="cls-5" cx="74.26" cy="148.12" r="63.55" transform="translate(-82.99 95.89) rotate(-45)"/><path class="cls-6" d="M84.6,212.84A65.54,65.54,0,1,1,139,137.79,65.62,65.62,0,0,1,84.6,212.84Zm-20-125.5a61.56,61.56,0,1,0,70.5,51.08A61.63,61.63,0,0,0,64.55,87.34Z"/><circle class="cls-7" cx="74.26" cy="148.12" r="46.8" transform="translate(-82.99 95.89) rotate(-45)"/><path class="cls-8" d="M66.88,101.91a46.8,46.8,0,1,0,53.6,38.83A46.81,46.81,0,0,0,66.88,101.91ZM82,187c-20.8,3.32-40.61-12.42-44.24-35.16S48,108,68.82,104.66s40.6,12.42,44.23,35.16S102.77,183.69,82,187Z"/><path class="cls-8" d="M260.39,69.1H270.8A218.18,218.18,0,0,1,489,287.28v0A121.58,121.58,0,0,1,367.4,408.86H163.79A121.58,121.58,0,0,1,42.21,287.28v0A218.18,218.18,0,0,1,260.39,69.1Z" transform="matrix(0.99, -0.17, 0.17, 0.99, -36.31, 47.91)"/><path class="cls-7" d="M491.45,234.63c-16.9-99.36-102.55-169-201.92-152.08L210.41,96C111.05,112.9,43.57,208,60.47,307.39l9,52.75c9.5,55.84,72,75.4,111.52,65.55l231.8-39.42s80.19-8.94,85.73-101.89Z"/><path class="cls-4" d="M215.61,105.24c7.24,4.53,11.87,16,8.18,23.11-3.47,6.68-13.14,7.42-23.11,8.18s-33.8.74-35.57-6.79C162.77,119.81,198.53,94.56,215.61,105.24Z"/><path class="cls-4" d="M148.89,135.28a6.35,6.35,0,1,1-8.81,1.77A6.36,6.36,0,0,1,148.89,135.28Z"/><path class="cls-4" d="M456.64,264.44h0A43.16,43.16,0,0,1,438.59,272L174.27,316.92a43,43,0,0,1-19.53-1.14h0c-15.34-4.59-25.73-17.36-26.2-32.2l0-1.08C126.93,232.25,165,186.94,219,174.84c22.86-5.13,47-9.86,72.24-14q29.69-4.87,57.58-8.1c55.2-6.48,106.39,23.5,121.57,71.62l.32,1C475.19,239.55,469.6,255,456.64,264.44Z"/><circle class="cls-9" cx="235.19" cy="238.69" r="50.56" transform="translate(-95.56 292.42) rotate(-54.65)"/><circle class="cls-10" cx="235.19" cy="238.69" r="36.29" transform="translate(-12.92 13.46) rotate(-3.19)"/><path class="cls-11" d="M265.24,233.58a30.48,30.48,0,1,1-35.16-24.94A30.48,30.48,0,0,1,265.24,233.58Z"/><circle class="cls-10" cx="241.98" cy="229.52" r="11.29" transform="translate(-7.42 450.96) rotate(-85.09)"/><path class="cls-10" d="M239.11,261.73a4.5,4.5,0,1,1-5.2-3.69A4.51,4.51,0,0,1,239.11,261.73Z"/><path class="cls-10" d="M222.52,257.69a2.25,2.25,0,1,1-2.6-1.84A2.25,2.25,0,0,1,222.52,257.69Z"/><circle class="cls-12" cx="369.83" cy="215.79" r="50.56" transform="translate(-20.14 392.6) rotate(-54.65)"/><path class="cls-10" d="M405.61,209.71A36.29,36.29,0,1,1,363.75,180,36.29,36.29,0,0,1,405.61,209.71Z"/><circle class="cls-13" cx="369.83" cy="215.79" r="30.48" transform="matrix(0.85, -0.53, 0.53, 0.85, -58.2, 227)"/><path class="cls-10" d="M387.76,204.73a11.29,11.29,0,1,1-13-9.24A11.29,11.29,0,0,1,387.76,204.73Z"/><path class="cls-10" d="M373.75,238.83a4.5,4.5,0,1,1-5.19-3.68A4.51,4.51,0,0,1,373.75,238.83Z"/><path class="cls-10" d="M357.16,234.8a2.25,2.25,0,1,1-2.59-1.85A2.25,2.25,0,0,1,357.16,234.8Z"/><path class="cls-7" d="M152.45,495c.07.61.14,1.19.23,1.75a41.7,41.7,0,0,0,3.54,11.41c24.93,53.75,39.4,81.94,57.61,104,3.15,3.8,6.41,7.43,9.87,10.95,4.54,4.72,9.45,9.25,14.84,13.89,12,10.3,28.7,13.63,34.09,14.82,19.74,4.45,36.33,1.24,47.47,0l1.94-.23c11.15-1.43,28-2.19,46.15-11.13,5-2.42,20.45-9.56,29.67-22.37,25.46-35.27,33.56-63,49.93-144.5a41.58,41.58,0,0,0,.82-11.2,43.67,43.67,0,0,0-.51-4.55c-1.67-9.31-6.56-18.05-14.3-25.64-13.26-13-32.05-18.81-50.52-16.7l-89,10.18-87.39,10c-18.87,2.16-36.21,12.24-46.47,28.25-5,7.75-7.74,15.81-8.16,23.84-.05,1.13-.08,2.3-.05,3.42S152.3,493.7,152.45,495Z"/><path class="cls-3" d="M174.71,564.71c37.53-58.52,52.73-65.3,49.58-86.64-.36-2.46-2.21-15-12.31-24.09a38.87,38.87,0,0,0-23.33-9.62C156.7,443.21,128,505.72,121,552c-1.52,10.1-5.61,37.2,5.83,43.53,4.69,2.59,10.41.83,14.46-.49C159.21,589.28,169.06,573.53,174.71,564.71Z"/><path class="cls-4" d="M172.19,476.51c-4.45,6-6.86,11.14-11.69,21.39-6.32,13.42-7.23,21.75-11.3,22-2.65.16-4.82-3.22-5.31-4-7.47-11.59,5.07-33.19,15.32-44.72,6.28-7.07,14.78-13.75,17.74-11.91a4,4,0,0,1,1.68,2.49C179.43,466.85,175.57,471.94,172.19,476.51Z"/><path class="cls-4" d="M182,450.44a2.72,2.72,0,1,1,.36,3.83A2.72,2.72,0,0,1,182,450.44Z"/><path class="cls-4" d="M284.37,583.14,298,544.42l-13,1.51L277.07,572H277l-13.57-23.59-12.64,1.47,24.65,39A55.64,55.64,0,0,1,284.37,583.14Zm29.43-9.61c9.9-.8,22.54,1.68,31.67,2.35a30.09,30.09,0,0,0,6,.12c3.71-.33,19.14-3,17.58-16.44-1.25-10.77-19.51-7.13-26.53-8.85-1.58-.41-2.61-1.1-2.74-2.24a3.62,3.62,0,0,1,2-3.72,14,14,0,0,1,4.44-1.22c4.53-.53,7.17.91,7.92,4.42l12.07-1.41c-1.52-7.95-10.67-9.89-19.38-8.88a44.83,44.83,0,0,0-5.75,1c-7.34,1.66-11,4.64-12.52,7.61l-.63-5.38-12.06,1.41,2.36,20.26c.72,6.18-1,8.48-7.16,9.2s-8.35-1.12-9.08-7.3l-1.73-14.89-8.51,23.74c.26,2.28,1.62,3.86,4.67,4.79A50.11,50.11,0,0,1,313.8,573.53Zm15.9-17.84c2.88,3.48,8.47,4.1,13.9,4.16,6.72.27,13.24-.27,13.67,3.4.29,2.51-1.86,4.28-7.3,4.91a16.63,16.63,0,0,1-5.41-.07,4.77,4.77,0,0,1-4.06-4.51l-9.74,1.13Z"/><path class="cls-14" d="M359.87,577.45c-16.13,8.84-56.19-18.16-90.17,26.17l14.39-1.68c21.16-31.11,50.09-17,69.25-20a17.47,17.47,0,0,0,12.59-9A20.46,20.46,0,0,1,359.87,577.45Zm-66.62,23.42,13-1.51c1.18-3.15,6.64-12.72,33-14.52,7.58-.53,8.35-1,8.35-1s-3.74.1-6.94-.11C307.47,581.7,295.83,596.75,293.25,600.87Zm21.1-2.46L326.53,597c.93-7.17,17.18-10.93,17.18-10.93S321.9,587.56,314.35,598.41Z"/><polygon class="cls-7" points="111.54 157.4 100.85 174.67 57.87 157.37 76.89 126.64 111.54 157.4"/><path class="cls-8" d="M55.51,158.14a2.49,2.49,0,0,1,.25-2.08l19-30.72a2.47,2.47,0,0,1,3.75-.55l34.65,30.76a2.49,2.49,0,0,1,.46,3.16L103,176a2.49,2.49,0,0,1-3,1l-43-17.3a2.69,2.69,0,0,1-.38-.19A2.55,2.55,0,0,1,55.51,158.14Zm52.82-.27L77.45,130.46,61.53,156.17l38.31,15.42Z"/><circle class="cls-5" cx="67.38" cy="142.01" r="18.07" transform="translate(-88.83 124.54) rotate(-58.24)"/><path class="cls-6" d="M56.57,159.48a20.55,20.55,0,1,1,28.28-6.66A20.58,20.58,0,0,1,56.57,159.48Zm19-30.73a15.59,15.59,0,1,0,5,21.46A15.61,15.61,0,0,0,75.59,128.75Z"/><path class="cls-4" d="M74.57,130.39A13.66,13.66,0,1,0,79,149.2,13.67,13.67,0,0,0,74.57,130.39Z"/><path class="cls-15" d="M74.57,130.39A13.66,13.66,0,1,0,79,149.2,13.67,13.67,0,0,0,74.57,130.39ZM72.33,134A10,10,0,1,1,58.13,137,10.27,10.27,0,0,1,72.33,134Z"/><polygon class="cls-7" points="378.08 103.98 359.1 96.77 367.92 51.29 401.69 64.12 378.08 103.98"/><path class="cls-8" d="M366.71,49.12A2.47,2.47,0,0,1,368.8,49L402.58,61.8a2.48,2.48,0,0,1,1.25,3.59l-23.61,39.86a2.48,2.48,0,0,1-3,1l-19-7.21a2.48,2.48,0,0,1-1.56-2.79l8.82-45.49a3.17,3.17,0,0,1,.12-.41A2.44,2.44,0,0,1,366.71,49.12ZM377,100.93l21.05-35.54L369.79,54.65l-7.86,40.54Z"/><circle class="cls-5" cx="384.8" cy="57.7" r="18.07" transform="translate(194.18 396.92) rotate(-69.19)"/><path class="cls-6" d="M365.6,50.41a20.55,20.55,0,1,1,11.9,26.5A20.55,20.55,0,0,1,365.6,50.41Zm33.78,12.83a15.59,15.59,0,1,0-20.11,9A15.61,15.61,0,0,0,399.38,63.24Z"/><path class="cls-4" d="M397.58,62.56A13.67,13.67,0,1,0,380,70.48,13.67,13.67,0,0,0,397.58,62.56Z"/><path class="cls-15" d="M397.58,62.56A13.67,13.67,0,1,0,380,70.48,13.67,13.67,0,0,0,397.58,62.56Zm-4-1.52A10,10,0,1,1,388,47.66,10.25,10.25,0,0,1,393.59,61Z"/><path class="cls-16" d="M272.43,327.7l77.92-14.88S346,389,326.71,390.75,272.43,327.7,272.43,327.7Z"/><path class="cls-17" d="M285.09,349c12,18.71,29.77,42.82,41.62,41.75,8.79-.8,14.48-17.1,18.07-34.58C327.81,343.92,305,341.61,285.09,349Z"/><path class="cls-18" d="M648.76,339.22a6.55,6.55,0,0,1-8.68,3.25L526.5,290.35a6.56,6.56,0,0,1-3.2-8.7L603.9,106a6.55,6.55,0,0,1,8.68-3.25l113.58,52.12a6.56,6.56,0,0,1,3.2,8.7Z"/><rect class="cls-19" x="540.83" y="156.41" width="174.81" height="124.1" rx="6.67" transform="translate(167.68 698.35) rotate(-65.35)"/><path class="cls-20" d="M639.85,131l76.28,35a6.66,6.66,0,0,1,2.78,2.4,6.7,6.7,0,0,0-3.89-6.26l-71.83-33-28.83-13.23a6.69,6.69,0,0,0-8.85,3.29l-18.67,40.68L538.17,266a6.68,6.68,0,0,0,.5,6.45,6.66,6.66,0,0,1,.6-2.59l51.41-112Z"/><path class="cls-21" d="M717.4,164a6.6,6.6,0,0,1-.6,3l-46.25,100.8-64,33.58L540,270.76a6.71,6.71,0,0,1-2.38-1.85,6.67,6.67,0,0,0,3.88,5.89l61.65,28.29,39,17.9a6.67,6.67,0,0,0,8.85-3.28l24-52.3L718.3,171A6.66,6.66,0,0,0,717.4,164Z"/><rect class="cls-22" x="581.73" y="300.43" width="12.2" height="12.2" rx="5.72" transform="translate(64.08 712.96) rotate(-65.35)"/><rect class="cls-23" x="585.83" y="304.53" width="3.98" height="3.98" rx="1.87" transform="translate(64.08 712.96) rotate(-65.35)"/><path class="cls-22" d="M676.72,138.89a1.26,1.26,0,0,1-1.53.83l-17.87-8.2a1.26,1.26,0,0,1-.38-1.7h0a1.25,1.25,0,0,1,1.53-.83l17.87,8.2a1.26,1.26,0,0,1,.38,1.7Z"/><path class="cls-24" d="M609.15,59.32l.38-40.18A3.28,3.28,0,0,0,605.28,16L554.12,31.82a3.28,3.28,0,0,0-2.31,3.1l-.36,36.74c-4.72-1.77-11.19-1.63-17.64.8-10.78,4.05-17.4,13-14.79,19.91s13.47,9.27,24.25,5.21,17.4-13,14.78-19.91l-.1-.23.39-40.06,44.59-13.81-.28,29.32c-4.74-1.88-11.35-1.79-17.92.68-10.78,4.06-17.4,13-14.79,19.92s13.47,9.27,24.25,5.21C604.69,74.74,611.25,66.17,609.15,59.32Z"/><path class="cls-25" d="M701.09,49.76c-4-9.49-12.47-7.95-17.88-14.12a2.66,2.66,0,0,0-5,1.58L682.33,69c-4-1-9.38-.18-14.42,2.57-8.23,4.48-12.57,12.42-9.68,17.72s11.91,6,20.14,1.48c8-4.36,12.32-12,9.91-17.31l-2.52-19.48c4.77,2.69,6.91,0,13.87,4.15.37.22.84-.25.68-.61-3.15-7.19-8.63-4.38-15.44-10.41l-.32-2.4c6.27,3.91,10.55,1.16,15.68,5.77C700.62,50.78,701.28,50.19,701.09,49.76Z"/><path class="cls-26" d="M769.48,140.94c-2.73-19.36-16.13-19.77-22.33-33.19a4.21,4.21,0,0,0-8.37.17l-4,50.31c-5.91-2.86-14.4-3.35-23.08-.77-14.18,4.22-23.46,15-20.75,24.17s16.41,13.1,30.59,8.88c13.77-4.1,22.94-14.5,21-23.46l3.33-41.26c5.34,4.64,12.8,5.38,22.13,16.1C768.51,142.57,769.61,141.83,769.48,140.94Z"/><path class="cls-27" d="M496.5,144.54c-12.44-30.87-34.93-49.95-74.75-69.83-39.1-19.52-139.89-33.32-238.45-8.93-104,25.73-172.16,86.5-146.7,216.15.8,4.09,1.88,7.17,2.17,9.16,1.36,9.3,12.8,16,26,15.36.6,0,1.19-.07,1.78-.13,13.92-1.31,11.12-22.41,9.77-27.64-16.74-65-25.3-160.28,116-198,96.86-25.89,180.86-22.77,229.78,1.08,27.61,13.47,43.45,29.56,53.12,53.76A55.44,55.44,0,0,1,496.5,144.54Z"/><path class="cls-2" d="M123.85,270c5.83,40.93-9.9,77-35.12,80.61S38.32,323.9,32.5,283s9.89-77,35.12-80.6S118,229,123.85,270Z"/><rect class="cls-2" x="46.72" y="203.62" width="34.79" height="149.7" transform="translate(-38.62 11.82) rotate(-8.11)"/><path class="cls-4" d="M97.47,273.72c5.83,40.92-8.84,76.86-32.77,80.27s-48.05-27-53.87-67.93,8.84-76.86,32.77-80.27S91.65,232.8,97.47,273.72Z"/><path class="cls-27" d="M92.57,274.42c5.83,40.92-9.9,77-35.13,80.6S7,328.35,1.21,287.43s9.9-77,35.13-80.61S86.74,233.5,92.57,274.42Z"/><path class="cls-4" d="M49.07,315.67c-11.13,1.59-22-12.27-24.73-31.54s3.82-35.59,15-37.18,22,12.28,24.71,31.53S60.19,314.09,49.07,315.67Zm-9.26-65.05C31,251.87,25.63,267,28,283.61S39.77,313.26,48.55,312s14.15-16.36,11.79-33S48.57,249.37,39.81,250.62Z"/></g></g></svg>