<?xml version="1.0" encoding="UTF-8"?><svg id="Layer_2" xmlns="http://www.w3.org/2000/svg" viewBox="0 0 175.9 38.3"><defs><style>.cls-1{fill:#1d3072;}</style></defs><g id="Layer_1-2"><path class="cls-1" d="M2.8,31.94c.02.05.02.11.08.13s.08-.05.1-.09c.12-.34.27-.63.44-.93.06-.09.11-.18.13-.29.15-.75.42-1.47.54-2.22.02-.08.03-.15.03-.24,0-.31.17-.47.4-.55.47-.16,1.02-.31,1.52-.29.13,0,.23.02.35.06.18.07.28.2.29.39.02.09.02.19,0,.27-.19.53-.22,1.08-.42,1.6-.26.68-.48,1.37-.73,2.04-.13.34-.1.42.17.65.04.03.08.06.12.09.7.45,1.24,1.08,1.88,1.56.61.46,1.05,1.07,1.66,1.52.17.12.17.21.03.36-.04.04-.09.1-.16.12-.39.19-.76.45-1.18.59-.32.11-.61.13-.92-.05-.9-.51-1.98-1.5-2.64-2.29-.12-.13-.14-.12-.28.02-.17.18-.21.38-.15.65.14.49.3.98.5,1.45.11.28.14.56.22.84.06.26-.03.39-.27.52-.17.08-.35.17-.53.23-.12.04-.22.06-.35.07-.15,0-.32.08-.46.11-.3.07-.51-.04-.62-.33-.17-.52-.34-1.05-.54-1.57-.46-1.14-.8-2.32-1.21-3.46-.25-.71-.43-1.45-.58-2.18-.07-.29-.14-.59-.21-.88-.08-.36.05-.58.38-.72.2-.08.42-.15.64-.21.36-.12.64,0,.8.36.09.18.2.38.22.58.03.17.11.33.16.49.06.15.13.3.19.43.16.39.3.77.39,1.16Z"/><path class="cls-1" d="M7.84,28.3c-.09-.34-.16-.67-.25-1-.15-.64.52-.99,1.02-1.14,1.09-.35,1.49.43,1.88,1.32.24.54.41,1.11.64,1.65q.1.24.35.12c.24-.1.47-.21.71-.29.18-.06.36-.1.55-.13.04-.01.09-.02.14-.04.39-.15.41-.22.31-.62-.16-.63-.32-1.27-.47-1.92-.04-.23-.04-.47-.03-.71,0-.2.11-.37.32-.46.4-.16.82-.27,1.25-.29.24,0,.44.1.58.3.21.27.3.58.42.88.2.5.37,1.01.49,1.54.09.46.25.92.38,1.38.25.8.61,1.57.85,2.37.13.42.26.86.38,1.29.03.08.03.15.04.23.04.49-.16.77-.63.89-.29.08-.58.13-.85.21-.29.09-.46.12-.72-.09-.51-.37-1.12-2.17-1.3-2.76-.02-.08-.07-.12-.14-.08-.09.06-.2.09-.31.13-.35.11-.71.13-1.05.26-.03,0-.06,0-.08.01-.47.16-.37.2-.27.52.22.69.42,1.39.62,2.09.15.47-.08,1.16-.58,1.32-.26.08-.53.17-.8.14-.19-.01-.37,0-.55,0-.26.01-.46-.11-.57-.34-.03-.05-.05-.1-.07-.13-.25-.68-.49-1.37-.74-2.04-.22-.64-.5-1.25-.64-1.82-.34-.98-.66-1.88-.89-2.8Z"/><path class="cls-1" d="M19.51,25.7c.02.08.05.15.08.23.09.24.17.47.2.73.01.08.03.17.08.26.26.51.29,1.08.43,1.63.06.29.14.56.22.85.21.77.42,1.55.63,2.32.14.56-.12.88-.64,1.04-.17.05-.36.07-.54.09-.15.03-.28.04-.43.08-.32.06-.57-.08-.71-.38-.01-.04-.02-.08-.04-.12-.3-.89-.6-1.8-.89-2.7-.13-.38-.28-.77-.43-1.15-.21-.53-.36-1.07-.49-1.63-.07-.26-.12-.54-.2-.8-.05-.22-.11-.43-.15-.66-.05-.25-.14-.51-.21-.75-.14-.46-.22-.9.34-1.15.2-.09.4-.15.61-.22s.41-.13.63-.16c.56-.1.84.16.96.59.08.27.17.55.25.82.1.37.21.71.27,1.07Z"/><path class="cls-1" d="M25.25,24.11c.03-.42.13-.82.25-1.24.37-1.27,2.17-2.37,3.33-2.7.13-.04.26-.08.4-.09.22-.02.44-.08.65-.12.41-.08.75.06.99.36.33.42.51.9.35,1.44-.1.37-.35.58-.75.67-.31.06-.62.12-.93.21s-.63.21-.92.41c-.03.04-.08.05-.12.06-.87.25-1.05,1.54-.88,2.28.08.33.18.66.32.97.14.3.37.47.66.58.13.05.85.36.97.34.21-.03.42-.06.62-.12.3-.09.58-.22.8-.47.21-.24.22-.63.04-.88-.05-.08-.13-.07-.21-.05-.37.09-.75.19-1.11.28-.52.14-.54.13-.79-.36-.2-.39-.28-.82-.45-1.22-.1-.25-.02-.37.21-.48.26-.1.54-.23.81-.3.22-.06.46-.11.7-.1.04,0,.08,0,.12,0,.41-.18.87-.14,1.31-.24.55-.1.69-.04.96.45.37.66.62,1.36.69,2.13.02.3.04.59.02.91-.07.76-.37,1.43-.91,2-.26.31-.58.46-.93.56-.48.14-.97.23-1.46.17-.14-.01-.31,0-.46.05-.71.18-1.32-.04-1.91-.39-.07-.05-.14-.1-.2-.12-.34-.14-.59-.39-.81-.68-.22-.27-.44-.56-.65-.85-.23-.31-.38-.68-.49-1.06-.24-.77-.25-1.58-.19-2.39Z"/><path class="cls-1" d="M32.87,20.69c-.08-.34-.13-.68-.21-1.01-.12-.65.56-.96,1.07-1.1,1.11-.3,1.48.49,1.82,1.4.22.55.37,1.13.57,1.67q.09.24.34.13c.24-.09.48-.19.73-.25.18-.05.37-.09.56-.11.04-.01.09-.01.14-.04.4-.14.42-.2.34-.61-.13-.63-.27-1.28-.39-1.93-.03-.23-.02-.47,0-.71.02-.2.12-.37.34-.44.41-.14.83-.24,1.26-.24.24.02.44.12.56.32.2.28.28.6.39.9.18.51.33,1.03.43,1.56.07.47.21.93.33,1.39.22.81.55,1.6.76,2.41.12.43.23.88.33,1.31.02.08.03.15.04.23.02.5-.2.77-.67.87-.29.07-.59.11-.86.18-.3.08-.46.1-.72-.12-.5-.39-1.03-2.22-1.19-2.82-.02-.08-.06-.12-.14-.09-.1.05-.2.08-.32.12-.35.1-.71.1-1.06.22-.03,0-.06,0-.08,0-.48.15-.38.19-.29.51.19.7.36,1.41.54,2.12.13.48-.13,1.15-.64,1.29-.26.07-.53.15-.81.11-.19-.02-.37-.01-.55-.02-.26,0-.45-.13-.56-.36-.03-.05-.04-.1-.07-.14-.22-.69-.44-1.39-.65-2.07-.19-.65-.45-1.28-.56-1.84-.3-.99-.58-1.91-.78-2.83Z"/><path class="cls-1" d="M44.61,18.59c.02.08.04.16.08.23.08.24.15.48.17.74,0,.08.02.18.07.26.23.52.24,1.09.36,1.65.05.29.12.57.18.86.18.78.35,1.56.53,2.34.12.57-.16.88-.68,1.01-.17.04-.36.05-.54.07-.15.03-.28.03-.43.06-.32.04-.57-.1-.69-.4,0-.04-.02-.08-.03-.12-.27-.91-.52-1.83-.77-2.74-.12-.39-.25-.78-.38-1.17-.18-.54-.31-1.09-.42-1.65-.06-.26-.1-.54-.17-.8-.04-.22-.09-.44-.12-.67-.04-.25-.12-.51-.17-.76-.12-.47-.18-.91.39-1.13.2-.08.41-.14.62-.19.21-.05.42-.11.63-.14.56-.08.83.2.93.63.07.27.15.56.22.83.08.37.17.72.23,1.08Z"/><path class="cls-1" d="M50.48,17.91c-.22-.81-.39-1.62-.55-2.44-.1-.49,0-.67.45-.89.28-.12.55-.23.84-.3.18-.04.36-.07.55-.09.11-.01.21-.04.32-.06.23-.07.46-.06.7-.02.33.04.68.04,1.01.11.56.14,1.09.32,1.47.78.24.29.51.57.75.86.7.84.96,1.83,1.03,2.88.04.57-.27,1.8-.46,2.32-.06.15-.12.29-.2.42-.44.59-.94,1.1-1.67,1.32-.04,0-.08.02-.1.04-.19.23-.47.24-.72.3-.34.07-.7.13-1.05.19-.46.08-1.08-.22-1.22-.81-.08-.31-.18-.61-.26-.91-.1-.29-.16-.59-.23-.89-.2-.94-.37-1.88-.64-2.81ZM52.54,17.61c.32.92.63,1.83.86,2.79.04.09.06.18.17.19.15,0,.29,0,.42-.08.38-.26.69-.6.78-1.05.11-.5.17-1.01-.02-1.55-.2-.58-.56-.99-1.03-1.34-.04-.03-.09-.05-.14-.06l-.66-.13c-.15-.03-.29,0-.42.02-.15,0-.21.09-.19.24.05.21.09.48.12.62.04.14.07.23.1.35Z"/><path class="cls-1" d="M58.75,22.08c-.45.08-.65-.06-.72-.5-.07-.41-.09-.82-.03-1.22.13-.87.19-1.76.3-2.62.04-.3.07-.61.13-.9.1-.53.03-1.08.1-1.61.06-.57.12-1.13.18-1.69.02-.14.04-.29.09-.44.16-.51.25-.6.78-.77.09-.03.18-.07.25-.1.43-.17.85-.14,1.28-.04.14.02.23.11.31.22.26.35.55.67.85,1,.14.13.25.3.36.47.45.77.97,1.51,1.49,2.23.22.31.4.64.63.95.1.13.19.25.3.36.14.13.24.28.33.44.22.36.44.73.66,1.08.16.28.23.6.25.91,0,.22-.07.4-.32.49-.27.09-.53.22-.8.32-.11.05-.23.07-.35.11-.22.05-.44,0-.57-.19-.14-.2-.37-.33-.51-.53-.14-.2-.33-.3-.59-.18-.11.05-.25.06-.39.06-.11,0-.23.02-.34.06-.1.04-.22.08-.34.09-.38.03-.72.22-1.11.23-.14,0-.17.11-.18.22-.03.17-.07.36-.1.53-.01.06-.02.11-.03.16-.11.38-.3.68-.75.7-.08,0-.17.03-.27.05-.29.05-.6.09-.9.13ZM61.53,17.82l.14-.03c.34-.09.43-.29.29-.62,0-.03-.04-.06-.05-.1-.19-.55-.57-.99-.89-1.47-.03-.06-.08-.12-.16-.1-.09.02-.12.1-.12.18-.05.55-.12,1.53,0,2.07.05.17.17.24.34.2.14-.05.39-.12.45-.13Z"/><path class="cls-1" d="M69.31,18.59c.04.17.06.36.09.55.01.12-.03.2-.16.21-.36.07-.69.19-1.04.2-.28.03-.57.04-.86.1-.21.04-.33-.04-.37-.25-.13-.56-.24-1.13-.38-1.7-.11-.4-.21-.81-.29-1.22-.18-.8-.39-1.6-.49-2.4-.05-.43-.19-.84-.28-1.26-.09-.35-.09-.7-.06-1.06.01-.14.04-.28.11-.41.11-.24.3-.39.58-.42.45-.07.91-.08,1.37-.08.16,0,.3.05.43.14.49.35.97.68,1.44,1.03.45.33.95.61,1.42.93.09.05.17.13.24.21.22.21.46.43.74.58.17.09.3.25.45.39.03.02.08.04.11.02,0-.02.02-.04.02-.06-.11-.32-.06-.66-.08-.99-.06-.7-.26-1.39-.37-2.1-.02-.15-.03-.28-.04-.43.01-.54.35-.9.88-.91.21,0,.42,0,.63.03.19.03.34.13.41.33.05.09.08.16.11.25.13.58.33,1.14.48,1.7.17.62.29,1.26.44,1.89.02.11.04.21.05.31,0,.23.05.44.11.66.08.26.14.52.18.8.03.28.12.57.2.84.12.4.22.79.28,1.19.03.21-.01.28-.2.37-.02.02-.05.02-.08.03-.42.09-.82.24-1.22.41-.15.06-.33.06-.51.07-.22,0-.38-.06-.57-.21-.65-.62-1.33-1.24-2.03-1.82-.4-.34-.86-.65-1.3-.95-.18-.13-.38-.24-.55-.38-.05-.06-.13-.1-.19-.14-.12-.07-.26-.11-.38-.02-.12.09-.06.22-.03.32.15.59.29,1.18.38,1.68.12.58.22,1.08.33,1.57Z"/><path class="cls-1" d="M75.46,10.46c-.05-.35-.07-.69-.12-1.02-.07-.66.64-.92,1.15-1.01,1.13-.21,1.43.61,1.7,1.54.18.57.27,1.16.43,1.71q.07.25.33.16c.25-.07.49-.15.75-.19.19-.04.37-.06.56-.06.04,0,.1,0,.15-.03.41-.1.44-.16.38-.58-.08-.64-.16-1.3-.23-1.96-.02-.23.02-.47.06-.71.03-.2.15-.36.38-.41.42-.11.84-.17,1.28-.13.24.04.43.15.53.37.18.3.23.62.31.93.14.52.24,1.05.3,1.59.03.47.14.95.21,1.41.15.82.42,1.64.56,2.46.08.44.15.89.22,1.33.01.08.01.15.02.23-.02.5-.26.75-.74.81-.29.04-.59.06-.87.11-.3.06-.47.06-.71-.18-.46-.43-.84-2.3-.96-2.91-.01-.08-.05-.13-.13-.1-.1.05-.21.07-.33.09-.36.07-.72.04-1.07.13-.03,0-.06,0-.08,0-.49.11-.4.16-.33.49.13.72.24,1.44.36,2.15.09.49-.23,1.14-.74,1.24-.26.05-.54.1-.81.04-.18-.03-.36-.04-.55-.06-.26-.02-.44-.16-.53-.41-.02-.05-.03-.1-.05-.14-.16-.71-.32-1.42-.48-2.12-.14-.66-.34-1.31-.41-1.88-.22-1.01-.42-1.95-.54-2.89Z"/><path class="cls-1" d="M91.3,10.64c-.07-.34-.04-.7-.15-1.05-.11-.36-.27-.5-.66-.46-.29.05-.58.11-.89.17-.14.04-.28.02-.42-.01-.35-.04-.51-.23-.61-.56-.13-.47-.22-.95-.27-1.43-.02-.13-.02-.27.05-.39.07-.11.13-.19.27-.19.07,0,.13-.03.2-.04.57-.05,1.12-.19,1.66-.34.3-.09.61-.14.91-.19.52-.08,1.06-.14,1.57-.22.57-.09,1.15-.15,1.73-.18.41,0,.63.12.76.51.08.22.11.43.12.66,0,.23.03.47.03.71,0,.31-.11.51-.41.6-.43.14-.85.26-1.28.38-.33.09-.38.16-.32.47.09.6.19,1.18.26,1.79.03.29.13.59.21.88.13.59.28,1.18.42,1.76.08.35.11.71.04,1.06-.09.4-.36.64-.76.69-.08,0-.17-.01-.23.02-.08.04-.15.07-.23.08-.27.04-.51-.07-.75-.18-.27-.13-.42-.4-.46-.69-.11-.72-.33-1.42-.4-2.04-.13-.66-.26-1.23-.38-1.79Z"/><path class="cls-1" d="M96.89,10.99c-.06-.34-.12-.68-.13-1.02-.02-.34-.06-.66-.12-.99-.13-.65-.15-1.3-.14-1.95,0-.08,0-.16,0-.24-.07-.63.27-1.37.89-1.61.18-.05.37-.11.57-.13.08-.01.16-.02.24-.02.53-.03,1.05-.11,1.56-.1,1.16.03,2.34.13,2.88,1.36.17.4.21.83.19,1.27-.02.64-.1,1.59-.51,2.12-.14.18-.14.2.01.38.29.34.53.71.78,1.09.27.37.51.76.81,1.12.11.13.17.32.26.48.06.14.04.28,0,.42-.03.19-.2.14-.31.19-.19.09-.4.15-.6.18-.35.05-.7.03-1.05.05-.15,0-.24-.05-.34-.17-.53-.69-1.05-1.39-1.49-2.13-.15-.2-.45-.3-.72-.27-.09.01-.17.04-.25.09-.09.05-.05.14-.02.22.08.34.15.69.25,1.03.08.31.13.62.17.94.01.37-.05.74-.47.84-.39.1-.81.15-1.21.18-.39.03-.61-.15-.71-.53-.08-.29-.03-.61-.13-.85-.1-.69-.29-1.32-.41-1.97ZM98.93,8.57c.06.24.2.33.44.31.41-.06,1.07-.39,1.23-.96.09-.33-.04-.62-.38-.71-.24-.05-.48-.05-.72-.02-.13.02-.26.05-.4.08-.2.05-.3.19-.3.41,0,.14.05.28.07.42.02.13.03.31.07.47Z"/><path class="cls-1" d="M111.59,7.84c.06.41.03.82.02,1.23,0,.52-.21,1.64-.48,2.09-.35.79-.68,1.26-1.48,1.7-.47.25-.98.43-1.53.45-.09,0-.25-.01-.34-.03-.26-.05-.53-.1-.8-.15-.37-.06-.67-.25-.95-.5-.38-.33-.58-.77-.83-1.16-.1-.18-.19-.37-.31-.53-.15-.23-.22-.46-.29-.71-.12-.42-.21-.83-.24-1.25-.18-.58-.18-1.16-.26-1.75-.08-.57-.15-1.16-.22-1.75-.02-.32.03-.65.08-.97,0-.08.07-.19.13-.25.19-.14.36-.3.6-.33.43-.06.84-.11,1.27-.15.21-.03.3.05.32.26.03.24.13.45.16.67s.1.46.15.69c.06.32.13.66.11,1-.02.1-.02.19,0,.3.05.55.12,1.11.18,1.66.06.48.18.94.34,1.4.11.34.43.52.74.64.12.05.24.07.35.05.12-.01.24-.07.33-.18.22-.22.41-.44.45-.76.04-.22.11-.3.11-.53,0-.15,0-.39.02-.44.09-.28.03-.45,0-.73l-.19-1.63c-.11-.9-.16-1.42-.1-2.32.01-.22.24-.46.48-.49.11-.01.23-.04.33-.05.28-.07.53-.25.45-.93-.03-.28-.14-.61.23-.68.35-.05.89-.13,1.25-.12.3,0,.33.15.4.37.07.21.12.46.13.66.09.68-.29,1.35-.98,1.79v.03c.06.62.15,1.23.22,1.85.06.51.11,1.03.18,1.54Z"/><path class="cls-1" d="M119.92,7.09l.05.48c.08.71-.16,1.34-.44,1.96-.3.67-.75,1.21-1.23,1.73-.22.24-.54.34-.81.48-.35.18-.69.27-1.07.3-.36.04-.76.02-1.14-.01-.31-.02-.6-.15-.84-.39-.27-.27-.54-.53-.71-.88-.05-.09-.13-.18-.19-.25-.34-.4-.54-.87-.78-1.32-.37-.75-.36-1.52-.32-2.32.06-1.1.43-2.04,1.26-2.77.33-.27,1.52-.98,1.95-1.02.25-.02.5-.03.75-.04.15-.01.29.01.41.08.17.07.35.12.53.17.35-.06.78-.1.69-.97-.03-.28-.13-.61.25-.67.35-.05.9-.11,1.25-.09.3,0,.33.16.39.38.06.21.11.46.12.67.08.64-.3,1.29-.93,1.71.11.17.22.34.32.54.26.6.45,1.2.44,1.87,0,.14.03.27.04.39h-.01ZM117.68,6.95c.04-.31-.15-.57-.32-.78-.19-.24-.8-.45-1.11-.42-.25.02-.5.16-.7.32-.44.35-.71.8-.78,1.37,0,.19-.02.37-.01.56.01.57.34,1,.88,1.16.25.07.52.1.78.07.19-.02.36-.08.49-.22.52-.54.86-1.15.78-1.94,0-.04-.02-.08-.01-.12ZM117.64.47c0,.05-.03.11-.04.14-.12.28-.21.53-.32.79-.13.21-.2.44-.29.65-.11.25-.29.34-.58.42-.27.04-.68.09-.9.09-.15,0-.24,0-.28-.11-.01-.12,0-.27.03-.4.08-.31.17-.6.25-.9.02-.12.04-.25.1-.4.04-.14.14-.28.23-.42.11-.16.18-.19.39-.2.04,0,.08,0,.13-.01.29-.07.72-.11.98-.12.21-.02.4.06.33.31,0,.08,0,.12-.02.19v-.03Z"/><path class="cls-1" d="M121.19,4.04c.26-.59.64-1.13,1.24-1.39.51-.21,1.04-.41,1.59-.45.2-.01.42-.02.62.02.07,0,.14,0,.2,0,.78-.03,1.4.29,1.96.78.22.24.29.49.11.8-.17.28-.34.56-.52.83-.1.16-.21.22-.35.23-.08,0-.16-.02-.25-.04-.21-.05-.42-.15-.64-.2-.22-.08-.46-.13-.68-.11-.75.05-1.3,1.07-1.42,1.72-.09.59-.16,1.19.2,1.73.08.1.14.22.19.34.14.26.33.4.62.42.33,0,.63,0,.95.01.38,0,.62-.19.85-.44.08-.09.14-.19.2-.3.11-.22.31-.37.52-.52.13-.09.25-.08.36,0,.27.18.55.35.76.62.06.08.11.16.18.22.29.21.28.48.15.77-.19.41-.4.8-.72,1.13-.34.35-.61.76-1.07.97-.39.19-.79.31-1.22.34-1.04.07-2.05-.45-2.87-1.02-.73-.53-1.14-1.63-1.35-2.48-.09-.33-.18-.65-.17-1.05-.14-1,.14-1.98.55-2.93Z"/><path class="cls-1" d="M133.29,5.09c-.05-.83-.05-1.67-.04-2.5,0-.5.14-.65.62-.77.29-.06.59-.11.89-.12.19,0,.36,0,.55.02.11,0,.22,0,.32,0,.24-.02.46.04.69.13.31.11.65.18.97.32.52.25,1,.53,1.27,1.06.17.33.38.66.56.99.52.97.56,1.99.42,3.03-.08.57-.63,1.7-.93,2.17-.09.14-.18.26-.28.37-.55.49-1.14.89-1.91.95-.04,0-.08,0-.11.02-.24.18-.51.14-.76.15-.35,0-.71-.02-1.07-.03-.47-.01-1.01-.44-1.03-1.04,0-.32-.05-.63-.07-.94-.04-.31-.03-.6-.04-.91,0-.96.02-1.91-.05-2.88ZM135.37,5.22c.12.97.24,1.92.27,2.9.02.09.02.19.13.22.15.04.28.06.43.01.42-.18.79-.44.98-.87.21-.46.37-.96.3-1.52-.07-.6-.34-1.08-.74-1.53-.03-.04-.08-.06-.12-.09l-.61-.26c-.14-.06-.29-.06-.42-.07-.15-.02-.23.05-.24.2,0,.21-.01.49,0,.63,0,.15.02.24.03.36Z"/><path class="cls-1" d="M140.57,4.87c-.03-.83,0-1.67.03-2.51.01-.5.16-.65.64-.76.3-.06.59-.1.89-.1.19,0,.36.01.55.04.11.01.21.01.32.01.24-.01.46.05.69.14.31.12.65.2.96.34.51.27.99.56,1.25,1.1.16.34.37.67.53,1.01.49.98.51,2,.34,3.04-.09.57-.68,1.69-.98,2.15-.09.13-.19.26-.29.37-.56.47-1.17.86-1.93.9-.04,0-.08,0-.11.01-.24.18-.51.12-.77.13-.35-.01-.71-.04-1.07-.06-.47-.02-1-.47-1-1.07,0-.32-.03-.63-.05-.94-.03-.31-.02-.61-.02-.92.02-.96.07-1.91.02-2.88ZM142.65,5.05c.1.97.19,1.93.19,2.91.01.09.01.19.12.23.15.04.28.07.43.02.43-.16.81-.42,1.01-.84.23-.46.4-.95.34-1.51-.06-.61-.32-1.09-.7-1.54-.03-.04-.08-.07-.12-.09l-.61-.28c-.13-.07-.28-.07-.42-.08-.15-.03-.23.04-.24.19,0,.22-.02.49-.02.63,0,.15.01.24.02.36Z"/><path class="cls-1" d="M152.19,3.03c-.42.75-.67,1.57-1,2.35-.31.76-.61,1.54-.98,2.27-.2.42-.42.82-.61,1.23-.26.52-.53,1.06-.69,1.63-.1.33-.25.49-.55.54-.11.03-.23.02-.35,0-.16-.03-.36,0-.55,0-.11,0-.21,0-.32-.03-.23-.06-.36-.32-.3-.54.01-.04.03-.09.06-.13.26-.4.39-.86.59-1.3.25-.6.57-1.18.77-1.81.16-.5.35-.98.63-1.42.54-.89.88-1.9,1.27-2.86.04-.09.08-.2.13-.29.1-.21.25-.35.52-.35.24,0,.49-.03.74.08.07.03.17.02.27.02.36,0,.56.29.38.61Z"/><path class="cls-1" d="M161.32,6.84c0-.12.01-.24,0-.35,0-.05-.02-.11-.09-.11-.05-.02-.1.02-.12.06-.15.24-.28.48-.43.72-.06.09-.11.21-.18.3-.44.44-.74.96-1.12,1.44-.23.28-.52.38-.86.37-.24-.01-.5-.07-.74-.04-.14.02-.23-.05-.3-.16-.52-.8-1.04-1.61-1.53-2.43-.03-.04-.13-.18-.18-.19-.03.01-.04.04-.04.05,0,.16-.03.32-.04.48-.04.69-.06,1.39.04,2.08.05.38.04.77-.05,1.14-.09.41-.3.58-.72.58-.34,0-.68.06-1.01.04-.38-.02-.92-.13-.93-.6,0-.13,0-.27.04-.4.09-.41.07-.83.07-1.25-.01-.24.03-.47.01-.71-.01-.5-.03-1-.05-1.5-.01-.26.01-.53.04-.78.12-.94.23-1.86.35-2.79,0-.09,0-.19.04-.27.09-.33.24-.46.59-.47.28-.01.57.03.86,0,.14,0,.3.03.41.1.33.22.67.41.95.71.22.21.38.46.5.74.1.23.25.45.41.63.05.04.1.09.13.14.25.58.76.97,1.07,1.51.05.08.1.06.13,0,.07-.12.13-.24.19-.35.23-.54.48-1.07.86-1.53.32-.42.57-.89.81-1.35.26-.55.83-.63,1.38-.6.57.03,1.05.08,1.58.33.18.09.27.26.29.45.03.43.1.87.08,1.3-.04.85-.02,1.69.03,2.53.04.85.08,1.71.07,2.57,0,.36.03.73-.07,1.09,0,.03,0,.05-.02.08-.19.58-.15.5-.67.49-.38-.02-.74-.04-1.1.06-.08.02-.18.03-.26.03-.4-.02-.66-.22-.64-.66,0-.4.04-.79.06-1.05.06-.9.12-1.67.17-2.42Z"/><path class="cls-1" d="M173.29,7.97c.01-.12.03-.24.01-.35,0-.05-.01-.11-.08-.12-.05-.02-.1.02-.13.05-.16.23-.31.47-.47.69-.06.09-.12.2-.19.29-.47.41-.79.92-1.19,1.37-.25.27-.54.35-.88.32-.24-.03-.49-.09-.74-.08-.14.01-.22-.07-.29-.18-.48-.83-.94-1.66-1.39-2.51-.02-.04-.12-.19-.17-.2-.03.01-.04.04-.05.05-.02.16-.05.32-.07.48-.07.68-.14,1.38-.08,2.08.03.38,0,.77-.11,1.14-.11.41-.33.56-.75.54-.34-.02-.68.02-1.02-.02-.38-.04-.92-.18-.89-.65.01-.13.02-.27.06-.4.11-.41.12-.83.14-1.25,0-.24.05-.47.05-.71.01-.5.03-1,.03-1.5,0-.26.04-.52.08-.78.17-.93.34-1.85.5-2.76.01-.09.02-.19.06-.27.1-.33.27-.45.62-.43.29,0,.56.06.86.04.14,0,.29.04.41.13.31.24.64.45.91.76.21.23.35.49.46.77.08.24.22.46.38.65.05.05.1.09.12.15.22.59.7,1.01.98,1.57.04.09.1.06.14,0,.08-.11.15-.23.21-.34.26-.53.53-1.04.95-1.48.34-.4.62-.85.89-1.3.29-.54.86-.58,1.41-.52.56.06,1.04.14,1.55.41.18.1.25.27.26.46,0,.43.05.87,0,1.3-.09.84-.12,1.68-.11,2.52-.01.85,0,1.71-.08,2.57-.03.36-.01.73-.13,1.08,0,.03,0,.05-.02.08-.22.57-.18.5-.7.45-.38-.04-.74-.08-1.1,0-.08.02-.18.02-.26.01-.4-.04-.65-.26-.6-.69.03-.4.09-.79.11-1.04.11-.9.21-1.66.3-2.41Z"/></g></svg>