<?xml version="1.0" encoding="UTF-8"?><svg id="Layer_2" xmlns="http://www.w3.org/2000/svg" viewBox="0 0 185.68 50.22"><defs><style>.cls-1{fill:#fff;}</style></defs><g id="Layer_1-2"><path class="cls-1" d="M3.62,35.56c-.38-.8-.53-1.7-1.03-2.49-.51-.82-1.01-1.06-2.01-.68-.74.31-1.47.66-2.24,1.01-.36.19-.74.24-1.13.26-.94.14-1.5-.21-1.96-.94-.65-1.06-1.19-2.17-1.64-3.31-.14-.3-.22-.65-.13-.99.11-.3.24-.55.6-.67.17-.07.33-.18.5-.25,1.49-.52,2.88-1.26,4.26-2.01.75-.42,1.55-.74,2.35-1.07,1.35-.54,2.77-1.03,4.14-1.56,1.5-.58,3.03-1.09,4.61-1.5,1.1-.26,1.78-.08,2.33.81.32.5.52,1.02.66,1.58.14.57.33,1.15.43,1.73.18.76-.04,1.33-.8,1.71-1.07.58-2.12,1.12-3.21,1.68-.82.42-.94.62-.59,1.36.58,1.42,1.14,2.82,1.65,4.27.25.71.67,1.39,1.02,2.06.67,1.39,1.37,2.77,2.02,4.12.4.83.66,1.68.68,2.59-.01,1.03-.57,1.79-1.56,2.14-.21.04-.43.06-.56.19-.17.14-.35.25-.55.33-.65.26-1.34.13-2,0-.75-.17-1.29-.73-1.58-1.42-.71-1.7-1.68-3.29-2.23-4.77-.73-1.54-1.4-2.85-2.05-4.18Z"/><path class="cls-1" d="M18.54,33.12c-.34-.82-.68-1.6-.88-2.44-.23-.82-.52-1.59-.85-2.38-.69-1.53-1.1-3.12-1.41-4.75-.04-.2-.08-.4-.15-.6-.54-1.51,0-3.56,1.57-4.5.47-.24.95-.47,1.48-.65.21-.07.43-.14.65-.19,1.42-.37,2.81-.84,4.24-1.09,3.19-.54,6.51-.84,8.48,1.99.61.92.91,1.98,1.03,3.08.21,1.62.37,4.03-.48,5.53-.29.52-.28.55.19.94.91.71,1.71,1.55,2.5,2.38.86.81,1.65,1.68,2.56,2.47.35.29.56.73.85,1.1.21.33.21.68.17,1.05,0,.49-.46.42-.73.61-.45.31-.97.54-1.48.7-.87.26-1.8.38-2.69.58-.38.08-.63-.01-.94-.28-1.66-1.48-3.33-2.99-4.83-4.61-.48-.41-1.32-.54-2-.31-.24.08-.43.17-.6.34-.21.18-.06.38.04.56.36.82.72,1.63,1.15,2.42.37.74.62,1.48.89,2.26.2.91.23,1.87-.8,2.32-.96.44-1.99.79-3,1.07-.98.27-1.62-.04-2.09-.93-.36-.67-.39-1.49-.78-2.04-.61-1.67-1.45-3.1-2.1-4.65ZM22.7,26c.28.56.68.71,1.31.53,1.07-.36,2.68-1.52,2.83-3.01.1-.86-.4-1.52-1.36-1.57-.66,0-1.33.11-1.96.32-.35.11-.69.27-1.03.41-.5.24-.71.63-.6,1.17.08.33.28.67.4,1.02.11.32.23.75.4,1.12Z"/><path class="cls-1" d="M43.62,17.02c.06.19.11.4.2.58.21.62.42,1.19.45,1.86.02.21.05.45.19.66.64,1.32.66,2.76.98,4.15.13.74.32,1.43.49,2.17.47,1.96.94,3.95,1.41,5.91.32,1.43-.42,2.23-1.77,2.59-.44.12-.94.15-1.4.21-.38.07-.74.1-1.12.17-.84.13-1.49-.22-1.82-.97-.03-.1-.06-.2-.09-.29-.74-2.28-1.47-4.58-2.2-6.86-.33-.97-.71-1.97-1.07-2.92-.52-1.34-.91-2.72-1.23-4.12-.16-.66-.31-1.37-.51-2.02-.14-.56-.26-1.09-.36-1.67-.12-.64-.36-1.28-.52-1.91-.36-1.17-.56-2.3,1.02-2.92.56-.23,1.14-.39,1.73-.55.58-.16,1.17-.32,1.77-.41,1.58-.25,2.33.44,2.61,1.53.2.69.41,1.41.61,2.1.23.93.48,1.82.63,2.73Z"/><path class="cls-1" d="M56.87,31.42c-.56.24-1.13.44-1.74.59-1.95.47-3.51.05-4.1-2.05-.2-.62-.32-1.22-.52-1.84-.68-2.3-1.5-4.55-2.1-6.9-.58-2.29-1.16-4.57-1.5-6.91-.1-.79-.43-1.55-.56-2.32-.06-.37-.16-.73-.11-1.1.07-.9.3-1.2,1.19-1.49.28-.1.58-.18.84-.24.51-.12,1.03-.25,1.47-.5.89-.49,1.84-.75,2.81-.9.78-.15,1.52-.31,2.22-.64.49-.21,1-.36,1.56-.48.67-.15,1.39-.23,2.13-.25.15-.03.31,0,.46-.03.7-.18,1.4-.18,2.07.03.42.13,1.01-.17,1.28.16.34.49.59,1.07.61,1.65.03.66.17,1.25.31,1.89.11.47.2.9.31,1.37.09.58-.04.7-.66.83-2.59.53-5.15,1.18-7.78,1.7-.22.05-.47.11-.72.2-.79.21-1.07.63-.92,1.33.13.67.34,1.32.49,1.95.07.27.26.43.55.36.58-.1,1.19-.09,1.77-.33.55-.22,1.12-.39,1.69-.52.83-.18,1.67-.3,2.51-.44.22-.01.49,0,.57.19.25.44.67.77.78,1.27.17.77.38,1.53.51,2.26.16.7-.1,1.06-.83,1.26-.38.12-.77.23-1.14.24-.45,0-.92.06-1.34.15-.46.1-.91.24-1.35.44-.3.14-.58.2-.91.24-.29.03-.57.1-.81.19-.44.17-.54.37-.48.78.01.2.06.4.14.56.25,1.02.24.99,1.3.78,1.66-.31,3.18-.92,4.74-1.39.82-.28,1.64-.45,2.49-.59.93-.12,1.38.07,1.78.9.62,1.2.86,2.51.89,3.86,0,.73-.44,1.17-1.23,1.4-1.26.39-2.53.7-3.76.86-1.73.38-3.37.81-4.91,1.49ZM58.38,3.12c.51.31.68.7.7,1.14.07.3-.17.63-.51.66-.9.19-1.62.59-2.47.81-.25.09-.52.11-.75.13-.28-.04-.49-.1-.57-.22-.29-.39-.81-.56-1.25-.77-.15-.08-.3-.16-.46-.25-.22-.09-.37-.06-.45.1-.2.61-.83,1.07-1.08,1.61-.07.19-.34.36-.63.43-.39.09-.79.19-1.18.28-.37.09-.74.17-1.12.23-.56.1-.9,0-1.02-.42-.1-.37.02-.78.2-1.17.59-1.34,1.36-2.58,2.26-3.84.22-.37.52-.75.67-1.1.13-.27.36-.47.59-.63.6-.31,1.17-.26,1.66-.06.49.21.95.45,1.37.71.83.45,1.72.85,2.53,1.27.4.19.76.36.92.71.12.18.31.32.52.38.01,0,.03,0,.04,0ZM63.56,34.19c.14.63.19,1.18.02,1.7-.38,1.17-.91,1.66-1.82,1.87-1.11.25-2.17.1-3.18-.54-.41-.25-.75-.63-.83-1.1-.39-1.66-.42-2.64.98-3.9.27-.24.61-.31.99-.4,1.29-.22,2.85.28,3.49,1.44.21.3.28.64.35.94Z"/><path class="cls-1" d="M87.29,13.39c.19,1.04.12,2.08.13,3.12,0,1.31-.49,4.16-1.19,5.32-.9,2.02-1.73,3.23-3.81,4.4-1.23.67-2.54,1.19-4,1.31-.25,0-.65,0-.9-.03-.7-.09-1.4-.18-2.14-.26-.99-.1-1.79-.52-2.59-1.1-1.06-.78-1.67-1.85-2.4-2.79-.31-.43-.58-.9-.92-1.29-.44-.54-.67-1.12-.91-1.74-.4-1.04-.72-2.05-.9-3.1-.6-1.42-.72-2.89-1.07-4.35-.34-1.43-.66-2.9-.98-4.37-.14-.81-.05-1.66,0-2.47,0-.21.17-.48.32-.65.49-.41.95-.84,1.62-.96,1.19-.25,2.35-.46,3.56-.63.6-.1.87.06.93.6.12.6.45,1.1.56,1.67.11.57.34,1.15.52,1.71.23.79.47,1.65.45,2.52-.03.25-.02.49.03.76.23,1.38.49,2.79.75,4.17.23,1.21.63,2.35,1.13,3.48.34.85,1.23,1.25,2.08,1.53.32.12.65.13.94.09.32-.05.63-.2.87-.48.57-.57,1.06-1.16,1.14-1.97.09-.56.28-.77.26-1.35-.03-.38-.02-1,0-1.1.21-.72.03-1.14-.09-1.85-.23-1.38-.47-2.76-.7-4.11-.39-2.26-.58-3.57-.52-5.86.02-.55.64-1.2,1.32-1.3.94-.17,1.85-.3,2.76-.39.68-.09,1.26.14,1.54.69.39.74.77,1.45.89,2.23.21,1.56.48,3.11.72,4.66.2,1.28.36,2.61.58,3.88Z"/><path class="cls-1" d="M103.2,14.59c-.44.07-.92.08-1.32.11-.7.06-.9-.44-.96-.98-.13-.88-.16-1.8-.15-2.73-.04-.68.84-.86,1.44-.91.06,0,.12,0,.19-.02.15-.01.3,0,.45,0-.04-.38-.12-.74-.16-1.12-.3-2.1-.45-4.21-.57-6.33-.1-1.26.28-1.67,1.63-2.05.83-.2,1.66-.36,2.5-.42.54-.04,1.04-.04,1.58,0,.31.01.62,0,.92-.02.69-.08,1.32.06,1.99.26.91.25,1.88.41,2.79.74,1.51.61,2.9,1.31,3.71,2.64.51.84,1.14,1.66,1.64,2.5,1.51,2.44,1.67,5.03,1.32,7.68-.19,1.44-1.66,4.32-2.43,5.52-.24.35-.47.67-.75.95-1.46,1.26-3.02,2.28-5.06,2.5-.11.01-.21,0-.29.05-.61.48-1.34.39-2.02.43-.93.02-1.91.02-2.84.02-1.26.02-2.76-.98-2.9-2.51-.08-.81-.23-1.59-.34-2.37-.15-.78-.19-1.52-.26-2.31-.05-.54-.07-1.09-.13-1.64ZM108.49,9c.01.17.03.31.08.44.64-.05,1.35.02,2.04.08.72.06.84.23,1,.83.15.54.16,1.09.27,1.59.03.38.06.75.08,1.12,0,.51-.14.66-.65.69-.59.04-1.17.21-1.72.24-.09,0-.17.01-.26.02.1.78.2,1.52.26,2.31.06.24.08.47.38.56.41.08.78.12,1.17,0,1.14-.48,2.12-1.18,2.6-2.26.54-1.19.95-2.44.7-3.86-.26-1.52-1.06-2.72-2.2-3.82-.08-.09-.24-.16-.36-.22-.58-.21-1.17-.41-1.76-.62-.39-.15-.81-.12-1.19-.13-.42-.04-.63.14-.64.52.05.55.04,1.23.07,1.6.03.37.09.61.12.92Z"/><path class="cls-1" d="M143.03,10.97c0,.41-.01.82-.02,1.23.01,1.81-.83,3.32-1.77,4.79-1.02,1.57-2.39,2.8-3.82,3.96-.66.53-1.53.69-2.3.98-.98.37-1.92.49-2.94.49-.98,0-2.03-.14-3.05-.31-.84-.13-1.57-.5-2.17-1.18-.67-.74-1.35-1.45-1.75-2.37-.12-.24-.31-.48-.46-.68-.85-1.08-1.34-2.29-1.91-3.48-.9-1.96-.78-3.91-.53-5.93.32-2.77,1.49-5.1,4-6.77.97-.63,4.51-2.16,5.75-2.14.74,0,1.43.04,2.17.08.43,0,.82.11,1.17.32.7.31,1.48.54,2.22.79,2.48.8,3.92,2.22,4.78,4.37.56,1.59.93,3.18.68,4.84-.04.34,0,.68-.01.99-.01,0-.03,0-.04,0ZM138.54-3.41c.43.42.52.83.44,1.27,0,.31-.31.57-.66.53-.93-.02-1.75.2-2.64.23-.27.03-.54,0-.78-.05-.28-.11-.47-.21-.51-.35-.2-.44-.68-.73-1.08-1.04-.13-.11-.27-.23-.4-.34-.2-.14-.36-.14-.47,0-.34.54-1.07.85-1.44,1.33-.11.17-.42.27-.73.27-.41,0-.83,0-1.24,0-.39,0-.78,0-1.17-.03-.58-.03-.9-.2-.92-.64-.02-.37.2-.75.46-1.1.89-1.17,1.94-2.2,3.13-3.23.3-.31.69-.62.91-.92.19-.24.46-.37.73-.48.67-.17,1.23,0,1.67.32.44.31.85.66,1.21,1,.72.62,1.52,1.22,2.24,1.81.36.28.68.53.76.9.08.21.24.38.44.49.01,0,.03,0,.04,0ZM136.81,9.91c.18-.78-.27-1.47-.7-2.06-.46-.66-2.14-1.36-3.02-1.37-.72,0-1.44.26-2.03.64-1.31.79-2.14,1.85-2.44,3.28-.06.48-.12.92-.15,1.4-.07,1.43.74,2.59,2.2,3.13.67.24,1.41.38,2.12.38.52,0,1-.09,1.4-.43,1.54-1.21,2.66-2.66,2.62-4.67,0-.1-.04-.21,0-.31ZM135.62-9.72c-.08-.17-.09-.28-.13-.48-.29-.62.22-.85.86-.84.76-.02,2.04,0,2.92.13.16.04.28,0,.4,0,.6-.02.84.06,1.2.44.32.32.65.67.81,1.02.2.38.32.69.41,1,.32.76.68,1.5,1,2.25.12.32.2.69.2,1-.08.27-.36.3-.79.31-.63.05-1.85-.02-2.64-.08-.87-.16-1.42-.34-1.82-.97-.32-.52-.61-1.07-1.05-1.59-.41-.62-.74-1.24-1.19-1.93-.04-.07-.12-.2-.17-.34,0,.02,0,.05,0,.07Z"/><path class="cls-1" d="M152.57,20.93c-.02.44-.08.92-.14,1.39-.05.3-.21.47-.57.41-.99-.06-1.94-.02-2.89-.21-.76-.11-1.53-.29-2.33-.33-.59-.03-.83-.31-.82-.86,0-1.47.08-2.93.04-4.41-.05-1.06-.06-2.12-.04-3.18,0-2.08-.07-4.17.16-6.21.13-1.08,0-2.19.01-3.28-.03-.93.18-1.77.5-2.64.12-.34.28-.67.56-.93.47-.52,1.1-.77,1.92-.66,1.32.14,2.6.42,3.92.74.46.1.81.33,1.11.66,1.13,1.2,2.25,2.35,3.31,3.56,1.03,1.14,2.21,2.2,3.26,3.32.22.19.36.44.5.69.46.69.95,1.38,1.6,1.96.4.35.63.85.94,1.29.07.08.18.16.3.13.04-.03.08-.1.08-.13-.05-.86.35-1.65.52-2.45.35-1.75.32-3.58.56-5.37.06-.37.13-.71.23-1.08.44-1.3,1.66-1.89,3.16-1.49.58.16,1.15.36,1.72.6.49.23.86.62.89,1.13.06.24.08.46.1.7-.08,1.5.02,3.03-.03,4.5-.03,1.65-.21,3.28-.32,4.91-.02.27-.05.55-.11.78-.17.56-.22,1.11-.23,1.69.01.69-.05,1.37-.16,2.08-.14.71-.14,1.46-.13,2.19,0,1.07-.05,2.09-.23,3.1-.09.54-.25.66-.82.73-.08.02-.15.01-.22,0-1.17-.14-2.33-.09-3.52-.01-.44.02-.91-.13-1.38-.25-.58-.16-.96-.44-1.33-.96-1.25-2.01-2.6-4.01-4.05-5.95-.83-1.13-1.86-2.21-2.83-3.27-.39-.44-.86-.85-1.22-1.32-.11-.17-.29-.33-.43-.47-.29-.26-.62-.45-1.01-.31-.38.14-.32.49-.3.77.01,1.54-.02,3.08-.11,4.37-.07,1.5-.13,2.79-.19,4.06Z"/><path class="cls-1" d="M175.37,9.03c.52-.93,1.19-1.77,1.94-2.6,2.33-2.56,8.4-3.09,11.9-2.49.39.07.78.13,1.17.27.61.2,1.28.32,1.9.5,1.2.32,1.94,1.04,2.24,2,.4,1.36.32,2.66-.74,3.68-.7.7-1.6.89-2.74.62-.88-.22-1.79-.45-2.71-.61-.92-.15-1.9-.24-2.89-.13-.12.05-.28.02-.39,0-2.58-.41-4.46,2.36-4.79,4.25-.14.85-.24,1.72-.19,2.6.05.84.47,1.48,1.09,2.06.28.25,1.8,1.77,2.12,1.85.59.16,1.14.32,1.73.42.86.14,1.73.15,2.58-.16.81-.31,1.28-1.17,1.09-1.96-.04-.25-.26-.33-.49-.36-1.05-.21-2.13-.43-3.18-.64-1.5-.28-1.53-.31-1.66-1.72-.09-1.12.16-2.19.15-3.3,0-.69.34-.88,1.08-.87.81.06,1.66.09,2.47.23.65.11,1.33.29,1.96.57.11.05.22.11.33.13,1.28.08,2.44.7,3.69,1.01,1.54.42,1.85.73,1.97,2.18.2,1.95,0,3.82-.72,5.63-.31.7-.57,1.39-.99,2.07-1.07,1.64-2.59,2.78-4.58,3.46-1.01.41-1.98.38-2.97.21-1.36-.23-2.69-.58-3.87-1.25-.35-.19-.78-.33-1.22-.4-1.97-.37-3.28-1.52-4.43-2.96-.13-.19-.26-.38-.39-.5-.71-.69-1.11-1.52-1.39-2.43-.28-.86-.57-1.76-.82-2.65-.28-.96-.3-1.96-.19-2.98.16-2.04.96-3.94,1.96-5.74Z"/></g></svg>