<?xml version="1.0" encoding="UTF-8"?><svg id="Layer_1" xmlns="http://www.w3.org/2000/svg" xmlns:xlink="http://www.w3.org/1999/xlink" viewBox="0 0 32.15 42.29"><defs><style>.cls-1{fill:#222f6e;}.cls-1,.cls-2,.cls-3{stroke-width:0px;}.cls-2{fill:none;}.cls-3{fill:#fff;}.cls-4{clip-path:url(#clippath);}</style><clipPath id="clippath"><rect class="cls-2" x=".03" width="32" height="42"/></clipPath></defs><g class="cls-4"><g id="Frame"><g id="Group"><path id="Vector" class="cls-1" d="M31.23,17.93c-.32-.97-.32-1.78,0-2.75.32-.65.48-1.45.8-2.1.32-1.13,0-2.1-.96-2.91-.64-.48-1.28-.97-1.92-1.29-.8-.48-1.44-1.29-1.76-2.26-.16-.65-.48-1.45-.64-2.1-.48-1.13-1.12-1.62-2.4-1.78h-2.24c-1.12,0-2.08-.32-2.88-.97-.8-.65-1.6-1.45-2.72-1.78h-.96c-.96.32-1.6.81-2.4,1.45,0,.16-.32.32-.48.48-.8.65-1.6.81-2.56.81h-2.4c-.96,0-1.76.48-2.08,1.29-.48.81-.8,1.62-.96,2.42-.32,1.13-.96,1.78-1.76,2.42-.64.32-1.28.81-1.76,1.29C.35,10.82-.13,11.63.03,12.6c.16.81.48,1.62.8,2.58.32.97.32,1.78,0,2.75-.32.65-.48,1.45-.64,2.1-.32,1.29-.16,2.1.96,2.91.64.48,1.12.81,1.76,1.29.8.48,1.44,1.29,1.6,2.26.16.81.48,1.45.64,2.26.16.32.16.48,0,.81-1.12,2.58-2.08,5.33-3.2,8.08-.32.81,0,1.45.96,1.29,1.28-.16,2.72-.32,4-.48.48,0,.64,0,.96.32.8.97,1.76,2.1,2.56,3.07.64.65,1.28.65,1.6-.32,1.12-2.75,2.08-5.33,3.2-8.08.16-.16.16-.32.48-.32s.48.16.48.32c1.12,2.75,2.08,5.33,3.2,8.08.32.81,1.12.97,1.6.32.8-.97,1.76-1.94,2.56-3.07.32-.32.64-.48.96-.32,1.28.16,2.72.32,4,.48.96.16,1.28-.48.96-1.29-1.12-2.75-2.08-5.33-3.2-8.08,0-.16-.16-.32-.16-.48.32-.81.48-1.62.8-2.26.32-1.13.96-1.78,1.76-2.42.64-.48,1.44-.81,2.08-1.45.64-.65.96-1.29.8-2.26.32-1.13-.16-1.94-.32-2.75ZM13.95,32.63c-.8,2.1-1.6,4.2-2.56,6.3-.16.16-.16.48-.32.65-.8-.81-1.6-1.78-2.24-2.58-.48-.48-.8-.65-1.44-.48-.96.16-2.08.32-3.04.32h-.32c.16-.32.16-.65.32-.81.8-1.78,1.44-3.72,2.24-5.49q.16-.32.48-.32c.64.16,1.44,0,2.08,0,.8,0,1.6,0,2.4.32.8.32,1.6,1.13,2.24,1.62.48.16.32.32.16.48ZM27.87,36.83c-.96-.16-1.76-.16-2.72-.32-.32,0-.64,0-1.12-.16-.32,0-.64.16-.96.32-.64.81-1.44,1.62-2.08,2.42q-.16.16-.32.32c-.96-2.26-1.76-4.52-2.72-6.78-.16-.48-.16-.65.32-.81.48-.32.8-.65,1.12-.81.64-.48,1.44-.81,2.24-.81,1.12,0,2.24.16,3.2,0q.16,0,.16.16c1.12,2.1,2.08,4.36,2.88,6.46ZM29.95,21.48c-.48.32-.96.65-1.44.97-1.44.97-2.4,2.1-2.88,3.88-.16.65-.32,1.13-.48,1.62-.16.32-.32.48-.8.65h-1.76c-1.76-.16-3.36.32-4.8,1.62-.48.32-.8.65-1.28.97-.32.16-.64.16-.96,0-.48-.32-.96-.65-1.44-1.13-1.28-1.13-2.72-1.62-4.32-1.45-.64,0-1.28.16-1.92,0-.32,0-.64-.16-.8-.65-.48-.48-.64-1.13-.8-1.78-.48-1.45-1.28-2.75-2.72-3.55-.48-.32-1.12-.65-1.6-1.13-.16-.16-.32-.48-.16-.97.16-.48.32-1.13.64-1.62.64-1.62.64-3.23,0-4.85-.32-.48-.48-1.13-.64-1.62-.16-.48,0-.65.32-.97.48-.48.96-.81,1.6-1.13,1.28-.81,2.24-2.1,2.72-3.72,0-.48.16-.97.32-1.45.32-.65.48-.81,1.28-.81h1.44c1.12,0,2.08,0,3.04-.48.64-.32,1.12-.65,1.6-1.13,2.08-1.62,1.76-1.62,3.84,0,.48.32.96.81,1.6.97.96.48,1.92.48,2.88.48h1.76c.64,0,.96.16,1.12.81.16.65.32,1.13.48,1.78.48,1.45,1.28,2.75,2.72,3.55.32.32.8.65,1.28.97.64.48.64.65.48,1.45-.16.48-.32.97-.48,1.45-.64,1.45-.64,3.07,0,4.52.16.65.48,1.13.64,1.78,0,.48-.16.65-.48.97Z"/><path id="Vector_2" class="cls-3" d="M30.43,19.06q.16-.16.32-.16c-.16.16-.16.32-.32.16Z"/><path id="Vector_3" class="cls-1" d="M16.19,5.65c-5.92-.16-11.04,4.52-11.2,10.82,0,5.98,4.8,10.82,10.88,10.82,5.92.16,11.04-4.52,11.04-10.82.16-5.82-4.64-10.66-10.72-10.82ZM16.03,25.68c-5.12,0-9.28-4.04-9.28-9.21s4.16-9.21,9.28-9.21,9.28,4.2,9.28,9.21-4.16,9.21-9.28,9.21Z"/><path id="Vector_4" class="cls-3" d="M22.43,14.86c-.16-.32-.48-.48-.8-.65-.96-.16-1.92-.32-2.88-.32-.32,0-.48-.16-.48-.32-.48-.81-.8-1.62-1.28-2.42-.16-.32-.48-.65-.96-.65s-.64.32-.8.65c-.48.81-.8,1.62-1.28,2.58h-.48c-.96.16-1.92.32-2.88.48-.48,0-.8.16-.96.65,0,.32.16.65.48.97.64.65,1.44,1.29,2.08,1.94.16.16.16.32.16.48-.16.97-.32,2.1-.48,3.07,0,.81.64,1.13,1.28.81.8-.48,1.76-.81,2.56-1.29.32-.16.48-.16.8,0,.8.48,1.6.81,2.4,1.29.32.16.64.32,1.12,0,.32-.32.32-.65.32-1.13-.16-.97-.32-1.94-.48-2.75,0-.16,0-.32.16-.48.64-.65,1.44-1.29,2.08-2.1.32-.16.32-.48.32-.81ZM18.43,16.96c-.32.32-.48.65-.32,1.13.16.65.16,1.13.32,1.94-.64-.32-1.12-.48-1.6-.81-.48-.32-.8-.32-1.28,0-.48.32-.8.48-1.28.65-.16,0-.16.16-.32.16.16-.65.32-1.45.32-2.1,0-.32-.16-.48-.32-.81-.64-.48-1.12-.97-1.44-1.45.64-.16,1.28-.16,1.92-.32.32,0,.64-.16.8-.65.16-.48.48-1.13.8-1.78.32.48.48.97.8,1.45.16.65.64.97,1.28.97.48,0,1.12.16,1.6.16-.48.65-.8.97-1.28,1.45Z"/></g></g></g></svg>