<?xml version="1.0" encoding="UTF-8"?><svg id="Layer_1" xmlns="http://www.w3.org/2000/svg" viewBox="0 0 43.04 43"><defs><style>.cls-1{fill:#222f6e;stroke-width:0px;}</style></defs><g id="Group"><path id="Vector" class="cls-1" d="M41.01,38.53c-.27,0-.27-.14-.27-.27v-5.14q0-.27.27-.27c.68-.14,1.22-.41,1.62-1.08.81-1.49-.27-3.25-1.89-3.25h-13.26c.27-.14.41-.27.54-.27,4.47-2.57,7.04-7.58,6.36-12.72,0-.41,0-.54.41-.81,2.57-1.35,5.14-2.71,7.71-4.06.27-.14.54-.41.54-.68,0-.41-.27-.54-.54-.68-1.76-.81-3.52-1.62-5.28-2.44C32.21,4.57,27.21,2.4,22.2.1c-.41-.14-.68-.14-1.08,0C14.35,3.21,7.45,6.19.68,9.3c-.27.14-.54.27-.54.68s.27.54.54.68c.68.41,1.35.68,2.03,1.08.27.14.41.27.41.54v2.44c0,.27,0,.41-.41.54-1.22.54-1.76,1.35-1.76,2.57v2.03c0,.54.27.81.81.81h4.06c.54,0,.81-.27.81-.81v-1.89c0-1.35-.68-2.3-1.89-2.84-.14,0-.27,0-.27-.27v-2.3c1.49.81,2.84,1.49,4.33,2.3.14.14.14.27.14.41,0,.41-.14.95-.14,1.35,0,5.14,2.17,9.07,6.5,11.64.14,0,.27.14.27.27H7.45c-.41,0-.81,0-1.22.14C2.58,29.2-.13,32.44,0,36.23c.27,3.65,3.38,6.63,7.04,6.77h33.7c1.22,0,2.17-.81,2.17-2.03.14-1.35-.68-2.3-1.89-2.44ZM28.15,26.22c-3.92,2.71-7.98,2.98-12.18.81-.27-.14-.27-.27-.27-.54v-5.41c0-.27,0-.41.27-.54.41-.41.81-.81,1.22-1.22.68-.68,1.35-1.35,2.3-1.62.14-.14.27-.14.41-.41.14-.27.14-.41,0-.68-.27-.81-.41-1.76-.68-2.57-.14-.41-.27-.54-.68-.68-.81-.14-1.62-.41-2.44-.68-.41-.14-.68-.14-1.08,0-.54.14-1.22.27-1.76.41-.95.27-1.76-.14-2.57-.14-.14,0-.14-.14-.14-.27.54-1.62,1.49-2.98,2.71-4.2q.14-.14.27,0c.14.14.27.14.27.27,1.22,1.08,2.57,1.76,4.06,2.57.95.54,2.03.54,3.11.81.68.14,1.35.27,2.03.41.41.14.68,0,.95-.41l.14-.14c.54-1.22,1.49-2.03,2.84-2.3.54-.14.81-.68,1.22-.95.54-.41.54-.54.95,0,.41.41.68.81,1.08,1.08.14.14.14.27,0,.41-1.49,1.22-2.98,2.44-4.33,3.79-.14.14-.27.14-.41.27-.41.14-.81.41-1.22.54-1.49.54-2.84,1.35-4.06,2.17l-.41.41c-.27,1.35-.41,2.84-.68,4.2-.14.54,0,.81.54,1.08.68.27,1.35.68,2.03.95.27.14.27.27.27.54v1.35c0,.54.27.81.81.81h2.84c.27,0,.41-.14.54-.27.41-.27.95-.54,1.35-.95.27-.27.54-.27.95-.14.27.14.54.14.81.27-.27.41-.68.68-1.08.95ZM14.76,7.68c3.52-2.71,8.93-2.98,12.99-.27-.54.81-1.35,1.22-2.3,1.49-.68.14-1.22.54-1.49,1.08,0,.14-.14.27-.27.41q-.54.81-1.49.68c-.68-.14-1.35-.27-2.03-.27-.54-.14-1.08-.27-1.49-.54-1.35-.68-2.71-1.49-3.92-2.57ZM30.59,23.78c-.14.27-.27.27-.54.27-.68-.14-1.22-.27-1.89-.41-.27-.14-.68,0-.95.14-.27.14-.41.27-.68.41-.81.81-1.76.81-2.84.81-.27,0-.27-.14-.27-.27v-1.08c0-.41-.14-.68-.54-.81-.68-.27-1.35-.68-2.03-.95q-.27-.14-.27-.41c.14-.95.41-1.89.54-2.84,0-.27.14-.41.27-.54,1.35-1.08,3.11-1.62,4.74-2.3.41-.14.68-.27.95-.54,1.22-1.22,2.44-2.44,3.92-3.52q.27-.14.41.14c.81,1.49,1.35,3.52,1.35,5.82.14,1.76-.68,4.06-2.17,6.09ZM4.88,17.56c0,.54.14,1.22,0,1.49-.27.27-.95,0-1.35.14h-.27c-.41-.14-1.08.41-1.08-.27-.14-1.76.27-2.44,1.22-2.57.68-.14,1.49.41,1.49,1.22ZM8.67,13.23c-2.03-1.08-3.92-2.17-5.95-3.11-.14,0-.27-.14-.41-.27,2.17-.95,4.33-1.89,6.36-2.84,4.2-1.89,8.25-3.65,12.45-5.55.27-.14.41-.14.68,0,6.23,2.84,12.45,5.55,18.54,8.39q.14,0,.27.14c-2.3,1.22-4.47,2.44-6.77,3.52-.14-.14-.14-.27-.14-.54-1.89-5.55-7.04-9.07-12.86-8.8-5.28.27-10.01,3.92-11.64,8.93-.14.27-.27.27-.54.14ZM14.62,19.86c-.27.27-.41.54-.41.81v5.14c-3.38-3.11-4.87-6.63-4.06-11.1,0-.27.14-.41.41-.27.68.14,1.35.27,2.03.27h.54c.41-.14.68-.14,1.08-.27,1.22-.54,2.44-.14,3.65.14.14,0,.27.14.27.27.14.54.27.95.41,1.49,0,.14.14.27-.14.27-1.08.41-1.76,1.35-2.57,2.17-.54.41-.95.81-1.22,1.08ZM40.33,41.38H7.04c-3.25,0-5.82-2.57-5.82-5.82s2.57-5.68,5.68-5.68h33.83c.41,0,.68.41.68.68,0,.41-.27.68-.68.68H8.67c-2.17,0-3.79,1.22-4.33,3.25-.68,2.57,1.22,5.28,3.92,5.41h32.07c.68,0,1.08.27,1.08.68.14.54-.27.81-1.08.81ZM39.38,38.13c0,.27,0,.41-.41.41h-3.65c-.14,0-.27-.14-.54,0h-3.79c-.14,0-.27-.14-.54,0H8.53c-1.62,0-2.84-1.35-2.84-2.84,0-1.62,1.22-2.84,2.84-2.84h30.31c.54,0,.54.14.54.54v4.74Z"/></g></svg>