<?xml version="1.0" encoding="UTF-8"?>
<svg xmlns="http://www.w3.org/2000/svg" width="32" height="42" viewBox="0 0 32 42" fill="none">
  <g id="Frame" clip-path="url(#clip0_243_162)">
    <g id="Group">
      <path id="Vector" d="M31.2004 17.9308C30.8804 16.9615 30.8804 16.1538 31.2004 15.1846C31.5204 14.5385 31.6804 13.7308 32.0004 13.0846C32.3204 11.9538 32.0004 10.9846 31.0404 10.1769C30.4004 9.69231 29.7604 9.20769 29.1204 8.88461C28.3204 8.4 27.6804 7.59231 27.3604 6.62308C27.2004 5.97692 26.8804 5.16923 26.7204 4.52308C26.2404 3.39231 25.6004 2.90769 24.3204 2.74615C23.5204 2.74615 22.8804 2.74615 22.0804 2.74615C20.9604 2.74615 20.0004 2.42308 19.2004 1.77692C18.4004 1.13077 17.6004 0.323077 16.4804 0H15.5204C14.5604 0.323077 13.9204 0.807692 13.1204 1.45385C13.1204 1.61538 12.8004 1.77692 12.6404 1.93846C11.8404 2.58462 11.0404 2.74615 10.0804 2.74615C9.28038 2.74615 8.48038 2.74615 7.68038 2.74615C6.72038 2.74615 5.92038 3.23077 5.60038 4.03846C5.12038 4.84615 4.80038 5.65385 4.64038 6.46154C4.32038 7.59231 3.68038 8.23846 2.88038 8.88461C2.24038 9.20769 1.60038 9.69231 1.12038 10.1769C0.320383 10.8231 -0.159617 11.6308 0.000382839 12.6C0.160383 13.4077 0.480383 14.2154 0.800383 15.1846C1.12038 16.1538 1.12038 16.9615 0.800383 17.9308C0.480383 18.5769 0.320383 19.3846 0.160383 20.0308C-0.159617 21.3231 0.000382805 22.1308 1.12038 22.9385C1.76038 23.4231 2.24038 23.7462 2.88038 24.2308C3.68038 24.7154 4.32038 25.5231 4.48038 26.4923C4.64038 27.3 4.96038 27.9462 5.12038 28.7538C5.28038 29.0769 5.28038 29.2385 5.12038 29.5615C4.00038 32.1462 3.04038 34.8923 1.92038 37.6385C1.60038 38.4462 1.92038 39.0923 2.88038 38.9308C4.16038 38.7692 5.60038 38.6077 6.88038 38.4462C7.36038 38.4462 7.52038 38.4462 7.84038 38.7692C8.64038 39.7385 9.60038 40.8692 10.4004 41.8385C11.0404 42.4846 11.6804 42.4846 12.0004 41.5154C13.1204 38.7692 14.0804 36.1846 15.2004 33.4385C15.3604 33.2769 15.3604 33.1154 15.6804 33.1154C16.0004 33.1154 16.1604 33.2769 16.1604 33.4385C17.2804 36.1846 18.2404 38.7692 19.3604 41.5154C19.6804 42.3231 20.4804 42.4846 20.9604 41.8385C21.7604 40.8692 22.7204 39.9 23.5204 38.7692C23.8404 38.4462 24.1604 38.2846 24.4804 38.4462C25.7604 38.6077 27.2004 38.7692 28.4804 38.9308C29.4404 39.0923 29.7604 38.4462 29.4404 37.6385C28.3204 34.8923 27.3604 32.3077 26.2404 29.5615C26.2404 29.4 26.0804 29.2385 26.0804 29.0769C26.4004 28.2692 26.5604 27.4615 26.8804 26.8154C27.2004 25.6846 27.8404 25.0385 28.6404 24.3923C29.2804 23.9077 30.0804 23.5846 30.7204 22.9385C31.3604 22.2923 31.6804 21.6462 31.5204 20.6769C31.8404 19.5462 31.3604 18.7385 31.2004 17.9308ZM13.9204 32.6308C13.1204 34.7308 12.3204 36.8308 11.3604 38.9308C11.2004 39.0923 11.2004 39.4154 11.0404 39.5769C10.2404 38.7692 9.44038 37.8 8.80038 36.9923C8.32038 36.5077 8.00038 36.3462 7.36038 36.5077C6.40038 36.6692 5.28038 36.8308 4.32038 36.8308C4.32038 36.8308 4.16038 36.8308 4.00038 36.8308C4.16038 36.5077 4.16038 36.1846 4.32038 36.0231C5.12038 34.2462 5.76038 32.3077 6.56038 30.5308C6.72038 30.2077 6.72038 30.2077 7.04038 30.2077C7.68038 30.3692 8.48038 30.2077 9.12038 30.2077C9.92038 30.2077 10.7204 30.2077 11.5204 30.5308C12.3204 30.8538 13.1204 31.6615 13.7604 32.1462C14.2404 32.3077 14.0804 32.4692 13.9204 32.6308ZM27.8404 36.8308C26.8804 36.6692 26.0804 36.6692 25.1204 36.5077C24.8004 36.5077 24.4804 36.5077 24.0004 36.3462C23.6804 36.3462 23.3604 36.5077 23.0404 36.6692C22.4004 37.4769 21.6004 38.2846 20.9604 39.0923C20.8004 39.2538 20.8004 39.2538 20.6404 39.4154C19.6804 37.1538 18.8804 34.8923 17.9204 32.6308C17.7604 32.1462 17.7604 31.9846 18.2404 31.8231C18.7204 31.5 19.0404 31.1769 19.3604 31.0154C20.0004 30.5308 20.8004 30.2077 21.6004 30.2077C22.7204 30.2077 23.8404 30.3692 24.8004 30.2077C24.9604 30.2077 24.9604 30.2077 24.9604 30.3692C26.0804 32.4692 27.0404 34.7308 27.8404 36.8308ZM29.9204 21.4846C29.4404 21.8077 28.9604 22.1308 28.4804 22.4538C27.0404 23.4231 26.0804 24.5538 25.6004 26.3308C25.4404 26.9769 25.2804 27.4615 25.1204 27.9462C24.9604 28.2692 24.8004 28.4308 24.3204 28.5923C23.6804 28.5923 23.2004 28.5923 22.5604 28.5923C20.8004 28.4308 19.2004 28.9154 17.7604 30.2077C17.2804 30.5308 16.9604 30.8538 16.4804 31.1769C16.1604 31.3385 15.8404 31.3385 15.5204 31.1769C15.0404 30.8538 14.5604 30.5308 14.0804 30.0462C12.8004 28.9154 11.3604 28.4308 9.76038 28.5923C9.12038 28.5923 8.48038 28.7538 7.84038 28.5923C7.52038 28.5923 7.20038 28.4308 7.04038 27.9462C6.56038 27.4615 6.40038 26.8154 6.24038 26.1692C5.76038 24.7154 4.96038 23.4231 3.52038 22.6154C3.04038 22.2923 2.40038 21.9692 1.92038 21.4846C1.76038 21.3231 1.60038 21 1.76038 20.5154C1.92038 20.0308 2.08038 19.3846 2.40038 18.9C3.04038 17.2846 3.04038 15.6692 2.40038 14.0538C2.08038 13.5692 1.92038 12.9231 1.76038 12.4385C1.60038 11.9538 1.76038 11.7923 2.08038 11.4692C2.56038 10.9846 3.04038 10.6615 3.68038 10.3385C4.96038 9.53077 5.92038 8.23846 6.40038 6.62308C6.40038 6.13846 6.56038 5.65385 6.72038 5.16923C7.04038 4.52308 7.20038 4.36154 8.00038 4.36154C8.48038 4.36154 8.96038 4.36154 9.44038 4.36154C10.5604 4.36154 11.5204 4.36154 12.4804 3.87692C13.1204 3.55385 13.6004 3.23077 14.0804 2.74615C16.1604 1.13077 15.8404 1.13077 17.9204 2.74615C18.4004 3.06923 18.8804 3.55385 19.5204 3.71538C20.4804 4.2 21.4404 4.2 22.4004 4.2C23.0404 4.2 23.5204 4.2 24.1604 4.2C24.8004 4.2 25.1204 4.36154 25.2804 5.00769C25.4404 5.65385 25.6004 6.13846 25.7604 6.78462C26.2404 8.23846 27.0404 9.53077 28.4804 10.3385C28.8004 10.6615 29.2804 10.9846 29.7604 11.3077C30.4004 11.7923 30.4004 11.9538 30.2404 12.7615C30.0804 13.2462 29.9204 13.7308 29.7604 14.2154C29.1204 15.6692 29.1204 17.2846 29.7604 18.7385C29.9204 19.3846 30.2404 19.8692 30.4004 20.5154C30.4004 21 30.2404 21.1615 29.9204 21.4846Z" fill="#B41A20"></path>
      <path id="Vector_2" d="M30.4004 19.0614C30.5604 18.8999 30.5604 18.8999 30.7204 18.8999C30.5604 19.0614 30.5604 19.223 30.4004 19.0614Z" fill="#B41A20"></path>
      <path id="Vector_3" d="M16.16 5.65396C10.24 5.49242 5.11996 10.177 4.95996 16.477C4.95996 22.454 9.75996 27.3001 15.84 27.3001C21.76 27.4616 26.88 22.777 26.88 16.477C27.04 10.6616 22.24 5.81549 16.16 5.65396ZM16 25.6847C10.88 25.6847 6.71996 21.6463 6.71996 16.477C6.71996 11.4693 10.88 7.26934 16 7.26934C21.12 7.26934 25.28 11.4693 25.28 16.477C25.28 21.4847 21.12 25.6847 16 25.6847Z" fill="#B41A20"></path>
      <path id="Vector_4" d="M22.4006 14.8615C22.2406 14.5385 21.9206 14.3769 21.6006 14.2154C20.6406 14.0538 19.6806 13.8923 18.7206 13.8923C18.4006 13.8923 18.2406 13.7308 18.2406 13.5692C17.7606 12.7615 17.4406 11.9538 16.9606 11.1462C16.8006 10.8231 16.4806 10.5 16.0006 10.5C15.5206 10.5 15.3606 10.8231 15.2006 11.1462C14.7206 11.9538 14.4006 12.7615 13.9206 13.7308C13.7606 13.7308 13.7606 13.7308 13.4406 13.7308C12.4806 13.8923 11.5206 14.0538 10.5606 14.2154C10.0806 14.2154 9.76059 14.3769 9.60059 14.8615C9.60059 15.1846 9.76059 15.5077 10.0806 15.8308C10.7206 16.4769 11.5206 17.1231 12.1606 17.7692C12.3206 17.9308 12.3206 18.0923 12.3206 18.2538C12.1606 19.2231 12.0006 20.3538 11.8406 21.3231C11.8406 22.1308 12.4806 22.4538 13.1206 22.1308C13.9206 21.6462 14.8806 21.3231 15.6806 20.8385C16.0006 20.6769 16.1606 20.6769 16.4806 20.8385C17.2806 21.3231 18.0806 21.6462 18.8806 22.1308C19.2006 22.2923 19.5206 22.4538 20.0006 22.1308C20.3206 21.8077 20.3206 21.4846 20.3206 21C20.1606 20.0308 20.0006 19.0615 19.8406 18.2538C19.8406 18.0923 19.8406 17.9308 20.0006 17.7692C20.6406 17.1231 21.4406 16.4769 22.0806 15.6692C22.4006 15.5077 22.4006 15.1846 22.4006 14.8615ZM18.4006 16.9615C18.0806 17.2846 17.9206 17.6077 18.0806 18.0923C18.2406 18.7385 18.2406 19.2231 18.4006 20.0308C17.7606 19.7077 17.2806 19.5462 16.8006 19.2231C16.3206 18.9 16.0006 18.9 15.5206 19.2231C15.0406 19.5462 14.7206 19.7077 14.2406 19.8692C14.0806 19.8692 14.0806 20.0308 13.9206 20.0308C14.0806 19.3846 14.2406 18.5769 14.2406 17.9308C14.2406 17.6077 14.0806 17.4462 13.9206 17.1231C13.2806 16.6385 12.8006 16.1538 12.4806 15.6692C13.1206 15.5077 13.7606 15.5077 14.4006 15.3462C14.7206 15.3462 15.0406 15.1846 15.2006 14.7C15.3606 14.2154 15.6806 13.5692 16.0006 12.9231C16.3206 13.4077 16.4806 13.8923 16.8006 14.3769C16.9606 15.0231 17.4406 15.3462 18.0806 15.3462C18.5606 15.3462 19.2006 15.5077 19.6806 15.5077C19.2006 16.1538 18.8806 16.4769 18.4006 16.9615Z" fill="#B41A20"></path>
    </g>
  </g>
  <defs>
    <clipPath id="clip0_243_162">
      <rect width="32" height="42" fill="white"></rect>
    </clipPath>
  </defs>
</svg>
