<?xml version="1.0" encoding="UTF-8"?>
<svg xmlns="http://www.w3.org/2000/svg" width="40" height="41" viewBox="0 0 40 41" fill="none">
  <g id="Frame" clip-path="url(#clip0_243_211)">
    <g id="Group">
      <path id="Vector" d="M10.356 1.55885C10.356 2.1865 10.356 2.81416 10.356 3.44182C10.356 3.91256 10.356 3.91256 9.88527 3.75564C9.1007 3.44182 8.31613 3.2849 7.37465 2.97107C6.59008 2.97107 6.43316 3.12799 6.43316 3.91256C6.43316 6.26627 6.43316 8.77689 6.43316 11.1306C6.43316 11.4444 6.43316 11.6013 5.96242 11.6013C5.02094 11.9152 4.07945 12.229 3.13797 12.6997C2.82414 12.6997 2.51031 12.8567 2.51031 13.3274C2.51031 13.4843 2.3534 13.4843 2.19648 13.4843C1.88266 13.4843 1.56883 13.4843 1.255 13.4843C0.627344 13.4843 -0.000312522 13.9551 -0.000312522 14.8965C-0.000312522 20.7024 -0.000312522 26.6651 -0.000312522 32.4709C-0.000312522 32.9417 0.156601 33.2555 0.627344 33.2555C0.941172 33.2555 1.255 32.9417 1.255 32.4709C1.255 26.6651 1.255 21.0162 1.255 15.2104C1.255 14.7396 1.255 14.7396 1.72574 14.7396C2.51031 14.7396 2.51031 14.7396 2.51031 15.5242C2.51031 22.7422 2.51031 29.9603 2.51031 37.1783C2.51031 37.9629 2.66723 38.1198 3.4518 38.1198C14.4358 38.1198 25.2628 38.1198 36.2468 38.1198C37.0314 38.1198 37.1883 37.9629 37.1883 37.1783C37.1883 29.8034 37.1883 22.4284 37.1883 15.2104C37.1883 14.5827 37.1883 14.7396 37.6591 14.7396C38.7575 14.7396 38.6005 14.5827 38.6005 15.6811C38.6005 23.3699 38.6005 31.2156 38.6005 38.9044C38.6005 39.532 38.6005 39.532 37.9729 39.532C32.6378 39.532 27.3027 39.532 21.9677 39.532C21.6538 39.532 21.4969 39.532 21.34 39.3751C20.3985 38.5906 19.1432 38.7475 18.3586 39.3751C18.2017 39.532 18.0448 39.532 17.731 39.532C12.3959 39.532 7.06082 39.532 1.56883 39.532C1.255 39.532 1.09809 39.3751 1.09809 39.0613C1.09809 38.1198 1.09809 37.3353 1.09809 36.3938C1.09809 35.923 0.941172 35.7661 0.47043 35.7661C0.156602 35.7661 -0.157227 35.923 -0.157227 36.3938C-0.157227 37.3353 -0.157227 38.2767 -0.157227 39.2182C-0.157227 40.0028 0.47043 40.6304 1.255 40.6304C6.9039 40.6304 12.5528 40.6304 18.0448 40.6304C18.3586 40.6304 18.5155 40.4735 18.6725 40.3166C19.3001 39.689 20.0847 39.689 20.7123 40.3166C20.8693 40.4735 21.0262 40.6304 21.34 40.6304C26.9889 40.6304 32.6378 40.6304 38.2867 40.6304C38.9144 40.6304 39.3851 40.1597 39.6989 39.689V14.4258C39.3851 13.6412 38.7575 13.3274 37.9729 13.3274C37.816 13.3274 37.6591 13.3274 37.5021 13.3274C37.3452 13.3274 37.1883 13.3274 37.1883 13.0136C37.1883 12.6997 37.0314 12.5428 36.7176 12.5428C36.2468 12.3859 35.6192 12.0721 35.1484 11.9152C34.9915 11.9152 34.8346 11.7583 34.8346 11.4444C34.8346 10.346 34.8346 9.24763 34.8346 8.14924C34.8346 7.67849 34.6777 7.36467 34.05 7.36467C29.3426 7.36467 24.949 8.77689 21.0262 11.6013C20.8693 11.7583 20.5554 11.9152 20.3985 12.0721C20.2416 11.4444 20.2416 10.8168 20.0847 10.1891C19.6139 7.99232 18.8294 5.95244 17.4171 4.22639C15.848 2.1865 13.8081 1.08811 11.2975 0.460449H11.1406H10.6698C10.356 0.931191 10.1991 1.24502 10.356 1.55885ZM35.933 36.8645C35.933 37.0214 35.7761 36.8645 35.6192 36.8645C34.8346 36.8645 34.05 36.8645 33.2655 36.8645H21.9677H21.6538C23.223 35.923 24.7921 35.4523 26.3612 35.1385C29.4995 34.6677 32.6378 34.9815 35.7761 35.923C35.933 36.0799 36.0899 36.7076 35.933 36.8645ZM20.3985 14.2689C20.3985 13.9551 20.3985 13.7981 20.7123 13.6412C23.223 11.4444 26.2043 10.0322 29.3426 9.40455C30.5979 9.09072 32.0102 8.93381 33.2655 8.93381C33.5793 8.93381 33.5793 8.93381 33.5793 9.24764C33.5793 10.9737 33.5793 12.8567 33.5793 14.5827C33.5793 14.7396 33.5793 14.7396 33.5793 14.8965C33.5793 15.2104 33.8931 15.3673 34.2069 15.3673C34.5208 15.3673 34.6777 15.2104 34.6777 14.7396C34.6777 14.2689 34.6777 13.7981 34.6777 13.1705C34.9915 13.1705 35.3053 13.3274 35.7761 13.4843C35.933 13.4843 35.933 13.6412 35.933 13.6412C35.933 13.7981 35.933 13.7981 35.933 13.9551C35.933 20.7024 35.933 27.4497 35.933 34.3539C35.933 34.6677 35.933 34.8246 35.4623 34.6677C32.7947 33.8831 29.9703 33.5693 27.3027 33.8831C26.832 33.8831 26.5182 34.0401 26.0474 34.0401C25.8905 34.197 25.8905 34.0401 25.7336 34.0401C25.8905 33.8831 25.8905 33.8831 26.0474 33.8831C28.558 32.7847 31.2256 32.314 33.8931 32.314C34.6777 32.314 34.8346 32.1571 34.8346 31.3725C34.8346 27.1358 34.8346 22.8992 34.8346 18.6625C34.8346 18.5056 34.8346 18.3486 34.8346 18.1917C34.8346 17.8779 34.5208 17.721 34.3639 17.721C34.05 17.721 33.8931 17.8779 33.7362 18.1917C33.7362 18.3486 33.7362 18.5056 33.7362 18.6625C33.7362 22.7422 33.7362 26.822 33.7362 30.9018C33.7362 31.2156 33.7362 31.2156 33.4224 31.3725C28.715 31.5294 24.4783 32.9417 20.7123 35.923C20.7123 35.923 20.7123 35.923 20.5554 35.923C20.3985 35.7661 20.5554 35.6092 20.5554 35.6092C20.3985 28.3912 20.3985 21.33 20.3985 14.2689ZM3.76562 13.9551C3.76562 13.7981 3.76562 13.6412 4.07945 13.6412C4.70711 13.3274 5.33476 13.1705 6.11933 12.8567C6.43316 12.6997 6.43316 12.8567 6.43316 13.1705C6.43316 17.721 6.43316 22.1146 6.43316 26.6651C6.43316 27.4497 6.43316 27.6066 7.21773 27.7635C11.7682 28.8619 15.2203 31.3725 17.8879 35.1385L18.0448 35.2954C18.0448 35.2954 18.0448 35.2954 18.0448 35.4523C17.2602 35.1385 16.6326 34.8246 15.848 34.6677C13.0236 33.7262 10.0422 33.7262 7.06082 34.197C6.11933 34.3539 5.02094 34.5108 4.07945 34.8246C3.76562 34.8246 3.76562 34.8246 3.76562 34.6677C3.76562 27.6066 3.76562 20.8593 3.76562 13.9551ZM18.0448 36.8645H17.8879C13.3374 36.8645 8.62996 36.8645 4.07945 36.8645C3.92254 36.8645 3.76562 37.0214 3.76562 36.7076C3.76562 36.3938 3.60871 36.0799 3.92254 35.923C8.15922 34.5108 12.3959 34.3539 16.6326 36.0799C16.9464 36.2369 17.4171 36.3938 17.731 36.5507C17.8879 36.7076 18.0448 36.7076 18.0448 36.8645C18.2017 36.8645 18.2017 36.8645 18.0448 36.8645ZM11.4544 2.1865C13.4943 2.65725 15.2203 3.59873 16.4757 5.32478C17.8879 7.05084 18.6725 9.24764 18.9863 11.4444C19.1432 12.5428 19.1432 13.4843 19.1432 14.5827C19.1432 20.0747 19.1432 25.5667 19.1432 31.0587C18.9863 31.0587 18.9863 30.9018 18.9863 30.9018C17.5741 27.6066 15.0634 25.4098 11.6113 24.4683C11.4544 24.4683 11.2975 24.3114 11.2975 24.1545C11.4544 16.7795 11.4544 9.56146 11.4544 2.1865ZM11.1406 25.5667C14.7496 26.5082 17.1033 28.705 18.3586 32.1571C18.6725 32.9417 18.8294 33.7262 18.9863 34.6677C18.3586 33.7262 17.5741 32.9417 16.7895 32.0002C14.2789 29.4895 11.2975 27.7635 7.84539 26.822C7.53156 26.6651 7.53156 26.5082 7.53156 26.3513V6.26627C7.53156 5.63861 7.53156 5.16787 7.53156 4.54021C7.53156 4.3833 7.53156 4.3833 7.84539 4.3833C8.62996 4.54021 9.41453 4.85404 10.1991 5.16787C10.356 5.16787 10.356 5.32478 10.356 5.4817V5.63861V24.3114C10.356 25.2529 10.356 25.2529 11.1406 25.5667Z" fill="#B41A20"></path>
    </g>
  </g>
  <defs>
    <clipPath id="clip0_243_211">
      <rect width="39.6992" height="39.6992" fill="white" transform="translate(0 0.774414)"></rect>
    </clipPath>
  </defs>
</svg>
