<?xml version="1.0" encoding="UTF-8"?><svg id="Layer_1" xmlns="http://www.w3.org/2000/svg" viewBox="0 0 45.64 45"><defs><style>.cls-1{fill:#222f6e;stroke-width:0px;}</style></defs><g id="Group"><path id="Vector" class="cls-1" d="M43.38,34.35c-.13,0-.13-.13-.27-.27-.13-.67-.4-1.33-.53-2-.13-.67-.67-.93-1.33-.67-.67.13-1.33.4-2,.53-.53.13-.67.4-.53.93.13.4.4.53.93.4.53-.13.93-.27,1.46-.4.27-.13.4,0,.4.27.13.4.27.93.4,1.33.13.27,0,.4-.27.53-5.59,1.46-11.18,2.79-16.77,4.26-.27.13-.4,0-.53-.27-.13-.27-.27-.67-.4-.93-.13-.27-.13-.4.27-.4,2.93-.8,5.99-1.6,8.92-2.53,1.06-.27,2.13-.53,3.19-.93.53-.13.8-.67.4-1.06-.27-.27-.53-.27-.8-.13-1.73.53-3.59.93-5.32,1.46-.13,0-.27.13-.4,0,3.19-1.6,6.39-3.06,9.58-4.66.53-.27.67-.53.4-.93-.13-.4-.53-.4-1.06-.27-.53.27-1.2.53-1.73.8-2.79,1.33-5.59,2.66-8.38,3.99q-.13,0-.13-.13c2.4-1.86,4.79-3.59,7.19-5.46.13-.13.27-.13.4-.27.27-.27.27-.53,0-.8-.27-.27-.53-.27-.8-.13-.13.13-.27.27-.53.27-4.13,3.06-8.12,6.12-12.24,9.18-.27.13-.4.27-.67,0-2.93-2.26-5.99-4.52-8.92-6.79-1.2-.93-2.4-1.73-3.59-2.66-.4-.4-.93-.27-1.06.27-.13.4.13.67.4.8,1.33,1.06,2.66,2,4.13,3.06,1.06.8,2.13,1.6,3.33,2.53v.13h-.27c-2.79-1.33-5.59-2.66-8.38-4.13-.53-.27-1.06-.53-1.73-.8-.4-.13-.67,0-.8.27-.13.27,0,.67.27.93l.13.13c2.79,1.33,5.59,2.79,8.52,4.12.27.13.67.27.93.53-.13.13-.27,0-.4,0-.67-.13-1.33-.4-2-.53-2.79-.8-5.59-1.6-8.25-2.26-.8-.27-1.33,0-1.46.8-.13.4-.27.93-.4,1.33-.13.53-.27.8-.93.8-.93,0-1.33.67-1.73,1.46v.8c.13.67.4,1.2,1.06,1.46.67.27,1.33.4,2.13.53.4.13.67-.13.8-.53.13-.27,0-.67-.4-.93-.13-.13-.4-.13-.53-.27-.4-.13-.8-.13-1.06-.27-.27-.13-.53-.27-.4-.67.13-.27.4-.4.67-.4.13,0,.27,0,.4.13,1.06.27,2.13.53,3.06.8,4.79,1.2,9.58,2.4,14.37,3.59.53.13.8.4.93.93,0,.53.27.8.8,1.06,1.06.53,2.4,0,2.53-1.06,0-.53.27-.8.8-.93,5.85-1.46,11.71-3.06,17.7-4.52.13,0,.27-.13.4-.13.27,0,.53.13.67.4.13.27-.13.53-.4.67q-.13,0-.27.13c-.67.13-1.2.4-1.86.53-4.92,1.2-9.71,2.53-14.64,3.73-.67.13-1.2.4-1.46,1.2-.4,1.06-1.6,1.6-2.79,1.46-.93-.13-1.73-.67-2.13-1.6-.13-.4-.4-.8-.93-.93-4.12-1.06-8.25-2.13-12.37-3.19-.13,0-.4-.13-.53-.13-.27,0-.53.13-.67.53-.13.4,0,.67.27.8.13.13.4.13.67.27,3.06.8,5.99,1.6,9.05,2.26.93.27,1.73.4,2.66.67.27,0,.53.13.67.4.67,1.2,1.73,2,3.19,2.13h.13c.27-.13.53-.13.8,0h.13c1.46-.13,2.53-.93,3.33-2.13.13-.27.4-.27.67-.4,2.4-.67,4.79-1.2,7.32-1.86,3.06-.8,6.12-1.6,9.18-2.4.93-.27,1.6-.67,1.73-1.73v-.53c-.53-1.06-1.2-1.73-2.26-1.6ZM21.29,39.01c0,.13-.27,0-.4,0-4.12-1.06-8.25-2.13-12.38-3.19-1.46-.4-2.93-.8-4.39-1.06-.27,0-.4-.13-.27-.4.13-.4.27-.93.4-1.33,0-.27.27-.4.53-.27,3.59,1.06,7.32,2,10.91,3.06,2,.53,3.99,1.06,5.99,1.6.13,0,.27,0,.27.13-.27.53-.4,1.06-.67,1.46ZM23.15,40.61c0,.27.13.67-.27.67s-.13-.4-.27-.67c-.4-.67,0-1.06.27-1.73.13.4.27.67.4,1.06.13.13-.13.4-.13.67Z"/><path id="Vector_2" class="cls-1" d="M32.6,8.01c-.93-4.12-3.46-6.79-7.72-7.72-4.12-.93-7.45.4-9.98,3.73-2.53,3.33-2.66,7.98-.53,11.31.27.4.67.53,1.06.27.27-.27.4-.67.13-1.06-.8-1.2-1.2-2.66-1.33-4.12-.13-1.6.13-3.06.93-4.39.4.53.53,1.2.67,1.86.27.8.4,1.73.8,2.53.4.8.93,1.33,1.73,1.6.67.27,1.2.27,1.73-.27.53-.53.53-1.06.4-1.73,0-.13-.13-.4-.13-.53-.13-.4-.13-.8.27-1.06.27-.27.53-.53.8-.93.8-.93.8-1.73.13-2.53-.27-.4-.27-.8,0-1.2.13-.27.27-.4.4-.67.4-.53.8-.93.8-1.6,0-.13.13-.13.27-.13,1.2,0,2.26.27,3.46.8-.13.13-.13.27-.27.4-.67,1.2-.8,2.4-.27,3.59.27.8,1.2,1.06,1.86.4.27-.27.53-.27.8-.27.53,0,1.2.13,1.73,0,.4-.13.53,0,.67.4.93,2.4.8,4.66-.13,7.05-.53,1.33-1.46,2.4-2.66,3.19-.13.13-.13.27-.27,0-.4-.67-.53-1.33-.13-2.13.27-.53.67-1.06.93-1.6.27-.4.53-.93.67-1.46.53-1.86-.67-3.19-2.53-2.79-1.46.4-2.79.8-4.12,1.33-.93.4-1.33,1.06-1.6,2-.13.67-.13,1.2-.13,1.86,0,.93.4,1.46,1.2,1.86.27.13.4.27.53.53.27.8.4,1.6,1.2,2.13h-.53c-1.86,0-3.73-.53-5.32-1.6l-.13-.13c-.4-.27-.8-.27-1.06.13-.27.27-.13.67.27.93,2.4,1.86,5.19,2.4,8.12,1.73,5.06-1.2,8.52-6.39,7.32-11.71ZM20.76,2.69c-.4.53-.53.93-.67,1.6,0,.53.13,1.06.53,1.46.4.4.4.67,0,1.06-.27.27-.4.4-.67.67-.67.67-.93,1.6-.53,2.53v.13c0,.27.27.53,0,.67-.27.13-.53,0-.67-.13-.53-.27-.8-.8-.93-1.33-.27-.8-.4-1.6-.67-2.4-.13-.67-.53-1.33-.93-1.86-.13-.13-.13-.27,0-.4,1.33-1.6,3.06-2.66,5.19-3.06h.27c-.4.4-.67.67-.93,1.06ZM28.74,5.08c-.53,0-1.06,0-1.46.27-.13.13-.27.13-.27-.13-.13-.8,0-1.6.53-2.26.13-.13.27-.13.4,0,.8.53,1.46,1.2,2,2.13h-1.2ZM26.48,17.32c.13.13.27.4.13.4-.27.13-.53.4-.93.27h-.13c-1.2-.27-1.86-1.06-2-2.26-.13-.53-.53-.93-1.06-1.06-.4-.13-.53-.4-.53-.67,0-.53,0-1.06.13-1.6.13-.4.4-.8.8-.93,1.33-.53,2.79-.93,4.12-1.33h.13c.53,0,.8.4.8.93-.13.53-.4.93-.67,1.33-.4.53-.8,1.06-1.06,1.73-.4,1.06-.27,2.13.27,3.19Z"/><path id="Vector_3" class="cls-1" d="M42.32,5.08c-1.06-.53-1.86-1.2-2.26-2.26-.13-.4-.53-.53-.93-.53s-.8.13-.93.53c-.4,1.06-1.2,1.73-2.26,2.26-.8.4-.8,1.6,0,1.86,1.06.53,1.73,1.2,2.26,2.26.4.8,1.6.8,1.86,0,.53-1.06,1.2-1.73,2.26-2.26.8-.27.8-1.46,0-1.86ZM39.12,8.41c-.4-.53-.53-1.06-.93-1.46-.4-.4-.93-.53-1.46-.93,1.06-.4,1.86-1.06,2.26-2.13.4,1.06,1.2,1.86,2.26,2.26-.93.4-1.73,1.06-2.13,2.26Z"/><path id="Vector_4" class="cls-1" d="M9.58,15.86c-1.06-.4-1.73-1.06-2.13-2.13-.4-.8-1.6-.8-2,0-.4.93-1.06,1.6-2.13,2.13-.8.4-.8,1.6,0,2,.93.4,1.73,1.06,2,2.13v.13c.53.8,1.6.8,1.86,0,.53-1.06,1.2-1.73,2.13-2.13.4-.13.53-.53.53-.93.27-.67.13-1.06-.27-1.2ZM7.18,17.59c-.4.4-.53.8-.8,1.33-.4-1.06-1.06-1.73-2.13-2.13,1.06-.4,1.73-1.06,2.13-2.13.4,1.06,1.06,1.73,2.13,2.13-.4.4-.93.53-1.33.8Z"/><path id="Vector_5" class="cls-1" d="M26.08,27.04c-1.06-.53-1.73-1.2-2.13-2.13-.4-.8-1.6-.8-1.86,0-.53.93-1.2,1.73-2.13,2.13-.8.4-.8,1.6,0,1.86,1.06.53,1.73,1.2,2.13,2.13.13.4.53.53.93.53s.8-.13.93-.53c.4-1.06,1.2-1.73,2.13-2.26.8-.13.8-1.33,0-1.73ZM23.82,28.77c-.4.27-.53.93-.93,1.33-.4-1.06-1.06-1.73-2.13-2.13.53-.4,1.06-.4,1.33-.8s.53-.8.8-1.33c.4,1.06,1.06,1.73,2.13,2.13-.4.27-.93.53-1.2.8Z"/></g></svg>