<?xml version="1.0" encoding="UTF-8"?>
<svg xmlns="http://www.w3.org/2000/svg" width="37" height="43" viewBox="0 0 37 43" fill="none">
  <g id="Group">
    <path id="Vector" d="M36.5172 13.9563C36.2454 11.5097 35.2939 9.19903 33.7988 7.16019C30.6726 2.81068 26.459 0.635922 21.158 0.5C20.2066 0.5 20.2066 0.5 20.2066 1.45146C20.2066 1.7233 20.3425 1.85922 20.6144 1.85922C21.9736 1.7233 23.3328 1.85922 24.692 2.26699C27.8182 3.08252 30.4007 4.84951 32.4396 7.43204C34.8862 10.6942 35.8377 14.5 35.0221 18.5777C34.3425 22.3835 32.3037 25.3738 29.1774 27.6845C27.8182 28.6359 26.7309 29.8592 26.0512 31.3544C26.0512 31.4903 25.9153 31.6262 25.7794 31.6262C22.7891 31.6262 19.6629 31.6262 16.6726 31.6262C16.5367 31.6262 16.4008 31.6262 16.4008 31.3544C15.7211 29.7233 14.4978 28.5 13.0027 27.5485C9.33279 24.8301 7.29397 21.1602 7.15805 16.5388C7.15805 15.4515 7.15803 15.5874 6.07065 15.5874C5.7988 15.5874 5.79883 15.7233 5.79883 15.8592C5.79883 17.0825 5.93473 18.1699 6.20658 19.3932C7.02211 23.199 9.19687 26.3252 12.3231 28.6359C13.1386 29.1796 13.9542 29.8592 14.4978 30.6748C14.6338 30.9466 14.9056 31.2184 15.0415 31.6262H14.3619C13.2745 31.6262 13.2746 31.6262 13.2746 32.7136C13.2746 32.8495 13.2745 32.9854 13.5464 32.9854C13.9541 32.9854 14.3619 32.9854 14.6338 32.9854C15.7212 32.9854 15.7212 32.9854 15.8571 34.0728C15.8571 34.3447 15.8571 34.4806 15.5852 34.3447C15.3134 34.3447 15.0415 34.3447 14.9056 34.3447C14.7697 34.3447 14.6338 34.3447 14.6338 34.6165C14.6338 35.7039 14.6338 35.7039 15.5852 35.7039C15.8571 35.7039 15.8571 35.8398 15.8571 35.9757C15.8571 36.5194 15.8571 36.9272 15.8571 37.4709C15.8571 38.1505 15.993 38.4223 16.8085 38.4223C17.2163 38.4223 17.2163 38.5583 17.2163 38.8301C17.3522 40.5971 18.8474 42.0922 20.6144 42.3641C20.7503 42.3641 20.8862 42.3641 21.0221 42.5H21.5658C21.7017 42.3641 21.8377 42.3641 21.9736 42.3641C23.7406 42.0922 25.2357 40.5971 25.3716 38.8301C25.3716 38.4223 25.5076 38.2864 25.9153 38.2864C26.5949 38.2864 26.7309 38.0146 26.7309 37.4709C26.7309 37.0631 26.7309 36.5194 26.7309 35.9757C26.7309 35.7039 26.7308 35.568 27.1386 35.568C28.0901 35.568 28.0901 35.568 28.0901 34.6165C28.0901 34.3447 28.0901 34.2087 27.8182 34.2087C26.7308 34.2087 26.7308 34.2087 27.0027 33.1214C27.0027 32.8495 27.1386 32.8495 27.4105 32.8495C27.8182 32.8495 28.0901 32.8495 28.4978 32.8495C29.5852 32.8495 29.5852 32.8495 29.5852 31.7621C29.5852 31.4903 29.5852 31.4903 29.3134 31.4903C28.7697 31.4903 28.3619 31.4903 27.8182 31.4903C28.4978 30.267 29.3134 29.4515 30.4007 28.6359C35.0221 25.1019 37.1969 20.2087 36.5172 13.9563ZM23.8765 38.6942C23.7406 40.0534 22.5173 41.0049 21.158 41.0049C19.7988 41.0049 18.7114 39.9175 18.5755 38.5583C18.5755 38.2864 18.5755 38.2864 18.8473 38.2864C19.6629 38.2864 20.4784 38.2864 21.294 38.2864C22.1095 38.2864 22.7891 38.2864 23.6046 38.2864C23.7405 38.4223 23.8765 38.4223 23.8765 38.6942ZM24.1483 37.0631H21.0221C19.7988 37.0631 18.5755 37.0631 17.3522 37.0631C17.0804 37.0631 16.9444 37.0631 16.9444 36.6553C16.9444 35.7039 16.9445 35.7039 17.8959 35.7039C20.2066 35.7039 22.3813 35.7039 24.692 35.7039C24.9639 35.7039 25.0998 35.7039 25.0998 36.1117C25.2357 37.0631 25.2357 37.0631 24.1483 37.0631ZM25.3716 33.2573C25.3716 33.3932 25.3716 33.3932 25.3716 33.5291C25.2357 34.3447 25.2357 34.3447 24.4202 34.3447C22.1095 34.3447 19.7988 34.3447 17.3522 34.3447C17.0804 34.3447 16.9444 34.2087 16.9444 33.9369C16.9444 33.665 16.9444 33.5291 16.8085 33.2573C16.6726 32.9854 16.8085 32.8495 17.0804 32.8495C18.4396 32.8495 19.6629 32.8495 21.0221 32.8495C22.3813 32.8495 23.7405 32.8495 24.9638 32.8495C25.3716 32.9854 25.5076 32.9854 25.3716 33.2573Z" fill="#D6EBFF"></path>
    <path id="Vector_2" d="M32.4396 18.4419C33.3911 17.8982 33.9348 17.0827 33.9348 15.9953C33.9348 14.9079 33.3911 14.0924 32.4396 13.5487C32.3037 13.4128 32.3037 13.4128 32.3037 13.1409C32.9833 11.3739 32.3037 9.60693 30.6727 8.7914C30.4008 8.65547 30.4008 8.65547 30.5367 8.38363C30.9445 6.48072 29.1775 4.71373 27.2746 5.12149C27.0028 5.12149 26.8668 5.12149 26.8668 4.84965C26.0513 3.62635 24.5562 3.21858 23.3329 3.89819C22.2455 4.44188 21.9736 5.39334 21.9736 6.61664C21.9736 9.60693 21.9736 12.7331 21.9736 15.7234C21.9736 18.8496 21.9736 21.9759 21.9736 25.1021C21.9736 26.4613 22.6532 27.5487 24.0125 27.8205C25.2358 28.2283 26.3231 27.6846 27.0027 26.5972C27.1387 26.3254 27.2746 26.4613 27.4105 26.4613C29.3134 27.005 31.0804 25.238 30.6727 23.1992C30.6727 22.9273 30.6727 22.9273 30.8086 22.7914C32.4397 21.9759 33.1192 20.2089 32.4396 18.4419C32.3037 18.5778 32.3037 18.7137 32.4396 18.4419ZM31.76 17.3545C31.4882 17.4904 31.2164 17.4904 30.9445 17.3545C28.9057 15.9953 26.0513 17.4904 25.9154 19.937C25.9154 20.2089 25.9154 20.3448 26.1872 20.2089H26.3231C26.595 20.2089 26.8668 20.2089 27.1387 20.2089C27.4105 20.0729 27.2746 19.8011 27.4105 19.5293C27.6824 18.7137 28.6338 18.17 29.5853 18.17C30.5367 18.306 31.2163 18.9856 31.3523 19.937C31.4882 20.7526 30.8086 21.704 29.993 21.9759C29.8571 21.9759 29.5853 22.1118 29.4494 21.9759C29.1775 21.704 28.7697 21.5681 28.362 21.5681C28.0901 21.5681 27.9542 21.5681 27.9542 21.8399C27.9542 21.9759 27.9542 22.1118 27.9542 22.1118C27.9542 22.5195 27.9542 22.7914 28.4979 22.9273C29.0416 23.0632 29.4494 23.7429 29.3134 24.4225C29.1775 25.1021 28.6338 25.5098 28.0901 25.5098C27.4105 25.5098 26.8668 25.1021 26.7309 24.5584C26.595 24.2865 26.4591 24.1506 26.1872 24.1506C26.0513 24.1506 26.0513 24.1506 25.9154 24.1506C25.0998 24.1506 25.0998 24.1506 25.3717 24.8302C25.5076 25.1021 25.5076 25.3739 25.7794 25.5098C25.9154 25.7817 25.9154 25.9176 25.7794 26.0535C25.5076 26.5972 24.828 26.8691 24.2843 26.7331C23.7406 26.5972 23.3328 26.0535 23.1969 25.5098C23.1969 25.238 23.1969 24.8302 23.1969 24.5584C23.1969 21.704 23.1969 18.8496 23.1969 15.9953C23.1969 12.8691 23.1969 9.74285 23.1969 6.61664C23.1969 5.66518 24.0125 4.98557 24.828 5.25742C25.0999 5.39334 25.3717 5.52926 25.5076 5.66518C25.7795 5.93703 25.9154 6.20887 25.6435 6.48072C25.3717 6.75256 25.2358 7.16033 25.2358 7.56809C25.2358 7.70402 25.2358 7.83994 25.5076 7.83994C25.6435 7.83994 25.7794 7.83994 25.9154 7.83994C26.3231 7.83994 26.595 7.83994 26.7309 7.29625C26.8668 6.75256 27.5465 6.34479 28.2261 6.48072C28.9057 6.61664 29.3134 7.16033 29.3134 7.70402C29.3134 8.38363 28.9057 8.92732 28.2261 9.06324C27.9542 9.06324 27.9542 9.19916 27.9542 9.47101C27.9542 9.60693 27.9542 9.74285 27.9542 9.87877C27.9542 10.5584 27.9542 10.5584 28.4979 10.4225C28.7697 10.2865 29.0416 10.2865 29.3134 10.0147C29.5853 9.87877 29.7212 9.87877 29.993 10.0147C30.9445 10.4225 31.3523 11.3739 31.2163 12.3254C31.0804 13.2768 30.129 13.9564 29.1775 13.9564C28.226 13.9564 27.4105 13.2768 27.2746 12.3254C27.2746 12.0535 27.1387 11.9176 26.8668 12.0535C26.7309 12.0535 26.595 12.0535 26.4591 12.0535C25.7794 12.0535 25.7794 12.0535 25.9154 12.7331C26.3231 14.9079 28.9057 16.1312 30.8086 15.0438C31.4882 14.6361 32.3037 14.9079 32.5756 15.7234C32.7115 16.403 32.4396 17.0827 31.76 17.3545Z" fill="#D6EBFF"></path>
    <path id="Vector_3" d="M20.4742 16.1309C20.4742 13.0046 20.4742 10.0143 20.4742 6.88813C20.4742 5.52891 19.7946 4.44153 18.4354 4.16969C17.348 3.76192 16.1247 4.30561 15.4451 5.39299C15.3092 5.66483 15.1732 5.52891 15.0373 5.52891C13.1344 4.98522 11.3674 6.75221 11.7752 8.65512C11.7752 8.92697 11.7752 9.06289 11.5033 9.19881C9.87227 10.0143 9.19268 11.7813 9.8723 13.4124C10.0082 13.6842 10.0082 13.6842 9.73636 13.8202C8.78491 14.3639 8.24121 15.1794 8.24121 16.1309C8.24121 17.2182 8.78491 18.0338 9.73636 18.4415C10.0082 18.5775 10.0082 18.5775 9.8723 18.8493C9.19268 20.4804 9.87227 22.2474 11.5033 23.0629C11.6393 23.1988 11.7752 23.1988 11.7752 23.4707C11.3674 25.3736 13.1344 27.1406 15.0373 26.7328C15.3092 26.5969 15.4451 26.7328 15.581 27.0046C16.3965 28.2279 17.8917 28.4998 19.115 27.8202C20.2024 27.2765 20.4742 26.325 20.4742 25.1017C20.4742 22.2474 20.4742 19.1211 20.4742 16.1309ZM18.9791 26.0532C18.7072 26.5969 18.2995 26.8687 17.7558 26.8687C17.2121 26.8687 16.8043 26.5969 16.5325 26.1891C16.3966 26.0532 16.3966 25.9173 16.5325 25.6454C16.8043 25.2376 16.9402 24.8299 16.9402 24.4221C16.9402 24.2862 16.9403 24.1503 16.6684 24.1503C16.5325 24.1503 16.3965 24.1503 16.2606 24.1503C15.8529 24.1503 15.581 24.1503 15.4451 24.694C15.3092 25.2376 14.6296 25.6454 13.95 25.5095C13.4063 25.3736 12.8626 24.8299 12.8626 24.2862C12.8626 23.6066 13.2704 23.0629 13.95 22.927C14.2218 22.927 14.3577 22.791 14.2218 22.5192C14.2218 22.3833 14.2218 22.1114 14.2218 21.9755C14.2218 21.5677 14.2218 21.5677 13.814 21.5677C13.4063 21.7037 12.9985 21.7037 12.7266 21.9755C12.5907 22.1114 12.3189 22.1114 12.1829 21.9755C11.2315 21.7037 10.6878 20.7522 10.8237 19.8008C10.9596 18.8493 11.7752 18.0338 12.8626 18.0338C13.814 18.0338 14.7655 18.7134 14.9014 19.6648C14.9014 19.9367 15.0373 20.0726 15.3092 20.0726C15.4451 20.0726 15.581 20.0726 15.7169 20.0726C16.2606 20.0726 16.2606 20.0726 16.1247 19.5289C15.7169 17.2182 13.1344 15.859 11.0956 17.2182C10.8237 17.3542 10.5519 17.3542 10.28 17.2182C9.73636 16.9464 9.4645 16.6745 9.4645 16.1309C9.4645 15.5872 9.60043 15.1794 10.1441 14.7716C10.416 14.6357 10.8237 14.4998 11.0956 14.7716C13.1344 15.9949 15.8528 14.6357 16.1247 12.325C16.1247 12.0532 16.1247 11.9173 15.7169 11.9173C15.4451 11.9173 15.1732 11.9173 14.9014 11.9173C14.6296 12.0532 14.7655 12.325 14.6296 12.5969C14.2218 13.4124 13.4063 13.9561 12.4548 13.8202C11.5034 13.6842 10.8237 13.0046 10.6878 12.0532C10.5519 11.2376 11.0956 10.2862 12.047 10.0143C12.3189 9.87842 12.4548 9.87843 12.5907 10.1503C12.9985 10.4221 13.4063 10.558 13.814 10.558C13.95 10.558 14.0859 10.558 14.0859 10.2862C14.0859 10.1503 14.0859 10.0143 14.0859 9.87842C14.0859 9.47066 14.0859 9.19881 13.5422 9.06289C12.9985 8.92697 12.5907 8.24736 12.7266 7.56774C12.8626 6.88813 13.4063 6.48037 13.95 6.48037C14.4937 6.48037 15.1733 6.88813 15.3092 7.43182C15.4451 7.83959 15.581 7.83959 15.8529 7.83959C15.9888 7.83959 16.1247 7.83959 16.2606 7.83959C16.8043 7.83959 16.8043 7.83959 16.6684 7.2959C16.5325 7.02406 16.5325 6.61629 16.2606 6.34444C16.1247 6.20852 16.1247 6.0726 16.2606 5.80076C16.5325 5.25707 17.2121 4.98522 17.7558 5.12114C18.2995 5.25707 18.7072 5.80076 18.8431 6.34444C18.8431 6.48037 18.8431 6.61629 18.8431 6.75221C18.8431 9.7425 18.8431 12.8687 18.8431 15.859C18.8431 18.9852 18.8431 21.9755 18.8431 25.1017C19.115 25.5095 19.115 25.7813 18.9791 26.0532Z" fill="#D6EBFF"></path>
    <path id="Vector_4" d="M7.70015 10.6944C7.29238 10.6944 6.88459 10.5585 6.61275 10.4226C5.66129 10.0148 5.11763 9.1993 5.11763 8.11192C5.11763 7.56823 4.84576 7.29639 4.57391 7.29639C4.16614 7.29639 3.89433 7.56823 3.75841 8.11192C3.62249 9.47114 2.67101 10.4226 1.31178 10.6944C0.632171 10.8304 0.360352 10.9663 0.360352 11.3741C0.360352 11.7818 0.632171 12.0537 1.31178 12.0537C2.26324 12.1896 2.94286 12.5974 3.48655 13.5488C3.75839 13.9566 3.75841 14.3643 3.75841 14.908C3.75841 15.3158 4.03025 15.4517 4.43802 15.4517C4.70987 15.4517 4.98171 15.3158 5.11763 14.908C5.11763 14.7721 5.11763 14.6362 5.11763 14.5003C5.25356 13.5488 5.66132 12.8692 6.47686 12.3255C6.88462 12.0537 7.29239 12.0537 7.83608 11.9177C8.24385 11.9177 8.37976 11.6459 8.37976 11.3741C8.24384 10.9663 8.10792 10.8304 7.70015 10.6944ZM5.25352 11.51C4.84576 11.7818 4.57394 12.1896 4.30209 12.5974C4.03025 12.1896 3.75839 11.7818 3.35062 11.6459C3.2147 11.51 3.2147 11.51 3.35062 11.3741C3.62246 11.1022 3.89432 10.8304 4.16616 10.5585C4.30208 10.4226 4.3021 10.4226 4.43802 10.5585C4.70987 10.8304 4.98168 11.1022 5.25352 11.3741C5.38945 11.3741 5.38945 11.3741 5.25352 11.51Z" fill="#D6EBFF"></path>
    <path id="Vector_5" d="M11.5066 3.89806C10.6911 3.89806 10.0114 3.49029 9.46776 2.81068C9.19591 2.40291 9.06 1.85922 8.92408 1.31553C8.92408 0.771845 8.65223 0.5 8.24446 0.5C7.8367 0.5 7.56485 0.771845 7.56485 1.31553C7.56485 1.45146 7.56484 1.7233 7.42892 1.85922C7.15708 2.9466 6.20564 3.76214 4.98234 3.89806C4.57457 3.89806 4.30271 4.03398 4.16679 4.44175C4.03087 4.84951 4.30272 5.25728 4.98234 5.25728C6.34156 5.3932 7.29301 6.34466 7.56485 7.70388C7.70077 8.3835 7.8367 8.65534 8.24446 8.65534C8.65223 8.65534 8.92408 8.3835 8.92408 7.70388C8.92408 7.29612 9.19591 6.88835 9.46776 6.48058C10.0114 5.80097 10.6911 5.3932 11.5066 5.3932C12.0503 5.3932 12.3221 5.12136 12.3221 4.71359C12.3221 4.1699 12.0503 4.03398 11.5066 3.89806ZM8.51633 5.66505C8.3804 5.80097 8.38039 5.80097 8.24446 5.66505C7.97262 5.25728 7.56484 4.98544 7.29299 4.71359C7.70076 4.44175 8.10855 4.03398 8.38039 3.62621C8.78816 4.03398 9.05999 4.44175 9.46776 4.71359C9.05999 4.98544 8.78817 5.25728 8.51633 5.66505Z" fill="#D6EBFF"></path>
  </g>
</svg>
