<?xml version="1.0" encoding="UTF-8"?><svg id="Layer_1" xmlns="http://www.w3.org/2000/svg" xmlns:xlink="http://www.w3.org/1999/xlink" viewBox="0 0 41.07 39.92"><defs><style>.cls-1{fill:#222f6e;}.cls-1,.cls-2{stroke-width:0px;}.cls-2{fill:none;}.cls-3{clip-path:url(#clippath);}</style><clipPath id="clippath"><rect class="cls-2" x=".08" y=".04" width="40.98" height="39.88"/></clipPath></defs><g class="cls-3"><g id="Frame"><g id="Group"><path id="Vector" class="cls-1" d="M39.95,20.78c-1.44-1.29-2.71-2.73-3.99-4.02q-.16-.16-.32-.32c-.32-.16-.48-.16-.8,0-.32.16-.48.32-.48.64s.16.48.32.8c1.44,1.45,2.87,2.89,4.31,4.34.64.64.64,1.45,0,2.09-.64.48-1.44.48-2.07,0-.32-.32-.64-.64-.96-.96-3.67-3.7-7.34-7.4-11-11.09-.32-.32-.16-.32,0-.64.48-.48.96-.96,1.44-1.45.16-.16.32-.16.48,0,.8.8,1.59,1.61,2.39,2.41.16.16.32.32.48.32.32.16.8,0,.96-.32s.16-.64-.16-.96c-.8-.8-1.59-1.61-2.39-2.41-.16-.16-.16-.32,0-.48.8-.96,1.12-1.93,1.28-3.06.16-2.09-1.12-4.02-2.87-4.82-1.91-1.13-4.15-.8-5.74.48-.16.16-.32.16-.48,0-2.07-1.77-5.1-1.77-7.02,0-1.91,1.93-2.07,4.98-.32,7.24.16.16.16.32,0,.48-2.07,2.09-4.31,4.18-6.38,6.27-1.91,1.93-3.83,3.86-5.74,5.79-1.12,1.13-1.12,2.73-.32,3.86.96,1.13,2.39,1.45,3.83.8,0,0,.16-.16.32,0v11.58c0,1.45.96,2.57,2.55,2.57h26.47c1.59,0,2.55-1.13,2.55-2.57v-11.58q.16,0,.32.16c1.75.96,3.67,0,4.31-1.93q0-.16.16-.32v-.96c-.16-.64-.48-1.29-1.12-1.93ZM13.64,3.9c.48-1.45,1.75-2.25,3.19-2.25.96,0,1.75.32,2.39.96.16.16.48.48.64.64.48.48.8.48,1.28,0,.16-.16.48-.48.64-.64,1.44-1.29,3.67-1.29,4.94.16,1.28,1.45,1.28,3.54,0,4.98-1.91,1.93-3.99,3.86-5.9,5.79-.16.16-.32.16-.48,0-1.91-1.93-3.99-3.86-5.9-5.79-1.12-1.13-1.28-2.41-.8-3.86ZM4.07,24.16c-.8.8-2.07.48-2.39-.64v-.32c0-.48.16-.8.48-1.13,2.23-2.25,4.47-4.5,6.54-6.59,1.75-1.77,3.51-3.54,5.26-5.31.16-.16.32-.16.48,0,.64.48,1.12.96,1.59,1.45.16.16.16.32,0,.48-1.91,1.93-3.99,4.02-6.06,6.11-1.91,1.93-3.83,3.86-5.9,5.95ZM17.47,32.68c-.96.64-1.44,1.77-1.44,2.89v2.25q0,.32-.32.32h-3.99c-.16,0-.32,0-.32-.32v-8.04c0-1.13.48-1.93,1.44-2.41.16-.16.32-.16.48,0,1.44.96,3.03.96,4.47,0,.16-.16.32-.16.48,0,.32.16.8.48.96.96-.96.48-1.59,1.29-1.75,2.25-.16.48,0,1.13.16,1.61.16.32,0,.48-.16.48ZM13.32,24.16c0-1.29,1.12-2.41,2.39-2.25,1.28,0,2.39,1.13,2.39,2.41s-1.12,2.25-2.39,2.25-2.39-.96-2.39-2.41ZM20.66,29.79c.8,0,1.44.64,1.44,1.61,0,.8-.64,1.61-1.59,1.61-.8,0-1.59-.64-1.59-1.61.16-.96.96-1.61,1.75-1.61ZM23.53,37.99c0,.32-.16.16-.32.16h-5.1q-.32,0-.32-.32v-2.25c0-.64.16-1.29.8-1.61.16-.16.32-.16.48,0,1.12.64,2.23.64,3.19,0,.16-.16.32-.16.32,0,.48.32.64.64.8,1.13.16.96,0,1.93.16,2.89ZM29.27,38.15h-3.83c-.32,0-.32-.16-.32-.32v-2.73c-.16-.96-.48-1.77-1.28-2.41q-.16-.16-.16-.48c.48-1.45,0-3.05-1.44-3.86q-.16-.16,0-.32t.32-.32q.64-.48,1.28-.16c1.44.64,2.71.64,3.99-.16.16-.16.32-.16.48,0,.96.48,1.44,1.29,1.44,2.41v8.04q-.16.32-.48.32ZM23.21,24.32c0-1.29,1.12-2.41,2.39-2.41s2.23,1.13,2.23,2.41-.96,2.25-2.39,2.25c-1.28,0-2.23-.96-2.23-2.25ZM34.85,37.34c0,.64-.16.96-.96.96h-2.39c-.32,0-.32-.16-.32-.32v-7.56c0-1.77-.48-3.22-2.07-4.18-.32-.16-.16-.32,0-.48.8-1.77.16-3.86-1.59-4.98-1.44-.8-3.35-.8-4.62.32-1.28,1.13-1.75,2.89-1.12,4.5.16.32.16.48-.16.64-.32.16-.64.48-.96.8q-.16.16-.32,0c-.32-.32-.64-.64-.96-.96q-.16,0-.16-.32c.64-1.61.32-3.22-.96-4.34-1.28-1.29-3.35-1.45-4.94-.48-1.59,1.13-2.07,3.06-1.44,4.66.16.32.16.48-.16.64-1.28.8-1.91,1.93-1.91,3.54v8.04c0,.32-.16.48-.48.48h-2.39c-.64,0-.8-.32-.8-.8v-12.86c0-.32,0-.48.32-.64,3.51-3.54,7.02-7.07,10.68-10.77.32-.32.48-.32.64,0,.64.64,1.44,1.29,2.07,2.09.48.48.8.48,1.28,0,.8-.64,1.44-1.45,2.23-2.09q.32-.32.64-.16c3.51,3.54,7.18,7.24,10.68,10.77.16.16.16.32.16.48v13.02Z"/></g></g></g></svg>