<?xml version="1.0" encoding="UTF-8"?><svg id="Layer_1" xmlns="http://www.w3.org/2000/svg" viewBox="0 0 281.7 70"><defs><style>.cls-1{fill:#1a31b7;}.cls-2{fill:#f6042e;fill-rule:evenodd;}.cls-3{fill:#fff;}.cls-4{fill:#00a0b0;}</style></defs><g id="Layer_2"><g id="Layer_1-2"><path class="cls-4" d="M281.67,9.71c-.06,15.2.09,39.17,0,51.82-.04,4.69-3.84,8.46-8.53,8.47H98.66c15-23.67,54.14,17.09,56.6-60.55.14-4.61,3.91-8.28,8.52-8.29h109.36c4.71,0,8.52,3.8,8.53,8.51,0,.01,0,.03,0,.04Z"/><path class="cls-3" d="M186.89,25.25c0,.76-.05,1.51-.15,2.26-.11.69-.29,1.36-.55,2-.42,1.15-1.15,2.16-2.1,2.93-.7.55-1.49.97-2.33,1.25-1.08.28-2.2.41-3.32.38h-8.44V15.79h8.3c2.89,0,5.03.77,6.44,2.32,1.41,1.55,2.12,3.93,2.15,7.14ZM182.25,24.93c0-2.06-.27-3.48-.82-4.26-.8-.88-1.98-1.31-3.16-1.17h-3.94v10.87h3.94c1.17.14,2.33-.29,3.13-1.15.6-.77.85-2.22.85-4.29Z"/><path class="cls-3" d="M204.5,26.78c0,.55-.02,1.1-.07,1.65-.05.47-.12.94-.2,1.39-.11.7-.4,1.36-.86,1.91-.72.87-1.67,1.53-2.73,1.91-1.3.45-2.68.66-4.06.62-1.36.03-2.71-.17-4-.6-1.09-.39-2.05-1.06-2.81-1.93-.39-.56-.65-1.19-.77-1.86-.2-1.02-.28-2.05-.26-3.09v-11h4.26v10.9c-.11,1.13.17,2.27.79,3.23.78.68,1.8,1.01,2.83.9,1.03.11,2.06-.22,2.84-.9.62-.96.9-2.09.79-3.23v-10.89h4.29l-.04,10.99Z"/><path class="cls-3" d="M229.52,34.09h-4.29v-7.38h-6.12v7.38h-4.29V15.79h4.29v7.21h6.12v-7.21h4.29v18.3Z"/><path class="cls-3" d="M249.24,24.93c0,3.19-.74,5.58-2.24,7.15-1.5,1.57-3.75,2.38-6.8,2.38s-5.39-.79-6.84-2.37-2.18-4-2.18-7.33c0-3.13.74-5.47,2.23-7,1.49-1.53,3.75-2.29,6.79-2.28,3.07,0,5.34.78,6.83,2.33s2.21,3.94,2.21,7.12ZM244.62,24.93c.12-1.56-.25-3.12-1.07-4.45-1.83-1.84-4.81-1.84-6.65,0,0,0,0,0,0,0-.39.53-.68,1.14-.83,1.79-.2.83-.29,1.68-.28,2.53-.13,1.6.25,3.19,1.08,4.56.8,1,2.05,1.54,3.33,1.43,1.27.08,2.5-.45,3.32-1.43.85-1.31,1.23-2.87,1.1-4.43h0ZM242.79,37.93h-4.54v-2h4.54v2Z"/><path class="cls-3" d="M265.7,34.08h-6.55c-1.11.03-2.22-.09-3.29-.36-.87-.25-1.67-.69-2.36-1.27-.94-.8-1.66-1.84-2.08-3-.5-1.36-.73-2.8-.7-4.25,0-3.21.69-5.59,2.08-7.14,1.39-1.55,3.53-2.32,6.44-2.32h6.46v3.66h-6.38c-.62-.02-1.25.08-1.83.3-.48.23-.89.57-1.2,1-.62.9-.93,2.45-.93,4.65-.13,1.35.18,2.72.88,3.88.81.81,1.94,1.21,3.08,1.08h6.38v3.77Z"/><path class="cls-3" d="M190.62,41.79l-5.62,13.66h-3.17l-5.83-13.66h3.62l3.74,9.4,3.86-9.4h3.4Z"/><path class="cls-3" d="M194.88,55.45h-3.34v-13.66h3.34v13.66Z"/><path class="cls-3" d="M221,44.57h-4.25v10.86h-3.29v-10.86h-4.21v-2.78h11.75v2.78Z"/><path class="cls-3" d="M242.3,55.45h-3.15l.19-9-2.92,9h-3.24l-3-9.09.22,9.09h-3.23v-13.66h4.41l3.18,9.59,3.14-9.59h4.42l-.02,13.66Z"/><path class="cls-3" d="M256.4,41.79l-5.22,7.64v6h-3.18v-6l-5.2-7.66h3.68l3.09,4.83,3.11-4.83,3.72.02Z"/><rect class="cls-3" x="200.91" y="56.97" width="2.78" height="1.41"/><path class="cls-3" d="M252.75,38.4c-.06.36-.16.71-.29,1.05-.11.26-.27.49-.48.68-.36.38-.86.58-1.38.56h-.62l-1.2-.26h-.3c-.14,0-.28.03-.4.1-.07,0-.14.19-.22.46h-1.37c.11-.63.37-1.23.77-1.73.35-.36.84-.55,1.34-.52h.64l1.15.26h.44c.12,0,.23-.05.32-.12.07-.04.12-.11.15-.18.05-.1.08-.2.1-.3h1.35Z"/><polygon class="cls-3" points="205.56 40.47 203.5 40.47 202.3 39.63 201.11 40.47 199.04 40.47 201.12 38.52 203.5 38.52 205.56 40.47"/><path class="cls-3" d="M207.62,44.46v-2.67h-10.62v13.66h10.63v-2.67h-6.39c-.78,0-1.41-.64-1.41-1.42h0c.03-.76.64-1.36,1.4-1.36h6.39v-2.72h-6.39c-.78,0-1.41-.63-1.41-1.41h0c0-.78.63-1.41,1.41-1.41h6.39Z"/></g></g><path class="cls-2" d="M130.19,50.79c-12.1,4.86-29.97-6.96-56.14-6.96-15.14,0-27.68,3.44-38.36,9.44-7.56,4.25-14.01,9.38-19.38,16.73h16.63c10.09-12.38,24.9-19.38,42.01-20.24,18.15-.92,33.2,6.15,46.5,5.6,11.19-.43,17.01-9.24,16.86-9.24-.14,0-2.47,2.56-8.14,4.69h.01s0-.01,0-.01ZM44.44,70h16.27c2.31-4.19,10.47-9.95,20.64-11.89,6.17-1.17,13.01-1.64,22.24-1.21,4.12.18,8.81.29,10.46,0-12.93-.92-24.99-3.82-37.68-2.33-19.98,2.36-29.23,12.06-31.94,15.42h.01,0ZM72.24,70h13.91c3.72-9.67,22.81-10.96,22.81-10.96,0,0-24.75-2.76-36.73,10.96h0Z"/><path class="cls-1" d="M55.08,41.51c7.1-1.53,13.44-2.03,18.95-2.03,12.97,0,19.25,1.41,31.32,4.94,8.73,2.56,13.94,3.32,17.85,3.32,8.37,0,21.14-3.32,21.14-16.18,0-10.33-8.84-12.73-18.98-13.79-10.14-1.06-16.56-1.29-16.56-4.84,0-4.09,3.62-5.13,9.47-5.13,6.33,0,9.01,1.36,9.01,5.9h14.95c.04-9.44-11.19-13.72-22.07-13.72-13.31,0-18.71,2.33-23.74,8.01V1.28h-15.05v23.27c0,7.72-2.23,10.3-9.92,10.3s-9.28-2.58-9.28-10.3V5.64l-13.68,27.45c-1.81,3.46.99,9.37,6.6,8.42h.01s-.01-.01-.01-.01ZM108.58,30.99h-12.16v-11.27c1.75,4.51,5.34,6.02,12.02,6.82,5.03.6,11.68,1.23,16.86,1.89,4.34.55,5.61,2.09,5.68,4.15,0,3.68-2.95,5.44-11.39,5.44-9.1,0-11.01-2.41-11.01-7.02h0Z"/><path class="cls-1" d="M58.93,1.28l-22.08,46.28c-5.44,2.53-7.55,3.98-11.47,6.56L0,1.28h15.77l13.32,31.01h.15L42.69,1.28h16.24Z"/></svg>