<?xml version="1.0" encoding="UTF-8"?><svg id="Layer_2" xmlns="http://www.w3.org/2000/svg" viewBox="0 0 362.81 90.26"><defs><style>.cls-1{fill:#ffdb00;}</style></defs><g id="Layer_1-2"><path class="cls-1" d="M7.46,26.47c.31,1.16.33,2.4.44,3.61.13,1.34.24,2.7.19,4.05-.04,1.2-.69,2.04-1.89,2.33-.38.11-.8.28-1.16.29-.22,0-.4,0-.58.07-1.2.44-2-.25-2.66-1.03-.48-.56-.84-1.26-.95-2.07-.16-1.19-.27-2.42-.36-3.62-.05-.67-.22-1.37-.35-2.03-.09-.49-.18-.94-.13-1.46.13-1.04.75-1.74,1.84-1.86.98-.11,1.98-.21,2.96-.29,1.16-.09,2.34.9,2.64,2.02h.01ZM17.97,24.59c.13,1.26.38,2.73.42,4.11.02.5.09.96.18,1.45.13.77.16,1.53.07,2.3-.19,1.65-1.18,2.17-2.31,2.31-.38.05-.75.09-1.13.23-.72.27-1.49.3-2.29.15-.68-.13-1.17-.52-1.42-1.12-.27-.66-.51-1.39-.53-2.11-.03-1-.23-2-.21-3,.02-1.45-.03-2.94.02-4.37.02-.65.3-1.12.9-1.39.37-.16.72-.35,1.05-.55.43-.26.86-.4,1.29-.48.97-.17,1.94.06,2.91.51.49.24.75.63.9,1.11.09.27.12.58.15.84h0Z"/><path class="cls-1" d="M22.91,27.72c.54-1.6,1.43-3.14,2.99-3.95,1.31-.69,2.7-1.34,4.18-1.57.54-.09,1.12-.14,1.69-.09.19,0,.37-.02.55-.05,2.1-.26,3.84.44,5.46,1.6.65.58.9,1.24.48,2.09-.39.78-.79,1.56-1.22,2.31-.23.43-.53.62-.88.68-.21.03-.44,0-.67-.04-.57-.09-1.19-.26-1.75-.37-.59-.12-1.25-.24-1.86-.14-2.01.32-3.26,3.13-3.39,4.87-.12,1.55-.13,3.16.96,4.49.22.25.42.54.58.84.43.65.98.98,1.76.94.84-.04,1.71-.14,2.52-.18.98-.06,1.61-.65,2.15-1.35.18-.24.32-.52.45-.83.23-.61.75-1.05,1.26-1.49.32-.27.65-.28.97-.08.76.42,1.55.81,2.16,1.47.17.19.31.38.52.53.8.49.84,1.22.56,2-.4,1.1-.9,2.2-1.66,3.13-.81.99-1.47,2.12-2.61,2.78-.99.57-2.01,1-3.14,1.18-2.72.43-5.54-.69-7.83-2.01-2.05-1.18-3.44-4.01-4.21-6.18-.33-.85-.65-1.66-.72-2.73-.63-2.6-.13-5.24.72-7.84h-.02Z"/><path class="cls-1" d="M42.49,24.57c-.09-.91-.15-1.83-.23-2.7-.15-1.7,1.82-2.35,3.23-2.56,3.07-.45,3.79,1.78,4.43,4.25.39,1.51.59,3.09.96,4.57.16.66.18.64.87.45.65-.18,1.34-.33,2.03-.43.5-.07,1.05-.07,1.52-.1.1,0,.26,0,.39-.05,1.1-.22,1.19-.38,1.11-1.48-.13-1.7-.3-3.48-.36-5.19-.02-.6.12-1.24.25-1.86.11-.52.46-.92,1.07-1.04,1.15-.22,2.35-.37,3.48-.18.63.11,1.13.46,1.39,1.04.44.8.52,1.66.7,2.49.3,1.39.52,2.83.57,4.23.05,1.23.21,2.54.36,3.75.26,2.16.86,4.39,1.13,6.56.14,1.16.26,2.39.39,3.53.02.21.02.39,0,.61-.12,1.31-.8,1.93-2.08,2.03-.78.06-1.58.07-2.32.17-.82.11-1.25.1-1.85-.58-1.18-1.2-1.94-6.16-2.16-7.78-.03-.21-.13-.35-.33-.28-.27.09-.56.15-.88.19-.96.13-1.93.02-2.88.22-.07,0-.15,0-.22,0-1.32.22-1.08.37-.95,1.25.27,1.9.46,3.83.71,5.72.17,1.29-.73,2.98-2.11,3.18-.71.1-1.46.2-2.16.03-.48-.11-.97-.16-1.44-.22-.68-.09-1.16-.48-1.36-1.13-.06-.13-.08-.28-.13-.38-.36-1.89-.73-3.79-1.06-5.63-.31-1.73-.72-3.56-.9-5.01-.33-2.58-.92-5.21-1.17-7.66h0Z"/><path class="cls-1" d="M74.93,40.95c-.59.18-1.19.32-1.83.4-2.03.25-3.51-.43-3.88-2.63-.11-.66-.17-1.3-.29-1.97-.39-2.46-.93-4.9-1.22-7.41-.28-2.44-.58-4.89-.6-7.35,0-.82-.22-1.66-.25-2.48-.02-.39-.07-.78.03-1.15.17-.92.43-1.2,1.33-1.39.29-.07.58-.11.83-.14.51-.06,1.02-.13,1.47-.33.91-.4,1.86-.54,2.8-.59.76-.05,1.5-.16,2.2-.41.48-.17,1-.26,1.55-.33.65-.08,1.35-.09,2.06-.02.15-.02.3.04.45.02.69-.12,1.36-.05,1.98.24.39.17,1.01-.07,1.21.29.29.51.46,1.17.43,1.78-.04.68.04,1.32.12,1.99.06.49.13.97.17,1.45.05.58-.1.73-.71.8-2.57.29-5.12.7-7.73.94-.22.03-.47.06-.72.12-.79.13-1.11.53-1.05,1.27.05.71.18,1.41.26,2.08.04.28.21.47.49.44.56-.05,1.18.04,1.77-.14.56-.17,1.14-.28,1.71-.35.83-.1,1.71-.18,2.5-.18.21,0,.48.05.54.26.2.48.58.86.64,1.39.1.81.21,1.64.28,2.4.07.73-.22,1.08-.95,1.22-.38.07-.79.17-1.15.13-.43-.04-.91-.04-1.34.02-.47.06-.93.15-1.38.31-.31.11-.6.15-.93.15-.29,0-.58.03-.82.1-.46.12-.56.34-.56.75,0,.21.02.43.07.6.14,1.09.14,1.05,1.21.96,1.68-.14,3.3-.58,4.86-.93.84-.19,1.68-.32,2.53-.36.92-.05,1.36.22,1.69,1.1.48,1.29.64,2.69.54,4.09-.05.75-.56,1.16-1.36,1.34-1.29.27-2.67.43-3.87.52-1.71.13-3.48.48-5.11,1.01h.03ZM79.4,11.77c.45.38.54.83.56,1.26.01.29-.24.62-.55.64-.83.05-1.61.44-2.44.57-.25.07-.54.08-.73.05-.24-.04-.46-.16-.52-.3-.24-.44-.71-.67-1.12-.94-.16-.12-.25-.19-.41-.31-.2-.12-.34-.1-.44.05-.26.6-.91,1.01-1.21,1.54-.09.19-.36.33-.65.37-.47.06-.7.09-1.16.14-.36.04-.73.08-1.1.1-.54.02-.86-.11-.92-.57-.05-.39.12-.8.33-1.19.72-1.31,1.6-2.49,2.6-3.69.25-.35.57-.72.76-1.06.14-.27.39-.44.63-.58.6-.25,1.13-.14,1.58.13.44.27.85.58,1.23.89.74.56,1.54,1.07,2.27,1.6.36.24.67.49.81.84.08.19.27.36.46.45h.04-.02ZM85.32,4.49c-.02.15-.08.29-.11.37-.32.75-.52,1.48-.83,2.09-.28.56-.53,1.18-.76,1.73-.28.67-.82.97-1.57,1.14-.67.15-1.86.27-2.45.28-.4,0-.71-.02-.77-.27-.07-.27-.01-.71.06-1.04.2-.81.44-1.59.64-2.4.03-.33.12-.66.24-1.07.11-.36.37-.76.61-1.11.29-.41.51-.51,1.05-.55.11,0,.22.01.37-.04.8-.2,1.99-.31,2.67-.37.57-.05,1.1.13.91.79-.01.22,0,.32-.05.51v-.07h-.01Z"/><path class="cls-1" d="M93.28,14.34c.22,1.18.15,2.42.17,3.63.03,1.35.03,2.72-.11,4.05-.13,1.19-.85,1.98-2.07,2.18-.39.08-.82.22-1.18.2-.22-.02-.41-.03-.58.03-1.24.35-1.98-.39-2.59-1.22-.43-.59-.74-1.32-.79-2.13-.07-1.2-.09-2.43-.09-3.64,0-.67-.12-1.38-.2-2.05-.06-.5-.11-.95-.02-1.46.21-1.03.88-1.67,1.98-1.72.99-.04,1.99-.06,2.98-.07,1.17,0,2.28,1.07,2.49,2.21h0ZM103.96,13.25c.04,1.27.17,2.75.12,4.13-.02.5.02.96.07,1.46.08.78.04,1.53-.1,2.3-.31,1.64-1.35,2.07-2.49,2.13-.38.02-.76.04-1.15.15-.74.22-1.52.19-2.3-.02-.67-.18-1.13-.61-1.33-1.22-.22-.68-.4-1.43-.37-2.14.04-1-.08-2.01.01-3,.13-1.44.19-2.93.35-4.36.07-.65.38-1.1,1.01-1.32.38-.13.75-.29,1.1-.47.45-.22.89-.34,1.33-.38.99-.1,1.94.21,2.88.73.47.28.7.69.82,1.17.07.28.08.58.08.85h-.03Z"/><path class="cls-1" d="M125.35,23.11c-.11-.91.03-1.86-.19-2.8-.23-.98-.64-1.4-1.68-1.33-.79.05-1.62.14-2.43.26-.39.06-.78-.03-1.14-.12-.87-.21-1.35-.72-1.53-1.59-.26-1.26-.37-2.58-.44-3.82-.02-.34,0-.73.2-1.02.18-.26.42-.44.77-.45.17,0,.37-.07.54-.08,1.49-.07,3.08-.27,4.59-.57.83-.17,1.67-.23,2.52-.3,1.43-.11,2.9-.14,4.33-.24,1.57-.11,3.17-.16,4.74-.07,1.1.06,1.68.47,1.95,1.51.15.59.19,1.16.16,1.77s-.04,1.26-.09,1.86c-.07.8-.43,1.3-1.25,1.47-1.18.24-2.35.48-3.54.7-.9.17-1.05.34-.97,1.17.15,1.56.23,3.16.28,4.76.02.78.24,1.6.36,2.36.24,1.57.48,3.18.71,4.73.14.95.14,1.9-.12,2.79-.3,1.01-1.18,1.68-2.19,1.65-.2,0-.44-.07-.61,0-.2.09-.42.14-.64.15-.72.05-1.37-.29-1.96-.64-.68-.4-1.03-1.14-1.09-1.92-.15-1.91-.52-3.88-.64-5.44-.13-1.7-.45-3.29-.64-4.8h0Z"/><path class="cls-1" d="M138.84,35.03c-1.21,0-1.69-.43-1.7-1.6,0-1.1.1-2.18.43-3.2.72-2.22,1.25-4.5,1.9-6.72.24-.76.44-1.56.72-2.29.49-1.35.56-2.83.96-4.16.43-1.43.8-2.9,1.22-4.31.12-.36.25-.73.44-1.1.65-1.25.94-1.45,2.43-1.67.26-.05.51-.1.73-.15,1.24-.25,2.36.01,3.45.45.38.12.58.4.74.71.54,1.04,1.18,2,1.83,2.97.32.41.53.9.74,1.39.86,2.2,1.89,4.35,2.95,6.47.45.9.75,1.85,1.24,2.75.2.38.4.74.64,1.07.29.41.51.83.68,1.28.42,1.05.86,2.11,1.24,3.11.3.78.34,1.66.23,2.48-.08.57-.39,1.02-1.06,1.12-.75.11-1.5.32-2.25.46-.32.09-.66.09-.97.12-.58.06-1.16-.23-1.41-.75-.28-.59-.81-1.03-1.1-1.62s-.74-.92-1.49-.74c-.32.09-.7.04-1.05,0-.29-.05-.62-.04-.94.02-.28.05-.61.11-.93.09-1-.07-2.02.25-3.03.1-.36-.05-.49.21-.58.5-.14.43-.34.91-.49,1.35-.06.15-.09.29-.16.4-.45.95-1.09,1.63-2.29,1.49-.22-.02-.47,0-.72,0-.77.03-1.63-.02-2.42-.02h.02ZM150.9,3.26c-.03.14-.09.29-.13.36-.36.73-.6,1.45-.95,2.04-.32.54-.59,1.14-.86,1.68-.32.66-.87.92-1.63,1.05-.68.11-1.88.17-2.46.14-.4-.02-.71-.06-.76-.31-.05-.27.03-.71.12-1.04.24-.8.53-1.56.77-2.36.05-.32.16-.66.3-1.05.13-.35.41-.74.67-1.07.31-.39.54-.48,1.08-.49.11,0,.22.02.37-.02.81-.15,2.01-.2,2.69-.22.58-.02,1.09.19.87.84-.02.22-.02.32-.08.5v-.07.02ZM148.02,25.14c.16,0,.24,0,.4-.02.94-.09,1.28-.57,1.04-1.48,0-.07-.08-.17-.09-.28-.27-1.52-1.08-2.83-1.71-4.21-.05-.18-.17-.35-.39-.33-.25.01-.35.2-.41.42-.39,1.41-1.05,4-.91,5.39.04.44.36.71.8.67.38-.04,1.08-.13,1.26-.14v-.02Z"/><path class="cls-1" d="M161.58,13.21c.73-1.53,1.81-2.94,3.47-3.56,1.4-.53,2.87-1,4.37-1.06.55-.02,1.14,0,1.7.12.19.03.37.02.55.02,2.14,0,3.8.9,5.28,2.25.58.66.75,1.34.22,2.13-.48.72-.97,1.45-1.5,2.15-.28.4-.6.55-.97.56-.22,0-.44-.06-.66-.12-.56-.16-1.16-.4-1.71-.58-.57-.19-1.23-.38-1.85-.36-2.05.07-3.64,2.71-3.98,4.42-.31,1.53-.52,3.12.42,4.57.19.28.35.59.48.91.36.7.86,1.09,1.65,1.15.85.06,1.73.07,2.55.12.99.06,1.69-.45,2.32-1.08.21-.22.38-.48.55-.77.31-.58.87-.95,1.44-1.33.36-.22.68-.2.98.04.71.51,1.45.99,1.99,1.72.15.21.27.42.46.59.75.58.7,1.31.32,2.05-.53,1.04-1.17,2.08-2.04,2.91-.93.88-1.73,1.93-2.95,2.44-1.06.44-2.14.75-3.29.79-2.77.1-5.47-1.35-7.6-2.94-1.91-1.42-2.96-4.39-3.47-6.65-.23-.88-.45-1.72-.39-2.79-.32-2.66.5-5.22,1.67-7.69h-.01Z"/><path class="cls-1" d="M195.08,12.23c.78-1.51,1.9-2.89,3.58-3.46,1.42-.48,2.9-.92,4.41-.93.55,0,1.14.03,1.7.17.19.03.37.03.55.03,2.14.06,3.78,1.01,5.23,2.4.56.68.71,1.36.16,2.13-.5.71-1.02,1.42-1.56,2.1-.29.39-.62.54-.99.54-.22,0-.44-.07-.66-.14-.55-.18-1.15-.44-1.7-.63-.57-.2-1.22-.42-1.84-.42-2.06.01-3.72,2.6-4.12,4.31-.35,1.52-.61,3.1.29,4.58.19.28.34.6.45.92.34.71.83,1.12,1.62,1.19.85.08,1.73.12,2.55.19.99.09,1.71-.4,2.36-1.01.22-.21.4-.46.58-.75.32-.57.9-.93,1.49-1.29.36-.21.69-.18.99.07.7.53,1.43,1.03,1.94,1.78.15.21.26.43.44.6.73.61.66,1.33.26,2.06-.56,1.03-1.23,2.04-2.13,2.84-.96.86-1.79,1.88-3.03,2.36-1.07.41-2.17.69-3.32.69-2.78.02-5.44-1.51-7.53-3.16-1.87-1.47-2.84-4.48-3.29-6.74-.2-.89-.4-1.74-.31-2.8-.24-2.66.65-5.2,1.89-7.64h-.01Z"/><path class="cls-1" d="M234.85,19.97c.02,1.1-.21,2.17-.38,3.23-.2,1.35-1.15,4.21-2.04,5.3-1.23,1.93-2.26,3.05-4.55,3.91-1.35.48-2.82.83-4.24.66-.25-.03-.65-.11-.9-.19-.69-.22-1.37-.44-2.1-.66-.97-.29-1.7-.86-2.39-1.61-.9-.99-1.3-2.21-1.85-3.32-.22-.5-.41-1.04-.66-1.5-.33-.63-.44-1.28-.55-1.96-.19-1.14-.3-2.24-.26-3.34-.3-1.57-.12-3.09-.16-4.66-.04-1.53-.08-3.13-.06-4.66,0-.84.29-1.71.51-2.52.04-.21.26-.46.44-.6.55-.32,1.08-.66,1.73-.67,1.17-.01,2.35,0,3.51.02.58.01.8.24.78.79-.02.62.22,1.21.22,1.82s.12,1.26.18,1.85c.09.84.17,1.83-.04,2.67-.06.24-.11.5-.11.78-.02,1.44-.04,2.95-.05,4.41,0,1.28.2,2.54.46,3.77.19.91.98,1.5,1.78,1.94.29.18.62.26.91.26.33,0,.66-.1.95-.34.66-.49,1.23-1.04,1.47-1.83.17-.56.42-.75.49-1.34.05-.38.16-1.03.19-1.14.34-.71.23-1.17.24-1.92,0-1.46.02-2.92.04-4.34.02-2.38.07-3.77.52-6.11.12-.57.84-1.11,1.49-1.12.91,0,1.83.01,2.7.05.65.02,1.18.35,1.36.95.24.82.51,1.62.49,2.43-.04,1.62-.04,3.27-.06,4.91-.02,1.35-.08,2.74-.06,4.09h0ZM220.54,1.39c-.07-.18-.07-.29-.11-.5-.26-.64.24-.87.82-.88.69-.01,1.95-.05,2.72.1.14.03.26,0,.37,0,.56-.03.78.06,1.12.44.28.32.59.69.74,1.04.17.39.29.71.37,1.04.29.79.62,1.54.92,2.32.11.32.22.76.18,1.03-.03.25-.34.31-.74.35-.58.05-1.79.05-2.48-.03-.77-.09-1.34-.34-1.7-.98-.3-.53-.61-1.12-.96-1.64-.38-.58-.67-1.29-1.08-2-.04-.07-.11-.21-.15-.36v.07h-.02Z"/><path class="cls-1" d="M244.44,30.2c0,.46-.05.97-.11,1.46-.04.31-.21.47-.56.45-.93-.07-1.95.02-2.87-.11-.74-.11-1.52-.25-2.32-.27-.58,0-.82-.31-.82-.87,0-1.51.07-3.07,0-4.59-.04-1.09-.06-2.22-.05-3.31.02-2.15-.08-4.35.14-6.47.12-1.13.02-2.3.02-3.41,0-.94.18-1.85.49-2.76.12-.35.27-.71.53-.98.45-.56,1.06-.82,1.83-.74,1.23.12,2.49.38,3.73.63.43.09.77.31,1.06.63,1.09,1.21,2.17,2.36,3.21,3.55.99,1.13,2.16,2.17,3.2,3.27.22.19.36.44.5.69.46.69.95,1.39,1.6,1.94.39.34.64.84.95,1.28.07.07.18.15.29.12.04-.03.08-.1.08-.14-.08-.89.28-1.74.41-2.58.29-1.83.16-3.77.36-5.61.04-.38.1-.74.18-1.13.37-1.37,1.53-2.09,2.95-1.77.55.12,1.12.29,1.65.5.47.18.8.61.89,1.11.04.24.09.47.12.72-.02,1.56.14,3.15.17,4.67.03,1.7-.05,3.42-.08,5.12-.01.28-.02.57-.07.82-.12.59-.17,1.18-.14,1.77.03.7.04,1.44-.05,2.17-.08.73-.06,1.53-.01,2.28.07,1.11.06,2.18-.05,3.24-.06.57-.21.7-.76.82-.07.03-.15.03-.22.03-1.16-.05-2.29.08-3.46.25-.44.05-.92-.07-1.38-.16-.57-.12-.97-.39-1.35-.91-1.32-2.01-2.71-4.01-4.19-5.95-.85-1.13-1.88-2.2-2.84-3.26-.39-.44-.86-.84-1.21-1.32-.11-.18-.29-.33-.43-.47-.29-.26-.61-.44-.98-.28-.37.17-.31.52-.28.81.04,1.6.02,3.22-.03,4.55-.06,1.54-.07,2.91-.1,4.23v-.02Z"/><path class="cls-1" d="M265.91,16.34c.45-1.01,1.04-1.95,1.7-2.88,2.08-2.86,7.74-4.03,11.04-3.84.37.02.74.05,1.11.14.58.14,1.23.19,1.81.28,1.13.19,1.9.83,2.25,1.78.49,1.33.52,2.7-.4,3.89-.6.82-1.44,1.13-2.53.99-.84-.11-1.73-.24-2.61-.3-.89-.05-1.81-.03-2.75.2-.11.06-.26.06-.37.05-2.47-.13-4.1,2.93-4.28,4.9-.08.88-.12,1.81-.01,2.71.1.86.56,1.49,1.19,2.02.28.23,1.87,1.63,2.19,1.68.58.1,1.13.2,1.71.24.84.05,1.7-.04,2.48-.47.75-.41,1.14-1.36.88-2.16-.06-.25-.28-.3-.5-.31-1.01-.08-2.09-.2-3.11-.28-1.45-.12-1.51-.16-1.72-1.59-.17-1.14-.02-2.29-.09-3.42-.05-.71.29-.97.97-1.02.75-.05,1.59-.09,2.36-.05.63.04,1.29.14,1.9.36.11.04.22.08.33.09,1.22-.07,2.4.41,3.59.57,1.48.2,1.81.52,2.07,1.98.35,1.97.38,3.98-.16,5.91-.21.76-.42,1.51-.75,2.27-.88,1.83-2.23,3.21-4.11,4.17-.94.55-1.89.64-2.87.58-1.34-.08-2.68-.29-3.89-.86-.36-.16-.8-.25-1.22-.28-1.93-.14-3.33-1.24-4.54-2.62-.14-.18-.28-.37-.42-.48-.74-.64-1.17-1.49-1.51-2.39-.32-.87-.65-1.78-.95-2.68-.32-.97-.39-2.02-.35-3.08.07-2.11.71-4.17,1.57-6.12v.02Z"/><path class="cls-1" d="M311.53,35.96c-.78-.09-1.9-.34-2.93-.5-.67-.11-1.09-.59-1.37-1.19-.94-2.08-1.86-4.21-2.68-6.29-.97-2.45-1.89-4.97-2.74-7.49-.19-.51-.33-1.06-.63-1.55-.86-1.53-1.15-3.23-1.6-4.87-.15-.55-.05-1.06.18-1.56.24-.51.63-.94,1.26-.97,1-.05,1.99-.17,2.99-.09,1.3.1,2.85.41,3.19,1.83.17.8.52,1.51.65,2.34.06.18.16.37.29.56,1.02,1.83,1.57,3.81,2.12,5.82.26.92.53,1.79.9,2.68.13.26.24.27.41,0,.46-.67.7-1.49.92-2.2.23-.75.54-1.46.88-2.14.5-1,1-2.08,1.3-3.17.23-.86.72-1.66,1.02-2.52.47-1.34,2.2-1.3,3.46-1.19.74.07,1.53.23,2.29.36.83.13,1.28.92,1.04,1.85-.18.68-.38,1.39-.67,2.08-.75,1.82-1.4,3.69-2.29,5.46-.27.55-.54,1.06-.8,1.6-1.1,2.01-1.89,4.18-2.75,6.28-.57,1.4-1.05,2.87-1.97,4.14-.46.64-1,.89-1.79.77-.1-.02-.26,0-.65-.06l-.03.02Z"/><path class="cls-1" d="M343.5,27.24c-.08,1.1-.42,2.14-.67,3.18-.33,1.32-1.55,4.08-2.54,5.08-1.41,1.81-2.55,2.83-4.93,3.46-1.4.35-2.91.56-4.33.25-.24-.05-.64-.17-.89-.27-.67-.28-1.34-.57-2.05-.85-.95-.38-1.63-1.02-2.25-1.83-.82-1.08-1.11-2.33-1.55-3.48-.17-.52-.32-1.07-.52-1.55-.28-.66-.32-1.32-.37-2-.08-1.15-.09-2.26.04-3.35-.15-1.59.17-3.09.27-4.65.1-1.53.21-3.12.37-4.64.09-.83.45-1.67.74-2.47.06-.21.3-.44.5-.56.59-.26,1.15-.56,1.81-.5,1.17.1,2.36.22,3.53.35.58.07.78.31.71.86-.08.61.11,1.23.05,1.83s0,1.26.01,1.86c0,.84,0,1.84-.29,2.65-.08.23-.15.49-.18.77-.16,1.43-.32,2.94-.46,4.39-.12,1.27-.03,2.55.12,3.8.11.92.85,1.59,1.61,2.1.28.21.6.31.89.34.33.03.67-.04.99-.25.71-.42,1.34-.92,1.65-1.68.22-.54.49-.71.61-1.29.08-.38.25-1.01.3-1.11.4-.67.34-1.14.41-1.89.15-1.45.29-2.9.43-4.32.24-2.37.41-3.75,1.09-6.04.17-.55.94-1.03,1.6-.97.91.08,1.84.19,2.71.3.65.09,1.15.46,1.28,1.08.17.84.36,1.66.27,2.47-.19,1.61-.34,3.25-.52,4.88-.14,1.34-.33,2.72-.43,4.07v-.02Z"/><path class="cls-1" d="M357.36,16.47c.24.05.59.07.84.21,1.59.92,3.22,1.81,4.15,3.47.62,1.09.68,1.85-.23,2.84-.56.61-1.18,1.1-1.78,1.67-.34.35-.76.31-1.18.17-.21-.07-.43-.16-.56-.29-.24-.21-2.28-1.39-2.63-1.55-.53-.24-1.27-.09-1.57.31-.31.39-.27,1.4.1,1.77.24.21.52.39.8.53.92.47,1.8.91,2.54,1.61.2.2.49.36.78.39.54.05.89.4,1.25.77,1.19,1.3,2.06,2.78,2.29,4.46.36,2.55-.3,4.88-2.2,6.67-2.02,1.9-4.21,2-6.83,2.07-.3,0-.59.03-.88-.07-1.52-.58-3.13-.99-4.37-2.14-1.07-.99-2.78-3.19-3.02-4.73-.12-.59-.03-1.08.46-1.49s.92-.9,1.37-1.34c.5-.5,1.26-.96,2.03-.87.88.1,1.52,1.01,1.81,1.72.62,1.44,2.01,2.04,3.3,2.3.5.1,1.33-.52,1.52-.96.21-.47.07-1.25-.3-1.58-.68-.52-1.3-1.11-2.15-1.34-.28-.08-.57-.21-.78-.38-.95-.83-2.12-1.37-3.11-2.13-1.16-.89-1.51-2.18-1.74-3.5-.04-.33.03-.64-.05-.94-.33-1.4.1-2.67.55-3.98.05-.1.1-.24.19-.37,1.03-1.17,2.07-2.33,3.52-2.98,1.19-.53,2.51-.94,3.9-.56.22.06.41.05.63.08.45.05.93.09,1.34.17h.01Z"/><path d="M34.43,83.98c-.3.07-.63.1-.9.14-.48.08-.63-.29-.7-.68-.11-.63-.16-1.34-.21-1.99-.04-.48.54-.67.94-.73l.13-.02c.1-.02.21,0,.31-.02-.04-.27-.11-.55-.15-.81-.26-1.5-.47-3.09-.65-4.61-.11-.91.13-1.26,1-1.58.53-.19,1.09-.35,1.65-.43.35-.05.69-.08,1.05-.09.21,0,.42-.03.61-.07.44-.08.88-.03,1.33.07.61.14,1.27.19,1.9.37,1.04.35,2.01.76,2.63,1.68.4.57.87,1.14,1.26,1.71,1.18,1.67,1.47,3.55,1.43,5.51-.02,1.06-.82,3.28-1.28,4.21-.14.27-.28.52-.45.75-.92,1.02-1.94,1.89-3.36,2.18-.08.01-.15.02-.2.06-.4.39-.92.38-1.39.44-.64.09-1.34.12-1.99.18-.87.08-1.99-.58-2.16-1.69-.09-.59-.22-1.17-.35-1.72-.12-.55-.2-1.11-.29-1.68-.06-.4-.1-.8-.16-1.19h0ZM37.77,79.61c.02.12.04.3.07.32.15.08.92-.06,1.38-.06.49,0,.58.12.73.55.13.38.17.78.28,1.15.05.33.07.49.12.82.03.37-.05.49-.41.54-.4.06-.79.22-1.17.28-.07.01-.11.02-.18.03.11.57.19,1.15.31,1.68.04.16.09.35.29.39.27.04.55.04.81-.07.76-.42,1.39-1,1.65-1.82.29-.9.49-1.85.24-2.87-.27-1.09-.88-1.92-1.72-2.65-.06-.07-.17-.1-.25-.14-.49-.14-.73-.21-1.22-.35-.27-.09-.56-.03-.81-.03-.27,0-.43.15-.4.42.04.38.09.9.13,1.17s.09.44.13.66l.02-.02Z"/><path d="M52.79,88.27c-.41.14-.83.25-1.28.31-1.43.2-2.49-.25-2.77-1.8-.08-.46-.14-.92-.23-1.38-.32-1.7-.71-3.44-.94-5.2-.22-1.71-.46-3.44-.49-5.16-.01-.58-.17-1.17-.2-1.74-.01-.28-.05-.55.01-.81.11-.65.31-.84.92-.99.2-.05.4-.08.58-.11.36-.05.71-.1,1.03-.25.63-.29,1.3-.4,1.96-.46.53-.04,1.05-.13,1.54-.32.34-.13.7-.2,1.08-.25.46-.06.95-.08,1.44-.05.1-.01.21.02.31,0,.47-.08.95-.05,1.39.14.27.11.7-.06.85.19.21.36.34.82.32,1.24-.02.48.05.93.11,1.4.05.35.1.68.14,1.02.04.41-.06.51-.49.57-1.8.24-3.58.57-5.41.77-.15.02-.34.06-.5.1-.52.12-.77.39-.72.91.05.5.14.99.21,1.46.03.2.16.33.35.3.39-.04.83.01,1.24-.12.39-.13.79-.21,1.2-.27.58-.08,1.2-.15,1.75-.17.15,0,.34.03.38.17.15.33.42.6.47.97.08.57.17,1.15.23,1.69.06.51-.14.77-.65.87-.27.06-.55.13-.81.11-.31-.02-.64-.01-.94.03-.33.05-.65.12-.97.24-.22.08-.42.11-.65.12-.2,0-.41.03-.58.08-.32.09-.39.25-.39.53,0,.15.03.31.06.42.17.68.11.74.86.66,1.18-.12,2.32-.46,3.41-.73.59-.14,1.18-.25,1.78-.3.65-.05.96.13,1.2.75.36.9.49,1.88.44,2.87-.03.53-.38.83-.94.96-.91.21-1.88.34-2.72.43-1.21.12-2.45.39-3.59.78v.02ZM55.57,67.66c.32.26.39.58.41.88.01.21-.16.44-.38.46-.58.05-1.15.31-1.7.44-.17.04-.36.05-.51.05-.19-.05-.33-.11-.37-.2-.17-.3-.5-.46-.79-.65-.12-.08-.17-.13-.29-.21-.14-.08-.24-.07-.31.04-.17.43-.62.72-.83,1.1-.06.13-.25.24-.46.27-.33.05-.49.07-.81.12-.25.04-.51.07-.77.08-.38.02-.61-.06-.65-.39-.04-.27.07-.57.22-.84.49-.93,1.1-1.78,1.78-2.63.17-.25.39-.52.52-.76.1-.19.27-.32.44-.42.42-.18.79-.11,1.1.07s.6.4.87.61c.52.38,1.09.73,1.61,1.09.26.17.47.34.57.58.06.14.19.25.33.31h.03-.01ZM58.97,63.66c-.17.32-.36.58-.58.89-.16.2-.37.42-.58.53-.34.18-.28.59-.25.67,0,.03,0,.05.01.07.04.12,0,.16-.13.19-.34.1-.76.15-1.11.2-.26.03-.58.13-.9.1-.05,0-.13.02-.13-.03-.12-.49-.05-.95.14-1.41.06-.11.13-.19.2-.25.26-.21.28-.4.58-.51.29-.11.33-.25.4-.51.02-.08.05-.23-.02-.33-.1-.16-.19-.28-.32-.44-.05-.02-.11-.01-.18,0-.56-.08-.45-.09-.9.25-.19.15-.05-.17-.15.07-.12.29-.45.49-.79.51-.19.02-.37-.03-.52-.18-.11-.11-.26-.22-.38-.33-.24-.22-.26-.53-.22-.8.05-.33.31-.57.54-.83.27-.31,1.24-.85,1.33-.92.19-.1.44-.21.67-.22.33-.02.67-.04.99-.03.31,0,.58.1.76.23.14.1.33.16.5.26.48.26.83.55,1.02,1.02.05.17.1.29.14.44.12.4.05,1-.13,1.36h0Z"/><path d="M73.8,68.16c.17.83.13,1.7.16,2.55.03.95.05,1.91-.04,2.85-.08.84-.59,1.4-1.43,1.56-.27.05-.57.17-.83.15-.15,0-.28-.01-.41.03-.87.26-1.4-.25-1.83-.83-.31-.41-.53-.92-.58-1.49-.06-.84-.08-1.71-.09-2.56,0-.47-.1-.97-.16-1.44-.04-.35-.09-.67-.03-1.03.14-.72.6-1.19,1.37-1.23.69-.04,1.39-.07,2.08-.08.82-.02,1.6.72,1.76,1.52h.03ZM81.25,67.25c-.02.96.15,1.93.13,2.91,0,.35.03.68.07,1.03.06.55.05,1.08-.04,1.62-.2,1.16-.92,1.48-1.72,1.54-.27.02-.54.04-.81.12-.52.16-1.06.15-1.61.02-.47-.12-.8-.41-.95-.84-.16-.48-.3-1-.28-1.5.02-.71-.08-1.42-.02-2.12.08-1.02.11-2.06.2-3.07.05-.46.26-.78.69-.94.27-.1.52-.22.76-.34.31-.16.62-.25.92-.29.69-.08,1.36.12,2.02.47.33.19.5.47.59.81.05.19.05.4.07.6l-.02-.02Z"/><path d="M83.82,67.63c0-.86.33-.94,1.09-1.03.66-.07,1.29-.33,1.94-.39.28-.03.53-.11.82-.07.1-.01.21,0,.31,0,.33-.09.66-.12.99-.16.76-.08,1.57-.1,2.35-.16,1.22-.09,2.46.11,2.76,1.49.13.61.03,1.26-.03,1.89-.09.89-1.27,1.14-2,1.22-.99.11-1.96.36-2.96.37h-.54c-.28.03-.25.19-.22.83.02.32-.11.67.06,1.03.13.26.31.43.61.44.52,0,1.11-.06,1.63-.05.53,0,1.12.03,1.64.05.62.03,1.29.24,1.41.93.15.83.1,1.7,0,2.54-.06.41-.32.68-.71.78-.62.16-1.25.24-1.91.31-.58.06-1.15.23-1.67.34-.17.03-.27.16-.27.31,0,.36.03.75.07,1.1.11.97.23,1.95.25,2.92,0,.85-.14,1.02-.98,1.27-.32.11-.67.15-1,.19-.15.02-.33.04-.48.05-.18.02-.34.05-.5.08-.46.09-.97-.35-1.09-.83-.16-.65-.31-1.33-.38-2-.17-1.61-.44-3.86-.55-4.83s-.39-3.54-.56-5.33c-.1-1.09-.1-2.18-.09-3.29h0Z"/><path d="M96.05,72.87c-.08-.99-.09-2.02-.11-3.01-.01-.67-.13-1.39-.16-2.05-.01-.21-.02-.48-.02-.73.08-.92,1.12-1.33,1.94-1.41.33-.03.7-.01,1.05,0,.25,0,.5.04.75,0,.36-.05.61.17.79.45.09.17.16.36.19.56.08.66.28,1.38.23,2.04-.03.37-.02.78.01,1.16.2,2.04.41,4.11.62,6.15.07.7.24.82.93.84,1.26.04,2.55-.06,3.78-.14,1.15-.08,1.31.22,1.46,1.17.1.61.16,1.27.18,1.89.02.87-.32,1.39-1.16,1.67-.48.16-1,.28-1.52.25-.73-.04-1.46.12-2.19.19-1.13.11-2.26.23-3.39.34-.08,0-.15.04-.23.02-1.28-.07-1.7-.2-2.05-1.62-.12-.47-.22-.93-.3-1.43-.07-.47-.11-.98-.16-1.57-.13-1.5-.49-3.13-.63-4.77h-.01Z"/><path d="M113.1,81.24c-.42.11-.84.2-1.3.24-1.43.13-2.47-.38-2.67-1.94-.06-.46-.09-.93-.16-1.39-.23-1.72-.53-3.47-.67-5.24-.14-1.72-.29-3.46-.23-5.18.02-.58-.11-1.17-.11-1.75,0-.28-.03-.55.05-.81.15-.64.35-.83.97-.95.2-.04.41-.06.58-.08.36-.03.71-.07,1.04-.2.65-.26,1.32-.34,1.97-.36.53-.02,1.05-.08,1.55-.24.34-.11.71-.16,1.09-.2.46-.04.95-.03,1.44.03.1,0,.21.03.31.02.47-.05.95,0,1.38.21.27.13.71-.03.84.23.19.37.3.83.26,1.26-.04.48,0,.93.04,1.4.03.35.07.68.09,1.02.02.41-.08.51-.52.55-1.8.15-3.6.39-5.44.5-.15.01-.34.04-.51.07-.53.1-.79.35-.77.87.02.5.09,1,.13,1.47.02.2.14.33.34.32.39-.02.83.05,1.25-.06.4-.11.8-.17,1.21-.21.58-.05,1.21-.09,1.76-.08.15,0,.34.05.37.19.13.34.39.62.42.99.05.57.11,1.16.15,1.7.03.51-.18.76-.69.84-.27.04-.56.1-.81.07-.3-.04-.64-.04-.94-.02-.33.03-.66.08-.98.19-.22.07-.43.09-.65.08-.2,0-.41.01-.58.05-.32.08-.4.23-.41.51,0,.15.02.31.04.42.13.69.07.74.83.7,1.18-.06,2.33-.34,3.44-.56.59-.11,1.19-.19,1.79-.21.65-.02.95.18,1.16.81.31.92.39,1.91.3,2.89-.05.53-.42.81-.99.91-.91.17-1.89.25-2.74.29-1.21.06-2.46.27-3.62.6v.05Z"/><path d="M126.43,63.8c.46.02.83.11,1.16.41.94.93,2.12,1.62,3.11,2.5.19.16.3.23.37.22.1,0,.17-.09.31-.3.57-.97,1.35-1.81,1.89-2.83.2-.39.53-.54.93-.59.58-.08,1.17-.18,1.73-.22.38-.03.74-.03,1.13,0,.57.03,1.18-.03,1.79-.12,1.01-.15,1.22.72.88,1.29-.25.44-.5.89-.88,1.29-.6.64-1.14,1.33-1.59,2.12-.55.94-1.14,1.89-2.01,2.63-.1.06-.19.16-.26.24-.09.11-.14.21,0,.33.78.55,1.37,1.33,2.15,1.9.51.32.92.74,1.35,1.16.9.87,1.89,1.63,2.93,2.33.32.2.6.44.71.81.17.53-.06,1.03-.55,1.32-.39.23-.82.28-1.22.26-.35-.02-.71-.03-1.06,0-.55.04-1.11.13-1.65.22-.77.11-1.46-.05-2.04-.58-.73-.68-1.63-1.19-2.37-1.89-.3-.28-.63-.56-.93-.83-.19-.16-.35-.25-.45-.24-.25.02-1.47,1.74-1.62,2.01-.38.63-.85,1.19-1.28,1.78-.18.26-.45.47-.8.49-.93.05-1.88.27-2.83.35-.73.06-1.44.09-2.17.13-.6.03-.94-.4-.82-.99.09-.45.36-.81.64-1.16.81-1,1.54-2.04,2.24-3.12.68-1.06,1.52-1.98,2.34-2.92.09-.11.16-.19.26-.3.12-.13.11-.26-.05-.37-.13-.09-.25-.23-.38-.32-.72-.42-1.33-1.02-2.08-1.42-.08-.02-.13-.06-.19-.11-.99-.88-2.16-1.48-3.11-2.38-.14-.11-.28-.23-.41-.32-.59-.28-.81-.86-1.16-1.31-.27-.35-.09-.77.36-.93.2-.07.44-.13.65-.15.53-.07,1.12-.11,1.68-.14,1.04-.05,2.2-.26,3.32-.22l-.02-.03Z"/><path d="M147.26,61.41c.12.83.02,1.71,0,2.56-.02.95-.06,1.91-.21,2.85-.13.83-.67,1.36-1.52,1.47-.27.04-.58.13-.83.1-.15-.02-.28-.03-.41,0-.88.21-1.38-.34-1.77-.94-.28-.43-.48-.95-.48-1.52-.01-.85.02-1.71.06-2.56.02-.47-.04-.98-.07-1.45-.02-.35-.04-.67.03-1.03.18-.71.67-1.15,1.44-1.15.69,0,1.39.02,2.08.04.82.03,1.55.82,1.67,1.63h.01ZM154.75,60.95c-.08.96.04,1.94-.04,2.91-.03.35-.01.68,0,1.03.03.55-.02,1.08-.14,1.61-.27,1.14-1,1.42-1.81,1.43-.27,0-.54,0-.81.07-.53.13-1.07.09-1.61-.08-.47-.15-.77-.46-.9-.9-.14-.49-.24-1.02-.19-1.52.06-.7,0-1.42.1-2.11.14-1.01.24-2.04.38-3.06.08-.46.3-.76.74-.9.27-.08.53-.18.78-.3.32-.15.63-.21.94-.23.69-.04,1.35.2,1.98.59.32.21.47.5.53.85.04.2.02.4.03.6h.02Z"/><path d="M169.83,66.4c0,.1-.02.2.09.27s.18-.06.22-.11c.38-.54.82-.99,1.29-1.43.15-.13.3-.26.39-.44.66-1.26,1.54-2.42,2.15-3.69.07-.13.14-.26.19-.41.16-.56.56-.75,1.02-.77.95-.04,2.02-.03,2.93.27.23.07.42.16.6.28.29.22.4.51.31.84-.02.18-.06.35-.16.48-.63.85-.98,1.81-1.62,2.64-.83,1.08-1.6,2.19-2.4,3.27-.41.54-.41.69-.03,1.25.05.07.11.15.16.22,1.04,1.16,1.68,2.57,2.58,3.76.85,1.14,1.33,2.46,2.18,3.58.24.29.19.47-.13.66-.1.05-.22.13-.35.14-.8.13-1.6.41-2.43.44-.63.02-1.16-.08-1.64-.56-1.34-1.38-2.78-3.7-3.56-5.44-.14-.3-.19-.29-.51-.1-.39.24-.6.59-.61,1.08-.03.93.05,1.92.15,2.85.06.54-.02,1.09-.03,1.6-.02.49-.25.69-.75.78-.35.07-.73.13-1.08.15-.23.01-.44,0-.66-.05-.28-.05-.61-.02-.89-.04-.58-.02-.91-.35-.95-.91-.07-1-.06-2.06-.17-3.07-.24-2.25-.27-4.55-.42-6.8-.09-1.4-.02-2.82.06-4.19.03-.55.04-1.14.08-1.68.04-.67.39-1.02,1.08-1.1.41-.05.86-.05,1.28-.06.7-.01,1.16.34,1.27,1.05.06.37.15.78.1,1.15-.04.32.02.66.04.95.02.29.08.6.11.87.09.76.14,1.52.1,2.28h0Z"/><path d="M180.78,62.5c0-.64.05-1.29.06-1.91.03-1.2,1.46-1.5,2.46-1.53,2.17-.07,2.49,1.54,2.74,3.32.15,1.09.16,2.21.3,3.27.06.47.07.46.57.38.47-.07.96-.13,1.45-.14.36,0,.71,0,1.07.05.08,0,.18.02.28,0,.79-.07.86-.17.89-.95.05-1.2.07-2.45.16-3.66.03-.42.18-.86.33-1.29.12-.35.4-.61.83-.65.82-.07,1.66-.08,2.43.14.43.12.74.43.89.83.21.58.23,1.2.29,1.8.1.99.14,2.02.07,3-.06.86-.05,1.79-.04,2.66,0,1.53.26,3.14.28,4.68,0,.82,0,1.69,0,2.5,0,.15-.02.28-.04.43-.18.91-.71,1.29-1.61,1.26-.55-.02-1.11-.07-1.64-.06-.58.01-.88-.03-1.25-.54-.73-.93-.87-4.46-.9-5.61,0-.15-.06-.25-.21-.22-.2.05-.4.06-.63.07-.68.02-1.35-.14-2.03-.07-.05,0-.1-.02-.15-.02-.94.05-.78.17-.76.8.04,1.35.02,2.72.04,4.06.02.92-.75,2.03-1.73,2.06-.5.02-1.04.02-1.52-.15-.33-.12-.67-.19-.99-.27-.47-.12-.77-.43-.86-.9-.03-.1-.03-.2-.06-.27-.1-1.35-.2-2.71-.29-4.02-.08-1.24-.21-2.55-.22-3.57-.02-1.83-.21-3.72-.19-5.45l-.02-.03Z"/><path d="M198.36,76.55c-.84-.05-1.17-.35-1.13-1.18.03-.78.15-1.53.41-2.24.58-1.54,1.03-3.12,1.56-4.66.19-.53.36-1.08.58-1.59.39-.93.49-1.97.81-2.89.35-.99.65-2.01.99-3,.1-.25.2-.5.35-.76.5-.86.7-.99,1.75-1.1.18-.03.36-.06.51-.08.87-.14,1.64.08,2.38.42.26.1.39.3.49.52.34.75.76,1.44,1.17,2.14.21.3.34.65.47,1,.53,1.57,1.18,3.12,1.85,4.64.29.65.47,1.32.78,1.97.13.27.26.53.41.77.19.3.33.6.44.92.26.75.54,1.51.78,2.22.19.56.19,1.18.09,1.75-.07.4-.3.71-.78.76-.53.06-1.08.17-1.59.26-.22.04-.46.04-.68.06-.4.03-.81-.19-.96-.57-.18-.42-.54-.75-.72-1.17-.18-.42-.49-.67-1.02-.56-.23.05-.49.01-.73-.04-.2-.04-.43-.05-.66-.02-.2.03-.43.06-.66.03-.71-.09-1.41.12-2.12-.02-.25-.05-.35.14-.42.33-.11.3-.27.63-.39.93-.05.1-.07.2-.12.28-.34.66-.81,1.11-1.65.98-.15-.02-.33-.02-.5-.02-.54,0-1.14-.06-1.69-.09h0ZM206.53,54.66c.25-.25.66-.56.84-.56s.46.22.72.49c.03.02.05.03.08.05.04.03.06.04.1.07.02.02.03.03.05.05.26.27.66.53.57.92-.11.49-.33.7-.65,1.08-.51.61-1.26,1.01-1.88,1.2-.55.17-1.17.39-1.81.38-.32,0-.69-.07-1.05-.13-.64-.12-1.24-.36-1.65-.7-.33-.27-1.74-1.35-1.54-1.85.12-.3.35-.46.53-.66.08-.1.43-.51.53-.63.28-.25.38-.33.74-.16.26.12.29.32.68.56.23.15.44.32.65.42.36.17.8.29,1.18.28.1,0,.32-.02.54-.06.34-.06,1.02-.39,1.2-.59.07-.06.11-.09.18-.15h0ZM207.82,50.54c-.02.1-.07.2-.1.25-.28.5-.47,1-.73,1.41-.24.37-.45.79-.65,1.16-.25.45-.64.62-1.17.69-.48.06-1.32.06-1.72.02-.28-.03-.49-.06-.52-.24-.03-.2.04-.5.12-.73.2-.55.42-1.08.62-1.64.05-.23.13-.46.25-.73.1-.24.31-.51.5-.73.23-.27.38-.33.77-.31.08,0,.15.02.26,0,.57-.08,1.4-.08,1.88-.07.4,0,.75.17.57.62-.02.15-.02.23-.07.35v-.05h0ZM205.1,69.88h.28c.66-.03.91-.36.77-1.01,0-.05-.05-.12-.05-.2-.14-1.07-.66-2.02-1.06-3.01-.03-.13-.11-.25-.26-.25-.18,0-.25.13-.3.28-.32.98-.86,2.78-.81,3.77.02.31.23.51.54.49.27-.02.76-.06.89-.06h0Z"/><path d="M214.46,66.75c0-1.58.11-3.15.12-4.71,0-.52.1-1.08.25-1.58.4-1.3,2.63-1.67,3.78-1.67,1.02,0,2.87.35,3.84.72,1.05.4,1.66,1.23,2.04,2.23.79,1.88.78,3.81.09,5.73-.48,1.35-1.45,2.25-2.72,2.85-.74.33-1.54.44-2.33.33-.3-.04-.51-.07-.63-.07-.33,0-.31.21-.3.88.02,1.09-.2,2.18-.07,3.28.05.28-.03.55-.07.8-.11.61-.31.79-.93.8-.44.01-.89.05-1.34.08-.32.02-.63-.02-.96-.1-.58-.12-.93-.55-.92-1.17.02-.72.02-1.46,0-2.18-.04-2.08.15-4.16.14-6.23h0ZM218.88,65.76v.08c.05.45.21.68.56.67.23,0,.48-.08.66-.2.36-.2.61-.5.86-.8.41-.5.38-1.03.15-1.58-.25-.57-.64-.98-1.35-.97-.64,0-.93.21-.94.83,0,.29-.04.64,0,.95.04.29.05.68.05,1.03h.01Z"/><path d="M236.05,61.93c.57-1.04,1.38-2,2.56-2.37.99-.32,2.03-.6,3.08-.58.38,0,.79.04,1.17.15.13.03.26.03.38.03,1.48.08,2.6.77,3.57,1.77.37.48.47.97.07,1.5-.36.49-.73.99-1.13,1.45-.21.27-.44.37-.7.36-.15,0-.3-.06-.46-.11-.38-.13-.79-.33-1.16-.47-.39-.15-.84-.32-1.27-.32-1.43-.02-2.64,1.77-2.95,2.96-.28,1.06-.49,2.17.11,3.23.12.2.22.43.29.66.22.5.56.8,1.1.87.59.07,1.2.11,1.77.18.69.08,1.2-.25,1.66-.67.15-.15.28-.32.42-.52.24-.4.65-.64,1.06-.88.26-.15.48-.12.68.06.47.39.97.75,1.32,1.28.1.15.17.3.3.43.5.44.44.95.15,1.46-.41.71-.89,1.42-1.53,1.97-.68.59-1.28,1.29-2.15,1.61-.76.27-1.52.45-2.33.43-1.94-.03-3.77-1.16-5.19-2.35-1.27-1.07-1.89-3.2-2.15-4.81-.12-.63-.18-1.29-.16-1.98.05-1.72.57-3.65,1.48-5.34h0Z"/><path d="M263.34,68.04c0,.36-.02.54-.03.9-.02,1.33-.62,2.44-1.29,3.51-.72,1.15-1.69,2.05-2.7,2.89-.47.39-1.08.5-1.61.7-.68.26-1.35.34-2.05.32-.68-.02-1.41-.14-2.11-.28-.58-.12-1.07-.41-1.47-.91-.44-.56-.88-1.1-1.12-1.78-.07-.18-.19-.36-.29-.51-.54-.81-.82-1.72-1.16-2.61-.52-1.46-.34-2.89-.08-4.36.35-2.02,1.26-3.68,3-4.84.68-.43,3.08-1.47,3.9-1.45.49.01.96.07,1.43.09.27.02.53.09.76.25.45.24.96.4,1.44.59,1.62.6,2.57,1.66,3.06,3.21.36,1.13.56,2.32.36,3.54-.03.25-.02.5-.02.73h-.03.01ZM261.41,56c-.1.62-.42,1.19-.82,1.68-.05.07-.19.19-.34.31-.32.37-1.38.71-1.92.69-.95-.03-1.47-.52-1.84-.88-.05-.03-.35-.31-.43-.34-.13-.08-.26-.15-.38-.14-.2.03-.34.12-.42.26,0,0-.11.2-.11.25.04.4-.14.55-.4.62-.13.05-.4.05-.54.04-.19-.02-.79-.05-1-.05h-.13c-.54-.01-.69-.35-.62-.82.03-.2.06-.4.12-.57.04-.11.07-.16.11-.27.08-.2.22-.5.43-.79.32-.54.8-1.01,1.37-1.19.23-.12.44-.16.7-.16h.28c.23,0,.51,0,.77.1.32.11.76.35,1.06.56.53.42.38.31.96.58.08.05.18.08.2.06.31-.22.31-.23.32-.49.02-.36.09-.56.43-.61.2-.03.87-.02,1.03-.02.13,0,.62.02.77.05.38.07.35.29.41.76v.38h-.01ZM259.17,67.25c.15-.57-.15-1.08-.41-1.52-.29-.48-1.4-1.02-1.98-1.04-.48-.01-.97.17-1.39.44-.91.55-1.51,1.31-1.77,2.36-.06.35-.12.67-.15,1.02-.1,1.05.41,1.91,1.38,2.34.45.19.96.3,1.44.32.35.01.69-.06.97-.3,1.09-.87,1.88-1.92,1.9-3.4,0-.08-.02-.15,0-.22h0Z"/><path d="M270.54,64.67v.45c.03.45,0,.93-.11,1.4-.03.15-.06.32-.02.5.14,1.06-.14,2.1-.25,3.12-.06.54-.1,1.08-.14,1.62-.12,1.46-.21,2.98-.33,4.45-.09,1.07-.76,1.47-1.77,1.43-.33-.01-.69-.11-1-.16-.27-.04-.53-.09-.8-.13-.59-.09-.97-.49-1.02-1.09v-.23c0-1.75.07-3.55.09-5.28,0-.74-.02-1.53-.05-2.28-.04-1.05.04-2.11.14-3.15.05-.49.1-1.04.13-1.52.03-.41.08-.83.15-1.25.07-.47.07-.99.1-1.45.05-.88.17-1.72,1.32-1.81.41-.03.82-.02,1.23,0,.41.02.82.03,1.23.1,1.07.17,1.39.82,1.34,1.63-.03.52-.03,1.09-.06,1.6-.04.69-.08,1.37-.18,2.05h0Z"/><path d="M296.57,70.26c.02-.22.03-.45-.01-.65,0-.1-.06-.19-.17-.21-.09-.02-.18.04-.24.11-.28.43-.54.89-.82,1.33-.11.17-.2.39-.34.56-.84.8-1.4,1.77-2.11,2.66-.44.53-.99.71-1.61.68-.45-.02-.94-.13-1.39-.08-.25.03-.43-.1-.57-.31-.98-1.48-1.94-2.99-2.88-4.52-.05-.08-.26-.36-.34-.34-.04,0-.08.07-.08.1-.02.3-.06.6-.07.9-.07,1.28-.1,2.59.07,3.86.09.7.07,1.44-.09,2.13-.17.76-.57,1.08-1.35,1.08-.62,0-1.27.11-1.9.08-.71-.04-1.76-.26-1.74-1.11,0-.24,0-.5.06-.75.16-.77.14-1.57.11-2.33-.02-.44.04-.88,0-1.33-.04-.91-.06-1.86-.12-2.79-.03-.48.02-.98.07-1.45.19-1.73.42-3.46.64-5.18,0-.18.02-.35.08-.5.16-.62.46-.85,1.12-.87.53-.02,1.07.05,1.64-.02.26-.01.56.05.78.19.62.41,1.27.79,1.8,1.32.4.4.73.87.95,1.38.18.43.47.83.78,1.17.1.08.2.16.24.26.48,1.08,1.43,1.81,2.01,2.82.09.16.2.11.26-.01.14-.22.25-.44.37-.66.44-1,.94-1.98,1.65-2.84.61-.74,1.12-1.65,1.55-2.49.51-.99,1.58-1.16,2.63-1.09,1.07.07,1.99.17,2.99.64.35.17.51.49.53.84.06.8.18,1.62.12,2.42-.1,1.57-.06,3.14,0,4.69.06,1.57.12,3.17.07,4.77-.02.67.04,1.36-.16,2.02,0,.05,0,.1-.03.15-.37,1.08-.3.95-1.27.9-.7-.04-1.39-.09-2.06.09-.15.04-.33.05-.48.04-.76-.05-1.22-.44-1.19-1.23.03-.74.09-1.48.12-1.95.11-1.66.26-3.11.35-4.49h.02Z"/><path d="M303.2,79.07c-.84-.12-1.13-.45-1.03-1.27.1-.77.28-1.51.6-2.19.71-1.48,1.3-3.02,1.96-4.51.24-.51.45-1.05.72-1.53.47-.9.66-1.92,1.06-2.81.43-.96.83-1.95,1.25-2.9.12-.24.24-.49.41-.72.57-.81.78-.92,1.84-.95.18-.01.36-.02.52-.04.88-.06,1.63.22,2.34.62.25.12.36.33.45.56.27.77.63,1.5.98,2.23.18.31.28.67.38,1.03.39,1.61.9,3.21,1.44,4.78.23.67.35,1.36.61,2.03.1.28.21.55.34.81.17.31.28.62.36.96.19.77.4,1.55.58,2.28.14.57.09,1.19-.06,1.75-.1.39-.36.68-.84.69-.53.01-1.09.07-1.6.12-.22.02-.47,0-.68,0-.41,0-.79-.26-.91-.65-.14-.44-.47-.79-.62-1.23-.14-.44-.43-.71-.97-.65-.23.03-.49-.03-.73-.1-.19-.06-.43-.08-.65-.07-.2,0-.43.02-.66-.02-.7-.15-1.42,0-2.11-.2-.25-.07-.36.1-.45.29-.14.29-.32.6-.47.9-.06.1-.09.19-.15.27-.4.62-.91,1.04-1.73.83-.15-.04-.33-.04-.5-.06-.54-.05-1.13-.16-1.68-.24h0ZM312.28,82.25c-.04.47-.12.87-.34,1.2-.51.74-.98.98-1.66.93-.83-.06-1.53-.39-2.09-1.06-.23-.27-.37-.62-.33-.95.13-1.2.29-1.94,1.52-2.52.24-.11.49-.1.76-.07.91.09,1.89.79,2.1,1.74.08.26.06.51.05.73h-.01ZM310.51,73.01c.11,0,.17.01.28.02.66.02.94-.28.86-.94,0-.05-.04-.13-.04-.2-.05-1.08-.48-2.07-.79-3.1-.02-.13-.08-.26-.24-.27-.18-.01-.26.11-.33.25-.4.95-1.1,2.7-1.13,3.68-.01.31.18.53.5.54.27,0,.76,0,.89.01h0Z"/><path d="M324.11,78.61c-.03.32-.08.68-.14,1.02-.04.22-.17.32-.41.29-.64-.09-1.35-.06-1.99-.19-.51-.11-1.04-.24-1.6-.28-.4-.03-.56-.25-.53-.65.07-1.06.18-2.15.21-3.22.02-.77.06-1.56.11-2.33.11-1.51.14-3.06.39-4.54.14-.79.12-1.61.17-2.4.04-.66.21-1.29.46-1.92.1-.24.22-.48.41-.67.34-.37.77-.53,1.29-.45.85.13,1.69.34,2.55.59.3.08.52.24.7.49.69.89,1.39,1.74,2.06,2.61.63.83,1.4,1.61,2.07,2.42.14.14.23.32.31.51.29.5.6,1.01,1.02,1.42.26.25.4.62.6.93.05.05.12.11.2.09.03-.02.06-.07.06-.1-.02-.63.27-1.21.39-1.8.28-1.27.27-2.64.49-3.93.05-.27.1-.52.17-.79.32-.95,1.13-1.4,2.11-1.14.38.11.76.24,1.12.41.32.15.53.46.57.81.02.17.06.34.05.51-.01,1.04-.04,2.22-.08,3.29-.05,1.19-.17,2.41-.27,3.6-.02.2-.04.4-.08.57-.12.42-.16.82-.17,1.24,0,.49-.03,1.02-.12,1.52-.09.51-.1,1.07-.1,1.6,0,.78-.05,1.53-.17,2.27-.06.4-.17.49-.56.55-.05.02-.1.02-.15.01-.8-.08-1.6-.02-2.41.05-.31.02-.63-.08-.95-.16-.39-.1-.66-.31-.9-.69-.83-1.46-1.72-2.92-2.66-4.34-.54-.83-1.21-1.61-1.83-2.4-.25-.32-.56-.63-.78-.97-.07-.13-.18-.24-.28-.35-.19-.19-.41-.34-.67-.23-.26.1-.23.36-.23.56,0,1.08-.13,2.26-.22,3.2-.11,1.08-.17,2.05-.25,2.97l.04.02Z"/><path d="M339.56,69.66c.35-.7.8-1.33,1.29-1.96,1.55-1.94,5.5-2.57,7.77-2.33.25.03.51.05.76.13.4.12.84.17,1.24.26.77.17,1.28.64,1.48,1.32.29.95.26,1.92-.42,2.72-.44.56-1.04.75-1.79.62-.57-.1-1.18-.23-1.79-.29-.61-.06-1.25-.08-1.9.05-.08.04-.18.03-.26.02-1.7-.17-2.95,1.92-3.15,3.3-.09.62-.15,1.27-.11,1.9.04.61.33,1.06.75,1.46.19.17,1.23,1.21,1.45,1.26.4.09.77.18,1.17.22.58.06,1.18.02,1.73-.25.53-.26.84-.92.69-1.49-.03-.18-.18-.22-.33-.24-.69-.09-1.44-.2-2.14-.3-1-.13-1.04-.16-1.13-1.17-.07-.81.08-1.61.07-2.41,0-.5.24-.67.71-.68.52-.01,1.1-.01,1.64.04.43.04.88.14,1.3.31.07.03.15.07.22.07.85-.01,1.64.36,2.46.51,1.01.19,1.23.42,1.35,1.46.17,1.39.11,2.78-.32,4.14-.19.53-.34,1.05-.6,1.57-.67,1.26-1.66,2.19-3,2.8-.67.36-1.34.39-2.01.32-.93-.1-1.85-.29-2.67-.73-.24-.13-.54-.2-.84-.24-1.33-.16-2.26-.98-3.05-1.99-.09-.13-.18-.27-.27-.35-.49-.48-.76-1.09-.95-1.73-.19-.62-.38-1.27-.55-1.91-.18-.69-.19-1.43-.12-2.17.13-1.48.66-2.9,1.33-4.25h-.01Z"/></g></svg>