<svg id="Layer_1" data-name="Layer 1" xmlns="http://www.w3.org/2000/svg" viewBox="0 0 24.47 30"><title>icon_person</title><path d="M15,15.76A7.88,7.88,0,1,0,7.06,7.88,7.92,7.92,0,0,0,15,15.76ZM8.88,7.88A6.11,6.11,0,0,1,15,1.8h0a6.13,6.13,0,0,1,6.14,6.08A6.13,6.13,0,0,1,15,14h0a6.13,6.13,0,0,1-4.33-1.77A6,6,0,0,1,8.88,7.88ZM15,17A12.22,12.22,0,0,0,2.77,29.1a.9.9,0,0,0,.9.9H26.33a.9.9,0,0,0,.9-.9A12.22,12.22,0,0,0,15,17ZM8.29,21.32a10.44,10.44,0,0,1,17.06,6.87H4.63A10.22,10.22,0,0,1,8.29,21.32Z" transform="translate(-2.77)"/></svg>