<svg id="Layer_1" data-name="Layer 1" xmlns="http://www.w3.org/2000/svg" viewBox="0 0 30 14.6"><path d="M5.14,18.7,0,8H3.29l2.76,6.45h0L8.88,8h3.36l-4.63,9.5A15.27,15.27,0,0,0,5.14,18.7ZM30,14c0,3.49-4,3.71-5,3.69a8.78,8.78,0,0,1-1.53-.2C21.16,17,18,16,15.45,15.89a13.63,13.63,0,0,0-4.61.67A1.4,1.4,0,0,1,9.79,15.2l2.9-5.83v3.85c0,1.6.49,2.14,2.11,2.14s2.11-.54,2.11-2.14V8h3.14v1.4c.47-.71,1.49-1.38,3.43-1.58A9.63,9.63,0,0,1,25,7.7c2.25,0,4.54.78,4.7,2.83H26.55c-.09-.91-.71-1.36-1.89-1.36a3.93,3.93,0,0,0-1.18.18.92.92,0,0,0-.62.89c0,.29.22.49.62.64C25.22,11.55,30,11.15,30,14Zm-3.12.6c0-.94-1.69-1-3.4-1.27-1.38-.18-2.8-.51-3.43-1.49h0v2.36h2.54a1.22,1.22,0,0,0,.91,1.26,4,4,0,0,0,1.38.18c1.4,0,2-.43,2-1.07ZM22.72,20s-5.63-.25-7.88,2.29H18C18.45,20.48,22.72,20,22.72,20Zm-1.11-.45a9.75,9.75,0,0,0,2.16,0s-1-.09-1.78-.24c-8.41-1.49-11.84,2-12.62,3h3.36C13.13,21.5,14.8,19.23,21.61,19.54ZM3.25,22.28H7c6.34-7.35,13.33-2.85,18.34-3.05a4.53,4.53,0,0,0,3.49-1.94,5.55,5.55,0,0,1-1.69,1C22.72,20.05,13.29,12,3.25,22.28Z" transform="translate(0 -7.7)"/></svg>