<svg id="Layer_1" data-name="Layer 1" xmlns="http://www.w3.org/2000/svg" viewBox="0 0 29.92 24.49"><title>icon_book</title><path d="M29.9,21.3V5.2c.1-.4-.3-.8-.8-.8H26.2V.9a.92.92,0,0,0-.93-.9H25.2C21.9.3,17.6,1.8,15,4.5,12.4,1.8,8.1.3,4.7,0a1,1,0,0,0-1,.9V4.5c-1,0-1.9-.1-2.9-.1-.4-.1-.8.3-.8.8V21.3a.88.88,0,0,0,.8.9c3.5.2,9.4.3,13.8,2.2.4.2.8,0,.7,0,4.4-1.9,10.3-1.9,13.8-2.2a.82.82,0,0,0,.81-.83S29.9,21.32,29.9,21.3ZM1.8,20.5V6.1a14.81,14.81,0,0,1,2,.1V17.7a1,1,0,0,0,.7.9,18,18,0,0,1,7.1,3A54.57,54.57,0,0,0,1.8,20.5Zm12.3.9A18.62,18.62,0,0,0,5.5,17V1.9c3,.5,6.7,1.9,8.6,4.3ZM15.9,6.2c1.9-2.4,5.6-3.9,8.6-4.3V17a19.16,19.16,0,0,0-8.6,4.4ZM28.2,20.5a53.88,53.88,0,0,0-9.8,1.1,17.61,17.61,0,0,1,7.1-3,.88.88,0,0,0,.7-.9V6.1h2ZM7.66,9a.86.86,0,0,1,1-.7,8,8,0,0,1,3.1,1.3.87.87,0,0,1,.2,1.2.86.86,0,0,1-1.2.2,5.91,5.91,0,0,0-2.4-1A.86.86,0,0,1,7.66,9Zm4.22,5.73a.69.69,0,0,1,.08,1l0,.06a.84.84,0,0,1-1.16.24,11.71,11.71,0,0,0-2.4-1,.86.86,0,0,1,.3-1.7,9.3,9.3,0,0,1,3,1.3A.71.71,0,0,1,11.88,14.72Zm6-3.88a.83.83,0,0,1,.24-1.15,7.34,7.34,0,0,1,3.1-1.3.86.86,0,0,1,.3,1.7,5.8,5.8,0,0,0-2.4,1,1,1,0,0,1-1.2-.2Zm4.34,3.25s0,.06,0,.09a.81.81,0,0,1-.71.91,5.8,5.8,0,0,0-2.4,1,.87.87,0,0,1-.9-1.5,8.21,8.21,0,0,1,3-1.3h0A.89.89,0,0,1,22.26,14.09Z" transform="translate(0 0)"/></svg>