<svg id="Layer_1" data-name="Layer 1" xmlns="http://www.w3.org/2000/svg" width="28.07" height="30" viewBox="0 0 28.07 30"><title>icon_signout</title><path d="M28.93,14a.66.66,0,0,1-.12.17.55.55,0,0,1-.09.14l-2.9,2.91a1,1,0,0,1-.69.28h0a.93.93,0,0,1-.67-.28,1,1,0,0,1,0-1.38l1.24-1.24H18.36a1,1,0,0,1-.73-.73,1,1,0,0,1,.12-.76,1,1,0,0,1,.61-.46h7.33l-1.24-1.24A.91.91,0,0,1,24.1,11a1,1,0,1,1,1.72-1l2.94,2.86.08.12a.86.86,0,0,1,.13.2A1,1,0,0,1,28.93,14Zm-5.69,4.42V26.1a1,1,0,0,1-1,1h-5.8V29a1,1,0,0,1-.36.75.94.94,0,0,1-.6.22h-.21L1.74,27.07A1,1,0,0,1,1,26.13V1A1,1,0,0,1,1.07.44.26.26,0,0,1,1.13.35,1,1,0,0,1,1.31.12H1.4A.7.7,0,0,1,1.63,0H22.2a1,1,0,0,1,1,1V8.72a1,1,0,0,1-.73.73,1.06,1.06,0,0,1-.76-.11,1,1,0,0,1-.46-.62V2H11.1l4.57,1a1,1,0,0,1,.76.94v21.3h4.8V18.42a1,1,0,0,1,2,0ZM2.89,2.18V25.34l11.6,2.48V4.66ZM1.71,0h0Z" transform="translate(-0.97)"/></svg>