<svg id="Layer_1" data-name="Layer 1" xmlns="http://www.w3.org/2000/svg" viewBox="0 0 26.36 30"><title>icon_one_role</title><path d="M18.51,23a4,4,0,1,0-7,0,4.39,4.39,0,0,0-2.42,3.88v2.31a.81.81,0,0,0,.83.81h10.2a.82.82,0,0,0,.82-.82V26.87A4.38,4.38,0,0,0,18.51,23ZM15,18.67A2.37,2.37,0,1,1,12.65,21v0A2.35,2.35,0,0,1,15,18.67Zm4.28,9.68H10.74V26.87a2.7,2.7,0,0,1,1.95-2.57,4.08,4.08,0,0,0,4.65,0,2.72,2.72,0,0,1,2,2.57ZM25.47,6.28a5.84,5.84,0,0,0,.08-.93A5.37,5.37,0,0,0,20.2,0H16.27a.82.82,0,0,0,0,1.64H20.2a3.73,3.73,0,0,1,3.71,3.71,3.57,3.57,0,0,1-.09.8H16.14A3.73,3.73,0,0,0,12.5,9.06H11.16a.82.82,0,0,0-.51.17l-3,2.41V9.84A.82.82,0,0,0,6.85,9h0a3.71,3.71,0,0,1,.32-7.4h3.93a.83.83,0,0,0,.83-.78A.84.84,0,0,0,11.09,0H7.16A5.35,5.35,0,0,0,6,10.56v2.77a.8.8,0,0,0,.47.73.84.84,0,0,0,.86-.1l4.1-3.26h1.06a3.73,3.73,0,0,0,3.64,2.91H21l3.24,2.07h0a.76.76,0,0,0,.44.13.78.78,0,0,0,.39-.1.84.84,0,0,0,.44-.71V13.45a3.73,3.73,0,0,0-.1-7.17ZM24.69,12a.82.82,0,0,0-.76.81v.74l-2.21-1.41a.9.9,0,0,0-.44-.13H16.14a2.08,2.08,0,0,1,0-4.16H24.5A2.08,2.08,0,0,1,24.69,12ZM17,9.05a.83.83,0,1,0,0,1.66.83.83,0,0,0,.84-.82h0A.84.84,0,0,0,17,9.05Zm3.3,0a.83.83,0,1,0,0,1.66.83.83,0,0,0,.84-.82h0A.84.84,0,0,0,20.32,9.05Zm3.27,0a.83.83,0,1,0,0,1.66.83.83,0,0,0,.84-.82h0a.83.83,0,0,0-.81-.83ZM13.68,1.64h0A.82.82,0,0,0,14.5.82a.83.83,0,0,0-.92-.73.81.81,0,0,0-.73.73.82.82,0,0,0,.82.82Z" transform="translate(-1.82 0)"/></svg>