<svg id="Layer_1" data-name="Layer 1" xmlns="http://www.w3.org/2000/svg" viewBox="0 0 23.49 30"><title>icon_place_outline</title><path d="M11.75,0A11.72,11.72,0,0,0,2.34,18.75L10,29.08l.18.23.11.07a2.2,2.2,0,0,0,1.45.62h.11a2.15,2.15,0,0,0,1.61-.87c1.22-1.62,3-4,4.59-6.18,1.29-1.74,2.46-3.33,3.17-4.27l.33-.34V18.2a11.57,11.57,0,0,0,1.93-6.45A11.75,11.75,0,0,0,11.75,0Zm7.38,16.94-.28.37c-.72,1-1.8,2.42-3,4-1.41,1.92-3,4-4.13,5.57L4.53,17.16a9,9,0,1,1,16.22-5.41A8.84,8.84,0,0,1,19.13,16.94Zm-1.78-5.19a5.6,5.6,0,1,1-5.6-5.6,5.6,5.6,0,0,1,5.6,5.6Z" transform="translate(0 0)"/></svg>