<svg id="Layer_1" data-name="Layer 1" xmlns="http://www.w3.org/2000/svg" viewBox="0 0 21.75 29.97"><path d="M22.06,20.85h0l-.47-1.35h0a10.82,10.82,0,0,0,4.28-8.64v-.53h0a10.89,10.89,0,0,0-21.75,0v.55a10.87,10.87,0,0,0,4.29,8.64h0L7.9,20.85h0L5.54,27.47a.32.32,0,0,0,.18.39.34.34,0,0,0,.14,0l3.23-.33a.31.31,0,0,1,.25.08l2.32,2.27a.3.3,0,0,0,.43,0,.24.24,0,0,0,.07-.12l2.32-6.67h0L15,21.76h0l.47,1.35h0l2.32,6.67a.31.31,0,0,0,.39.19.28.28,0,0,0,.11-.08l2.33-2.27a.32.32,0,0,1,.24-.08l3.23.33a.3.3,0,0,0,.34-.26.24.24,0,0,0,0-.14ZM18,15H12.08V13.19H13.9V8.88l-1.72,1V8l2.64-1.5h1.32V13.2H18Z" transform="translate(-4.12 -0.01)"/></svg>