<svg id="Layer_1" data-name="Layer 1" xmlns="http://www.w3.org/2000/svg" viewBox="0 0 30.01 22.98"><title>icon_quote_top</title><path d="M8.42,7.88a5.64,5.64,0,0,0-.29,1.68h5.54V23H0V11.43A10,10,0,0,1,1,6.64,10,10,0,0,1,3.75,3.42a15.3,15.3,0,0,1,3.66-2C8.72.94,10,.5,11.34.06l.2-.06,2.19,4-.28.1A21.46,21.46,0,0,0,11,5.22a7.06,7.06,0,0,0-1.68,1.2A4.09,4.09,0,0,0,8.42,7.88Zm16.28,0a4.09,4.09,0,0,1,.91-1.46,7.13,7.13,0,0,1,1.64-1.2,19,19,0,0,1,2.48-1.11L30,4,27.79,0l-.2.06C26.3.5,25,.9,23.66,1.4A14.1,14.1,0,0,0,20,3.4a10.13,10.13,0,0,0-2.69,3.17,10.13,10.13,0,0,0-1,4.81V23h13.6V9.56H24.41A6.36,6.36,0,0,1,24.7,7.88Z" transform="translate(0 0)"/></svg>