<svg id="Layer_1" data-name="Layer 1" xmlns="http://www.w3.org/2000/svg" viewBox="0 0 30.01 17.35"><path d="M29.87,10.72v-.06h0a1.73,1.73,0,0,0-.43-.38,2.43,2.43,0,0,0-.62-.27L16.71,6.6a5.47,5.47,0,0,0-3.44,0L1.27,10a2.57,2.57,0,0,0-.82.38,1.3,1.3,0,0,0-.3.32.91.91,0,0,0,0,1,1.48,1.48,0,0,0,.46.44,2.16,2.16,0,0,0,.61.24L6.14,14v5.86a1.56,1.56,0,0,0,.26.81,3.94,3.94,0,0,0,1.18,1.12,14,14,0,0,0,7.1,1.93H15a15,15,0,0,0,6.09-1.22A6.9,6.9,0,0,0,23,21.3a2.5,2.5,0,0,0,.59-.66,1.46,1.46,0,0,0,.27-.81V14l2.91-.91v2.78l-1.35,4.08a.63.63,0,0,0,.28.73,2.45,2.45,0,0,0,.52.24,2.84,2.84,0,0,0,2.84-.27.63.63,0,0,0,.24-.7L28,15.82V12.65l.77-.27a2.79,2.79,0,0,0,.8-.38,1.32,1.32,0,0,0,.29-.33A.9.9,0,0,0,29.87,10.72ZM7.41,14.38l5.87,1.8a5.56,5.56,0,0,0,3.47,0l5.88-1.8v5.49a.34.34,0,0,1-.06.15,2.93,2.93,0,0,1-.83.74A12.9,12.9,0,0,1,15,22.43h-.12a13.72,13.72,0,0,1-5.47-1.11,6.16,6.16,0,0,1-1.57-1,1.88,1.88,0,0,1-.35-.39.35.35,0,0,1-.07-.15Zm6.22.67-12-3.78h0l12-3.41a4.36,4.36,0,0,1,2.72,0l12,3.41h0l-12,3.8A4.29,4.29,0,0,1,13.63,15ZM28,19.76a1.5,1.5,0,0,1-.55.11,2.2,2.2,0,0,1-.62-.12l.58-1.83Z" transform="translate(0 -6.33)"/></svg>