<svg id="Layer_1" data-name="Layer 1" xmlns="http://www.w3.org/2000/svg" viewBox="0 0 1024 768"><path d="M1004.51,444.26l-160-256A127.94,127.94,0,0,0,736,128.1H128A128,128,0,0,0,0,256.1v512a128,128,0,0,0,128,128H736a128,128,0,0,0,108.51-60.2l160-256a127.73,127.73,0,0,0,0-135.64ZM950.24,546l-160,256.07A63.61,63.61,0,0,1,736,832.1H128a64.08,64.08,0,0,1-64-64v-512a64.06,64.06,0,0,1,64-64H736a63.67,63.67,0,0,1,54.24,30l160,256a64.3,64.3,0,0,1,0,67.84ZM736,416.1a96,96,0,1,0,96,96A96,96,0,0,0,736,416.1Zm0,160a64,64,0,1,1,64-64A64,64,0,0,1,736,576.13Z" transform="translate(0 -128.1)"/></svg>