<svg id="Layer_1" data-name="Layer 1" xmlns="http://www.w3.org/2000/svg" viewBox="0 0 992 992"><path d="M496,0C222.05,0,0,222.05,0,496S222.05,992,496,992,992,770,992,496,770,0,496,0ZM927.2,480H735.33c-1.76-70.88-14.37-138.59-36.74-200.58a522.33,522.33,0,0,0,119.55-70.3A429.84,429.84,0,0,1,927.2,480ZM478.3,927.1c-53.18-44.28-97.79-101.79-130.43-168.57,41.89-13.09,86.27-20.26,132.13-21.73V927.17c-.58,0-1.12,0-1.7-.07ZM513.63,64.9c60.35,50.24,109.6,117.53,142.91,196A495,495,0,0,1,512,287.17V64.8Zm53.31,5.44A430.76,430.76,0,0,1,796.19,186,489.34,489.34,0,0,1,686.5,249.92c-29.12-69-70-130-119.56-179.58ZM480,64.8V287.17a495.85,495.85,0,0,1-144.58-26.24c33.32-78.5,82.56-145.79,142.92-196ZM305.47,250A490.82,490.82,0,0,1,195.81,186,430.67,430.67,0,0,1,425.06,70.37C375.46,119.87,334.62,180.9,305.47,250Zm17.89,40.48A525.58,525.58,0,0,0,480,319.2V480H288.67C290.4,413,302.27,349,323.36,290.43ZM480,512V704.8a525.24,525.24,0,0,0-145.25,24.61C307,663.42,290.69,589.92,288.67,512ZM425.06,921.66A429.74,429.74,0,0,1,215.62,824a486.37,486.37,0,0,1,102-54.4c27.91,57.86,64.42,109.22,107.43,152.06ZM512,927.2V736.83c45.82,1.47,90.24,8.64,132.13,21.73-32.67,66.78-77.25,124.29-130.43,168.58-.55,0-1.12,0-1.7.06ZM674.37,769.6a490.49,490.49,0,0,1,102,54.4,430,430,0,0,1-209.44,97.66C610,878.82,646.43,827.46,674.37,769.6Zm-17.12-40.19A525.62,525.62,0,0,0,512,704.8V512H703.33c-2,77.92-18.4,151.42-46.08,217.41ZM512,480V319.2a526,526,0,0,0,156.64-28.74C689.7,349,701.57,413,703.33,480H512ZM173.89,209.12a522.77,522.77,0,0,0,119.52,70.3c-22.37,62-35,129.7-36.74,200.58H64.8A429.71,429.71,0,0,1,173.89,209.12ZM64.8,512H256.67c2,81.76,19.07,159,48.1,228.38a519.27,519.27,0,0,0-113.22,61.8A430.87,430.87,0,0,1,64.8,512ZM800.45,802.14A520.45,520.45,0,0,0,687.2,740.35c29.06-69.41,46.11-146.62,48.13-228.38H927.2A430.84,430.84,0,0,1,800.45,802.14Z" transform="translate(0 0)"/></svg>