<svg id="Layer_1" data-name="Layer 1" xmlns="http://www.w3.org/2000/svg" viewBox="0 0 30 29.9"><title>icon_grammar</title><path d="M26.5,1.75V1a.9.9,0,0,0-.9-.9H21.4a9.88,9.88,0,0,0-5.85,1.87.93.93,0,0,1-1.1,0A9.88,9.88,0,0,0,8.6.05H4.4a.9.9,0,0,0-.9.9v.8a.9.9,0,0,1-.9.9H.9a.9.9,0,0,0-.9.9v22a.9.9,0,0,0,.9.9H6.8a8,8,0,0,1,5.8,2.4l.84.84a.88.88,0,0,0,.63.26h1.76a.88.88,0,0,0,.63-.26l.84-.84a7.73,7.73,0,0,1,5.6-2.4h6.2a.9.9,0,0,0,.9-.9v-22a.9.9,0,0,0-.9-.9H27.4A.9.9,0,0,1,26.5,1.75Zm-1.8,1v17.6a.9.9,0,0,1-.9.9H21.4a9.7,9.7,0,0,0-4.24,1,.9.9,0,0,1-1.26-.83v-17a.92.92,0,0,1,.31-.7A7.94,7.94,0,0,1,21.4,1.85h2.4A.9.9,0,0,1,24.7,2.75Zm-19.4,0a.9.9,0,0,1,.9-.9H8.6a8.31,8.31,0,0,1,5.17,1.83.89.89,0,0,1,.33.7V21.29a.9.9,0,0,1-1.26.83,9.7,9.7,0,0,0-4.24-1H6.2a.9.9,0,0,1-.9-.9Zm22.9,22H22.9a9.55,9.55,0,0,0-6.8,2.9l-.6.6h-1l-.6-.6a9.84,9.84,0,0,0-7-2.9H2.7a.9.9,0,0,1-.9-.9V5.35a.9.9,0,0,1,.9-.9h0a.9.9,0,0,1,.9.9v16.7a.9.9,0,0,0,.9.9H8.7a8,8,0,0,1,5.73,2.33.79.79,0,0,1,.12.15l.45.62.6-.6a8.25,8.25,0,0,1,5.8-2.4h4.2a.9.9,0,0,0,.9-.9V5.35a.9.9,0,0,1,.9-.9h0a.9.9,0,0,1,.9.9v19.4ZM8,3.55H9.7a.9.9,0,0,1,.9.9h0a.9.9,0,0,1-.9.9H8a.9.9,0,0,1-.9-.9h0A.9.9,0,0,1,8,3.55Zm0,3.6h3.5a.9.9,0,0,1,.9.9h0a.9.9,0,0,1-.9.9H8a.9.9,0,0,1-.9-.9h0A.9.9,0,0,1,8,7.15Zm0,3.5h3.5a.9.9,0,0,1,.9.9h0a.9.9,0,0,1-.9.9H8a.9.9,0,0,1-.9-.9h0A.9.9,0,0,1,8,10.65Zm0,3.5h3.5a.9.9,0,0,1,.9.9h0a.9.9,0,0,1-.9.9H8a.9.9,0,0,1-.9-.9h0A.9.9,0,0,1,8,14.15Zm0,3.5h3.5a.9.9,0,0,1,.9.9h0a.9.9,0,0,1-.9.9H8a.9.9,0,0,1-.9-.9h0A.9.9,0,0,1,8,17.65ZM20.3,3.55H22a.9.9,0,0,1,.9.9h0a.9.9,0,0,1-.9.9H20.3a.9.9,0,0,1-.9-.9h0A.9.9,0,0,1,20.3,3.55Zm-1.8,3.6H22a.9.9,0,0,1,.9.9h0A.9.9,0,0,1,22,9H18.5a.9.9,0,0,1-.9-.9h0A.9.9,0,0,1,18.5,7.15Zm0,3.5H22a.9.9,0,0,1,.9.9h0a.9.9,0,0,1-.9.9H18.5a.9.9,0,0,1-.9-.9h0A.9.9,0,0,1,18.5,10.65Zm0,3.5H22a.9.9,0,0,1,.9.9h0a.9.9,0,0,1-.9.9H18.5a.9.9,0,0,1-.9-.9h0A.9.9,0,0,1,18.5,14.15Zm0,3.5H22a.9.9,0,0,1,.9.9h0a.9.9,0,0,1-.9.9H18.5a.9.9,0,0,1-.9-.9h0A.9.9,0,0,1,18.5,17.65Z" transform="translate(0 -0.05)"/></svg>