<svg id="Layer_1" data-name="Layer 1" xmlns="http://www.w3.org/2000/svg" width="28.29" height="30.26" viewBox="0 0 28.29 30.26"><title>icon_ranking</title><path d="M28.17,17.53V12a.78.78,0,0,0-.75-.79H24.54V.63A.8.8,0,0,0,24.17,0a.77.77,0,0,0-.75,0L15.3,3.89a.8.8,0,0,0,.06,1.4l7.6,3v3H14.3a.79.79,0,0,0-.8.79v5H7.7a.79.79,0,0,0-.78.79v5H.7a.78.78,0,0,0-.78.78v5.78a.79.79,0,0,0,.74.79H27.42a.8.8,0,0,0,.79-.79V17.77A2,2,0,0,0,28.17,17.53ZM15.08,12.81H26.63V17H15.08Zm11.55,5.77v4.2H8.54l0-4.2Zm-25.17,10V24.36H26.63v4.18Zm16.17-24L23,1.94V6.56Z" transform="translate(0.08 0.14)"/></svg>