<svg id="Layer_1" data-name="Layer 1" xmlns="http://www.w3.org/2000/svg" viewBox="0 0 30 26.47"><title>icon_checked</title><path d="M30,3a1,1,0,0,0-.3-.72L27.77.3A1.05,1.05,0,0,0,26.3.3L23.21,3.39a6,6,0,0,0-4.3-1.82H6a6,6,0,0,0-6,6v12.9a6,6,0,0,0,6,6H18.9a6,6,0,0,0,6-6v-12L29.7,3.7A1.07,1.07,0,0,0,30,3ZM23,20.47a4.11,4.11,0,0,1-4.1,4.11H6a4.13,4.13,0,0,1-4.1-4.11V7.57A4.12,4.12,0,0,1,6,3.47H18.9a4.08,4.08,0,0,1,3,1.27L12.64,14,7.7,9A1,1,0,0,0,7,8.73H7a1,1,0,0,0-.73.3L4.3,11a1,1,0,0,0,0,1.41l0,.05L11.9,20a1,1,0,0,0,1.41.06l.06-.06L23,10.38Z" transform="translate(0 0)"/></svg>