<svg id="Layer_1" data-name="Layer 1" xmlns="http://www.w3.org/2000/svg" viewBox="0 0 1024 672"><path d="M896,160H128A128,128,0,0,0,0,288V704A128,128,0,0,0,128,832H896a128,128,0,0,0,128-128V288A128,128,0,0,0,896,160ZM64,328,288,496,64,664V328ZM960,704a64.07,64.07,0,0,1-64,64H128a64,64,0,0,1-64-64L314.62,516,454.4,620.86a96,96,0,0,0,115.17,0L709.38,516Zm0-40L736,496,960,328ZM550.37,595.26a64,64,0,0,1-76.77,0L64,288a64.06,64.06,0,0,1,64-64H896a64.08,64.08,0,0,1,64,64L550.37,595.26Z" transform="translate(0 -160)"/></svg>