<svg id="Layer_1" data-name="Layer 1" xmlns="http://www.w3.org/2000/svg" width="29.9" height="29.9" viewBox="0 0 29.9 29.9"><title>icon_star_half_circle</title><path d="M28.26,21.88a14.94,14.94,0,0,0-26.42-14A15,15,0,0,0,15,30a14.73,14.73,0,0,0,6.87-1.69A15,15,0,0,0,28.26,21.88ZM3.51,15A11.49,11.49,0,1,1,15,26.49,11.5,11.5,0,0,1,3.51,15ZM21.83,5.77A11.43,11.43,0,0,1,24.26,8.2,11.43,11.43,0,0,0,21.83,5.77ZM5.5,8.53a11.49,11.49,0,0,1,3-3A11.49,11.49,0,0,0,5.5,8.53ZM8.2,24.26a11.43,11.43,0,0,1-2.43-2.43A11.43,11.43,0,0,0,8.2,24.26ZM24,22.18A11.65,11.65,0,0,1,22.18,24,11.65,11.65,0,0,0,24,22.18ZM21.63,12l-3.75-.58L16.22,7.87A1.49,1.49,0,0,0,15,7h-.1a1.51,1.51,0,0,0-1.23.84L12,11.41,8.27,12a1.48,1.48,0,0,0-1.18,1,1.57,1.57,0,0,0,.38,1.54l2.72,2.7-.65,3.92a1.58,1.58,0,0,0,.58,1.48A1.46,1.46,0,0,0,11,23h0a1.51,1.51,0,0,0,.69-.18L15,21l3.26,1.8a1.41,1.41,0,0,0,1.57-.11,1.56,1.56,0,0,0,.57-1.47l-.64-3.92,2.72-2.71A1.54,1.54,0,0,0,22.81,13,1.48,1.48,0,0,0,21.63,12Zm.08,1.85L18.63,17l.73,4.44a.51.51,0,0,1-.19.51.42.42,0,0,1-.48,0L15,19.84V8a.44.44,0,0,1,.31.25l1.9,4,4.26.67a.49.49,0,0,1,.38.35A.55.55,0,0,1,21.71,13.86Z" transform="translate(-0.05 -0.05)"/></svg>