<svg id="Layer_1" data-name="Layer 1" xmlns="http://www.w3.org/2000/svg" viewBox="0 0 704 1024"><path d="M768,0H256a96,96,0,0,0-96,96V928a96,96,0,0,0,96,96H768a96,96,0,0,0,96-96V96A96,96,0,0,0,768,0Zm32,928a32.06,32.06,0,0,1-32,32H256a32,32,0,0,1-32-32V863.87H800Zm0-96.13H224V192H800ZM800,160H224V96a32,32,0,0,1,32-32H768a32,32,0,0,1,32,32ZM576,112a16,16,0,0,1-16,16H464a16,16,0,0,1-16-16h0a16,16,0,0,1,16-16h96a16,16,0,0,1,16,16ZM544,911.87a16,16,0,0,1-16,16H496a16,16,0,0,1-16-16h0a16,16,0,0,1,16-16h32a16,16,0,0,1,16,16Z" transform="translate(-160 0)"/></svg>