<svg id="Layer_1" data-name="Layer 1" xmlns="http://www.w3.org/2000/svg" viewBox="0 0 30 29.9"><title>icon_pronounce</title><path d="M13.7,22.5a1.31,1.31,0,0,0,1.2,1.3,1.24,1.24,0,0,0,1.2-1.3V7.5a1.2,1.2,0,0,0-2.4,0ZM1.2,7.5A1.31,1.31,0,0,0,0,8.8V21.3a1.22,1.22,0,0,0,1.2,1.2,1.22,1.22,0,0,0,1.2-1.2V8.8A1.18,1.18,0,0,0,1.2,7.5ZM11.9,20V10a1.2,1.2,0,0,0-2.4,0V20a1.2,1.2,0,1,0,2.4,0ZM6.3,18.7a1.22,1.22,0,0,0,1.2-1.2v-5a1.22,1.22,0,0,0-1.2-1.2A1.3,1.3,0,0,0,5,12.5v5A1.24,1.24,0,0,0,6.3,18.7ZM20.6,20V10a1.24,1.24,0,0,0-1.3-1.2A1.22,1.22,0,0,0,18.1,10V20a1.22,1.22,0,0,0,1.2,1.2A1.3,1.3,0,0,0,20.6,20ZM28.7,7.5a1.22,1.22,0,0,0-1.2,1.2V21.2a1.22,1.22,0,0,0,1.2,1.2A1.31,1.31,0,0,0,30,21.2V8.8A1.32,1.32,0,0,0,28.7,7.5Zm-5,3.8a1.22,1.22,0,0,0-1.2,1.2v5a1.22,1.22,0,0,0,1.2,1.2A1.31,1.31,0,0,0,25,17.5v-5A1.24,1.24,0,0,0,23.7,11.3Zm-10,17.4a1.2,1.2,0,1,0,2.4,0V27.4a1.2,1.2,0,0,0-2.4,0ZM15,3.8a1.22,1.22,0,0,0,1.2-1.2V1.3A1.24,1.24,0,0,0,15,0a1.22,1.22,0,0,0-1.2,1.2V2.4A1.22,1.22,0,0,0,15,3.8Z"/></svg>