<svg id="Layer_1" data-name="Layer 1" xmlns="http://www.w3.org/2000/svg" width="30" height="30" viewBox="0 0 30 30"><title>icon_speaking</title><path d="M9.45,23a4,4,0,0,0,.48-2,4,4,0,1,0-8,0,4,4,0,0,0,.48,2A4.52,4.52,0,0,0,0,26.9v2.26A.89.89,0,0,0,.84,30H11.07a.88.88,0,0,0,.83-.84V26.89A4.76,4.76,0,0,0,9.45,23ZM6,23.51A2.41,2.41,0,1,1,8.36,21.1,2.41,2.41,0,0,1,6,23.51Zm-2.33.71A3.32,3.32,0,0,0,6,25.08a3.82,3.82,0,0,0,2.32-.76,2.7,2.7,0,0,1,2,2.58v1.43H1.67V26.8A2.71,2.71,0,0,1,3.62,24.22ZM27.55,23A4,4,0,0,0,28,21a4,4,0,1,0-8,0A3.91,3.91,0,0,0,20.55,23,4.32,4.32,0,0,0,18.1,26.8v2.27a.88.88,0,0,0,.83.83H29.16a.88.88,0,0,0,.84-.83V26.8A4.51,4.51,0,0,0,27.55,23Zm-3.5.54a2.41,2.41,0,0,1-2.41-2.4,2.54,2.54,0,0,1,2.41-2.42,2.41,2.41,0,1,1,0,4.82Zm-2.32.71a3.92,3.92,0,0,0,4.64,0,2.71,2.71,0,0,1,2,2.58v1.53H19.77V26.8A2.71,2.71,0,0,1,21.73,24.22Zm2.17-8.53a.59.59,0,0,0,.44.15.58.58,0,0,0,.44-.15.77.77,0,0,0,.4-.69V13.42a3.72,3.72,0,0,0,2.66-3.53,3.82,3.82,0,0,0-2.72-3.62,4.54,4.54,0,0,0,.06-.9,5,5,0,0,0-1.45-3.74A5.28,5.28,0,0,0,19.92,0H16a.88.88,0,0,0-.83.84.87.87,0,0,0,.83.83h3.94a3.7,3.7,0,0,1,3.69,3.69,4.57,4.57,0,0,1-.05.84H15.89a3.71,3.71,0,0,0-3.65,3H10.87a.8.8,0,0,0-.55.15l-3,2.43V10a.88.88,0,0,0-.7-.83A3.87,3.87,0,0,1,3.15,5.36,3.69,3.69,0,0,1,6.84,1.67h3.93a.88.88,0,0,0,.84-.83A.89.89,0,0,0,10.77,0H6.84A5.33,5.33,0,0,0,2.92,9a6.11,6.11,0,0,0,2.69,1.6l.09,2.75a.79.79,0,0,0,.44.71l.07.05h.06l.07.07h.1A.8.8,0,0,0,7,14l4.06-3.29h1.09a3.71,3.71,0,0,0,3.65,2.95h4.84Zm-2.33-3.52A.61.61,0,0,0,21.1,12H16a2.12,2.12,0,0,1-2.21-2.11,2.15,2.15,0,0,1,2.12-2.12h8.36a2.15,2.15,0,0,1,2.11,2.12A2.11,2.11,0,0,1,24.44,12a.8.8,0,0,0-.74.84v.72Zm-4-2.28a.84.84,0,0,1-1.68,0,.84.84,0,1,1,1.68,0Zm3.24,0a.88.88,0,0,1-.83.83.89.89,0,0,1-.84-.83A.89.89,0,0,1,20,9.05.88.88,0,0,1,20.85,9.89Zm2.41.83a.84.84,0,0,1,0-1.67.89.89,0,0,1,.84.84A.89.89,0,0,1,23.26,10.72ZM12.49.84A.89.89,0,0,1,13.33,0a.8.8,0,0,1,.83.84.87.87,0,0,1-.83.83A.88.88,0,0,1,12.49.84Z"/></svg>