<svg id="Layer_1" data-name="Layer 1" xmlns="http://www.w3.org/2000/svg" viewBox="0 0 29.98 30"><title>icon_choose_role</title><path d="M27.3,22.34a4.39,4.39,0,1,0-7.65,0,4.77,4.77,0,0,0-2.41,2.75L17.1,25a2.92,2.92,0,0,0-5-3.06,3.06,3.06,0,0,0-.42,1.31v.34A2.91,2.91,0,0,0,12.07,25a2.9,2.9,0,0,0-.55.36A4.31,4.31,0,0,0,9.4,23a4,4,0,1,0-7,0A4.36,4.36,0,0,0,0,26.87v2.31A.82.82,0,0,0,.8,30H29.06a.9.9,0,0,0,.9-.9V26.57A4.78,4.78,0,0,0,27.3,22.34Zm-3.82-4.73a2.59,2.59,0,1,1-2.59,2.59h0a2.59,2.59,0,0,1,2.58-2.58ZM14.59,21.9a1.68,1.68,0,0,1,.26,3.35,1.13,1.13,0,0,1-.26,0v.05a1.7,1.7,0,0,1,0-3.4Zm-1.68,4a2.93,2.93,0,0,0,3.35,0,1.92,1.92,0,0,1,.74.44v2.52H11.8V26.79A1.89,1.89,0,0,1,12.91,25.9Zm-7-7.27A2.36,2.36,0,0,1,8.27,21h0A2.37,2.37,0,0,1,6,23.41H6v-.05a2.37,2.37,0,0,1,0-4.73Zm4.29,9.72H1.64V26.87a2.7,2.7,0,0,1,2-2.56,4.06,4.06,0,0,0,4.64,0,2.7,2.7,0,0,1,2,2.56Zm18-.15H18.84v-.46a2.94,2.94,0,0,0,0-.42v-.75A3,3,0,0,1,21,23.76h0a4.45,4.45,0,0,0,5.1,0,3,3,0,0,1,2.13,2.81ZM5.64,10.55v2.76A.87.87,0,0,0,7,14l4.1-3.25h1.1a3.7,3.7,0,0,0,3.63,2.9h4.88l3.28,2a.79.79,0,0,0,.45.13.75.75,0,0,0,.38-.1.84.84,0,0,0,.44-.71v-1.5a3.72,3.72,0,0,0-.1-7.16,5.84,5.84,0,0,0,.08-.93A5.36,5.36,0,0,0,19.88,0H16a.82.82,0,0,0,0,1.64H19.9a3.72,3.72,0,0,1,3.67,3.7,3.57,3.57,0,0,1-.09.8H15.81a3.71,3.71,0,0,0-3.63,3H10.84a.87.87,0,0,0-.51.17l-3,2.4V9.87A.83.83,0,0,0,6.56,9h0a3.71,3.71,0,0,1,.32-7.39h3.93a.82.82,0,0,0,.81-.82A.82.82,0,0,0,10.78,0H6.84a5.34,5.34,0,0,0-1.2,10.55ZM15.81,7.87h8.35A2.08,2.08,0,0,1,24.35,12a.82.82,0,0,0-.75.81v.74l-2.23-1.46A.86.86,0,0,0,21,12H15.81a2.08,2.08,0,1,1-.29-4.15h.29ZM16,10a.82.82,0,0,1,.74-.91.83.83,0,0,1,0,1.65A.85.85,0,0,1,16,10Zm3.26,0A.83.83,0,0,1,20,9.08h0a.83.83,0,1,1-.73.92h0Zm3.19-.08h0a.83.83,0,1,1,1.66,0h0a.83.83,0,0,1-.84.82.82.82,0,0,1-.82-.82h0Zm-9.9-9a.83.83,0,0,1,1.65,0h0a.83.83,0,0,1-1.65,0Z" transform="translate(0.02 0)"/></svg>