<svg id="Layer_1" data-name="Layer 1" xmlns="http://www.w3.org/2000/svg" viewBox="0 0 9.01 68.34"><defs><style>.cls-1{fill:#231f20;}</style></defs><path class="cls-1" d="M.36,68.34V66.79H7.63v-4H8.86v5.55ZM6,56.07v4.17a2.31,2.31,0,0,0,1.41-.48,1.76,1.76,0,0,0,.45-1.3,3,3,0,0,0-.7-1.79l1-.43a3.17,3.17,0,0,1,.56,1.06,4,4,0,0,1,.21,1.28A2.93,2.93,0,0,1,6.3,61.77H5.78a3.71,3.71,0,0,1-1.64-.37A2.84,2.84,0,0,1,3,60.4a2.92,2.92,0,0,1-.41-1.52,2.52,2.52,0,0,1,.82-2,3.14,3.14,0,0,1,2.22-.73ZM3.77,58.73a1.36,1.36,0,0,0,.36,1,1.9,1.9,0,0,0,1,.47V57.37a1.69,1.69,0,0,0-1,.42,1.28,1.28,0,0,0-.41.94Zm-.91-10,6,2.65v1.29l-6,2.61V53.76L7.21,52l-4.4-1.77ZM6,42.34v4.18a2.28,2.28,0,0,0,1.45-.44,1.76,1.76,0,0,0,.45-1.3,2.91,2.91,0,0,0-.64-1.85l1-.43a3.17,3.17,0,0,1,.56,1.06A4,4,0,0,1,9,44.84,2.88,2.88,0,0,1,6.42,48a2.81,2.81,0,0,1-.58,0,3.43,3.43,0,0,1-1.67-.33,2.71,2.71,0,0,1-1.12-1,2.83,2.83,0,0,1-.41-1.52,2.52,2.52,0,0,1,.82-2,3.24,3.24,0,0,1,2.22-.73ZM3.77,45a1.36,1.36,0,0,0,.36,1,1.84,1.84,0,0,0,1,.48V43.67a1.69,1.69,0,0,0-1,.42,1.31,1.31,0,0,0-.41.91ZM0,40.67V39.23H8.83v1.49Zm9-10a3.23,3.23,0,0,1-.39,1.64,2.43,2.43,0,0,1-1.08,1.07,3.27,3.27,0,0,1-1.65.37,3.59,3.59,0,0,1-1.67-.38A2.79,2.79,0,0,1,3,32.3a3.29,3.29,0,0,1-.38-1.63,3.77,3.77,0,0,1,.21-1.25,2.61,2.61,0,0,1,.56-1l1.06.42a3.17,3.17,0,0,0-.45.83,2.53,2.53,0,0,0-.17.86,1.57,1.57,0,0,0,.53,1.34,2,2,0,0,0,1.46.45,2.11,2.11,0,0,0,1.47-.44,1.62,1.62,0,0,0,.5-1.28,2.12,2.12,0,0,0-.19-.93,3.15,3.15,0,0,0-.48-.81l1.06-.42a2.61,2.61,0,0,1,.56,1,3.69,3.69,0,0,1,.2,1.28ZM2.68,23.54c0-1.44.84-2.17,2.5-2.17H8.9v1.5H5.21a1.48,1.48,0,0,0-1,.28,1,1,0,0,0-.34.86,1.48,1.48,0,0,0,.45,1.1,1.67,1.67,0,0,0,1.15.42H8.86V27H0v-1.5H3.65a2.07,2.07,0,0,1-.76-.82,2.55,2.55,0,0,1-.25-1.12ZM6,14.08v4.17a2.11,2.11,0,0,0,1.45-.47,1.76,1.76,0,0,0,.45-1.3,3,3,0,0,0-.69-1.81l1-.43a3.17,3.17,0,0,1,.56,1.06,4,4,0,0,1,.21,1.28A2.93,2.93,0,0,1,6.3,19.77a4.51,4.51,0,0,1-.52,0,3.71,3.71,0,0,1-1.64-.37,2.73,2.73,0,0,1-1.5-2.52,2.52,2.52,0,0,1,.82-2,3.14,3.14,0,0,1,2.22-.73ZM3.76,16.74a1.36,1.36,0,0,0,.36,1,1.84,1.84,0,0,0,1,.48V15.43a1.69,1.69,0,0,0-1,.42,1.26,1.26,0,0,0-.4.93ZM9,9.67a3.23,3.23,0,0,1-.39,1.64,2.43,2.43,0,0,1-1.08,1.07,3.27,3.27,0,0,1-1.65.37,3.59,3.59,0,0,1-1.67-.38A2.81,2.81,0,0,1,3,11.29a3.28,3.28,0,0,1-.38-1.62,3.77,3.77,0,0,1,.21-1.25,2.61,2.61,0,0,1,.56-1l1.06.42A3.17,3.17,0,0,0,4,8.67a2.53,2.53,0,0,0-.17.86,1.61,1.61,0,0,0,.53,1.3,2,2,0,0,0,1.46.45,2.11,2.11,0,0,0,1.47-.44,1.62,1.62,0,0,0,.5-1.28,2.08,2.08,0,0,0-.14-.89,3.15,3.15,0,0,0-.48-.81l1.06-.42a2.61,2.61,0,0,1,.56,1A3.7,3.7,0,0,1,9,9.67ZM8.9,1.84,6,4.52H8.8V6H0V4.52H5.45L2.81,2V.22L5.7,2.94,8.86,0Z"/></svg>