<svg id="Layer_1" data-name="Layer 1" xmlns="http://www.w3.org/2000/svg" viewBox="0 0 30.1 26.03"><title>icon_cert</title><path d="M27.85,2H2.05A2.11,2.11,0,0,0,0,4.09v17.5a2.11,2.11,0,0,0,2.1,2.1h15.1l-.5,2.8a1.3,1.3,0,0,0,.5,1.3,1.05,1.05,0,0,0,1.3,0l3.3-1.7h.4l3.3,1.7a1.85,1.85,0,0,0,.7.2,1.85,1.85,0,0,0,.7-.2,1.43,1.43,0,0,0,.5-1.3l-.5-2.8H28a2.11,2.11,0,0,0,2.1-2.1V4.09A2.27,2.27,0,0,0,27.85,2ZM23,24.49a2.56,2.56,0,0,0-2.1,0l-2.3,1.2.7-4.5a5.94,5.94,0,0,0,2.6.7,4.84,4.84,0,0,0,2.6-.7l.3,1.7.4,2.7Zm-1-4.3a3.6,3.6,0,1,1,3.6-3.6A3.59,3.59,0,0,1,22,20.19Zm6.2,1.4a.27.27,0,0,1-.3.3h-1.4l-.3-2a5,5,0,0,0,1.2-3.4,5.4,5.4,0,0,0-10.8,0,5.61,5.61,0,0,0,1.2,3.4l-.3,2H2.05a.27.27,0,0,1-.3-.3V4.09a.27.27,0,0,1,.3-.3h25.8a.27.27,0,0,1,.3.3ZM25.65,8a.9.9,0,0,1-.9.9H4.55a.9.9,0,0,1-.9-.9.88.88,0,0,1,.9-.8h20.2A.88.88,0,0,1,25.65,8ZM14,12.89a.9.9,0,0,1-.9.9H4.55a.9.9,0,0,1,0-1.8h8.5A.9.9,0,0,1,14,12.89Z" transform="translate(0.05 -1.99)"/></svg>