<svg id="Layer_1" data-name="Layer 1" xmlns="http://www.w3.org/2000/svg" viewBox="0 0 30.22 29.9"><title>icon_open_topic</title><path d="M22.12,13.7a8.1,8.1,0,1,0,8.1,8.1h0a8.07,8.07,0,0,0-8-8.1Zm0,14.25a6.2,6.2,0,1,1,6.2-6.2A6.21,6.21,0,0,1,22.12,28Zm2.3-9.2,1.4,1.2-4.4,5c0,.2-.3.3-.6.3a1.09,1.09,0,0,1-.7-.3l-2.5-2.5,1.3-1.3,1.8,1.8ZM1.7,23V7.3A1.58,1.58,0,0,1,3.26,5.7H4.9V6A2.22,2.22,0,0,0,7.12,8.1H14A2.14,2.14,0,0,0,16.12,6v-.3h1.5a1.58,1.58,0,0,1,1.6,1.56v3.94H21V7.2a3.37,3.37,0,0,0-3.34-3.4H16.12V3.4a.9.9,0,0,0-.9-.9h-1.4A3.46,3.46,0,0,0,10.52,0a3.55,3.55,0,0,0-3.3,2.5H5.8a.9.9,0,0,0-.9.9h0v.4H3.4A3.37,3.37,0,0,0,0,7.14V22.8a3.37,3.37,0,0,0,3.34,3.4h8V24.5h-8A1.58,1.58,0,0,1,1.7,23ZM6.8,4.45H8.12a.9.9,0,0,0,.9-.9,1.6,1.6,0,1,1,3.2,0,.9.9,0,0,0,.9.9h1.2v1.6a.27.27,0,0,1-.24.3h-7a.27.27,0,0,1-.3-.24V6.05Zm-2.2,5.6H16.5V12H4.6Zm0,3.8h9v1.9h-9Zm0,3.7h6.8v1.9H4.6Z" transform="translate(0 0)"/></svg>