<svg id="Layer_1" data-name="Layer 1" xmlns="http://www.w3.org/2000/svg" width="25.93" height="30.05" viewBox="0 0 25.93 30.05"><title>icon_practice_roleplay</title><path d="M7.22,6.27a.9.9,0,0,1,.83-.95V5.25h0a.93.93,0,0,1,.69.27A.91.91,0,0,1,9,6.15v0a.9.9,0,0,1-.85,1h0A.91.91,0,0,1,7.22,6.27ZM28,14.12a12.8,12.8,0,0,1-1.85,7,7.25,7.25,0,0,0-1.17,3.78v4.23a.88.88,0,0,1-.26.63.92.92,0,0,1-.63.26h-8.3a.9.9,0,0,1-.88-.9V27.25h-4a.9.9,0,0,1-.9-.91V21.77H8.7a.91.91,0,0,1-.81-1.3l2.1-4.2v-2.1a10.41,10.41,0,0,1,.17-1.84H2.94a.9.9,0,0,1-.9-.9V.86A.89.89,0,0,1,2.31.23.87.87,0,0,1,2.93,0H21.15A.91.91,0,0,1,22,.88v4.8A9,9,0,0,1,28,14.12ZM16.68,26.35v1.87h6.47V24.91a9,9,0,0,1,1.38-4.63,11.15,11.15,0,0,0,1.65-6.11h0A7.23,7.23,0,0,0,22,7.64V11.4a.89.89,0,0,1-.89.9h-3.8L15.63,14a.93.93,0,0,1-.64.25.91.91,0,0,1-.63-.25l-1.71-1.69H12a7.12,7.12,0,0,0-.21,1.84v2.32a.8.8,0,0,1-.11.4L10.19,20h.72a.93.93,0,0,1,.91.91v4.56h4a.93.93,0,0,1,.63.27A.9.9,0,0,1,16.68,26.35ZM20.2,1.78H3.85v8.74H13a.87.87,0,0,1,.63.27L15,12.12l1.37-1.33a.86.86,0,0,1,.62-.27H20.2ZM2.94,21.12h0v0a.91.91,0,0,0-.88.91v3.63a.91.91,0,0,0,1.81,0V22A.91.91,0,0,0,2.94,21.12Zm3.52,1.17h0v0a.91.91,0,0,0-.88.91v1.29a.89.89,0,0,0,.8,1h.1a.91.91,0,0,0,.9-.81.61.61,0,0,0,0-.19V23.2A.92.92,0,0,0,6.46,22.29ZM16,7h0a.91.91,0,1,0-.9-.9A.9.9,0,0,0,16,7Zm-4,.1a.9.9,0,0,0,.91-.9.9.9,0,0,0-.22-.66.89.89,0,0,0-.61-.31H12l0,.06a.91.91,0,0,0-.87.91A.9.9,0,0,0,12,7.12Z" transform="translate(-2.04 0.03)"/></svg>