<svg id="Layer_1" data-name="Layer 1" xmlns="http://www.w3.org/2000/svg" viewBox="0 0 1024 1024"><path d="M928,0H224a96,96,0,0,0-96,96v64H96A96,96,0,0,0,0,256V896a128,128,0,0,0,128,128H896a128,128,0,0,0,128-128V96A96,96,0,0,0,928,0Zm32,896a64.11,64.11,0,0,1-64,64H128a64.08,64.08,0,0,1-64-64V256a32,32,0,0,1,32-32h32V864a32,32,0,0,0,64,0V96a32,32,0,0,1,32-32H928a32,32,0,0,1,32,32ZM623.94,416.16a16,16,0,0,1,0-32h256a16,16,0,0,1,0,32Zm0-96a16,16,0,0,1,0-32h256a16,16,0,0,1,0,32Zm0-96a16,16,0,0,1,0-32h256a16,16,0,0,1,0,32ZM528,864.13a16,16,0,0,1,0,32H272a16,16,0,0,1,0-32Zm0-96a16,16,0,0,1,0,32H272a16,16,0,0,1,0-32Zm0-96a16,16,0,0,1,0,32H272a16,16,0,0,1,0-32Zm352,192a16,16,0,0,1,0,32H624a16,16,0,0,1,0-32Zm0-96a16,16,0,0,1,0,32H624a16,16,0,0,1,0-32Zm0-96a16,16,0,0,1,0,32H624a16,16,0,0,1,0-32Zm0-192a16,16,0,0,1,0,32H272a16,16,0,0,1,0-32Zm0,96a16,16,0,0,1,0,32H272a16,16,0,0,1,0-32ZM288,416H512a32,32,0,0,0,32-32V160.13a32,32,0,0,0-32-32H288a32,32,0,0,0-32,32V384A32,32,0,0,0,288,416Zm32-224H480V352H320Z" transform="translate(0 0)"/></svg>