<svg id="Layer_1" data-name="Layer 1" xmlns="http://www.w3.org/2000/svg" viewBox="0 0 30.01 22.98"><title>icon_quote_bottom</title><path d="M30,0V11.56a10.05,10.05,0,0,1-1,4.79,9.92,9.92,0,0,1-2.78,3.23,14.63,14.63,0,0,1-3.66,2c-1.31.49-2.64.94-3.93,1.34l-.2.06-2.19-4,.28-.1A20.45,20.45,0,0,0,19,17.76a6.83,6.83,0,0,0,1.68-1.19,4.38,4.38,0,0,0,.91-1.41,5.58,5.58,0,0,0,.29-1.67H16.34V0ZM.08,13.49H5.6a6.15,6.15,0,0,1-.29,1.65,4.23,4.23,0,0,1-.91,1.45,7.39,7.39,0,0,1-1.64,1.19,20.33,20.33,0,0,1-2.48,1.1L0,19l2.22,4,.2-.06C3.71,22.49,5,22,6.35,21.56a14.51,14.51,0,0,0,3.64-2,10.17,10.17,0,0,0,2.69-3.18,10.13,10.13,0,0,0,1-4.81V0H.08Z"/></svg>