<svg id="Layer_1" data-name="Layer 1" xmlns="http://www.w3.org/2000/svg" viewBox="0 0 28.02 30.01"><title>icon_checking</title><path d="M10.25,9.47a.88.88,0,0,1-1,.78H4.41A.88.88,0,0,1,4.6,8.5H9.47a.88.88,0,0,1,.78,1Zm-1,3.71H4.6a.88.88,0,0,0,0,1.76H9.28a.88.88,0,0,0,0-1.76h0Zm0,4.69H4.6a.88.88,0,0,0,0,1.76H9.28a.88.88,0,0,0,0-1.76h0Zm16.81,10a7,7,0,0,1-9.9.2H2.6A2.64,2.64,0,0,1,0,25.43V2.64A2.64,2.64,0,0,1,2.6,0H13.92A4.4,4.4,0,0,1,17,1.32L20.62,5a4.39,4.39,0,0,1,1.26,3.1v8a7,7,0,0,1,4.21,11.8Zm-11.25-1.6a7.11,7.11,0,0,1-.74-2.34,7,7,0,0,1,6-7.86v-8a2.63,2.63,0,0,0-.75-1.84L15.8,2.54a2.65,2.65,0,0,0-1.88-.78H2.6a.87.87,0,0,0-.88.88h0V25.43a.9.9,0,0,0,.88.88ZM26.28,23A5.22,5.22,0,1,0,21,28.24h.08A5.22,5.22,0,0,0,26.28,23Zm-4.49-1.94-1.48,1.78L20,22.17a.92.92,0,0,0-1.22-.39A.91.91,0,0,0,18.42,23l.94,1.88a.92.92,0,0,0,.68.48h.1a.88.88,0,0,0,.68-.36l2.34-2.82a.89.89,0,0,0-1.37-1.12Zm-8-10.81h1.13a.88.88,0,1,0,.19-1.75H14a.88.88,0,0,0-.19,1.75h0Zm2,3.81a.9.9,0,0,0-.88-.88H14A.88.88,0,0,0,14,15H15a.88.88,0,0,0,.83-.89Z" transform="translate(-0.02 -0.01)"/></svg>