<svg id="Layer_1" data-name="Layer 1" xmlns="http://www.w3.org/2000/svg" viewBox="0 0 704 1024"><path d="M480,320a32,32,0,1,1,32,32A32,32,0,0,1,480,320Zm0,384a32,32,0,1,1,32,32A32,32,0,0,1,480,704ZM288,512a32,32,0,1,1,32,32A32,32,0,0,1,288,512Zm384,0a32,32,0,1,1,32,32A32,32,0,0,1,672,512ZM344.22,647.74a32,32,0,1,1,32,32A32,32,0,0,1,344.22,647.74Zm0-271.52a32,32,0,1,1,32,32A32,32,0,0,1,344.22,376.22ZM615.74,647.74a32,32,0,1,1,32,32A32,32,0,0,1,615.74,647.74ZM832,448c-2.24,0-4.13,1.06-6.3,1.28-11.14-55.84-37.44-105.79-73.51-147l-46-250A63.94,63.94,0,0,0,643.33,0h-256a64.08,64.08,0,0,0-62.95,52.32l-44.8,241.57C225.82,351.07,192,427.26,192,512c0,82.66,32.45,157,83.87,213.7l45.19,246A64,64,0,0,0,384,1024H640a64.1,64.1,0,0,0,62.94-52.32l45.57-245.82c38-42,65.7-93.44,77.19-151.2,2.17.28,4.06,1.34,6.3,1.34a64,64,0,0,0,0-128ZM387.33,64h256l32,172.38C628.06,208.9,574,192,515.33,192s-112.74,16.9-160,44.38ZM640,960H384L352,787.62C399.23,815.07,453.38,832,512,832s112.77-16.93,160-44.38ZM512,768c-141.15,0-256-114.88-256-256S370.85,256,512,256,768,370.85,768,512,653.12,768,512,768ZM670.11,352.83a10.9,10.9,0,0,1,.9,14.37l-77.63,96.67-59.14,71.2a32.92,32.92,0,0,1-22.37,8.87,32.22,32.22,0,0,1-22.62-9.35A31.29,31.29,0,0,1,480,512.26a32.31,32.31,0,0,1,9.47-23L655.62,352.16a10.86,10.86,0,0,1,14.49.67Z" transform="translate(-192 0)"/></svg>