<svg id="Layer_1" data-name="Layer 1" xmlns="http://www.w3.org/2000/svg" viewBox="0 0 704.24 1024"><path d="M704,288c-2,85.6-66.24,157.89-66.24,157.89C637.76,286.66,512,160,512,160s-1.7,94.78-65.38,190.34C382.94,127.39,191.84,0,191.84,0,287.39,350.34,160,477.76,160,732.54,160,882,286.53,1024,480,1024c286.62,0,342-105.22,371.68-223.78C892.51,637,831.36,447.23,704,288Zm85.63,496.67C769.06,866.88,745.82,960,480,960c-160.26,0-256-115.65-256-227.46,0-85.63,15.62-155.93,32.13-230.36,21-94.37,42.49-191,33.18-318.76C388,320,423.14,501,423.14,501S515,372,539.71,312.13C558.62,350.62,576,480,576,608c0,0,85-70,148.74-175.3,67.13,120.39,91.32,246.24,64.89,352ZM717.82,537.44l6,33.12c13.31,74.18,5.85,161.86-18.95,223.42A16,16,0,0,1,690,804a16.42,16.42,0,0,1-6-1.15,16,16,0,0,1-8.86-20.8c18.68-46.37,26.56-111.65,21.56-171.3-32.12,35.91-72.6,73.31-159.1,114.4l-16.19,7.65-5.83-16.9C504,682.3,492.32,648.35,487.26,601c-17.31,27.3-33.12,51.62-59.68,87.78l-16.25,22.14-11.27-25.08c-27.55-61.6-48.54-109.7-65.18-152C319.49,583.3,308,640.48,308,756a16,16,0,0,1-32,0c0-150.69,20-208.74,41.12-270.21l16.64-48.32,15.33,43.2c16.48,46.43,38.17,97.6,68.86,166.78,20.23-28.57,33.79-50.08,50.18-76L516.7,495.3V550c0,61.57,11.08,101.8,23.27,138.34,85.09-42.82,117-80.06,150.65-119.36l27.2-31.52Z" transform="translate(-160 0)"/></svg>