<svg id="Layer_1" data-name="Layer 1" xmlns="http://www.w3.org/2000/svg" viewBox="0 0 30 30"><title>icon_num_five</title><path d="M15,0a15,15,0,0,0,0,30H30V15A15,15,0,0,0,15,0Zm4,19.43a4.06,4.06,0,0,1-1.72,1.51,5.92,5.92,0,0,1-2.62.54,7.66,7.66,0,0,1-2.42-.39A5.34,5.34,0,0,1,10.35,20l.9-2A6.9,6.9,0,0,0,13,19a5.36,5.36,0,0,0,1.77.31,2.49,2.49,0,0,0,1.68-.51A1.89,1.89,0,0,0,17,17.27a2.24,2.24,0,0,0-.26-1.11,1.71,1.71,0,0,0-.76-.7,2.66,2.66,0,0,0-1.18-.25,3.79,3.79,0,0,0-1.25.23,3.34,3.34,0,0,0-1.14.66H10.8V8.52H19v2.16H13.53v2.88l.42-.23A4.56,4.56,0,0,1,15.58,13a4.14,4.14,0,0,1,2.12.52A3.91,3.91,0,0,1,19.13,15a4.29,4.29,0,0,1,.52,2.16A4.16,4.16,0,0,1,19,19.43Z"/></svg>