<svg id="Layer_1" data-name="Layer 1" xmlns="http://www.w3.org/2000/svg" width="30" height="30" viewBox="0 0 30 30"><title>icon_star_circle</title><path d="M15,0A15,15,0,1,0,30,15,15,15,0,0,0,15,0Zm0,26.5A11.5,11.5,0,1,1,26.5,15,11.5,11.5,0,0,1,15,26.5Zm7.5-13.3a1,1,0,0,1-.3,1l-2.9,2.9.7,4.2a1,1,0,0,1-.4,1,.77.77,0,0,1-1,.1l-3.6-2-3.6,2a.92.92,0,0,1-1-.1,1,1,0,0,1-.4-1l.7-4.2L7.8,14.2a.91.91,0,0,1-.3-1,1,1,0,0,1,.8-.7l4-.6,1.8-3.8a1,1,0,0,1,.9-.6,1.15,1.15,0,0,1,.9.6l1.8,3.8,4,.6C22,12.5,22.3,12.8,22.5,13.2Z"/></svg>