<svg id="Layer_1" data-name="Layer 1" xmlns="http://www.w3.org/2000/svg" viewBox="0 0 29.92 24.49"><title>icon_open_book</title><path d="M29.14,7.16h-2.9V3.66a.92.92,0,0,0-1-.9c-3.3.3-7.6,1.8-10.2,4.5-2.6-2.7-6.9-4.2-10.3-4.5a1,1,0,0,0-1,.9v3.6c-1,0-1.9-.1-2.9-.1-.4-.1-.8.3-.8.8v16.1a.88.88,0,0,0,.8.9c3.5.2,9.4.3,13.8,2.2.4.2.8,0,.7,0,4.4-1.9,10.3-1.9,13.8-2.2a.82.82,0,0,0,.8-.9V8C30,7.56,29.64,7.16,29.14,7.16Zm-4.6-2.5v15.1a19.08,19.08,0,0,0-8.6,4.4V9C17.84,6.56,21.54,5.06,24.54,4.66Zm-19,0c3,.5,6.7,1.9,8.6,4.3v15.2a18.6,18.6,0,0,0-8.6-4.4Zm-3.7,18.6V8.86a14.08,14.08,0,0,1,2,.1v11.5a1,1,0,0,0,.7.9,18.12,18.12,0,0,1,7.1,3A54.27,54.27,0,0,0,1.84,23.26Zm26.4,0a53.34,53.34,0,0,0-9.8,1.1,17.54,17.54,0,0,1,7.1-3,.88.88,0,0,0,.7-.9V8.86h2v14.4ZM11.84,11a8.06,8.06,0,0,0-3.1-1.3.86.86,0,0,0-.3,1.7,6,6,0,0,1,2.4,1,.86.86,0,0,0,1-1.4Zm-.1,5a9.32,9.32,0,0,0-3-1.3.86.86,0,0,0-.3,1.7,11.55,11.55,0,0,1,2.4,1,.84.84,0,0,0,1.2-.3A.69.69,0,0,0,11.74,16Zm7.5-3.5a6,6,0,0,1,2.4-1,.86.86,0,1,0-.3-1.7,7.43,7.43,0,0,0-3.1,1.3.83.83,0,0,0-.2,1.2A1,1,0,0,0,19.24,12.46Zm2.1,2.2a8.42,8.42,0,0,0-3,1.3.87.87,0,0,0,.9,1.5,6,6,0,0,1,2.4-1,.82.82,0,0,0,.7-1A.89.89,0,0,0,21.34,14.66Z" transform="translate(-0.04 -2.76)"/></svg>