<svg id="Layer_1" data-name="Layer 1" xmlns="http://www.w3.org/2000/svg" width="29.4" height="30.2" viewBox="0 0 29.4 30.2"><title>icon_vocabulary_check</title><path d="M19.3,7.9l1.8-.5-.5-1.8-1.8.5ZM8.3,28.1H2.8l7-26.3h7.9l.6,2.4,1.8-.5-1-3.8H8.3l-8,30H9.8l1.3-5.6h.7V22.4H9.6Zm12-16.6,1.8-.5-.5-1.8-1.8.5Zm1.4,2.6a8,8,0,1,0,8,8A8,8,0,0,0,21.7,14.1Zm0,14A6.1,6.1,0,1,1,27.8,22,6.06,6.06,0,0,1,21.7,28.1Zm-.9-6-1.2-1.2-1.3,1.3,2.5,2.5,4.4-4.4L23.9,19ZM13.7,8.8l1.2,4.4,1.8-.5L14.8,5.6H12.6L9.1,18.8h3.6V16.9H11.5Z" transform="translate(-0.3 0.1)"/></svg>