<svg id="Layer_1" data-name="Layer 1" xmlns="http://www.w3.org/2000/svg" viewBox="0 0 896 1024"><path d="M512,0C296.19,0,64,65.06,64,208V816c0,142.88,232.19,208,448,208s448-65.12,448-208V208C960,65.06,727.74,0,512,0ZM896,816c0,79.49-171.94,144-384,144S128,895.49,128,816V696.45C194.11,764.58,353.6,800,512,800s317.89-35.42,384-103.55Zm0-192h-.13c0,.32.13.67.13,1,0,79-171.94,143-384,143S128,704,128,625c0-.32.13-.67.13-1H128V504.45C194.11,572.58,353.6,608,512,608s317.89-35.42,384-103.55Zm0-192h-.13c0,.32.13.67.13,1,0,79-171.94,143-384,143S128,512,128,433c0-.32.13-.67.13-1H128V322.05C211.87,386,365.6,416,512,416S812.13,386,896,322.05ZM512,352c-212.1,0-384-64.51-384-144S299.9,64,512,64s384,64.45,384,144S724.06,352,512,352ZM768,832a32,32,0,1,1,32,32A32,32,0,0,1,768,832Zm0-192a32,32,0,1,1,32,32A32,32,0,0,1,768,640Zm0-192a32,32,0,1,1,32,32A32,32,0,0,1,768,448Z" transform="translate(-64 0)"/></svg>