<svg id="Layer_1" data-name="Layer 1" xmlns="http://www.w3.org/2000/svg" viewBox="0 0 25.97 30.02"><path d="M20.79,6.3a.91.91,0,0,0-.83-1V5.28h0a.93.93,0,0,0-.69.27.88.88,0,0,0-.26.63h0a.9.9,0,0,0,.79,1h.06A.92.92,0,0,0,20.79,6.3ZM0,14.15a12.79,12.79,0,0,0,1.85,7A7.37,7.37,0,0,1,3,24.93v4.23a.84.84,0,0,0,.26.63.9.9,0,0,0,.63.26h8.3a.91.91,0,0,0,.88-.9V27.28h4a.9.9,0,0,0,.9-.9h0V21.8h1.31a.9.9,0,0,0,.89-.92,1,1,0,0,0-.08-.38L18,16.3V14.2a11.34,11.34,0,0,0-.17-1.84h7.22a.9.9,0,0,0,.9-.9V.89A.93.93,0,0,0,25.7.26.86.86,0,0,0,25.08,0H6.86A.9.9,0,0,0,6,.91v4.8A9,9,0,0,0,0,14.15ZM11.33,26.38v1.87H4.86V24.94a9,9,0,0,0-1.38-4.63A11.07,11.07,0,0,1,1.83,14.2h0A7.2,7.2,0,0,1,6,7.67v3.76a.89.89,0,0,0,.88.9H10.7L12.38,14a.93.93,0,0,0,1.27,0l1.71-1.69H16a7.58,7.58,0,0,1,.21,1.84V16.5a.71.71,0,0,0,.11.4L17.82,20H17.1a.93.93,0,0,0-.91.91V25.5h-4a.91.91,0,0,0-.63.27A.83.83,0,0,0,11.33,26.38ZM7.81,1.81H24.16v8.74H15a.87.87,0,0,0-.63.27L13,12.15l-1.37-1.33a.88.88,0,0,0-.62-.27H7.81ZM25.07,21.15h0a.91.91,0,0,1,.88.91v3.63a.93.93,0,0,1-1,.81.9.9,0,0,1-.8-.81V22A.91.91,0,0,1,25.07,21.15Zm-3.52,1.17h0a.91.91,0,0,1,.88.91v1.29a.9.9,0,0,1-.77,1h-.13a.9.9,0,0,1-.9-.81.61.61,0,0,1,0-.19V23.23A.92.92,0,0,1,21.55,22.32ZM12,7h0a.91.91,0,1,1,0-1.82.91.91,0,0,1,.92.9v0A.9.9,0,0,1,12,7Zm4,.1a.89.89,0,0,1-.91-.89h0a.91.91,0,0,1,.83-1H16v.06a.92.92,0,0,1,0,1.83Z" transform="translate(0 -0.03)"/></svg>