<svg id="Layer_1" data-name="Layer 1" xmlns="http://www.w3.org/2000/svg" viewBox="0 0 30 30"><title>icon_num_three</title><path d="M15,0a15,15,0,0,0,0,30H30V15A15,15,0,0,0,15,0Zm3.37,20.59a5.61,5.61,0,0,1-3.48,1,8.42,8.42,0,0,1-2.54-.39,5.65,5.65,0,0,1-2-1.05l.9-2A6.45,6.45,0,0,0,13,19a5.48,5.48,0,0,0,1.79.31,3,3,0,0,0,1.7-.4,1.51,1.51,0,0,0,.53-1.3,1.48,1.48,0,0,0-.53-1.24,2.89,2.89,0,0,0-1.7-.39H12.93V13.84h1.51a3,3,0,0,0,1.68-.38,1.38,1.38,0,0,0,.54-1.19,1.48,1.48,0,0,0-.49-1.2,2,2,0,0,0-1.35-.42,5.17,5.17,0,0,0-1.7.32,6.39,6.39,0,0,0-1.68.92l-.9-2a5.27,5.27,0,0,1,2-1.05A8.17,8.17,0,0,1,15,8.44a5.81,5.81,0,0,1,2.29.42,3.36,3.36,0,0,1,1.5,1.21,3.18,3.18,0,0,1,.53,1.82,3.11,3.11,0,0,1-.59,1.91,2.93,2.93,0,0,1-1.44,1,3.19,3.19,0,0,1,1.69,1,3.26,3.26,0,0,1,.66,2.07A3.18,3.18,0,0,1,18.37,20.59Z"/></svg>