<svg id="Layer_1" data-name="Layer 1" xmlns="http://www.w3.org/2000/svg" viewBox="0 0 1024.13 1024"><path d="M704.13,0c-176.74,0-320,143.3-320,320,0,41.12,8.61,80,22.81,116.13L18.18,824.86C6.94,836.13,0,846.82,0,864v96c0,34.24,29.73,64,64,64h96c17.15,0,28-6.88,39.23-18l45.92-46h75a64,64,0,0,0,64-64V832h64a64,64,0,0,0,64-64V693l75.81-75.87c36.12,14.24,75,22.88,116.19,22.88,176.67,0,320-143.3,320-320S880.8,0,704.13,0Zm0,576c-47.36,0-91.27-13.76-129.31-36.22l-11,11-97,97A64,64,0,0,0,448.1,693v75h-64a64,64,0,0,0-64,64v64h-75a64,64,0,0,0-45.25,18.75l-45.37,45.38L64.1,960,64,868.8,437.28,496.19a.13.13,0,0,0,0,.07l47-47C461.86,411.2,448.1,367.33,448.1,320c0-141.38,114.65-256,256-256s256,114.62,256,256-114.6,256-256,256ZM890.24,263.65A566.54,566.54,0,0,0,760.48,133.92a30.74,30.74,0,0,0-28.22-4.06c-44.45,15.64-74.88,46-90.44,90.49a30.67,30.67,0,0,0,4.07,28.23A567.65,567.65,0,0,0,775.58,378.27a30.93,30.93,0,0,0,28.2,4.1c44.51-15.55,74.94-46,90.56-90.5a30.55,30.55,0,0,0,1.76-10.21,31.38,31.38,0,0,0-5.86-18Zm-96,88.67A547.83,547.83,0,0,1,672,230.94c12.38-35.29,35.55-58.46,69.82-71.07a536.16,536.16,0,0,1,122.12,122C851.42,316.86,828.32,339.9,794.24,352.32Z" transform="translate(0 0)"/></svg>