<svg id="Layer_1" data-name="Layer 1" xmlns="http://www.w3.org/2000/svg" viewBox="0 0 30 24.37"><path d="M26.92,8.89c0,.27,0,.53,0,.8,0,8.13-6.19,17.49-17.5,17.49A17.38,17.38,0,0,1,0,24.42a12,12,0,0,0,1.48.08,12.29,12.29,0,0,0,7.64-2.63,6.16,6.16,0,0,1-5.75-4.26,8.79,8.79,0,0,0,1.16.09,6.26,6.26,0,0,0,1.62-.21,6.14,6.14,0,0,1-4.93-6v-.08A6.06,6.06,0,0,0,4,12.16,6.17,6.17,0,0,1,2.09,3.94a17.47,17.47,0,0,0,12.68,6.43A7.23,7.23,0,0,1,14.62,9,6.15,6.15,0,0,1,25.26,4.76a12,12,0,0,0,3.9-1.49,6.11,6.11,0,0,1-2.7,3.39,12,12,0,0,0,3.54-1,13.29,13.29,0,0,1-3.08,3.18Z" transform="translate(0 -2.82)"/></svg>