<svg id="Layer_1" data-name="Layer 1" xmlns="http://www.w3.org/2000/svg" width="30" height="23.26" viewBox="0 0 30 23.26"><title>icon_school_new</title><path d="M19.84,23.77a.77.77,0,0,1-.09.59.79.79,0,0,1-.48.36,18.78,18.78,0,0,1-4.26.55c-3.28,0-8-1.24-10.67-3.59a.72.72,0,0,1-.27-.59V15.68a.8.8,0,0,1,.8-.8.79.79,0,0,1,.79.8v5A16.41,16.41,0,0,0,15,23.62h0a16.72,16.72,0,0,0,3.86-.48.79.79,0,0,1,.6.09.78.78,0,0,1,.36.49A.09.09,0,0,0,19.84,23.77ZM30,10.28a2.41,2.41,0,0,1-1.6,2.27L24,14.25V21c.15-.11.3-.21.44-.33v-5a.8.8,0,0,1,1.6,0v5.4a.76.76,0,0,1-.28.59,9.56,9.56,0,0,1-1.35,1,2.15,2.15,0,0,1-.49,3.82,2.27,2.27,0,0,1-.72.12,2.16,2.16,0,0,1-.79-4.16V14.22l-7.84-3.17c-.79-.05-1.29-.36-1.29-.79s.63-.79,1.46-.79a1.71,1.71,0,0,1,1.35.47l7.06,3,4.63-1.84a.86.86,0,0,0,.62-.78.73.73,0,0,0-.52-.71L16.09,5.27a4.11,4.11,0,0,0-2.93,0l-11,4.22a.79.79,0,0,0-.48.48.8.8,0,0,0,.48,1l11.78,4.29a3.76,3.76,0,0,0,2.8,0l2.71-1a.8.8,0,0,1,.93.41.81.81,0,0,1,.06.61.83.83,0,0,1-.4.48l-2.71,1a4.94,4.94,0,0,1-1.94.39h0a5.58,5.58,0,0,1-2-.36L1.57,12.49A2.39,2.39,0,0,1,1.57,8l11-4.26a5.68,5.68,0,0,1,4.06,0L28.42,8.05A2.36,2.36,0,0,1,30,10.28ZM23.11,23.9h0a.56.56,0,0,0-.4.17.54.54,0,0,0-.15.4.52.52,0,0,0,.17.39.55.55,0,0,0,.39.16h0a.56.56,0,0,0,.56-.55A.57.57,0,0,0,23.11,23.9Z" transform="translate(0 -3.37)"/></svg>