<svg id="Layer_1" data-name="Layer 1" xmlns="http://www.w3.org/2000/svg" viewBox="0 0 30 24.53"><title>icon_speaker</title><path d="M26.15,9.16V3.75h0A1,1,0,0,0,25.69,3a1,1,0,0,0-.82-.13h0l-12.5,5H6.18a3.55,3.55,0,0,0-3,1.77l-.46.18a3.87,3.87,0,0,0-2.6,3.66,3.81,3.81,0,0,0,2.6,3.63l.25.11a3.6,3.6,0,0,0,1.56,1.71l1.64,5.95a3.39,3.39,0,0,0,4.17,2.38A3.3,3.3,0,0,0,12.17,26h0a3.56,3.56,0,0,0,.55-3l-1-3.8h.63l12.51,5.07h0l.22.06h.07a1.07,1.07,0,0,0,.53-.13.89.89,0,0,0,.47-.75V17.7a4.28,4.28,0,0,0,0-8.54Zm0,6.68V11a2.43,2.43,0,0,1,0,4.82Zm2.22-1.38-.09.18Zm-.24.45-.13.17Zm-.31.39c-.05.06-.11.1-.16.15S27.77,15.36,27.82,15.3Zm-.38.33-.19.13Zm-.44.26-.21.09Zm-.48.17-.24.05Zm1.14-4.65.16.15Zm.34.37.13.17Zm.28.44.09.18Zm-2-1.46.23,0Zm.51.13L27,11Zm.46.22.19.12Zm1.22,3a1.09,1.09,0,0,0,.05-.17A1.09,1.09,0,0,1,28.47,14.13Zm0-1.4a1.09,1.09,0,0,1,.05.17A1.09,1.09,0,0,0,28.47,12.73Zm-15,5V9.46L24.29,5.14V22ZM8,24.26,6.57,19.17H9.78l1.15,4.27h0a1.6,1.6,0,0,1-.24,1.39,1.51,1.51,0,0,1-1.24.61A1.61,1.61,0,0,1,8,24.26ZM4.64,15.84v-4.5h0A1.6,1.6,0,0,1,6.19,9.68h5.45v7.63H6.17A1.44,1.44,0,0,1,4.64,16ZM2.79,15a1.81,1.81,0,0,1-.74-1.57v0a1.82,1.82,0,0,1,.74-1.58Zm-.15.23-.2-.15Zm-.45-.44a1.33,1.33,0,0,1-.14-.19A1.33,1.33,0,0,0,2.19,14.81Zm.25-3a1.56,1.56,0,0,1,.2-.16A1.56,1.56,0,0,0,2.44,11.77Zm-.39.47a1.33,1.33,0,0,1,.14-.19A1.33,1.33,0,0,0,2.05,12.24Zm-.16.38a1.07,1.07,0,0,0-.07.19A1.07,1.07,0,0,1,1.89,12.62Zm0,1.63c0-.07-.06-.13-.07-.19S1.87,14.18,1.89,14.25Zm10,11.55a3.27,3.27,0,0,0,.61-2A3.27,3.27,0,0,1,11.94,25.8ZM25.16,24,24.94,24l.22.07a.75.75,0,0,0,.38-.1A.75.75,0,0,1,25.16,24Z" transform="translate(-0.13 -2.81)"/></svg>