<svg id="Layer_1" data-name="Layer 1" xmlns="http://www.w3.org/2000/svg" viewBox="0 0 1024 896"><path d="M1024,256a95.59,95.59,0,0,0-74.43-93.57L533.15,66.34A96.34,96.34,0,0,0,512,64a98.06,98.06,0,0,0-21.6,2.43l-416,96a96,96,0,0,0,0,187.14L160,369.31V640c0,84.93,97.22,160,352,160s352-75.07,352-160V369.31l85.57-19.74A95.59,95.59,0,0,0,1024,256ZM800,640c0,35.36-96,96-288,96s-288-60.64-288-96V384.1l266.82,61.56a97,97,0,0,0,42.75-.09L800,384.1ZM519.2,383.2a32.8,32.8,0,0,1-14.4,0l-416-96a32,32,0,0,1,0-62.4l416-96a32.8,32.8,0,0,1,14.4,0l416,96a32,32,0,0,1,0,62.4ZM928,416a32,32,0,0,1,64,0V704a32,32,0,0,1-64,0Zm32,352c35.33,0,64,92.67,64,128a64,64,0,0,1-128,0C896,860.67,924.64,768,960,768Z" transform="translate(0 -64)"/></svg>