<svg id="Layer_1" data-name="Layer 1" xmlns="http://www.w3.org/2000/svg" viewBox="0 0 103.66 153.78"><path d="M47.94,124.41,4.84,81.31a8.4,8.4,0,0,1,3.62-.85H87.79a8.45,8.45,0,0,1,3.63.85L57.6,115.13Zm15.64-7.29L95.4,149a8.45,8.45,0,0,0,.85-3.63V88.92a8.43,8.43,0,0,0-.84-3.62ZM.85,85.3A8.4,8.4,0,0,0,0,88.92v56.4a8.4,8.4,0,0,0,.85,3.62l31.82-31.82Zm49.08,45.1a2.78,2.78,0,0,1-2,.82,2.82,2.82,0,0,1-2-.82l-9.28-9.29L4.83,152.93a8.45,8.45,0,0,0,3.63.85H87.79a8.45,8.45,0,0,0,3.63-.85L59.59,121.11ZM103.66,18.64V33.8A18.83,18.83,0,0,1,84.77,52.44H71.1L57.22,62.9a3.73,3.73,0,0,1-6-3V52.07A18.67,18.67,0,0,1,36.31,33.8V18.64h0A18.65,18.65,0,0,1,55,0h29.8A18.83,18.83,0,0,1,103.66,18.64ZM73.93,17.41a1.83,1.83,0,1,0,1.83-1.83,1.83,1.83,0,0,0-1.83,1.83Zm-10.1,0a1.83,1.83,0,1,0,1.83-1.83,1.83,1.83,0,0,0-1.83,1.83Zm14.5,6.45-.18-.07h0a1.14,1.14,0,0,0-1.37.55,8,8,0,0,1-1,1.56,6.21,6.21,0,0,1-4.91,2.28,6.62,6.62,0,0,1-5.07-2.31,8.47,8.47,0,0,1-1.14-1.58,1.14,1.14,0,0,0-2.06,1h0a.77.77,0,0,0,.07.16A11.29,11.29,0,0,0,64,27.34a8.92,8.92,0,0,0,6.83,3.14,8.52,8.52,0,0,0,6.71-3.17,11.18,11.18,0,0,0,1.28-1.91,1.14,1.14,0,0,0-.49-1.54Z" transform="translate(0 0)"/></svg>