<svg id="Layer_1" data-name="Layer 1" xmlns="http://www.w3.org/2000/svg" viewBox="0 0 1023.97 1024"><path d="M940.64,82.56C888,30,818.69,0,750.37,0,692.74,0,639.68,21.38,600.93,60.06L445.18,217c-.48.45-1,.74-1.5,1.22-.26.25-.42.61-.67.83l.06.06L112.54,552.19a128.77,128.77,0,0,0-32.41,54.56L5,879c-.06.73-5,22.11-5,33a112.09,112.09,0,0,0,112.13,112c12.32,0,36.16-5.89,37-6l271.3-71.32A128.69,128.69,0,0,0,475,914.14L963.42,421.89C1052.26,333,1042.24,184,940.64,82.56ZM512.45,761.44c-2.63-28.86-10.79-57.18-23-84.06L792,374.85c18.5,58.43,9,119.55-31.55,160.13-.26.25-.58.41-.8.67l.45.41L512.8,785.34C512.8,777.38,513.18,769.57,512.45,761.44ZM473.38,648.19c-11.94-19.61-25.51-38.56-42.31-55.33-19.55-19.55-42-34.88-65.41-47.74l305-305A221.3,221.3,0,0,1,778.82,342.78L473.38,648.19ZM335.55,530c-29.63-11.93-60.67-18.75-91.77-19.16L490.27,262.43c37.73-36.8,92.67-47.39,146.79-34L335.55,530Zm-202.21,426c-3.48.8-14.33,3.55-21.69,4.06A48.17,48.17,0,0,1,64,912c.38-5.38,2.53-14.62,3.26-18L101,772c36.58-1,75.94,13.25,106.88,44.25,31.42,31.36,46.21,71.49,44.61,108.52l-119.11,31.2ZM284,916.38c-.77-42.94-18.24-87.61-53.51-122.81-33.34-33.38-77-52.64-120.51-54.37l31.87-115.42c2.31-7.68,6.88-15.27,12.52-21.89,64.19-45.95,162.91-32.39,231.48,36.25,72.55,72.52,83.75,178.76,27.88,242.18a63.19,63.19,0,0,1-11.49,5ZM918.11,376.7,864.22,431c0-7.23.87-14.18.2-21.57-5.64-61.92-34.5-121.79-81.38-168.61-52.13-52.16-121.25-82.08-189.7-82.27l53-53.44C672.86,78.66,709.89,64,750.37,64c51.49,0,104.38,23.3,145,63.84,38.18,38.11,60.93,85.47,64.2,133.38,3,44.7-11.75,85.69-41.51,115.48Z" transform="translate(0 0)"/></svg>