<svg id="Layer_1" data-name="Layer 1" xmlns="http://www.w3.org/2000/svg" viewBox="0 0 896 1024"><path d="M959.36,218.21C956.29,168,915,128.1,864,128.1H768V96A96,96,0,0,0,672,0H352a96,96,0,0,0-96,96v32H160c-51,0-92.32,39.88-95.39,90.12H64V288a64,64,0,0,0,64,64h0V896a128,128,0,0,0,128,128H768A128,128,0,0,0,896,896V352a64,64,0,0,0,64-64V218.21ZM320,96.06a32,32,0,0,1,32-32H672a32,32,0,0,1,32,32v32H320Zm512,800a64.1,64.1,0,0,1-64,64H256a64.08,64.08,0,0,1-64-64v-544H832Zm64-640v32H128v-64a32,32,0,0,1,32-32H864a32,32,0,0,1,32,32ZM288,896.19h64a32,32,0,0,0,32-32v-416a32,32,0,0,0-32-32H288a32,32,0,0,0-32,32v416A32,32,0,0,0,288,896.19Zm0-448h64v416H288v-416Zm192,448h64a32,32,0,0,0,32-32v-416a32,32,0,0,0-32-32H480a32,32,0,0,0-32,32v416A32,32,0,0,0,480,896.19Zm0-448h64v416H480v-416Zm192,448h64a32,32,0,0,0,32-32v-416a32,32,0,0,0-32-32H672a32,32,0,0,0-32,32v416A32,32,0,0,0,672,896.19Zm0-448h64v416H672v-416Z" transform="translate(-64 -0.03)"/></svg>