<svg id="Layer_1" data-name="Layer 1" xmlns="http://www.w3.org/2000/svg" viewBox="0 0 30.1 13.3"><path d="M7.87,16.2,4.21,8.54H6.56l2,4.61h0l2-4.61H13l-3.3,6.78A11.78,11.78,0,0,0,7.87,16.2Zm17.74-3.39c0,2.5-2.87,2.66-3.55,2.64A5.91,5.91,0,0,1,21,15.31a40,40,0,0,0-5.73-1.11,9.89,9.89,0,0,0-3.29.47,1,1,0,0,1-.75-1l2.08-4.16v2.75c0,1.14.35,1.53,1.51,1.53s1.51-.39,1.51-1.53V8.54h2.24v1A3.11,3.11,0,0,1,21,8.42,7.83,7.83,0,0,1,22,8.35c1.61,0,3.24.56,3.35,2H23.15c-.06-.65-.51-1-1.35-1a2.75,2.75,0,0,0-.85.18.65.65,0,0,0-.44.63c0,.21.16.35.44.46C22.2,11.1,25.61,10.81,25.61,12.81Zm-2.22.43c0-.66-1.21-.71-2.43-.9a3.32,3.32,0,0,1-2.44-1.07h0V13h1.81a.88.88,0,0,0,.65.9,2.89,2.89,0,0,0,1,.1C23,14,23.39,13.7,23.39,13.24Zm-3,3.88s-4-.18-5.62,1.63h2.28c.32-1.28,3.37-1.63,3.37-1.63Zm-.79-.32a6.61,6.61,0,0,0,1.54,0s-.69-.06-1.27-.17c-6-1.07-8.45,1.43-9,2.12h2.4c.31-.55,1.5-2.17,6.36-1.95ZM6.52,18.75H9.19c4.53-5.24,9.52-2,13.09-2.17a3.23,3.23,0,0,0,2.49-1.38,4.24,4.24,0,0,1-1.2.7C20.42,17.17,13.69,11.39,6.52,18.75Zm-5.3,1.39.62,1.23H1.38l-.11-.2H.51l-.12.2H0l.62-1.23Zm-.11.71L1,20.42H.86l-.21.43ZM3.36,21v.09h0l-.65-.9H2.09v1.23h.39v-1h0l.65.92h.62V20.14H3.36Zm1.93-.42H4.46v-.42H4.08V21.4h.38v-.47h.83v.47h.38V20.14H5.29ZM7.75,21h0l-.46-.9H6.83l.62,1.23H8l.62-1.23H8.21Zm1.78-1H9.8A.2.2,0,0,0,10,20a.29.29,0,0,0,.05-.18H10v.08H9.54c-.08,0-.12,0-.12-.1H9.3a.2.2,0,0,0,.2.2h0Zm.46.07.62,1.23h-.45l-.11-.2H9.3l-.14.2H8.72l.62-1.23Zm-.1.71-.2-.43h0l-.21.43Zm2.26.22v.09h0l-.65-.9h-.62v1.23h.38v-.85a.17.17,0,0,1,0-.1h0l.65.92h.62V20.14h-.38Zm2.8-.47h-.83v-.42h-.37v1.23h.38v-.47H15v.47h.38V20.14H15ZM16.12,20l.38-.09.38.09.05-.11-.43-.24-.43.24Zm1.08.15c.08.06.11.23.11.54s0,.47-.11.54a1.61,1.61,0,0,1-.72.09,5.42,5.42,0,0,1-.57,0,.21.21,0,0,1-.21-.18,2.94,2.94,0,0,1,0-.42c0-.31,0-.48.11-.54a1.49,1.49,0,0,1,.72-.1c.42,0,.6,0,.67.11Zm-.27.54c0-.16,0-.26-.05-.27H16.5a1.21,1.21,0,0,0-.38,0,.86.86,0,0,0-.05.27c0,.16,0,.25.05.27a.81.81,0,0,0,.38,0h.38a.48.48,0,0,0,.07-.23Zm-.57.95h.28v-.24h-.28Zm1.19-.34H18V20.14h-.4ZM20,21h0l-.46-.9h-.43l.62,1.23h.57l.62-1.23h-.43Zm1,.33h.38v-1.2H21ZM22.64,20V19.9l-.43-.24-.43.24,0,.11.38-.09Zm-.52,1.64h.29v-.24h-.29Zm-.52-.34H23V21H22v-.17h.9v-.29H22v-.17h1v-.3H21.6Zm1.66-.92h.56v.92h.38v-.9h.54V20.1H23.26Zm3.74.37v.11A.08.08,0,0,1,27,21,.05.05,0,0,1,27,21h0a.11.11,0,0,1,0-.08l-.32-.69H26v1.23h.38v-1h0l.48.92h.31l.45-.92h0v.05h0v.85H28V20.12H27.3ZM29,20h.19a1,1,0,0,0,.24,0,.16.16,0,0,0,.13-.06v-.18h-.18v.05H29a.16.16,0,0,0-.14.08.43.43,0,0,0,0,.16H29C28.89,20,29,20,29,20Zm.48.19-.32.39a.17.17,0,0,0,0,.1h0a.11.11,0,0,0,0-.08l-.31-.39h-.53L29,21v.42h.38V21l.7-.81Z" transform="translate(0.05 -8.35)"/></svg>