<svg id="Layer_1" data-name="Layer 1" xmlns="http://www.w3.org/2000/svg" viewBox="0 0 1024.02 1024"><path d="M661.82,119.42a80.07,80.07,0,0,0-113.21,0l-45.12,45.18a80.09,80.09,0,0,0-11.62,98.62L57.41,437.31a96,96,0,0,0-29.06,156l407,402.56A95.43,95.43,0,0,0,500.83,1024c.58,0,1.92,0,2.5,0a99,99,0,0,0,19.52-2,95.55,95.55,0,0,0,69.66-58.5l171-428a80,80,0,0,0,100.32-10.43l45-45.06A80,80,0,0,0,909,366.69L661.82,119.42ZM533.09,939.74a32,32,0,0,1-23.27,19.59,33.59,33.59,0,0,1-7.32.67,31.83,31.83,0,0,1-21.83-9.34L73.38,547.84A32,32,0,0,1,83.2,495.9l198.94-79.68c134.05,44.58,268.13,1.64,402.24,144.71ZM863.74,434.56,818.5,479.78a16,16,0,0,1-22.63,0L739.3,423.23,693.47,538.08l3.81-9.7C601,432.22,503.07,420.1,414.75,409.25c-28.38-3.49-55.9-7.14-82.94-13L603.52,287.46l-54.88-54.88a16,16,0,0,1,0-22.63l45.25-45.28a16,16,0,0,1,22.62,0l247.2,247.27a15.85,15.85,0,0,1,0,22.62ZM528,672a80,80,0,1,0-80-80A80.09,80.09,0,0,0,528,672Zm0-128a48,48,0,1,1-48,48A48,48,0,0,1,528,544ZM944,0a80,80,0,1,0,80,80A80.07,80.07,0,0,0,944,0Zm0,128a48,48,0,1,1,48-48A48,48,0,0,1,944,128ZM256,544a64,64,0,1,0,64-64A64.06,64.06,0,0,0,256,544Zm64-32a32,32,0,1,1-32,32A32,32,0,0,1,320,512Zm64,224a32,32,0,1,1,32,32A32,32,0,0,1,384,736ZM896,256a32,32,0,1,1,32,32A32,32,0,0,1,896,256Z" transform="translate(0.02 0)"/></svg>