<svg id="Layer_1" data-name="Layer 1" xmlns="http://www.w3.org/2000/svg" viewBox="0 0 21.8 30.07"><path d="M25.9,10.23a10.92,10.92,0,0,0-21.8,0v.6a10.9,10.9,0,0,0,4.29,8.64L7.9,20.73l.13.09H7.9L5.6,27.43c-.1.2.1.4.3.4l3.2-.3c.1,0,.2,0,.2.1l2.3,2.3c.2.2.4.1.5-.1l2.3-6.7L14.28,23h.22l.5-1.3.5,1.3h.22l-.12.12,2.3,6.7c.1.2.3.3.5.1l2.3-2.3c0-.1.1-.1.2-.1l3.2.3c.2,0,.4-.2.3-.4l-2.3-6.6H22l.13-.09-.49-1.26a10.92,10.92,0,0,0,4.26-8.65ZM18,13.93a2.25,2.25,0,0,1-1.2.8A5,5,0,0,1,15,15a12.09,12.09,0,0,1-1.8-.2,3.23,3.23,0,0,1-1.3-.7l.7-1.6a4.12,4.12,0,0,0,2.3.8,2.29,2.29,0,0,0,1-.2.8.8,0,0,0,.3-.7.88.88,0,0,0-.3-.7,2,2,0,0,0-1-.2H13.6V9.73h1.1a2.87,2.87,0,0,0,1-.2.56.56,0,0,0,.4-.6.88.88,0,0,0-.3-.7C15.6,8,15.4,8,15,8a4.63,4.63,0,0,0-1.1.2,3,3,0,0,0-1.1.6l-.7-1.6a4.1,4.1,0,0,1,1.3-.7,4.91,4.91,0,0,1,1.7-.3,4,4,0,0,1,1.6.3,3,3,0,0,1,1.1.8,1.85,1.85,0,0,1,.4,1.2,2.7,2.7,0,0,1-.3,1.2,2.07,2.07,0,0,1-1,.8,1.51,1.51,0,0,1,1.1.8,2,2,0,0,1,.4,1.3A2,2,0,0,1,18,13.93Z" transform="translate(-4.1 0.03)"/></svg>