<svg id="Layer_1" data-name="Layer 1" xmlns="http://www.w3.org/2000/svg" viewBox="0 0 29.98 30"><title>icon_num_role</title><path d="M9.41,23a4,4,0,1,0-7,0A4.34,4.34,0,0,0,0,26.87v2.31A.82.82,0,0,0,.83,30H11a.82.82,0,0,0,.81-.82V26.87A4.33,4.33,0,0,0,9.41,23Zm.78,5.34H1.65V26.87a2.69,2.69,0,0,1,2-2.56,4.06,4.06,0,0,0,4.64,0,2.7,2.7,0,0,1,2,2.56Zm-4.27-5A2.37,2.37,0,1,1,8.28,21v0a2.37,2.37,0,0,1-2.34,2.4h0ZM27.54,23a4,4,0,1,0-7,0,4.36,4.36,0,0,0-2.41,3.87v2.31A.81.81,0,0,0,19,30H29.17a.82.82,0,0,0,.82-.82V26.87A4.34,4.34,0,0,0,27.54,23Zm-3.48.4A2.37,2.37,0,1,1,26.41,21a2.38,2.38,0,0,1-2.35,2.4Zm-2.33.9a4.06,4.06,0,0,0,4.64,0,2.68,2.68,0,0,1,2,2.56v1.48H19.78V26.87A2.71,2.71,0,0,1,21.73,24.31ZM24,15.7h0a.79.79,0,0,0,.45.13.75.75,0,0,0,.38-.1.84.84,0,0,0,.44-.71V13.47a3.73,3.73,0,0,0-.1-7.16,5.74,5.74,0,0,0,.08-.93A5.36,5.36,0,0,0,19.87,0H16a.82.82,0,0,0,0,1.64h3.92a3.71,3.71,0,0,1,3.67,3.7,3.57,3.57,0,0,1-.09.8H15.82a3.72,3.72,0,0,0-3.63,2.91H10.85a.82.82,0,0,0-.51.17l-3,2.4V9.87A.82.82,0,0,0,6.54,9h0a3.71,3.71,0,0,1,.32-7.39h3.94A.82.82,0,0,0,11.6.82.82.82,0,0,0,10.79,0H6.85a5.34,5.34,0,0,0-1.2,10.55v2.76a.84.84,0,0,0,.47.73A.84.84,0,0,0,7,14l4.1-3.25h1.09a3.71,3.71,0,0,0,3.63,2.9H20.7ZM21,12H15.82a2.08,2.08,0,1,1,0-4.15h8.35A2.08,2.08,0,0,1,24.36,12a.82.82,0,0,0-.75.81v.74l-2.23-1.46A.9.9,0,0,0,21,12ZM16.73,9.08A.83.83,0,0,0,16,10a.85.85,0,0,0,.74.74.83.83,0,0,0,.73-.92A.82.82,0,0,0,16.73,9.08Zm3.25,0a.83.83,0,0,0-.73.91.75.75,0,1,0,1.47-.18A.83.83,0,0,0,20,9.08Zm3.28,1.65a.84.84,0,0,0,.84-.82.83.83,0,1,0-1.66,0v0A.82.82,0,0,0,23.26,10.73Zm-9.9-9h0a.82.82,0,0,0,.83-.81h0a.83.83,0,0,0-1.65,0A.82.82,0,0,0,13.36,1.68Z" transform="translate(-0.01 0)"/></svg>