<svg id="Layer_1" data-name="Layer 1" xmlns="http://www.w3.org/2000/svg" viewBox="0 0 30 29.96"><title>icon_practice</title><path d="M30,3.46a1.17,1.17,0,0,0-.33-.83L27.39.35A1.19,1.19,0,0,0,26.56,0a1.17,1.17,0,0,0-.83.33l-1.8,1.8-.31-.31a1.21,1.21,0,0,0-1.66,0l-.4.41L19.86.55a1.21,1.21,0,0,0-1.66,0L10.87,8a1.21,1.21,0,0,0,0,1.66,1.24,1.24,0,0,0,.88.33,1.44,1.44,0,0,0,.88-.33l6.55-6.45L20,4,2.25,21.75a2.44,2.44,0,0,0-.33.54L0,28.44a1,1,0,0,0,.33,1.11,1,1,0,0,0,.88.43h.31L7.8,28.3c.24,0,.37-.14.57-.34L28.18,8.05a1.17,1.17,0,0,0,.33-.83,1.21,1.21,0,0,0-.33-.83l-.31-.3,1.8-1.8A1.17,1.17,0,0,0,30,3.46ZM25.64,7.18,7.49,25.42l-2.8-2.89L22.84,4.38ZM5.27,26.43l-2.35.67.67-2.35ZM27.13,3.51l-.92.91-.62-.61.92-.92Z" transform="translate(0 -0.02)"/></svg>