<svg id="Layer_1" data-name="Layer 1" xmlns="http://www.w3.org/2000/svg" viewBox="0 0 30.02 30"><title>icon_document</title><path d="M29.19,9.4a2.66,2.66,0,0,0-3.7,0L22.89,12V5a2.73,2.73,0,0,0-.8-1.9L19.59.6a3.88,3.88,0,0,0-1.9-.6H2.59A2.65,2.65,0,0,0,0,2.6V27.3A2.67,2.67,0,0,0,2.59,30h17.6a2.58,2.58,0,0,0,2.6-2.6V19.6l6.4-6.4A2.6,2.6,0,0,0,29.19,9.4ZM17.59,1.8a1,1,0,0,1,.8.3l2.5,2.5a1,1,0,0,1,.3.8h-3.5V1.8Zm3.5,25.6a.9.9,0,0,1-.9.9H2.59a.9.9,0,0,1-.9-.9V2.6a.9.9,0,0,1,.9-.9h13.2V6.1a.9.9,0,0,0,.9.9h4.4v6.8l-2.6,2.6-1.2,1.2c-.1.1-.2.2-.2.3l-1.2,3.7A.86.86,0,0,0,17,22.7l3.7-1.2c.1,0,.2-.1.3-.2l.1-.1Zm-2-9.1,1.2,1.2-.4.5-1.9.6.6-1.9Zm2.5,0-1.2-1.2,4.2-4.2,1.2,1.2ZM28,11.9l-.9.9-1.2-1.2.9-.9A.85.85,0,1,1,28,11.9ZM16.69,8.8H4.39a.9.9,0,0,0,0,1.8h12.3a.9.9,0,0,0,0-1.8Zm-3.5,3.5H4.39a.9.9,0,1,0,0,1.8h8.8a.9.9,0,0,0,0-1.8Zm0,3.5H4.39a.9.9,0,1,0,0,1.8h8.8a.9.9,0,0,0,0-1.8Zm0,3.5H4.39a.9.9,0,1,0,0,1.8h8.8a.9.9,0,1,0,0-1.8Zm3.5,5.4h-5.3a.9.9,0,0,0,0,1.8h5.3a.9.9,0,1,0,0-1.8Z" transform="translate(0.01)"/></svg>