<svg id="Layer_1" data-name="Layer 1" xmlns="http://www.w3.org/2000/svg" width="29.86" height="30" viewBox="0 0 29.86 30"><title>icon_datetime</title><path d="M27.13,3.08H24.59v-.6A2.32,2.32,0,0,0,20.75.57,2.29,2.29,0,0,0,20,2.17a1.5,1.5,0,0,0,0,.3v.61H10v-.6A2.32,2.32,0,0,0,7.88,0,2.26,2.26,0,0,0,6.2.57a2.31,2.31,0,0,0-.79,1.59,1.6,1.6,0,0,0,0,.31v.61H2.87A2.82,2.82,0,0,0,.07,5.85V27.2A2.81,2.81,0,0,0,2.87,30H27.13a2.81,2.81,0,0,0,2.8-2.8V5.85A2.82,2.82,0,0,0,27.13,3.08Zm1.07,9.46V27.2a1.05,1.05,0,0,1-1.05,1.07H2.86A1.07,1.07,0,0,1,1.8,27.2V12.54ZM20.75,7a2.26,2.26,0,0,0,1.69.57,2.33,2.33,0,0,0,2.15-2.18V4.78h2.54A1.07,1.07,0,0,1,28.2,5.85v5H1.8v-5A1.07,1.07,0,0,1,2.87,4.78H5.41v.61A2.33,2.33,0,0,0,7.88,7.55,2.34,2.34,0,0,0,10,5.37V4.78H20v.61A2.29,2.29,0,0,0,20.75,7Zm2.12-1.52a.6.6,0,0,1-1,.53.64.64,0,0,1-.22-.4,1,1,0,0,1,0-.16v-3A.62.62,0,0,1,21.81,2a.64.64,0,0,1,.41-.22h.06a.58.58,0,0,1,.37.13.62.62,0,0,1,.22.4V5.46Zm-14.56,0a.57.57,0,0,1-.53.65A.56.56,0,0,1,7.35,6a.64.64,0,0,1-.22-.4V2.47A.59.59,0,0,1,7.26,2a.62.62,0,0,1,.4-.22h.06a.59.59,0,0,1,.59.53.38.38,0,0,1,0,.15ZM14,26.09h2a1.38,1.38,0,0,0,1.35-1.36v-2A1.36,1.36,0,0,0,16,21.49h-.25v.06H14a1.35,1.35,0,0,0-1.35,1.34v2A1.37,1.37,0,0,0,14,26.09Zm.38-1.6V23.21h1.2v1.28ZM6.76,19.33h2A1.36,1.36,0,0,0,10,18v-2a1.33,1.33,0,0,0-.39-1,1.31,1.31,0,0,0-1-.4H8.42v.09H6.75a1.34,1.34,0,0,0-1.34,1.26v2A1.35,1.35,0,0,0,6.76,19.33Zm.37-1.61V16.41H8.31v1.31Zm-.4,8.37h2a1.36,1.36,0,0,0,1.34-1.36v-2a1.35,1.35,0,0,0-1.37-1.27H8.43v.15H6.75A1.35,1.35,0,0,0,5.4,23v2A1.38,1.38,0,0,0,6.73,26.09Zm.4-1.52V23.21H8.31v1.36ZM20,25.09a1.36,1.36,0,0,0,1.3,1h2a1.37,1.37,0,0,0,1.35-1.36v-2a1.34,1.34,0,0,0-1.35-1.27H23v.23h-1.7A1.34,1.34,0,0,0,20,23.07v2Zm1.73-.43V23.21h1.18v1.45Zm-.39-5.3h2A1.35,1.35,0,0,0,24.59,18v-2a1.35,1.35,0,0,0-1.35-1.35H23v.17h-1.7A1.35,1.35,0,0,0,20,16.05v2A1.36,1.36,0,0,0,21.3,19.36Zm.39-1.55v-1.4h1.18v1.4ZM14,19.33h2A1.36,1.36,0,0,0,17.32,18v-2A1.36,1.36,0,0,0,16,14.7H14a1.36,1.36,0,0,0-1.34,1.35v2A1.35,1.35,0,0,0,14,19.33Zm1.58-1.69H14.4V16.41h1.2Z" transform="translate(-0.07 0)"/></svg>