<svg id="Layer_1" data-name="Layer 1" xmlns="http://www.w3.org/2000/svg" viewBox="0 0 26.51 30"><path d="M15,30a4.53,4.53,0,0,1-4.52-4.52v-.76h-6A2.78,2.78,0,0,1,1.74,22,2.7,2.7,0,0,1,2.51,20l.18-.18c1-1,2.56-2.62,2.56-7.48a9.63,9.63,0,0,1,7-9.28V2.77A2.77,2.77,0,0,1,15,0h0a2.77,2.77,0,0,1,2.76,2.77v.36a9.64,9.64,0,0,1,7,9.29c0,4.78,1.53,6.39,2.54,7.45l.21.22A2.68,2.68,0,0,1,28.26,22a2.78,2.78,0,0,1-2.78,2.77h-6v.76A4.52,4.52,0,0,1,15,30Zm-2.24-3.49a2.47,2.47,0,0,0,4.49,0ZM15,2.05a.72.72,0,0,0-.71.72v2l-.83.16A7.6,7.6,0,0,0,7.3,12.38c0,5.69-2,7.71-3.14,8.91L4,21.47a.7.7,0,0,0-.19.46.74.74,0,0,0,.73.75h21a.73.73,0,0,0,.73-.73.67.67,0,0,0-.18-.44l-.22-.23c-1.16-1.22-3.1-3.27-3.1-8.87A7.58,7.58,0,0,0,16.55,5l-.83-.16v-2A.71.71,0,0,0,15,2.05Z" transform="translate(-1.74)"/></svg>