<svg id="Layer_1" data-name="Layer 1" xmlns="http://www.w3.org/2000/svg" viewBox="0 0 1023.98 1024.03"><path d="M1009.38,5.12A32.11,32.11,0,0,0,992,0a31.74,31.74,0,0,0-17.76,5.38l-960,640a32,32,0,0,0,5.89,56.32L270.5,801.89l117.72,206A32,32,0,0,0,415.65,1024H416a32,32,0,0,0,27.42-15.55l66.47-110.82,310.24,124.07a32,32,0,0,0,43.42-24.48l160-960a32.08,32.08,0,0,0-14.17-32.13Zm-909,659.74L842,170.43,302.75,747.62c-2.85-1.7-5.37-3.94-8.51-5.19L100.35,664.86Zm225.7,105.25c-.07-.13-.16-.19-.23-.32L932,121,415.23,926.18,326.05,770.11ZM806.94,947.49,533.63,838.18c-6.49-2.56-13.25-3.43-19.93-3.81L934.56,182Z" transform="translate(-0.01 0)"/></svg>