<svg id="Layer_1" data-name="Layer 1" xmlns="http://www.w3.org/2000/svg" viewBox="0 0 30 24.82"><title>icon_book_open</title><path d="M29.23,4.07h-.69a.79.79,0,0,0-.83.74.78.78,0,0,0,.74.82V23.19H19.11l7.76-1.8a.78.78,0,0,0,.6-.76V.78a.79.79,0,0,0-.32-.63.76.76,0,0,0-.7-.11L17.6,2.8a4.5,4.5,0,0,0-2.4,1.8,4.48,4.48,0,0,0-2.44-1.74L3.68,0A.82.82,0,0,0,3,.15a.75.75,0,0,0-.31.63V20.63a.78.78,0,0,0,.6.76L11,23.19H1.61V5.63a.81.81,0,0,0,.47-.21.79.79,0,0,0-.55-1.35H.79A.78.78,0,0,0,0,4.84V24a.79.79,0,0,0,.79.79H14.15a.63.63,0,0,0,.27.06H16a.72.72,0,0,0,.29-.06H29.21A.79.79,0,0,0,30,24h0V4.86A.79.79,0,0,0,29.23,4.07Zm-3.31,16-9.24,2.09a1.83,1.83,0,0,0-.68.31V7.16A3,3,0,0,1,18.1,4.3l7.82-2.44Zm-21.68,0V1.86l8.07,2.46a3,3,0,0,1,2.11,2.84V22.5a1.94,1.94,0,0,0-.61-.26Z" transform="translate(0 0)"/></svg>