<svg id="Layer_1" data-name="Layer 1" xmlns="http://www.w3.org/2000/svg" viewBox="0 0 53.78 29.41"><path d="M22.49,3.41c-2.48-.05-8,.18-8.44.49s-.11,1.16.31,1.1c1.08-.1,1.72-.12,2.52-.19-.39,2.81-1.1,8.2-1.73,13.9-.12,1,2.7,1.26,2.92,0,.36-2.7.69-6.93,1.58-13.93,1.19-.07,1.81-.08,2.78-.13C22.83,4.61,23.33,3.41,22.49,3.41Zm3,.21C24.41,5,21,14.88,20.3,18.36c-.17.73,2.84.89,3.18-.28.42-1.4.74-2.21,1.67-5.52.88-.1,1.89-.23,2.56-.36.21,1.29-.36,6-.05,6.75.21.49,2.51.47,2.56-.26.15-2.27.62-8.69.5-15.19,0-.85-4.38-1-5.26.12Zm2.59,7.14a13.65,13.65,0,0,1-2.47.29c.26-.64,2.29-7.62,2.65-7.12s0,4.16-.21,6.83Zm11.24,7.15A8.72,8.72,0,0,1,36,18c-.15-.26,0-3.22,1.58-13.91.09-.79-2.56-1.73-3,.37-.34,1.61-2.35,13.13-1.2,14.39.38.43,3.47.63,6.19,0,.89-.4.23-1.14-.3-1ZM48.57,4.49c-2.13,2.2-2.63,2.87-3.94,4.33.18-2.53.18-3.28.21-4.8s-2.9-1.39-3.06,0c-.07.55-.41,9-.77,14.55,0,.59,2,1.07,2.71.09.5-1.37.73-6.21.81-7.3,1-.13,3.39.45,3.33,7.47-.12,1,1.53.9,1.57,0,.12-4.16-.76-8.94-4.25-8.8,1.55-1.63,3.2-3.43,4.33-4.77C50,4.69,49,4.05,48.57,4.49Zm-44.74,6a1.62,1.62,0,0,0,.65-.14c.46-.25,1.33-.91,1.54-3C5.88,5.71,5,5.1,4.36,5.09h0c-.94,0-2,1-2.2,3a2.17,2.17,0,0,0,.78,2.07,1.51,1.51,0,0,0,.89.3ZM3.11,8.21h0c.15-1.41.83-2.15,1.24-2.15h0c.29,0,.63.43.7,1.31-.1,1.07-.47,1.85-1,2.07a.59.59,0,0,1-.6-.06A1.24,1.24,0,0,1,3.11,8.21ZM8.26,19.52c-.45,0-.82.37-1.11,1a55.51,55.51,0,0,1-2.94,6v-.14c-.27-1,.42-5.17,1.14-9.58.24-1.43.49-2.93.73-4.48a1.41,1.41,0,0,0-1.14-1.55c-1.29-.29-3.62.57-4.09,1.75v.14c-.35,2.13-2,12.89.67,15.9a2.3,2.3,0,0,0,1.91.85h.72c1.41,0,2.49-.81,5.18-8.27A1.23,1.23,0,0,0,9.15,20,1,1,0,0,0,8.26,19.52Zm.07,1.31c-2.79,7.76-3.64,7.71-4.55,7.65H3.3A1.4,1.4,0,0,1,2.15,28C.21,25.73.94,17.49,1.7,12.86a3.57,3.57,0,0,1,3-1.13c.37.09.43.27.42.5-.24,1.51-.48,3-.72,4.44-.9,5.43-1.43,8.81-1.13,10v.21c.09.41.2.92.7,1S5,27.66,8,21a2.34,2.34,0,0,1,.26-.43.33.33,0,0,1,.08.25ZM53.69,4.53A4.58,4.58,0,0,0,49.12,0L14.36.3a4.58,4.58,0,0,0-4.5,4.61v.45L7,14.87a1.33,1.33,0,0,0,.82,1.69,1.3,1.3,0,0,0,.91,0l1.22-.49V18a5.23,5.23,0,0,0,1.32,3.34,4.34,4.34,0,0,0,3.27,1.56l34.77-.31A4.33,4.33,0,0,0,52.55,21a5.18,5.18,0,0,0,1.26-3.36ZM51.81,20.35a3.38,3.38,0,0,1-2.51,1.27l-34.75.3A3.39,3.39,0,0,1,12,20.7,4.28,4.28,0,0,1,10.94,18V14.65l-2.54,1A.38.38,0,0,1,8,15.6H8a.34.34,0,0,1-.09-.41l2.9-9.62V4.9a3.59,3.59,0,0,1,3.53-3.62L49.13,1h0A3.58,3.58,0,0,1,52.7,4.56l.11,13.08A4.27,4.27,0,0,1,51.81,20.35Z" transform="translate(-0.03)"/></svg>