<svg id="Layer_1" data-name="Layer 1" xmlns="http://www.w3.org/2000/svg" viewBox="0 0 288.7 195.68"><title>logo_english_hub</title><path d="M18.7,177.36V179H29.24v6.84H18.7v1.62H30.29V195H9.09V169.8h21.2v7.56Z" transform="translate(0.35)" style="fill:#fff"/><path d="M61.07,169.8V195H49l-6-12.53h-.25V195H33.17V169.8H45.52l5.68,12.53h.26V169.8Z" transform="translate(0.35)" style="fill:#fff"/><path d="M78.64,181.54H91.38V195H85.22v-1.55A11.36,11.36,0,0,1,78,195.68c-8.42,0-14.22-5.58-14.22-13.28s5.8-13.28,14.22-13.28c7.56,0,12.92,4.82,13.39,10.87H81.77a3.63,3.63,0,0,0-3.49-1.8,4,4,0,0,0-4,4.21c0,2.41,1.18,4.86,4,4.93a3.29,3.29,0,0,0,2.52-.83v-.39H78.64Z" transform="translate(0.35)" style="fill:#fff"/><path d="M117.16,186.43V195H94.62V169.8h9.58v16.63Z" transform="translate(0.35)" style="fill:#fff"/><path d="M129.47,169.8V195h-9.61V169.8Z" transform="translate(0.35)" style="fill:#fff"/><path d="M132.17,186.5h9.07c0,1.7,1.58,2.24,2.84,2.24s2-.44,2-1.23c0-1.18-1.58-1.4-4.39-2.19-5.94-1.66-8.53-3.35-8.53-7.49,0-8.31,7.53-8.71,11.63-8.71,5.18,0,11,2,11,8.64h-8.89a2,2,0,0,0-2.16-2c-1.11,0-1.83.39-1.83,1.37,0,1.26,2.66,1.8,5.07,2.37s8.57,1.23,8.57,7.38c0,7.2-5.08,8.78-11.59,8.78C135.48,195.68,132.17,190.57,132.17,186.5Z" transform="translate(0.35)" style="fill:#fff"/><path d="M185.91,169.8V195H176.3v-8.32h-7.45V195h-9.61V169.8h9.61v8.32h7.45V169.8Z" transform="translate(0.35)" style="fill:#fff"/><path d="M225.91,169.8V195H216.3v-8.32h-7.45V195h-9.61V169.8h9.61v8.32h7.45V169.8Z" transform="translate(0.35)" style="fill:#fff"/><path d="M253.38,169.8v13.65c0,8.13-3.46,12.23-12.1,12.23s-12.13-4.1-12.13-12.23V169.8h9.61v13.65c0,2.23.9,3.27,2.52,3.27s2.52-1,2.52-3.27V169.8Z" transform="translate(0.35)" style="fill:#fff"/><path d="M280.45,188.13c0,4.6-2.74,6.87-8.46,6.87H256.62V169.8h14.69c5.79,0,8.53,1.8,8.53,6.45,0,3.06-1.84,5.29-3.89,5.54V182C278.65,182.51,280.45,185.07,280.45,188.13Zm-9.36-1.3c0-1.44-1.08-1.73-2.45-1.73H265.4v3.46h3.24C270,188.56,271.09,188.3,271.09,186.83Zm-5.54-8h2.8c1.19,0,2.16-.18,2.16-1.44s-1-1.47-2.16-1.47h-2.8Z" transform="translate(0.35)" style="fill:#fff"/><path d="M73,94l44.6-91.5H85.05l-26.9,62h-.3l-26.6-62H-.35l49.5,103.2A149.21,149.21,0,0,1,73,94m75.3-15.1c24.6.9,55,10.6,77.3,14.9,5.5,1.1,10.4,2,14.8,2,9.2.3,48-2,48-35.4,0-26.9-46-23.2-62.8-29.4-3.8-1.5-6.1-3.4-6.1-6.3,0-4.3,2.3-6.8,6.1-8.6a35.78,35.78,0,0,1,11.3-1.7c11.3,0,17.4,4.3,18.2,13.2h30.1C283.75,7.4,261.75,0,240,0a105.29,105.29,0,0,0-14.5.9c-18.5,2-28.4,8.3-33,15.1V2.6h-30.1V53.2c0,15.4-4.9,20.6-20.3,20.6-15.6,0-20.3-5.2-20.3-20.6V16L94.05,72c0,5.7,2.9,10,10.1,13.1a125.81,125.81,0,0,1,44.1-6.2m44.3-39.4c6.1,9.4,19.7,12.5,33,14.3,16.5,2.6,32.7,3.1,32.7,12.3,0,6.3-5.8,10-19.4,10-4.3,0-9.2-.3-13.3-1.7-4.9-1.7-8.7-5.1-8.7-12.3h-24.3V39.5Z" transform="translate(0.35)" style="fill:#fff"/><path d="M260.55,101.7c-42.3,17.2-133.2-60.9-229.7,38.6h35.9c61.1-70.6,128.3-27.4,176.4-29.4,22.3-.9,33.9-18.6,33.6-18.6s-4.9,5.1-16.2,9.4M89.75,140.3h32.4c3.8-7.4,20-29.4,85.5-26.3,18.8.9,20.9,0,20.9,0s-9.2-.8-17.1-2.3c-81.2-14.5-114.2,19.2-121.7,28.6m52.7,0h30.4c4.3-17.4,45.5-22,45.5-22s-54.2-2.6-75.9,22" transform="translate(0.35)" style="fill:#fff;fill-rule:evenodd"/></svg>