<svg id="Layer_1" data-name="Layer 1" xmlns="http://www.w3.org/2000/svg" viewBox="0 0 281.17 150.47"><path d="M45.27,107.9c-18.1,48.5-22.3,42.2-30,42.4-26.4.5-10.6-86.5-10.4-87,2.7-6.7,24.3-12.9,23.4-2-5.9,34.5-12.7,68.1-10.7,76,1.4,5.6.7,13.6,21.3-30.9C42.57,98.4,47,105.1,45.27,107.9ZM28.27,35c-1.1-15.5-13.8-12-15.7,3.8C11.07,50.8,26.07,54.2,28.27,35ZM259.6,0H74A21.68,21.68,0,0,0,52.27,21.6v2.8l-16,50.8a4.52,4.52,0,0,0,1.2,4.6,4.31,4.31,0,0,0,3.1,1.2,4.37,4.37,0,0,0,1.6-.3l10.1-3.8v14a25.14,25.14,0,0,0,6.2,16.1c4.2,4.8,9.7,7.5,15.4,7.5H259.6c5.7,0,11.2-2.7,15.4-7.5a25.11,25.11,0,0,0,6.17-16.1V21.6h0A21.64,21.64,0,0,0,259.6,0Z" transform="translate(0 0)"/></svg>