<?xml version="1.0" encoding="UTF-8"?><svg id="Layer_1" xmlns="http://www.w3.org/2000/svg" xmlns:xlink="http://www.w3.org/1999/xlink" viewBox="0 0 144 39.01"><defs><style>.cls-1{fill:#c70017;}.cls-1,.cls-2,.cls-3,.cls-4,.cls-5{stroke-width:0px;}.cls-2{fill:#1d336f;}.cls-3{fill:none;}.cls-4{fill:#ff7600;}.cls-6{clip-path:url(#clippath);}.cls-5{fill:#fff;}</style><clipPath id="clippath"><rect class="cls-3" y="0" width="144" height="39"/></clipPath></defs><g class="cls-6"><path class="cls-4" d="M143.98,5.41c-.04,8.47.05,21.83,0,28.87-.02,2.61-2.49,4.72-5.1,4.72H54.97c8.37-13.18,30.16,9.52,31.54-33.73.08-2.57,2.18-4.61,4.75-4.61h47.81c2.63,0,4.93,2.13,4.92,4.76h0Z"/><path class="cls-2" d="M33.78,4.75v1.36c0,3.06-.01,6.12.01,9.18,0,.66.08,1.33.2,1.97.3,1.68,1.31,2.72,3,3.06,1.55.31,3.11.33,4.66.02,1.89-.37,2.88-1.4,3.18-3.29.13-.85.19-1.72.2-2.59.02-4.35,0-8.71,0-13.06v-.63h8.27v3.58c.12-.07.18-.08.2-.11,1.68-2.16,4.06-3.06,6.62-3.6,2.86-.59,5.76-.79,8.68-.51,2.61.25,5.13.84,7.31,2.41,1.52,1.09,2.46,2.56,2.78,4.41.02.12.03.24.03.36,0,.08-.01.17-.02.28h-8.21c-.05-.25-.1-.51-.17-.77-.43-1.63-1.61-2.43-3.18-2.71-1.56-.29-3.12-.22-4.64.25-.76.23-1.37.68-1.71,1.42-.48,1.03-.24,1.99.78,2.46.96.43,2,.74,3.04.94,2.78.53,5.6.9,8.37,1.47,1.23.26,2.44.74,3.57,1.31,2.44,1.24,3.37,3.29,3.03,6.01-.46,3.66-2.55,5.99-5.85,7.32-3.55,1.43-7.22,1.71-10.95.87-4.47-1.01-8.93-2.07-13.4-3.06-3.47-.76-6.98-1.29-10.56-1.2-3.32.09-6.55.61-9.72,1.62-.24.08-.57.05-.8-.07-1.1-.52-1.97-1.26-2.28-2.51-.12-.49-.1-.95.14-1.43,2.38-4.79,4.75-9.59,7.11-14.39.07-.14.15-.28.23-.42l.08.02h0ZM60,17.26c.02.14.05.24.06.34.14,1.82,1.21,2.8,2.9,3.22,1.59.4,3.21.42,4.81.24.81-.09,1.64-.31,2.4-.62,1.08-.45,1.56-1.49,1.31-2.54-.21-.87-.89-1.35-1.67-1.57-1.33-.38-2.69-.68-4.06-.93-2.17-.39-4.37-.62-6.53-1.07-2.22-.46-4.31-1.27-5.76-3.19-.01-.02-.06-.01-.12-.02v6.13h6.66Z"/><path class="cls-2" d="M13.68,29.38C9.11,19.82,4.57,10.31,0,.74h.55c2.55,0,5.1,0,7.65,0,.35,0,.53.08.68.43,2.33,5.48,4.67,10.96,7.02,16.44.05.12.11.23.23.46,2.52-5.83,5-11.57,7.48-17.31h8.92c-.18.4-.34.76-.52,1.12-3.85,7.93-7.7,15.85-11.53,23.79-.17.34-.4.53-.74.69-1.93.93-3.83,1.9-5.74,2.85-.09.05-.17.1-.32.18h0Z"/><path class="cls-1" d="M76.39,26.17c-.63.62-1.22,1.29-1.9,1.86-2.16,1.8-4.64,2.75-7.48,2.81-2.87.05-5.69-.38-8.5-.87-3.56-.62-7.11-1.35-10.69-1.85-4.9-.68-9.79-.64-14.59.81-4.85,1.47-8.93,4.18-12.48,7.73-.66.66-1.27,1.37-1.92,2.04-.14.14-.36.29-.55.29-3.08.02-6.16.01-9.24,0-.06,0-.12-.02-.24-.05.1-.12.15-.22.23-.3,3.59-3.64,7.52-6.84,12.03-9.28,4.29-2.32,8.84-3.8,13.7-4.38,3.96-.47,7.9-.33,11.85.19,4.44.58,8.77,1.68,13.12,2.65,2.5.55,5.01,1.06,7.59,1.2,3.29.18,6.14-.91,8.74-2.81.08-.05.15-.11.23-.16.04.04.08.08.11.12h0Z"/><path class="cls-1" d="M24.95,38.94c.85-.84,1.58-1.67,2.41-2.37,3.53-2.97,7.65-4.69,12.12-5.62,4.96-1.04,9.96-1.08,14.96-.43,2.73.35,5.44.78,8.18,1.24-.17.02-.33.05-.49.05-1.63-.03-3.26-.04-4.89-.11-3.56-.16-7.11-.1-10.63.45-3.29.51-6.48,1.37-9.31,3.24-1.33.87-2.45,1.94-3.28,3.3-.1.15-.33.31-.5.31-2.72.02-5.44.02-8.17.01-.1,0-.19-.03-.4-.07h0Z"/><path class="cls-1" d="M59.72,32.96c-1.14.24-2.28.44-3.39.71-2.05.5-4.06,1.15-5.86,2.28-1.1.69-2.05,1.52-2.52,2.78-.04.12-.24.26-.37.26-2.6.01-5.2,0-7.81,0-.03,0-.06-.02-.15-.07.18-.19.33-.37.51-.54,1.99-1.88,4.39-2.99,6.96-3.79,4.08-1.27,8.28-1.65,12.53-1.68.02,0,.05.02.1.05h0Z"/><path class="cls-5" d="M103.61,10.95h-3.18v8.11h-2.46v-8.11h-3.15v-2.08h8.78v2.08Z"/><path class="cls-5" d="M114.22,13.95c0,1.78-.42,3.11-1.25,3.98-.83.88-2.09,1.33-3.79,1.33s-3-.44-3.81-1.32c-.81-.88-1.21-2.24-1.21-4.09,0-1.74.42-3.04,1.24-3.9.82-.84,2.08-1.27,3.79-1.27s2.97.43,3.8,1.3c.82.88,1.24,2.2,1.24,3.97h0ZM111.65,13.95c0-1.12-.2-1.94-.6-2.48-.4-.52-1.02-.78-1.86-.78s-1.43.26-1.84.77c-.2.27-.36.61-.46.99-.1.39-.15.86-.15,1.42,0,1.17.2,2.01.6,2.54.39.54,1.01.8,1.85.8s1.43-.27,1.85-.8c.41-.52.61-1.34.61-2.46Z"/><path class="cls-5" d="M125.07,19.05h-2.68l-.89-2.34h-3.99l-.87,2.34h-2.57l4.26-10.19h2.43l4.31,10.19h0ZM122.73,6.43l-2.5,1.52h-1.59l1.39-1.52h2.71ZM120.68,14.61l-1.21-3.1-1.16,3.1h2.37Z"/><path class="cls-5" d="M135.24,19.05h-2.65l-3.92-6.95.08,6.95h-2.43v-10.19h2.87l3.69,6.57-.08-6.57h2.44v10.19h0Z"/><path class="cls-5" d="M101.93,23.33l-3.14,7.61h-1.76l-3.27-7.61h2.02l2.09,5.23,2.15-5.23h1.92Z"/><path class="cls-5" d="M104.3,30.94h-1.86v-7.61h1.86v7.61Z"/><path class="cls-5" d="M118.84,24.88h-2.37v6.05h-1.83v-6.05h-2.36v-1.55h6.55v1.55Z"/><path class="cls-5" d="M130.71,30.94h-1.75l.11-4.99-1.63,4.99h-1.8l-1.68-5.06.12,5.06h-1.8v-7.61h2.46l1.77,5.34,1.75-5.34h2.46v7.61h0Z"/><path class="cls-5" d="M138.57,23.33l-2.91,4.26v3.35h-1.78v-3.34l-2.89-4.27h2.05l1.72,2.69,1.73-2.69h2.09Z"/><path class="cls-5" d="M109.2,31.79h-1.55v.78h1.55v-.78Z"/><path class="cls-5" d="M136.54,21.44c-.04.23-.1.43-.16.58-.07.15-.16.28-.27.38-.2.21-.46.32-.77.32l-.17-.02-.18-.03-.67-.14-.08-.02h-.09c-.09,0-.16.02-.22.06-.04.02-.08.1-.12.26h-.76c.11-.45.25-.78.43-.97.18-.19.43-.29.74-.29h.2s.17.04.17.04l.64.15.12.02h.13c.08,0,.14-.02.18-.05.04-.02.06-.06.08-.1.02-.04.04-.09.05-.17h.75Z"/><path class="cls-5" d="M110.25,22.59h-1.15l-.67-.46-.66.46h-1.15l1.16-1.08h1.32l1.15,1.08Z"/><path class="cls-5" d="M111.39,24.82v-1.49h-5.92v7.61h5.92v-1.49h-3.56c-.43,0-.78-.35-.78-.78s.35-.78.78-.78h3.56v-1.49h-3.56c-.43,0-.78-.35-.78-.78s.35-.78.78-.78h3.56Z"/></g></svg>