<svg id="Layer_1" data-name="Layer 1" xmlns="http://www.w3.org/2000/svg" xmlns:xlink="http://www.w3.org/1999/xlink" viewBox="0 0 608.98 654.06"><defs><style>.cls-1{fill:#1d839b;}.cls-2{fill:#1e1e1e;}.cls-3{fill:#010101;}.cls-4{fill:#e73534;}.cls-5{fill:#c32328;}.cls-6{fill:#f8b119;}.cls-13,.cls-7{fill:#fff;}.cls-8{fill:url(#_ÂÁ_Ï_ÌÌ_È_ËÂÌÚ_440);}.cls-9{fill:#eff8fb;}.cls-10{fill:url(#_ÂÁ_Ï_ÌÌ_È_ËÂÌÚ_12);}.cls-11{fill:url(#_ÂÁ_Ï_ÌÌ_È_ËÂÌÚ_440-2);}.cls-12{fill:url(#_ÂÁ_Ï_ÌÌ_È_ËÂÌÚ_12-2);}.cls-13{fill-rule:evenodd;}.cls-14{fill:#fed20d;}.cls-15{fill:url(#_ÂÁ_Ï_ÌÌ_È_ËÂÌÚ_440-3);}.cls-16{fill:#8ec1cd;}.cls-17{fill:#efeceb;}.cls-18{fill:#495261;}.cls-19{fill:#233245;}.cls-20{fill:#4d7496;}.cls-21{fill:#3a3b3a;}.cls-22{fill:#2bafc6;}</style><radialGradient id="_ÂÁ_Ï_ÌÌ_È_ËÂÌÚ_440" cx="351.36" cy="129.31" r="50.04" gradientTransform="translate(87.13 -101.19) rotate(45)" gradientUnits="userSpaceOnUse"><stop offset="0" stop-color="#384b9d"/><stop offset="1" stop-color="#252159"/></radialGradient><linearGradient id="_ÂÁ_Ï_ÌÌ_È_ËÂÌÚ_12" x1="320.88" y1="129.31" x2="381.84" y2="129.31" gradientTransform="translate(-123.92 170.1) rotate(-9.65)" gradientUnits="userSpaceOnUse"><stop offset="0" stop-color="#0f1418"/><stop offset="1" stop-color="#0a2f44"/></linearGradient><radialGradient id="_ÂÁ_Ï_ÌÌ_È_ËÂÌÚ_440-2" cx="487.94" cy="129.3" r="50.04" gradientTransform="translate(125.2 -220.66) rotate(45)" xlink:href="#_ÂÁ_Ï_ÌÌ_È_ËÂÌÚ_440"/><linearGradient id="_ÂÁ_Ï_ÌÌ_È_ËÂÌÚ_12-2" x1="457.47" y1="129.3" x2="518.42" y2="129.3" gradientTransform="translate(-24.59 -87.67) rotate(22.11)" xlink:href="#_ÂÁ_Ï_ÌÌ_È_ËÂÌÚ_12"/><radialGradient id="_ÂÁ_Ï_ÌÌ_È_ËÂÌÚ_440-3" cx="-435.47" cy="-1384.96" r="83.92" gradientTransform="translate(249.87 1789.16) rotate(28.67)" xlink:href="#_ÂÁ_Ï_ÌÌ_È_ËÂÌÚ_440"/></defs><path class="cls-1" d="M514.56,151.18C528.83,188,513.3,227.86,489,239.85s-46.72-11-64.15-44S413,126.32,437.3,114.41C470.56,98.14,501.16,116.54,514.56,151.18Z"/><circle class="cls-2" cx="389.79" cy="65.55" r="63.55" transform="translate(67.82 294.82) rotate(-45)"/><path class="cls-3" d="M325.54,78.45A65.54,65.54,0,1,1,402.7,129.8,65.61,65.61,0,0,1,325.54,78.45Zm124.61-25a61.56,61.56,0,1,0-48.24,72.47A61.63,61.63,0,0,0,450.15,53.43Z"/><circle class="cls-4" cx="389.79" cy="65.55" r="46.8" transform="translate(119.27 353.73) rotate(-56.36)"/><path class="cls-5" d="M435.68,56.33A46.8,46.8,0,1,0,399,111.43,46.8,46.8,0,0,0,435.68,56.33ZM351.24,74.8C347.1,54.15,362,33.73,384.62,29.19S428.86,37.72,433,58.38,422.22,99.44,399.64,104,355.39,95.45,351.24,74.8Z"/><circle class="cls-2" cx="83.2" cy="148.12" r="63.55" transform="translate(-80.37 102.21) rotate(-45)"/><path class="cls-3" d="M93.54,212.84a65.54,65.54,0,1,1,54.38-75.05A65.62,65.62,0,0,1,93.54,212.84ZM73.49,87.34A61.56,61.56,0,1,0,144,138.42,61.63,61.63,0,0,0,73.49,87.34Z"/><circle class="cls-4" cx="83.2" cy="148.12" r="46.8" transform="translate(-80.37 102.21) rotate(-45)"/><path class="cls-5" d="M75.82,101.91a46.8,46.8,0,1,0,53.59,38.83A46.81,46.81,0,0,0,75.82,101.91ZM90.91,187c-20.8,3.32-40.61-12.42-44.24-35.16S57,108,77.75,104.66s40.61,12.42,44.24,35.16S111.71,183.69,90.91,187Z"/><path class="cls-6" d="M518.46,451.93C455.79,482,447.2,496.26,426.4,490.52c-2.39-.66-14.59-4-22.4-15.17A38.85,38.85,0,0,1,397.32,451c2.77-31.85,68.32-52.73,115.15-54,10.21-.28,37.61-1,42.49,11.12,2,5-.45,10.42-2.25,14.29C544.75,439.55,527.91,447.4,518.46,451.93Z"/><path class="cls-7" d="M431.23,438.62c6.51-3.67,11.9-5.44,22.67-9,14.09-4.63,22.47-4.51,23.21-8.52.48-2.61-2.61-5.18-3.31-5.76-10.59-8.83-33.56,1-46.27,9.73-7.78,5.36-15.45,13-14,16.15a3.93,3.93,0,0,0,2.26,2C420.77,444.62,426.28,441.42,431.23,438.62Z"/><path class="cls-7" d="M404.16,445.17a2.73,2.73,0,1,0,3.76.83A2.73,2.73,0,0,0,404.16,445.17Z"/><path class="cls-5" d="M269.33,69.1h10.42A218.18,218.18,0,0,1,497.92,287.28v0A121.58,121.58,0,0,1,376.34,408.86H172.73A121.58,121.58,0,0,1,51.15,287.28v0A218.18,218.18,0,0,1,269.33,69.1Z" transform="translate(-36.18 49.41) rotate(-9.65)"/><path class="cls-4" d="M500.39,234.63c-16.9-99.36-102.56-169-201.92-152.08L219.35,96C120,112.9,52.51,208,69.41,307.39l9,52.75c9.5,55.84,72,75.4,111.51,65.55L421.7,386.27s80.19-8.94,85.73-101.89Z"/><path class="cls-7" d="M224.55,105.24c7.24,4.53,11.87,16,8.18,23.11-3.47,6.68-13.14,7.42-23.11,8.18s-33.81.74-35.57-6.79C171.71,119.81,207.47,94.56,224.55,105.24Z"/><path class="cls-7" d="M157.83,135.28a6.35,6.35,0,1,1-8.81,1.77A6.36,6.36,0,0,1,157.83,135.28Z"/><path class="cls-7" d="M465.57,264.44h0A43.05,43.05,0,0,1,447.52,272L183.21,316.92a43,43,0,0,1-19.53-1.14h0c-15.34-4.59-25.73-17.36-26.2-32.2l0-1.08c-1.58-50.25,36.47-95.56,90.5-107.66,22.86-5.13,47-9.86,72.23-14q29.7-4.87,57.59-8.1c55.2-6.48,106.39,23.5,121.57,71.62.1.35.21.69.32,1C484.13,239.55,478.54,255,465.57,264.44Z"/><circle class="cls-8" cx="244.13" cy="238.69" r="50.56" transform="matrix(0.58, -0.82, 0.82, 0.58, -91.8, 299.72)"/><circle class="cls-9" cx="244.13" cy="238.69" r="36.29" transform="translate(-12.91 13.96) rotate(-3.19)"/><path class="cls-10" d="M274.18,233.58A30.48,30.48,0,1,1,239,208.64,30.48,30.48,0,0,1,274.18,233.58Z"/><circle class="cls-9" cx="250.92" cy="229.52" r="11.29" transform="translate(0.75 459.86) rotate(-85.09)"/><path class="cls-9" d="M248.05,261.73a4.51,4.51,0,1,1-5.2-3.69A4.51,4.51,0,0,1,248.05,261.73Z"/><path class="cls-9" d="M231.46,257.69a2.25,2.25,0,1,1-2.6-1.84A2.25,2.25,0,0,1,231.46,257.69Z"/><circle class="cls-11" cx="378.77" cy="215.79" r="50.56" transform="translate(-16.38 399.89) rotate(-54.65)"/><path class="cls-9" d="M414.55,209.71A36.29,36.29,0,1,1,372.69,180,36.29,36.29,0,0,1,414.55,209.71Z"/><circle class="cls-12" cx="378.77" cy="215.79" r="30.48" transform="translate(-56.87 231.7) rotate(-31.76)"/><path class="cls-9" d="M396.7,204.73a11.29,11.29,0,1,1-13-9.24A11.29,11.29,0,0,1,396.7,204.73Z"/><path class="cls-9" d="M382.69,238.83a4.5,4.5,0,1,1-5.2-3.68A4.51,4.51,0,0,1,382.69,238.83Z"/><path class="cls-9" d="M366.1,234.8a2.25,2.25,0,1,1-2.6-1.85A2.25,2.25,0,0,1,366.1,234.8Z"/><path class="cls-4" d="M161.39,495c.07.61.14,1.19.23,1.75a41.7,41.7,0,0,0,3.54,11.41c24.93,53.75,39.4,81.94,57.61,104,3.15,3.8,6.4,7.43,9.87,10.95,4.54,4.72,9.44,9.25,14.84,13.89,12,10.3,28.69,13.63,34.09,14.82,19.73,4.45,36.33,1.24,47.47,0l1.94-.23c11.15-1.43,28-2.19,46.15-11.13,5-2.42,20.44-9.56,29.67-22.37,25.46-35.27,33.56-63,49.93-144.5a41.58,41.58,0,0,0,.82-11.2,43.67,43.67,0,0,0-.51-4.55c-1.67-9.31-6.56-18.05-14.3-25.64-13.26-13-32.05-18.81-50.53-16.7l-89,10.18-87.39,10c-18.87,2.16-36.21,12.24-46.47,28.25-5,7.75-7.74,15.81-8.16,23.84-.06,1.13-.08,2.3-.05,3.42S161.24,493.7,161.39,495Z"/><path class="cls-6" d="M183.65,564.71c37.52-58.52,52.73-65.3,49.58-86.64-.36-2.46-2.21-15-12.31-24.09a38.87,38.87,0,0,0-23.34-9.62c-31.94-1.15-60.69,61.36-67.67,107.68-1.52,10.1-5.61,37.2,5.83,43.53,4.69,2.59,10.4.83,14.46-.49C168.15,589.28,178,573.53,183.65,564.71Z"/><path class="cls-7" d="M181.13,476.51c-4.45,6-6.86,11.14-11.69,21.39-6.32,13.42-7.23,21.75-11.3,22-2.65.16-4.82-3.22-5.31-4-7.47-11.59,5.07-33.19,15.32-44.72,6.28-7.07,14.78-13.75,17.74-11.91a3.91,3.91,0,0,1,1.67,2.49C188.37,466.85,184.51,471.94,181.13,476.51Z"/><path class="cls-7" d="M190.94,450.44a2.73,2.73,0,1,1,.37,3.83A2.73,2.73,0,0,1,190.94,450.44Z"/><path class="cls-7" d="M293.31,583.14l13.58-38.72-13,1.51L286,572h-.12l-13.57-23.59-12.64,1.47,24.65,39A55.64,55.64,0,0,1,293.31,583.14Zm29.43-9.61c9.9-.8,22.54,1.68,31.66,2.35a30.19,30.19,0,0,0,6,.12c3.71-.33,19.14-3,17.58-16.44-1.26-10.77-19.51-7.13-26.53-8.85-1.58-.41-2.61-1.1-2.74-2.24a3.62,3.62,0,0,1,2-3.72,14,14,0,0,1,4.44-1.22c4.53-.53,7.16.91,7.92,4.42l12.07-1.41c-1.52-7.95-10.67-9.89-19.39-8.88a45.47,45.47,0,0,0-5.75,1c-7.33,1.66-11,4.64-12.52,7.61l-.62-5.38-12.06,1.41,2.36,20.26c.72,6.18-1,8.48-7.16,9.2s-8.36-1.12-9.08-7.3l-1.73-14.89-8.51,23.74c.26,2.28,1.62,3.86,4.67,4.79A50.11,50.11,0,0,1,322.74,573.53Zm15.9-17.84c2.88,3.48,8.47,4.1,13.89,4.16,6.73.27,13.25-.27,13.68,3.4.29,2.51-1.86,4.28-7.3,4.91a16.63,16.63,0,0,1-5.41-.07,4.77,4.77,0,0,1-4.06-4.51l-9.75,1.13Z"/><path class="cls-13" d="M368.81,577.45c-16.13,8.84-56.2-18.16-90.17,26.17L293,601.94c21.17-31.11,50.1-17,69.26-20a17.42,17.42,0,0,0,12.58-9A20.31,20.31,0,0,1,368.81,577.45Zm-66.63,23.42,13-1.51c1.18-3.15,6.63-12.72,33-14.52,7.58-.53,8.35-1,8.35-1s-3.74.1-6.94-.11C316.41,581.7,304.77,596.75,302.18,600.87Zm21.11-2.46L335.47,597c.93-7.17,17.18-10.93,17.18-10.93S330.84,587.56,323.29,598.41Z"/><path class="cls-14" d="M330.46,350.64a47.23,47.23,0,0,1-8.69,1.06c-20.83.61-35.1-12.81-35.7-13.39a3.68,3.68,0,0,1,5.09-5.32c.2.18,12.82,11.9,30.48,11.35,12.72-.4,25.09-7,36.76-19.51a3.68,3.68,0,0,1,5.39,5C353.29,341.14,342.11,348.1,330.46,350.64Z"/><path class="cls-15" d="M604.46,309.73c1.18-3.42,6.4-18.76-7.59-23.61-9.56-3.31-44.79-15.56-65.56-22.72-14.63-5-20.43,7.21-24.42,19-.49,1.46-17.66,50.23-26.74,77.13-9.84,29.14-18.25,53.06-19.66,57.46-5.05,15.7-8.69,21.34,8.05,27,9.5,3.21,56.87,19.72,66.38,23,10.48,3.64,14.68,1.77,21-16.51C556.19,449.8,599.46,324.14,604.46,309.73Z"/><path class="cls-7" d="M607.05,310.58c1.18-3.41,6.4-18.75-7.59-23.6-9.56-3.31-44.79-15.56-65.56-22.73-14.63-5-20.43,7.22-24.42,19-.49,1.47-17.66,50.23-26.74,77.14-9.84,29.14-18.25,53.06-19.66,57.45-5.05,15.7-8.68,21.34,8.05,27,9.5,3.21,56.87,19.71,66.38,23,10.48,3.64,14.68,1.77,21-16.51C558.78,450.65,602.05,325,607.05,310.58Z"/><path class="cls-16" d="M601.3,318.37c1.1-3.17,8.37-17.85-7.73-23.43l-56.81-19.7c-16.46-5.71-20,1.85-23.24,11.4-.46,1.37-17.39,52.42-26.51,77.16s-15.83,45.63-17.17,50c-4.51,14.84-11.23,21.92,4.63,27.37,8.69,3,51.41,18.13,60.14,21.15,9.62,3.34,13.86,5.42,19.75-11.56C554.59,450.11,596.66,331.75,601.3,318.37Z"/><path class="cls-17" d="M575,281.7a1.87,1.87,0,1,0,1.15,2.38A1.86,1.86,0,0,0,575,281.7Z"/><path class="cls-18" d="M530.59,263.86c-3.47-1.73-7.64-.73-10.69,1.41-3.6,2.51-5.69,6.62-7.38,10.54-2,4.56-3.78,9.21-5.53,13.86s-3.51,9.51-5.19,14.3-3.3,9.54-4.92,14.32l-.62,1.82a.25.25,0,0,0,.48.16c1.6-4.7,3.19-9.4,4.82-14.09s3.3-9.36,5-14,3.53-9.28,5.42-13.87c1.68-4.05,3.44-8.32,6.68-11.4,2.69-2.55,6.77-4.19,10.45-3.07a8.44,8.44,0,0,1,1.29.51C530.72,264.49,530.88,264,530.59,263.86Z"/><path class="cls-7" d="M504.57,292.51c.42-1.36-1.28-2.06-1.92-.48-.55,1.37-6.43,18.13-7.16,20.22-.58,1.68,1.19,2.25,1.81.49C498.37,309.66,504.37,293.15,504.57,292.51Z"/><path class="cls-7" d="M495.67,316.79c.19-.67-1.22-1.21-1.54-.44s-3,8.87-3.37,9.9c-.27.82,1.17,1.3,1.46.44C492.72,325.18,495.59,317.11,495.67,316.79Z"/><path class="cls-18" d="M503.19,296.32l1.66-4.8a.16.16,0,0,0-.31-.11q-1.49,4.24-3,8.49t-3,8.53l-1.67,4.8a.17.17,0,0,0,.32.11q1.47-4.24,3-8.49Z"/><path class="cls-18" d="M495.61,317l-3.54,10.1a.16.16,0,1,0,.31.11q1.78-5.06,3.55-10.1A.17.17,0,0,0,495.61,317Z"/><path class="cls-18" d="M503.81,290.72l-.69,0a.17.17,0,0,0-.12,0,.2.2,0,0,0-.06.12.18.18,0,0,0,.16.18l.69,0s.09,0,.12,0a.2.2,0,0,0,.06-.12C504,290.82,503.91,290.71,503.81,290.72Z"/><path class="cls-7" d="M496.12,313.3h-.07l-.09,0h0l0,0s0,0-.05,0l0,0h0l0,0-.07-.08h0l0,0s0,0,0-.05v0h0a.5.5,0,0,1,0-.12.17.17,0,0,0-.2-.13.18.18,0,0,0-.13.2.86.86,0,0,0,.77.74.17.17,0,0,0,.18-.15A.18.18,0,0,0,496.12,313.3Z"/><path class="cls-7" d="M496,313.25Z"/><path class="cls-7" d="M495.74,313.05h0Z"/><path class="cls-18" d="M495.72,316.05a.91.91,0,0,0-1.31-.11.17.17,0,0,0,0,.23.16.16,0,0,0,.24,0l.06,0h0l0,0,.06,0h0l.13,0h.22l.07,0,0,0h0l.12.07h0l0,0,0,.06a.17.17,0,0,0,.24,0A.18.18,0,0,0,495.72,316.05Z"/><path class="cls-7" d="M481.18,381.48c.41-1.32.8-2.64,1.2-4,.09-.31-.39-.47-.48-.16q-2.08,7-4.45,14c-.45,1.3-.9,2.61-1.36,3.91a.25.25,0,0,0,.48.17Q479,388.51,481.18,381.48Z"/><path class="cls-7" d="M472.86,408.17c.37-1.18.73-2.35,1.11-3.52.1-.31-.38-.48-.48-.17q-2,6.24-3.76,12.53c-.34,1.19-.66,2.37-1,3.56-.08.31.4.48.48.17Q470.93,414.42,472.86,408.17Z"/><path class="cls-7" d="M470.5,436.54a5.52,5.52,0,0,1-2.88-6.26c.08-.31-.39-.48-.48-.16a6.06,6.06,0,0,0,1.69,5.87,5.65,5.65,0,0,0,1.5,1C470.63,437.16,470.79,436.68,470.5,436.54Z"/><path class="cls-7" d="M491.76,445.3l-8.69-3.2-2.45-.9a.25.25,0,0,0-.16.48l8.69,3.2,2.45.9A.25.25,0,0,0,491.76,445.3Z"/><path class="cls-7" d="M528.18,457.63l-12.32-3.77-3.49-1.06c-.31-.1-.48.38-.16.47L524.52,457l3.49,1.07C528.32,458.2,528.49,457.73,528.18,457.63Z"/><path class="cls-16" d="M503.48,320.68c-3.77,10.24-8.64,25.8-12.23,36.11-1.31,3.78-8.83,16.81.6,16.34,1.23-.06,4.64-13.36,5-14.62,1.78-5.95,4-11.53,8.76-15.78a39.11,39.11,0,0,1,24.59-9.94,77.85,77.85,0,0,1,15.34,1.58c6,1.12,11.08,5.37,14.63,10.11,9.83,13.14,10.25,30.45,6.39,45.79-1.11,4.4-2.61,8.69-4.14,13,5.24,2,5.91,4.57,7.29-.3s4.76-15,6.61-19.64c5-12.5,10.28-25.32,14.25-38.17,2.88-9.34,6.58-17.21,9.3-26.58,1.74-6,4.84-12.41-.17-17.77-4.81-5.15-13.85-6.7-20.15-9.09-11.42-4.33-19.38-6.81-30-10.06-7.88-2.4-23.59-10-29.88-2.29-3.43,4.22-5.23,9.47-6.91,14.57Q508.35,307.37,503.48,320.68Z"/><path class="cls-19" d="M533.72,424.07,527,450.2a3.15,3.15,0,1,0,6.09,1.55l6.78-26.24A13.56,13.56,0,0,1,533.72,424.07Z"/><path class="cls-19" d="M525.84,437.45c-6.78-1.29-13.44-3.12-20.23-4.41-.16,0-.23.24-.07.27,6.78,1.29,13.45,3.11,20.23,4.41C525.93,437.75,526,437.48,525.84,437.45Z"/><path class="cls-7" d="M536.66,436.31c-3.31-.34-6.57-1-9.84-1.67s-6.74-1.18-10.13-1.72c-1.64-.27-3.28-.55-4.91-.86a37.54,37.54,0,0,0-3.91-.66c-1.35-.11-2.7-.15-4-.35a6.09,6.09,0,0,1-3.39-1.37c-.12-.11-.31.08-.19.2,1.72,1.64,4.5,1.59,6.7,1.74,3.18.21,6.28,1,9.42,1.52,3.46.57,6.93,1.11,10.37,1.77,3.29.63,6.57,1.33,9.91,1.68C536.82,436.61,536.83,436.33,536.66,436.31Z"/><path class="cls-19" d="M498.09,443.8a8.35,8.35,0,0,0-5.24-1.82c-.17,0-.17.27,0,.27A8.14,8.14,0,0,1,498,444C498.09,444.14,498.22,443.9,498.09,443.8Z"/><path class="cls-19" d="M531.72,451.68c-1.56-1.68-4.59-4.15-6.93-2.46-.14.11,0,.34.12.24,2.23-1.61,5.14.82,6.62,2.41C531.64,452,531.83,451.8,531.72,451.68Z"/><path class="cls-20" d="M500.67,444.29a10.9,10.9,0,0,0-1.63-.06,3.71,3.71,0,0,1-1.56-.62s-.07,0-.05.05a2.27,2.27,0,0,0,1.51.92c.51.11,1.36.24,1.77-.14A.09.09,0,0,0,500.67,444.29Z"/><path class="cls-16" d="M553.62,447.49c1.33-4,2.25-8.23,3.64-12.24.48-1.37,1-2.74,1.62-4.1,1.23-2.87,2.6-5.73,3.65-8.66,1.68-4.69,3.22-9.42,5-14.09.9-2.4,4.12-10.88-2.11-9.51-2.13.47-3.53,4.19-4.69,5.81a74.89,74.89,0,0,1-11.3,13.06c-11.43,9.89-28.95,5.8-40.89-1.15A32.44,32.44,0,0,1,493.4,396.7c-1.42-5.4-2.58-9.87-2-15.56.1-.91,1.66-11.57,2.29-14.25-2.44,1.87-4.93,3.69-7.31,5.64a4.66,4.66,0,0,1-1.12.68c-.21.48-.45,1-.72,1.55-4.87,10.1-7.72,21-10.77,31.74-1.88,6.6-4.85,12.95-6.41,19.63-1.52,6.48,1.31,10.33,7.29,12.76,7.64,3.12,15.65,5.18,23.37,8.1,8,3,16.18,5.68,24.39,8.17,4.53,1.38,9.16,2.72,13.61,4.32,3.5,1.27,7.79,1.48,10.94-.83C550.51,456.05,552.3,451.52,553.62,447.49Z"/><path class="cls-7" d="M520.32,281.29a.26.26,0,0,0-.45-.24,71.2,71.2,0,0,0-5.15,11.57c-.1.32.4.43.5.12A70.6,70.6,0,0,1,520.32,281.29Z"/><path class="cls-7" d="M571.24,289c-5.82-1.71-11.64-3.48-17.6-4.66-.33-.06-.45.44-.12.5,6,1.18,11.78,2.94,17.6,4.66C571.44,289.58,571.56,289.08,571.24,289Z"/><path class="cls-7" d="M597.59,304.35c-1-3-3.72-4.89-6.43-6.25a58.43,58.43,0,0,0-9.35-3.33c-.32-.09-.43.4-.12.5a66.72,66.72,0,0,1,8.6,3c2.8,1.28,5.83,3.15,6.81,6.25C597.2,304.81,597.7,304.67,597.59,304.35Z"/><path class="cls-7" d="M597.83,320.09c.81-3.51,1.94-6.93,2.22-10.54,0-.33-.48-.31-.51,0-.28,3.56-1.41,6.94-2.21,10.4A.26.26,0,0,0,597.83,320.09Z"/><path class="cls-7" d="M512.9,299.14c.14-.29-.3-.54-.45-.24-3.5,7-4.94,14.83-7.72,22.14-.12.31.38.43.5.12C508,313.89,509.42,306.14,512.9,299.14Z"/><polygon class="cls-4" points="120.48 157.4 109.79 174.67 66.81 157.37 85.83 126.64 120.48 157.4"/><path class="cls-5" d="M64.45,158.14a2.46,2.46,0,0,1,.25-2.08l19-30.72a2.49,2.49,0,0,1,1.75-1.15,2.46,2.46,0,0,1,2,.6l34.65,30.76a2.49,2.49,0,0,1,.46,3.16L111.9,176a2.49,2.49,0,0,1-3,1l-43-17.3a2.69,2.69,0,0,1-.38-.19A2.55,2.55,0,0,1,64.45,158.14Zm52.82-.27L86.39,130.46,70.47,156.17l38.31,15.42Z"/><circle class="cls-2" cx="76.32" cy="142.01" r="18.07" transform="translate(-84.59 132.14) rotate(-58.24)"/><path class="cls-3" d="M65.5,159.48a20.55,20.55,0,1,1,28.29-6.66A20.57,20.57,0,0,1,65.5,159.48Zm19-30.73a15.59,15.59,0,1,0,5,21.46A15.61,15.61,0,0,0,84.53,128.75Z"/><path class="cls-7" d="M83.51,130.39a13.66,13.66,0,1,0,4.43,18.81A13.67,13.67,0,0,0,83.51,130.39Z"/><path class="cls-21" d="M83.51,130.39a13.66,13.66,0,1,0,4.43,18.81A13.67,13.67,0,0,0,83.51,130.39ZM81.27,134A10,10,0,1,1,67.07,137,10.27,10.27,0,0,1,81.27,134Z"/><polygon class="cls-4" points="387.02 103.98 368.04 96.77 376.85 51.29 410.63 64.12 387.02 103.98"/><path class="cls-5" d="M375.65,49.12a2.45,2.45,0,0,1,2.08-.15L411.51,61.8a2.48,2.48,0,0,1,1.26,3.59l-23.62,39.86a2.46,2.46,0,0,1-3,1l-19-7.21a2.49,2.49,0,0,1-1.55-2.79l8.82-45.49a3.11,3.11,0,0,1,.11-.41A2.5,2.5,0,0,1,375.65,49.12ZM386,100.93,407,65.39,378.73,54.65l-7.86,40.54Z"/><circle class="cls-2" cx="393.74" cy="57.7" r="18.07" transform="translate(199.94 405.27) rotate(-69.19)"/><path class="cls-3" d="M374.53,50.41a20.55,20.55,0,1,1,11.91,26.5A20.57,20.57,0,0,1,374.53,50.41Zm33.78,12.83a15.59,15.59,0,1,0-20.1,9A15.6,15.6,0,0,0,408.31,63.24Z"/><path class="cls-7" d="M406.52,62.56a13.67,13.67,0,1,0-17.63,7.92A13.67,13.67,0,0,0,406.52,62.56Z"/><path class="cls-21" d="M406.52,62.56a13.67,13.67,0,1,0-17.63,7.92A13.67,13.67,0,0,0,406.52,62.56Zm-4-1.52c-2.07,5.44-7.92,8.26-13.06,6.3a10.54,10.54,0,0,1,7.47-19.68A10.27,10.27,0,0,1,402.53,61Z"/><path class="cls-22" d="M488,116.35c-14.33-30-38-47.69-78.94-65.06-40.23-17.06-141.69-24.58-238.54,5.88C68.28,89.3,4,154.18,37.45,282c1.06,4,2.33,7,2.73,9,1.94,9.2,13.78,15.13,26.9,13.72.59-.06,1.18-.14,1.76-.23,13.81-2.17,9.71-23.06,8-28.2-20.74-63.87-35.2-158.4,103.48-204.85,95.07-31.84,179.1-33.94,229.4-13.17C438.16,70,455,85.07,466.11,108.63A55.42,55.42,0,0,1,488,116.35Z"/><path class="cls-1" d="M123.8,264.64c8.35,40.49-5.11,77.48-30.06,82.63s-52-23.49-60.32-64,5.11-77.47,30.07-82.62S115.44,224.16,123.8,264.64Z"/><rect class="cls-1" x="47.31" y="201.99" width="34.79" height="149.7" transform="translate(-54.62 18.79) rotate(-11.66)"/><path class="cls-7" d="M97.7,270c8.36,40.48-4.06,77.26-27.73,82.14s-49.63-24-58-64.45,4.06-77.27,27.73-82.15S89.35,229.54,97.7,270Z"/><path class="cls-22" d="M92.85,271c8.36,40.48-5.1,77.48-30.06,82.63s-52-23.5-60.31-64,5.1-77.48,30.06-82.63S84.5,230.55,92.85,271Z"/><path class="cls-7" d="M52,314.9C41,317.17,29.29,304,25.35,285S27,249.19,38,246.92s22.69,10.89,26.62,29.94S63,312.63,52,314.9ZM38.72,250.54c-8.69,1.8-13.14,17.2-9.74,33.67s13.59,28.86,22.27,27.07S64.36,294.07,61,277.61,47.38,248.76,38.72,250.54Z"/></svg>