<svg cache-id="81a0dc94b84142eea50bde773ddd5c20" id="techsupo" xmlns="http://www.w3.org/2000/svg" xmlns:xlink="http://www.w3.org/1999/xlink" viewBox="0 0 647.04 717.98" shape-rendering="geometricPrecision" text-rendering="geometricPrecision"><style><![CDATA[#techsupo-path30_to {animation: techsupo-path30_to__to 4000ms linear infinite normal forwards}@keyframes techsupo-path30_to__to { 0% {transform: translate(582.893655px,328.425271px)} 37.5% {transform: translate(592.893655px,168.425271px)} 62.5% {transform: translate(492.893655px,168.425271px)} 100% {transform: translate(492.893655px,-31.574729px)}} #techsupo-path30 {animation: techsupo-path30_c_o 4000ms linear infinite normal forwards}@keyframes techsupo-path30_c_o { 0% {opacity: 0} 5% {opacity: 1} 37.5% {opacity: 1} 62.5% {opacity: 1} 100% {opacity: 0}} #techsupo-path31_to {animation: techsupo-path31_to__to 4000ms linear infinite normal forwards}@keyframes techsupo-path31_to__to { 0% {transform: translate(492.893658px,112.240481px)} 25% {transform: translate(492.893657px,45.749564px)} 50% {transform: translate(554.893656px,44.855013px)} 100% {transform: translate(554.893655px,-155.741354px)}} #techsupo-path31 {animation: techsupo-path31_c_o 4000ms linear infinite normal forwards}@keyframes techsupo-path31_c_o { 0% {opacity: 0} 5% {opacity: 1} 37.5% {opacity: 1} 75% {opacity: 1} 100% {opacity: 0}} #techsupo-path32_to {animation: techsupo-path32_to__to 4000ms linear infinite normal forwards}@keyframes techsupo-path32_to__to { 0% {transform: translate(607.533439px,205.242057px)} 100% {transform: translate(607.533439px,-191.615919px)}} #techsupo-path32 {animation: techsupo-path32_c_o 4000ms linear infinite normal forwards}@keyframes techsupo-path32_c_o { 0% {opacity: 0} 5% {opacity: 0.95} 100% {opacity: 0}}]]></style><path id="techsupo-path1" d="M560.5,562.69c-68.91,9.18-81.49,20.08-99.49,8.18-2.07-1.37-12.63-8.35-16.6-21.36-2.423157-8.300488-2.007903-17.172148,1.18-25.21c12.5-29.42,81.3-29,126.22-15.65c9.79,2.9,36.06,10.69,36.94,23.73.37,5.34-3.65,9.77-6.56,12.89-12.87,13.8-31.31,16.04-41.69,17.42Z" transform="translate(-68-24.46)" fill="#f8b119"/><path id="techsupo-path2" d="M481.68,523c7.33-1.48,13-1.49,24.33-1.52c14.83,0,22.76,2.67,24.71-.91c1.26-2.33-.88-5.73-1.36-6.51-7.33-11.67-32.21-9.46-47-5.07-9.06,2.69-18.71,7.55-18.3,11c.16352,1.025373.719353,1.94698,1.55,2.57c4.26,2.92,10.5,1.59,16.07.44Z" transform="translate(-68-24.46)" fill="#fff"/><path id="techsupo-path3" d="M453.91,520.86c-1.459239.368132-2.345331,1.847759-1.981005,3.307953s1.841637,2.35014,3.302776,1.989624s2.354934-1.835503,1.998229-3.297577c-.170059-.708452-.617228-1.319064-1.241314-1.695019s-1.372909-.485821-2.078686-.304981Z" transform="translate(-68-24.46)" fill="#fff"/><circle id="techsupo-circle1" r="63.55" transform="matrix(.707107-.707107 0.707107 0.707107 372.140925 129.468968)" fill="#1e1e1e"/><path id="techsupo-path4" d="M375.88,166.83c-5.220485-25.993313,5.733477-52.571562,27.752797-67.338258s50.766328-14.812893,72.832995-.117043s33.105994,41.238756,27.969078,67.248713-25.438136,46.363166-51.43487,51.566588c-35.467034,7.054063-69.956321-15.914944-77.12-51.36Zm124.61-25c-6.695595-33.325865-39.138545-54.914662-72.464772-48.220869s-54.916778,39.135577-48.224786,72.462166s39.132607,54.918893,72.459558,48.228703c33.321521-6.720646,54.903888-39.159083,48.23-72.49Z" transform="translate(-68-24.46)" fill="#010101"/><circle id="techsupo-circle2" r="46.8" transform="matrix(.553973-.832535 0.832535 0.553973 372.117675 129.441195)" fill="#e73534"/><path id="techsupo-path5" d="M486,144.71c-5.08975-25.340527-29.758164-41.757189-55.098775-36.667861s-41.757684,29.757468-36.668779,55.098165s29.756773,41.75818,55.097554,36.669696c12.169613-2.443685,22.869975-9.621792,29.746987-19.955126s9.367306-22.975383,6.923013-35.144874Zm-84.43,18.47c-4.15-20.65,10.79-41.07,33.37-45.61s44.25,8.54,48.39,29.19-10.79,41.07-33.37,45.6-44.23-8.53-48.37-29.18Z" transform="translate(-68-24.46)" fill="#c32328"/><circle id="techsupo-circle3" r="63.55" transform="matrix(.707107-.707107 0.707107 0.707107 65.537793 212.043714)" fill="#1e1e1e"/><path id="techsupo-path6" d="M143.88,301.22c-26.177322,4.18255-52.296464-7.816131-66.177412-30.400754s-12.789891-51.307219,2.764381-72.773717s42.508396-31.449138,68.292985-25.292765s45.321446,27.239283,49.500046,53.417236c5.658591,35.729328-18.665432,69.298985-54.38,75.05Zm-20-125.5c-33.566287,5.36196-56.43106,36.918678-51.070875,70.485248s36.915695,56.433012,70.482549,51.074601s56.434963-36.912712,51.078326-70.479849c-5.392437-33.568469-36.954177-56.426454-70.53-51.08Z" transform="translate(-68-24.46)" fill="#010101"/><circle id="techsupo-circle4" r="46.8" transform="matrix(.707107-.707107 0.707107 0.707107 65.537793 212.043714)" fill="#e73534"/><path id="techsupo-path7" d="M126.16,190.29c-25.522657,4.079177-42.906208,28.075971-38.827514,53.598705s28.075158,42.90674,53.59797,38.828529s42.907271-28.074345,38.829544-53.597234c-1.955801-12.258364-8.702593-23.237147-18.755289-30.519725s-22.587295-10.272013-34.844711-8.310275Zm15.09,85.1C120.45,278.71,100.64,263,97,240.23s10.3-43.87,31.1-47.23s40.61,12.42,44.24,35.16-10.29,43.91-31.09,47.23Z" transform="translate(-68-24.46)" fill="#c32328"/><path id="techsupo-path8" d="M319.67,157.48h10.42c120.493581.005523,218.17,97.686418,218.17,218.18v0c0,67.14678-54.43322,121.58-121.58,121.58h-203.6c-32.246753.002652-63.173671-12.805461-85.976507-35.606422s-35.613493-53.726824-35.613493-85.973578v0c0-57.864934,22.986755-113.35987,63.903442-154.276558s96.411624-63.903442,154.276558-63.903442Z" transform="matrix(.99-.17 0.17 0.99-118.28 34.63)" fill="#c32328"/><path id="techsupo-path9" d="M550.73,323c-16.9-99.36-102.55-169-201.92-152.08l-79.12,13.46c-99.36,16.89-166.83,112-149.94,211.38l9,52.75c9.5,55.84,72,75.4,111.52,65.55L472,474.65c0,0,80.19-8.94,85.73-101.89Z" transform="translate(-68-24.46)" fill="#e73534"/><path id="techsupo-path10" d="M274.89,193.62c7.24,4.53,11.88,16,8.18,23.12-3.46,6.68-13.14,7.41-23.11,8.17s-33.8.75-35.57-6.78c-2.33-9.94,33.43-35.19,50.5-24.51Z" transform="translate(-68-24.46)" fill="#fff"/><path id="techsupo-path11" d="M208.18,223.66c2.143811,1.423636,3.218418,3.998896,2.722378,6.524091s-2.464953,4.502598-4.987991,5.009497-5.102897-.556619-6.535743-2.694286-1.436258-4.928137-.008644-7.069302c.932842-1.403875,2.385564-2.37927,4.038087-2.711275s3.369243.006624,4.771913.941275Z" transform="translate(-68-24.46)" fill="#fff"/><path id="techsupo-path12" d="M515.92,352.82v0c-5.345633,3.854654-11.503021,6.433916-18,7.54L233.55,405.31c-6.518637,1.120803-13.207723.727327-19.55-1.15v0c-15.35-4.59-25.74-17.36-26.21-32.2v-1.08c-1.58-50.25,36.47-95.56,90.5-107.66c22.86-5.12,47-9.86,72.24-14q29.7-4.86,57.58-8.1c55.2-6.48,106.39,23.5,121.57,71.62l.33,1c4.46,14.19-1.13,29.68-14.09,39.08Z" transform="translate(-68-24.46)" fill="#fff"/><path id="techsupo-path13" d="M211.73,583.36c.07.61.14,1.2.24,1.75.619394,3.953867,1.808413,7.797127,3.53,11.41c24.94,53.75,39.4,81.94,57.61,104c3.15,3.8,6.41,7.43,9.87,11c4.55,4.71,9.45,9.25,14.85,13.89c12,10.29,28.69,13.62,34.08,14.81c19.74,4.45,36.33,1.25,47.47,0l1.94-.23c11.15-1.43,28-2.19,46.15-11.13c5-2.42,20.45-9.56,29.68-22.37c25.45-35.27,33.55-63,49.92-144.5.789094-3.677588,1.068381-7.446269.83-11.2-.1-1.52-.26-3-.51-4.54-1.67-9.32-6.56-18.06-14.31-25.65-13.26-13-32.05-18.8-50.52-16.7l-89,10.18-87.39,10c-18.87,2.16-36.21,12.24-46.46,28.25-5,7.75-7.74,15.81-8.17,23.84-.05,1.14-.07,2.3-.05,3.43s.09,2.49.24,3.76Z" transform="translate(-68-24.46)" fill="#e73534"/><path id="techsupo-path14" d="M234,653.09c37.52-58.51,52.73-65.29,49.58-86.64-.37-2.45-2.22-15-12.32-24.09-6.491155-5.710787-14.700207-9.095745-23.33-9.62-31.93-1.14-60.69,61.36-67.68,107.68-1.52,10.1-5.6,37.2,5.84,43.53c4.68,2.59,10.4.83,14.46-.48c17.94-5.81,27.79-21.56,33.45-30.38Z" transform="translate(-68-24.46)" fill="#f8b119"/><path id="techsupo-path15" d="M231.48,564.89c-4.45,6-6.87,11.14-11.7,21.39-6.31,13.42-7.23,21.75-11.29,22-2.65.16-4.83-3.22-5.32-4-7.47-11.59,5.08-33.19,15.33-44.73c6.27-7.07,14.77-13.75,17.74-11.9.863052.577493,1.463221,1.472356,1.67,2.49.8,5.09-3.05,10.18-6.43,14.75Z" transform="translate(-68-24.46)" fill="#fff"/><path id="techsupo-path16" d="M241.29,538.82c.957495-1.154857,2.669231-1.316455,3.825934-.361191s1.321606,2.666684.368577,3.82523-2.664128,1.326752-3.824511.375961c-1.161434-.958812-1.326995-2.677068-.37-3.84Z" transform="translate(-68-24.46)" fill="#fff"/><path id="techsupo-path17" d="M372.78,446.89c-2.858132.620003-5.766836.978152-8.69,1.07-20.83.6-35.1-12.82-35.69-13.4-1.002687-.895188-1.437535-2.265845-1.134297-3.575345s1.296316-2.349495,2.590434-2.712817s2.683375.007837,3.623863.968162c.2.18,12.82,11.9,30.48,11.35c12.72-.4,25.09-7,36.76-19.51c1.402562-1.377342,3.639985-1.409167,5.081155-.072275s1.577166,3.570405.308845,5.072275c-10.5,11.31-21.68,18.28-33.33,20.81Z" transform="translate(-68-24.46)" fill="#fed20d"/><path id="techsupo-path18" d="M343.65,671.52l13.58-38.72-13,1.51-7.88,26.1h-.12l-13.56-23.59L310,638.31l24.65,39c2.804657-2.217967,5.818922-4.157144,9-5.79Zm29.44-9.6c9.89-.81,22.53,1.67,31.66,2.35c1.991647.231945,4.001189.268787,6,.11c3.71-.33,19.15-3,17.59-16.44-1.26-10.77-19.52-7.13-26.54-8.85-1.58-.41-2.6-1.09-2.74-2.24-.192374-1.552717.634564-3.053307,2.05-3.72c1.400025-.646158,2.896559-1.058296,4.43-1.22c4.53-.53,7.17.92,7.93,4.42l12.06-1.41C424,627,414.87,625,406.16,626.05c-1.936992.203515-3.85803.537608-5.75,1-7.33,1.67-11,4.65-12.52,7.61l-.63-5.38-12.06,1.42l2.37,20.3c.72,6.17-1,8.47-7.17,9.19s-8.35-1.12-9.07-7.3L359.59,638l-8.51,23.74c.27,2.28,1.62,3.86,4.67,4.79c5.454748-2.569647,11.329313-4.131455,17.34-4.61ZM389,644.07c2.89,3.48,8.48,4.1,13.9,4.16c6.72.27,13.24-.26,13.67,3.4.3,2.52-1.85,4.28-7.3,4.92-1.79595.263703-3.622633.236691-5.41-.08-2.238679-.356278-3.913637-2.244794-4-4.51L390,653.1Z" transform="translate(-68-24.46)" fill="#fff"/><path id="techsupo-path19" d="M419.16,665.83C403,674.67,363,647.67,329,692l14.38-1.67c21.16-31.12,50.09-17,69.26-20c5.367144-.874656,10.019135-4.202789,12.58-9-1.720756,1.865834-3.776317,3.392241-6.06,4.5Zm-66.63,23.43l13-1.52c1.17-3.15,6.63-12.72,33-14.52c7.58-.53,8.35-1,8.35-1s-3.74.09-6.94-.12c-33.19-2.01-44.83,13.03-47.41,17.16Zm21.1-2.47l12.18-1.42c.93-7.17,17.18-10.93,17.18-10.93s-21.81,1.56-29.36,12.35Z" transform="translate(-68-24.46)" fill="#fff" fill-rule="evenodd"/><polygon id="techsupo-polygon1" points="102.83,221.32 92.13,238.59 49.16,221.29 68.18,190.56 102.83,221.32" fill="#e73534"/><path id="techsupo-path20" d="M114.8,246.52c-.228178-.695053-.140471-1.455175.24-2.08l19-30.72c.382865-.62355,1.022491-1.045255,1.746456-1.151436s1.457748.11409,2.003544.601436l34.65,30.76c.901296.801362,1.095424,2.134938.46,3.16l-10.69,17.27c-.630235,1.010343-1.889606,1.430133-3,1l-43-17.3c-.132376-.051206-.25961-.114823-.38-.19-.492684-.313484-.857782-.792012-1.03-1.35Zm52.82-.27l-30.89-27.41-15.92,25.71L159.12,260Z" transform="translate(-68-24.46)" fill="#c32328"/><circle id="techsupo-circle5" r="18.07" transform="matrix(.526362-.85026 0.85026 0.526362 58.670541 205.904616)" fill="#1e1e1e"/><path id="techsupo-path21" d="M115.85,247.86c-7.066461-4.376257-10.800857-12.578383-9.461799-20.781639s7.487857-14.7921,15.579146-16.694082s16.531576,1.257473,21.385063,8.005076s5.164335,15.754487.78759,22.820645c-5.986407,9.633548-18.638642,12.60765-28.29,6.65Zm19-30.73c-5.353609-3.334639-12.189029-3.114991-17.317505.556477s-7.539492,10.071328-6.108297,16.214017s6.422597,10.817849,12.645695,11.844495s12.451688-1.79751,15.780107-7.154989c4.531872-7.304344,2.30557-16.898007-4.98-21.46Z" transform="translate(-68-24.46)" fill="#010101"/><path id="techsupo-path22" d="M133.86,218.77c-6.413606-3.97104-14.831981-1.991598-18.803945,4.421436s-1.993735,14.831694,4.418727,18.804581s14.831407,1.995873,18.805218-4.416017c3.969534-6.415465,1.99137-14.833854-4.42-18.81Z" transform="translate(-68-24.46)" fill="#fff"/><path id="techsupo-path23" d="M133.86,218.77c-6.413606-3.97104-14.831981-1.991598-18.803945,4.421436s-1.993735,14.831694,4.418727,18.804581s14.831407,1.995873,18.805218-4.416017c3.969534-6.415465,1.99137-14.833854-4.42-18.81Zm-2.25,3.63c4.481481,3.111961,5.641368,9.241737,2.606704,13.775917s-9.143651,5.798998-13.729196,2.842524-5.954924-9.042878-3.077508-13.678441c1.492484-2.273732,3.827456-3.861065,6.490781-4.412486s5.436614-.021713,7.709219,1.472486Z" transform="translate(-68-24.46)" fill="#3a3b3a"/><polygon id="techsupo-polygon2" points="369.37,167.9 350.38,160.69 359.2,115.2 392.98,128.04 369.37,167.9" fill="#e73534"/><path id="techsupo-path24" d="M426,137.5c.63989-.357665,1.405592-.41262,2.09-.15l33.78,12.84c.682949.260651,1.216118.809327,1.457089,1.499466s.165193,1.451436-.207089,2.080534L439.5,193.63c-.617088,1.026209-1.87519,1.470739-3,1.06l-19-7.22c-1.129929-.426145-1.78864-1.604225-1.56-2.79l8.82-45.48c.029386-.139552.069505-.276626.12-.41.210274-.548175.606772-1.004855,1.12-1.29Zm10.3,51.81l21-35.53L429.07,143l-7.86,40.55Z" transform="translate(-68-24.46)" fill="#c32328"/><circle id="techsupo-circle6" r="18.07" transform="matrix(.35527-.934764 0.934764 0.35527 376.11145 121.64214)" fill="#1e1e1e"/><path id="techsupo-path25" d="M424.88,138.79c4.031743-10.60912,15.900466-15.941185,26.509624-11.909539s15.94133,15.90032,11.909782,26.509514-15.900175,15.941476-26.509406,11.910025c-10.601317-4.040239-15.929917-15.90096-11.91-26.51Zm33.78,12.83c2.253229-5.891376.734469-12.559995-3.847705-16.894627s-11.324783-5.481078-17.082076-2.904468-9.39472,8.368523-9.215244,14.673532s4.140484,11.880628,10.035025,14.125563c8.038149,3.055439,17.032972-.970091,20.11-9Z" transform="translate(-68-24.46)" fill="#010101"/><path id="techsupo-path26" d="M456.86,150.94c2.676156-7.051807-.869597-14.938054-7.920562-17.616428s-14.938327.8649-17.618918,7.915022.860201,14.938598,7.90948,17.621406c7.055375,2.679218,14.947111-.86602,17.63-7.92Z" transform="translate(-68-24.46)" fill="#fff"/><path id="techsupo-path27" d="M456.86,150.94c2.676156-7.051807-.869597-14.938054-7.920562-17.616428s-14.938327.8649-17.618918,7.915022.860201,14.938598,7.90948,17.621406c7.055375,2.679218,14.947111-.86602,17.63-7.92Zm-4-1.52c-2.221534,4.977291-8.019819,7.258776-13.037449,5.129923s-7.406248-7.883833-5.370808-12.940078s7.745136-7.551172,12.838257-5.609845c2.524331,1.03384,4.53244,3.031257,5.57974,5.550034s1.047394,5.35112.00026,7.869966Z" transform="translate(-68-24.46)" fill="#3a3b3a"/><path id="techsupo-path28" d="M337.41,314.81c2.430292,5.034617,3.522068,10.610597,3.17,16.19-.344455,5.870449-2.056693,11.579051-5,16.67-3.067779,5.270444-7.31565,9.757921-12.41,13.11-5.105649,3.343738-10.856292,5.578585-16.88,6.56-5.760651,1.030762-11.650201,1.121942-17.44.27-5.937681-.857457-11.631823-2.941676-16.72-6.12-5.016561-3.185059-9.144876-7.588595-12-12.8-2.690576-4.919724-4.02935-10.464594-3.88-16.07.81,1.11,1.54,2.21,2.27,3.28s1.6,2.05,2.34,3.05s1.68,1.85,2.48,2.76c.402356.447401.833257.868281,1.29,1.26l1.32,1.2c3.387186,2.976249,7.301141,5.292741,11.54,6.83c8.25,2.94,17.29,3.11,26.27,1.56c4.197773-.676008,8.263731-2.005459,12.05-3.94c3.820764-1.980723,7.26863-4.609763,10.19-7.77c3.112476-3.364536,5.631555-7.23276,7.45-11.44c1.983037-4.662126,3.315519-9.574813,3.96-14.6Z" transform="translate(-68-24.46)" fill="#1e1e1e"/><path id="techsupo-path29" d="M466.12,288.54c2.430292,5.034617,3.522068,10.610597,3.17,16.19-.345477,5.873418-2.057594,11.585038-5,16.68-3.070768,5.265495-7.3182,9.749086-12.41,13.1-5.105649,3.343738-10.856292,5.578585-16.88,6.56-5.760651,1.030762-11.650201,1.121942-17.44.27-5.935926-.85837-11.629225-2.938876-16.72-6.11-5.016976-3.188857-9.145175-7.595709-12-12.81-2.69065-4.916078-4.029488-10.457761-3.88-16.06.81,1.11,1.54,2.21,2.27,3.28s1.6,2,2.34,3s1.68,1.86,2.48,2.76c.404825.448166.835563.872227,1.29,1.27l1.32,1.2c3.411766,2.973722,7.349407,5.283398,11.61,6.81c8.25,2.94,17.29,3.11,26.27,1.56c4.182855-.67185,8.232981-2.001642,12-3.94c3.803265-1.981315,7.236803-4.602982,10.15-7.75c3.110341-3.366199,5.629171-7.23404,7.45-11.44c1.984998-4.652406,3.324084-9.554537,3.98-14.57Z" transform="translate(-68-24.46)" fill="#1e1e1e"/><g id="techsupo-path30_to" transform="translate(582.893655,328.425271)"><path id="techsupo-path30" d="M675.12,336.75l.38-40.17c.011913-1.045792-.477129-2.034189-1.315712-2.659171s-1.925522-.811137-2.924288-.500829l-51.17,15.84c-1.359948.424234-2.292363,1.675527-2.31,3.1l-.35,36.73c-4.72-1.76-11.2-1.63-17.65.8C589,354,582.38,362.87,585,369.8s13.47,9.28,24.25,5.22s17.4-13,14.79-19.91l-.1-.24.38-40.05L668.91,301l-.29,29.31c-4.74-1.88-11.34-1.78-17.92.69-10.78,4.06-17.4,13-14.79,19.91s13.47,9.28,24.25,5.22c10.51-3.95,17.06-12.52,14.96-19.38Z" transform="translate(-629.979309,-337.422672)" opacity="0" fill="#f16161"/></g><g id="techsupo-path31_to" transform="translate(492.893658,112.240481)"><path id="techsupo-path31" d="M594.56,47.59C588.63,33.48,576,35.77,568,26.59c-.937226-1.626072-2.878969-2.381854-4.668866-1.817255s-2.946548,2.297726-2.781134,4.167255l6.13,47.2c-6-1.48-13.94-.26-21.44,3.82-12.25,6.67-18.7,18.47-14.4,26.36s17.71,8.87,30,2.19c11.9-6.48,18.32-17.87,14.74-25.74l-3.76-29c7.1,4,10.29,0,20.64,6.17.56.33,1.24-.37,1-.9-4.68-10.7-12.83-6.52-23-15.49L570,40c9.32,5.83,15.69,1.74,23.33,8.59.53.52,1.51-.35,1.23-1Z" transform="translate(-560.893652,-68.718646)" opacity="0" fill="#8cd2d3"/></g><g id="techsupo-path32_to" transform="translate(607.533439,205.242057)"><path id="techsupo-path32" d="M715,105.59c-2.7-19.35-16.1-19.76-22.3-33.18-.273367-2.13343-2.11092-3.717735-4.261349-3.674058s-3.922136,1.701288-4.108651,3.844058l-4.05,50.3c-5.91-2.86-14.4-3.35-23.08-.77-14.18,4.22-23.47,15-20.75,24.17s16.41,13.1,30.59,8.88c13.77-4.1,22.94-14.5,21-23.45l3.33-41.27c5.34,4.65,12.8,5.39,22.13,16.1.56.69,1.66-.06,1.5-.95Z" transform="translate(-675.508874,-123.910429)" opacity="0" fill="#fbbc1d"/></g></svg>