<?xml version="1.0" encoding="UTF-8"?>
<svg id="Layer_1" xmlns="http://www.w3.org/2000/svg" version="1.1" xmlns:xlink="http://www.w3.org/1999/xlink" viewBox="0 0 1440 333">
  <!-- Generator: Adobe Illustrator 29.3.1, SVG Export Plug-In . SVG Version: 2.1.0 Build 151)  -->
  <defs>
    <style>
      .st0 {
        stroke: #5250ff;
        stroke-miterlimit: 10;
        stroke-width: 50px;
      }

      .st0, .st1 {
        fill: none;
      }

      .st2 {
        fill: #ffdb00;
      }

      .st3 {
        clip-path: url(#clippath-1);
      }

      .st4 {
        clip-path: url(#clippath);
      }
    </style>
    <clipPath id="clippath">
      <rect class="st1" width="1440" height="333"/>
    </clipPath>
    <clipPath id="clippath-1">
      <rect class="st1" y="-70.2" width="1440" height="500"/>
    </clipPath>
  </defs>
  <g class="st4">
    <g>
      <g class="st3">
        <path class="st0" d="M-69.7,91.5S92.4,34.6,329.5,35.2c213.5.5,369.5,59.5,455.5,112.5,110.3,68,519,308,717-1"/>
      </g>
      <rect class="st1" width="1440" height="333"/>
    </g>
  </g>
  <g id="Layer_1-2">
    <path class="st2" d="M112.6,43.3c.3,1.2.3,2.4.4,3.6.1,1.3.2,2.7.2,4.1,0,1.2-.7,2-1.9,2.3-.4.1-.8.3-1.2.3-.2,0-.4,0-.6,0-1.2.4-2-.2-2.7-1-.5-.6-.8-1.3-.9-2.1-.2-1.2-.3-2.4-.4-3.6,0-.7-.2-1.4-.4-2,0-.5-.2-.9-.1-1.5.1-1,.8-1.7,1.8-1.9,1-.1,2-.2,3-.3,1.2,0,2.3.9,2.6,2h0ZM123.1,41.4c.1,1.3.4,2.7.4,4.1,0,.5,0,1,.2,1.4.1.8.2,1.5,0,2.3-.2,1.7-1.2,2.2-2.3,2.3-.4,0-.8,0-1.1.2-.7.3-1.5.3-2.3.2-.7-.1-1.2-.5-1.4-1.1-.3-.7-.5-1.4-.5-2.1,0-1-.2-2-.2-3,0-1.4,0-2.9,0-4.4,0-.7.3-1.1.9-1.4.4-.2.7-.3,1.1-.6.4-.3.9-.4,1.3-.5,1-.2,1.9,0,2.9.5.5.2.8.6.9,1.1,0,.3.1.6.1.8h0Z"/>
    <path class="st2" d="M128,44.5c.5-1.6,1.4-3.1,3-3.9,1.3-.7,2.7-1.3,4.2-1.6.5,0,1.1-.1,1.7,0,.2,0,.4,0,.6,0,2.1-.3,3.8.4,5.5,1.6.6.6.9,1.2.5,2.1-.4.8-.8,1.6-1.2,2.3-.2.4-.5.6-.9.7-.2,0-.4,0-.7,0-.6,0-1.2-.3-1.8-.4-.6-.1-1.2-.2-1.9-.1-2,.3-3.3,3.1-3.4,4.9-.1,1.6-.1,3.2,1,4.5.2.2.4.5.6.8.4.7,1,1,1.8.9.8,0,1.7-.1,2.5-.2,1,0,1.6-.7,2.1-1.3.2-.2.3-.5.4-.8.2-.6.8-1.1,1.3-1.5.3-.3.6-.3,1,0,.8.4,1.6.8,2.2,1.5.2.2.3.4.5.5.8.5.8,1.2.6,2-.4,1.1-.9,2.2-1.7,3.1-.8,1-1.5,2.1-2.6,2.8-1,.6-2,1-3.1,1.2-2.7.4-5.5-.7-7.8-2-2.1-1.2-3.4-4-4.2-6.2-.3-.8-.6-1.7-.7-2.7-.6-2.6-.1-5.2.7-7.8h0,0Z"/>
    <path class="st2" d="M147.6,41.4c0-.9-.1-1.8-.2-2.7-.1-1.7,1.8-2.3,3.2-2.6,3.1-.4,3.8,1.8,4.4,4.2.4,1.5.6,3.1,1,4.6.2.7.2.6.9.4.6-.2,1.3-.3,2-.4.5,0,1.1,0,1.5,0,.1,0,.3,0,.4,0,1.1-.2,1.2-.4,1.1-1.5-.1-1.7-.3-3.5-.4-5.2,0-.6.1-1.2.2-1.9.1-.5.5-.9,1.1-1,1.1-.2,2.4-.4,3.5-.2.6.1,1.1.5,1.4,1,.4.8.5,1.7.7,2.5.3,1.4.5,2.8.6,4.2,0,1.2.2,2.5.4,3.8.3,2.2.9,4.4,1.1,6.6.1,1.2.3,2.4.4,3.5,0,.2,0,.4,0,.6-.1,1.3-.8,1.9-2.1,2-.8,0-1.6,0-2.3.2-.8.1-1.2.1-1.9-.6-1.2-1.2-1.9-6.2-2.2-7.8,0-.2-.1-.3-.3-.3-.3,0-.6.2-.9.2-1,.1-1.9,0-2.9.2h-.2c-1.3.2-1.1.4-.9,1.2.3,1.9.5,3.8.7,5.7.2,1.3-.7,3-2.1,3.2-.7.1-1.5.2-2.2,0-.5-.1-1-.2-1.4-.2-.7,0-1.2-.5-1.4-1.1,0-.1,0-.3-.1-.4-.4-1.9-.7-3.8-1.1-5.6-.3-1.7-.7-3.6-.9-5-.3-2.6-.9-5.2-1.2-7.7h0Z"/>
    <path class="st2" d="M180,57.8c-.6.2-1.2.3-1.8.4-2,.2-3.5-.4-3.9-2.6-.1-.7-.2-1.3-.3-2-.4-2.5-.9-4.9-1.2-7.4-.3-2.4-.6-4.9-.6-7.3,0-.8-.2-1.7-.2-2.5,0-.4,0-.8,0-1.2.2-.9.4-1.2,1.3-1.4.3,0,.6-.1.8-.1.5,0,1-.1,1.5-.3.9-.4,1.9-.5,2.8-.6.8,0,1.5-.2,2.2-.4.5-.2,1-.3,1.5-.3.6,0,1.4,0,2.1,0,.1,0,.3,0,.5,0,.7-.1,1.4,0,2,.2.4.2,1,0,1.2.3.3.5.5,1.2.4,1.8,0,.7,0,1.3.1,2,0,.5.1,1,.2,1.4,0,.6-.1.7-.7.8-2.6.3-5.1.7-7.7.9-.2,0-.5,0-.7.1-.8.1-1.1.5-1,1.3,0,.7.2,1.4.3,2.1,0,.3.2.5.5.4.6,0,1.2,0,1.8-.1.6-.2,1.1-.3,1.7-.3.8,0,1.7-.2,2.5-.2s.5,0,.5.3c.2.5.6.9.6,1.4.1.8.2,1.6.3,2.4,0,.7-.2,1.1-1,1.2-.4,0-.8.2-1.1.1-.4,0-.9,0-1.3,0-.5,0-.9.2-1.4.3-.3.1-.6.2-.9.2s-.6,0-.8,0c-.5.1-.6.3-.6.8s0,.4,0,.6c.1,1.1.1,1.1,1.2,1,1.7-.1,3.3-.6,4.9-.9.8-.2,1.7-.3,2.5-.4.9,0,1.4.2,1.7,1.1.5,1.3.6,2.7.5,4.1,0,.8-.6,1.2-1.4,1.3-1.3.3-2.7.4-3.9.5-1.7.1-3.5.5-5.1,1h0,0ZM184.5,28.6c.5.4.5.8.6,1.3,0,.3-.2.6-.5.6-.8,0-1.6.4-2.4.6-.2,0-.5,0-.7,0-.2,0-.5-.2-.5-.3-.2-.4-.7-.7-1.1-.9-.2-.1-.2-.2-.4-.3-.2-.1-.3,0-.4,0-.3.6-.9,1-1.2,1.5,0,.2-.4.3-.6.4-.5,0-.7,0-1.2.1-.4,0-.7,0-1.1,0-.5,0-.9-.1-.9-.6,0-.4.1-.8.3-1.2.7-1.3,1.6-2.5,2.6-3.7.2-.3.6-.7.8-1.1.1-.3.4-.4.6-.6.6-.2,1.1-.1,1.6.1.4.3.9.6,1.2.9.7.6,1.5,1.1,2.3,1.6.4.2.7.5.8.8,0,.2.3.4.5.4h0,0ZM190.4,21.3c0,.2,0,.3-.1.4-.3.8-.5,1.5-.8,2.1-.3.6-.5,1.2-.8,1.7-.3.7-.8,1-1.6,1.1-.7.2-1.9.3-2.5.3-.4,0-.7,0-.8-.3,0-.3,0-.7,0-1,.2-.8.4-1.6.6-2.4,0-.3.1-.7.2-1.1.1-.4.4-.8.6-1.1.3-.4.5-.5,1-.6.1,0,.2,0,.4,0,.8-.2,2-.3,2.7-.4.6,0,1.1.1.9.8,0,.2,0,.3,0,.5h0c0,0,0,0,0,0h0Z"/>
    <path class="st2" d="M198.4,31.2c.2,1.2.1,2.4.2,3.6,0,1.3,0,2.7-.1,4.1-.1,1.2-.9,2-2.1,2.2-.4,0-.8.2-1.2.2-.2,0-.4,0-.6,0-1.2.3-2-.4-2.6-1.2-.4-.6-.7-1.3-.8-2.1,0-1.2,0-2.4,0-3.6s-.1-1.4-.2-2.1c0-.5-.1-.9,0-1.5.2-1,.9-1.7,2-1.7,1,0,2,0,3,0,1.2,0,2.3,1.1,2.5,2.2h0ZM209.1,30.1c0,1.3.2,2.8.1,4.1,0,.5,0,1,0,1.5,0,.8,0,1.5-.1,2.3-.3,1.6-1.4,2.1-2.5,2.1-.4,0-.8,0-1.1.2-.7.2-1.5.2-2.3,0-.7-.2-1.1-.6-1.3-1.2-.2-.7-.4-1.4-.4-2.1,0-1,0-2,0-3,.1-1.4.2-2.9.4-4.4,0-.7.4-1.1,1-1.3.4-.1.8-.3,1.1-.5.5-.2.9-.3,1.3-.4,1,0,1.9.2,2.9.7.5.3.7.7.8,1.2,0,.3,0,.6,0,.8h0Z"/>
    <path class="st2" d="M230.5,39.9c-.1-.9,0-1.9-.2-2.8-.2-1-.6-1.4-1.7-1.3-.8,0-1.6.1-2.4.3-.4,0-.8,0-1.1-.1-.9-.2-1.4-.7-1.5-1.6-.3-1.3-.4-2.6-.4-3.8,0-.3,0-.7.2-1,.2-.3.4-.4.8-.4.2,0,.4,0,.5,0,1.5,0,3.1-.3,4.6-.6.8-.2,1.7-.2,2.5-.3,1.4-.1,2.9-.1,4.3-.2,1.6-.1,3.2-.2,4.7,0,1.1,0,1.7.5,2,1.5.1.6.2,1.2.2,1.8s0,1.3,0,1.9c0,.8-.4,1.3-1.2,1.5-1.2.2-2.4.5-3.5.7-.9.2-1,.3-1,1.2.1,1.6.2,3.2.3,4.8,0,.8.2,1.6.4,2.4.2,1.6.5,3.2.7,4.7.1.9.1,1.9-.1,2.8-.3,1-1.2,1.7-2.2,1.7-.2,0-.4,0-.6,0-.2,0-.4.1-.6.2-.7,0-1.4-.3-2-.6-.7-.4-1-1.1-1.1-1.9-.1-1.9-.5-3.9-.6-5.4-.1-1.7-.5-3.3-.6-4.8h0Z"/>
    <path class="st2" d="M244,51.9c-1.2,0-1.7-.4-1.7-1.6,0-1.1.1-2.2.4-3.2.7-2.2,1.2-4.5,1.9-6.7.2-.8.4-1.6.7-2.3.5-1.3.6-2.8,1-4.2.4-1.4.8-2.9,1.2-4.3.1-.4.2-.7.4-1.1.6-1.2.9-1.4,2.4-1.7.3,0,.5,0,.7-.2,1.2-.2,2.4,0,3.5.4.4.1.6.4.7.7.5,1,1.2,2,1.8,3,.3.4.5.9.7,1.4.9,2.2,1.9,4.3,3,6.5.5.9.8,1.8,1.2,2.8.2.4.4.7.6,1.1.3.4.5.8.7,1.3.4,1.1.9,2.1,1.2,3.1.3.8.3,1.7.2,2.5,0,.6-.4,1-1.1,1.1-.8.1-1.5.3-2.2.5-.3,0-.7,0-1,.1-.6,0-1.2-.2-1.4-.8-.3-.6-.8-1-1.1-1.6s-.7-.9-1.5-.7c-.3,0-.7,0-1,0-.3,0-.6,0-.9,0-.3,0-.6.1-.9,0-1,0-2,.2-3,0-.4,0-.5.2-.6.5-.1.4-.3.9-.5,1.3,0,.2,0,.3-.2.4-.5.9-1.1,1.6-2.3,1.5-.2,0-.5,0-.7,0-.8,0-1.6,0-2.4,0h0ZM256,20.1c0,.1,0,.3-.1.4-.4.7-.6,1.4-1,2-.3.5-.6,1.1-.9,1.7-.3.7-.9.9-1.6,1.1-.7.1-1.9.2-2.5.1-.4,0-.7,0-.8-.3,0-.3,0-.7.1-1,.2-.8.5-1.6.8-2.4,0-.3.2-.7.3-1.1.1-.3.4-.7.7-1.1.3-.4.5-.5,1.1-.5.1,0,.2,0,.4,0,.8-.2,2-.2,2.7-.2.6,0,1.1.2.9.8,0,.2,0,.3,0,.5h0c0,0,0,0,0,0h0ZM253.1,42c.2,0,.2,0,.4,0,.9,0,1.3-.6,1-1.5,0,0,0-.2,0-.3-.3-1.5-1.1-2.8-1.7-4.2,0-.2-.2-.3-.4-.3-.2,0-.4.2-.4.4-.4,1.4-1,4-.9,5.4,0,.4.4.7.8.7.4,0,1.1-.1,1.3-.1h0s0,0,0,0Z"/>
    <path class="st2" d="M266.7,30c.7-1.5,1.8-2.9,3.5-3.6,1.4-.5,2.9-1,4.4-1.1.5,0,1.1,0,1.7.1.2,0,.4,0,.5,0,2.1,0,3.8.9,5.3,2.2.6.7.8,1.3.2,2.1-.5.7-1,1.4-1.5,2.2-.3.4-.6.6-1,.6-.2,0-.4,0-.7-.1-.6-.2-1.2-.4-1.7-.6-.6-.2-1.2-.4-1.9-.4-2,0-3.6,2.7-4,4.4-.3,1.5-.5,3.1.4,4.6.2.3.4.6.5.9.4.7.9,1.1,1.6,1.2.9,0,1.7,0,2.5.1,1,0,1.7-.4,2.3-1.1.2-.2.4-.5.5-.8.3-.6.9-.9,1.4-1.3.4-.2.7-.2,1,0,.7.5,1.5,1,2,1.7.1.2.3.4.5.6.8.6.7,1.3.3,2.1-.5,1-1.2,2.1-2,2.9-.9.9-1.7,1.9-3,2.4-1.1.4-2.1.8-3.3.8-2.8,0-5.5-1.3-7.6-2.9-1.9-1.4-3-4.4-3.5-6.7-.2-.9-.5-1.7-.4-2.8-.3-2.7.5-5.2,1.7-7.7h0,0Z"/>
    <path class="st2" d="M300.2,29.1c.8-1.5,1.9-2.9,3.6-3.5,1.4-.5,2.9-.9,4.4-.9.5,0,1.1,0,1.7.2.2,0,.4,0,.5,0,2.1,0,3.8,1,5.2,2.4.6.7.7,1.4.2,2.1-.5.7-1,1.4-1.6,2.1-.3.4-.6.5-1,.5s-.4,0-.7-.1c-.5-.2-1.1-.4-1.7-.6-.6-.2-1.2-.4-1.8-.4-2.1,0-3.7,2.6-4.1,4.3-.4,1.5-.6,3.1.3,4.6.2.3.3.6.5.9.3.7.8,1.1,1.6,1.2.9,0,1.7.1,2.5.2,1,0,1.7-.4,2.4-1,.2-.2.4-.5.6-.8.3-.6.9-.9,1.5-1.3.4-.2.7-.2,1,0,.7.5,1.4,1,1.9,1.8.1.2.3.4.4.6.7.6.7,1.3.3,2.1-.6,1-1.2,2-2.1,2.8-1,.9-1.8,1.9-3,2.4-1.1.4-2.2.7-3.3.7-2.8,0-5.4-1.5-7.5-3.2-1.9-1.5-2.8-4.5-3.3-6.7-.2-.9-.4-1.7-.3-2.8-.2-2.7.6-5.2,1.9-7.6h0,0Z"/>
    <path class="st2" d="M340,36.8c0,1.1-.2,2.2-.4,3.2-.2,1.3-1.1,4.2-2,5.3-1.2,1.9-2.3,3.1-4.5,3.9-1.4.5-2.8.8-4.2.7-.2,0-.6-.1-.9-.2-.7-.2-1.4-.4-2.1-.7-1-.3-1.7-.9-2.4-1.6-.9-1-1.3-2.2-1.9-3.3-.2-.5-.4-1-.7-1.5-.3-.6-.4-1.3-.5-2-.2-1.1-.3-2.2-.3-3.3-.3-1.6-.1-3.1-.2-4.7,0-1.5,0-3.1,0-4.7,0-.8.3-1.7.5-2.5,0-.2.3-.5.4-.6.5-.3,1.1-.7,1.7-.7,1.2,0,2.4,0,3.5,0,.6,0,.8.2.8.8,0,.6.2,1.2.2,1.8s.1,1.3.2,1.8c0,.8.2,1.8,0,2.7,0,.2-.1.5-.1.8,0,1.4,0,2.9,0,4.4,0,1.3.2,2.5.5,3.8.2.9,1,1.5,1.8,1.9.3.2.6.3.9.3s.7,0,1-.3c.7-.5,1.2-1,1.5-1.8.2-.6.4-.8.5-1.3,0-.4.2-1,.2-1.1.3-.7.2-1.2.2-1.9,0-1.5,0-2.9,0-4.3,0-2.4,0-3.8.5-6.1.1-.6.8-1.1,1.5-1.1.9,0,1.8,0,2.7,0,.6,0,1.2.3,1.4.9.2.8.5,1.6.5,2.4,0,1.6,0,3.3,0,4.9,0,1.3,0,2.7,0,4.1h0ZM325.7,18.2c0-.2,0-.3-.1-.5-.3-.6.2-.9.8-.9.7,0,2,0,2.7,0,.1,0,.3,0,.4,0,.6,0,.8,0,1.1.4.3.3.6.7.7,1,.2.4.3.7.4,1,.3.8.6,1.5.9,2.3.1.3.2.8.2,1,0,.2-.3.3-.7.3-.6,0-1.8,0-2.5,0-.8,0-1.3-.3-1.7-1-.3-.5-.6-1.1-1-1.6-.4-.6-.7-1.3-1.1-2,0,0-.1-.2-.1-.4h0c0,0,0,0,0,0h0Z"/>
    <path class="st2" d="M349.6,47c0,.5,0,1-.1,1.5,0,.3-.2.5-.6.4-.9,0-2,0-2.9-.1-.7-.1-1.5-.2-2.3-.3-.6,0-.8-.3-.8-.9,0-1.5,0-3.1,0-4.6,0-1.1,0-2.2,0-3.3,0-2.2,0-4.3.1-6.5.1-1.1,0-2.3,0-3.4s.2-1.8.5-2.8c.1-.3.3-.7.5-1,.5-.6,1.1-.8,1.8-.7,1.2.1,2.5.4,3.7.6.4,0,.8.3,1.1.6,1.1,1.2,2.2,2.4,3.2,3.6,1,1.1,2.2,2.2,3.2,3.3.2.2.4.4.5.7.5.7,1,1.4,1.6,1.9.4.3.6.8,1,1.3,0,0,.2.2.3.1,0,0,0,0,0-.1,0-.9.3-1.7.4-2.6.3-1.8.2-3.8.4-5.6,0-.4.1-.7.2-1.1.4-1.4,1.5-2.1,3-1.8.5.1,1.1.3,1.6.5.5.2.8.6.9,1.1,0,.2,0,.5.1.7,0,1.6.1,3.2.2,4.7,0,1.7,0,3.4,0,5.1,0,.3,0,.6,0,.8-.1.6-.2,1.2-.1,1.8,0,.7,0,1.4,0,2.2,0,.7,0,1.5,0,2.3,0,1.1,0,2.2,0,3.2,0,.6-.2.7-.8.8,0,0-.1,0-.2,0-1.2,0-2.3,0-3.5.2-.4,0-.9,0-1.4-.2-.6-.1-1-.4-1.4-.9-1.3-2-2.7-4-4.2-5.9-.9-1.1-1.9-2.2-2.8-3.3-.4-.4-.9-.8-1.2-1.3-.1-.2-.3-.3-.4-.5-.3-.3-.6-.4-1-.3-.4.2-.3.5-.3.8,0,1.6,0,3.2,0,4.6,0,1.5,0,2.9-.1,4.2h0s0,0,0,0Z"/>
    <path class="st2" d="M371,33.2c.5-1,1-1.9,1.7-2.9,2.1-2.9,7.7-4,11-3.8.4,0,.7,0,1.1.1.6.1,1.2.2,1.8.3,1.1.2,1.9.8,2.2,1.8.5,1.3.5,2.7-.4,3.9-.6.8-1.4,1.1-2.5,1-.8-.1-1.7-.2-2.6-.3-.9,0-1.8,0-2.8.2-.1,0-.3,0-.4,0-2.5-.1-4.1,2.9-4.3,4.9,0,.9-.1,1.8,0,2.7.1.9.6,1.5,1.2,2,.3.2,1.9,1.6,2.2,1.7.6,0,1.1.2,1.7.2.8,0,1.7,0,2.5-.5.8-.4,1.1-1.4.9-2.2,0-.2-.3-.3-.5-.3-1,0-2.1-.2-3.1-.3-1.5-.1-1.5-.2-1.7-1.6-.2-1.1,0-2.3,0-3.4,0-.7.3-1,1-1,.8,0,1.6,0,2.4,0,.6,0,1.3.1,1.9.4.1,0,.2,0,.3,0,1.2,0,2.4.4,3.6.6,1.5.2,1.8.5,2.1,2,.4,2,.4,4-.2,5.9-.2.8-.4,1.5-.8,2.3-.9,1.8-2.2,3.2-4.1,4.2-.9.6-1.9.6-2.9.6-1.3,0-2.7-.3-3.9-.9-.4-.2-.8-.2-1.2-.3-1.9-.1-3.3-1.2-4.5-2.6-.1-.2-.3-.4-.4-.5-.7-.6-1.2-1.5-1.5-2.4-.3-.9-.6-1.8-1-2.7-.3-1-.4-2-.4-3.1,0-2.1.7-4.2,1.6-6.1h0s0,0,0,0Z"/>
    <path class="st2" d="M416.6,52.8c-.8,0-1.9-.3-2.9-.5-.7-.1-1.1-.6-1.4-1.2-.9-2.1-1.9-4.2-2.7-6.3-1-2.4-1.9-5-2.7-7.5-.2-.5-.3-1.1-.6-1.6-.9-1.5-1.1-3.2-1.6-4.9-.1-.6,0-1.1.2-1.6.2-.5.6-.9,1.3-1,1,0,2-.2,3,0,1.3,0,2.9.4,3.2,1.8.2.8.5,1.5.6,2.3,0,.2.2.4.3.6,1,1.8,1.6,3.8,2.1,5.8.3.9.5,1.8.9,2.7.1.3.2.3.4,0,.5-.7.7-1.5.9-2.2.2-.8.5-1.5.9-2.1.5-1,1-2.1,1.3-3.2.2-.9.7-1.7,1-2.5.5-1.3,2.2-1.3,3.5-1.2.7,0,1.5.2,2.3.4.8.1,1.3.9,1,1.8-.2.7-.4,1.4-.7,2.1-.8,1.8-1.4,3.7-2.3,5.5-.3.6-.5,1.1-.8,1.6-1.1,2-1.9,4.2-2.8,6.3-.6,1.4-1,2.9-2,4.1-.5.6-1,.9-1.8.8-.1,0-.3,0-.6,0,0,0,0,0,0,0Z"/>
    <path class="st2" d="M448.6,44.1c0,1.1-.4,2.1-.7,3.2-.3,1.3-1.5,4.1-2.5,5.1-1.4,1.8-2.5,2.8-4.9,3.5-1.4.3-2.9.6-4.3.2-.2,0-.6-.2-.9-.3-.7-.3-1.3-.6-2-.8-1-.4-1.6-1-2.2-1.8-.8-1.1-1.1-2.3-1.5-3.5-.2-.5-.3-1.1-.5-1.6-.3-.7-.3-1.3-.4-2,0-1.2,0-2.3,0-3.3-.1-1.6.2-3.1.3-4.7.1-1.5.2-3.1.4-4.6,0-.8.5-1.7.7-2.5,0-.2.3-.4.5-.6.6-.3,1.1-.6,1.8-.5,1.2,0,2.4.2,3.5.3.6,0,.8.3.7.9,0,.6.1,1.2,0,1.8s0,1.3,0,1.9c0,.8,0,1.8-.3,2.7,0,.2-.2.5-.2.8-.2,1.4-.3,2.9-.5,4.4-.1,1.3,0,2.6.1,3.8.1.9.8,1.6,1.6,2.1.3.2.6.3.9.3.3,0,.7,0,1-.2.7-.4,1.3-.9,1.7-1.7.2-.5.5-.7.6-1.3,0-.4.2-1,.3-1.1.4-.7.3-1.1.4-1.9.2-1.4.3-2.9.4-4.3.2-2.4.4-3.8,1.1-6,.2-.6.9-1,1.6-1,.9,0,1.8.2,2.7.3.7,0,1.2.5,1.3,1.1.2.8.4,1.7.3,2.5-.2,1.6-.3,3.2-.5,4.9-.1,1.3-.3,2.7-.4,4.1h0s0,0,0,0h0Z"/>
    <path class="st2" d="M462.5,33.3c.2,0,.6,0,.8.2,1.6.9,3.2,1.8,4.2,3.5.6,1.1.7,1.8-.2,2.8-.6.6-1.2,1.1-1.8,1.7-.3.3-.8.3-1.2.2-.2,0-.4-.2-.6-.3-.2-.2-2.3-1.4-2.6-1.6-.5-.2-1.3,0-1.6.3-.3.4-.3,1.4,0,1.8.2.2.5.4.8.5.9.5,1.8.9,2.5,1.6.2.2.5.4.8.4.5,0,.9.4,1.2.8,1.2,1.3,2.1,2.8,2.3,4.5.4,2.6-.3,4.9-2.2,6.7-2,1.9-4.2,2-6.8,2.1-.3,0-.6,0-.9,0-1.5-.6-3.1-1-4.4-2.1-1.1-1-2.8-3.2-3-4.7-.1-.6,0-1.1.5-1.5s.9-.9,1.4-1.3c.5-.5,1.3-1,2-.9.9,0,1.5,1,1.8,1.7.6,1.4,2,2,3.3,2.3.5,0,1.3-.5,1.5-1,.2-.5,0-1.2-.3-1.6-.7-.5-1.3-1.1-2.2-1.3-.3,0-.6-.2-.8-.4-1-.8-2.1-1.4-3.1-2.1-1.2-.9-1.5-2.2-1.7-3.5,0-.3,0-.6,0-.9-.3-1.4,0-2.7.5-4,0,0,0-.2.2-.4,1-1.2,2.1-2.3,3.5-3,1.2-.5,2.5-.9,3.9-.6.2,0,.4,0,.6,0,.5,0,.9,0,1.3.2h0,0Z"/>
    <path d="M139.5,100.8c-.3,0-.6.1-.9.1-.5,0-.6-.3-.7-.7-.1-.6-.2-1.3-.2-2,0-.5.5-.7.9-.7h.1c.1,0,.2,0,.3,0,0-.3-.1-.6-.1-.8-.3-1.5-.5-3.1-.6-4.6-.1-.9.1-1.3,1-1.6.5-.2,1.1-.4,1.6-.4.4,0,.7,0,1.1,0,.2,0,.4,0,.6,0,.4,0,.9,0,1.3,0,.6.1,1.3.2,1.9.4,1,.4,2,.8,2.6,1.7.4.6.9,1.1,1.3,1.7,1.2,1.7,1.5,3.6,1.4,5.5,0,1.1-.8,3.3-1.3,4.2-.1.3-.3.5-.4.8-.9,1-1.9,1.9-3.4,2.2,0,0-.1,0-.2,0-.4.4-.9.4-1.4.4-.6,0-1.3.1-2,.2-.9,0-2-.6-2.2-1.7,0-.6-.2-1.2-.4-1.7-.1-.6-.2-1.1-.3-1.7,0-.4-.1-.8-.2-1.2h0ZM142.9,96.4c0,.1,0,.3,0,.3.1,0,.9,0,1.4,0s.6.1.7.6c.1.4.2.8.3,1.1,0,.3,0,.5.1.8,0,.4,0,.5-.4.5-.4,0-.8.2-1.2.3,0,0-.1,0-.2,0,.1.6.2,1.1.3,1.7,0,.2,0,.4.3.4.3,0,.6,0,.8,0,.8-.4,1.4-1,1.6-1.8.3-.9.5-1.9.2-2.9-.3-1.1-.9-1.9-1.7-2.6,0,0-.2-.1-.2-.1-.5-.1-.7-.2-1.2-.4-.3,0-.6,0-.8,0s-.4.1-.4.4c0,.4,0,.9.1,1.2s0,.4.1.7h0s0,0,0,0Z"/>
    <path d="M157.9,105.1c-.4.1-.8.2-1.3.3-1.4.2-2.5-.2-2.8-1.8,0-.5-.1-.9-.2-1.4-.3-1.7-.7-3.4-.9-5.2-.2-1.7-.5-3.4-.5-5.2,0-.6-.2-1.2-.2-1.7,0-.3,0-.6,0-.8.1-.6.3-.8.9-1,.2,0,.4,0,.6-.1.4,0,.7-.1,1-.2.6-.3,1.3-.4,2-.5.5,0,1.1-.1,1.5-.3.3-.1.7-.2,1.1-.2.5,0,.9,0,1.4,0,.1,0,.2,0,.3,0,.5,0,.9,0,1.4.1.3.1.7,0,.9.2.2.4.3.8.3,1.2,0,.5,0,.9.1,1.4,0,.4.1.7.1,1,0,.4,0,.5-.5.6-1.8.2-3.6.6-5.4.8-.1,0-.3,0-.5.1-.5.1-.8.4-.7.9,0,.5.1,1,.2,1.5,0,.2.2.3.4.3.4,0,.8,0,1.2-.1.4-.1.8-.2,1.2-.3.6,0,1.2-.1,1.8-.2.1,0,.3,0,.4.2.1.3.4.6.5,1,0,.6.2,1.1.2,1.7,0,.5-.1.8-.6.9-.3,0-.6.1-.8.1-.3,0-.6,0-.9,0-.3,0-.6.1-1,.2-.2,0-.4.1-.6.1-.2,0-.4,0-.6,0-.3,0-.4.2-.4.5s0,.3,0,.4c.2.7.1.7.9.7,1.2-.1,2.3-.5,3.4-.7.6-.1,1.2-.2,1.8-.3.6,0,1,.1,1.2.8.4.9.5,1.9.4,2.9,0,.5-.4.8-.9,1-.9.2-1.9.3-2.7.4-1.2.1-2.4.4-3.6.8h0s0,0,0,0ZM160.7,84.5c.3.3.4.6.4.9,0,.2-.2.4-.4.5-.6,0-1.1.3-1.7.4-.2,0-.4,0-.5,0-.2,0-.3-.1-.4-.2-.2-.3-.5-.5-.8-.6-.1,0-.2-.1-.3-.2-.1,0-.2,0-.3,0-.2.4-.6.7-.8,1.1,0,.1-.2.2-.5.3-.3,0-.5,0-.8.1-.2,0-.5,0-.8,0-.4,0-.6,0-.6-.4,0-.3,0-.6.2-.8.5-.9,1.1-1.8,1.8-2.6.2-.2.4-.5.5-.8.1-.2.3-.3.4-.4.4-.2.8-.1,1.1,0s.6.4.9.6c.5.4,1.1.7,1.6,1.1.3.2.5.3.6.6,0,.1.2.2.3.3h0,0ZM164.1,80.5c-.2.3-.4.6-.6.9-.2.2-.4.4-.6.5-.3.2-.3.6-.2.7h0c0,.2,0,.2-.1.3-.3.1-.8.1-1.1.2-.3,0-.6.1-.9.1,0,0-.1,0-.1,0-.1-.5,0-.9.1-1.4,0-.1.1-.2.2-.2.3-.2.3-.4.6-.5.3-.1.3-.2.4-.5,0,0,0-.2,0-.3-.1-.2-.2-.3-.3-.4,0,0-.1,0-.2,0-.6,0-.4,0-.9.2-.2.1,0-.2-.1,0-.1.3-.4.5-.8.5-.2,0-.4,0-.5-.2-.1-.1-.3-.2-.4-.3-.2-.2-.3-.5-.2-.8,0-.3.3-.6.5-.8.3-.3,1.2-.9,1.3-.9.2-.1.4-.2.7-.2.3,0,.7,0,1,0,.3,0,.6.1.8.2.1.1.3.2.5.3.5.3.8.6,1,1,0,.2.1.3.1.4.1.4,0,1-.1,1.4h0Z"/>
    <path d="M178.9,85c.2.8.1,1.7.2,2.6,0,.9,0,1.9,0,2.9,0,.8-.6,1.4-1.4,1.6-.3,0-.6.2-.8.1-.1,0-.3,0-.4,0-.9.3-1.4-.2-1.8-.8-.3-.4-.5-.9-.6-1.5,0-.8,0-1.7,0-2.6,0-.5-.1-1-.2-1.4,0-.4,0-.7,0-1,.1-.7.6-1.2,1.4-1.2.7,0,1.4,0,2.1,0,.8,0,1.6.7,1.8,1.5h0ZM186.4,84.1c0,1,.1,1.9.1,2.9,0,.4,0,.7,0,1,0,.6,0,1.1,0,1.6-.2,1.2-.9,1.5-1.7,1.5-.3,0-.5,0-.8.1-.5.2-1.1.1-1.6,0-.5-.1-.8-.4-1-.8-.2-.5-.3-1-.3-1.5,0-.7,0-1.4,0-2.1,0-1,.1-2.1.2-3.1,0-.5.3-.8.7-.9.3-.1.5-.2.8-.3.3-.2.6-.2.9-.3.7,0,1.4.1,2,.5.3.2.5.5.6.8,0,.2,0,.4,0,.6h0s0,0,0,0Z"/>
    <path d="M188.9,84.5c0-.9.3-.9,1.1-1,.7,0,1.3-.3,1.9-.4.3,0,.5-.1.8,0h.3c.3,0,.7-.1,1-.2.8,0,1.6-.1,2.4-.2,1.2,0,2.5.1,2.8,1.5.1.6,0,1.3,0,1.9,0,.9-1.3,1.1-2,1.2-1,.1-2,.4-3,.4h-.5c-.3,0-.2.2-.2.8,0,.3-.1.7,0,1,.1.3.3.4.6.4.5,0,1.1,0,1.6,0,.5,0,1.1,0,1.6,0,.6,0,1.3.2,1.4.9.1.8.1,1.7,0,2.5,0,.4-.3.7-.7.8-.6.2-1.2.2-1.9.3-.6,0-1.1.2-1.7.3-.2,0-.3.2-.3.3,0,.4,0,.8,0,1.1.1,1,.2,1.9.2,2.9,0,.9-.1,1-1,1.3-.3.1-.7.1-1,.2-.1,0-.3,0-.5,0-.2,0-.3,0-.5,0-.5,0-1-.4-1.1-.8-.2-.6-.3-1.3-.4-2-.2-1.6-.4-3.9-.5-4.8s-.4-3.5-.6-5.3c-.1-1.1-.1-2.2,0-3.3h0Z"/>
    <path d="M201.2,89.7c0-1,0-2-.1-3,0-.7-.1-1.4-.2-2.1,0-.2,0-.5,0-.7,0-.9,1.1-1.3,1.9-1.4.3,0,.7,0,1,0s.5,0,.8,0c.4,0,.6.2.8.4,0,.2.2.4.2.6,0,.7.3,1.4.2,2,0,.4,0,.8,0,1.2.2,2,.4,4.1.6,6.1,0,.7.2.8.9.8,1.3,0,2.5,0,3.8-.1,1.1,0,1.3.2,1.5,1.2.1.6.2,1.3.2,1.9,0,.9-.3,1.4-1.2,1.7s-1,.3-1.5.2c-.7,0-1.5.1-2.2.2-1.1.1-2.3.2-3.4.3,0,0-.1,0-.2,0-1.3,0-1.7-.2-2-1.6-.1-.5-.2-.9-.3-1.4,0-.5-.1-1-.2-1.6-.1-1.5-.5-3.1-.6-4.8h0Z"/>
    <path d="M218.2,98.1c-.4.1-.8.2-1.3.2-1.4.1-2.5-.4-2.7-1.9,0-.5,0-.9-.2-1.4-.2-1.7-.5-3.5-.7-5.2-.1-1.7-.3-3.5-.2-5.2,0-.6-.1-1.2-.1-1.8s0-.6,0-.8c.1-.6.4-.8,1-.9.2,0,.4,0,.6,0,.4,0,.7,0,1-.2.6-.3,1.3-.3,2-.4.5,0,1,0,1.5-.2.3-.1.7-.2,1.1-.2.5,0,1,0,1.4,0,.1,0,.2,0,.3,0,.5,0,1,0,1.4.2.3.1.7,0,.8.2.2.4.3.8.3,1.3,0,.5,0,.9,0,1.4,0,.4,0,.7,0,1,0,.4,0,.5-.5.6-1.8.1-3.6.4-5.4.5-.1,0-.3,0-.5,0-.5.1-.8.4-.8.9,0,.5,0,1,.1,1.5,0,.2.1.3.3.3.4,0,.8,0,1.2,0,.4-.1.8-.2,1.2-.2.6,0,1.2,0,1.8,0,.1,0,.3,0,.4.2.1.3.4.6.4,1,0,.6.1,1.2.1,1.7,0,.5-.2.8-.7.8-.3,0-.6.1-.8,0-.3,0-.6,0-.9,0-.3,0-.7,0-1,.2-.2,0-.4,0-.6,0-.2,0-.4,0-.6,0-.3,0-.4.2-.4.5,0,.1,0,.3,0,.4.1.7,0,.7.8.7,1.2,0,2.3-.3,3.4-.6.6-.1,1.2-.2,1.8-.2.6,0,1,.2,1.2.8.3.9.4,1.9.3,2.9,0,.5-.4.8-1,.9-.9.2-1.9.2-2.7.3-1.2,0-2.5.3-3.6.6h0c0,0,0,0,0,0h0Z"/>
    <path d="M231.5,80.6c.5,0,.8.1,1.2.4.9.9,2.1,1.6,3.1,2.5.2.2.3.2.4.2.1,0,.2,0,.3-.3.6-1,1.4-1.8,1.9-2.8.2-.4.5-.5.9-.6.6,0,1.2-.2,1.7-.2.4,0,.7,0,1.1,0,.6,0,1.2,0,1.8-.1,1-.1,1.2.7.9,1.3-.2.4-.5.9-.9,1.3-.6.6-1.1,1.3-1.6,2.1-.5.9-1.1,1.9-2,2.6-.1,0-.2.2-.3.2,0,.1-.1.2,0,.3.8.6,1.4,1.3,2.1,1.9.5.3.9.7,1.4,1.2.9.9,1.9,1.6,2.9,2.3.3.2.6.4.7.8.2.5,0,1-.5,1.3-.4.2-.8.3-1.2.3-.4,0-.7,0-1.1,0-.5,0-1.1.1-1.6.2-.8.1-1.5,0-2-.6-.7-.7-1.6-1.2-2.4-1.9-.3-.3-.6-.6-.9-.8-.2-.2-.4-.2-.5-.2-.2,0-1.5,1.7-1.6,2-.4.6-.9,1.2-1.3,1.8-.2.3-.5.5-.8.5-.9,0-1.9.3-2.8.4-.7,0-1.4,0-2.2.1-.6,0-.9-.4-.8-1,0-.4.4-.8.6-1.2.8-1,1.5-2,2.2-3.1.7-1.1,1.5-2,2.3-2.9,0-.1.2-.2.3-.3.1-.1.1-.3,0-.4-.1,0-.2-.2-.4-.3-.7-.4-1.3-1-2.1-1.4,0,0-.1,0-.2-.1-1-.9-2.2-1.5-3.1-2.4-.1-.1-.3-.2-.4-.3-.6-.3-.8-.9-1.2-1.3-.3-.4,0-.8.4-.9.2,0,.4-.1.6-.1.5,0,1.1-.1,1.7-.1,1,0,2.2-.3,3.3-.2h0s0,0,0,0Z"/>
    <path d="M252.4,78.2c.1.8,0,1.7,0,2.6,0,.9,0,1.9-.2,2.9-.1.8-.7,1.4-1.5,1.5-.3,0-.6.1-.8.1-.1,0-.3,0-.4,0-.9.2-1.4-.3-1.8-.9-.3-.4-.5-.9-.5-1.5,0-.9,0-1.7,0-2.6,0-.5,0-1,0-1.4,0-.4,0-.7,0-1,.2-.7.7-1.1,1.4-1.1s1.4,0,2.1,0c.8,0,1.5.8,1.7,1.6h0,0ZM259.9,77.8c0,1,0,1.9,0,2.9,0,.4,0,.7,0,1,0,.6,0,1.1-.1,1.6-.3,1.1-1,1.4-1.8,1.4-.3,0-.5,0-.8,0-.5.1-1.1,0-1.6,0-.5-.1-.8-.5-.9-.9-.1-.5-.2-1-.2-1.5,0-.7,0-1.4.1-2.1.1-1,.2-2,.4-3.1,0-.5.3-.8.7-.9.3,0,.5-.2.8-.3.3-.1.6-.2.9-.2.7,0,1.4.2,2,.6.3.2.5.5.5.9,0,.2,0,.4,0,.6h0Z"/>
    <path d="M274.9,83.2c0,.1,0,.2,0,.3s.2,0,.2-.1c.4-.5.8-1,1.3-1.4.1-.1.3-.3.4-.4.7-1.3,1.5-2.4,2.1-3.7,0-.1.1-.3.2-.4.2-.6.6-.8,1-.8,1,0,2,0,2.9.3.2,0,.4.2.6.3.3.2.4.5.3.8,0,.2,0,.4-.2.5-.6.9-1,1.8-1.6,2.6-.8,1.1-1.6,2.2-2.4,3.3-.4.5-.4.7,0,1.2,0,0,.1.1.2.2,1,1.2,1.7,2.6,2.6,3.8.9,1.1,1.3,2.5,2.2,3.6.2.3.2.5-.1.7-.1,0-.2.1-.4.1-.8.1-1.6.4-2.4.4-.6,0-1.2,0-1.6-.6-1.3-1.4-2.8-3.7-3.6-5.4-.1-.3-.2-.3-.5-.1-.4.2-.6.6-.6,1.1,0,.9,0,1.9.1,2.9,0,.5,0,1.1,0,1.6,0,.5-.2.7-.8.8-.4,0-.7.1-1.1.1-.2,0-.4,0-.7,0-.3,0-.6,0-.9,0-.6,0-.9-.4-1-.9,0-1,0-2.1-.2-3.1-.2-2.2-.3-4.6-.4-6.8,0-1.4,0-2.8,0-4.2,0-.6,0-1.1,0-1.7,0-.7.4-1,1.1-1.1.4,0,.9,0,1.3,0,.7,0,1.2.3,1.3,1.1,0,.4.1.8.1,1.1,0,.3,0,.7,0,.9,0,.3,0,.6.1.9,0,.8.1,1.5.1,2.3h0Z"/>
    <path d="M285.9,79.3c0-.6,0-1.3,0-1.9,0-1.2,1.5-1.5,2.5-1.5,2.2,0,2.5,1.5,2.7,3.3.1,1.1.2,2.2.3,3.3,0,.5,0,.5.6.4.5,0,1-.1,1.5-.1.4,0,.7,0,1.1,0,0,0,.2,0,.3,0,.8,0,.9-.2.9-.9,0-1.2,0-2.4.2-3.7,0-.4.2-.9.3-1.3.1-.4.4-.6.8-.6.8,0,1.7,0,2.4.1.4.1.7.4.9.8.2.6.2,1.2.3,1.8.1,1,.1,2,0,3,0,.9,0,1.8,0,2.7,0,1.5.3,3.1.3,4.7v2.5c0,.1,0,.3,0,.4-.2.9-.7,1.3-1.6,1.3-.5,0-1.1,0-1.6,0-.6,0-.9,0-1.2-.5-.7-.9-.9-4.5-.9-5.6,0-.1,0-.2-.2-.2-.2,0-.4,0-.6,0-.7,0-1.4-.1-2,0,0,0-.1,0-.1,0-.9,0-.8.2-.8.8,0,1.4,0,2.7,0,4.1,0,.9-.8,2-1.7,2.1-.5,0-1,0-1.5-.1-.3-.1-.7-.2-1-.3-.5-.1-.8-.4-.9-.9,0-.1,0-.2,0-.3-.1-1.4-.2-2.7-.3-4,0-1.2-.2-2.6-.2-3.6,0-1.8-.2-3.7-.2-5.4h0s0,0,0,0Z"/>
    <path d="M303.5,93.4c-.8,0-1.2-.4-1.1-1.2,0-.8.1-1.5.4-2.2.6-1.5,1-3.1,1.6-4.7.2-.5.4-1.1.6-1.6.4-.9.5-2,.8-2.9.4-1,.6-2,1-3,.1-.2.2-.5.4-.8.5-.9.7-1,1.8-1.1.2,0,.4,0,.5,0,.9-.1,1.6,0,2.4.4.3.1.4.3.5.5.3.8.8,1.4,1.2,2.1.2.3.3.6.5,1,.5,1.6,1.2,3.1,1.9,4.6.3.6.5,1.3.8,2,.1.3.3.5.4.8.2.3.3.6.4.9.3.8.5,1.5.8,2.2.2.6.2,1.2,0,1.8,0,.4-.3.7-.8.8-.5,0-1.1.2-1.6.3-.2,0-.5,0-.7,0-.4,0-.8-.2-1-.6-.2-.4-.5-.8-.7-1.2s-.5-.7-1-.6c-.2,0-.5,0-.7,0-.2,0-.4,0-.7,0-.2,0-.4,0-.7,0-.7,0-1.4.1-2.1,0-.2,0-.4.1-.4.3-.1.3-.3.6-.4.9,0,.1,0,.2-.1.3-.3.7-.8,1.1-1.6,1-.1,0-.3,0-.5,0-.5,0-1.1,0-1.7,0h0ZM311.6,71.5c.2-.2.7-.6.8-.6s.5.2.7.5c0,0,0,0,0,0,0,0,0,0,.1,0,0,0,0,0,0,0,.3.3.7.5.6.9-.1.5-.3.7-.6,1.1-.5.6-1.3,1-1.9,1.2-.5.2-1.2.4-1.8.4-.3,0-.7,0-1-.1-.6-.1-1.2-.4-1.6-.7-.3-.3-1.7-1.4-1.5-1.9.1-.3.4-.5.5-.7,0-.1.4-.5.5-.6.3-.2.4-.3.7-.2.3.1.3.3.7.6.2.1.4.3.6.4.4.2.8.3,1.2.3.1,0,.3,0,.5,0,.3,0,1-.4,1.2-.6,0,0,.1,0,.2-.1h0ZM312.9,67.4c0,.1,0,.2-.1.2-.3.5-.5,1-.7,1.4-.2.4-.5.8-.6,1.2-.2.4-.6.6-1.2.7-.5,0-1.3,0-1.7,0-.3,0-.5,0-.5-.2,0-.2,0-.5.1-.7.2-.6.4-1.1.6-1.6,0-.2.1-.5.2-.7.1-.2.3-.5.5-.7.2-.3.4-.3.8-.3,0,0,.1,0,.3,0,.6,0,1.4,0,1.9,0,.4,0,.8.2.6.6,0,.1,0,.2,0,.4h0c0,0,0,0,0,0ZM310.2,86.7h.3c.7,0,.9-.4.8-1,0,0,0-.1,0-.2-.1-1.1-.7-2-1.1-3,0-.1-.1-.2-.3-.2s-.2.1-.3.3c-.3,1-.9,2.8-.8,3.8,0,.3.2.5.5.5.3,0,.8,0,.9,0h0Z"/>
    <path d="M319.6,83.6c0-1.6.1-3.1.1-4.7,0-.5.1-1.1.2-1.6.4-1.3,2.6-1.7,3.8-1.7s2.9.4,3.8.7c1,.4,1.7,1.2,2,2.2.8,1.9.8,3.8,0,5.7-.5,1.4-1.5,2.2-2.7,2.9-.7.3-1.5.4-2.3.3-.3,0-.5,0-.6,0-.3,0-.3.2-.3.9,0,1.1-.2,2.2,0,3.3,0,.3,0,.6,0,.8-.1.6-.3.8-.9.8-.4,0-.9,0-1.3,0-.3,0-.6,0-1-.1-.6-.1-.9-.6-.9-1.2,0-.7,0-1.5,0-2.2,0-2.1.1-4.2.1-6.2h0ZM324,82.6h0c0,.5.2.8.6.8.2,0,.5,0,.7-.2.4-.2.6-.5.9-.8.4-.5.4-1,.1-1.6-.2-.6-.6-1-1.4-1-.6,0-.9.2-.9.8,0,.3,0,.6,0,.9,0,.3,0,.7,0,1h0Z"/>
    <path d="M341.2,78.8c.6-1,1.4-2,2.6-2.4,1-.3,2-.6,3.1-.6.4,0,.8,0,1.2.1.1,0,.3,0,.4,0,1.5,0,2.6.8,3.6,1.8.4.5.5,1,0,1.5-.4.5-.7,1-1.1,1.4-.2.3-.4.4-.7.4-.1,0-.3,0-.5-.1-.4-.1-.8-.3-1.2-.5-.4-.1-.8-.3-1.3-.3-1.4,0-2.6,1.8-3,3-.3,1.1-.5,2.2.1,3.2.1.2.2.4.3.7.2.5.6.8,1.1.9.6,0,1.2.1,1.8.2.7,0,1.2-.2,1.7-.7.1-.1.3-.3.4-.5.2-.4.6-.6,1.1-.9.3-.1.5-.1.7,0,.5.4,1,.8,1.3,1.3.1.1.2.3.3.4.5.4.4.9.1,1.5-.4.7-.9,1.4-1.5,2-.7.6-1.3,1.3-2.1,1.6-.8.3-1.5.4-2.3.4-1.9,0-3.8-1.2-5.2-2.4-1.3-1.1-1.9-3.2-2.1-4.8-.1-.6-.2-1.3-.2-2,0-1.7.6-3.6,1.5-5.3h0Z"/>
    <path d="M368.5,84.9c0,.4,0,.5,0,.9,0,1.3-.6,2.4-1.3,3.5-.7,1.1-1.7,2.1-2.7,2.9-.5.4-1.1.5-1.6.7-.7.3-1.4.3-2,.3-.7,0-1.4-.1-2.1-.3-.6-.1-1.1-.4-1.5-.9-.4-.6-.9-1.1-1.1-1.8,0-.2-.2-.4-.3-.5-.5-.8-.8-1.7-1.2-2.6-.5-1.5-.3-2.9,0-4.4.4-2,1.3-3.7,3-4.8.7-.4,3.1-1.5,3.9-1.4.5,0,1,0,1.4,0,.3,0,.5,0,.8.2.5.2,1,.4,1.4.6,1.6.6,2.6,1.7,3.1,3.2.4,1.1.6,2.3.4,3.5,0,.2,0,.5,0,.7h0,0,0ZM366.5,72.8c-.1.6-.4,1.2-.8,1.7,0,0-.2.2-.3.3-.3.4-1.4.7-1.9.7-1,0-1.5-.5-1.8-.9,0,0-.4-.3-.4-.3-.1,0-.3-.1-.4-.1-.2,0-.3.1-.4.3,0,0-.1.2-.1.2,0,.4-.1.6-.4.6-.1,0-.4,0-.5,0-.2,0-.8,0-1,0h-.1c-.5,0-.7-.4-.6-.8,0-.2,0-.4.1-.6,0-.1,0-.2.1-.3,0-.2.2-.5.4-.8.3-.5.8-1,1.4-1.2.2-.1.4-.2.7-.2h.3c.2,0,.5,0,.8.1.3.1.8.4,1.1.6.5.4.4.3,1,.6,0,0,.2,0,.2,0,.3-.2.3-.2.3-.5,0-.4,0-.6.4-.6.2,0,.9,0,1,0s.6,0,.8,0c.4,0,.4.3.4.8v.4h0,0ZM364.3,84.1c.1-.6-.1-1.1-.4-1.5-.3-.5-1.4-1-2-1-.5,0-1,.2-1.4.4-.9.6-1.5,1.3-1.8,2.4,0,.4-.1.7-.1,1-.1,1.1.4,1.9,1.4,2.3.5.2,1,.3,1.4.3.4,0,.7,0,1-.3,1.1-.9,1.9-1.9,1.9-3.4,0,0,0-.1,0-.2h0Z"/>
    <path d="M375.6,81.5v.4c0,.4,0,.9-.1,1.4,0,.1,0,.3,0,.5.1,1.1-.1,2.1-.2,3.1,0,.5-.1,1.1-.1,1.6-.1,1.5-.2,3-.3,4.4,0,1.1-.8,1.5-1.8,1.4-.3,0-.7-.1-1-.2-.3,0-.5,0-.8-.1-.6,0-1-.5-1-1.1v-.2c0-1.8,0-3.6,0-5.3,0-.7,0-1.5,0-2.3,0-1.1,0-2.1.1-3.1,0-.5.1-1,.1-1.5,0-.4,0-.8.1-1.2,0-.5,0-1,.1-1.4,0-.9.2-1.7,1.3-1.8.4,0,.8,0,1.2,0s.8,0,1.2.1c1.1.2,1.4.8,1.3,1.6,0,.5,0,1.1,0,1.6,0,.7,0,1.4-.2,2.1h0Z"/>
    <path d="M401.7,87.1c0-.2,0-.4,0-.6,0-.1,0-.2-.2-.2,0,0-.2,0-.2.1-.3.4-.5.9-.8,1.3-.1.2-.2.4-.3.6-.8.8-1.4,1.8-2.1,2.7-.4.5-1,.7-1.6.7-.5,0-.9-.1-1.4,0-.2,0-.4-.1-.6-.3-1-1.5-1.9-3-2.9-4.5,0,0-.3-.4-.3-.3,0,0,0,0,0,.1,0,.3,0,.6,0,.9,0,1.3-.1,2.6,0,3.9,0,.7,0,1.4,0,2.1-.2.8-.6,1.1-1.4,1.1s-1.3.1-1.9,0c-.7,0-1.8-.3-1.7-1.1,0-.2,0-.5,0-.8.2-.8.1-1.6.1-2.3,0-.4,0-.9,0-1.3,0-.9,0-1.9-.1-2.8,0-.5,0-1,0-1.4.2-1.7.4-3.5.6-5.2,0-.2,0-.4,0-.5.2-.6.5-.9,1.1-.9.5,0,1.1,0,1.6,0,.3,0,.6,0,.8.2.6.4,1.3.8,1.8,1.3.4.4.7.9,1,1.4.2.4.5.8.8,1.2.1,0,.2.2.2.3.5,1.1,1.4,1.8,2,2.8,0,.2.2.1.3,0,.1-.2.2-.4.4-.7.4-1,.9-2,1.6-2.8.6-.7,1.1-1.6,1.5-2.5.5-1,1.6-1.2,2.6-1.1,1.1,0,2,.2,3,.6.4.2.5.5.5.8,0,.8.2,1.6.1,2.4-.1,1.6,0,3.1,0,4.7,0,1.6.1,3.2,0,4.8,0,.7,0,1.4-.2,2,0,0,0,.1,0,.1-.4,1.1-.3.9-1.3.9-.7,0-1.4,0-2.1,0-.1,0-.3,0-.5,0-.8,0-1.2-.4-1.2-1.2,0-.7,0-1.5.1-1.9.1-1.7.3-3.1.4-4.5h0Z"/>
    <path d="M408.3,95.9c-.8-.1-1.1-.4-1-1.3.1-.8.3-1.5.6-2.2.7-1.5,1.3-3,2-4.5.2-.5.5-1.1.7-1.5.5-.9.7-1.9,1.1-2.8.4-1,.8-1.9,1.2-2.9.1-.2.2-.5.4-.7.6-.8.8-.9,1.8-.9.2,0,.4,0,.5,0,.9,0,1.6.2,2.3.6.2.1.4.3.5.6.3.8.6,1.5,1,2.2.2.3.3.7.4,1,.4,1.6.9,3.2,1.4,4.8.2.7.4,1.4.6,2,.1.3.2.6.3.8.2.3.3.6.4,1,.2.8.4,1.6.6,2.3.1.6,0,1.2,0,1.8-.1.4-.4.7-.8.7-.5,0-1.1,0-1.6.1-.2,0-.5,0-.7,0-.4,0-.8-.3-.9-.6-.1-.4-.5-.8-.6-1.2-.1-.4-.4-.7-1-.6-.2,0-.5,0-.7-.1-.2,0-.4,0-.6,0-.2,0-.4,0-.7,0-.7-.1-1.4,0-2.1-.2-.2,0-.4.1-.5.3-.1.3-.3.6-.5.9,0,.1,0,.2-.1.3-.4.6-.9,1-1.7.8-.1,0-.3,0-.5,0-.5,0-1.1-.2-1.7-.2h0ZM417.4,99.1c0,.5-.1.9-.3,1.2-.5.7-1,1-1.7.9-.8,0-1.5-.4-2.1-1.1-.2-.3-.4-.6-.3-.9.1-1.2.3-1.9,1.5-2.5.2-.1.5-.1.8,0,.9,0,1.9.8,2.1,1.7,0,.3,0,.5,0,.7h0ZM415.6,89.8c.1,0,.2,0,.3,0,.7,0,.9-.3.9-.9,0,0,0-.1,0-.2,0-1.1-.5-2.1-.8-3.1,0-.1,0-.3-.2-.3-.2,0-.3.1-.3.2-.4.9-1.1,2.7-1.1,3.7,0,.3.2.5.5.5h.9Z"/>
    <path d="M429.2,95.4c0,.3,0,.7-.1,1,0,.2-.2.3-.4.3-.6,0-1.4,0-2-.2-.5-.1-1-.2-1.6-.3-.4,0-.6-.2-.5-.6,0-1.1.2-2.1.2-3.2,0-.8,0-1.6.1-2.3.1-1.5.1-3.1.4-4.5.1-.8.1-1.6.2-2.4,0-.7.2-1.3.5-1.9.1-.2.2-.5.4-.7.3-.4.8-.5,1.3-.4.9.1,1.7.3,2.5.6.3,0,.5.2.7.5.7.9,1.4,1.7,2.1,2.6.6.8,1.4,1.6,2.1,2.4.1.1.2.3.3.5.3.5.6,1,1,1.4.3.2.4.6.6.9,0,0,.1.1.2,0,0,0,0,0,0-.1,0-.6.3-1.2.4-1.8.3-1.3.3-2.6.5-3.9,0-.3,0-.5.2-.8.3-.9,1.1-1.4,2.1-1.1.4.1.8.2,1.1.4.3.1.5.5.6.8,0,.2,0,.3,0,.5,0,1,0,2.2,0,3.3,0,1.2-.2,2.4-.3,3.6,0,.2,0,.4,0,.6-.1.4-.2.8-.2,1.2,0,.5,0,1-.1,1.5,0,.5,0,1.1,0,1.6,0,.8,0,1.5-.2,2.3,0,.4-.2.5-.6.6,0,0,0,0-.2,0-.8,0-1.6,0-2.4,0-.3,0-.6,0-1-.2-.4-.1-.7-.3-.9-.7-.8-1.5-1.7-2.9-2.7-4.3-.5-.8-1.2-1.6-1.8-2.4-.2-.3-.6-.6-.8-1,0-.1-.2-.2-.3-.4-.2-.2-.4-.3-.7-.2-.3.1-.2.4-.2.6,0,1.1-.1,2.3-.2,3.2-.1,1.1-.2,2.1-.2,3h0s0,0,0,0Z"/>
    <path d="M444.7,86.5c.3-.7.8-1.3,1.3-2,1.5-1.9,5.5-2.6,7.8-2.3.2,0,.5,0,.8.1.4.1.8.2,1.2.3.8.2,1.3.6,1.5,1.3.3.9.3,1.9-.4,2.7-.4.6-1,.8-1.8.6-.6-.1-1.2-.2-1.8-.3s-1.2,0-1.9,0c0,0-.2,0-.3,0-1.7-.2-3,1.9-3.2,3.3,0,.6-.2,1.3-.1,1.9,0,.6.3,1.1.8,1.5.2.2,1.2,1.2,1.5,1.3.4,0,.8.2,1.2.2.6,0,1.2,0,1.7-.2.5-.3.8-.9.7-1.5,0-.2-.2-.2-.3-.2-.7,0-1.4-.2-2.1-.3-1-.1-1-.2-1.1-1.2,0-.8,0-1.6,0-2.4,0-.5.2-.7.7-.7.5,0,1.1,0,1.6,0,.4,0,.9.1,1.3.3,0,0,.2,0,.2,0,.8,0,1.6.4,2.5.5,1,.2,1.2.4,1.3,1.5.2,1.4.1,2.8-.3,4.1-.2.5-.3,1.1-.6,1.6-.7,1.3-1.7,2.2-3,2.8-.7.4-1.3.4-2,.3-.9-.1-1.8-.3-2.7-.7-.2-.1-.5-.2-.8-.2-1.3-.2-2.3-1-3-2,0-.1-.2-.3-.3-.4-.5-.5-.8-1.1-1-1.7-.2-.6-.4-1.3-.5-1.9-.2-.7-.2-1.4-.1-2.2.1-1.5.7-2.9,1.3-4.2h0,0Z"/>
  </g>
</svg>