<?xml version="1.0" encoding="UTF-8"?><svg id="Layer_2" xmlns="http://www.w3.org/2000/svg" viewBox="0 0 236.62 48.27"><defs><style>.cls-1{fill-rule:evenodd;}.cls-1,.cls-2{fill:#f4052e;}.cls-3{fill:#fff;}.cls-4{fill:#1a31b5;}</style></defs><g id="Layer_1-2"><rect class="cls-2" x="130.19" y="21.33" width="106.43" height="20.44"/><rect class="cls-2" x="109.7" y=".88" width="83.53" height="20.44"/><path class="cls-3" d="M125.91,11.95l-1.21-3.67c-.09-.29-.27-1.12-.38-1.81-.14.7-.31,1.52-.41,1.81l-1.16,3.67h3.16ZM126.57,14.02h-4.48l-.77,2.38h-2.65l4.06-11.59h3.26l4.05,11.59h-2.7l-.79-2.38h.01Z"/><path class="cls-3" d="M136.63,16.38c.03-1.71.03-3.28.03-5.04,0-1.2-.38-1.79-1.39-1.79-1.11,0-1.73.83-1.73,1.96v4.87h-2.4c.01-1.42.03-2.85.03-4.27s-.01-2.83-.03-4.24h2.45l-.05,1.4c.54-1.03,1.54-1.59,2.72-1.59,2.14,0,2.76,1.44,2.76,3.2s-.01,3.64.01,5.5h-2.42.03Z"/><path class="cls-3" d="M146.45,16.38c.01-1.71.01-3.28.01-5.04,0-1.2-.37-1.79-1.39-1.79-1.11,0-1.68.83-1.68,1.96v4.87h-2.4c.05-1.94.05-3.84.05-5.79s-.01-3.87-.05-5.79h2.4v4.46c.53-1.03,1.5-1.59,2.69-1.59,2.14,0,2.75,1.44,2.75,3.2s0,3.64.01,5.5h-2.4Z"/><polygon class="cls-3" points="165.11 4.81 161.15 16.4 157.88 16.4 153.92 4.81 156.87 4.81 159.58 14.12 162.23 4.81 165.13 4.81 165.11 4.81"/><path class="cls-3" d="M170.83,12.07c0-1.6-.58-2.5-1.76-2.5s-1.76,1-1.76,2.59.6,2.57,1.76,2.57,1.76-.96,1.76-2.65ZM166.31,4.9l1.71-.27c.08.64.66.96,1.23.96s1.15-.33,1.23-.96l1.69.27c-.34,1.34-1.3,2.12-2.93,2.12s-2.61-.81-2.95-2.12h.01ZM170.94,16.38l-.12-1.51c-.51,1.05-1.37,1.71-2.48,1.71-2.18,0-3.41-1.98-3.41-4.45s1.22-4.46,3.4-4.46c1.07,0,1.9.53,2.42,1.44l.03-1.25h2.34c-.03,1.66-.05,2.83-.05,4.16,0,1.44.11,2.76.28,4.35h-2.41Z"/><path class="cls-3" d="M180.6,16.38c.03-1.71.03-3.28.03-5.04,0-1.2-.38-1.79-1.39-1.79-1.11,0-1.73.83-1.73,1.96v4.87h-2.4c.01-1.42.03-2.85.03-4.27s-.01-2.83-.03-4.24h2.45l-.05,1.4c.54-1.03,1.53-1.59,2.72-1.59,2.14,0,2.78,1.44,2.78,3.2s-.01,3.64.01,5.5h-2.42.01Z"/><path class="cls-3" d="M148.51,30.77c0,2.2.03,4.15.05,6.06h-2.56c.03-1.56.05-3.11.05-4.8h-4.74l.05,4.8h-2.56c.03-1.93.05-3.87.05-6.06,0-1.66-.01-3.6-.05-5.51h2.56l-.05,4.56h4.74c0-1.42-.01-3-.05-4.56h2.56c-.01,1.93-.05,3.87-.05,5.51Z"/><path class="cls-3" d="M153.48,39.2c0-.33,0-.66-.01-.99h2.42c-.01.33-.01.66-.01.99s0,.68.01,1h-2.42c.01-.33.01-.68.01-1ZM156.6,32.6c0-1.66-.69-2.59-1.9-2.59s-1.9.94-1.9,2.59.69,2.57,1.9,2.57,1.9-.94,1.9-2.57ZM152.95,27.64l-1.21-1,2-1.6h1.86l2.02,1.6-1.21,1-1.73-1.34-1.75,1.34h.01ZM150.42,32.6c0-2.59,1.46-4.46,4.28-4.46s4.27,1.87,4.27,4.46-1.44,4.45-4.27,4.45-4.28-1.86-4.28-4.45Z"/><path class="cls-3" d="M160.69,32.56c0-1.4-.01-2.83-.03-4.24h2.44c-.01,1.41-.03,2.85-.03,4.24s0,2.85.03,4.27h-2.44c.03-1.42.03-2.85.03-4.27ZM160.63,26.24c0-.33,0-.66-.01-.99h2.52c-.01.33-.01.66-.01.99s0,.68.01,1h-2.52c.01-.33.01-.68.01-1Z"/><polygon class="cls-3" points="179.43 25.25 175.46 36.84 172.2 36.84 168.23 25.25 171.18 25.25 173.89 34.57 176.54 25.25 179.44 25.25 179.43 25.25"/><path class="cls-3" d="M179.89,32.56c0-1.4-.01-2.83-.03-4.24h2.44c-.01,1.41-.03,2.85-.03,4.24s0,2.85.03,4.27h-2.44c.03-1.42.03-2.85.03-4.27ZM179.82,26.24c0-.33,0-.66-.01-.99h2.52c-.01.33-.01.66-.01.99s0,.68.01,1h-2.52c.01-.33.01-.68.01-1Z"/><path class="cls-3" d="M187.08,39.2c0-.33,0-.66-.01-.99h2.42c-.01.33-.01.66-.01.99s0,.68.01,1h-2.42c.01-.33.01-.68.01-1ZM189.93,31.45c-.18-1.08-.79-1.68-1.71-1.68s-1.6.6-1.84,1.68h3.55ZM186.5,27.64l-1.21-1,2-1.6h1.86l2.02,1.6-1.21,1-1.73-1.34-1.75,1.34h.01ZM192.2,32.56v.41h-5.93c.11,1.41.81,2.2,1.95,2.2.87,0,1.52-.41,1.79-1.12l2.14.34c-.53,1.66-2,2.65-3.91,2.65-2.67,0-4.29-1.68-4.29-4.43s1.61-4.49,4.28-4.49,4.06,1.68,3.95,4.43h.03Z"/><path class="cls-3" d="M198.48,36.71c-.54.18-1.15.34-1.96.34-2.07,0-2.28-1.18-2.28-2.46v-4.46h-1.23v-1.79h1.31v-2.01l2.26-1.03v3.02h1.72v1.79h-1.72v4.13c0,.64.03,1.12.61,1.12.3,0,.61-.08,1.02-.26l.28,1.6h-.01Z"/><path class="cls-3" d="M216.89,30.77c0,2.2.03,4.15.05,6.06h-2.52v-6.36c0-.51.08-1.56.19-2.64l-3.09,9h-2.26l-3.09-9.03c.09,1.09.18,2.16.18,2.67v6.36h-2.52c.03-1.93.05-3.87.05-6.06,0-1.66-.01-3.6-.05-5.51h3.93l2.67,8.07,2.65-8.07h3.85c-.01,1.93-.05,3.87-.05,5.51h.01Z"/><path class="cls-3" d="M220.61,27.47l-.91-1.18c.34-.37,1.03-.92,1.87-.92s1.31.52,2,.51c.46-.01.84-.27,1.07-.52l.93,1.18c-.34.36-1.03.9-1.87.9s-1.33-.52-2-.48c-.45.01-.84.29-1.08.52h-.01ZM227.06,28.33l-3.35,8.51-.33.79c-.35.88-1.02,2.41-2.99,2.41-.42,0-1.02-.07-1.61-.21l-.16-1.78c.56.16,1.06.21,1.34.21.89,0,1.16-.51,1.44-1.14l.12-.29-3.48-8.51h2.52l1.52,4.24c.16.44.28.9.51,2.13.24-1.23.38-1.7.53-2.11l1.54-4.27h2.4Z"/><path class="cls-1" d="M89.77,35.03c-8.34,3.35-20.67-4.8-38.71-4.8-10.44,0-19.08,2.37-26.45,6.51-5.22,2.93-9.66,6.47-13.36,11.54h11.47c6.96-8.54,17.17-13.36,28.96-13.96,12.51-.63,22.9,4.24,32.06,3.86,7.71-.29,11.73-6.37,11.62-6.37-.09,0-1.7,1.76-5.61,3.24h0ZM30.64,48.27h11.21c1.6-2.89,7.22-6.86,14.23-8.2,4.26-.81,8.97-1.13,15.34-.83,2.84.13,6.08.2,7.21,0-8.91-.63-17.24-2.63-25.98-1.6-13.78,1.63-20.15,8.31-22.02,10.63h0ZM49.81,48.27h9.59c2.56-6.67,15.73-7.56,15.73-7.56,0,0-17.07-1.91-25.32,7.56Z"/><path class="cls-4" d="M37.98,28.62c4.89-1.05,9.27-1.4,13.06-1.4,8.94,0,13.28.97,21.59,3.41,6.02,1.77,9.61,2.29,12.31,2.29,5.77,0,14.57-2.29,14.57-11.15,0-7.12-6.1-8.77-13.08-9.51-6.99-.73-11.42-.89-11.42-3.33,0-2.82,2.5-3.54,6.53-3.54,4.37,0,6.21.93,6.21,4.07h10.31c.03-6.51-7.72-9.46-15.22-9.46-9.18,0-12.9,1.6-16.37,5.52V.89h-10.38v16.04c0,5.32-1.54,7.1-6.84,7.1s-6.4-1.78-6.4-7.1V3.9l-9.44,18.93c-1.25,2.38.68,6.46,4.55,5.81h0ZM74.87,21.37h-8.39v-7.77c1.21,3.11,3.68,4.15,8.29,4.7,3.47.41,8.05.84,11.62,1.3,3,.38,3.87,1.44,3.92,2.86,0,2.54-2.03,3.75-7.85,3.75-6.27,0-7.59-1.66-7.59-4.84h0Z"/><path class="cls-4" d="M40.63.88l-15.23,31.91c-3.75,1.74-5.21,2.74-7.91,4.53L0,.88h10.88l9.18,21.38h.11L29.44.88h11.19Z"/></g></svg>