<?xml version="1.0" encoding="UTF-8"?><svg id="Layer_1" xmlns="http://www.w3.org/2000/svg" viewBox="0 0 90 90"><defs><style>.cls-1{fill:#fff;}.cls-2{fill:#00228e;}</style></defs><g id="Layer_2"><g id="Layer_1-2"><path class="cls-2" d="M67.22,90H22.78C10.2,90,0,79.8,0,67.22V22.78C0,10.2,10.2,0,22.78,0h0s44.44,0,44.44,0C79.8,0,90,10.2,90,22.78v44.44c0,12.58-10.2,22.78-22.78,22.78"/><path class="cls-1" d="M58.8,28.34c-1.69,0-3.06,1.36-3.07,3.05,0,1.69,1.36,3.06,3.05,3.07,1.69,0,3.06-1.36,3.07-3.05,0,0,0-.01,0-.02,0-1.68-1.37-3.04-3.05-3.05"/><path class="cls-1" d="M45.21,32.26c-7.09,0-12.84,5.75-12.84,12.84s5.75,12.84,12.84,12.84,12.84-5.75,12.84-12.84c0,0,0,0,0,0,0-7.09-5.75-12.83-12.84-12.83M45.21,53.31c-4.54,0-8.22-3.69-8.21-8.23,0-4.54,3.69-8.22,8.23-8.21,4.54,0,8.21,3.68,8.21,8.22,0,4.54-3.69,8.22-8.23,8.22"/><path class="cls-1" d="M55.4,71.15h-20.8c-8.64,0-15.65-7.01-15.66-15.65v-20.81c-.01-8.65,7-15.68,15.65-15.69,0,0,0,0,.01,0h20.8c8.65,0,15.67,7.03,15.66,15.68,0,0,0,0,0,.01v20.81c-.01,8.64-7.02,15.64-15.66,15.65M34.6,23.93c-5.94.01-10.75,4.82-10.76,10.76v20.81c.01,5.94,4.82,10.74,10.76,10.75h20.8c5.94,0,10.75-4.81,10.76-10.75v-20.81c-.01-5.94-4.82-10.75-10.76-10.76h-20.8Z"/></g></g></svg>