<?xml version="1.0" encoding="UTF-8"?><svg id="Layer_1" xmlns="http://www.w3.org/2000/svg" viewBox="0 0 90 90"><defs><style>.cls-1{fill:#fff;}.cls-2{fill:#c60016;}</style></defs><g id="Layer_2"><g id="Layer_1-2"><path class="cls-2" d="M67.22,90h-15.22l-7-2.3-6.9,2.3h-15.32C10.2,90,0,79.8,0,67.22V22.78C0,10.2,10.2,0,22.78,0h0s44.44,0,44.44,0C79.8,0,90,10.2,90,22.78v44.44c0,12.58-10.2,22.78-22.78,22.78"/><path class="cls-1" d="M38.05,35.21v9.79h-11.28v12.85h11.28v32.15h13.95v-32.15h10.3l2-12.85h-12.3v-8.34c0-3.51,1.72-6.94,7.24-6.94h5.56v-10.94c-3.31-.53-6.65-.83-10-.87-10.15,0-16.79,6.16-16.79,17.3"/></g></g></svg>