<?xml version="1.0" encoding="UTF-8"?><svg id="Layer_2" xmlns="http://www.w3.org/2000/svg" viewBox="0 0 39.06 49.75"><defs><style>.cls-1{fill:#fff;}</style></defs><g id="Layer_1-2"><path class="cls-1" d="M47.15,22.86c-.23,1.86-.95,3.61-1.74,5.35-.51,1.02-1.41,1.46-2.95,1.33-1.9-.27-3.64.04-5.51-.38-.8-.23-1.26.22-1.19.71.09,2.3-.53,4.52-.41,6.82.12,2.02-.26,3.85-.56,5.83-.28,1.64-1.2,4.5-3.25,4.64-1.13.07-2.19.17-3.23.15-1.12-.02-2.3-.14-3.43-.5-1.63-.55-2.25-1.11-2.39-2.83-.12-2.2-.26-4.47-.41-6.67-.03,0-.05,0-.08,0-.23-2.15-.49-4.3-.77-6.44-.19-1.43-.2-1.45-1.94-1.29-.96.09-1.91.2-2.8.19-.89-.03-1.68.03-2.46.15-.52.08-1.12.19-1.6.42-1.21.5-2.68.38-3.95.68-2.22.45-4.33.96-6.39,1.62-1.1.28-2.1.55-3.25.53-1.88.02-3.14-.57-3.72-1.98-.6-1.25-1.26-2.39-1.89-3.63-.59-1.17-.45-2.35.44-3.66C-3,19.17-.11,14.31,4.07,9.86c.23-.34.46-.67.82-.96C8.95,6.27,10.9,2.89,14.82.33c.4-.32.82-.58,1.12-.81,1.54-1.62,3.75-2.22,6.41-2.34,1.21-.05,2.43-.02,3.79.1.86.06,1.75.34,2.73.48,2.97.52,4.76,1.75,5.24,3.5.73,3.3,1.46,6.54,1.77,9.82.16,1.68-.33,3.37-.4,5.03-.08,1.18.12,1.32,1.85,1.42,1.82.12,3.76.23,5.58.74,3.33.98,4.42,2.24,4.24,4.59ZM18.51,14.26c-.25-.74-1.14-.94-1.76-.38-.87.85-2.19,1.51-2.91,2.38-.66.72-1.84,1.33-1.89,2.32-.06.15.09.33.4.36,1.37.2,2.76.14,4.12-.09,2.83-.32,2.7-1.1,2.38-2.81-.05-.27-.13-1.24-.34-1.77Z"/></g></svg>