<?xml version="1.0" encoding="UTF-8"?><svg id="Layer_2" xmlns="http://www.w3.org/2000/svg" viewBox="0 0 174.01 38.04"><defs><style>.cls-1{fill:#1d3072;}</style></defs><g id="Layer_1-2"><path class="cls-1" d="M2.8,31.69c.02.05.02.11.08.13.06.02.08-.06.1-.09.12-.34.27-.63.44-.93.06-.09.11-.18.13-.29.15-.75.42-1.47.54-2.22.02-.08.03-.15.04-.24,0-.31.17-.47.4-.54.47-.16,1.02-.31,1.52-.29.13,0,.23.02.35.06.18.07.28.2.28.39.02.09.02.19,0,.27-.19.53-.22,1.08-.42,1.6-.26.68-.48,1.37-.73,2.04-.13.34-.1.42.17.65.04.03.08.06.11.09.7.45,1.24,1.08,1.88,1.56.61.46,1.05,1.07,1.66,1.52.17.12.17.21.03.36-.04.04-.09.1-.16.12-.39.19-.76.45-1.18.59-.32.11-.61.13-.92-.05-.89-.51-1.97-1.5-2.63-2.29-.12-.13-.14-.12-.28.02-.17.18-.21.38-.15.65.14.5.3.98.5,1.45.11.28.14.56.22.83.06.26-.03.39-.27.52-.17.08-.35.17-.53.23-.12.04-.22.06-.35.07-.15,0-.32.08-.46.11-.3.07-.51-.04-.62-.33-.17-.52-.33-1.05-.54-1.57-.46-1.14-.8-2.32-1.21-3.46-.25-.71-.42-1.45-.58-2.18-.07-.29-.14-.59-.21-.88-.08-.36.05-.58.38-.72.2-.08.42-.15.64-.21.36-.12.64,0,.8.36.09.18.2.38.22.58.03.17.11.33.16.49.06.15.13.3.19.43.16.39.3.77.39,1.16Z"/><path class="cls-1" d="M7.82,28.05c-.09-.34-.16-.67-.25-1-.15-.65.52-.99,1.02-1.14,1.09-.35,1.49.43,1.88,1.33.24.54.41,1.11.64,1.65q.1.24.35.12c.24-.1.47-.21.72-.28.18-.06.36-.1.55-.13.04-.01.09-.02.14-.04.39-.15.41-.22.31-.62-.16-.63-.32-1.27-.47-1.92-.04-.23-.04-.47-.03-.71,0-.2.11-.37.32-.46.4-.16.82-.27,1.25-.28.24,0,.44.1.58.3.21.27.3.58.42.88.2.5.36,1.02.49,1.54.09.47.25.92.38,1.38.25.8.61,1.57.85,2.37.13.42.26.86.38,1.29.02.08.03.14.04.23.04.5-.17.77-.64.89-.29.08-.58.13-.85.21-.29.09-.46.12-.72-.1-.51-.37-1.12-2.18-1.3-2.77-.02-.08-.07-.12-.14-.08-.09.06-.2.09-.31.13-.35.11-.71.13-1.05.26-.03,0-.05,0-.08.01-.47.16-.37.2-.27.52.22.69.41,1.4.62,2.09.15.48-.08,1.16-.59,1.32-.26.08-.53.17-.8.14-.19-.01-.37,0-.55,0-.26.01-.46-.11-.58-.34-.03-.05-.04-.1-.07-.13-.25-.69-.49-1.37-.73-2.04-.22-.64-.5-1.26-.63-1.82-.34-.98-.65-1.89-.89-2.8Z"/><path class="cls-1" d="M19.48,25.49c.02.08.05.15.08.23.09.24.17.47.19.73.01.08.03.17.08.26.26.51.29,1.08.43,1.63.06.29.14.56.22.85.21.77.42,1.55.62,2.32.14.56-.12.88-.64,1.04-.17.05-.36.07-.54.09-.15.03-.28.04-.43.08-.32.06-.57-.08-.71-.38-.01-.04-.02-.08-.04-.12-.3-.89-.59-1.8-.88-2.7-.13-.38-.28-.77-.42-1.15-.2-.53-.36-1.07-.48-1.63-.07-.26-.12-.54-.2-.8-.05-.22-.1-.43-.15-.66-.05-.25-.14-.51-.2-.75-.14-.46-.22-.9.34-1.15.2-.09.4-.15.61-.21.21-.06.41-.13.63-.16.56-.1.84.17.96.59.08.27.17.55.25.82.1.36.2.71.27,1.07Z"/><path class="cls-1" d="M25.23,23.9c.03-.42.13-.82.25-1.23.38-1.27,2.18-2.36,3.33-2.7.13-.04.26-.07.4-.08.22-.02.44-.08.65-.12.41-.08.75.07.99.36.33.42.51.9.34,1.44-.1.37-.35.58-.75.66-.31.06-.62.12-.93.21s-.63.21-.92.41c-.03.04-.08.05-.12.06-.87.25-1.06,1.54-.89,2.27.08.33.18.66.32.97.14.3.37.47.66.58.13.05.85.36.97.34.21-.03.42-.06.62-.12.3-.09.58-.22.8-.47.21-.24.23-.62.04-.88-.05-.08-.13-.07-.21-.05-.37.09-.75.19-1.11.28-.52.14-.54.13-.79-.36-.2-.39-.28-.82-.45-1.22-.1-.25-.02-.37.21-.48.26-.1.54-.23.81-.3.22-.06.46-.1.7-.1.04,0,.08,0,.12,0,.41-.17.87-.14,1.31-.24.55-.1.69-.04.96.45.37.66.62,1.36.68,2.13.02.3.04.59.02.9-.07.76-.38,1.42-.91,2-.26.31-.58.46-.93.56-.48.14-.97.22-1.46.17-.14-.01-.31,0-.46.05-.71.17-1.32-.04-1.91-.39-.07-.05-.14-.1-.2-.12-.34-.14-.59-.39-.81-.68-.22-.27-.44-.56-.65-.85-.23-.31-.38-.68-.49-1.06-.24-.77-.25-1.58-.18-2.39Z"/><path class="cls-1" d="M32.88,20.5c-.08-.34-.13-.68-.2-1.01-.12-.65.56-.96,1.07-1.1,1.11-.3,1.47.49,1.82,1.4.22.55.36,1.13.57,1.67q.09.24.34.13c.24-.09.48-.19.73-.25.18-.05.37-.09.56-.11.04-.01.09-.01.14-.04.4-.14.42-.2.34-.61-.13-.63-.27-1.28-.39-1.93-.04-.23-.02-.47,0-.71.02-.2.12-.37.34-.44.41-.14.83-.24,1.26-.23.24.02.44.12.56.32.2.28.27.6.38.9.18.51.32,1.03.42,1.56.07.47.21.93.32,1.39.22.81.55,1.6.75,2.41.12.43.22.87.33,1.31.02.08.03.15.03.23.02.5-.2.77-.67.87-.29.06-.59.1-.86.18-.3.08-.46.1-.72-.12-.5-.4-1.02-2.22-1.19-2.82-.02-.08-.06-.12-.14-.09-.1.05-.2.08-.32.12-.35.09-.71.1-1.06.22-.03,0-.06,0-.08,0-.48.14-.38.19-.29.51.19.7.36,1.41.53,2.12.13.48-.13,1.15-.64,1.29-.26.07-.53.15-.81.11-.19-.02-.37-.01-.55-.02-.26,0-.45-.13-.56-.36-.03-.05-.04-.1-.07-.14-.22-.7-.43-1.39-.65-2.07-.19-.65-.45-1.28-.56-1.84-.3-.99-.58-1.91-.77-2.83Z"/><path class="cls-1" d="M44.64,18.41c.02.08.04.16.07.23.08.24.15.48.17.74,0,.08.02.18.07.26.23.52.24,1.09.36,1.65.05.29.12.57.18.86.17.78.35,1.56.53,2.34.12.57-.16.88-.68,1.01-.17.04-.36.05-.54.07-.15.02-.28.03-.43.06-.32.04-.57-.1-.69-.4-.01-.04-.02-.08-.03-.12-.26-.91-.52-1.83-.77-2.74-.12-.39-.25-.79-.38-1.17-.18-.54-.31-1.09-.42-1.65-.05-.26-.1-.54-.17-.8-.04-.23-.09-.44-.12-.67-.04-.25-.12-.51-.17-.76-.12-.47-.18-.91.39-1.13.2-.08.41-.14.62-.19.21-.05.42-.11.63-.14.56-.08.83.2.93.63.07.27.15.56.22.83.08.37.17.72.23,1.08Z"/><path class="cls-1" d="M50.49,17.75c-.22-.8-.39-1.62-.55-2.44-.1-.49,0-.67.45-.88.28-.12.55-.23.84-.3.18-.04.36-.07.55-.09.11-.01.21-.04.32-.06.23-.07.46-.05.7-.02.33.04.68.04,1.01.12.56.14,1.09.32,1.46.78.24.29.51.57.75.86.7.84.96,1.83,1.03,2.88.04.57-.27,1.8-.47,2.32-.06.15-.12.29-.2.42-.44.59-.94,1.1-1.68,1.32-.04,0-.08.02-.1.04-.19.23-.47.24-.72.3-.34.07-.7.13-1.05.18-.46.08-1.08-.22-1.22-.81-.08-.31-.17-.61-.26-.91-.1-.29-.16-.59-.23-.89-.2-.94-.37-1.88-.64-2.81ZM52.55,17.44c.32.92.62,1.83.85,2.79.04.09.06.18.17.19.15,0,.29,0,.42-.08.38-.26.69-.6.79-1.05.12-.5.17-1.01-.01-1.55-.19-.58-.56-.99-1.03-1.34-.04-.03-.09-.05-.14-.06l-.66-.13c-.15-.03-.29,0-.42.02-.15,0-.21.09-.19.24.05.21.09.48.12.62.04.14.07.23.1.35Z"/><path class="cls-1" d="M58.72,21.93c-.45.07-.65-.06-.72-.5-.07-.41-.09-.82-.03-1.22.13-.87.2-1.76.3-2.62.04-.3.07-.61.13-.9.1-.53.03-1.08.1-1.61.06-.57.12-1.13.18-1.68.02-.14.04-.29.09-.44.16-.51.25-.6.78-.77.09-.03.18-.07.25-.1.43-.17.85-.14,1.28-.04.14.02.23.11.31.22.26.36.55.68.85,1,.14.13.25.3.36.47.45.77.96,1.51,1.49,2.23.22.31.39.64.63.95.1.13.19.25.3.36.14.13.24.28.33.44.22.36.44.73.66,1.08.16.28.23.6.25.91,0,.22-.07.4-.32.49-.27.09-.53.22-.8.32-.11.05-.23.07-.35.11-.22.05-.44,0-.57-.19-.14-.2-.37-.33-.51-.53-.14-.2-.33-.3-.59-.18-.11.05-.25.06-.39.06-.11,0-.23.02-.34.06-.1.04-.22.08-.34.09-.38.03-.72.22-1.11.22-.14,0-.17.11-.18.22-.03.17-.07.36-.1.53-.01.06-.02.11-.03.16-.11.38-.3.68-.75.7-.08,0-.17.03-.27.05-.29.05-.6.09-.9.13ZM61.5,17.68l.14-.03c.34-.09.43-.29.29-.62,0-.03-.04-.06-.05-.1-.19-.55-.57-.99-.88-1.47-.03-.06-.08-.12-.16-.1-.09.02-.12.09-.12.18-.05.55-.12,1.53,0,2.07.05.17.17.24.34.2.14-.05.39-.12.45-.13Z"/><path class="cls-1" d="M69.3,18.46c.04.17.06.36.09.55.01.12-.03.2-.16.21-.36.07-.69.18-1.05.2-.28.03-.57.04-.86.1-.21.04-.33-.04-.37-.25-.13-.57-.23-1.14-.38-1.7-.11-.4-.21-.81-.29-1.22-.18-.8-.39-1.6-.48-2.41-.05-.43-.19-.84-.28-1.26-.09-.35-.09-.7-.05-1.06.01-.14.04-.28.11-.41.12-.24.3-.39.59-.42.45-.07.91-.08,1.37-.08.16,0,.3.05.43.15.49.35.97.68,1.44,1.04.45.33.95.62,1.42.93.09.05.17.13.24.21.22.21.46.43.74.58.17.09.3.25.45.39.03.02.08.04.11.02,0-.02.02-.04.01-.06-.11-.32-.05-.66-.08-.99-.06-.7-.26-1.39-.37-2.1-.02-.15-.03-.28-.04-.43.01-.54.35-.9.88-.91.21,0,.42,0,.63.04.19.03.34.13.41.33.04.09.08.16.11.25.13.58.33,1.14.48,1.7.17.62.29,1.26.43,1.89.02.11.04.21.05.31,0,.23.05.44.11.67.08.26.14.52.18.8.03.28.12.57.2.84.12.4.22.79.27,1.2.03.21-.01.28-.2.37-.02.02-.05.02-.08.03-.42.09-.82.24-1.22.4-.15.06-.33.06-.51.06-.22,0-.38-.06-.57-.21-.65-.62-1.33-1.24-2.03-1.82-.4-.34-.86-.65-1.3-.96-.18-.13-.38-.24-.55-.38-.05-.06-.13-.1-.19-.14-.12-.07-.26-.11-.38-.02-.12.09-.06.22-.03.32.15.59.29,1.18.38,1.68.12.58.22,1.08.33,1.57Z"/><path class="cls-1" d="M75.47,10.35c-.05-.35-.07-.69-.12-1.02-.07-.66.64-.91,1.16-1.01,1.12-.21,1.43.61,1.7,1.55.17.57.27,1.16.43,1.71q.07.25.33.16c.25-.07.49-.15.75-.19.19-.04.37-.06.56-.06.04,0,.09,0,.15-.03.41-.1.44-.16.39-.58-.08-.64-.16-1.3-.23-1.96-.01-.23.02-.47.06-.71.03-.2.15-.36.38-.41.42-.1.84-.17,1.28-.13.24.04.43.15.53.37.18.3.22.62.31.93.14.52.24,1.05.29,1.59.03.47.13.95.21,1.41.15.82.41,1.64.55,2.46.08.44.15.89.22,1.33.01.08.01.15.01.23-.02.5-.26.75-.74.81-.29.04-.59.06-.87.11-.3.06-.47.06-.71-.18-.46-.43-.84-2.3-.95-2.91-.01-.08-.05-.13-.13-.1-.1.05-.21.07-.33.09-.36.07-.72.04-1.07.13-.03,0-.06,0-.08,0-.49.1-.4.16-.33.49.13.72.24,1.44.36,2.15.09.49-.23,1.14-.74,1.23-.26.05-.54.1-.81.04-.18-.03-.36-.04-.55-.06-.26-.02-.44-.16-.53-.41-.02-.05-.03-.1-.05-.14-.16-.71-.32-1.42-.48-2.12-.14-.66-.34-1.31-.4-1.88-.22-1.02-.42-1.95-.54-2.89Z"/><path class="cls-1" d="M91.32,10.56c-.07-.34-.04-.7-.15-1.05-.11-.37-.27-.5-.66-.46-.29.05-.58.1-.89.17-.14.04-.28.02-.42-.02-.35-.04-.51-.23-.61-.56-.13-.47-.22-.95-.26-1.43-.02-.13-.02-.27.05-.39.07-.11.13-.18.27-.19.07,0,.13-.03.2-.04.56-.05,1.12-.19,1.66-.34.3-.09.61-.14.91-.18.52-.08,1.06-.14,1.57-.22.57-.09,1.15-.15,1.73-.17.41,0,.63.12.76.51.08.22.11.43.12.66,0,.23.03.47.03.71,0,.31-.11.51-.41.6-.43.13-.85.25-1.28.38-.33.09-.38.16-.32.47.09.6.19,1.18.25,1.79.03.29.13.59.21.88.13.59.28,1.18.41,1.76.08.35.11.71.04,1.06-.09.4-.36.64-.76.69-.08,0-.17-.01-.23.02-.08.04-.15.07-.23.08-.27.04-.51-.07-.75-.18-.27-.14-.42-.4-.46-.69-.11-.72-.33-1.42-.4-2.04-.13-.66-.26-1.23-.38-1.79Z"/><path class="cls-1" d="M96.92,10.92c-.06-.35-.12-.68-.12-1.02-.02-.34-.06-.66-.12-.99-.13-.65-.15-1.3-.13-1.96,0-.08,0-.16,0-.24-.07-.63.27-1.37.9-1.61.18-.05.37-.11.57-.13.08-.01.16-.02.24-.02.53-.03,1.05-.1,1.57-.09,1.16.03,2.34.14,2.88,1.37.16.4.21.83.19,1.27-.02.64-.11,1.59-.51,2.12-.14.18-.14.2.01.38.29.34.53.72.78,1.09.27.37.51.76.81,1.13.11.13.17.32.26.48.06.14.04.28,0,.42-.03.19-.2.14-.31.19-.19.09-.4.15-.6.18-.35.05-.7.03-1.05.05-.15,0-.24-.05-.34-.17-.53-.69-1.05-1.39-1.49-2.14-.15-.2-.45-.3-.72-.27-.09.01-.17.04-.25.09-.09.05-.05.14-.02.22.07.34.15.69.25,1.03.08.32.13.62.17.94,0,.37-.05.74-.47.84-.39.09-.81.15-1.21.18-.39.03-.61-.15-.71-.53-.08-.29-.03-.61-.13-.85-.1-.69-.29-1.32-.41-1.97ZM98.97,8.5c.06.24.19.33.44.31.41-.06,1.08-.39,1.23-.96.09-.33-.04-.62-.38-.71-.24-.05-.48-.06-.72-.02-.13.02-.27.05-.4.08-.2.05-.3.19-.3.41,0,.14.05.28.07.43.02.13.03.31.06.47Z"/><path class="cls-1" d="M111.63,7.82c.06.41.03.82.02,1.23,0,.52-.22,1.64-.49,2.09-.36.79-.68,1.26-1.49,1.69-.47.25-.98.43-1.53.45-.1,0-.25-.01-.34-.03-.26-.05-.53-.1-.8-.15-.37-.07-.67-.25-.95-.5-.38-.34-.58-.77-.83-1.17-.1-.18-.19-.37-.31-.54-.15-.23-.22-.46-.29-.71-.12-.42-.2-.83-.24-1.25-.17-.58-.17-1.16-.25-1.75-.08-.57-.15-1.16-.22-1.75-.02-.32.03-.65.08-.97,0-.08.07-.18.13-.25.19-.14.36-.3.6-.33.43-.06.84-.11,1.27-.15.21-.03.3.05.31.26.03.24.13.45.16.67s.09.46.15.69c.06.32.13.66.1,1-.02.1-.02.19,0,.3.05.55.11,1.11.18,1.66.06.48.18.94.34,1.4.11.34.43.52.74.65.11.05.24.07.34.06.12-.01.24-.07.33-.17.22-.21.41-.44.46-.76.04-.22.12-.3.12-.53,0-.15,0-.39.02-.44.09-.28.03-.45,0-.73l-.19-1.63c-.1-.9-.15-1.42-.09-2.32.02-.22.25-.46.49-.49.11-.01.23-.04.33-.05.28-.07.53-.25.45-.93-.03-.28-.14-.61.23-.68.35-.05.89-.13,1.25-.12.3,0,.33.15.4.38.07.21.12.46.13.66.09.68-.29,1.35-.99,1.78v.03c.06.62.15,1.23.22,1.85.06.51.11,1.03.18,1.54Z"/><path class="cls-1" d="M119.92,7.1l.04.48c.08.71-.16,1.34-.44,1.96-.3.66-.75,1.21-1.23,1.72-.22.24-.54.33-.81.48-.35.18-.69.27-1.07.3-.36.03-.76.02-1.14-.02-.31-.03-.6-.15-.83-.4-.27-.27-.54-.53-.7-.88-.05-.09-.12-.18-.19-.25-.33-.4-.54-.87-.77-1.32-.37-.75-.36-1.52-.31-2.33.06-1.1.43-2.04,1.27-2.77.33-.27,1.52-.98,1.95-1.02.25-.02.5-.03.75-.04.15-.01.29.01.41.08.17.07.35.12.53.17.35-.06.78-.1.7-.97-.03-.28-.12-.61.25-.67.35-.04.9-.11,1.25-.09.3,0,.33.16.39.38.06.21.11.46.12.67.07.64-.3,1.29-.94,1.71.11.17.22.34.32.54.26.6.45,1.2.43,1.87,0,.14.02.27.04.39h-.01ZM117.67,6.95c.04-.32-.15-.57-.32-.78-.18-.24-.8-.45-1.11-.42-.25.02-.5.15-.7.32-.44.35-.71.8-.78,1.37,0,.19-.02.37-.02.56.01.57.34,1,.88,1.16.25.07.52.1.78.08.19-.02.36-.07.49-.22.52-.53.87-1.15.78-1.94,0-.04-.02-.08-.01-.12ZM117.66.48c0,.06-.03.11-.04.14-.12.28-.21.53-.32.79-.13.21-.2.44-.29.65-.11.25-.29.34-.58.42-.27.04-.68.09-.9.08-.15,0-.24,0-.28-.11-.01-.12,0-.27.03-.4.08-.3.17-.6.25-.9.02-.12.04-.25.1-.4.04-.14.14-.28.23-.41.11-.16.19-.19.39-.2.04,0,.08,0,.13-.01.29-.07.72-.11.98-.12.21-.02.4.06.33.31,0,.08,0,.12-.02.19v-.03Z"/><path class="cls-1" d="M121.23,4.04c.26-.58.64-1.12,1.24-1.38.51-.21,1.04-.41,1.59-.45.2-.01.42-.02.62.02.07,0,.13,0,.2,0,.78-.03,1.4.3,1.96.79.22.24.29.49.11.8-.17.28-.34.56-.52.83-.1.16-.21.22-.35.23-.08,0-.16-.02-.25-.04-.21-.05-.42-.15-.63-.2-.22-.08-.45-.13-.68-.12-.75.05-1.31,1.06-1.42,1.72-.1.59-.16,1.19.2,1.73.08.1.14.22.19.34.14.26.32.4.62.42.33,0,.63,0,.95.02.38,0,.62-.19.85-.44.08-.09.14-.18.2-.3.11-.22.31-.37.52-.52.13-.09.25-.08.37,0,.27.18.55.35.76.62.06.08.11.15.18.22.28.21.28.48.15.77-.19.41-.4.8-.72,1.13-.34.35-.61.76-1.07.96-.39.19-.79.31-1.22.34-1.04.07-2.04-.46-2.87-1.03-.72-.53-1.14-1.64-1.34-2.49-.09-.33-.18-.65-.17-1.06-.14-1,.15-1.98.56-2.93Z"/><path class="cls-1" d="M139.39,8.57c-.05.7-.3,1.34-.99,1.74-.24.13-.48.28-.73.37-.11.04-.23.1-.32.16-.31.17-.61.27-.94.28-.23,0-.46-.03-.71-.12-.26-.1-.54-.12-.79-.23-.48-.22-.83-.6-1.23-.92-.08-.07-.1-.15-.05-.24.05-.12.09-.26.17-.36.18-.25.36-.5.56-.72.13-.14.26-.22.42-.23.09,0,.19.02.29.06.33.13.91.23,1.27.22.35,0,.64-.23.89-.48.08-.1.1-.21.06-.34-.1-.31-.27-.53-.61-.59-.19-.04-.37-.08-.56-.08-.35,0-.64-.22-.94-.35-.12-.05-.17-.16-.17-.29,0-.22-.04-.42-.03-.63-.02-.62.67-.71,1.14-.72.04,0,.09,0,.16,0,.4-.01.69-.33.64-.75-.04-.38-.27-.65-.63-.79-.05-.03-.1-.04-.15-.04-.28,0-.88.4-1.06.58-.1.1-.21.2-.33.28-.15.1-.29.16-.43.16-.2,0-.39-.1-.53-.31-.18-.25-.37-.52-.57-.74-.14-.14-.14-.28-.11-.44.05-.2.11-.41.18-.6.03-.08.08-.18.14-.23.49-.35.92-.79,1.58-.92.4-.08.82-.16,1.24-.17.69-.02,1.26.13,1.82.54.34.25.54.62.68.99.12.4.25.82.2,1.25.04.58-.08,1.15-.28,1.69-.05.15-.03.24.05.36.54.78.72,1.67.65,2.6Z"/><path class="cls-1" d="M148.97,7.85c-.18.58-.42,1.16-.75,1.68-.04.07-.07.15-.13.2-.31.3-.62.58-.95.86-.19.16-.42.23-.65.29-.54.13-1.09.17-1.64.12-.28-.03-.57-.04-.86-.03-.46.03-.92-.04-1.36-.22-.23-.09-.44-.22-.59-.43-.13-.16-.27-.32-.43-.46-.19-.16-.28-.38-.4-.58-.32-.55-.66-1.11-.76-1.77-.07-.45-.11-.89-.06-1.44-.05-.43.14-.93.27-1.44.04-.16.09-.32.18-.47.38-.66.69-1.37,1.18-1.96.34-.39.72-.71,1.25-.82.4-.09.82-.15,1.23-.15.82,0,2.07.35,2.8.68.3.14.55.35.75.62.11.13.21.26.35.36.5.41.74.96.86,1.55.23,1.16.05,2.29-.28,3.39ZM147.09,6.33c-.03-.31-.11-.59-.19-.89-.23-.79-.83-1.16-1.57-1.39-.04-.01-.08-.01-.12-.01-.42-.03-.84.04-1.24.17-.4.15-.71.39-.88.81-.19.5-.35,1.01-.33,1.58-.04.61.17,1.11.67,1.46.27.19.59.3.89.43.09.04.2.03.31.03.4-.03.79-.17,1.2-.23.07-.01.13-.04.18-.07.32-.24.63-.48.85-.83.19-.32.26-.67.23-1.05Z"/><path class="cls-1" d="M155.51,3.27c-.43.74-.7,1.55-1.04,2.34-.32.76-.63,1.53-1.02,2.26-.2.41-.43.81-.63,1.22-.27.52-.55,1.05-.71,1.62-.11.33-.26.49-.56.53-.11.02-.23.02-.35-.01-.16-.03-.36,0-.55,0-.11,0-.22,0-.32-.04-.23-.06-.35-.32-.29-.55.01-.04.03-.09.06-.13.27-.39.41-.85.61-1.29.26-.6.59-1.17.8-1.79.17-.49.37-.97.65-1.41.56-.88.91-1.88,1.32-2.84.04-.09.09-.2.13-.29.1-.21.25-.34.52-.35.24,0,.49-.02.74.09.07.03.17.02.27.02.36.01.56.3.37.62Z"/><path class="cls-1" d="M164.88,8.67c-.21.57-.5,1.13-.85,1.63-.04.06-.08.14-.15.19-.33.28-.66.54-1,.8-.2.15-.43.2-.67.25-.55.1-1.1.1-1.65,0-.28-.05-.56-.08-.86-.08-.46,0-.91-.1-1.34-.31-.22-.11-.43-.25-.56-.47-.12-.17-.25-.34-.4-.49-.18-.17-.26-.4-.36-.61-.29-.57-.58-1.15-.65-1.81-.04-.45-.05-.89.03-1.44-.02-.43.2-.92.37-1.42.05-.16.12-.32.21-.46.42-.63.78-1.33,1.3-1.88.36-.37.76-.66,1.31-.74.41-.07.83-.09,1.23-.06.82.06,2.05.49,2.75.86.29.15.53.39.71.67.1.14.2.27.33.39.47.44.67,1,.75,1.6.15,1.17-.1,2.29-.5,3.37ZM163.1,7.03c0-.31-.07-.6-.13-.9-.17-.81-.75-1.21-1.48-1.49-.04-.02-.08-.02-.12-.02-.42-.06-.84-.02-1.25.09-.41.12-.74.34-.93.75-.22.48-.42.98-.43,1.55-.08.6.1,1.11.57,1.5.26.21.57.34.86.49.09.05.2.04.31.05.41,0,.8-.12,1.21-.15.07,0,.14-.03.18-.05.34-.22.66-.44.9-.78.21-.31.3-.65.3-1.03Z"/><path class="cls-1" d="M174.01,7.49c-.04.36-.15.71-.27,1.07-.08.21-.21.32-.44.32-.28-.02-.55.06-.83-.01-.12-.04-.2.04-.19.14-.02.44-.15.88-.16,1.32,0,.39-.08.75-.16,1.13-.06.32-.25.88-.64.89-.22,0-.42,0-.62-.02-.21-.02-.44-.08-.64-.18-.29-.16-.39-.29-.35-.62.06-.43.12-.87.19-1.29h-.01s.14-1.26.14-1.26q.03-.28-.24-.31c-.15-.02-.29-.03-.43-.08s-.25-.07-.37-.08c-.08,0-.17-.02-.26,0-.21.03-.41-.07-.61-.1-.35-.05-.68-.1-1.01-.14-.17-.03-.33-.06-.48-.16-.25-.15-.37-.37-.32-.66.03-.27.05-.52.08-.79.03-.25.14-.44.35-.6.77-.55,1.44-1.22,2.18-1.8.05-.05.09-.1.15-.13.61-.27,1.01-.82,1.57-1.17.06-.05.12-.08.16-.12.25-.26.51-.31.8-.28.13.02.27.04.41.09.09.02.18.09.28.13.31.13.47.37.48.7-.02.64-.02,1.26-.06,1.89-.02.32-.13.65-.18.97-.04.23-.01.26.21.27.24.01.5.02.74.08.43.13.57.34.53.79ZM170.39,5.72c0-.15-.1-.21-.2-.13-.15.13-.35.21-.49.34-.12.11-.3.17-.37.35-.02.03,0,.07.03.08.17.1.35.15.54.16.39.04.41-.12.44-.45,0-.05.04-.24.04-.35Z"/></g></svg>