<?xml version="1.0" encoding="UTF-8"?><svg id="Layer_2" xmlns="http://www.w3.org/2000/svg" viewBox="0 0 582.81 141.68"><defs><style>.cls-1{fill:#12d0ff;}.cls-2{fill:#1d3072;}</style></defs><g id="Layer_1-2"><path class="cls-1" d="M535.01,41.62c-159.01-54.3-328.2-54.3-487.22,0-23.42,8.22-41.18,33.96-30.55,58.6.28.64.42.96.69,1.6,9.78,22.3,37.12,31.19,59.28,23.4,140.03-47.63,288.33-47.63,428.37,0,22.16,7.79,49.5-1.11,59.28-23.4.28-.64.42-.96.69-1.6,10.64-24.63-7.13-50.38-30.55-58.6ZM72.56,95.39c-8.26,2.83-17.18-.82-19.97-8.39-2.79-7.57,1.88-16.28,10.5-19.24,8.62-2.96,17.63,1.07,20.06,8.76,2.44,7.69-2.33,16.04-10.59,18.87ZM513.03,96.35c-8.25-2.87-12.99-11.24-10.52-18.92,2.47-7.68,11.5-11.66,20.11-8.67,8.61,2.99,13.25,11.73,10.42,19.29-2.83,7.55-11.76,11.17-20.01,8.3Z"/><path class="cls-2" d="M121.35,56.68c-.85-2.25-1.63-4.51-2.86-6.58-.65-1.14-1.04-2.27-1.13-3.56-.29-2.63,1.53-4.82,4.46-5.12,1.58-.18,3.02-.55,4.57-.86,3.07-.7,4.8.11,6.04,2.73.79,1.5,1.34,3.06,1.67,4.75.35,1.45.73,2.98,1.32,4.37.2.49.4.98.45,1.5.77,5.89,2.49,11.54,3.73,17.31.51,2.11.8,4.26.47,6.5-.22.75-.1,1.56-.12,2.42-.05,1.4-.2,2.74-.9,4.07-.1.26-.28.46-.36.78-.59,4.31-3.97,6.48-7.26,8.67-.46.35-1.1.6-1.62.74-3.95.91-7.93,1.65-11.9.39-.64-.28-1.32-.4-1.94-.6-4.07-.75-6.72-3.37-8.82-6.49-1.81-2.73-2.98-5.73-4.28-8.61-.43-1.12-.63-2.31-.65-3.47,0-1.88.83-3.3,2.46-4.26,1.77-1.08,3.58-2,5.51-2.56,2.72-.71,4.37-.17,5.79,1.92.73,1.11,1.32,2.34,1.97,3.48,1.06,1.72,2.41,3.05,4.49,3.79.7.19,1.14.31,1.52.2,1.74-.47,1.78-4.58,1.6-5.85-.35-2.23-1.06-4.28-1.7-6.35-.17-.65-.35-1.3-.6-2.24-.74-2.12-.92-4.7-1.89-7.07Z"/><path class="cls-2" d="M186.21,54.6c.15.88.29,1.77.44,2.65.72,3.89-.44,7.49-1.8,11.06-1.48,3.81-3.8,7.03-6.27,10.14-1.14,1.42-2.87,2.13-4.32,3.09-1.87,1.19-3.75,1.87-5.84,2.29-2.02.41-4.24.56-6.41.64-1.78.07-3.45-.4-4.97-1.6-1.7-1.31-3.4-2.54-4.6-4.33-.34-.46-.84-.88-1.24-1.25-2.2-1.95-3.72-4.36-5.38-6.65-2.67-3.82-3.21-8.07-3.51-12.53-.45-6.11,1.09-11.62,5.67-16.31,1.77-1.78,8.58-6.58,11.18-7.09,1.53-.31,3-.52,4.55-.75.89-.17,1.74-.11,2.55.19,1.58.38,3.28.52,4.9.76,5.46.68,8.94,3.13,11.54,7.39,1.76,3.19,3.1,6.45,3.23,10.14.04.75.24,1.47.35,2.14-.03,0-.05,0-.08.01ZM172.97,54.95c.08-1.76-1.13-3.06-2.24-4.14-1.2-1.22-4.96-2.02-6.78-1.66-1.5.3-2.88,1.19-3.98,2.25-2.41,2.25-3.73,4.9-3.77,8.12.06,1.06.11,2.04.25,3.08.43,3.12,2.58,5.25,5.8,5.8,1.49.23,3.08.21,4.53-.08,1.07-.22,2.02-.63,2.73-1.53,2.71-3.27,4.45-6.85,3.57-11.17-.04-.22-.16-.43-.12-.66Z"/><path class="cls-2" d="M193.68,31.51c1.94-.29,3.89-.56,5.91-.85.9-.05,1.68.22,2.27.9,1.09,1.36,2.61,2.29,4.04,3.23,2.31,1.43,4.47,3.05,6.46,4.76.28.27.54.46.9.72.71.52.87.5,1.42-.32,1.74-2.46,3.15-5.03,4.49-7.73.47-.95.94-1.91,1.5-2.79.85-1.29,2-2.09,3.89-2.05,3.96.13,7.84-.45,11.75-.77.73-.06,1.47-.12,2.12-.1,1.74.24,2.48,1.46,1.78,2.86-.5.94-1.17,1.74-1.91,2.62-2.3,2.73-4.39,5.69-6.37,8.72-.91,1.51-2.05,2.96-3.21,4.28-.72.82-1.36,1.63-1.66,2.64-.54,1.78-1.4,3.45-2.26,5.11-.67,1.12-.87,2.27-.73,3.53.26,4.7,1.13,9.27,1.7,13.94.54,4.38.34,4.69-3.96,5.24-1.21.14-2.48.36-3.68.57-2.45.59-4.76-.1-7.09-.32-.7-.06-.99-.55-1.15-1.13-.07-.52-.21-1.03-.2-1.55.06-3.7-.74-7.36-.76-11.13.05-1.44-.3-2.9-.41-4.39-.08-.59-.38-1.08-.9-1.46-1.88-1.64-3.57-3.52-5.77-4.95-1.87-1.32-3.62-2.88-5.23-4.53-2.46-2.43-5.08-4.68-8.08-6.56-1.08-.59-1.95-1.43-2.75-2.29-2.17-2.22-1.24-4.57,1.9-5.22,1.04-.24,2.09-.4,3.06-.55.97-.15,1.94-.29,2.83-.42.03,0,.05,0,.08-.01Z"/><path class="cls-2" d="M273.95,29.89c1.7-3.18,4.17-6.08,7.92-7.33,3.18-1.02,6.46-1.93,9.82-1.93,1.23,0,2.54.08,3.77.39.41.08.82.08,1.23.08,4.76.19,8.34,2.28,11.43,5.28,1.18,1.45,1.46,2.88.21,4.49-1.17,1.47-2.33,2.93-3.57,4.32-.66.81-1.39,1.09-2.19,1.08-.48,0-.96-.16-1.44-.32-1.2-.39-2.39-1-3.68-1.39-1.28-.54-2.65-.92-4.02-.92-4.52-.02-8.18,5.4-9.08,8.99-.76,3.22-1.34,6.51.57,9.63.4.59.71,1.26.95,1.93.71,1.49,1.73,2.3,3.44,2.52,1.86.14,3.65.22,5.43.46,2.17.16,3.65-.79,5.07-2.04.47-.44.87-.96,1.27-1.55.72-1.18,1.99-1.91,3.26-2.63.79-.43,1.5-.34,2.11.2,1.46,1.16,3,2.25,4.04,3.85.3.46.52.91.89,1.3,1.51,1.32,1.3,2.81.4,4.35-1.31,2.12-2.75,4.17-4.71,5.84-2.11,1.74-3.83,3.87-6.5,4.8-2.29.86-4.56,1.36-6.99,1.35-5.82-.03-11.3-3.25-15.82-6.66-3.97-3.13-6.1-9.33-7.11-14.09-.45-1.85-.9-3.63-.74-5.88-.58-5.59,1.3-10.96,4.01-16.11Z"/><path class="cls-2" d="M317.05,43.49c.2-2.98.56-5.96,1-8.93.24-2.01.33-4.02.41-6.11.11-.67.14-1.41.25-2.16.68-2.67,4.16-3.41,6.78-3.27,1.06.05,2.2.27,3.34.48.81.12,1.54.39,2.36.36,1.23.07,1.84.79,2.27,1.71.21.54.34,1.15.3,1.74-.05,2.02.14,4.13-.31,6.12-.31,1.1-.47,2.29-.54,3.41-.39,6.11-.79,12.3-1.18,18.42-.13,2.09.31,2.49,2.38,2.93,3.85.71,7.71,1.09,11.49,1.56,3.55.39,3.86,1.32,3.74,4.24-.02,1.88-.2,3.81-.53,5.65-.4,2.59-1.66,3.82-4.36,4.26-1.54.17-3.07.26-4.64-.08-2.16-.55-4.38-.41-6.58-.56-3.41-.23-6.81-.44-10.22-.61-.23-.01-.46.05-.68-.03-3.76-.79-4.95-1.35-5.38-5.71-.17-1.43-.27-2.85-.28-4.35-.02-1.42.12-2.91.19-4.7.34-4.55-.09-9.42.19-14.35Z"/><path class="cls-2" d="M396.46,54.41c-.3,2.3-1.14,4.43-1.81,6.59-.85,2.74-3.75,8.39-5.93,10.4-3.15,3.67-5.62,5.7-10.62,6.87-2.93.64-5.94.91-9,.29-.52-.14-1.32-.39-1.83-.61-1.37-.62-2.75-1.24-4.21-1.86-1.97-.83-3.34-2.19-4.61-3.91-1.67-2.29-2.25-4.9-3.16-7.32-.35-1.09-.62-2.24-1.07-3.26-.56-1.41-.66-2.77-.75-4.2-.15-2.42-.16-4.75.14-7.04-.31-3.33.39-6.49.63-9.77.23-3.2.55-6.48.87-9.75.25-1.78,1-3.51,1.65-5.17.12-.44.67-.91,1.11-1.17,1.29-.55,2.52-1.17,3.99-1.02,2.63.2,5.16.49,7.77.87,1.31.15,1.74.66,1.52,1.84-.16,1.33.18,2.58.03,3.84-.15,1.26-.07,2.62-.06,3.91-.06,1.8-.13,3.75-.76,5.55-.22.5-.37,1.01-.44,1.6-.45,3.03-.83,6.15-1.2,9.19-.32,2.67-.25,5.31.06,7.98.15,1.98,1.71,3.37,3.29,4.48.57.45,1.24.69,1.86.77.69.09,1.41-.04,2.1-.47,1.53-.85,2.92-1.79,3.62-3.42.55-1.13,1.07-1.43,1.41-2.67.19-.8.62-2.1.73-2.31.91-1.38.82-2.37,1.04-3.93.43-3.03.87-6.06,1.29-9.02.71-4.95,1.2-7.83,2.88-12.57.41-1.15,2.14-2.11,3.6-1.88,2.05.23,4,.53,5.95.92,1.47.23,2.5,1.08,2.7,2.4.29,1.79.59,3.5.31,5.2-.64,3.38-1.12,6.78-1.69,10.17-.46,2.8-1.02,5.66-1.4,8.48Z"/><path class="cls-2" d="M400.25,73.02c.49-2.34.83-4.71,1.11-7.16.27-2.45.7-4.88,1.13-7.31,1.22-7.37,2.52-14.73,3.73-22.1.23-1.33.71-2.61,1.35-3.86.59-.96,1.35-1.51,2.64-1.65,1.46-.19,2.89-.23,4.41.2.16.03.41.08.57.11,1.54.29,3,.11,4.49.71,2.59.96,5.45,1.39,8.15,2.18,6.23,1.69,9.48,3.87,13.11,8.93.46.57.56,1.2.66,1.84.77,4.63-.39,8.73-3.53,12.3-.99,1.07-1.98,2.15-3.37,2.9-.74.37-.66.77-.07,1.37,2.96,2.75,3.92,6.28,3.98,10.06.02,2.31-.51,4.49-1.41,6.58-1.06,2.44-2.61,4.6-4.54,6.45-2.46,2.42-5.69,2.9-8.94,2.42-2.34-.36-4.68-.33-7.08-.37-.92-.04-1.92-.09-2.89-.29-.6-.12-1.12-.23-1.68-.49-2.38-.86-4.85-1.34-7.31-1.8-1.64-.31-2.88-1.14-4.19-1.99-1.1-.73-1.55-1.72-1.33-2.97.29-2.07.72-4.05,1.07-6.03-.03,0-.05,0-.08-.01ZM412.81,71.57c.15,1.25.26,1.5,1.54,1.83,2.05.41,4.16.92,6.27,1.06,1.55.17,2.95-.06,4.34-.6,1.13-.44,1.54-1.19,1.51-2.19-.08-1.09-.16-2.18-.4-3.3-.31-1.52-2.51-3.67-4.1-3.78-1.43-.07-2.73-.41-3.98-.97-.6-.2-1.31-.26-2.01-.4-.85-.17-1.32.19-1.47.93-.37,1.45-.96,3.24-1.14,4.19-.17.88-.57,2.1-.56,3.24ZM422.28,43.21c-.67.02-1.49,0-2.41.05-1.33.04-1.83.47-1.9,1.68-.04,2.28-.47,4.47-.84,6.76-.16.81.16,1.25.95,1.41,3.15.55,6.04,0,8.73-1.41.74-.38.94-.94,1.08-1.6.35-2.75-2.4-6.24-5.61-6.82,0-.02,0-.05.01-.07Z"/><path class="cls-2" d="M473.29,45.04c.54.23,1.28.36,1.77.74,3.18,2.46,6.43,4.9,7.87,8.69.97,2.48.82,4.07-1.49,5.79-1.42,1.05-2.94,1.85-4.41,2.81-.85.6-1.73.42-2.6-.06-.45-.21-.87-.49-1.12-.79-.43-.52-4.43-3.68-5.15-4.11-1.07-.69-2.7-.59-3.49.12-.78.71-1.02,2.82-.35,3.7.45.51.99.97,1.55,1.36,1.82,1.28,3.57,2.48,4.91,4.19.36.49.91.88,1.53,1.07,1.18.27,1.76,1.14,2.41,2.03,2.09,3.11,3.39,6.48,3.29,10.04-.17,5.42-2.35,9.98-6.98,13.03-4.86,3.3-9.38,2.74-14.83,2.08-.61-.09-1.24-.11-1.79-.42-2.95-1.66-6.08-2.96-8.37-5.71-1.9-2.42-4.87-7.4-4.96-10.65-.09-1.25.23-2.25,1.37-2.97,1.14-.72,2.17-1.62,3.26-2.42,1.2-.93,2.93-1.65,4.54-1.24,1.83.47,2.92,2.54,3.32,4.11.87,3.17,3.48,4.56,6.22,5.79,1.13.31,2.94-.65,3.51-1.5.59-.92.56-2.56-.11-3.37-1.27-1.29-2.36-2.68-4.12-3.46-.59-.24-1.14-.62-1.52-1.03-1.75-2.02-4.07-3.48-5.97-5.36-2.23-2.19-2.6-4.98-2.72-7.78,0-.69.25-1.32.16-1.96-.33-3.01.96-5.53,2.28-8.13.13-.2.28-.47.52-.72,2.55-2.13,5.13-4.25,8.52-5.14,2.75-.75,5.69-1.12,8.71.1.46.2.88.24,1.36.38.96.27,1.92.53,2.88.8Z"/></g></svg>