<?xml version="1.0" encoding="UTF-8"?><svg id="Layer_2" xmlns="http://www.w3.org/2000/svg" xmlns:xlink="http://www.w3.org/1999/xlink" viewBox="0 0 710.71 165.68"><defs><style>.cls-1{fill:#12d0ff;}.cls-2{fill:#1d3072;}.cls-3{fill:#fff;}.cls-4{fill:none;}.cls-5{clip-path:url(#clippath);}</style><clipPath id="clippath"><rect class="cls-4" width="710.71" height="165.68"/></clipPath></defs><g id="Layer_1-2"><g class="cls-5"><path class="cls-1" d="M637.37,155.75c-186.14-45.2-380.41-45.2-566.54,0-28.43,6.87-57.99-8.84-66.31-36.64h0C-3.8,91.36,14.65,61.34,46.06,53.73c202.41-49.15,413.67-49.15,616.09,0,31.4,7.61,49.86,37.63,41.54,65.38h0c-8.32,27.79-37.88,43.5-66.31,36.64Z"/><path class="cls-3" d="M74.93,100.85c2.23,9.89-4.32,19.8-14.59,22.31-10.27,2.51-20.67-3.24-23.27-13.04-2.59-9.79,3.9-20.01,14.53-22.61,10.64-2.61,21.09,3.46,23.32,13.34Z"/><path class="cls-3" d="M672.4,110.46c-2.6,9.8-13.01,15.54-23.28,13.01-10.27-2.53-16.81-12.44-14.57-22.33,2.24-9.88,12.7-15.93,23.34-13.31,10.63,2.61,17.12,12.84,14.51,22.63Z"/><path class="cls-2" d="M115.26,86.02c-.71-2.3-1.34-4.6-2.41-6.75-.56-1.18-.88-2.34-.9-3.63-.14-2.64,1.71-4.69,4.51-4.8,1.52-.07,2.91-.35,4.4-.57,2.96-.5,4.59.41,5.66,3.09.7,1.54,1.16,3.12,1.4,4.83.28,1.47.58,3.01,1.09,4.43.17.5.35,1,.37,1.53.49,5.91,1.91,11.65,2.87,17.48.41,2.13.59,4.3.16,6.51-.25.73-.17,1.55-.24,2.4-.12,1.4-.33,2.73-1.09,4.01-.11.25-.3.44-.39.76-.8,4.27-4.26,6.24-7.64,8.22-.47.32-1.13.53-1.64.64-3.96.65-7.95,1.12-11.78-.43-.61-.33-1.27-.49-1.87-.74-3.96-1.05-6.38-3.88-8.2-7.15-1.58-2.86-2.5-5.95-3.56-8.93-.34-1.15-.45-2.35-.39-3.51.14-1.87,1.03-3.21,2.68-4.04,1.78-.93,3.6-1.71,5.5-2.11,2.67-.5,4.24.17,5.49,2.35.64,1.16,1.14,2.43,1.71,3.61.93,1.79,2.17,3.21,4.15,4.09.68.24,1.1.38,1.47.31,1.73-.36,1.99-4.45,1.89-5.72-.22-2.24-.8-4.33-1.31-6.44-.13-.66-.27-1.32-.46-2.27-.6-2.17-.65-4.75-1.46-7.18Z"/><path class="cls-2" d="M178.23,86.75c.13.89.27,1.77.4,2.66.66,3.9-.51,7.48-1.9,11.02-1.51,3.78-3.86,6.94-6.37,9.99-1.16,1.4-2.89,2.05-4.35,2.97-1.88,1.15-3.77,1.76-5.86,2.11-2.01.34-4.22.42-6.37.41-1.77,0-3.4-.54-4.86-1.8-1.63-1.38-3.26-2.68-4.37-4.53-.32-.47-.79-.92-1.17-1.31-2.08-2.05-3.47-4.53-5.01-6.9-2.46-3.95-2.79-8.22-2.91-12.68-.19-6.12,1.5-11.53,6.05-15.99,1.77-1.69,8.42-6.18,10.92-6.6,1.48-.25,2.89-.41,4.38-.58.85-.14,1.67-.05,2.44.28,1.51.44,3.13.63,4.69.91,5.23.83,8.55,3.35,11.02,7.67,1.67,3.22,2.94,6.51,3.03,10.2.03.75.22,1.48.32,2.14-.03,0-.05,0-.08.01ZM165.33,86.79c.11-1.76-1.04-3.08-2.09-4.2-1.15-1.25-4.77-2.18-6.53-1.88-1.46.24-2.82,1.08-3.91,2.1-2.39,2.15-3.75,4.74-3.9,7.95.03,1.06.04,2.04.15,3.08.32,3.13,2.35,5.36,5.49,6.02,1.45.28,3.01.32,4.44.08,1.06-.17,2-.57,2.71-1.44,2.74-3.18,4.51-6.72,3.73-11.06-.04-.22-.15-.43-.11-.66Z"/><path class="cls-2" d="M185.59,63.79c1.87-.27,3.74-.52,5.68-.79.87-.04,1.62.24,2.18.91,1.05,1.37,2.52,2.3,3.91,3.25,2.24,1.44,4.34,3.05,6.28,4.77.27.27.53.46.88.72.69.52.85.5,1.37-.32,1.65-2.47,2.99-5.03,4.24-7.75.44-.95.88-1.91,1.4-2.8.79-1.3,1.89-2.11,3.71-2.09,3.8.09,7.52-.55,11.27-.95.7-.08,1.41-.15,2.04-.14,1.68.2,2.43,1.4,1.79,2.82-.45.95-1.08,1.77-1.77,2.66-2.14,2.78-4.09,5.77-5.94,8.83-.85,1.52-1.93,3-3.02,4.32-.68.83-1.29,1.65-1.56,2.66-.49,1.79-1.31,3.46-2.12,5.13-.64,1.13-.81,2.28-.66,3.54.33,4.7,1.25,9.26,1.88,13.92.59,4.37.4,4.69-3.86,5.28-1.2.15-2.46.38-3.65.6-2.43.61-4.73-.08-7.04-.3-.69-.06-.99-.54-1.14-1.13-.07-.52-.21-1.03-.21-1.55.05-3.7-.74-7.36-.78-11.13.04-1.44-.3-2.9-.42-4.39-.08-.59-.37-1.08-.89-1.47-1.85-1.64-3.5-3.53-5.64-4.97-1.82-1.34-3.52-2.91-5.09-4.58-2.38-2.46-4.91-4.74-7.79-6.66-1.04-.6-1.87-1.46-2.63-2.33-2.08-2.26-1.16-4.59,1.86-5.18,1-.22,2.01-.37,2.94-.5.93-.13,1.87-.26,2.72-.39.03,0,.05,0,.08-.01Z"/><path class="cls-2" d="M246.65,78.37c-.25-1.93.03-3.9-.46-5.89-.5-2.06-1.35-2.88-3.6-2.74-1.7.16-3.39.4-5.17.64-.84.16-1.64.02-2.44-.21-1.98-.33-2.88-1.44-3.3-3.27-.58-2.64-.94-5.31-1.06-8-.08-.74,0-1.5.41-2.15.42-.57.85-.99,1.64-.99.39-.04.77-.15,1.17-.19,3.31-.1,6.57-.72,9.82-1.39,1.78-.39,3.58-.55,5.39-.71,3.06-.27,6.2-.38,9.26-.62,3.37-.27,6.75-.37,10.15-.24,2.37.13,3.61.95,4.15,3.16.32,1.25.4,2.45.33,3.72-.07,1.28-.06,2.63-.2,3.91-.12,1.73-.9,2.76-2.67,3.1-2.53.55-4.99,1.03-7.52,1.53-1.92.37-2.28.7-2.06,2.48.26,3.35.52,6.63.63,9.99.05,1.65.49,3.33.77,4.96.49,3.33,1.06,6.66,1.54,9.92.31,2,.31,3.95-.22,5.86-.66,2.15-2.3,3.41-4.56,3.51-.46-.04-.92-.15-1.28.03-.44.19-.88.3-1.33.34-1.5.13-2.85-.58-4.12-1.29-1.44-.85-2.18-2.35-2.33-3.99-.36-4.02-1.33-7.98-1.49-11.42-.49-3.71-1.01-6.89-1.45-10.07Z"/><path class="cls-2" d="M319,74.16c.03.9.05,1.79.08,2.69.19,3.96-1.39,7.37-3.18,10.71-1.94,3.58-4.65,6.44-7.49,9.17-1.31,1.25-3.11,1.69-4.66,2.44-2,.91-3.94,1.3-6.05,1.4-2.03.1-4.23-.09-6.36-.35-1.75-.21-3.3-.94-4.59-2.36-1.45-1.56-2.91-3.05-3.79-5.01-.26-.51-.67-1.01-1-1.44-1.82-2.28-2.9-4.91-4.14-7.45-1.96-4.21-1.79-8.49-1.38-12.94.53-6.1,2.85-11.27,7.88-15.16,1.95-1.47,9.06-5.14,11.58-5.25,1.49-.07,2.91-.06,4.4-.06.86-.04,1.66.15,2.38.57,1.44.61,3.03,1,4.54,1.46,5.08,1.45,8.07,4.35,10,8.92,1.27,3.4,2.15,6.81,1.79,10.48-.05.75.04,1.49.06,2.17-.03,0-.05,0-.08,0ZM306.22,72.66c.32-1.73-.67-3.19-1.57-4.42-.99-1.38-4.46-2.73-6.25-2.64-1.47.07-2.92.74-4.11,1.62-2.62,1.85-4.28,4.26-4.8,7.43-.1,1.05-.2,2.03-.22,3.08-.06,3.14,1.69,5.59,4.73,6.63,1.4.45,2.94.68,4.39.61,1.07-.05,2.05-.32,2.85-1.1,3.08-2.83,5.26-6.13,5-10.53,0-.22-.09-.44-.03-.67Z"/><path class="cls-2" d="M324.8,72.21c-.12-4.71.08-9.34.12-14.05-.04-1.57.23-3.22.67-4.72,1.16-3.92,7.98-5.11,11.52-5.15,3.15-.05,8.82.95,11.8,2.06,3.22,1.18,5.11,3.65,6.28,6.64,2.42,5.61,2.38,11.36.3,17.11-1.47,4.03-4.37,6.72-8.18,8.54-2.21.99-4.57,1.3-7.02,1.04-.92-.14-1.53-.2-1.91-.2-.99.02-.91.61-.88,2.63.12,3.29-.51,6.51-.09,9.79.16.82-.05,1.65-.19,2.39-.27,1.87-.87,2.33-2.75,2.43-1.35.02-2.63.2-3.98.3-.98.09-1.88-.03-2.87-.24-1.74-.33-2.83-1.57-2.8-3.44.02-2.16-.03-4.33-.09-6.5-.31-6.27.22-12.41.07-18.61ZM338.17,69.04c0,.08,0,.15,0,.22.17,1.34.64,2.01,1.72,2,.69,0,1.46-.24,2-.62,1.07-.61,1.84-1.51,2.6-2.42,1.23-1.5,1.14-3.07.43-4.71-.79-1.71-1.97-2.9-4.15-2.87-1.95.02-2.79.63-2.85,2.5.01.9-.05,1.87.04,2.84.17.89.18,2.02.2,3.06Z"/><path class="cls-2" d="M377.7,63.03c0,.45-.02.9.05,1.35.05,1.42.1,2.77-.24,4.18-.09.45-.17.97-.03,1.49.48,3.15-.35,6.19-.56,9.33-.18,1.64-.21,3.21-.32,4.85-.24,4.41-.47,8.88-.7,13.29-.21,3.21-2.19,4.44-5.19,4.4-.98-.02-2.03-.25-3-.41-.83-.08-1.58-.24-2.4-.32-1.8-.24-2.92-1.37-3.14-3.16,0-.22,0-.45,0-.67-.12-5.23-.16-10.53-.2-15.76-.06-2.24-.2-4.56-.34-6.8-.21-3.14-.12-6.28.13-9.41.09-1.49.25-3.06.26-4.56.09-1.27.17-2.46.34-3.73.17-1.42.1-2.91.19-4.33.02-2.69.35-5.16,3.89-5.5,1.26-.14,2.52-.12,3.78-.11,1.26.02,2.52.04,3.78.21,3.3.43,4.36,2.32,4.24,4.78-.03,1.57-.06,3.21-.09,4.78-.12,2.09-.16,4.11-.43,6.12Z"/><path class="cls-2" d="M384.34,100.84c-2.55-.21-3.43-1.21-3.23-3.67.2-2.31.63-4.54,1.52-6.61,1.93-4.51,3.51-9.18,5.32-13.69.66-1.55,1.25-3.18,1.98-4.65,1.32-2.73,1.72-5.78,2.9-8.51,1.18-2.95,2.3-5.91,3.49-8.78.34-.73.68-1.47,1.17-2.2,1.66-2.48,2.3-2.84,5.53-3.01.55-.05,1.11-.11,1.58-.16,2.69-.26,5.02.52,7.24,1.67.77.33,1.13.96,1.41,1.64.91,2.29,2.06,4.44,3.19,6.59.58.93.91,1.99,1.25,3.06,1.31,4.78,2.99,9.51,4.72,14.18.73,1.98,1.15,4.03,1.96,6.03.33.84.67,1.61,1.08,2.38.56.93.88,1.85,1.13,2.84.62,2.28,1.24,4.57,1.86,6.78.42,1.75.31,3.54-.1,5.23-.3,1.18-1.04,2.03-2.47,2.09-1.59.05-3.19.33-4.78.46-.68.11-1.36,0-2.04.03-1.28-.07-2.37-.73-2.76-1.87-.46-1.3-1.46-2.32-1.93-3.62-.46-1.3-1.33-2.09-2.94-1.87-.69.11-1.44-.07-2.19-.26-.6-.18-1.28-.2-1.96-.16-.61.04-1.29.09-1.97-.01-2.11-.39-4.25.12-6.35-.41-.75-.18-1.07.33-1.32.92-.41.88-.9,1.84-1.31,2.72-.16.3-.25.58-.41.81-1.12,1.91-2.6,3.2-5.06,2.67-.45-.09-.98-.11-1.5-.12-1.65-.13-3.38-.32-5.03-.51ZM405.58,81.99c.28.01.56.02.84.04,1.99,0,2.8-.92,2.51-2.88,0-.15-.14-.38-.13-.6-.24-3.23-1.65-6.14-2.68-9.17-.06-.38-.28-.76-.74-.78-.54-.02-.79.34-.96.78-1.13,2.87-2.95,8.03-3.07,11.09.04.97.55,1.52,1.55,1.56.84-.04,2.3-.05,2.68-.04Z"/><path class="cls-2" d="M462.77,55.92c.54-2.5,1.57-2.56,3.92-2.34,2.04.19,4.05-.22,6.08.05.86.08,1.66.02,2.5.32.31.03.62.14.93.17,1.03-.05,2.05.06,3.07.16,2.35.24,4.75.72,7.17,1.06,3.74.56,7.4,1.88,7.29,6.16.02,1.88-.74,3.67-1.34,5.48-.84,2.53-4.52,2.49-6.76,2.25-3.02-.33-6.08-.21-9.07-.81-.69-.15-1.22-.27-1.61-.31-.85-.09-.9.36-1.17,2.29-.17.96-.73,1.88-.46,3.03.23.85.64,1.41,1.55,1.66,1.6.31,3.29.56,4.89.88,1.59.39,3.27.73,4.85,1.2,1.9.43,3.64,1.53,3.56,3.63-.13,2.54-.8,5.02-1.69,7.4-.44,1.16-1.35,1.73-2.59,1.82-2,0-3.83-.12-5.81-.33-1.75-.19-3.46.02-5.14-.08-.54.02-.87.28-.99.73-.19,1.11-.38,2.22-.48,3.26-.29,2.9-.51,5.8-1.1,8.68-.48,2.51-1.05,2.9-3.64,3.09-1,.13-2.05.03-3.02-.06-.45-.04-.98-.09-1.43-.13-.53-.05-.98-.09-1.51-.07-1.5-.13-2.58-1.58-2.67-3.09-.05-2.03-.09-4.06.08-6.07.51-4.83,1.03-11.54,1.28-14.44.26-2.91,1.02-10.56,1.57-15.91.37-3.27,1.04-6.43,1.73-9.67Z"/><path class="cls-2" d="M504.43,110.1c-1.3.06-2.59.04-3.94-.13-4.26-.54-7.05-2.6-6.55-7.36.09-1.42.33-2.74.42-4.16.47-5.21.64-10.46,1.34-15.71.69-5.11,1.38-10.22,2.61-15.26.44-1.68.42-3.49.78-5.17.18-.81.27-1.62.68-2.33.85-1.78,1.54-2.22,3.51-2.13.63,0,1.26.08,1.81.15,1.09.14,2.19.27,3.24.11,2.11-.33,4.15-.14,6.16.28,1.63.29,3.19.5,4.81.35,1.12-.07,2.23,0,3.4.17,1.41.2,2.87.55,4.31,1.06.31.04.6.24.92.28,1.49.14,2.86.65,3.99,1.56.71.56,2.09.39,2.36,1.26.29,1.25.32,2.62-.1,3.84-.44,1.37-.64,2.7-.85,4.1-.16,1.03-.3,2-.45,3.03-.27,1.24-.61,1.42-1.92,1.22-5.47-.82-10.98-1.37-16.52-2.26-.46-.07-1-.13-1.55-.13-1.71-.15-2.58.48-2.86,2.03-.27,1.47-.39,2.96-.57,4.37-.08.59.17,1.08.78,1.16,1.22.23,2.4.7,3.74.65,1.26-.06,2.49.04,3.72.21,1.76.24,3.51.64,5.26.97.45.14.96.36.98.82.16,1.08.72,2.07.56,3.18-.25,1.7-.42,3.41-.73,5.03-.22,1.55-1,2.12-2.61,1.96-.85-.04-1.69-.09-2.43-.34-.88-.35-1.86-.56-2.77-.69-.99-.14-1.99-.2-3-.11-.7.06-1.31-.02-1.99-.19-.6-.16-1.21-.24-1.75-.23-1.01.02-1.36.35-1.55,1.23-.13.43-.19.88-.16,1.26-.3,2.3-.29,2.22,1.97,2.6,3.54.62,7.02.5,10.46.69,1.85.04,3.59.29,5.39.63,1.94.44,2.69,1.15,2.85,3.14.33,2.92-.18,5.79-1.13,8.59-.53,1.51-1.76,2.08-3.5,1.97-2.81-.11-5.58-.43-8.17-1.02-3.74-.52-7.35-.86-10.95-.65Z"/><path class="cls-2" d="M560.88,65.07c.53.17,1.24.22,1.75.53,3.24,2.08,6.57,4.12,8.31,7.7,1.17,2.34,1.19,3.94-.84,5.92-1.25,1.21-2.62,2.18-3.93,3.31-.76.7-1.61.62-2.5.24-.45-.16-.88-.38-1.15-.66-.47-.47-4.59-3.15-5.33-3.5-1.09-.57-2.64-.29-3.33.5-.69.8-.73,2.91,0,3.71.47.46,1.04.86,1.61,1.18,1.87,1.08,3.66,2.06,5.12,3.62.39.45.97.78,1.58.88,1.16.13,1.8.93,2.52,1.74,2.32,2.85,3.93,6.03,4.22,9.57.41,5.4-1.19,10.19-5.39,13.75-4.4,3.83-8.91,3.79-14.33,3.7-.61-.03-1.23.02-1.8-.23-3.06-1.35-6.27-2.33-8.78-4.85-2.09-2.23-5.43-6.9-5.79-10.13-.2-1.24.04-2.26,1.09-3.08,1.05-.82,1.98-1.81,2.98-2.71,1.09-1.04,2.71-1.92,4.3-1.66,1.82.29,3.06,2.23,3.59,3.76,1.13,3.06,3.81,4.18,6.59,5.11,1.13.2,2.8-.96,3.27-1.87.48-.98.29-2.6-.44-3.33-1.36-1.14-2.55-2.41-4.32-3.01-.59-.17-1.16-.5-1.57-.87-1.88-1.83-4.26-3.05-6.26-4.73-2.34-1.96-2.93-4.7-3.28-7.48-.05-.69.13-1.34,0-1.97-.56-2.96.48-5.6,1.53-8.31.11-.21.23-.49.44-.76,2.27-2.37,4.56-4.73,7.71-5.96,2.56-1.02,5.32-1.71,8.29-.83.45.15.86.15,1.32.22.93.16,1.87.31,2.8.48Z"/><path class="cls-2" d="M586.78,96.4c.3-1.92,1.14-3.73,1.23-5.77.1-2.11-.49-3.14-2.69-3.65-1.68-.33-3.38-.58-5.15-.85-.86-.08-1.58-.46-2.29-.89-1.82-.88-2.36-2.19-2.25-4.07.19-2.7.6-5.36,1.25-7.97.14-.73.43-1.44,1-1.94.56-.43,1.1-.71,1.86-.49.39.07.79.07,1.18.15,3.21.84,6.52,1.18,9.85,1.46,1.82.13,3.61.49,5.39.85,3.02.61,6.08,1.4,9.1,2.04,3.32.7,6.61,1.57,9.85,2.66,2.25.8,3.21,1.93,3.11,4.21-.05,1.29-.31,2.46-.74,3.66-.43,1.21-.8,2.5-1.31,3.69-.6,1.63-1.65,2.39-3.46,2.22-2.6-.19-5.1-.43-7.68-.67-1.95-.19-2.4.03-2.69,1.79-.7,3.29-1.38,6.5-2.23,9.76-.42,1.59-.47,3.33-.66,4.98-.47,3.34-.87,6.69-1.33,9.95-.27,2.01-.82,3.87-1.88,5.56-1.25,1.87-3.18,2.61-5.39,2.07-.43-.16-.84-.41-1.24-.33-.47.05-.93.04-1.38-.05-1.48-.3-2.58-1.37-3.6-2.41-1.14-1.22-1.43-2.88-1.11-4.49.79-3.95.98-8.03,1.81-11.37.58-3.69.98-6.89,1.46-10.07Z"/></g></g></svg>