<?xml version="1.0" encoding="UTF-8"?><svg id="Layer_2" xmlns="http://www.w3.org/2000/svg" viewBox="0 0 972.04 141.16"><defs><style>.cls-1{fill:#12d0ff;}.cls-2{fill:#1d3072;}.cls-3{fill:#fff;}</style></defs><g id="Layer_1-2"><path class="cls-1" d="M920.77,127.93c-285.68-69.39-583.84-69.39-869.51,0-28.24,6.84-57.26-9.27-65-36.98h0C-21.47,63.27-3.46,34.07,26.69,26.76c301.82-73.32,616.84-73.32,918.66,0,30.15,7.31,48.16,36.52,40.42,64.19h0c-7.74,27.7-36.76,43.82-65,36.98Z"/><path class="cls-3" d="M56.69,73.13c2.45,10.64-4.45,21.31-15.39,23.98-10.94,2.67-22-3.62-24.72-14.18-2.73-10.56,4.13-21.47,15.35-24.2,11.21-2.74,22.31,3.77,24.76,14.41Z"/><path class="cls-3" d="M959.27,83.9c-2.75,10.56-13.82,16.83-24.76,14.13-10.93-2.7-17.81-13.38-15.34-24.01,2.47-10.63,13.59-17.12,24.8-14.35,11.21,2.76,18.05,13.68,15.3,24.24Z"/><path class="cls-2" d="M104.28,55.98c-.75-2.28-1.43-4.58-2.55-6.7-.58-1.17-.92-2.32-.98-3.61-.2-2.64,1.57-4.72,4.34-4.88,1.5-.1,2.87-.41,4.33-.66,2.91-.57,4.54.3,5.68,2.96.73,1.52,1.23,3.1,1.52,4.79.32,1.46.65,2.99,1.2,4.4.19.49.37.99.41,1.52.65,5.9,2.21,11.6,3.31,17.4.46,2.12.7,4.28.32,6.51-.23.74-.13,1.56-.18,2.41-.08,1.4-.26,2.73-.98,4.04-.1.25-.29.45-.38.77-.69,4.28-4.12,6.34-7.46,8.4-.47.34-1.12.56-1.63.68-3.95.74-7.94,1.28-11.8-.19-.62-.32-1.28-.47-1.88-.71-3.98-.98-6.44-3.77-8.32-7.01-1.62-2.84-2.59-5.91-3.7-8.87-.35-1.15-.48-2.34-.45-3.5.11-1.87.97-3.23,2.59-4.07,1.75-.96,3.55-1.76,5.42-2.2,2.65-.54,4.22.09,5.51,2.25.66,1.15,1.19,2.41,1.77,3.58.96,1.77,2.23,3.17,4.23,4.01.68.23,1.1.36,1.48.28,1.71-.39,1.89-4.49,1.76-5.76-.27-2.24-.9-4.32-1.45-6.41-.15-.66-.3-1.31-.51-2.26-.65-2.15-.75-4.73-1.61-7.14Z"/><path class="cls-2" d="M166.84,54.92c.17.88.33,1.76.5,2.64.81,3.88-.22,7.49-1.48,11.08-1.36,3.83-3.6,7.08-6,10.21-1.11,1.43-2.82,2.15-4.25,3.12-1.85,1.21-3.72,1.88-5.79,2.3-2,.41-4.22.55-6.37.61-1.77.06-3.42-.44-4.91-1.65-1.67-1.33-3.34-2.58-4.5-4.4-.33-.46-.81-.9-1.2-1.27-2.14-1.99-3.59-4.43-5.19-6.76-2.55-3.88-3-8.14-3.25-12.6-.36-6.11,1.16-11.56,5.53-16.14,1.7-1.73,8.13-6.42,10.58-6.9,1.45-.29,2.84-.5,4.31-.71.84-.17,1.65-.1,2.42.2,1.51.39,3.12.53,4.67.76,5.2.66,8.59,3.06,11.2,7.28,1.78,3.16,3.17,6.4,3.4,10.08.06.75.28,1.47.4,2.13-.03,0-.05,0-.08.01ZM154.02,55.41c.05-1.76-1.15-3.05-2.23-4.13-1.18-1.21-4.81-2.02-6.55-1.67-1.44.29-2.76,1.17-3.81,2.22-2.31,2.22-3.58,4.85-3.62,8.06.06,1.06.11,2.04.24,3.08.41,3.12,2.5,5.28,5.66,5.85,1.45.24,3.01.23,4.43-.06,1.05-.21,1.98-.63,2.66-1.52,2.62-3.27,4.26-6.86,3.34-11.17-.04-.22-.16-.43-.13-.66Z"/><path class="cls-2" d="M173.22,31.7c1.84-.33,3.67-.67,5.59-1.01.86-.08,1.61.17,2.2.82,1.1,1.32,2.6,2.19,4.01,3.08,2.28,1.34,4.43,2.87,6.44,4.49.28.25.55.44.9.68.71.48.86.46,1.34-.38,1.52-2.53,2.73-5.17,3.83-7.93.39-.97.77-1.95,1.25-2.86.72-1.33,1.76-2.19,3.56-2.26,3.77-.09,7.41-.91,11.09-1.49.69-.11,1.38-.22,2.01-.24,1.67.11,2.48,1.28,1.92,2.72-.4.97-.97,1.81-1.61,2.75-1.98,2.88-3.75,5.96-5.43,9.11-.76,1.56-1.76,3.09-2.78,4.46-.64.86-1.2,1.71-1.42,2.73-.4,1.81-1.13,3.52-1.86,5.23-.58,1.16-.7,2.31-.49,3.57.55,4.68,1.69,9.18,2.54,13.82.8,4.33.62,4.67-3.61,5.46-1.19.2-2.45.49-3.63.77-2.41.72-4.73.14-7.06.01-.7-.03-1.01-.51-1.19-1.08-.09-.52-.26-1.02-.27-1.55-.11-3.7-1.06-7.32-1.26-11.08-.02-1.44-.43-2.88-.61-4.37-.1-.59-.42-1.06-.95-1.43-1.91-1.56-3.63-3.38-5.83-4.73-1.87-1.26-3.62-2.76-5.25-4.37-2.47-2.36-5.07-4.54-8-6.35-1.05-.56-1.91-1.39-2.7-2.23-2.15-2.18-1.33-4.54,1.63-5.24.98-.26,1.97-.44,2.89-.61.92-.17,1.84-.34,2.68-.49.03,0,.05,0,.08-.01Z"/><path class="cls-2" d="M234.47,43.39c-.36-1.91-.19-3.9-.79-5.85-.61-2.02-1.5-2.8-3.73-2.54-1.68.25-3.34.58-5.09.92-.83.2-1.62.1-2.43-.08-1.98-.22-2.93-1.28-3.45-3.09-.72-2.61-1.21-5.26-1.47-7.94-.12-.74-.08-1.5.29-2.16.38-.59.78-1.03,1.56-1.07.38-.06.76-.19,1.14-.25,3.26-.28,6.45-1.06,9.62-1.91,1.74-.48,3.51-.75,5.28-1,3-.44,6.1-.73,9.11-1.14,3.31-.46,6.65-.77,10.01-.84,2.35-.01,3.62.73,4.3,2.9.4,1.23.55,2.41.56,3.69.01,1.28.11,2.62.05,3.91,0,1.73-.72,2.81-2.45,3.26-2.47.71-4.88,1.34-7.35,1.98-1.88.49-2.22.84-1.89,2.6.46,3.33.92,6.58,1.23,9.94.15,1.64.69,3.3,1.07,4.9.69,3.3,1.45,6.59,2.13,9.81.43,1.98.54,3.92.13,5.87-.54,2.19-2.1,3.53-4.35,3.78-.46-.01-.93-.09-1.28.11-.43.21-.86.35-1.31.41-1.49.21-2.88-.41-4.2-1.05-1.49-.76-2.31-2.23-2.55-3.85-.59-3.99-1.78-7.89-2.13-11.32-.7-3.67-1.39-6.82-2.01-9.97Z"/><path class="cls-2" d="M306.02,34.5c.09.89.19,1.78.28,2.67.49,3.93-.83,7.45-2.37,10.92-1.67,3.71-4.15,6.76-6.79,9.69-1.22,1.34-2.98,1.91-4.48,2.76-1.93,1.05-3.85,1.57-5.94,1.82-2.02.24-4.23.2-6.38.09-1.76-.09-3.36-.72-4.75-2.05-1.55-1.46-3.1-2.85-4.11-4.75-.29-.49-.73-.96-1.09-1.37-1.96-2.16-3.21-4.71-4.6-7.17-2.22-4.08-2.32-8.36-2.2-12.82.13-6.12,2.09-11.42,6.8-15.63,1.83-1.59,8.6-5.73,11.08-6.01,1.47-.17,2.86-.26,4.34-.35.85-.1,1.65.04,2.39.4,1.47.51,3.06.78,4.58,1.14,5.12,1.08,8.29,3.75,10.54,8.17,1.51,3.3,2.63,6.63,2.56,10.32,0,.75.16,1.48.23,2.15-.03,0-.05,0-.08,0ZM293.24,33.94c.19-1.75-.89-3.13-1.88-4.3-1.08-1.31-4.61-2.41-6.37-2.2-1.45.17-2.84.94-3.96,1.9-2.47,2.02-3.95,4.54-4.25,7.74-.03,1.06-.06,2.04,0,3.09.15,3.14,2.06,5.47,5.15,6.3,1.42.35,2.97.47,4.41.3,1.06-.12,2.02-.46,2.76-1.3,2.87-3.04,4.79-6.49,4.22-10.86-.03-.22-.13-.44-.08-.67Z"/><path class="cls-2" d="M311.63,32.12c-.48-4.68-.64-9.32-.96-14.02-.16-1.56-.02-3.23.3-4.76.84-3.99,7.47-5.7,10.95-6.02,3.1-.29,8.76.24,11.8,1.1,3.27.91,5.34,3.21,6.74,6.09,2.86,5.39,3.31,11.12,1.74,17.02-1.11,4.14-3.77,7.06-7.41,9.19-2.11,1.16-4.44,1.67-6.89,1.6-.92-.06-1.54-.08-1.92-.05-.99.09-.85.68-.66,2.69.38,3.26,0,6.53.69,9.77.23.8.08,1.64,0,2.4-.12,1.89-.68,2.39-2.55,2.64-1.35.13-2.61.4-3.95.61-.97.17-1.88.11-2.88-.01-1.76-.2-2.94-1.36-3.06-3.22-.14-2.16-.36-4.32-.58-6.47-.79-6.23-.73-12.39-1.35-18.56ZM324.63,27.92c0,.07.01.15.02.22.28,1.33.8,1.95,1.87,1.85.69-.06,1.43-.36,1.93-.78,1.01-.69,1.7-1.65,2.38-2.62,1.09-1.6.88-3.15.04-4.73-.92-1.64-2.18-2.73-4.33-2.53-1.92.18-2.71.85-2.61,2.72.08.89.1,1.87.27,2.83.24.88.34,2,.44,3.03Z"/><path class="cls-2" d="M363.21,18.6c.03.45.06.9.17,1.33.18,1.41.35,2.75.14,4.18-.04.45-.08.98.11,1.49.76,3.09.21,6.2.28,9.34-.04,1.65.08,3.22.12,4.86.16,4.41.33,8.89.49,13.3.08,3.21-1.78,4.62-4.79,4.84-.98.07-2.04-.07-3.03-.15-.83-.01-1.59-.1-2.43-.11-1.82-.08-3.03-1.11-3.4-2.88-.02-.22-.04-.45-.05-.67-.57-5.2-1.06-10.48-1.56-15.69-.25-2.23-.59-4.52-.92-6.75-.48-3.11-.66-6.24-.68-9.39-.04-1.5-.01-3.07-.13-4.56-.02-1.27-.04-2.47.01-3.75.04-1.43-.16-2.91-.19-4.33-.21-2.68-.1-5.17,3.36-5.81,1.23-.25,2.47-.34,3.71-.43,1.24-.09,2.48-.18,3.73-.13,3.28.14,4.5,1.92,4.6,4.39.11,1.57.23,3.2.34,4.77.07,2.09.21,4.1.13,6.13Z"/><path class="cls-2" d="M373.23,55.65c-2.57.02-3.53-.88-3.55-3.35,0-2.32.22-4.58.91-6.73,1.51-4.67,2.64-9.46,4.02-14.12.51-1.6.94-3.28,1.53-4.81,1.05-2.84,1.16-5.91,2.07-8.74.89-3.05,1.71-6.09,2.61-9.07.26-.76.53-1.53.95-2.3,1.4-2.63,2-3.04,5.16-3.52.54-.1,1.08-.21,1.54-.31,2.61-.52,4.98.03,7.28.96.79.26,1.21.84,1.55,1.49,1.12,2.19,2.46,4.21,3.8,6.24.66.87,1.1,1.89,1.53,2.92,1.77,4.63,3.9,9.16,6.09,13.63.93,1.9,1.55,3.9,2.55,5.79.42.8.83,1.53,1.32,2.26.65.87,1.06,1.75,1.41,2.71.85,2.21,1.7,4.42,2.55,6.55.6,1.69.67,3.49.44,5.22-.18,1.2-.82,2.13-2.24,2.34-1.57.22-3.14.66-4.71.95-.67.18-1.35.14-2.02.24-1.28.06-2.43-.49-2.94-1.58-.59-1.25-1.69-2.16-2.28-3.41-.59-1.24-1.53-1.94-3.1-1.57-.67.19-1.43.07-2.2-.04-.61-.12-1.29-.08-1.97.03-.6.11-1.28.22-1.96.18-2.13-.18-4.21.53-6.35.21-.76-.11-1.04.44-1.23,1.05-.32.92-.72,1.91-1.04,2.83-.13.31-.19.61-.33.84-.94,2-2.28,3.43-4.79,3.14-.46-.04-.98-.01-1.51.02-1.66.03-3.4,0-5.06-.04ZM392.55,34.87c.28-.02.56-.03.84-.05,1.97-.18,2.68-1.19,2.2-3.11,0-.15-.17-.36-.18-.59-.55-3.19-2.23-5.94-3.54-8.86-.1-.37-.35-.73-.81-.7-.54.03-.75.42-.87.87-.84,2.96-2.14,8.28-1.97,11.34.13.96.69,1.46,1.68,1.4.83-.12,2.27-.28,2.65-.3Z"/><path class="cls-2" d="M446.73,52.36c-2.56-.09-3.49-1.04-3.4-3.51.09-2.32.41-4.57,1.2-6.68,1.71-4.6,3.05-9.34,4.63-13.93.58-1.58,1.08-3.24,1.74-4.74,1.17-2.79,1.42-5.86,2.44-8.64,1.02-3.01,1.97-6.01,3-8.95.3-.75.59-1.5,1.05-2.26,1.51-2.56,2.12-2.95,5.3-3.29.54-.08,1.08-.16,1.55-.24,2.63-.4,4.97.24,7.23,1.27.78.29,1.17.89,1.48,1.56,1.02,2.23,2.27,4.32,3.52,6.4.62.89,1.01,1.94,1.4,2.98,1.56,4.7,3.5,9.33,5.49,13.88.84,1.94,1.38,3.96,2.29,5.9.38.82.76,1.57,1.22,2.32.61.89.99,1.79,1.29,2.77.76,2.24,1.51,4.48,2.26,6.65.52,1.72.52,3.51.21,5.23-.23,1.19-.91,2.09-2.34,2.24-1.58.15-3.16.52-4.74.75-.68.15-1.36.08-2.03.15-1.28,0-2.41-.59-2.87-1.71-.53-1.27-1.59-2.23-2.13-3.5-.54-1.27-1.45-2.01-3.03-1.7-.68.15-1.44.01-2.19-.13-.61-.14-1.29-.14-1.97-.06-.6.08-1.28.16-1.96.09-2.12-.28-4.23.35-6.35-.07-.76-.14-1.05.39-1.27.99-.36.9-.8,1.88-1.16,2.78-.15.3-.22.6-.36.83-1.02,1.96-2.43,3.33-4.92,2.93-.45-.07-.98-.05-1.51-.04-1.66-.04-3.39-.15-5.05-.26ZM466.91,32.44c.28,0,.56,0,.84,0,1.98-.09,2.73-1.07,2.33-3.01,0-.15-.16-.37-.16-.6-.41-3.21-1.97-6.03-3.15-9.01-.08-.37-.32-.74-.78-.74-.54,0-.76.38-.91.83-.96,2.93-2.5,8.18-2.46,11.24.09.97.63,1.49,1.62,1.47.84-.09,2.28-.18,2.66-.18Z"/><path class="cls-2" d="M494.93,18.69c-.13-4.63.05-9.26.31-13.89.09-2.76.95-3.58,3.75-4.16,1.71-.29,3.42-.49,5.13-.48,1.09.01,2.09.1,3.18.26.62.08,1.24.09,1.86.1,1.4-.06,2.63.34,3.94.88,1.77.7,3.7,1.18,5.47,2.04,2.92,1.55,5.59,3.25,6.98,6.27.88,1.89,1.99,3.78,2.87,5.67,2.63,5.52,2.55,11.2,1.41,16.92-.62,3.12-4.11,9.24-5.9,11.74-.55.73-1.09,1.4-1.71,1.98-3.23,2.55-6.66,4.57-10.96,4.73-.23,0-.45,0-.6.07-1.37.95-2.87.63-4.3.61-1.96-.1-3.99-.27-5.95-.44-2.63-.18-5.56-2.65-5.54-6.02,0-1.79-.13-3.51-.2-5.23-.14-1.72-.06-3.36-.05-5.08.18-5.31.52-10.6.31-15.99ZM506.74,19.84c.47,5.39.86,10.7.79,16.15.07.53.06,1.05.67,1.28.83.24,1.59.4,2.43.18,2.44-.86,4.59-2.24,5.78-4.54,1.34-2.52,2.39-5.18,2.14-8.33-.24-3.36-1.65-6.08-3.76-8.66-.15-.23-.45-.38-.68-.53-1.15-.54-2.29-1.08-3.44-1.62-.76-.38-1.61-.4-2.38-.48-.85-.16-1.31.21-1.4,1.03-.01,1.2-.19,2.69-.2,3.51,0,.82.06,1.35.05,2.02Z"/><path class="cls-2" d="M558.6,51.32c-1.65-.15-3.91-.47-6.08-.77-1.43-.13-2.3-1.14-2.93-2.36-2.11-4.27-4.23-8.53-6.06-12.92-2.34-5.09-4.32-10.23-6.31-15.45-.43-1.06-.78-2.19-1.44-3.18-1.91-3.12-2.66-6.65-3.73-10.04-.36-1.13-.18-2.17.24-3.28.49-1.11,1.22-2.06,2.54-2.17,2.1-.24,4.13-.55,6.23-.49,2.72.09,5.96.57,6.79,3.52.41,1.66,1.2,3.11,1.53,4.84.14.38.36.76.65,1.15,2.26,3.75,3.56,7.84,4.85,12,.61,1.9,1.23,3.72,2.07,5.54.28.54.51.54.84-.04.9-1.46,1.36-3.16,1.73-4.71.45-1.62.98-3.1,1.66-4.56.94-2.2,1.97-4.4,2.46-6.77.47-1.85,1.4-3.53,1.95-5.37.91-2.88,4.48-2.93,7.12-2.8,1.55.08,3.17.31,4.79.55,1.78.17,2.78,1.79,2.28,3.79-.31,1.48-.7,2.95-1.24,4.42-1.44,3.89-2.66,7.86-4.39,11.66-.52,1.17-1.04,2.27-1.56,3.44-2.13,4.31-3.65,8.87-5.24,13.43-1.13,3.01-1.96,6.11-3.75,8.87-.9,1.38-1.91,2.08-3.63,1.78-.23-.01-.53-.02-1.36-.06Z"/><path class="cls-2" d="M593.1,55.25c-1.29.14-2.58.21-3.93.13-4.28-.26-7.19-2.15-7-6.92,0-1.42.16-2.76.16-4.18.15-5.23-.01-10.48.36-15.77.37-5.14.74-10.28,1.64-15.4.33-1.7.2-3.51.45-5.21.12-.82.17-1.64.52-2.36.73-1.83,1.38-2.32,3.32-2.35.62-.04,1.24,0,1.79.03,1.09.07,2.17.13,3.2-.1,2.05-.47,4.07-.42,6.08-.14,1.62.18,3.17.29,4.75.02,1.1-.15,2.19-.15,3.35-.07,1.4.1,2.86.35,4.31.76.31.02.61.19.92.22,1.48.03,2.85.44,4.03,1.27.74.5,2.08.23,2.41,1.08.37,1.23.5,2.59.17,3.83-.34,1.4-.44,2.74-.55,4.15-.08,1.04-.16,2.01-.24,3.05-.17,1.26-.5,1.46-1.81,1.36-5.46-.42-10.93-.58-16.45-1.1-.46-.03-1-.07-1.54-.03-1.7-.04-2.51.66-2.69,2.22-.17,1.49-.19,2.98-.28,4.4-.04.6.24,1.06.85,1.1,1.22.15,2.42.53,3.74.4,1.24-.14,2.47-.13,3.69-.05,1.76.12,3.51.39,5.26.6.45.11.98.3,1.02.75.23,1.06.85,2.01.77,3.13-.13,1.71-.18,3.43-.37,5.07-.11,1.57-.85,2.18-2.45,2.14-.84.01-1.68.03-2.43-.17-.9-.29-1.88-.43-2.79-.49-.99-.07-1.98-.06-2.98.1-.69.1-1.3.06-1.98-.06-.6-.11-1.21-.16-1.75-.11-1,.09-1.33.44-1.46,1.33-.1.44-.13.89-.08,1.27-.15,2.31-.14,2.24,2.13,2.46,3.55.38,7,.02,10.43-.03,1.84-.09,3.58.04,5.39.25,1.96.3,2.75.96,3.05,2.93.54,2.89.24,5.79-.51,8.65-.42,1.54-1.61,2.2-3.35,2.22-2.8.09-5.59-.04-8.21-.44-3.76-.27-7.38-.36-10.96.09Z"/><path class="cls-2" d="M636.16,52.47c-.09.97-.25,2-.42,3.04-.13.66-.47,1.01-1.21.87-2.03-.18-4-.13-5.93-.59-1.57-.28-3.12-.71-4.78-.85-1.2-.1-1.68-.74-1.59-1.93.18-3.21.52-6.4.62-9.62.03-2.32.14-4.64.33-6.94.29-4.55.43-9.11,1.17-13.55.42-2.36.31-4.77.5-7.15.08-2.02.62-3.85,1.39-5.73.29-.73.66-1.44,1.25-2,1.03-1.11,2.31-1.61,3.93-1.32,2.62.37,5.13,1.04,7.71,1.79.91.23,1.57.74,2.13,1.46,2.1,2.66,4.2,5.18,6.2,7.85,1.94,2.51,4.19,4.82,6.2,7.27.42.42.68.97.93,1.52.86,1.51,1.79,3.03,3.05,4.28.77.75,1.2,1.85,1.8,2.81.14.16.35.34.59.29.08-.07.18-.21.18-.28-.04-1.88.83-3.59,1.24-5.35.86-3.82.95-7.79,1.59-11.7.16-.81.31-1.54.55-2.35.99-2.83,3.47-4.15,6.43-3.31,1.14.35,2.26.77,3.38,1.26.96.48,1.65,1.31,1.68,2.44.1.53.12.99.15,1.52-.28,3.27-.18,6.59-.38,9.8-.16,3.59-.63,7.15-.95,10.72-.07.59-.13,1.19-.26,1.7-.37,1.24-.5,2.43-.56,3.7-.01,1.5-.18,2.99-.42,4.54-.32,1.54-.35,3.19-.37,4.77-.03,2.32-.2,4.56-.59,6.77-.21,1.18-.54,1.44-1.7,1.62-.16.06-.31.04-.46.03-2.4-.26-4.77-.14-7.22.05-.92.05-1.87-.27-2.83-.52-1.18-.35-1.95-.95-2.67-2.08-2.44-4.38-5.05-8.77-7.85-13.01-1.6-2.48-3.59-4.84-5.45-7.19-.75-.97-1.67-1.88-2.34-2.92-.19-.4-.55-.72-.83-1.05-.56-.58-1.22-1.01-2.01-.71-.8.3-.71,1.06-.69,1.66-.15,3.36-.37,6.72-.7,9.54-.29,3.27-.54,6.1-.79,8.85Z"/><path class="cls-2" d="M691.63,37.33c.16-1.94.85-3.81.78-5.85-.05-2.11-.71-3.1-2.92-3.44-1.68-.2-3.37-.32-5.14-.45-.85-.02-1.59-.33-2.32-.72-1.85-.74-2.49-2.01-2.51-3.89,0-2.71.22-5.39.67-8.04.08-.74.32-1.47.85-2.01.52-.47,1.03-.79,1.79-.62.39.04.78.02,1.17.06,3.22.59,6.49.68,9.77.7,1.8-.01,3.58.21,5.35.43,3.01.37,6.07.91,9.08,1.3,3.32.43,6.61,1.01,9.87,1.83,2.27.61,3.3,1.66,3.39,3.93.06,1.29-.1,2.47-.43,3.71-.33,1.24-.58,2.56-.99,3.79-.46,1.67-1.43,2.52-3.22,2.5-2.57.03-5.06,0-7.62-.03-1.94-.03-2.36.22-2.51,2.01-.43,3.34-.85,6.59-1.43,9.91-.29,1.62-.2,3.36-.26,5.01-.2,3.36-.33,6.74-.53,10.03-.11,2.02-.51,3.92-1.42,5.69-1.09,1.97-2.96,2.86-5.19,2.5-.44-.13-.87-.34-1.26-.23-.47.09-.93.11-1.37.05-1.5-.19-2.67-1.16-3.77-2.12-1.23-1.13-1.64-2.76-1.44-4.39.49-4.01.37-8.08.93-11.48.3-3.73.46-6.94.69-10.15Z"/><path class="cls-2" d="M763.53,47.41c-.3,2.3-1.12,4.43-1.78,6.6-.84,2.74-3.69,8.41-5.85,10.4-3.13,3.66-5.59,5.68-10.58,6.8-2.92.61-5.93.83-8.96.14-.51-.15-1.31-.42-1.81-.65-1.35-.65-2.71-1.31-4.14-1.97-1.93-.89-3.26-2.28-4.46-4.04-1.58-2.34-2.05-4.97-2.85-7.42-.3-1.1-.53-2.26-.92-3.3-.49-1.43-.53-2.79-.56-4.23-.05-2.42.04-4.75.44-7.03-.16-3.34.67-6.47,1.04-9.74.37-3.19.82-6.45,1.27-9.7.32-1.77,1.11-3.47,1.81-5.1.14-.44.67-.88,1.1-1.13,1.25-.5,2.43-1.09,3.82-.9,2.48.28,4.87.62,7.32,1.06,1.23.18,1.63.69,1.38,1.86-.2,1.33.09,2.58-.09,3.84-.19,1.26-.15,2.62-.18,3.9-.11,1.8-.24,3.74-.9,5.53-.23.5-.38,1-.47,1.59-.52,3.02-.98,6.12-1.43,9.15-.39,2.66-.4,5.3-.17,7.98.09,1.98,1.58,3.41,3.1,4.54.55.46,1.2.71,1.8.8.68.1,1.39-.01,2.07-.44,1.51-.83,2.89-1.75,3.61-3.38.56-1.12,1.07-1.42,1.42-2.65.2-.8.64-2.09.75-2.3.91-1.37.83-2.37,1.07-3.91.47-3.03.94-6.05,1.4-9.01.77-4.94,1.29-7.81,2.98-12.54.42-1.15,2.06-2.1,3.45-1.88,1.93.23,3.78.53,5.61.9,1.38.23,2.35,1.06,2.53,2.38.26,1.78.53,3.49.25,5.19-.63,3.38-1.11,6.78-1.67,10.17-.46,2.8-1.01,5.66-1.39,8.48Z"/><path class="cls-2" d="M768.23,55.15c.25-1.93.48-3.78,1.01-5.59.46-1.82.76-3.58.99-5.44.38-3.65,1.35-7.12,2.55-10.56.15-.43.3-.86.38-1.3.66-3.45,3.82-6.78,7.64-6.96,1.1.04,2.2.07,3.35.28.46.08.92.16,1.37.31,2.95.75,5.95,1.27,8.78,2.24,6.33,2.2,12.64,4.91,13.36,12.34.18,2.39-.34,4.73-1.24,6.99-1.26,3.34-3.43,8.17-6.54,10.25-1.07.71-1.08.79-.61,2.01.97,2.31,1.61,4.71,2.24,7.11.78,2.43,1.4,4.9,2.32,7.36.37.91.32,1.96.51,2.99.07.85-.29,1.54-.73,2.22-.49.97-1.3.36-2.01.45-1.18.15-2.4.08-3.52-.13-1.93-.36-3.8-1.09-5.71-1.59-.8-.22-1.18-.67-1.5-1.49-1.63-4.56-3.19-9.16-4.29-13.84-.47-1.3-1.9-2.39-3.41-2.66-.53-.09-.99-.1-1.48.04-.56.13-.51.67-.51,1.12-.19,1.94-.37,3.88-.41,5.84-.09,1.81-.39,3.5-.7,5.26-.57,1.95-1.52,3.83-3.94,3.63-2.27-.17-4.58-.57-6.79-1.09-2.14-.52-2.99-1.79-2.93-3.98.05-1.66.86-3.27.72-4.73.64-3.83.64-7.47,1.09-11.1ZM783.44,45.86c-.08,1.35.5,2.06,1.85,2.37,2.35.41,6.52-.2,8.34-2.91,1.07-1.55.84-3.34-.85-4.41-1.21-.67-2.54-1.14-3.91-1.38-.76-.13-1.54-.2-2.31-.26-1.17-.05-1.97.49-2.33,1.64-.21.72-.2,1.56-.34,2.37-.13.74-.37,1.68-.45,2.58Z"/><path class="cls-2" d="M819.61,85.13c-1.3-.03-2.59-.14-3.93-.41-4.23-.84-6.87-3.1-6.03-7.81.2-1.41.53-2.71.72-4.12.85-5.16,1.39-10.38,2.48-15.58,1.06-5.05,2.11-10.09,3.71-15.03.56-1.64.67-3.45,1.15-5.1.23-.79.39-1.6.84-2.27.97-1.71,1.68-2.11,3.62-1.88.63.05,1.24.17,1.77.27,1.07.21,2.14.43,3.19.33,2.11-.19,4.11.14,6.07.69,1.59.4,3.12.71,4.72.66,1.12,0,2.2.15,3.35.39,1.37.29,2.8.74,4.19,1.33.31.06.58.28.89.34,1.47.23,2.78.82,3.84,1.81.67.6,2.04.51,2.25,1.4.21,1.27.15,2.63-.35,3.82-.53,1.34-.81,2.65-1.11,4.04-.22,1.02-.43,1.97-.65,2.99-.34,1.23-.69,1.38-1.98,1.1-5.37-1.15-10.8-2.06-16.23-3.32-.46-.09-.99-.2-1.53-.24-1.68-.27-2.59.31-2.98,1.84-.37,1.45-.59,2.93-.87,4.32-.12.59.1,1.09.7,1.21,1.19.32,2.34.86,3.67.9,1.25.03,2.47.2,3.68.45,1.73.36,3.44.87,5.16,1.31.44.17.93.43.92.88.08,1.09.58,2.11.35,3.2-.36,1.68-.64,3.38-1.05,4.97-.33,1.54-1.14,2.05-2.73,1.79-.84-.1-1.68-.2-2.4-.5-.85-.41-1.81-.68-2.71-.87-.97-.2-1.96-.33-2.98-.31-.7,0-1.3-.11-1.96-.33-.58-.2-1.18-.32-1.72-.35-1-.05-1.38.25-1.63,1.12-.16.42-.25.86-.25,1.24-.46,2.27-.44,2.19,1.78,2.73,3.48.86,6.97.97,10.39,1.38,1.84.16,3.56.52,5.34.98,1.91.56,2.61,1.32,2.65,3.32.15,2.94-.54,5.77-1.67,8.5-.63,1.47-1.89,1.96-3.63,1.74-2.8-.29-5.56-.8-8.11-1.55-3.71-.77-7.3-1.36-10.92-1.4Z"/><path class="cls-2" d="M878.61,43.7c.52.2,1.22.28,1.7.62,3.09,2.25,6.26,4.46,7.79,8.12,1.03,2.4.97,3.99-1.16,5.87-1.31,1.15-2.72,2.04-4.08,3.1-.79.66-1.64.54-2.49.1-.43-.18-.85-.43-1.1-.72-.44-.49-4.38-3.4-5.09-3.79-1.05-.63-2.6-.45-3.33.31-.73.75-.89,2.86-.21,3.71.44.48.98.92,1.53,1.27,1.79,1.18,3.52,2.27,4.89,3.89.37.47.92.83,1.52.97,1.14.19,1.74,1.02,2.41,1.87,2.15,2.96,3.59,6.23,3.68,9.78.12,5.41-1.73,10.11-6.11,13.44-4.61,3.59-9.12,3.29-14.55,2.89-.61-.06-1.23-.05-1.79-.33-2.99-1.53-6.14-2.7-8.5-5.36-1.96-2.35-5.02-7.23-5.17-10.47-.12-1.25.18-2.26,1.28-3.01,1.1-.75,2.09-1.68,3.14-2.53,1.15-.97,2.82-1.75,4.39-1.4,1.8.4,2.92,2.41,3.35,3.96.95,3.12,3.55,4.4,6.28,5.49,1.12.26,2.85-.8,3.37-1.68.53-.95.44-2.58-.25-3.35-1.29-1.22-2.4-2.55-4.13-3.25-.58-.21-1.13-.56-1.51-.96-1.77-1.93-4.06-3.29-5.94-5.09-2.21-2.1-2.63-4.87-2.8-7.66,0-.69.21-1.33.12-1.96-.37-2.99.82-5.56,2.04-8.2.12-.2.26-.48.48-.74,2.4-2.22,4.8-4.45,8-5.49,2.59-.87,5.36-1.4,8.25-.36.44.18.84.19,1.29.3.91.21,1.83.42,2.74.63Z"/></g></svg>