<?xml version="1.0" encoding="UTF-8"?><svg id="Layer_2" xmlns="http://www.w3.org/2000/svg" viewBox="0 0 224.24 47.73"><defs><style>.cls-1{fill:#fff;}</style></defs><g id="Layer_1-2"><path class="cls-1" d="M-4.72,45.94c-.03.29-.08.6-.13.91-.04.2-.15.3-.4.25-.67-.08-1.32-.08-1.95-.25-.51-.11-1.03-.26-1.57-.33-.39-.05-.55-.25-.52-.61.07-.96.19-1.92.23-2.89.02-.7.06-1.39.13-2.08.11-1.37.18-2.74.44-4.06.15-.71.12-1.43.2-2.15.04-.6.22-1.15.47-1.7.09-.22.22-.42.4-.58.33-.32.73-.45,1.23-.35.81.15,1.59.37,2.4.62.28.08.49.23.66.46.65.82,1.31,1.59,1.95,2.41.61.76,1.33,1.48,1.98,2.22.14.13.22.3.3.46.28.46.58.91,1,1.3.25.23.4.56.59.85.05.05.12.1.19.09.03-.02.05-.06.06-.08-.03-.57.23-1.09.35-1.61.24-1.15.24-2.34.41-3.52.04-.25.09-.46.15-.71.29-.85,1.05-1.25,1.97-1,.35.1.71.23,1.06.37.3.14.53.39.55.73.04.16.05.3.06.46-.05.99.02,1.98,0,2.95,0,1.08-.11,2.15-.16,3.23-.01.18-.02.36-.06.51-.1.37-.13.73-.13,1.11.02.45-.01.9-.07,1.37-.08.47-.07.96-.05,1.44.03.7,0,1.37-.09,2.04-.05.35-.15.43-.53.49-.05.02-.1,0-.15,0-.79-.08-1.56-.04-2.36.02-.3.01-.62-.08-.93-.16-.39-.11-.65-.29-.9-.63-.84-1.33-1.73-2.66-2.66-3.95-.53-.76-1.19-1.48-1.79-2.2-.24-.3-.54-.58-.76-.9-.06-.12-.18-.22-.27-.32-.18-.18-.39-.31-.64-.23-.25.08-.23.31-.22.49-.04,1.01-.11,2.02-.21,2.87-.09.98-.16,1.83-.24,2.66Z"/><path class="cls-1" d="M10.02,36.21c.07-.58.18-1.14.24-1.69.17-1.08,1.51-1.17,2.44-1.1,2.04.17,2.21,1.62,2.29,3.24.06.99-.02,1.98.02,2.95.02.43.02.43.51.4.46-.01.93-.02,1.39.02.34.02.68.07,1.01.14.07,0,.17.03.27.02.75,0,.83-.08.91-.77.13-1.07.26-2.16.41-3.25.07-.38.23-.75.4-1.12.14-.31.41-.52.82-.51.77,0,1.53.08,2.27.33.4.16.68.42.78.81.19.55.15,1.09.17,1.63.04.9,0,1.8-.11,2.69-.13.78-.14,1.58-.19,2.37-.06,1.39.08,2.81,0,4.2-.03.74-.08,1.5-.13,2.24,0,.14-.03.25-.06.38-.23.8-.76,1.1-1.64,1-.54-.06-1.08-.16-1.6-.19-.57-.04-.86-.11-1.19-.6-.65-.9-.55-4.06-.5-5.09,0-.14-.04-.22-.19-.22-.2.03-.39.02-.61,0-.66-.05-1.29-.25-1.95-.26-.05,0-.1-.03-.15-.03-.9-.05-.76.08-.79.64-.07,1.21-.18,2.42-.27,3.62-.04.83-.88,1.73-1.85,1.65-.49-.04-1.01-.08-1.47-.3-.32-.14-.63-.23-.95-.35-.46-.15-.72-.47-.76-.9-.02-.1-.01-.18-.03-.25.03-1.21.06-2.43.08-3.62.05-1.13-.02-2.25.11-3.21.07-1.73.13-3.32.33-4.88Z"/><path class="cls-1" d="M26.02,50.39c-.84-.09-1.12-.4-1.05-1.14.07-.69.22-1.36.51-1.97.63-1.33,1.15-2.72,1.73-4.06.21-.46.4-.94.63-1.38.42-.81.54-1.72.91-2.54.37-.88.71-1.76,1.07-2.62.1-.22.21-.44.36-.66.5-.74.7-.84,1.68-.89.17-.01.34-.03.48-.05.82-.08,1.53.16,2.21.5.24.1.35.28.44.49.3.68.66,1.33,1.04,1.97.19.28.3.59.42.91.46,1.43,1.04,2.84,1.65,4.23.26.59.42,1.2.71,1.8.12.25.24.48.38.71.19.27.31.55.41.84.24.68.48,1.36.72,2.02.17.52.17,1.06.06,1.57-.07.36-.3.62-.76.65-.52.03-1.03.13-1.55.18-.22.04-.44,0-.66.02-.42-.02-.78-.2-.93-.55-.17-.39-.51-.69-.67-1.08-.17-.39-.46-.62-.97-.55-.22.03-.47-.02-.71-.07-.2-.05-.42-.06-.64-.05-.2.01-.42.03-.64,0-.68-.12-1.38.03-2.06-.13-.25-.06-.35.1-.43.27-.13.26-.28.55-.41.81-.05.09-.08.18-.13.24-.36.57-.84.95-1.65.77-.15-.03-.32-.04-.49-.05-.54-.05-1.11-.13-1.65-.2ZM36.33,33.38c.26.28.3.55.24.84,0,.2-.2.37-.41.34-.57-.02-1.08.12-1.63.12-.17.02-.33,0-.48-.04-.17-.07-.28-.15-.31-.24-.11-.3-.39-.49-.63-.7-.08-.08-.16-.16-.23-.23-.12-.1-.21-.1-.29-.01-.23.35-.68.53-.93.83-.07.11-.27.17-.46.16-.26-.01-.51-.02-.76-.04-.24-.01-.48-.02-.72-.06-.36-.04-.54-.16-.54-.45,0-.25.16-.48.34-.7.6-.73,1.29-1.37,2.04-2.01.2-.19.44-.38.59-.58.12-.15.29-.23.46-.29.41-.09.73.03.99.25.26.21.49.44.69.68.42.42.88.82,1.3,1.22.21.19.4.35.44.6.04.14.14.25.25.32,0,0,.02,0,.02,0ZM32.81,44.84c.09,0,.18,0,.27.01.63,0,.88-.28.77-.87,0-.05-.05-.12-.04-.18-.1-.97-.57-1.84-.91-2.75-.02-.11-.09-.23-.24-.23-.17,0-.24.1-.3.23-.34.86-.88,2.41-.91,3.33.02.3.18.46.5.47.27-.01.73-.01.85,0ZM35.05,53.08c0,.42-.06.78-.26,1.09-.45.68-.91.91-1.58.88-.82-.04-1.54-.31-2.12-.9-.24-.23-.41-.54-.38-.85.02-1.13.19-1.75,1.36-2.3.22-.1.47-.09.74-.08.91.08,1.89.66,2.15,1.5.1.23.09.45.09.66Z"/><path class="cls-1" d="M46.4,49.27c0,.29-.02.6-.04.92-.02.2-.12.31-.37.28-.66-.01-1.3.05-1.94-.06-.51-.05-1.03-.15-1.57-.17-.39,0-.56-.19-.56-.55-.02-.97,0-1.93-.04-2.9-.05-.7-.07-1.39-.06-2.09-.02-1.37-.08-2.74.05-4.08.08-.72-.01-1.44,0-2.15-.02-.61.11-1.16.3-1.74.07-.22.17-.45.34-.62.29-.35.67-.52,1.17-.47.81.06,1.6.21,2.41.38.29.05.5.19.69.39.71.75,1.43,1.46,2.13,2.2.67.7,1.45,1.34,2.15,2.01.15.11.24.27.34.43.32.43.66.86,1.1,1.19.27.2.44.52.66.79.05.04.12.09.19.07.02-.03.05-.07.05-.09-.08-.56.13-1.1.19-1.64.13-1.16.01-2.36.07-3.54.02-.24.04-.47.09-.72.2-.87.91-1.34,1.84-1.19.36.06.72.16,1.07.27.31.11.55.34.61.67.05.16.08.29.1.45.04.99.21,1.97.28,2.93.1,1.08.1,2.15.15,3.23,0,.18,0,.36-.01.52-.06.38-.05.74-.02,1.12.06.45.07.9.06,1.37-.04.48.03.96.09,1.44.09.69.13,1.37.1,2.04-.01.36-.11.45-.47.54-.05.02-.1.02-.15.02-.78,0-1.54.12-2.32.26-.29.05-.61-.02-.93-.07-.39-.06-.67-.23-.94-.54-.95-1.24-1.95-2.47-2.98-3.67-.59-.7-1.3-1.36-1.96-2.02-.27-.27-.58-.52-.83-.82-.07-.11-.19-.21-.29-.3-.19-.16-.41-.28-.65-.17-.24.11-.19.34-.17.51.05,1.01.08,2.02.06,2.87,0,.98,0,1.83.01,2.67Z"/><path class="cls-1" d="M68.01,37.98c0-.58.05-1.15.05-1.71.05-1.1,1.34-1.33,2.26-1.37,2.01-.06,2.34,1.36,2.59,2.96.17.98.2,1.97.34,2.93.07.42.07.43.54.34.45-.06.9-.12,1.36-.14.33-.01.67,0,1.01.02.07,0,.17.01.26-.01.74-.08.8-.17.81-.87,0-1.08.01-2.18.04-3.28.02-.38.14-.77.26-1.16.1-.31.35-.56.75-.6.75-.08,1.51-.1,2.25.07.41.11.71.35.85.72.25.52.26,1.06.35,1.6.13.89.19,1.79.19,2.68-.04.79.04,1.59.07,2.38.1,1.38.39,2.78.47,4.17.05.74.09,1.5.12,2.24.01.13,0,.25-.02.38-.13.82-.62,1.18-1.5,1.18-.54,0-1.08-.04-1.59-.01-.56.03-.86,0-1.23-.46-.74-.82-.99-3.98-1.05-5,0-.14-.06-.22-.2-.19-.19.05-.38.06-.6.07-.65.02-1.29-.1-1.93-.03-.05,0-.1-.02-.15-.02-.89.06-.74.16-.71.72.07,1.21.09,2.42.13,3.63.05.83-.68,1.83-1.63,1.85-.49.02-1,.04-1.47-.13-.32-.1-.64-.15-.96-.24-.47-.1-.75-.38-.84-.81-.03-.09-.03-.18-.06-.25-.11-1.2-.21-2.41-.32-3.6-.08-1.12-.27-2.24-.24-3.2-.12-1.73-.24-3.31-.21-4.88Z"/><path class="cls-1" d="M97.16,41.32c.03.27.05.54.08.8.14,1.18-.28,2.23-.78,3.26-.54,1.1-1.35,2-2.22,2.85-.4.39-.97.54-1.46.79-.63.29-1.25.43-1.93.48-.65.05-1.36,0-2.05-.06-.56-.05-1.07-.27-1.49-.69-.48-.46-.95-.91-1.24-1.49-.09-.15-.22-.3-.32-.43-.59-.68-.94-1.47-1.33-2.23-.63-1.26-.58-2.55-.46-3.88.15-1.83.85-3.38,2.35-4.55.58-.44,2.7-1.57,3.45-1.62.45-.03.87-.04,1.32-.05.26-.02.5.03.72.15.44.17.92.27,1.38.39,1.55.37,2.5,1.2,3.18,2.53.45,1,.79,2,.76,3.11,0,.23.04.45.06.65,0,0-.02,0-.02,0ZM93.17,41.05c.07-.52-.25-.95-.55-1.31-.32-.4-1.41-.77-1.95-.73-.45.03-.89.25-1.25.52-.79.57-1.28,1.3-1.41,2.25-.02.32-.05.61-.04.92,0,.95.57,1.67,1.54,1.96.44.13.93.18,1.39.15.34-.02.64-.11.88-.36.93-.87,1.56-1.9,1.41-3.21,0-.07-.04-.13-.02-.2ZM93.2,52.36c.04.42.03.78-.14,1.11-.37.72-.79,1-1.45,1.05-.81.06-1.54-.14-2.17-.66-.26-.21-.46-.49-.46-.8-.1-1.11,0-1.75,1.08-2.43.21-.13.45-.14.72-.16.9-.02,1.92.45,2.27,1.25.12.22.14.44.16.64Z"/><path class="cls-1" d="M99.31,36.2c.42-.98,1.06-1.9,2.1-2.35.88-.37,1.79-.73,2.75-.83.35-.04.73-.05,1.09,0,.12,0,.24,0,.35-.01,1.36-.09,2.46.39,3.47,1.16.4.38.55.79.26,1.32-.27.48-.55.97-.85,1.42-.16.26-.36.38-.59.4-.14.02-.29-.01-.43-.04-.37-.07-.74-.22-1.13-.29-.4-.12-.81-.19-1.21-.15-1.32.13-2.22,1.84-2.39,2.94-.13.98-.21,1.98.46,2.86.14.17.26.35.35.55.27.43.6.64,1.14.65.58-.01,1.13-.04,1.69-.03.67-.03,1.09-.36,1.47-.78.13-.15.23-.32.32-.51.17-.37.52-.65.87-.9.22-.16.44-.16.65-.03.49.29,1.01.55,1.4.97.11.12.2.25.33.35.52.32.54.77.33,1.27-.3.69-.65,1.36-1.18,1.94-.58.61-1.02,1.31-1.83,1.69-.69.34-1.39.57-2.16.65-1.85.19-3.7-.63-5.21-1.54-1.33-.85-2.13-2.66-2.54-4.07-.18-.55-.35-1.07-.35-1.75-.29-1.66.17-3.3.83-4.89Z"/><path class="cls-1" d="M121.74,43.89c-.08-.71-.21-1.42-.37-2.14-.16-.73-.26-1.46-.37-2.19-.35-2.22-.67-4.44-1.02-6.65-.06-.4-.04-.81.01-1.22.07-.33.23-.55.56-.71.38-.18.75-.33,1.2-.34.05,0,.12-.02.16-.02.44-.06.81-.25,1.27-.22.78.02,1.59-.14,2.38-.18,1.82-.15,2.9.12,4.42,1.13.18.11.28.28.38.44.72,1.2.89,2.47.44,3.81-.15.41-.29.82-.59,1.18-.16.18-.1.29.14.39,1.13.44,1.81,1.31,2.27,2.35.28.64.39,1.3.39,1.98,0,.79-.19,1.57-.53,2.31-.42.94-1.31,1.45-2.32,1.67-.73.16-1.42.42-2.14.66-.28.09-.58.17-.89.22-.19.03-.36.05-.56.03-.81,0-1.59.11-2.38.22-.53.07-.98-.05-1.46-.16-.41-.1-.64-.34-.69-.72-.12-.62-.18-1.22-.27-1.82,0,0-.02,0-.02,0ZM125.01,33.33c-.18.07-.41.14-.65.25-.36.14-.45.31-.35.66.22.64.32,1.31.45,2,.04.24.17.34.41.31.93-.16,1.68-.6,2.26-1.28.16-.19.16-.36.13-.56-.2-.81-1.31-1.5-2.24-1.35,0,0,0-.01,0-.02ZM125.27,42.28c.17.34.23.4.64.36.64-.09,1.31-.17,1.93-.34.47-.11.84-.33,1.18-.63.28-.25.31-.5.19-.78-.15-.3-.29-.59-.48-.88-.26-.39-1.11-.76-1.57-.63-.41.13-.82.16-1.23.13-.19,0-.4.05-.61.09-.26.04-.36.19-.32.41.04.45.06,1.01.11,1.3.04.27.05.65.18.97Z"/><path class="cls-1" d="M146.52,34.66c.05.26.11.53.16.79.26,1.16-.06,2.25-.45,3.32-.43,1.15-1.13,2.12-1.9,3.06-.36.43-.9.64-1.36.92-.59.36-1.19.55-1.85.66-.64.11-1.34.14-2.02.14-.56,0-1.08-.16-1.54-.54-.51-.42-1.02-.81-1.37-1.37-.1-.14-.24-.28-.36-.4-.64-.62-1.07-1.37-1.53-2.09-.74-1.2-.82-2.48-.83-3.82-.03-1.83.51-3.44,1.87-4.75.53-.49,2.5-1.83,3.23-1.95.44-.08.85-.12,1.29-.18.25-.05.49-.02.73.08.45.13.93.18,1.4.25,1.56.22,2.58.95,3.38,2.21.54.95.98,1.91,1.05,3.02.02.22.09.44.13.64,0,0-.02,0-.02,0ZM142.05,25.98c.3.22.4.47.4.77.04.2-.11.41-.32.42-.55.1-1,.34-1.52.45-.16.05-.32.06-.46.06-.17-.04-.3-.09-.34-.17-.17-.27-.48-.39-.74-.55-.09-.06-.18-.12-.27-.18-.13-.06-.22-.06-.27.05-.14.39-.54.66-.72,1.01-.05.12-.22.22-.4.25-.24.04-.49.08-.73.12-.23.04-.46.08-.69.09-.35.04-.55-.04-.6-.33-.04-.24.05-.51.17-.75.42-.84.94-1.61,1.53-2.39.15-.23.34-.47.44-.69.08-.17.23-.29.38-.38.37-.18.7-.12.99.03.29.16.55.34.8.52.48.33,1.01.62,1.49.92.24.14.45.26.54.5.07.13.18.21.31.26,0,0,.02,0,.02,0ZM142.58,34.79c.02-.53-.34-.91-.67-1.25-.36-.37-1.46-.63-1.99-.54-.44.08-.85.33-1.17.63-.72.65-1.13,1.42-1.17,2.38,0,.32.01.61.05.92.1.93.72,1.61,1.7,1.81.45.08.94.09,1.38.01.33-.06.62-.18.84-.44.83-.97,1.35-2.04,1.08-3.33-.01-.06-.05-.13-.04-.2ZM144.92,22.26c-.13.3-.3.53-.48.82-.13.19-.3.38-.49.5-.32.17-.22.54-.19.61,0,.02,0,.04.01.06.04.11,0,.13-.11.18-.31.1-.67.17-.99.23-.23.04-.52.14-.8.12-.05,0-.11.02-.12-.02-.13-.43-.09-.85.07-1.27.05-.1.11-.18.17-.23.22-.2.22-.34.5-.48.29-.1.28-.23.33-.47.01-.07.03-.21-.03-.29-.1-.14-.18-.24-.3-.38-.05-.01-.09,0-.16,0-.5-.05-.41-.06-.79.26-.16.14-.03-.15-.13.07-.09.29-.36.43-.68.49-.18,0-.33,0-.47-.14-.11-.09-.25-.18-.36-.28-.22-.19-.25-.45-.22-.71.04-.3.26-.53.44-.76.23-.29,1.06-.8,1.15-.87.17-.1.38-.21.59-.22.3-.03.59-.06.87-.07.28,0,.48.07.69.17.14.11.3.12.46.21.44.22.76.45.96.87.05.15.1.25.14.38.12.36.1.89-.04,1.22Z"/><path class="cls-1" d="M153.94,39.56c.06.29.1.6.15.91.02.2-.05.33-.29.35-.63.12-1.23.31-1.86.34-.5.05-1.02.06-1.53.16-.38.07-.58-.07-.65-.42-.22-.94-.39-1.89-.63-2.83-.19-.67-.35-1.35-.49-2.03-.3-1.34-.64-2.67-.79-4-.07-.72-.31-1.4-.45-2.1-.14-.59-.14-1.16-.07-1.77.02-.23.07-.48.2-.68.2-.4.54-.65,1.02-.7.79-.1,1.57-.12,2.37-.12.28,0,.52.08.74.24.84.59,1.67,1.13,2.49,1.72.79.55,1.65,1.01,2.46,1.53.16.08.29.22.41.35.39.35.81.7,1.29.94.3.14.53.41.79.63.06.03.14.06.2.03.02-.03.03-.07.03-.1-.19-.53-.1-1.1-.15-1.64-.12-1.17-.47-2.3-.66-3.48-.03-.24-.06-.47-.07-.72.01-.9.59-1.5,1.51-1.54.36,0,.72,0,1.08.04.32.05.6.21.72.53.08.14.13.26.19.42.24.96.6,1.88.87,2.81.31,1.03.53,2.08.8,3.13.04.18.08.35.09.51.02.38.1.74.21,1.1.15.43.25.86.34,1.33.06.47.22.94.38,1.39.23.66.41,1.31.52,1.97.06.35-.01.46-.34.63-.04.03-.09.04-.14.05-.75.16-1.45.43-2.16.73-.27.1-.59.1-.9.13-.39.01-.68-.08-1.01-.34-1.16-1.01-2.37-2.02-3.6-2.98-.71-.56-1.52-1.06-2.28-1.57-.31-.21-.66-.39-.96-.63-.09-.1-.23-.16-.34-.23-.22-.12-.45-.18-.66-.03-.21.16-.12.37-.05.54.26.98.49,1.96.64,2.8.21.96.38,1.8.56,2.61Z"/><path class="cls-1" d="M165.27,27.7c.1-.69.3-1.36.55-2.03.77-2.08,3.96-3.77,5.96-4.26.22-.06.45-.11.68-.12.38-.03.76-.12,1.13-.16.71-.11,1.28.14,1.67.65.55.72.83,1.52.51,2.41-.2.6-.64.95-1.34,1.07-.53.09-1.09.18-1.63.31-.54.13-1.1.31-1.62.62-.06.06-.15.09-.22.1-1.52.36-1.96,2.49-1.73,3.73.11.55.25,1.11.48,1.64.22.5.61.8,1.1,1.01.22.09,1.45.65,1.67.62.38-.04.74-.08,1.11-.17.53-.13,1.04-.35,1.45-.74.39-.39.44-1.03.13-1.46-.08-.14-.23-.13-.37-.1-.65.13-1.32.28-1.97.41-.92.2-.95.18-1.35-.64-.31-.66-.42-1.38-.68-2.05-.15-.43,0-.62.41-.79.47-.15.95-.35,1.43-.46.39-.09.81-.15,1.22-.14.07,0,.15,0,.22,0,.73-.27,1.52-.19,2.28-.34.95-.14,1.2-.05,1.64.79.61,1.11,1,2.29,1.07,3.57.01.5.04.98-.01,1.51-.18,1.27-.74,2.36-1.73,3.3-.48.51-1.06.74-1.69.9-.86.21-1.74.33-2.61.21-.25-.03-.54-.01-.82.06-1.27.25-2.32-.15-3.33-.76-.12-.09-.24-.18-.35-.22-.58-.26-1-.69-1.37-1.18-.36-.47-.72-.96-1.06-1.46-.37-.53-.59-1.15-.75-1.81-.33-1.3-.27-2.65-.08-3.98Z"/><path class="cls-1" d="M188.15,26.93c-.27.09-.57.15-.82.22-.43.12-.61-.18-.71-.53-.18-.55-.3-1.14-.4-1.75-.1-.44.42-.65.78-.75.04-.01.08-.02.11-.03.09-.03.19-.03.28-.05-.07-.24-.16-.47-.23-.7-.43-1.33-.76-2.67-1.08-4.03-.2-.81-.03-1.1.73-1.5.46-.23.94-.42,1.42-.56.31-.09.61-.15.93-.19.18-.03.36-.08.54-.13.39-.14.78-.13,1.2-.09.57.05,1.16.01,1.74.1.97.19,1.89.43,2.57,1.16.43.46.93.9,1.36,1.35,1.28,1.33,1.82,2.95,2.03,4.68.12.94-.32,3.02-.62,3.9-.09.26-.19.5-.32.73-.72,1.02-1.57,1.93-2.85,2.37-.07.02-.14.04-.18.07-.33.4-.81.44-1.25.56-.6.15-1.23.28-1.84.4-.82.18-1.92-.28-2.2-1.25-.15-.52-.34-1-.5-1.49-.19-.48-.3-.96-.45-1.46-.1-.35-.18-.69-.27-1.04ZM190.72,22.68c.03.11.06.19.1.27.38-.11.83-.16,1.25-.22.45-.05.54.03.73.4.17.33.25.67.39.98.07.24.14.47.21.71.07.33,0,.44-.31.53-.36.1-.7.29-1.04.39-.05.01-.11.03-.16.04.17.49.33.95.48,1.45.07.15.11.3.31.31.27,0,.51-.03.74-.16.65-.46,1.16-1.06,1.3-1.82.17-.84.22-1.7-.14-2.57-.38-.94-1.04-1.59-1.89-2.14-.06-.05-.17-.07-.25-.09-.38-.06-.76-.11-1.14-.16-.26-.04-.5.03-.73.07-.26.03-.36.17-.32.42.1.34.18.79.25,1.02.07.23.14.38.19.57Z"/><path class="cls-1" d="M205.77,28.27c-.36.19-.74.35-1.15.47-1.29.4-2.36.18-2.82-1.18-.15-.39-.25-.79-.4-1.19-.52-1.48-1.13-2.94-1.58-4.46-.44-1.48-.88-2.96-1.16-4.5-.09-.51-.31-1-.42-1.51-.05-.24-.12-.48-.1-.72.01-.59.14-.79.68-1,.17-.07.35-.13.5-.18.31-.09.62-.19.88-.36.52-.35,1.08-.55,1.67-.68.47-.12.91-.26,1.31-.51.29-.16.59-.28.92-.38.39-.12.82-.22,1.27-.27.09-.02.19-.01.28-.04.41-.16.83-.2,1.25-.1.26.06.6-.17.79.03.25.3.44.66.49,1.04.07.42.2.81.33,1.21.1.3.19.57.29.87.1.37.03.46-.34.58-1.57.51-3.11,1.08-4.72,1.53-.13.04-.29.09-.44.16-.48.17-.63.46-.51.91.11.43.27.85.41,1.26.06.17.18.27.36.22.36-.09.75-.12,1.11-.3.33-.18.68-.31,1.04-.42.51-.16,1.04-.28,1.55-.42.14-.02.31-.03.37.09.19.27.47.46.58.78.16.49.35.97.48,1.45.15.45.01.7-.45.87-.24.1-.48.2-.72.23-.29.02-.59.09-.86.18-.29.09-.58.21-.85.36-.19.1-.37.16-.58.2-.19.03-.37.09-.52.16-.28.13-.33.27-.27.53.02.13.06.26.12.36.21.66.21.64.89.45,1.07-.29,2.03-.78,3.01-1.19.52-.23,1.03-.4,1.58-.55.6-.14.9-.05,1.22.45.5.73.76,1.57.88,2.45.06.48-.2.8-.71,1.01-.81.36-1.63.65-2.45.83-1.13.36-2.2.74-3.21,1.27ZM205.09,9.68c.32.18.45.42.5.71.06.19-.06.42-.26.46-.52.17-.93.46-1.43.65-.15.07-.31.1-.45.12-.17-.01-.3-.05-.35-.12-.2-.25-.52-.33-.8-.45-.1-.05-.19-.1-.29-.15-.14-.05-.23-.02-.26.08-.09.41-.44.73-.57,1.09-.03.13-.19.25-.36.3-.23.07-.47.15-.7.22-.22.07-.44.14-.67.18-.34.08-.55.03-.63-.25-.07-.23-.02-.51.07-.77.3-.89.71-1.72,1.18-2.57.11-.25.27-.51.34-.74.06-.18.19-.32.32-.43.34-.22.67-.21.97-.1.3.12.59.26.85.41.52.26,1.07.48,1.58.72.25.11.48.2.59.42.09.11.21.19.34.22,0,0,.01,0,.02,0ZM207.75,4.45c0,.09,0,.19-.02.24-.09.51-.14.94-.23,1.4-.13.4-.17.79-.24,1.16-.09.45-.36.66-.81.9-.43.17-1.1.4-1.46.47-.25.05-.41.08-.5-.07-.06-.19-.1-.44-.09-.65.02-.52.07-1.03.09-1.56-.02-.21-.02-.42.01-.69.02-.24.12-.51.23-.76.12-.3.23-.38.56-.47.07-.02.14-.02.22-.07.45-.22,1.14-.44,1.56-.56.34-.12.67-.06.65.37.02.14.04.2.04.32,0-.01,0-.03-.01-.04Z"/><path class="cls-1" d="M218.04,22.36c.1.27.18.58.26.88.05.2,0,.33-.24.39-.61.21-1.17.47-1.78.58-.49.12-.99.19-1.48.35-.36.12-.57,0-.69-.34-.34-.91-.63-1.82-.99-2.72-.27-.64-.52-1.29-.74-1.95-.47-1.29-.97-2.56-1.3-3.87-.17-.7-.49-1.35-.71-2.03-.21-.57-.29-1.13-.3-1.74,0-.24.01-.48.1-.69.15-.43.44-.71.91-.82.76-.21,1.52-.32,2.31-.42.28-.05.52.01.76.14.9.48,1.78.9,2.66,1.38.85.44,1.76.79,2.62,1.2.17.06.31.17.45.29.43.3.88.59,1.39.77.31.11.57.34.86.53.06.02.14.04.2,0,.02-.03.02-.08.01-.1-.26-.5-.25-1.08-.37-1.61-.27-1.14-.76-2.23-1.11-3.36-.06-.24-.12-.46-.16-.71-.1-.89.39-1.56,1.28-1.72.35-.05.7-.08,1.07-.1.32,0,.61.14.77.43.1.13.17.25.24.39.37.92.84,1.79,1.22,2.68.44.98.8,2,1.2,3,.06.17.13.33.16.49.07.38.2.72.35,1.06.2.41.36.82.51,1.27.12.46.34.9.55,1.33.31.62.58,1.24.77,1.89.11.34.05.46-.25.67-.04.04-.08.05-.13.07-.71.26-1.36.61-2.03,1-.25.14-.56.18-.87.24-.38.06-.68,0-1.03-.2-1.27-.85-2.59-1.7-3.92-2.49-.77-.47-1.63-.86-2.45-1.26-.33-.17-.7-.3-1.02-.5-.1-.08-.24-.13-.36-.18-.23-.09-.47-.13-.65.06-.18.18-.06.38.02.54.38.94.74,1.88,1,2.69.33.93.61,1.73.89,2.51Z"/></g></svg>