<?xml version="1.0" encoding="UTF-8"?><svg id="Layer_2" xmlns="http://www.w3.org/2000/svg" viewBox="0 0 117.83 55.89"><defs><style>.cls-1{fill:#fff;}</style></defs><g id="Layer_1-2"><path class="cls-1" d="M6.63,7.94c1.51-.35,2.78-.38,4.06.17,3.7,1.75,7.93,2.77,11.58,4.52.7.31,1.08.43,1.32.37.32-.08.5-.34.82-.99,1.27-2.95,3.37-5.65,4.64-8.69.47-1.17,1.47-1.74,2.8-2.09,1.9-.54,3.81-1.06,5.67-1.4,1.27-.23,2.47-.38,3.78-.46,1.91-.11,3.94-.5,5.96-.94,3.39-.69,4.34,1.64,3.34,3.3-.71,1.28-1.42,2.56-2.55,3.76-1.76,1.93-3.28,3.99-4.46,6.28-1.42,2.76-2.95,5.55-5.33,7.91-.28.19-.53.52-.71.77-.25.33-.34.63.13.89,2.62,1.16,4.72,3.08,7.26,4.39,1.63.7,3,1.73,4.42,2.77,2.93,2.13,6.02,3.99,9.17,5.78.96.51,1.78,1.12,2.2,2.11.54,1.47-.03,2.84-1.37,3.68-1.07.68-2.27.89-3.43.91-1.01,0-2.02.07-3.01.21-1.56.22-3.09.61-4.61,1.01-2.16.51-4.06.31-5.94-.93-2.33-1.64-5.08-2.6-7.51-4.16-.99-.62-2.06-1.22-3.06-1.82-.63-.34-1.13-.5-1.42-.43-.75.18-3.31,5.48-3.58,6.28-.73,1.92-1.7,3.7-2.55,5.53-.34.82-.94,1.5-1.89,1.79-2.6.66-4.92,1.94-7.43,2.82-1.92.68-3.78,1.29-5.7,1.97-1.59.54-2.84-.29-2.98-1.93-.14-1.28.32-2.42.8-3.57,1.41-3.28,2.65-6.6,3.86-10.01,1.16-3.32,2.97-6.4,4.79-9.49.21-.35.36-.62.57-.97.26-.44.15-.76-.41-.95-.46-.15-.9-.44-1.37-.58-2.46-.6-4.74-1.74-7.31-2.17-.25.02-.45-.06-.65-.14-3.68-1.5-7.79-2.04-11.49-3.46-.53-.16-1.05-.33-1.55-.42-2.06-.14-3.28-1.35-4.8-2.21-1.22-.61-1.01-1.9.26-2.8.57-.39,1.25-.73,1.93-1.08,1.74-.7,3.41-1.35,5.24-2.03,3.43-1.06,6.8-2.75,10.52-3.52Z"/><path class="cls-1" d="M77.34-3.98c1.58.1,2.83.44,3.93,1.32,3.14,2.73,7,4.92,10.1,7.66.6.51.94.73,1.2.73.34.02.59-.19,1.09-.71,2.1-2.47,4.95-4.44,7.09-6.98.8-.98,1.95-1.24,3.36-1.19,2.03.03,4.07.09,6.01.3,1.33.14,2.56.36,3.88.66,1.93.45,4.05.67,6.18.85,3.56.33,3.84,2.85,2.38,4.14-1.07,1.01-2.14,2.04-3.61,2.86-2.3,1.33-4.4,2.86-6.23,4.72-2.2,2.22-4.52,4.46-7.56,6.03-.33.11-.67.35-.93.53-.34.25-.52.51-.13.89,2.27,1.87,3.8,4.32,5.95,6.32,1.43,1.14,2.49,2.54,3.61,3.95,2.31,2.9,4.87,5.6,7.5,8.25.82.78,1.46,1.6,1.6,2.68.13,1.57-.84,2.71-2.42,3.12-1.27.33-2.53.19-3.69-.15-1.01-.3-2.04-.53-3.07-.69-1.62-.24-3.26-.33-4.89-.39-2.3-.15-4.15-.89-5.66-2.64-1.85-2.25-4.31-3.97-6.28-6.17-.8-.88-1.69-1.76-2.51-2.63-.53-.51-.98-.81-1.29-.82-.79-.05-4.86,4.29-5.36,4.99-1.28,1.62-2.75,3.06-4.12,4.56-.58.69-1.37,1.17-2.39,1.18-2.77-.11-5.43.45-8.17.58-2.09.1-4.11.16-6.19.26-1.72.07-2.71-1.08-2.37-2.7.24-1.26,1.02-2.23,1.82-3.19,2.34-2.74,4.52-5.56,6.7-8.49,2.11-2.85,4.78-5.28,7.47-7.72.31-.28.54-.49.84-.77.39-.35.37-.69-.13-1.03-.42-.27-.76-.68-1.18-.95-2.25-1.28-4.16-3.02-6.56-4.17-.25-.06-.43-.19-.6-.32-3.18-2.49-7.05-4.18-10.26-6.6-.46-.3-.93-.61-1.39-.85-1.98-.72-2.81-2.23-4.05-3.48-1.02-.93-.43-2.11,1.07-2.61.67-.2,1.43-.35,2.2-.49,1.9-.17,3.72-.31,5.71-.45,3.66-.04,7.45-.7,11.33-.37Z"/></g></svg>