<?xml version="1.0" encoding="UTF-8"?><svg id="Layer_2" xmlns="http://www.w3.org/2000/svg" viewBox="0 0 46.77 46.77"><defs><style>.cls-1{fill:#fff;stroke-width:0px;}</style></defs><g id="Layer_1-2"><path class="cls-1" d="M22.2,16.01c-.22.52-.41.97-.61,1.45h1.24c-.21-.49-.41-.94-.63-1.45Z"/><path class="cls-1" d="M22.29,22.99c3.08,0,5.61-2.57,5.61-5.68,0-3.12-2.57-5.68-5.68-5.67-3.17.02-5.68,2.57-5.67,5.75,0,3.1,2.58,5.61,5.74,5.59ZM19.16,19.86c.45-1.03.9-2.06,1.35-3.09.36-.81.7-1.62,1.07-2.43.08-.18.25-.37.43-.46.31-.15.62.02.79.39.33.73.64,1.46.96,2.2.5,1.14,1,2.28,1.5,3.41.16.36.06.69-.26.85-.34.17-.72.05-.88-.3-.23-.49-.45-.99-.65-1.49-.06-.15-.14-.21-.3-.2-.32.01-.65,0-.97,0s-.63.01-.94,0c-.19,0-.27.07-.33.23-.19.47-.39.93-.59,1.39-.14.31-.4.47-.68.45-.46-.05-.69-.48-.49-.94Z"/><path class="cls-1" d="M42.11,9.47c-3.58-4.81-8.37-7.81-14.27-8.96-1.12-.22-2.26-.27-3.39-.4-.26-.03-.51-.07-.76-.11h-.55c-.22.04-.45.1-.67.11-5.2.19-9.82,1.96-13.83,5.25C4.29,8.93,1.56,13.5.5,19.04c-.21,1.08-.26,2.19-.39,3.3-.02.2-.07.41-.11.62v.91c.04.19.1.39.11.58.21,5.2,2,9.8,5.3,13.8,3.64,4.41,8.3,7.18,13.93,8.14,6.59,1.13,12.66-.27,18.03-4.29,4.82-3.6,7.86-8.4,8.96-14.33,1.24-6.69-.16-12.83-4.22-18.3ZM35.21,34.57c0,.82-.46,1.29-1.28,1.29H14.8c-.81,0-1.28-.46-1.28-1.29v-12.11c0-4.01.01-8.02-.01-12.03,0-.91.59-1.4,1.41-1.39,3.8.02,7.6.01,11.39,0,.18,0,.3.05.42.18,2.77,3.06,5.54,6.12,8.32,9.18.12.14.17.27.17.45,0,5.24,0,10.48,0,15.71Z"/><path class="cls-1" d="M31.07,25.26h-13.41c-.61,0-1.11.49-1.11,1.11v5.67c0,.61.5,1.1,1.11,1.1h13.41c.61,0,1.1-.49,1.1-1.1v-5.67c0-.61-.49-1.11-1.1-1.11ZM18.67,26.67c.71,0,1.42,0,2.12,0h5.77c.61,0,.98.47.81,1-.11.33-.39.53-.79.53h-3.93c-1.33,0-2.66,0-3.99,0-.5,0-.83-.34-.79-.82.03-.41.34-.7.79-.7ZM27.34,31.31c-.13.27-.35.42-.65.42-.43,0-.85,0-1.28,0h-2.78c-1.3,0-2.61,0-3.91,0-.36,0-.63-.12-.78-.46-.19-.43.05-.93.51-1.04.11-.03.24-.03.36-.03,2.57,0,5.14,0,7.71,0,.3,0,.58.07.76.33.17.24.19.51.06.78ZM29.74,32.09c-.63,0-1.13-.51-1.12-1.14,0-.61.53-1.12,1.14-1.1.62,0,1.11.51,1.1,1.13,0,.62-.5,1.12-1.12,1.11ZM29.76,28.55c-.64,0-1.14-.49-1.14-1.12s.5-1.12,1.12-1.13c.62,0,1.12.49,1.13,1.11,0,.63-.48,1.13-1.1,1.13Z"/></g></svg>