<?xml version="1.0" encoding="UTF-8"?><svg id="Layer_2" xmlns="http://www.w3.org/2000/svg" viewBox="0 0 39.55 39.55"><defs><style>.cls-1,.cls-2{fill:#1d3072;stroke-width:0px;}.cls-2{fill-rule:evenodd;}</style></defs><g id="Layer_1-2"><path class="cls-2" d="M17.17,19.85v9.67c0,.14.11.25.25.25h3.59c.14,0,.25-.11.25-.25v-9.83h2.6c.13,0,.24-.1.25-.23l.25-2.96c.01-.15-.1-.27-.25-.27h-2.85v-2.1c0-.49.4-.89.89-.89h2.01c.14,0,.25-.11.25-.25v-2.96c0-.14-.11-.25-.25-.25h-3.39c-1.99,0-3.6,1.61-3.6,3.6v2.86h-1.8c-.14,0-.25.11-.25.25v2.96c0,.14.11.25.25.25h1.8v.16Z"/><path class="cls-1" d="M19.77,0C8.87,0,0,8.87,0,19.77s8.87,19.77,19.77,19.77,19.77-8.87,19.77-19.77S30.68,0,19.77,0ZM37.01,19.77c0,9.5-7.73,17.24-17.24,17.24S2.54,29.28,2.54,19.77,10.27,2.54,19.77,2.54s17.24,7.73,17.24,17.24Z"/></g></svg>