<?xml version="1.0" encoding="UTF-8"?><svg id="Layer_2" xmlns="http://www.w3.org/2000/svg" viewBox="0 0 63.72 63.73"><defs><style>.cls-1{fill:#fff;stroke-width:0px;}</style></defs><g id="Layer_1-2"><path class="cls-1" d="M31.87,0C14.28,0,0,14.27,0,31.88s14.28,31.85,31.87,31.85,31.85-14.27,31.85-31.85S49.46,0,31.87,0ZM10.97,45.34v-25.26c.72-.08,1.44-.15,2.44-.26v1.8c0,6.56.03,13.13-.03,19.69,0,1.31.34,1.77,1.69,1.78,4.33.03,8.58.55,12.49,2.64.46.25.91.53,1.36.8-5.96-1.51-11.88-1.8-17.95-1.19ZM31.29,47.03c-5.09-4.12-10.81-4.85-16.77-5.02v-25.28c5.89.04,11.55.71,16.19,4.87.32.28.55.83.55,1.25.04,7.91.03,15.82.03,24.18ZM32.34,45.3c0-7.26.02-14.53-.03-21.8-.01-1.1.37-1.81,1.19-2.46,4.57-3.62,9.95-4.25,15.66-4.34v25.28c-5.92.24-11.72.87-16.7,4.95-.05-.72-.12-1.17-.12-1.63ZM52.75,45.35c-6.18-.64-12.09-.3-17.89,1.42-.06-.18-.11-.37-.17-.56,2.17-.78,4.3-1.8,6.53-2.29,2.45-.54,5-.69,7.51-.83,1.24-.06,1.51-.49,1.51-1.64-.05-6.56-.03-13.13-.03-19.69v-1.72q2.53-.24,2.53,2.02c0,7.15,0,14.3,0,21.46v1.83Z"/></g></svg>