<?xml version="1.0" encoding="UTF-8"?><svg id="Layer_2" xmlns="http://www.w3.org/2000/svg" viewBox="0 0 39.55 39.55"><defs><style>.cls-1{fill:#1d3072;stroke-width:0px;}</style></defs><g id="Layer_1-2"><path class="cls-1" d="M19.77,0C8.87,0,0,8.87,0,19.77s8.87,19.77,19.77,19.77,19.77-8.87,19.77-19.77S30.68,0,19.77,0ZM37.01,19.77c0,9.5-7.73,17.24-17.24,17.24S2.54,29.28,2.54,19.77,10.27,2.54,19.77,2.54s17.24,7.73,17.24,17.24Z"/><path class="cls-1" d="M9.3,22.7c.06,0,.1,0,.13,0,1.63,0,3.25,0,4.88,0,.1,0,.12.02.12.12,0,.23,0,.46,0,.69,0,.34-.27.61-.61.61-.87,0-1.75,0-2.62,0-1.31,0-2.61,0-3.92,0-.09,0-.13-.02-.12-.12.01-.21,0-.43.03-.64.04-.22.14-.41.28-.58,1.06-1.31,2.12-2.61,3.17-3.92.52-.64,1.04-1.28,1.55-1.92.02-.02.03-.04.05-.08h-.12c-1.54,0-3.09,0-4.63,0-.17,0-.15.02-.15-.15,0-.42,0-.84,0-1.25,0-.08.02-.1.1-.1,2.29,0,4.59,0,6.88,0,.04,0,.1-.02.1.05.02.47-.03.93-.35,1.3-.27.33-.54.66-.81,1-1.31,1.64-2.62,3.27-3.92,4.91-.01.02-.03.04-.05.08Z"/><path class="cls-1" d="M21.71,17.62s0-.04,0-.05c0-.06-.02-.08-.08-.08-.42,0-.85,0-1.27,0-.05,0-.07.02-.07.07,0,.12,0,.25,0,.38-1.59-1.13-3.59-.66-4.62.51-1.02,1.15-1.16,2.89-.3,4.18.54.81,1.3,1.31,2.26,1.49.96.18,1.84-.04,2.65-.59.05.37.29.59.65.59.21,0,.43,0,.64,0,.11,0,.13-.03.13-.13,0-2.12,0-4.25,0-6.37ZM18.25,22.75c-1.12,0-2.02-.9-2.02-2.03,0-1.11.91-2.01,2.03-2.01,1.12,0,2.04.92,2.03,2.02,0,1.12-.91,2.01-2.04,2.01Z"/><path class="cls-1" d="M32.38,20.55c-.02-.28-.05-.56-.14-.83-.26-.84-.76-1.49-1.51-1.95-.49-.31-1.03-.47-1.61-.51-.16,0-.31-.01-.47,0-.31.02-.61.08-.9.18-.59.21-1.09.55-1.49,1.02-.61.73-.9,1.57-.82,2.53.02.23.05.45.12.67.22.73.62,1.34,1.23,1.8.55.42,1.16.66,1.85.71.71.05,1.39-.1,2.02-.46.6-.35,1.06-.83,1.37-1.45.27-.54.4-1.12.36-1.73ZM30.22,22.27c-.29.25-.63.4-1.01.46-.55.08-1.06-.04-1.5-.37-.43-.32-.71-.74-.8-1.28-.12-.75.11-1.38.67-1.89.28-.26.62-.41,1-.46.44-.06.87-.02,1.27.2.6.32.97.81,1.07,1.49,0,.05.02.1.03.14v.34c-.06.55-.3,1.02-.72,1.38Z"/><path class="cls-1" d="M22.91,15.37c.5,0,1.01,0,1.51,0,0,.04,0,.08,0,.12,0,2.83,0,5.66,0,8.5q0,.14-.13.14c-.29,0-.57,0-.86,0-.31,0-.53-.22-.53-.52,0-2.73,0-5.45,0-8.18,0-.01,0-.03,0-.04Z"/><path class="cls-1" d="M29.12,17.26c-.16,0-.31,0-.47,0,.16-.03.31-.03.47,0Z"/><path class="cls-1" d="M30.94,20.89v-.34c.01.11.01.23,0,.34Z"/><path class="cls-1" d="M30.94,20.89v-.34c.03.11.03.23,0,.34Z"/></g></svg>