<?xml version="1.0" encoding="UTF-8"?><svg id="Layer_2" xmlns="http://www.w3.org/2000/svg" viewBox="0 0 63.73 63.73"><defs><style>.cls-1{fill:#fff;stroke-width:0px;}</style></defs><g id="Layer_1-2"><path class="cls-1" d="M31.53,0c.25,0,.5,0,.75,0,.35.05.69.11,1.04.15,1.54.18,3.1.24,4.62.53,8.04,1.58,14.57,5.66,19.45,12.22,5.53,7.44,7.43,15.82,5.74,24.94-1.5,8.08-5.64,14.62-12.21,19.53-7.32,5.47-15.59,7.38-24.57,5.84-7.67-1.31-14.03-5.09-18.98-11.09C2.87,46.68.44,40.4.15,33.31c-.01-.26-.1-.52-.15-.79,0-.42,0-.83,0-1.25.05-.28.12-.56.15-.85.17-1.5.24-3.02.52-4.5,1.44-7.55,5.17-13.78,11.1-18.64C17.24,2.82,23.53.41,30.62.14c.31-.01.61-.09.91-.14ZM52.4,44.79c.04-.93-.3-1.82-1.02-2.55-1.64-1.67-3.28-3.36-4.98-4.97-1.53-1.44-3.77-1.36-5.28.11-.67.65-1.28,1.37-2,1.96-.4.33-1,.65-1.48.61-.95-.08-1.95-.27-2.8-.67-3.2-1.51-5.7-3.9-7.93-6.59-1.29-1.56-2.4-3.23-2.97-5.21-.36-1.25-.21-2.32.85-3.19.53-.44.98-.96,1.46-1.45,1.72-1.76,1.73-4,0-5.75-1.47-1.49-2.96-2.97-4.45-4.45-1.75-1.73-3.99-1.73-5.74,0-1,.99-1.95,2.05-3.01,2.98-1.61,1.4-1.85,3.17-1.56,5.1.44,2.9,1.69,5.51,3.17,7.99,5.19,8.67,12.19,15.55,20.82,20.77,2.55,1.54,5.26,2.76,8.3,2.98,1.38.1,2.71-.11,3.75-1.13,1.3-1.26,2.57-2.54,3.83-3.83.7-.71,1.05-1.58,1.04-2.69Z"/></g></svg>