<svg xmlns="http://www.w3.org/2000/svg" viewBox="0 0 58.89 65.48"><defs><style>.cls-1{fill:#fff;}</style></defs><g id="Layer_2" data-name="Layer 2"><g id="Layer_1-2" data-name="Layer 1"><path class="cls-1" d="M56.92,6.26S41.1,9.22,29.44,0C17.79,9.22,2,6.26,2,6.26-1.81,33.74-3.49,55.17,29.44,65.48,62.38,55.17,60.69,33.74,56.92,6.26Zm-52,15.37L20.12,9.74h0a37.22,37.22,0,0,0,9.32-4A35.25,35.25,0,0,0,33.92,8h0L4.71,30.81A65.6,65.6,0,0,1,4.89,21.63ZM8.69,46A23.1,23.1,0,0,1,6.74,42c-.33-.9-.6-1.83-.85-2.79l36.6-28.56a48.88,48.88,0,0,0,9,.82l1.52,0s0,.07,0,.11v0ZM52.15,42C49,50.56,41.78,56.5,29.44,60.66c-1-.32-1.88-.67-2.79-1L53,39.06A29.75,29.75,0,0,1,52.15,42Zm2.08-13.14c0,.66,0,1.3,0,1.94,0-.63,0-1.28,0-1.93l-35,27.31a33.53,33.53,0,0,1-6-4.39l40.61-31.7c.26,3.14.38,6.05.34,8.78Z"/></g></g></svg>