<?xml version="1.0" encoding="UTF-8"?><svg id="Layer_2" xmlns="http://www.w3.org/2000/svg" viewBox="0 0 39.55 39.55"><defs><style>.cls-1{fill:#1d3072;}.cls-1,.cls-2{stroke-width:0px;}.cls-2{fill:#fff;}</style></defs><g id="Layer_1-2"><path class="cls-1" d="M19.77,0C8.87,0,0,8.87,0,19.77s8.87,19.77,19.77,19.77,19.77-8.87,19.77-19.77S30.68,0,19.77,0ZM37.01,19.77c0,9.5-7.73,17.24-17.24,17.24S2.54,29.28,2.54,19.77,10.27,2.54,19.77,2.54s17.24,7.73,17.24,17.24Z"/><rect class="cls-1" x="9.57" y="12.72" width="20.4" height="14.11" rx="4" ry="4"/><path class="cls-2" d="M23.85,20.12l-5.31,2.62c-.21.11-.94-.04-.94-.28v-5.38c0-.24.74-.39.94-.27l5.08,2.76c.22.12.45.43.23.55Z"/></g></svg>