<?xml version="1.0" encoding="UTF-8"?><svg id="Layer_2" xmlns="http://www.w3.org/2000/svg" viewBox="0 0 33.9 33.9"><defs><style>.cls-1{fill:#5ad9ff;}</style></defs><g id="Layer_1-2"><path class="cls-1" d="M16.95,0C7.59,0,0,7.59,0,16.95s7.59,16.95,16.95,16.95,16.95-7.59,16.95-16.95S26.32,0,16.95,0ZM24.69,16.38c.62.62.62,1.63,0,2.25s-1.63.62-2.25,0c-1.03-1.03-1.7-2.31-1.97-3.7l-10.51,10.51c-.31.31-.72.47-1.12.47s-.81-.16-1.13-.47c-.62-.62-.62-1.63,0-2.25l10.52-10.52c-1.36-.26-2.65-.92-3.7-1.97-.62-.62-.62-1.63,0-2.25s1.63-.62,2.25,0c1.56,1.56,4.11,1.56,5.67,0,.62-.62,1.63-.62,2.25,0s.62,1.63,0,2.25h0s-.01.02-.02.02c-.74.76-1.15,1.75-1.15,2.81s.42,2.08,1.18,2.84h-.02Z"/></g></svg>