<?xml version="1.0" encoding="UTF-8"?><svg id="Layer_2" xmlns="http://www.w3.org/2000/svg" viewBox="0 0 46.48 46.48"><defs><style>.cls-1{fill:#fff;stroke-width:0px;}</style></defs><g id="Layer_1-2"><path class="cls-1" d="M23,0c.18,0,.36,0,.55,0,.25.04.5.08.76.11,1.12.13,2.26.17,3.37.39,5.86,1.15,10.63,4.12,14.19,8.91,4.03,5.43,5.42,11.54,4.19,18.19-1.09,5.89-4.11,10.66-8.9,14.24-5.34,3.99-11.37,5.38-17.92,4.26-5.6-.96-10.23-3.71-13.85-8.09C2.1,34.04.32,29.46.11,24.3c0-.19-.07-.38-.11-.57,0-.3,0-.61,0-.91.04-.21.09-.41.11-.62.13-1.09.18-2.2.38-3.28,1.05-5.5,3.77-10.05,8.1-13.59C12.57,2.05,17.16.3,22.33.1c.22,0,.44-.07.67-.1ZM38.22,32.67c.03-.68-.22-1.33-.74-1.86-1.2-1.22-2.39-2.45-3.63-3.63-1.11-1.05-2.75-.99-3.85.08-.49.47-.93,1-1.46,1.43-.3.24-.73.47-1.08.44-.69-.06-1.42-.19-2.04-.49-2.33-1.1-4.16-2.85-5.78-4.81-.94-1.14-1.75-2.35-2.17-3.8-.26-.91-.15-1.69.62-2.33.38-.32.71-.7,1.06-1.06,1.25-1.28,1.26-2.92,0-4.19-1.07-1.09-2.16-2.17-3.24-3.24-1.28-1.26-2.91-1.26-4.19,0-.73.72-1.42,1.5-2.19,2.17-1.17,1.02-1.35,2.31-1.13,3.72.32,2.12,1.23,4.02,2.31,5.83,3.78,6.32,8.89,11.34,15.18,15.14,1.86,1.12,3.84,2.01,6.05,2.17,1.01.07,1.98-.08,2.74-.82.95-.92,1.87-1.85,2.8-2.79.51-.52.76-1.15.76-1.96Z"/></g></svg>