<?xml version="1.0" encoding="UTF-8"?><svg id="Layer_2" xmlns="http://www.w3.org/2000/svg" viewBox="0 0 78.21 69.98"><defs><style>.cls-1{fill:#00dbff;fill-rule:evenodd;stroke-width:0px;}</style></defs><g id="Layer_1-2"><path class="cls-1" d="M38.38,31.01c.3,3.12,1.31,7.42,1.93,11.07.22,1.28.59,2.6.64,3.69.06,1.07-.15,2.77-1.52,3.58-1.11.65-2.14.16-3.33-.36-3.17-1.38-6.39-2.75-9.47-4.03,2.27,2.18,4.95,4.8,7.38,7.16.86.84,1.94,1.56,2.45,2.48.62,1.11.29,2.65-.65,3.42-.5.41-1.43.66-2.25.93-5.03,1.63-10.24,3.36-15.19,4.98,5.87.23,12.48.49,18.85.64,1.03.02,1.98.01,2.6.53,1.59,1.32,1.24,3.62-.46,4.51-1.25.65-3.26.23-4.89.18-9.5-.26-18.9-.5-28.63-.77-1.53-.04-3.77.15-4.71-.56-1.46-1.12-1.5-3.17-.21-4.26.74-.62,2.33-1.01,3.6-1.43,8.15-2.75,16.46-5.27,24.45-8.03-4.67-4.59-10.43-10.03-15.39-14.85-.97-.94-2.14-1.83-2.44-2.97-.28-1.04.26-2.5,1.6-3.14,1.58-.76,4.15.98,5.61,1.61,5.55,2.43,11.03,4.73,16.46,7.19-1.23-7.47-2.65-15.1-4.04-22.87-.21-1.18-.46-2.41-.02-3.17.83-1.41,2.81-1.8,3.95-.96,1.13.84,2.1,2.97,3,4.4,2.84,4.48,5.97,9.23,8.56,13.4.51-.51.55-1.29.78-1.93,3.11-8.69,6.61-17.53,9.68-26.52.39-1.15.86-3.18,1.66-4.05,1.19-1.29,3.18-1.18,4.2.21.97,1.33.37,3.58.28,5.18-.66,11.94-1.21,23.76-1.88,35.58,3.57-4.88,7.71-10.34,11.5-15.61.57-.79,1.27-1.78,2.08-2.15,1.01-.47,2.52.03,3.22,1.05,1.55,2.23-1.59,5.07-3.12,7.21-4.32,6.04-8.19,11.31-12.67,17.33-.81,1.09-1.81,2.77-2.76,3.39-1.18.76-3.07.64-3.97-1.23-.4-.82-.12-2.64-.05-3.88.34-6.59.66-12.63,1.1-19.07.18-2.62.18-5.27.39-7.76-.03-.08.02-.14-.04-.22-1.85,5.38-4.54,12.3-6.69,18.3-.35.99-.56,1.99-1.3,2.55-.85.65-2.33.65-3.06.18-.75-.48-1.23-1.54-1.87-2.54-1.82-2.81-3.72-5.69-5.36-8.41Z"/></g></svg>