<?xml version="1.0" encoding="UTF-8"?><svg id="Layer_2" xmlns="http://www.w3.org/2000/svg" viewBox="0 0 39.55 39.55"><defs><style>.cls-1{fill:#1d3072;stroke-width:0px;}</style></defs><g id="Layer_1-2"><path class="cls-1" d="M26.36,14.32c0,.65-.53,1.18-1.18,1.18s-1.18-.53-1.18-1.18.53-1.18,1.18-1.18,1.18.53,1.18,1.18ZM24.89,19.63c0,2.74-2.23,4.98-4.98,4.98s-4.98-2.23-4.98-4.98,2.23-4.98,4.98-4.98,4.98,2.23,4.98,4.98ZM23.1,19.63c0-1.76-1.43-3.19-3.19-3.19s-3.19,1.43-3.19,3.19,1.43,3.19,3.19,3.19,3.19-1.43,3.19-3.19ZM29.98,15.63c0-3.35-2.72-6.07-6.07-6.07h-8.28c-3.35,0-6.07,2.72-6.07,6.07v8.28c0,3.35,2.72,6.07,6.07,6.07h8.28c3.35,0,6.07-2.72,6.07-6.07v-8.28ZM27.99,23.82c0,2.3-1.87,4.17-4.17,4.17h-8.1c-2.3,0-4.17-1.87-4.17-4.17v-8.1c0-2.3,1.87-4.17,4.17-4.17h8.1c2.3,0,4.17,1.87,4.17,4.17v8.1Z"/><path class="cls-1" d="M19.77,0C8.87,0,0,8.87,0,19.77s8.87,19.77,19.77,19.77,19.77-8.87,19.77-19.77S30.68,0,19.77,0ZM19.77,37.01c-9.5,0-17.24-7.73-17.24-17.24S10.27,2.54,19.77,2.54s17.24,7.73,17.24,17.24-7.73,17.24-17.24,17.24Z"/></g></svg>