<?xml version="1.0" encoding="UTF-8"?><svg id="Layer_2" xmlns="http://www.w3.org/2000/svg" viewBox="0 0 63.73 63.73"><defs><style>.cls-1{fill:#1d3072;stroke-width:0px;}</style></defs><g id="Layer_1-2"><path class="cls-1" d="M31.87,0C14.28,0,0,14.27,0,31.87s14.28,31.85,31.87,31.85,31.85-14.27,31.85-31.85S49.46,0,31.87,0ZM45.27,41.94c-3.65,3.06-7.98,4.43-12.71,4.62-1.39.06-2.77-.07-4.15-.23-1.57-.2-3.05.1-4.44.89-1.19.68-2.43,1.26-3.82,1.43-.23.02-.46.09-.74-.01.53-.59,1.06-1.13,1.54-1.72.5-.6.9-1.24.97-2.06.03-.43-.09-.67-.49-.88-2.64-1.34-4.75-3.28-6.35-5.76-1.78-2.73-2.51-5.73-2.14-8.99.05-.17.09-.36.13-.54.38-2.39,1.38-4.53,2.87-6.43,2.29-2.89,5.26-4.83,8.72-6.02,4.15-1.42,8.41-1.63,12.65-.5,6.88,1.83,11.84,5.72,13.41,13.05.68,5.41-1.38,9.72-5.46,13.15Z"/></g></svg>