<?xml version="1.0" encoding="UTF-8"?><svg id="Layer_2" xmlns="http://www.w3.org/2000/svg" viewBox="0 0 76.39 84.88"><defs><style>.cls-1{fill:#173176;stroke-width:0px;}</style></defs><g id="Layer_1-2"><path class="cls-1" d="M4.47,49.52c-1.02-.31-1.97-.61-2.92-.9-1.19-.37-1.78-1.35-1.46-2.42.32-1.1,1.37-1.6,2.59-1.24.96.29,1.91.59,2.91.9,1.09-3.53,2.17-7.02,3.27-10.58-.81-.25-1.61-.5-2.41-.75-.28-.09-.56-.17-.84-.28-.95-.38-1.42-1.41-1.1-2.37.32-.96,1.31-1.51,2.3-1.22,1.05.3,2.09.64,3.18.98,1.09-3.54,2.17-7.03,3.28-10.59-1-.31-1.99-.6-2.97-.92-1.03-.33-1.6-1.18-1.46-2.13.16-1.16,1.28-1.89,2.44-1.57.53.14,1.05.32,1.57.48.5.16,1.01.31,1.59.49.08-.25.15-.47.21-.69,1.1-3.56,2.2-7.12,3.3-10.68C19.41,1.32,23.87-1.03,28.59.43c13.96,4.32,27.92,8.64,41.88,12.95,4.56,1.41,6.93,5.91,5.52,10.48-5.67,18.34-11.35,36.69-17.02,55.03-1.43,4.61-5.87,7-10.5,5.58-9.62-2.95-19.22-5.94-28.84-8.92-4.37-1.35-8.74-2.69-13.1-4.05-3.97-1.24-6.35-4.76-5.94-8.78.06-.58.19-1.16.36-1.72,1.12-3.66,2.26-7.31,3.39-10.96.05-.15.08-.3.13-.52ZM18.13,18.53c.61.19,1.16.33,1.69.53.37.14.63.07.95-.18,1.45-1.14,3.44-1.17,4.93-.1,1.46,1.04,2.07,2.94,1.5,4.66-.55,1.66-2.15,2.81-3.89,2.81-1.8,0-3.35-1.12-3.93-2.83-.07-.2-.13-.49-.28-.54-.69-.26-1.4-.45-2.09-.67-1.1,3.57-2.18,7.05-3.27,10.58.59.18,1.16.33,1.71.54.36.13.6.06.89-.17,1.79-1.41,4.34-1.15,5.74.62,1.09,1.37,1.25,2.89.47,4.47-.76,1.54-2.32,2.4-4.01,2.23-1.77-.18-2.95-1.16-3.57-2.82-.08-.21-.17-.51-.32-.57-.65-.25-1.33-.43-2.02-.65-1.1,3.55-2.18,7.04-3.27,10.58.58.18,1.13.33,1.66.52.37.13.63.1.95-.16,1.32-1.06,3.16-1.17,4.58-.33,1.59.94,2.38,2.77,1.95,4.54-.44,1.8-2.03,3.09-3.87,3.15-1.85.06-3.48-1.1-4.07-2.88-.06-.19-.15-.47-.29-.52-.67-.25-1.36-.44-2.09-.67-.09.28-.15.49-.21.69-1.1,3.56-2.2,7.12-3.3,10.68-.83,2.69.39,5.02,3.09,5.86,13.9,4.31,27.81,8.61,41.71,12.9.45.14.92.24,1.38.26,2.12.11,3.83-1.18,4.51-3.39,4.47-14.45,8.94-28.89,13.41-43.34,1.19-3.86,2.4-7.72,3.58-11.58.77-2.51-.44-4.93-2.88-5.69-14.07-4.36-28.14-8.72-42.22-13.06-2.4-.74-4.79.54-5.55,2.95-1.15,3.69-2.29,7.38-3.43,11.07-.05.15-.07.3-.13.51Z"/></g></svg>