<svg xmlns="http://www.w3.org/2000/svg" viewBox="0 0 90 90"><defs><style>.cls-1{fill:#4d6bff;}.cls-2{fill:#fff;}</style></defs><g id="Layer_2" data-name="Layer 2"><g id="Layer_1-2" data-name="Layer 1"><path class="cls-1" d="M67.22,90H22.78A22.78,22.78,0,0,1,0,67.22V22.78A22.78,22.78,0,0,1,22.78,0H67.22A22.78,22.78,0,0,1,90,22.78V67.22A22.78,22.78,0,0,1,67.22,90"/><path class="cls-2" d="M58.8,28.34a3.06,3.06,0,1,0,3.05,3.05,3.06,3.06,0,0,0-3.05-3.05"/><path class="cls-2" d="M45.21,32.26A12.84,12.84,0,1,0,58.05,45.09,12.84,12.84,0,0,0,45.21,32.26m0,21.05a8.22,8.22,0,1,1,8.23-8.22,8.23,8.23,0,0,1-8.23,8.22"/><path class="cls-2" d="M55.4,71.15H34.6A15.67,15.67,0,0,1,18.94,55.5V34.69A15.67,15.67,0,0,1,34.6,19H55.4A15.67,15.67,0,0,1,71.06,34.69V55.5A15.67,15.67,0,0,1,55.4,71.15M34.6,23.93A10.78,10.78,0,0,0,23.84,34.69V55.5A10.77,10.77,0,0,0,34.6,66.25H55.4A10.77,10.77,0,0,0,66.16,55.5V34.69A10.78,10.78,0,0,0,55.4,23.93Z"/></g></g></svg>