<svg xmlns="http://www.w3.org/2000/svg" viewBox="0 0 90 90"><defs><style>.cls-1{fill:#4d6bff;}.cls-2{fill:#fff;}</style></defs><g id="Layer_2" data-name="Layer 2"><g id="Layer_1-2" data-name="Layer 1"><path class="cls-1" d="M67.22,90H52l-7-2.3L38.1,90H22.78A22.78,22.78,0,0,1,0,67.22V22.78A22.78,22.78,0,0,1,22.78,0H67.22A22.78,22.78,0,0,1,90,22.78V67.22A22.78,22.78,0,0,1,67.22,90"/><path class="cls-2" d="M38.05,35.21V45H26.77V57.85H38.05V90H52V57.85H62.3l2-12.85H52V36.66c0-3.51,1.72-6.94,7.24-6.94H64.8V18.78a68.31,68.31,0,0,0-10-.87c-10.15,0-16.79,6.16-16.79,17.3"/></g></g></svg>