<svg xmlns="http://www.w3.org/2000/svg" viewBox="0 0 90 90"><defs><style>.cls-1{fill:#4d6bff;}.cls-2{fill:#fff;fill-rule:evenodd;}</style></defs><g id="Layer_2" data-name="Layer 2"><g id="Layer_1-2" data-name="Layer 1"><path class="cls-1" d="M67.22,90H22.78A22.78,22.78,0,0,1,0,67.22V22.78A22.78,22.78,0,0,1,22.78,0H67.22A22.78,22.78,0,0,1,90,22.78V67.22A22.78,22.78,0,0,1,67.22,90"/><path class="cls-2" d="M54,35.73a21.87,21.87,0,0,0,12.78,4.09V32.6A12.73,12.73,0,0,1,60,28.71a12.84,12.84,0,0,1-5.86-8.66H47.45V56.67a7.76,7.76,0,0,1-13.93,4.67A7.75,7.75,0,0,1,37,46.66a7.61,7.61,0,0,1,2.35.37v-7.3A16.95,16.95,0,0,0,27.59,68.52,17,17,0,0,0,54,54.44Z"/><path class="cls-2" d="M66.77,32.6v-2A12.72,12.72,0,0,1,60,28.71a12.7,12.7,0,0,0,6.78,3.89M54.13,20.05c-.06-.35-.11-.7-.14-1.05V17.82H44.76V54.44a7.75,7.75,0,0,1-11.24,6.9,7.76,7.76,0,0,0,13.93-4.67V20.05ZM39.36,39.73V37.65A18.11,18.11,0,0,0,37,37.5a16.94,16.94,0,0,0-9.43,31A16.94,16.94,0,0,1,39.36,39.73"/></g></g></svg>