<?xml version="1.0" encoding="UTF-8"?><svg id="Layer_2" xmlns="http://www.w3.org/2000/svg" xmlns:xlink="http://www.w3.org/1999/xlink" viewBox="0 0 247.27 172.03"><defs><style>.cls-1{fill:none;}.cls-1,.cls-2,.cls-3{stroke-width:0px;}.cls-4{clip-path:url(#clippath);}.cls-2,.cls-3{fill:#fff;}.cls-3{opacity:.5;}</style><clipPath id="clippath"><rect class="cls-1" x="0" y="0" width="247.27" height="172.03"/></clipPath></defs><g id="Layer_1-2"><g class="cls-4"><path class="cls-3" d="M282.05,75.6l-82.88-26.37c-5.5-1.75-11.37,1.29-13.12,6.79l-34.17,107.41c-1.75,5.5,1.29,11.37,6.79,13.12l82.88,26.37c5.5,1.75,11.37-1.29,13.12-6.79l34.17-107.41c1.75-5.5-1.29-11.37-6.79-13.12ZM183.34,86.54l.43-1.36c.15-.48.67-.75,1.15-.6l18.22,5.8c.48.15.75.67.6,1.15l-.43,1.36c-.15.48-.67.75-1.15.6l-18.22-5.8c-.48-.15-.75-.67-.6-1.15ZM237.7,112.01c5.52,1.75,8.56,7.65,6.81,13.16-1.75,5.52-7.65,8.56-13.16,6.81-5.52-1.75-8.56-7.65-6.81-13.16,1.75-5.52,7.65-8.56,13.16-6.81ZM230.07,101.41l.43-1.36c.15-.48.67-.75,1.15-.6l18.22,5.8c.48.15.75.67.6,1.15l-.43,1.36c-.15.48-.67.75-1.15.6l-18.22-5.8c-.48-.15-.75-.67-.6-1.15ZM235.75,152.69c-1.75,5.52-7.65,8.56-13.16,6.81-5.52-1.75-8.56-7.65-6.81-13.16s7.65-8.56,13.16-6.81c5.52,1.75,8.56,7.65,6.81,13.16ZM227.12,98.96l-.43,1.36c-.15.48-.67.75-1.15.6l-18.22-5.8c-.48-.15-.75-.67-.6-1.15l.43-1.36c.15-.48.67-.75,1.15-.6l18.22,5.8c.48.15.75.67.6,1.15ZM214.33,104.58c5.52,1.75,8.56,7.65,6.81,13.16-1.75,5.52-7.65,8.56-13.16,6.81-5.52-1.75-8.56-7.65-6.81-13.16,1.75-5.52,7.65-8.56,13.16-6.81ZM212.39,145.26c-1.75,5.52-7.65,8.56-13.16,6.81-5.52-1.75-8.56-7.65-6.81-13.16s7.65-8.56,13.16-6.81c5.52,1.75,8.56,7.65,6.81,13.16ZM177.8,103.96c1.75-5.52,7.65-8.56,13.16-6.81,5.52,1.75,8.56,7.65,6.81,13.16-1.75,5.52-7.65,8.56-13.16,6.81-5.52-1.75-8.56-7.65-6.81-13.16ZM169.05,131.47c1.75-5.52,7.65-8.56,13.16-6.81,5.52,1.75,8.56,7.65,6.81,13.16-1.75,5.52-7.65,8.56-13.16,6.81-5.52-1.75-8.56-7.65-6.81-13.16ZM180.27,165.34c-1.75,5.52-7.65,8.56-13.16,6.81-5.52-1.75-8.56-7.65-6.81-13.16,1.75-5.52,7.65-8.56,13.16-6.81,5.52,1.75,8.56,7.65,6.81,13.16ZM203.64,172.77c-1.75,5.52-7.65,8.56-13.16,6.81-5.52-1.75-8.56-7.65-6.81-13.16s7.65-8.56,13.16-6.81c5.52,1.75,8.56,7.65,6.81,13.16ZM227,180.2c-1.75,5.52-7.65,8.56-13.16,6.81-5.52-1.75-8.56-7.65-6.81-13.16,1.75-5.52,7.65-8.56,13.16-6.81,5.52,1.75,8.56,7.65,6.81,13.16ZM250.36,187.64c-1.75,5.52-7.65,8.56-13.16,6.81-5.52-1.75-8.56-7.65-6.81-13.16s7.65-8.56,13.16-6.81c5.52,1.75,8.56,7.65,6.81,13.16ZM259.12,160.12c-1.75,5.52-7.65,8.56-13.16,6.81-5.52-1.75-8.56-7.65-6.81-13.16s7.65-8.56,13.16-6.81c5.52,1.75,8.56,7.65,6.81,13.16ZM267.87,132.61c-1.75,5.52-7.65,8.56-13.16,6.81-5.52-1.75-8.56-7.65-6.81-13.16,1.75-5.52,7.65-8.56,13.16-6.81,5.52,1.75,8.56,7.65,6.81,13.16ZM273.84,113.83l-.43,1.36c-.15.48-.67.75-1.15.6l-18.22-5.8c-.48-.15-.75-.67-.6-1.15l.43-1.36c.15-.48.67-.75,1.15-.6l18.22,5.8c.48.15.75.67.6,1.15ZM277.25,103.12l-.43,1.36c-.15.48-.67.75-1.15.6l-88.32-28.1c-.48-.15-.75-.67-.6-1.15l.43-1.36c.15-.48.67-.75,1.15-.6l88.32,28.1c.48.15.75.67.6,1.15Z"/><path class="cls-2" d="M213.21,4.82c-9.36,0-16.95,7.59-16.95,16.95s7.59,16.95,16.95,16.95,16.95-7.59,16.95-16.95-7.59-16.95-16.95-16.95ZM220.95,21.2c.62.62.62,1.63,0,2.25-.62.62-1.63.62-2.25,0-1.03-1.03-1.7-2.31-1.97-3.7l-10.51,10.51c-.31.31-.72.47-1.12.47s-.81-.16-1.13-.47c-.62-.62-.62-1.63,0-2.25l10.52-10.52c-1.36-.26-2.65-.92-3.7-1.97-.62-.62-.62-1.63,0-2.25s1.63-.62,2.25,0c1.56,1.56,4.11,1.56,5.67,0,.62-.62,1.63-.62,2.25,0,.62.62.62,1.63,0,2.25h0s-.01.02-.02.02c-.74.76-1.15,1.75-1.15,2.81s.42,2.08,1.18,2.84Z"/></g></g></svg>