<?xml version="1.0" encoding="UTF-8"?><svg id="Layer_2" xmlns="http://www.w3.org/2000/svg" xmlns:xlink="http://www.w3.org/1999/xlink" viewBox="0 0 247.27 172.03"><defs><style>.cls-1{opacity:.6;}.cls-1,.cls-2,.cls-3{stroke-width:0px;}.cls-1,.cls-3{fill:#fff;}.cls-2{fill:none;}.cls-4{clip-path:url(#clippath);}</style><clipPath id="clippath"><rect class="cls-2" x="0" y="0" width="247.27" height="172.03"/></clipPath></defs><g id="Layer_1-2"><g class="cls-4"><circle class="cls-1" cx="201.26" cy="80.49" r="24.79"/><path class="cls-1" d="M195.71,109.18h11.12c19.73,0,35.75,16.02,35.75,35.75v37.65h-82.62v-37.65c0-19.73,16.02-35.75,35.75-35.75Z"/><path class="cls-3" d="M214.12,12.82c-9.36,0-16.95,7.59-16.95,16.95s7.59,16.95,16.95,16.95,16.95-7.59,16.95-16.95-7.59-16.95-16.95-16.95ZM221.86,29.2c.62.62.62,1.63,0,2.25-.62.62-1.63.62-2.25,0-1.03-1.03-1.7-2.31-1.97-3.7l-10.51,10.51c-.31.31-.72.47-1.12.47s-.81-.16-1.13-.47c-.62-.62-.62-1.63,0-2.25l10.52-10.52c-1.36-.26-2.65-.92-3.7-1.97-.62-.62-.62-1.63,0-2.25s1.63-.62,2.25,0c1.56,1.56,4.11,1.56,5.67,0,.62-.62,1.63-.62,2.25,0,.62.62.62,1.63,0,2.25h0s-.01.02-.02.02c-.74.76-1.15,1.75-1.15,2.81s.42,2.08,1.18,2.84Z"/></g></g></svg>