<?xml version="1.0" encoding="UTF-8"?><svg id="Layer_2" xmlns="http://www.w3.org/2000/svg" viewBox="0 0 166.1 33.88"><defs><style>.cls-1,.cls-2{fill:#fff;}.cls-2{fill-rule:evenodd;}</style></defs><g id="Layer_1-2"><path class="cls-1" d="M87.27,4.55c-.1.49-.22,1.07-.29,1.27l-.82,2.57h2.21l-.85-2.57c-.07-.2-.19-.79-.27-1.27Z"/><path class="cls-1" d="M118.68,6.72c-.83,0-1.24.7-1.24,1.82s.42,1.81,1.24,1.81,1.24-.67,1.24-1.86c0-1.12-.41-1.76-1.24-1.76Z"/><path class="cls-1" d="M77,.62v14.35h58.64V.62h-58.64ZM116.74,3.44l1.2-.19c.06.45.47.67.87.67s.81-.23.87-.67l1.19.19c-.24.94-.91,1.49-2.05,1.49s-1.83-.57-2.07-1.49h0ZM89.39,11.51l-.55-1.67h-3.14l-.54,1.67h-1.86l2.85-8.13h2.29l2.84,8.13h-1.89ZM95.91,11.5c.02-1.2.02-2.31.02-3.53,0-.85-.27-1.26-.98-1.26-.78,0-1.22.59-1.22,1.37v3.42h-1.68c0-1,.02-2,.02-3s0-1.99-.02-2.98h1.72l-.04.98c.38-.72,1.08-1.11,1.91-1.11,1.5,0,1.94,1.01,1.94,2.25s0,2.55,0,3.86h-1.68ZM102.8,11.5c0-1.2,0-2.31,0-3.53,0-.85-.26-1.26-.98-1.26-.78,0-1.18.59-1.18,1.37v3.42h-1.68c.04-1.36.04-2.7.04-4.06s0-2.72-.04-4.06h1.68v3.13c.37-.72,1.06-1.11,1.89-1.11,1.5,0,1.93,1.01,1.93,2.25s0,2.55,0,3.86h-1.68ZM110.83,11.51l-2.79-8.13h2.07l1.9,6.54,1.86-6.54h2.02l-2.79,8.13h-2.29ZM120,11.5h0l-.09-1.06c-.36.74-.96,1.2-1.74,1.2-1.53,0-2.4-1.39-2.4-3.12s.86-3.13,2.39-3.13c.75,0,1.33.37,1.7,1.01l.02-.87h1.64c-.02,1.16-.04,1.99-.04,2.92,0,1.01.08,1.94.2,3.05h-1.68ZM126.77,11.5c.02-1.2.02-2.31.02-3.53,0-.85-.27-1.26-.98-1.26-.78,0-1.22.59-1.22,1.37v3.42h-1.68c0-1,.02-2,.02-3s0-1.99-.02-2.98h1.72l-.04.98c.38-.72,1.07-1.11,1.91-1.11,1.5,0,1.95,1.01,1.95,2.25s0,2.55,0,3.86h-1.69Z"/><path class="cls-1" d="M108.59,21.07c-.85,0-1.33.66-1.33,1.82s.48,1.81,1.33,1.81,1.33-.66,1.33-1.81-.48-1.82-1.33-1.82Z"/><path class="cls-1" d="M132.12,20.9c-.65,0-1.12.42-1.29,1.18h2.49c-.12-.76-.55-1.18-1.2-1.18Z"/><path class="cls-1" d="M91.39,14.97v14.35h74.71v-14.35h-74.71ZM155.54,17.81c.59,0,.92.36,1.41.36.32,0,.59-.19.75-.36l.66.83c-.24.25-.72.63-1.31.63s-.93-.36-1.41-.34c-.31,0-.59.2-.76.36h0s-.64-.84-.64-.84c.24-.26.72-.64,1.31-.64ZM131.48,17.57h1.3l1.42,1.12-.85.7-1.22-.94-1.22.94h0s0,0,0,0h0s-.84-.7-.84-.7l1.41-1.12ZM107.93,17.57h1.3l1.42,1.12-.85.7-1.22-.94-1.22.94h0s0,0,0,0h0s-.84-.7-.84-.7l1.41-1.12ZM104.29,25.85h-1.8c.02-1.09.04-2.18.04-3.37h-3.33l.04,3.37h-1.8c.02-1.35.04-2.72.04-4.25,0-1.16,0-2.53-.04-3.87h1.8l-.04,3.2h3.33c0-1,0-2.1-.04-3.2h1.8c0,1.35-.04,2.72-.04,3.87,0,1.55.02,2.91.04,4.25ZM109.43,28.22h-1.7c0-.23,0-.48,0-.7s0-.46,0-.69h1.7c0,.23,0,.46,0,.69s0,.48,0,.7ZM108.59,26.01c-1.99,0-3-1.31-3-3.12s1.03-3.13,3-3.13,2.99,1.32,2.99,3.13-1.01,3.12-2.99,3.12ZM114.49,25.85h-1.71c.02-1,.02-2,.02-3s0-1.99-.02-2.98h1.71c0,.99-.02,2-.02,2.98s0,2,.02,3ZM114.52,19.12h-1.77c0-.23,0-.48,0-.7s0-.46,0-.69h1.77c0,.23,0,.46,0,.69s0,.48,0,.7ZM123.17,25.86h-2.29l-2.79-8.13h2.07l1.9,6.54,1.86-6.54h2.02l-2.79,8.13ZM127.97,25.85h-1.71c.02-1,.02-2,.02-3s0-1.99-.02-2.98h1.71c0,.99-.02,2-.02,2.98s0,2,.02,3ZM127.99,19.12h-1.77c0-.23,0-.48,0-.7s0-.46,0-.69h1.77c0,.23,0,.46,0,.69s0,.48,0,.7ZM133.02,28.22h-1.7c0-.23,0-.48,0-.7s0-.46,0-.69h1.7c0,.23,0,.46,0,.69s0,.48,0,.7ZM134.92,23.14h-4.16c.08.99.57,1.55,1.37,1.55.61,0,1.06-.29,1.25-.79l1.5.24c-.37,1.16-1.41,1.86-2.75,1.86-1.87,0-3.01-1.18-3.01-3.11s1.13-3.15,3-3.15,2.85,1.18,2.78,3.11h.02v.29ZM139.33,25.77c-.38.12-.81.24-1.38.24-1.45,0-1.6-.83-1.6-1.73v-3.13h-.87v-1.26h.92v-1.41l1.59-.72v2.12h1.21v1.26h-1.21v2.9c0,.45.02.79.43.79.21,0,.43-.06.71-.18l.2,1.12h0ZM150.52,25.85v-4.47c0-.36.06-1.09.13-1.85l-2.17,6.32h-1.59l-2.17-6.34c.07.77.12,1.52.12,1.87v4.47h-1.77c.02-1.35.04-2.72.04-4.25,0-1.16,0-2.53-.04-3.87h2.76l1.87,5.67,1.86-5.67h2.7c0,1.35-.04,2.72-.04,3.87h0c0,1.55.02,2.91.04,4.25h-1.77ZM157.04,25.86l-.23.56c-.25.61-.71,1.69-2.1,1.69-.29,0-.71-.05-1.13-.14l-.11-1.25c.39.12.74.14.94.14.63,0,.82-.36,1.01-.8l.09-.2-2.44-5.97h1.77l1.06,2.98c.11.31.2.63.36,1.5.17-.86.27-1.19.37-1.48l1.08-3h1.68l-2.35,5.97Z"/><path class="cls-2" d="M63.01,24.59c-5.86,2.35-14.51-3.37-27.17-3.37-7.33,0-13.4,1.66-18.56,4.57-3.66,2.06-6.78,4.54-9.38,8.1h8.05c4.88-5.99,12.05-9.38,20.33-9.8,8.78-.44,16.07,2.97,22.51,2.71,5.41-.21,8.23-4.47,8.16-4.47-.06,0-1.19,1.24-3.94,2.27h0ZM21.51,33.88h7.87c1.12-2.03,5.07-4.82,9.99-5.75,2.99-.57,6.3-.8,10.77-.59,2,.09,4.27.14,5.06,0-6.26-.44-12.1-1.85-18.24-1.13-9.67,1.14-14.14,5.84-15.46,7.46h0ZM34.97,33.88h6.73c1.8-4.68,11.04-5.31,11.04-5.31,0,0-11.98-1.34-17.78,5.31Z"/><path class="cls-1" d="M26.66,20.09c3.44-.74,6.5-.98,9.17-.98,6.28,0,9.32.68,15.16,2.39,4.23,1.24,6.75,1.61,8.64,1.61,4.05,0,10.23-1.61,10.23-7.83,0-5-4.28-6.16-9.18-6.67-4.91-.51-8.02-.63-8.02-2.34,0-1.98,1.75-2.48,4.58-2.48,3.06,0,4.36.66,4.36,2.86h7.24c.02-4.57-5.42-6.64-10.68-6.64-6.44,0-9.06,1.13-11.49,3.87V.62h-7.28v11.26c0,3.74-1.08,4.98-4.8,4.98s-4.49-1.25-4.49-4.98V2.73l-6.62,13.29c-.88,1.67.48,4.54,3.19,4.08h0ZM52.55,15h-5.89v-5.45c.85,2.18,2.59,2.91,5.82,3.3,2.43.29,5.65.59,8.16.91,2.1.27,2.71,1.01,2.75,2.01,0,1.78-1.43,2.63-5.51,2.63-4.4,0-5.33-1.16-5.33-3.4h0Z"/><path class="cls-1" d="M28.52.62l-10.69,22.4c-2.63,1.22-3.66,1.92-5.55,3.18L0,.62h7.64l6.45,15.01h.07L20.66.62h7.86Z"/></g></svg>