<?xml version="1.0" encoding="UTF-8"?><svg id="Layer_2" xmlns="http://www.w3.org/2000/svg" viewBox="0 0 256.66 61.46"><defs><style>.cls-1{fill:#d2e7f4;}.cls-2{fill:#f3fcff;}</style></defs><g id="Layer_2-2"><path class="cls-1" d="M7.38,36.32c5.93,2.8,12.71,2.92,19.27,3.09,6.55.18,13.37.53,19.11,3.7,8.1,4.47,12.88,13.95,21.55,17.18,7.56,2.82,16.02.08,23.27-3.46,7.25-3.54,14.38-7.97,22.41-8.71,12.99-1.2,26.04,7.53,38.57,3.88,6.05-1.77,10.98-6.22,16.9-8.41,10.24-3.8,21.93,2.97,32.48.11.09-.02.17-.05.26-.08,4.34-.77,8.4-3.2,13.2-3.27,2.04-.03,4.08.14,6.1-.13,3.18-.44,6.19-2.03,8.34-4.42,1-1.11,1.84-2.41,3.04-3.3,1.71-1.26,4.01-1.78,6.15-1.92,2.89-.12,5.9.15,9.06.99,3.43.9,7.14-1.17,8.66-4.56,1.33-2.99,1.07-5.34.18-6.96-.25,2.7-1.57,5.18-4.03,6.31-2.97,1.37-6.42.49-9.63-.1-2.72-.5-5.33-.76-8.02-.92-.09,0-.18,0-.26,0-5.01-.13-10.04.68-14.75,2.4-2.29.84-4.53,1.9-6.95,2.15-4.75.51-9.48-2.13-14.18-1.27-3.42.62-6.23,2.99-9.42,4.37-8.4,3.63-17.65.03-26.9,2.15-.73.24-1.46.47-2.2.69-.39.12-.78.23-1.18.35-.68.27-1.4.47-2.12.64-5.76,1.71-11.69,3.24-17.43,1.75-5.71-1.48-10.3-5.75-15.84-7.76-7.82-2.83-16.48-.87-24.56,1.12-4.78,1.18-9.71,2.42-13.65,5.37-3.18,2.38-5.57,5.77-9.03,7.71-4.93,2.77-11.22,2.04-16.29-.48-10.71-5.31-14.88-15.5-28.32-15.06-6.09.2-12.24,1.66-18.21.46-5.97-1.2-11.86-6.37-10.96-12.4.16-1.04.51-2.01,1-2.9-1.32,1.67-2.27,3.71-2.7,6.12-1.15,6.45,1.16,12.77,7.09,15.56Z"/><path class="cls-2" d="M12.95,29.93c5.97,1.2,12.12-.26,18.21-.46,13.43-.44,17.61,9.75,28.32,15.06,5.06,2.51,11.36,3.25,16.29.48,3.46-1.94,5.85-5.34,9.03-7.71,3.94-2.95,8.87-4.19,13.65-5.37,8.08-1.99,16.73-3.95,24.56-1.12,5.54,2.01,10.14,6.28,15.84,7.76,5.74,1.49,11.67-.03,17.43-1.75.72-.16,1.44-.36,2.12-.64.39-.12.79-.24,1.18-.35.74-.22,1.47-.45,2.2-.69,9.25-2.12,18.49,1.48,26.9-2.15,3.19-1.38,6-3.75,9.42-4.37,4.7-.85,9.43,1.78,14.18,1.27,2.42-.26,4.67-1.32,6.95-2.15,4.71-1.73,9.74-2.53,14.75-2.4.08,0,.18,0,.26,0,2.68.16,5.29.42,8.02.92,3.21.59,6.67,1.47,9.63.1,2.47-1.14,3.79-3.62,4.03-6.31.24-2.63-.55-5.47-2.3-7.47-3.55-4.04-9.45-5.12-14.81-4.75-5.36.37-10.6,1.93-15.97,2.16-15.16.65-29.82-9.26-44.71-6.39-8.1,1.56-15.43,6.83-23.67,6.72-9.04-.12-16.9-6.7-25.91-7.46-10.37-.88-20.24,6.08-30.61,5.13-8.46-.77-15.72-6.68-24.14-7.8-8.07-1.07-15.95,2.36-23.77,4.62-8.2,2.37-16.77,3.47-25.3,3.27-4.52-.11-9.13-.57-13.5.58-3.36.88-6.61,3-8.24,5.96-.49.89-.85,1.86-1,2.9-.9,6.03,4.99,11.2,10.96,12.4Z"/></g></svg>