<?xml version="1.0" encoding="UTF-8"?><svg id="Layer_2" xmlns="http://www.w3.org/2000/svg" viewBox="0 0 323.68 81.28"><defs><style>.cls-1{fill:#d2e7f4;}.cls-2{fill:#f3fcff;}</style></defs><g id="Layer_2-2"><path class="cls-1" d="M14.29,33.28c7.79,1.69,16-.08,23.53-2.51,7.52-2.43,14.86-5.54,22.78-6.64,20.84-2.91,41.03,8.39,62.13,8.53,9.8.06,19.56-2.29,29.31-1.4,8.37.77,16.27,3.9,24.65,4.6,17.48,1.46,36.05-7.62,51.96-1.16,4.67,1.9,8.72,5.06,13.74,6.08,11.29,2.3,21.85-6.59,33.07-3.16,8.13,2.48,10.28,9.04,13.3,15.24.8,1.64,1.63,3.08,2.6,4.26h0c1.5,2.73,7.36,5.69,13.39,5.06-2.82,1.77-6.54,3.39-11.12,4.63-6.72,1.82-5.82,11.63-12.47,13.64-6.65,2.01-14.55.39-19.48-3.99-4.52-4.01-6.45-9.85-11.1-13.74-6.34-5.31-16.23-5.78-24.88-4.43-8.66,1.36-17.05,4.22-25.84,4.44-20.29.51-38.08-12.92-58.35-13.89-14.58-.7-29.3,5.15-43.51,2.21-6.6-1.36-12.51-4.53-18.89-6.53,0,0,0,0,0,0-21.26-6.66-55.6,5.11-72.78-9.04C1.24,31.29-.3,26.71.54,22.48c1.75,5.22,7.49,9.44,13.75,10.79Z"/><path class="cls-2" d="M.03,18.5c.49-6.48,7.24-11.57,14.47-13.12,7.24-1.54,14.84-.29,22.09,1.21,7.25,1.5,14.61,3.26,22.03,2.7,11.73-.88,22.4-7.46,34.17-7.14,6.86.19,13.38,2.73,20.23,3.22,6.51.47,13.02-.93,19.55-.78,7.75.18,15.23,2.54,22.95,3.18,22.65,1.89,44.97-10.98,67.26-7,12.4,2.21,23.43,9.52,36.09,9.76,9.53.18,18.44-3.68,27.47-6.35,9.03-2.67,19.68-3.99,27.54.72,9.87,5.92,10.19,17.2,9.65,27.63-.05.89-.14,1.78-.27,2.69-.42,2.89-1.37,5.69-2.55,8.42-.84,1.96-1.34,4.42-2.92,7.1-2.82,7.85-8,10.9-13.06,11.43-6.03.63-11.89-2.33-13.39-5.05h0c-.97-1.19-1.8-2.63-2.6-4.27-3.02-6.2-5.17-12.76-13.3-15.24-11.22-3.42-21.78,5.47-33.07,3.16-5.02-1.02-9.07-4.18-13.74-6.08-15.91-6.47-34.48,2.62-51.96,1.16-8.37-.7-16.28-3.83-24.65-4.6-9.75-.89-19.51,1.47-29.31,1.4-21.1-.14-41.29-11.44-62.13-8.53-7.92,1.11-15.25,4.22-22.78,6.64-7.52,2.43-15.74,4.2-23.53,2.51-6.26-1.36-12-5.57-13.75-10.79-.43-1.28-.62-2.61-.52-3.99Z"/></g></svg>