<?xml version="1.0" encoding="UTF-8"?><svg id="uuid-e57f3c1a-95f7-4a54-8c10-94fb8e1a8384" xmlns="http://www.w3.org/2000/svg" viewBox="0 0 25.94 23.43"><defs><style>.icon_love{fill:#fff;}</style></defs><g id="uuid-ff6a5982-02ad-47f5-8b28-5bbbcf779456"><path class="icon_love" d="M0,7.83C.02,4.02,2.75.76,6.51.14c2.31-.38,4.4.18,6.24,1.64.18.14.28.12.44,0C14.37.79,15.74.19,17.27.04c2.73-.26,5.03.66,6.83,2.73,1.01,1.16,1.61,2.53,1.78,4.05.28,2.44-.39,4.61-2.12,6.37-3.24,3.29-6.52,6.54-9.78,9.8-.6.6-1.46.58-2.09-.04-1.1-1.1-2.2-2.2-3.3-3.3-2.09-2.09-4.19-4.19-6.28-6.28C1.05,12.1.31,10.57.07,8.79c-.04-.32-.05-.64-.07-.96Z"/></g></svg>