<?xml version="1.0" encoding="UTF-8"?><svg id="Layer_2" xmlns="http://www.w3.org/2000/svg" viewBox="0 0 400 400"><defs><style>.cls-1{fill:#1a31b7;}.cls-2,.cls-3{fill:#fff;}.cls-3{fill-rule:evenodd;}</style></defs><g id="Layer_2-2"><circle class="cls-1" cx="200" cy="200" r="200"/><g id="Layer_1-2"><path class="cls-3" d="M302.69,227.95c-21.41,8.61-53.05-12.32-99.37-12.32-26.8,0-48.99,6.08-67.89,16.7-13.39,7.53-24.8,16.6-34.3,29.61h29.44c17.86-21.92,44.08-34.31,74.35-35.83,32.12-1.62,58.77,10.88,82.31,9.91,19.8-.76,30.11-16.36,29.84-16.36-.24,0-4.37,4.53-14.4,8.31l.02-.02h0ZM150.93,261.95h28.79c4.09-7.41,18.53-17.62,36.53-21.04,10.92-2.07,23.03-2.91,39.37-2.14,7.3.32,15.6.52,18.52,0-22.88-1.62-44.24-6.76-66.69-4.12-35.37,4.17-51.73,21.34-56.53,27.29h.02,0ZM200.14,261.95h24.62c6.58-17.12,40.38-19.4,40.38-19.4,0,0-43.81-4.89-65.01,19.4h.01Z"/><path class="cls-2" d="M169.76,211.52c12.56-2.71,23.79-3.59,33.54-3.59,22.96,0,34.08,2.49,55.43,8.75,15.46,4.53,24.67,5.88,31.59,5.88,14.82,0,37.41-5.88,37.41-28.63,0-18.28-15.65-22.53-33.59-24.4-17.94-1.88-29.31-2.29-29.31-8.56,0-7.24,6.41-9.08,16.77-9.08,11.21,0,15.94,2.4,15.94,10.45h26.47c.07-16.71-19.81-24.29-39.07-24.29-23.55,0-33.12,4.12-42.02,14.17v-11.91h-26.64v41.19c0,13.66-3.95,18.23-17.56,18.23s-16.42-4.57-16.42-18.23v-33.46l-24.22,48.59c-3.21,6.12,1.75,16.59,11.68,14.91l.02-.02h-.02,0ZM264.46,192.91h-21.53v-19.94c3.1,7.98,9.46,10.65,21.28,12.07,8.9,1.06,20.67,2.17,29.84,3.34,7.69.97,9.93,3.7,10.05,7.35,0,6.52-5.22,9.62-20.16,9.62-16.1,0-19.48-4.26-19.48-12.42v-.02h0Z"/><path class="cls-2" d="M176.57,140.31l-39.09,81.92c-9.62,4.48-13.37,7.04-20.3,11.62l-44.92-93.54h27.92l23.57,54.89h.27l23.81-54.89h28.74Z"/></g></g></svg>