<?xml version="1.0" encoding="UTF-8"?><svg id="Layer_1" xmlns="http://www.w3.org/2000/svg" viewBox="0 0 200 200"><defs><style>.cls-1{fill:#27326d;}.cls-1,.cls-2,.cls-3{stroke-width:0px;}.cls-2{fill:#fff;opacity:.75;}.cls-3{fill:#b92025;fill-rule:evenodd;}</style></defs><circle class="cls-2" cx="100" cy="100" r="100"/><path class="cls-1" d="M68.25,110.55l19.8-40.6h-14.4l-12,27.6h-.1l-11.8-27.6h-14l22,45.8c3.33-2.05,6.85-3.79,10.5-5.2ZM101.65,103.85c10.9.4,24.4,4.7,34.3,6.6,2.16.52,4.38.82,6.6.9,4.1.1,21.3-.9,21.3-15.7,0-11.9-20.4-10.3-27.9-13.1-1.7-.6-2.7-1.5-2.7-2.8,0-1.9,1-3,2.7-3.8,1.61-.54,3.3-.81,5-.8,5,0,7.7,1.9,8.1,5.8h13.4c-.6-8.8-10.4-12.1-20.1-12.1-2.14-.03-4.28.1-6.4.4-8.2.9-12.6,3.7-14.7,6.7v-6h-13.3v22.5c0,6.8-2.2,9.1-9,9.1s-9-2.3-9-9.1v-16.5l-12.3,24.9c0,2.5,1.3,4.4,4.5,5.8,6.28-2.08,12.89-3.03,19.5-2.8ZM121.35,86.35c2.7,4.2,8.7,5.6,14.7,6.3,7.3,1.1,14.5,1.4,14.5,5.5,0,2.8-2.6,4.4-8.6,4.4-2,.09-4-.19-5.9-.8-2.44-.68-4.07-2.97-3.9-5.5h-10.8s0-9.9,0-9.9Z"/><path class="cls-3" d="M151.55,114.05c-18.8,7.6-59.1-27-101.9,17.1h15.9c27.1-31.3,56.9-12.2,78.3-13.1,5.97-.28,11.47-3.31,14.9-8.2-2.13,1.81-4.57,3.24-7.2,4.2ZM75.65,131.15h14.4c1.7-3.3,8.9-13.1,37.9-11.7,8.4.4,9.3,0,9.3,0,0,0-4.1-.4-7.6-1-36-6.5-50.6,8.5-54,12.7ZM99.05,131.15h13.5c1.9-7.7,20.2-9.8,20.2-9.8,0,0-24-1.1-33.7,9.8Z"/></svg>