<?xml version="1.0" encoding="UTF-8"?><svg id="Layer_2" xmlns="http://www.w3.org/2000/svg" viewBox="0 0 153.42 153.42"><defs><style>.cls-1{fill:#f1f2f2;stroke:#1d3072;stroke-miterlimit:10;}.cls-2{fill:#939598;}</style></defs><g id="Layer_3"><rect class="cls-1" x=".5" y=".5" width="152.42" height="152.42" rx="20" ry="20"/><g id="_2T9D1Z"><path class="cls-2" d="M43.89,76.69c0-6.09-.02-12.17,0-18.26.04-7.13,4.79-12.92,11.74-14.31.95-.19,1.94-.25,2.92-.26,12.1-.02,24.2-.03,36.3,0,7.27.01,13.08,4.82,14.43,11.94.17.91.22,1.85.23,2.78.01,12.13.02,24.25,0,36.38,0,8.06-6.25,14.49-14.31,14.55-12.34.08-24.68.08-37.01,0-8.06-.05-14.29-6.48-14.31-14.55-.01-6.09,0-12.17,0-18.26ZM104.94,88.85c.02-.39.03-.58.03-.76,0-9.86,0-19.72,0-29.57,0-.55-.02-1.1-.11-1.64-.88-5.09-4.87-8.43-10.09-8.44-12.03,0-24.05,0-36.08,0-.59,0-1.2,0-1.78.11-5.06.87-8.42,4.87-8.43,10.02-.01,9.76,0,19.52,0,29.29,0,.2.03.4.05.72.24-.27.39-.43.54-.61,1.89-2.28,3.77-4.56,5.67-6.83,3.77-4.51,9.79-4.45,13.52.11.83,1.01,1.66,2.02,2.54,3.08.32-.36.6-.68.88-1,2.53-2.89,5.05-5.79,7.59-8.67,3.63-4.13,9.61-4.13,13.25,0,2.52,2.86,5.03,5.75,7.54,8.62,1.58,1.81,3.17,3.62,4.88,5.57Z"/><path class="cls-2" d="M55.35,61.44c-.01-3.39,2.67-6.1,6.05-6.12,3.38-.02,6.12,2.67,6.15,6.03.03,3.39-2.71,6.17-6.1,6.17-3.36,0-6.09-2.71-6.1-6.08Z"/></g></g></svg>