<svg id="Layer_1" data-name="Layer 1" xmlns="http://www.w3.org/2000/svg" viewBox="0 0 183.81 79.22"><defs><style>.cls-1,.cls-2{fill:#fdf9b1;}.cls-2{fill-rule:evenodd;}</style></defs><title>logo_golden</title><path class="cls-1" d="M0,73.28v-2H9.33v2H5.88v5.81H3.46V73.28Z"/><path class="cls-1" d="M11.19,71.27H13.6V74h5.21V71.27h2.41V79.1H18.81V76H13.6V79.1H11.19Z"/><path class="cls-1" d="M23.36,79.09V71.25H31.8v1.9h-6v1.08h5.76v1.89H25.77v1.07h6v1.9Z"/><path class="cls-1" d="M39.53,79.09V71.25H48v1.9h-6v1.08H47.7v1.89H41.94v1.07h6v1.9Z"/><path class="cls-1" d="M60.92,79.1H57l-4.14-5.8c0-.09-.09-.18-.13-.28s-.1-.15-.15-.15a1.55,1.55,0,0,0,0,.22c.12.4.19.6.19.6V79.1H50.34V71.27h3.95l4.12,5.79.14.29c.05.09.1.14.15.14a1.62,1.62,0,0,1,0-.22l-.18-.61V71.27h2.41Z"/><path class="cls-1" d="M73.56,74.09H71.15c0-.46-.11-.73-.34-.81a13.29,13.29,0,0,0-2.35-.11,5.77,5.77,0,0,0-2.34.25c-.23.17-.34.76-.34,1.77s.11,1.58.33,1.75a6.08,6.08,0,0,0,2.36.24,15.58,15.58,0,0,0,2.35-.09c.22-.07.33-.31.33-.73h-3V74.6h5.39a17,17,0,0,1-.18,3.24A1.64,1.64,0,0,1,72.06,79a22.78,22.78,0,0,1-3.59.17c-2.45,0-3.92-.19-4.39-.59s-.72-1.54-.72-3.44.23-3.06.69-3.44,2-.6,4.42-.6,3.78.13,4.27.41S73.56,72.69,73.56,74.09Z"/><path class="cls-1" d="M75.61,71.26H78v5.8H83.5v2H75.61Z"/><path class="cls-1" d="M84.79,79.1V71.27H87.2V79.1Z"/><path class="cls-1" d="M93.47,77.32a18.53,18.53,0,0,0,2,0c.18,0,.27-.18.27-.43a.52.52,0,0,0-.38-.56,8.77,8.77,0,0,0-1.91-.12,10,10,0,0,1-3.81-.44c-.53-.29-.79-1-.79-2.17a2,2,0,0,1,1-2,11,11,0,0,1,3.51-.34,20.86,20.86,0,0,1,3.08.13c1,.21,1.52,1.07,1.52,2.59H95.6c0-.42-.09-.66-.28-.73a9,9,0,0,0-1.9-.1,14.75,14.75,0,0,0-1.88.06c-.17,0-.25.19-.25.44a.51.51,0,0,0,.42.53,8.14,8.14,0,0,0,1.76.12,9.76,9.76,0,0,1,3.84.47c.58.32.86,1,.86,2.17s-.32,1.72-1,2a11.51,11.51,0,0,1-3.75.37,25,25,0,0,1-2.92-.1,1.87,1.87,0,0,1-1.4-.72,3.67,3.67,0,0,1-.38-2h2.42c0,.43.09.69.28.76A9,9,0,0,0,93.47,77.32Z"/><path class="cls-1" d="M100,71.27h2.41V74h5.2V71.27h2.42V79.1h-2.42V76h-5.2V79.1H100Z"/><path class="cls-1" d="M122.4,71.14c2.23,0,3.61.19,4.13.56s.68,1.18.68,2.57h-2.43c0-.46-.12-.75-.35-.87a5.58,5.58,0,0,0-2-.23,4.36,4.36,0,0,0-2.08.27q-.3.27-.3,1.74c0,1,.1,1.53.3,1.72a4.36,4.36,0,0,0,2.08.27,6.09,6.09,0,0,0,2-.19c.26-.13.4-.43.4-.91h2.41c0,1.4-.22,2.26-.66,2.57s-1.9.56-4.15.56-3.62-.21-4.09-.62-.71-1.54-.71-3.41.23-3,.68-3.39S120.14,71.14,122.4,71.14Z"/><path class="cls-1" d="M128.93,79.09V71.25h8.44v1.9h-6v1.08h5.76v1.89h-5.76v1.07h6v1.9Z"/><path class="cls-1" d="M150.32,79.1h-3.95l-4.13-5.8L142.1,73c0-.1-.09-.15-.14-.15a1.55,1.55,0,0,0,0,.22l.18.6V79.1h-2.41V71.27h3.94l4.13,5.79c0,.1.09.19.14.29s.09.14.15.14a1.62,1.62,0,0,1,0-.22l-.18-.61V71.27h2.41Z"/><path class="cls-1" d="M152.61,73.28v-2h9.33v2h-3.45v5.81h-2.42V73.28Z"/><path class="cls-1" d="M163.89,79.09V71.25h8.44v1.9h-6v1.08h5.76v1.89H166.3v1.07h6v1.9Z"/><path class="cls-1" d="M174.37,71.25h7a2.83,2.83,0,0,1,1.83.47,2.38,2.38,0,0,1,.58,1.81,3.67,3.67,0,0,1-.24,1.49,1.58,1.58,0,0,1-.85.72,2.26,2.26,0,0,1,.87.58,1.75,1.75,0,0,1,.22,1v1.76H181.4v-1.4a.81.81,0,0,0-.17-.52.76.76,0,0,0-.63-.28h-3.81v2.2h-2.42Zm2.42,2v1.59h3.87a.78.78,0,0,0,.56-.17.83.83,0,0,0,.18-.62.88.88,0,0,0-.18-.63.81.81,0,0,0-.56-.17Z"/><path class="cls-1" d="M60.59,42.16l20-41H66L54,29h-.13L41.89,1.15H27.74L49.93,47.39A62.31,62.31,0,0,1,60.59,42.16Zm33.74-6.81C105.36,35.74,119,40.1,129,42a33.36,33.36,0,0,0,6.62.9c4.15.12,21.54-.9,21.54-15.88,0-12.06-20.63-10.39-28.16-13.2-1.69-.65-2.73-1.54-2.73-2.82A4,4,0,0,1,129,7.17a15.59,15.59,0,0,1,5.06-.77c5.06,0,7.79,1.93,8.18,5.9h13.5c-.65-9-10.51-12.3-20.26-12.3A50.26,50.26,0,0,0,129,.38c-8.31.89-12.73,3.71-14.8,6.79v-6h-13.5V23.83c0,6.92-2.21,9.23-9.1,9.23s-9.08-2.31-9.08-9.23V7.17L70.06,32.28c0,2.56,1.29,4.48,4.54,5.9A55.5,55.5,0,0,1,94.33,35.35Zm19.86-17.66c2.73,4.21,8.82,5.62,14.8,6.39,7.39,1.16,14.66,1.41,14.66,5.52,0,2.81-2.6,4.48-8.69,4.48a18.71,18.71,0,0,1-6-.78,5.3,5.3,0,0,1-3.89-5.51H114.19Z"/><path class="cls-2" d="M144.7,45.6C125.74,53.29,85,18.32,41.75,62.89h16.1C85.23,31.26,115.36,50.6,136.91,49.7A19.43,19.43,0,0,0,152,41.38,22.87,22.87,0,0,1,144.7,45.6ZM68.11,62.89H82.63c1.7-3.33,9-13.19,38.31-11.78,8.44.39,9.35,0,9.35,0s-4.15-.38-7.65-1C86.28,43.55,71.49,58.67,68.11,62.89Zm23.62,0h13.63c2-7.8,20.38-9.86,20.38-9.86S101.46,51.88,91.73,62.89Z"/></svg>