<?xml version="1.0" encoding="UTF-8"?><svg id="Layer_2" xmlns="http://www.w3.org/2000/svg" viewBox="0 0 607.42 123.9"><defs><style>.cls-1{fill:#1a31b7;}.cls-2{fill-rule:evenodd;}.cls-2,.cls-3{fill:#f6042e;}.cls-4{fill:#fff;}</style></defs><g id="Layer_1-2"><rect class="cls-3" x="334.2" y="54.73" width="273.22" height="52.47"/><rect class="cls-3" x="281.6" y="2.26" width="214.43" height="52.47"/><path class="cls-4" d="M323.21,30.66l-3.09-9.41c-.24-.74-.7-2.88-.97-4.64-.35,1.79-.8,3.9-1.04,4.64l-2.99,9.41h8.1-.01ZM324.92,35.97h-11.51l-1.98,6.11h-6.81l10.43-29.75h8.38l10.39,29.75h-6.92l-2.02-6.11h.04Z"/><path class="cls-4" d="M350.75,42.04c.07-4.39.07-8.43.07-12.93,0-3.09-.97-4.6-3.58-4.6-2.85,0-4.45,2.14-4.45,5.02v12.5h-6.15c.03-3.65.07-7.31.07-10.96s-.03-7.27-.07-10.89h6.29l-.14,3.58c1.39-2.63,3.96-4.07,6.99-4.07,5.49,0,7.09,3.69,7.09,8.22s-.03,9.34.03,14.12h-6.22.07Z"/><path class="cls-4" d="M375.95,42.04c.03-4.39.03-8.43.03-12.93,0-3.09-.94-4.6-3.58-4.6-2.85,0-4.31,2.14-4.31,5.02v12.5h-6.15c.14-4.99.14-9.87.14-14.86s-.03-9.94-.14-14.86h6.15v11.45c1.36-2.63,3.86-4.07,6.92-4.07,5.49,0,7.06,3.69,7.06,8.22s0,9.34.03,14.12h-6.15Z"/><polygon class="cls-4" points="423.86 12.33 413.67 42.08 405.29 42.08 395.11 12.33 402.69 12.33 409.64 36.25 416.45 12.33 423.89 12.33 423.86 12.33"/><path class="cls-4" d="M438.53,30.98c0-4.11-1.49-6.43-4.52-6.43s-4.52,2.56-4.52,6.64,1.53,6.6,4.52,6.6,4.52-2.46,4.52-6.81ZM426.92,12.58l4.38-.7c.21,1.65,1.7,2.46,3.16,2.46s2.96-.84,3.16-2.46l4.35.7c-.87,3.44-3.34,5.44-7.51,5.44s-6.71-2.07-7.58-5.44h.04ZM438.81,42.04l-.31-3.86c-1.32,2.7-3.51,4.39-6.36,4.39-5.6,0-8.76-5.09-8.76-11.41s3.13-11.45,8.73-11.45c2.75,0,4.87,1.37,6.22,3.69l.07-3.2h6.01c-.07,4.25-.14,7.27-.14,10.68,0,3.69.28,7.09.73,11.17h-6.19Z"/><path class="cls-4" d="M463.6,42.04c.07-4.39.07-8.43.07-12.93,0-3.09-.97-4.6-3.58-4.6-2.85,0-4.45,2.14-4.45,5.02v12.5h-6.15c.03-3.65.07-7.31.07-10.96s-.03-7.27-.07-10.89h6.29l-.14,3.58c1.39-2.63,3.93-4.07,6.99-4.07,5.49,0,7.13,3.69,7.13,8.22s-.03,9.34.03,14.12h-6.22.03Z"/><path class="cls-4" d="M381.24,78.97c0,5.65.07,10.64.14,15.56h-6.57c.07-4,.14-7.97.14-12.33h-12.17l.14,12.33h-6.57c.07-4.95.14-9.94.14-15.56,0-4.25-.03-9.24-.14-14.15h6.57l-.14,11.7h12.17c0-3.65-.03-7.69-.14-11.7h6.57c-.03,4.95-.14,9.94-.14,14.15Z"/><path class="cls-4" d="M394,100.61c0-.84,0-1.69-.03-2.53h6.22c-.03.84-.03,1.69-.03,2.53s0,1.76.03,2.56h-6.22c.03-.84.03-1.76.03-2.56ZM401.99,83.68c0-4.25-1.77-6.64-4.87-6.64s-4.87,2.42-4.87,6.64,1.77,6.6,4.87,6.6,4.87-2.42,4.87-6.6ZM392.64,70.93l-3.09-2.56,5.15-4.11h4.76l5.18,4.11-3.09,2.56-4.45-3.44-4.48,3.44h.03,0ZM386.14,83.68c0-6.64,3.75-11.45,10.99-11.45s10.95,4.81,10.95,11.45-3.69,11.41-10.95,11.41-10.99-4.78-10.99-11.41Z"/><path class="cls-4" d="M412.49,83.57c0-3.58-.03-7.27-.07-10.89h6.26c-.03,3.62-.07,7.31-.07,10.89s0,7.31.07,10.96h-6.26c.07-3.65.07-7.31.07-10.96ZM412.35,67.34c0-.84,0-1.69-.03-2.53h6.47c-.03.84-.03,1.69-.03,2.53s0,1.76.03,2.56h-6.47c.03-.84.03-1.76.03-2.56Z"/><polygon class="cls-4" points="460.6 64.82 450.42 94.56 442.04 94.56 431.85 64.82 439.43 64.82 446.38 88.73 453.2 64.82 460.64 64.82 460.6 64.82"/><path class="cls-4" d="M461.79,83.57c0-3.58-.03-7.27-.07-10.89h6.26c-.03,3.62-.07,7.31-.07,10.89s0,7.31.07,10.96h-6.26c.07-3.65.07-7.31.07-10.96ZM461.61,67.34c0-.84,0-1.69-.03-2.53h6.47c-.03.84-.03,1.69-.03,2.53s0,1.76.03,2.56h-6.47c.03-.84.03-1.76.03-2.56Z"/><path class="cls-4" d="M480.25,100.61c0-.84,0-1.69-.03-2.53h6.22c-.03.84-.03,1.69-.03,2.53s0,1.76.03,2.56h-6.22c.03-.84.03-1.76.03-2.56ZM487.55,80.73c-.45-2.77-2.02-4.32-4.38-4.32s-4.1,1.55-4.73,4.32h9.11ZM478.75,70.93l-3.09-2.56,5.15-4.11h4.76l5.18,4.11-3.09,2.56-4.45-3.44-4.48,3.44h.03,0ZM493.39,83.57v1.05h-15.23c.28,3.62,2.09,5.65,5.01,5.65,2.22,0,3.89-1.05,4.59-2.88l5.49.88c-1.36,4.25-5.15,6.81-10.05,6.81-6.85,0-11.02-4.32-11.02-11.38s4.14-11.52,10.99-11.52,10.43,4.32,10.15,11.38h.07Z"/><path class="cls-4" d="M509.52,94.22c-1.39.46-2.95.88-5.04.88-5.32,0-5.84-3.02-5.84-6.32v-11.45h-3.16v-4.6h3.37v-5.16l5.81-2.63v7.76h4.42v4.6h-4.42v10.61c0,1.65.07,2.88,1.56,2.88.76,0,1.56-.21,2.61-.67l.73,4.11h-.04Z"/><path class="cls-4" d="M556.76,78.97c0,5.65.07,10.64.14,15.56h-6.47v-16.33c0-1.3.21-4,.49-6.78l-7.93,23.11h-5.81l-7.93-23.18c.24,2.81.45,5.55.45,6.85v16.33h-6.47c.07-4.95.14-9.94.14-15.56,0-4.25-.03-9.24-.14-14.15h10.08l6.85,20.72,6.81-20.72h9.87c-.03,4.95-.14,9.94-.14,14.15h.06Z"/><path class="cls-4" d="M566.33,70.5l-2.33-3.02c.87-.95,2.64-2.35,4.8-2.35s3.37,1.33,5.15,1.3c1.18-.04,2.16-.7,2.75-1.33l2.4,3.02c-.87.91-2.64,2.32-4.8,2.32s-3.41-1.33-5.15-1.23c-1.15.04-2.16.74-2.78,1.33l-.03-.04h0ZM582.87,72.72l-8.59,21.85-.83,2.04c-.9,2.25-2.61,6.18-7.68,6.18-1.08,0-2.61-.18-4.14-.53l-.42-4.57c1.43.42,2.71.53,3.44.53,2.29,0,2.99-1.3,3.69-2.92l.31-.74-8.93-21.85h6.47l3.89,10.89c.42,1.12.73,2.32,1.32,5.48.63-3.16.97-4.36,1.36-5.41l3.96-10.96h6.15Z"/><path class="cls-2" d="M230.43,89.9c-21.41,8.61-53.05-12.32-99.37-12.32-26.8,0-48.99,6.08-67.89,16.7-13.39,7.53-24.8,16.6-34.3,29.61h29.44c17.86-21.92,44.08-34.31,74.35-35.83,32.12-1.62,58.77,10.88,82.31,9.91,19.8-.76,30.11-16.36,29.84-16.36-.24,0-4.37,4.53-14.4,8.31l.02-.02h0ZM78.66,123.9h28.79c4.09-7.41,18.53-17.62,36.53-21.04,10.92-2.07,23.03-2.91,39.37-2.14,7.3.32,15.6.52,18.52,0-22.88-1.62-44.24-6.76-66.69-4.12-35.37,4.17-51.73,21.34-56.53,27.29h.02-.01ZM127.87,123.9h24.62c6.58-17.12,40.38-19.4,40.38-19.4,0,0-43.81-4.89-65.01,19.4h0Z"/><path class="cls-1" d="M97.5,73.47c12.56-2.71,23.79-3.59,33.54-3.59,22.96,0,34.08,2.49,55.43,8.75,15.46,4.53,24.67,5.88,31.59,5.88,14.82,0,37.41-5.88,37.41-28.63,0-18.28-15.65-22.53-33.59-24.4-17.94-1.88-29.31-2.29-29.31-8.56,0-7.24,6.41-9.08,16.77-9.08,11.21,0,15.94,2.4,15.94,10.45h26.47c.07-16.71-19.81-24.29-39.07-24.29-23.55,0-33.12,4.12-42.02,14.17V2.26h-26.64v41.19c0,13.66-3.95,18.23-17.56,18.23s-16.42-4.57-16.42-18.23V9.99l-24.22,48.59c-3.21,6.12,1.75,16.59,11.68,14.91l.02-.02h-.02ZM192.19,54.86h-21.53v-19.94c3.1,7.98,9.46,10.65,21.28,12.07,8.9,1.06,20.67,2.17,29.84,3.34,7.69.97,9.93,3.7,10.05,7.35,0,6.52-5.22,9.62-20.16,9.62-16.1,0-19.48-4.26-19.48-12.42v-.02Z"/><path class="cls-1" d="M104.31,2.26l-39.09,81.92c-9.62,4.48-13.37,7.04-20.3,11.62L0,2.26h27.92l23.57,54.89h.27L75.57,2.26h28.74Z"/></g></svg>